<svg width="83" height="82" viewBox="0 0 83 82" fill="none" xmlns="http://www.w3.org/2000/svg">
<path d="M10.1604 64.5521C11.4158 62.5453 13.2914 59.9938 14.7811 58.088C14.7816 58.0874 14.782 58.0867 14.7825 58.0861C15.2396 57.5022 15.2276 57.9475 15.5594 57.5391C16.2023 56.7482 16.6337 55.8943 17.2881 55.1143C17.5031 54.8607 17.5883 55.4131 17.8072 55.1414C19.0123 53.6389 19.939 52.0734 21.0813 50.4972C26.7058 42.7291 31.9847 34.9266 37.2969 26.8345C39.0371 24.1795 41.3526 21.0957 42.9003 18.2181C42.9107 18.1988 42.9211 18.1795 42.9314 18.1603C43.1154 17.8162 42.7114 17.8466 42.7257 17.769C42.9466 16.575 43.3259 17.2483 43.7828 16.6449C45.5702 14.2783 47.2097 11.4164 48.2269 8.8733C48.6386 7.80405 47.5856 8.58195 48.3624 7.6906C48.4148 7.62782 48.6346 8.02274 48.7842 7.75373C49.1398 7.14223 49.454 5.87919 49.4593 5.67415C49.4852 5.55129 49.4702 5.5467 49.5173 5.68176C49.5563 5.81054 49.7303 6.0925 49.9498 6.23472C50.0169 6.27866 50.1577 6.35981 50.3762 6.38576C50.5926 6.41695 50.8249 6.34134 50.8642 6.31253C50.925 6.2677 50.7428 6.38161 50.5751 6.57115C50.4022 6.75656 50.1981 7.02442 50.012 7.3075C49.6313 7.88663 49.281 8.57744 49.0321 9.27117C48.9275 9.5695 49.4197 9.32211 49.2863 9.8104C49.1521 10.2871 48.668 11.5358 48.4461 11.949C48.2219 12.355 48.0132 12.084 47.9259 12.1409C47.1876 12.6127 47.4629 14.3793 47.4323 14.5745C46.7651 18.1547 45.7498 21.1657 45.1874 24.5561C45.1715 24.6533 45.1563 24.7513 45.1417 24.8503C44.7592 27.4353 44.7829 30.2974 44.7682 32.8458C44.7537 35.8846 44.6961 38.4998 44.952 41.4774C44.9793 41.7926 45.3741 41.3905 45.4086 41.7753C45.7775 45.8491 46.1885 49.9013 46.4219 54.0092C46.4452 54.4217 46.0082 53.9416 46.0095 54.3572C46.0222 56.8959 45.8469 60.9616 47.6679 62.2143C47.7814 63.2898 47.9176 64.5108 47.9785 65.6634C48.0118 66.3179 48.0261 66.9371 48.0024 67.5008C47.9653 68.489 47.3949 67.6366 47.7861 68.7762C47.8752 69.0304 48.1567 68.6201 48.2652 69.0084C48.7208 70.6259 49.0458 72.4409 49.7467 73.8691C49.8898 74.1549 50.1606 73.9636 50.2444 74.0254C50.9207 74.5596 50.7147 75.8088 50.775 75.9443C50.8074 76.0522 50.839 76.128 50.8113 76.1399C50.7828 76.1627 50.6688 76.0482 50.2669 76.0337C50.3973 76.0844 50.4301 76.1033 50.5253 76.0691C50.6145 76.0361 50.7588 75.9036 50.8866 75.7027C51.1565 75.287 51.3699 74.6366 51.5546 73.8916C51.657 73.4645 51.126 73.8663 51.2024 73.4657C51.5878 71.3293 51.7096 68.8201 51.9182 66.4684C51.9636 65.9416 52.3263 66.427 52.3664 66.1756C52.5352 65.0564 51.8427 64.8139 51.9727 63.7419C51.9987 63.5146 52.3132 63.6359 52.3467 63.5938C52.8713 62.9326 52.093 62.3866 52.0714 62.221C51.7789 60.1181 52.5135 58.7342 52.3171 56.6783C52.2928 56.4329 51.9208 57.0032 51.8767 56.3133C51.8111 55.2885 51.7571 54.2492 51.723 53.2003C51.6272 50.1534 49.888 46.9576 47.9767 44.1353C47.5925 43.5743 48.1252 43.7673 48.1278 43.7116C48.1304 42.8004 47.2295 42.9274 47.0681 42.783C45.7644 41.5821 45.035 39.9258 43.5317 39.7313C38.3095 34.2259 31.8014 30.0789 26.1534 24.8551C26.0809 24.7896 26.4455 24.5906 26.3001 24.4612C24.5536 22.9023 24.5557 23.6274 22.9079 23.2886C22.9014 23.2873 22.8949 23.286 22.8883 23.2847C22.4839 23.2028 22.0499 21.8305 21.9957 21.7191C21.8205 21.3131 22.4605 21.0743 22.3825 20.9651C21.7055 20.0723 20.8162 21.7013 19.6537 20.9591C19.6183 20.933 19.9558 20.7423 19.8746 20.6509C19.6215 20.3653 19.2459 20.2932 18.9991 20.0074C18.4447 19.3607 18.6268 18.4161 17.2643 18.2696C17.0905 18.2561 16.804 19.2839 15.7319 18.6737C15.3095 18.4196 13.3295 17.5105 12.7909 17.2292C12.26 16.9364 12.7703 16.7802 12.7366 16.7502C11.3671 15.7236 12.0135 15.7839 11.4339 14.8683C10.8341 13.9661 10.5567 15.5412 10.1915 15.6095C9.82031 15.6693 8.76628 15.007 8.50017 14.8299C8.23112 14.643 8.64598 14.508 8.39281 14.3823C6.7007 13.6196 7.50637 15.0348 6.9622 15.2205C6.1421 15.5446 5.65685 15.2981 5.40599 15.1301C5.0417 15.3695 4.72421 15.5984 4.51485 15.9625C4.35568 16.2503 4.70211 16.1142 4.62344 16.377C4.36822 17.3642 3.92568 18.0767 4.62324 19.1012C4.74673 19.3111 5.72007 19.6698 5.75502 20.4475C5.76256 20.5649 5.35915 20.5628 5.64016 20.9571C6.05294 21.5556 7.12888 22.4402 7.87197 22.7598C8.42735 23.0058 8.08501 22.2511 8.64682 22.7446C8.90402 22.9627 8.22476 22.9108 8.73085 23.3028C9.23861 23.7066 10.7222 24.3707 11.3128 24.5874C11.8893 24.8075 11.7094 24.3426 11.7648 24.3386C12.0959 24.3235 13.2576 24.5608 13.3575 24.592C18.3264 26.2435 23.0686 27.7759 28.2557 28.3779C28.6649 28.4246 28.4513 28.0034 28.5144 28.0066C29.7071 28.048 29.0025 28.6622 29.2997 29.14C29.357 29.2267 29.4477 29.309 29.5885 29.3831C29.5646 28.5917 30.1167 28.8139 31.1152 28.8907C31.5934 28.9273 31.3864 28.5873 31.4344 28.5638C32.2199 28.2299 32.6055 28.9011 32.7108 29.0429C33.095 29.5642 33.6952 29.1405 33.9548 29.4935C34.2122 29.8441 33.4101 30.1354 34.3423 30.3103C34.6591 30.088 34.1015 29.2351 34.8386 29.2598C37.6287 29.3267 42.4875 31.1354 44.5641 31.8499C46.6539 32.5441 47.3354 32.7297 48.521 33.2489C50.6404 34.2114 50.0217 33.4103 51.4757 33.7188C52.931 34.0565 51.7459 35.0087 51.824 35.3512C51.8759 35.6355 52.122 35.5593 52.2846 35.669C52.3168 35.6904 52.3471 35.7188 52.3743 35.7582C52.5522 36.0048 51.9447 35.961 52.5045 36.2576C53.0713 36.5719 54.8014 36.5122 55.0652 36.2561C55.6326 35.7333 55.0937 34.9459 56.5111 35.4799C56.5944 35.5104 56.2467 35.7989 56.5706 35.8984C59.1566 36.6686 61.9642 36.9801 64.6543 37.4358C65.0212 37.4982 64.6599 37.8605 64.8741 37.901C67.1226 38.3161 66.361 37.5997 67.6397 36.9494C67.3039 37.9005 67.954 38.5417 69.6819 38.6304C70.7187 38.6818 70.5613 38.2495 71.2401 37.9781C71.4426 37.8963 72.1669 38.2142 72.3047 38.0191C72.7624 37.3815 72.1032 36.6334 73.8576 36.9759C73.9351 36.9919 73.6769 37.3417 73.9459 37.3707C74.9119 37.476 75.4088 37.307 75.9884 37.131C76.4007 36.9881 76.8606 36.8403 77.4901 36.6945C77.8684 36.606 78.3265 36.4943 78.5957 36.3484C78.8569 36.2109 78.974 36.0846 78.9929 35.8711C79.0588 35.9271 78.9962 35.7562 78.8471 35.6182C78.7085 35.4779 78.5028 35.3318 78.3158 35.2211C78.8945 34.2606 77.2902 33.8225 76.4671 34.3655C75.472 33.9951 74.3553 33.73 73.3685 33.3666C73.0275 33.2421 73.3361 32.9953 73.3003 32.9508C72.7585 32.259 72.123 32.8589 71.8852 32.8307C69.3638 32.5118 67.4517 31.5345 64.9609 31.5517C64.8709 31.5524 64.5823 32.2657 64.059 31.5874C64.0267 31.5414 64.8849 31.3726 63.7711 31.1066C62.8428 30.885 61.2914 30.263 59.8585 30.0622C59.5673 30.0215 59.2828 30.0012 59.0119 30.0076C58.6198 30.0142 57.5768 30.4434 56.9001 29.8505C56.8098 29.77 56.9542 29.5727 56.8272 29.4302C56.405 28.9746 56.0419 29.6954 55.5667 28.9757C55.0947 28.2581 53.932 27.6184 52.282 27.9641C52.2289 27.974 51.8138 28.5556 51.3136 28.5245C50.5142 28.4718 49.3765 28.3287 48.5343 28.3497C48.1333 28.3597 48.3983 28.7318 48.3289 28.7401C45.6638 29.0292 43.745 28.8778 40.8727 29.2853C40.3411 29.3586 38.9902 30.1915 37.9046 30.0818C36.7019 29.9777 37.2906 27.8219 34.8586 29.0977C34.0515 29.5351 33.6382 31.4018 32.352 31.8676C32.0601 31.9742 31.7226 32.0127 31.3214 31.9548C28.1448 33.7481 24.8379 34.8374 22.007 37.2435C21.8755 37.3541 21.8275 38.1782 21.501 38.3955C21.0207 38.7135 20.6012 38.6387 20.251 38.8694C18.8111 39.8112 17.7535 41.0017 16.4965 42.065C16.0173 42.4755 15.9733 42.0854 15.4056 42.5872C14.8438 43.0912 14.7768 43.7324 13.9251 44.315C13.2897 44.7488 12.1268 44.7418 11.3674 45.4603C11.9761 46.0452 11.4899 46.5603 10.8863 47.6685C10.7695 47.8842 11.1596 47.8645 11.1165 47.9755C10.9505 48.4265 10.5001 48.6129 10.372 49.0564C10.3409 49.1635 10.5692 49.3379 10.5563 49.4363C10.4605 50.2656 9.24908 50.8728 9.04109 50.9814C8.23564 51.404 8.3474 51.9165 7.86925 52.3422C7.39881 52.7591 7.7161 51.8815 7.24233 52.4264C6.9241 52.793 6.60194 53.2224 6.29052 53.6572L6.26925 53.6947C5.70678 54.7221 5.35585 55.9057 5.09336 56.9044C4.94286 57.497 5.41595 57.1822 5.40297 57.2693C5.2861 57.9938 5.0297 58.6943 4.97355 59.3193C4.93432 59.7533 4.99419 60.1495 5.27074 60.4647C3.22 61.096 5.33096 61.2265 4.91204 62.9299C4.88166 63.0632 3.94608 63.2697 3.80941 62.7048C3.67443 62.1347 4.00835 61.3012 3.88951 60.5088C3.85584 60.3332 3.19653 59.227 3.12981 59.0053C3.12706 58.9969 3.12514 58.9897 3.12411 58.9841C2.9152 57.7785 4.33237 57.8969 4.41525 57.86C5.35131 57.3899 4.76082 55.9529 4.81481 55.5886C4.91131 54.7539 5.17366 54.0104 5.4973 53.3161L5.56897 53.1896C5.88923 52.6703 6.19962 52.1642 6.44174 51.6046C6.7774 50.8352 6.06185 50.2608 6.45143 49.7307C7.78669 47.9446 9.24995 48.1106 9.69476 45.805C9.80489 45.3083 8.73774 45.0006 10.4034 44.2799C10.5092 44.2309 11.8372 43.8264 11.9867 43.0188C12.0049 42.9169 11.7928 42.7172 11.8552 42.6173C12.2862 41.9445 12.8124 41.7472 13.3428 41.0865C13.8786 40.4218 14.5244 39.6134 15.3191 39.0661C15.8082 38.725 16.7129 38.6869 17.0158 38.6151C17.846 38.4378 18.1307 37.4327 18.7882 37.5225C19.4491 37.6142 19.1246 38.7271 20.2988 38.2432C19.8924 37.6035 19.5246 36.9116 19.1436 36.2487C21.4398 34.641 23.8967 33.4248 26.3256 32.0867C26.6299 31.919 26.1239 31.7273 26.4481 31.5376C27.7891 30.7576 29.1616 30.4081 30.5639 29.6425C30.7739 29.528 30.9847 29.4008 31.1975 29.2654C32.1145 28.6841 33.0661 27.9812 34.0797 27.5278C35.1494 28.0568 36.9456 27.1747 38.3823 26.91C38.8809 26.8156 38.9047 27.0488 39.2689 27.042C40.6482 27.0233 39.8699 26.4143 40.2127 26.2186C41.7088 25.4085 42.1391 27.0849 43.9503 26.8102C44.0418 26.7935 45.1479 25.7516 45.3183 25.6837C46.3538 25.2253 45.519 25.9878 46.1881 26.008C47.4062 26.0558 48.238 26.2451 49.6513 25.9798C50.063 25.9008 51.0773 25.346 51.8623 25.8344C51.9652 25.8982 51.8905 26.1997 51.9743 26.2221C53.4733 26.6113 53.5859 25.6715 54.5026 25.4327C55.4293 25.1967 56.6975 26.0403 56.937 26.2721C57.576 26.8678 56.3605 26.3986 56.3167 26.4446C55.7897 26.9544 56.7692 26.9842 57.494 27.1536C57.4501 28.0962 58.4657 28.2166 58.2466 27.3286C58.2213 27.2306 57.633 27.2188 57.494 27.1536C58.2581 26.3746 59.3946 26.4315 60.4239 27.4401C60.4589 27.4754 60.4937 27.5119 60.5284 27.5494C61.0044 28.065 60.372 28.4112 62.1047 28.6066C62.886 28.6945 62.7315 27.9995 63.4428 27.9713C65.0753 27.9091 66.9692 28.9313 68.5959 29.1931C69.188 29.2885 68.696 28.8169 69.1016 28.87C70.1831 29.0118 71.0592 29.4828 72.1602 29.6044C72.2603 29.6152 72.109 29.1978 72.4434 29.2728C75.0232 29.899 77.031 30.4602 80.1194 31.9553C80.3985 32.1078 80.7658 32.3085 81.1913 32.6259C81.6137 32.9734 82.2483 33.3989 82.7186 34.6219C83.2646 36.099 82.8653 37.8406 81.9781 38.9087C81.1014 39.9826 80.154 40.3797 79.4933 40.6113C78.1809 41.0365 76.9958 41.0087 75.9162 40.9031C74.2845 40.7052 72.6445 40.462 71.3575 40.4966C70.0557 40.5287 70.3238 40.9093 69.7543 41.137C68.6499 41.5795 66.7847 40.5899 66.5362 40.4354C66.5288 40.4312 67.656 40.4128 67.071 40.1862C66.7456 39.7686 66.5494 40.4344 66.5362 40.4354C66.376 40.3411 64.1378 40.094 63.6853 40.1213C63.442 40.1393 63.5457 40.5009 63.4172 40.5034C60.3694 40.5404 57.3176 40.3103 54.1069 39.3754C54.0503 39.3541 54.2318 38.9942 54.0994 38.949C53.0546 38.5798 52.1597 38.4245 51.1542 38.1609C50.6328 38.0642 50.0971 38.0091 49.5224 37.9095C48.1751 37.677 47.1984 37.2332 46.6433 36.3293C45.634 36.0711 44.2946 35.3367 43.5104 34.9171C42.7304 34.4977 42.398 35.2019 42.3231 35.1956C39.9144 35.0209 38.6977 34.262 36.302 33.6553C35.1644 33.3637 32.8568 33.0188 31.5922 32.8888C30.5946 32.784 30.0231 32.5102 29.0941 32.485C28.9679 32.4815 29.0424 32.8373 29.0026 32.8446C28.903 32.8676 28.8176 32.8823 28.7447 32.8897C28.0298 32.9625 28.5143 32.328 28.3356 32.1649C27.6309 31.5114 27.1621 31.1516 25.7598 31.1777C25.4542 31.1865 24.3164 32.2084 23.7229 32.1712C22.9424 32.1186 23.3237 31.7527 22.5057 31.7029C22.4364 31.6981 22.3958 31.9612 21.9169 31.8551C19.6592 31.3578 17.2298 30.6453 14.8687 29.9952C14.5458 29.9047 14.8435 30.4291 14.3722 30.303C12.1621 29.7073 9.73795 28.8508 7.65029 27.6172C7.14264 27.3121 7.60633 27.2117 7.53127 27.0771C7.07456 26.2656 5.72514 26.365 5.53493 26.2579C3.57073 25.213 1.65393 23.6967 0.53659 20.9541C-0.660282 18.0987 0.332727 14.7486 1.6788 12.6474C2.01587 12.122 2.45752 11.6912 2.86862 11.3917C3.21956 11.0662 4.59977 10.2497 5.59002 10.0801C6.61868 9.85509 7.49524 9.92097 7.94792 10.3293C8.03059 10.3829 8.82395 11.2228 9.65647 10.9132C9.71099 10.8957 9.26082 10.4041 10.1807 10.6629C11.0822 10.9203 12.548 11.1219 13.5234 11.9337C13.836 12.1897 14.3767 13.1716 15.6058 13.089C15.686 13.0735 17.7965 12.6185 17.9426 13.706C17.9622 13.8843 17.4499 14.6753 18.8142 14.8457C19.0777 14.8803 18.7803 14.4786 19.4205 14.6748C20.4074 14.9792 21.4232 15.8626 22.6935 16.1656C22.9152 16.2155 24.0516 16.1775 24.3926 17.0014C24.4455 17.13 24.086 17.2683 24.3881 17.5174C24.9619 17.9932 25.5728 18.4373 26.1868 18.8924C27.0263 19.5143 27.896 20.1309 28.6602 20.8613C29.1106 21.2916 28.551 21.5142 28.9888 22.0102C29.4278 22.5069 30.3969 23.392 31.0794 23.6096C31.7643 23.829 31.6569 22.7288 32.5147 23.2892C36.238 25.7262 39.4771 28.8128 42.8778 31.8188C43.382 32.267 43.1494 31.6778 43.9048 32.3283C46.6993 34.6706 51.5547 39.145 53.0228 42.4402C54.1719 45.0009 51.9202 42.3484 52.9117 44.1943C53.3674 45.0643 54.7346 45.5891 54.8845 45.8195C56.3099 47.9628 56.571 49.9252 56.9191 52.4798C56.9788 53.0174 57.3338 52.462 57.3744 52.9321C57.377 52.9654 57.3794 52.9987 57.3816 53.032C57.4703 54.1359 57.353 55.317 57.4278 56.3953C57.463 56.8897 57.753 56.7887 57.749 57.2436C57.7432 58.3401 57.6595 59.3163 57.4228 60.4051C57.4012 60.5041 57.0123 59.8556 57.0277 60.6731C57.053 61.9988 56.8284 63.6551 57.1198 65.2019C57.2064 65.6616 57.8816 65.6796 57.4122 66.6792C57.3122 66.8916 56.5142 66.6061 57.1897 67.7883C57.3066 67.9726 58.1825 70.024 57.4857 71.0086C57.3062 71.2598 56.5896 71.8791 56.6182 72.4818C56.624 72.5662 57.0246 72.2804 56.9948 72.7884C56.7816 74.5986 56.7617 76.442 54.9147 79.2179C54.2809 79.9832 55.6185 79.1042 54.528 80.2687C53.5873 81.2583 51.5538 82.1069 49.9476 81.9487C48.4261 81.8405 47.59 81.2167 47.0854 80.8335C46.5751 80.4223 46.2704 80.056 46.0373 79.7575C45.5668 79.1391 45.3134 78.6527 45.0885 78.1964C44.6555 77.2931 44.4033 76.5197 44.1992 75.8277C43.9936 75.1008 44.457 75.4939 44.4705 75.4309C44.7148 74.4471 43.8846 74.2156 43.7622 73.9505C43.0482 72.371 43.1176 71.0573 42.7406 69.6004C42.6386 69.1945 42.3477 69.5509 42.3013 69.4748C41.8428 68.6838 42.5811 69.2016 42.5533 68.6526C42.5217 67.9509 42.4474 67.2223 42.3556 66.4915C42.2534 65.6736 42.116 64.8667 41.9794 64.0918C41.8863 63.5664 41.5676 64.2179 41.4888 63.7459C41.0148 60.9519 40.6469 58.0138 40.5161 55.2281C40.4921 54.7016 40.8462 54.9895 40.9035 54.8719C41.3067 54.0654 40.4908 53.0541 40.3956 52.8111C39.9599 51.6986 40.1844 51.225 40.016 50.211C39.1866 45.2831 38.8277 39.0617 38.8785 34.2148C38.9131 30.4506 39.1796 27.127 39.7886 23.7103C40.1893 21.5263 40.6279 19.3423 41.1349 16.9713C41.216 16.5975 40.7217 16.8798 40.7868 16.556C41.7609 12.3096 42.6851 8.53032 45.3235 3.77568C45.5946 3.35612 44.8365 3.75608 45.3072 3.03387C45.6849 2.50608 46.1163 1.84398 47.2615 1.02661C47.8474 0.633071 48.7373 0.129599 50.0657 0.0193156C51.4165 -0.109402 52.8494 0.43253 53.6497 1.05116C54.6555 1.75524 55.3228 2.91243 55.548 3.69693C55.7941 4.50077 55.8044 5.08591 55.7963 5.51725C55.7578 6.24826 55.6442 6.08104 55.556 5.97627C55.4591 5.84883 55.3786 5.79111 55.2989 6.35419C54.8229 8.70289 54.1558 9.84022 53.6328 11.2517C53.3991 11.8317 54.1567 11.1518 53.8289 11.876C52.1988 15.3985 50.4494 18.4827 48.4491 21.5245C47.6697 22.7006 46.8497 23.8568 45.9754 24.9975C45.7656 25.2699 44.9042 25.097 44.6505 25.8079C44.8164 25.9747 45.0469 26.1139 45.2423 26.2629C41.5294 32.5042 37.4065 38.3643 33.4098 44.4069C33.2411 44.6619 33.8959 44.4586 33.5712 44.9533C31.6944 47.8128 29.9662 50.6583 27.6708 53.3373C27.4454 53.6005 26.9018 53.0297 26.4319 53.9484C26.3532 54.1058 25.5795 55.4559 25.5036 55.8709C25.4938 55.9311 25.9514 55.8911 25.6811 56.3163C24.3465 58.4062 22.8643 60.5272 21.347 62.5055C21.085 62.8489 20.8399 63.162 20.5825 63.4879C20.2882 63.8597 20.2523 63.2298 20.0411 63.4909C18.5564 65.3269 17.3681 67.598 15.7691 69.2731C14.6977 70.3837 14.4774 69.5516 13.4763 69.8232C13.3385 69.8623 12.7316 70.6328 12.3923 70.4364C11.5935 69.9108 11.043 68.938 10.1512 68.4281C10.1027 68.4012 10.0397 68.4378 9.98124 68.4804C9.93358 68.5143 9.84983 68.58 9.95127 68.4631C10.01 68.4127 10.1258 68.2474 10.6179 68.0541C10.851 67.9639 11.1701 67.9212 11.3201 67.9152C11.4745 67.9069 11.4876 67.9004 11.4892 67.8856C11.4865 67.8715 11.5 67.8568 11.4856 67.8378C11.4709 67.8228 11.3698 67.7757 11.0276 67.7883C10.6928 67.7983 10.2828 67.9338 10.0839 68.026C9.86848 68.1221 9.76281 68.1789 9.6844 68.2033C9.66295 68.2097 9.59411 68.2535 9.58884 68.2248C9.57904 68.2 9.60172 68.1273 9.63299 68.0325C9.69857 67.8397 9.77537 67.5908 9.76769 67.4518C9.74876 67.2704 9.29418 67.2366 9.3342 66.9175C9.37404 66.5977 9.82721 66.523 9.96774 66.0045C10.1073 65.4812 9.62066 65.4149 10.1604 64.5521ZM39.9341 33.0929C39.2367 32.5379 38.7994 33.8163 39.72 33.7158C39.7654 33.7096 39.9706 33.1208 39.9341 33.0929ZM24.4268 34.3542C25.6578 34.3196 25.9103 33.1872 24.9934 33.1751C24.0755 33.1687 24.0452 34.3712 24.4268 34.3542ZM15.4502 41.4162C16.7186 40.9129 15.6315 39.3312 14.8276 40.5575C14.7806 40.6291 15.3762 41.4465 15.4502 41.4162ZM15.4744 66.667C15.4582 66.6592 15.0549 67.2126 15.0647 67.2292C15.2133 67.7662 16.0036 66.6829 15.4744 66.667ZM8.39437 50.1887C8.83211 50.0035 9.25706 48.9058 8.70708 49.1197C8.2564 49.2977 7.84787 50.4146 8.39437 50.1887ZM3.90151 15.7244C3.92402 15.713 4.15517 15.2862 4.05232 15.2457C3.71342 15.0871 3.4925 15.8043 3.90151 15.7244ZM4.90912 68.4677C4.35116 65.6362 5.80535 63.8636 6.05154 66.765C6.11344 67.2988 5.35905 65.7159 5.33408 66.4118C5.29806 67.7176 6.453 68.3046 6.2803 69.673C6.24618 69.9318 4.93199 68.6388 4.90583 68.4633C4.90692 68.4648 4.90803 68.4662 4.90912 68.4677ZM39.8737 31.4104C39.8625 31.3887 39.2211 31.2133 39.2029 31.2276C38.7549 31.5574 40.0378 31.9083 39.8737 31.4104ZM27.7951 25.616C27.8021 25.6681 29.0128 26.6144 29.0732 26.6165C30.1345 26.536 27.6863 24.6192 27.7951 25.616ZM78.309 35.1845C77.5552 35.2724 76.8289 35.0593 76.4699 34.367C77.1161 34.6181 77.7549 34.8652 78.309 35.1845Z" fill="#FFF0E5"/>
</svg>
