<svg width="67" height="55" viewBox="0 0 67 55" fill="none" xmlns="http://www.w3.org/2000/svg">
<path d="M59.6449 53.9329C60.0669 54.1822 59.9256 53.9461 59.8619 53.6614C59.835 53.5715 59.8626 53.1747 59.8419 53.0947C59.803 52.9389 59.7453 53.1326 59.6973 52.9475C59.6802 52.8842 59.715 52.255 59.696 52.203C59.5882 51.9228 59.4738 52.082 59.3492 51.9476C58.7178 51.2846 58.0364 51.0584 57.322 50.7854C57.0943 50.6958 56.7962 50.1306 56.5564 50.3863C56.5281 50.4167 56.5585 50.9689 56.554 51.0146C56.4859 51.7138 56.4887 50.5976 56.4308 50.4506C56.2013 49.8706 55.9527 49.826 55.7482 50.0448C55.6597 50.1396 55.7803 51.2347 55.6719 50.6211C55.6644 50.5796 55.672 49.9922 55.6451 49.9303C55.626 49.8865 55.6023 49.8672 55.5773 49.8598C55.5261 49.8437 55.4691 49.8845 55.4388 49.8535C55.3536 49.7632 55.34 49.7695 55.2603 49.765C55.1504 49.7538 55.0115 49.4658 54.9019 49.602C54.8782 49.6329 54.9281 50.2334 54.8918 50.3369C54.8557 50.4402 54.7495 50.3922 54.7095 50.2515C54.6697 50.1107 54.671 49.6375 54.6615 49.5293C54.5826 48.6163 54.4958 49.8866 54.483 49.9184C54.2213 50.4604 53.9459 49.7465 53.684 49.7567C53.48 49.7662 53.2698 50.0113 53.0773 49.9847C52.8444 49.9509 52.6386 49.6313 52.418 49.6946C52.3946 49.7006 52.4454 50.4068 52.4168 50.4156C52.1074 50.5081 51.8105 50.4408 51.483 49.974C51.4503 49.9265 51.4694 49.3044 51.4354 49.2199C51.2327 48.7159 50.8952 47.5004 50.8746 50.2072C50.7408 50.1061 50.5871 50.0022 50.4547 49.4613C50.3695 49.1132 50.4171 48.4344 50.3372 48.7261C50.3192 48.7911 50.3661 49.3825 50.3374 49.4352C50.2173 49.6564 50.0671 49.4689 49.9519 49.7793C49.9287 49.8438 49.9542 50.3742 49.9503 50.4701C49.9168 51.2461 49.7706 49.9703 49.7451 49.8781C49.5517 49.1908 49.4366 49.468 49.2759 49.4568C49.2386 49.4538 49.3078 50.1651 49.2727 50.1879C49.0958 50.2965 48.9048 50.2419 48.7131 49.932C48.6704 49.8614 48.6857 49.2529 48.6641 49.1881C48.5694 48.9097 48.5916 50.0572 48.5011 49.8123C48.4821 49.7621 48.4732 49.242 48.468 49.185C48.388 48.2906 48.3917 49.5619 48.3804 49.5903C48.2377 49.979 48.0894 48.6571 47.9431 48.8503C47.9256 48.8747 47.9907 49.5309 47.9401 49.5595C47.5991 49.7536 47.2412 49.5856 46.8777 49.0722C46.8222 48.9932 46.8416 48.4978 46.836 48.437C46.7479 47.4873 46.7599 48.7636 46.7446 48.8123C46.6231 49.1629 46.4576 48.0982 46.4213 49.6203C45.826 49.1144 45.2879 49.9883 44.6708 48.6489C44.663 48.6334 44.6525 48.005 44.637 47.9768C44.4496 47.6307 44.5195 48.6054 44.4485 49.8034C44.4305 50.1042 44.288 48.6664 44.2767 48.5611C44.2339 48.1729 44.2282 47.2375 44.2159 47.1625C44.1156 46.5735 44.2441 49.6625 44.1387 49.6675C44.1352 49.6624 44.1277 49.0933 44.1167 49.037C44.0825 48.8606 44.0637 49.0876 44.0293 48.8928C43.9506 48.4422 43.8722 46.9418 43.8103 47.819C43.8025 47.9329 43.8867 49.6847 43.7887 49.6055C43.7496 49.5724 43.5828 49.6088 43.5313 49.497C43.4798 49.3853 43.4909 48.8194 43.4867 48.795C43.3321 48.053 43.3688 47.7417 43.2642 46.6385C43.1598 45.5394 43.2763 48.1658 43.2617 48.4599C43.2471 48.7533 43.1318 48.1406 43.101 47.9273C43.0703 47.7139 43.085 47.3539 43.0602 47.2334C42.8966 46.4462 43.0508 48.5396 43.0225 48.9582C42.9558 49.9494 42.801 48.0043 42.6981 47.817C42.6702 47.7664 42.7081 48.2093 42.6866 48.2517C42.6014 48.4136 42.5226 47.8079 42.4415 48.3691C42.4281 48.4606 42.3894 49.635 42.3029 48.7775C42.2906 48.6538 42.2939 48.1675 42.2511 48.0602C42.1873 47.8992 42.0792 47.7971 42.0231 47.9617C41.9817 48.0835 42.0647 48.8814 41.9974 48.6351C41.9675 48.5252 41.9974 48.0554 41.9426 47.8878C41.8881 47.7202 41.7657 47.7455 41.7193 47.7634C41.673 47.7817 41.7218 48.3876 41.7196 48.4286C41.7055 48.6636 41.6266 48.9596 41.6191 48.9592C41.2271 49.0483 40.814 48.0398 40.4423 48.3931C40.4129 48.4199 40.4576 49.059 40.4534 49.0697C40.3596 49.3418 40.3765 47.6374 40.2819 47.0707C40.3422 48.3688 40.2902 48.1353 40.2222 48.2805C40.1895 48.3516 40.228 48.8536 40.2268 48.9052C40.2035 49.6709 40.1291 48.6859 40.1119 48.4845C40.0486 47.7436 40.0443 48.6221 40.0015 48.1268C39.9589 47.6353 39.9855 46.9032 39.9152 46.9153C39.9132 47.3809 40.0123 48.5935 39.9661 48.7924C39.7902 49.5449 39.3811 48.6062 39.2139 48.5135C39.0479 48.4208 38.9986 48.5086 38.8973 48.3443C38.7144 48.0472 38.8124 48.9459 38.7227 49.3625C38.6328 49.7791 38.5987 47.5597 38.5651 47.0836C38.5318 46.6077 38.5344 47.0988 38.5057 46.8376C38.477 46.5764 38.5047 46.2508 38.4573 46.1541C38.4099 46.0576 38.3232 46.9098 38.3269 47.4089C38.3349 48.4661 38.4316 49.5722 38.3008 49.1873C38.2933 49.1645 38.2924 48.5806 38.2646 48.5226C38.0449 48.0816 37.832 48.0619 37.6159 47.6727C37.586 47.6183 37.5857 46.9687 37.5681 46.9297C37.3839 46.5213 37.4863 47.6127 37.4411 48.8312C37.3992 47.2136 37.31 46.2264 37.1816 46.2218C37.1044 46.2184 37.145 46.9241 37.1145 47.4237C37.1053 47.5743 37.032 47.0916 37.035 47.424C37.0445 48.5108 37.143 49.724 36.9919 49.2453C36.9853 49.2225 36.9807 48.6276 36.9592 48.5924C36.8206 48.3619 36.8499 49.4979 36.7159 49.6408C36.611 49.7529 36.3896 49.0681 36.2604 48.9603C36.1924 47.1425 36.0907 47.5633 36.0915 48.8185C36.0084 48.7703 35.9234 48.8446 35.839 48.6744C35.8099 48.6163 35.8071 48.0894 35.8015 48.0326C35.7149 47.1426 35.7273 48.3633 35.7117 48.4118C35.541 48.8838 35.351 47.9656 35.2053 48.8758C35.2001 48.9086 35.2389 50.1717 35.1546 49.2516C35.149 49.1882 35.1864 48.6114 35.0995 48.5703C35.0124 48.5291 34.8262 47.8584 34.7314 48.4481C34.7084 48.5901 34.6763 49.6179 34.5872 48.8193C34.5752 48.7108 34.5696 48.3484 34.5506 48.1473C34.4896 47.5066 34.5197 48.7836 34.4351 47.701C34.3505 46.6185 34.2308 45.81 34.1408 46.5626C34.1379 46.5845 34.1491 47.5972 34.111 47.5826C34.0502 47.5586 33.9568 47.3512 33.8948 47.3602C33.8652 47.3649 33.9087 47.9922 33.904 48.0039C33.7176 48.3637 33.5531 47.8093 33.3285 47.5747C33.2873 47.5304 33.2074 48.3914 33.1045 47.7172C32.9916 46.9792 32.9574 43.8922 32.7931 44.6344C32.7271 44.9313 32.7819 48.8473 32.5632 46.8258C32.3126 47.3386 32.0206 46.3111 31.7775 47.0389C31.7666 47.0711 31.7708 48.1645 31.7415 48.1507C31.698 48.1282 31.6547 47.6188 31.623 47.5864C31.4896 47.4377 31.39 47.8788 31.2644 47.8157C31.2167 47.7929 31.2124 47.2646 31.1556 47.2373C31.0987 47.2105 31.0888 47.9067 31.0002 47.5741C30.9331 47.3206 30.8206 45.9026 30.7387 45.74C30.7907 47.141 30.7377 47.1142 30.66 47.4876C30.6451 47.56 30.6832 48.0469 30.6772 48.1063C30.6529 48.3589 30.6055 47.956 30.5838 48.2309C30.5785 48.2969 30.5969 48.7753 30.5936 48.8563C30.5664 49.563 30.434 48.4904 30.4111 48.3036C30.3238 47.5943 30.3204 48.2176 30.2638 47.9392C30.2073 47.6608 30.2617 47.3079 30.2018 47.1399C30.0779 46.7926 29.9389 46.8754 29.8262 46.8578C29.7814 46.8537 29.8368 47.4911 29.831 47.5054C29.7451 47.671 29.6252 46.9953 29.6238 48.2694C29.431 44.9828 29.5807 48.5906 29.4229 47.9373C29.4104 47.8845 29.3363 46.3296 29.3672 46.0997C29.3982 45.87 29.4778 46.3538 29.5192 45.9957C29.529 45.9117 29.5471 44.4513 29.5538 44.3626C29.6071 43.6694 29.7094 45.9933 29.7187 46.1208C29.8208 47.4966 29.8509 45.9228 29.871 45.8134C29.9623 45.3119 30.0691 45.6351 30.1478 45.2766C30.1993 45.0449 30.1456 43.5222 30.195 43.5669C30.359 43.7148 30.4972 45.8365 30.5738 43.9891C30.5903 43.5951 30.4935 41.9323 30.659 43.2363C30.6694 43.3185 30.8009 44.5122 30.8205 43.7532C30.823 43.6575 30.8038 43.1725 30.8103 43.1314C30.8545 42.8658 30.906 43.2507 30.9582 43.0634C31.0103 42.876 31.0709 42.5974 31.1451 42.7592C31.1898 42.8559 31.2775 43.7575 31.3057 43.9779C31.3858 44.613 31.404 43.5659 31.4684 44.3362C31.5331 45.1104 31.5119 46.2908 31.6218 46.7884C31.5758 45.5283 31.5329 44.2348 31.4887 42.9675C31.6881 43.0041 31.8993 43.4039 32.096 43.3404C32.1204 43.3313 32.0687 42.6549 32.0941 42.6277C32.2014 42.5157 32.3176 42.9948 32.4255 42.798C32.509 42.643 32.5789 41.922 32.6651 41.7377C32.7784 43.1772 32.8987 42.6824 33.0048 42.8102C33.0419 42.8543 33.0546 43.2395 33.0846 43.3641C33.1976 43.825 33.1034 42.5527 33.1216 42.3512C33.1997 41.4911 33.3219 44.3745 33.4504 44.2981C33.4572 44.295 33.4822 42.7545 33.4902 42.6584C33.5402 42.0312 33.5234 43.1929 33.5743 43.3047C33.6675 43.5089 33.7402 43.8737 33.823 43.4196C33.847 43.2851 33.8797 42.3242 33.9652 43.0631C33.9765 43.1599 33.9922 43.6681 33.9993 43.6976C34.1272 44.1894 34.0678 42.5928 34.1087 42.0497C34.1496 41.5067 34.2882 42.605 34.32 42.9219C34.403 43.7417 34.2947 43.2746 34.2951 43.3554C34.3001 44.3162 34.3634 44.1483 34.4199 44.2273C34.4886 45.7924 34.5594 45.6955 34.4781 44.3029C34.4691 44.1508 34.4333 44.2984 34.4199 44.2273C34.4067 42.6896 34.4809 42.4897 34.6271 43.9215C34.6956 44.5925 34.6862 45.3784 34.8033 45.0864C34.8567 44.9546 34.7922 43.8777 34.8324 43.5818C34.9244 42.9067 35.1169 43.9062 35.2321 43.7431C35.2739 43.6838 35.208 43.0955 35.2358 43.0347C35.3095 42.8715 35.3971 43.3114 35.4684 43.0815C35.4748 43.0599 35.4331 42.443 35.4577 42.4342C35.6433 42.3551 35.824 42.7443 36.0224 42.7476C36.1182 42.7489 36.2757 42.4016 36.377 42.4663C36.5524 42.5747 36.7977 43.4646 36.9364 43.2408C37.0267 43.0974 36.9817 42.4805 37.0064 42.058C37.0539 41.239 37.2502 42.695 37.2778 42.9206C37.2786 42.9281 37.2021 43.0769 37.2582 43.3923C37.3093 44.0521 37.2769 42.9235 37.2778 42.9206C37.2958 43.0663 37.4651 43.2002 37.4929 43.0809C37.5081 43.0156 37.4756 42.4307 37.4839 42.4078C37.6813 41.8756 37.8986 41.7182 38.1312 41.9833C38.1356 41.995 38.1549 42.6499 38.1649 42.6692C38.305 42.9553 38.3564 42.1512 38.4439 41.6716C38.5312 41.1923 38.6221 41.3482 38.7286 42.4697C38.8038 42.3251 38.9382 42.8175 39.0161 43.1164C39.094 43.4154 39.0542 42.1406 39.059 42.1152C39.2097 41.3019 39.3425 42.0273 39.5343 42.1336C39.6268 42.1863 39.7982 41.9946 39.89 41.8515C39.9625 41.7363 40.0202 42.0332 40.0835 41.8395C40.092 41.8136 40.0606 41.2466 40.0627 41.2246C40.1155 40.5427 40.1308 41.9313 40.1565 42.1784C40.2499 43.0771 40.3047 43.5556 40.389 43.1279C40.4085 43.0299 40.3993 41.03 40.4375 40.9116C40.4874 40.7613 40.4938 41.478 40.5453 41.3023C40.5498 41.288 40.5319 40.8463 40.5685 40.8644C40.7382 40.9427 40.9289 41.1928 41.0988 41.142C41.1221 41.1367 41.0653 40.4373 41.0985 40.4182C41.2537 40.3291 41.4301 40.3483 41.5987 40.6703C41.6402 40.7518 41.6348 41.2432 41.6487 41.3885C41.7333 42.2679 41.757 40.9847 41.768 40.9598C42.0295 40.3337 42.2884 41.4843 42.5599 40.9216C42.5745 40.8886 42.6444 39.5113 42.743 40.6865C42.7496 40.7647 42.8487 41.9671 42.8649 41.1418C42.8659 41.0902 42.8092 40.4714 42.8697 40.5324C42.9302 40.5933 43.008 40.1757 43.1133 40.854C43.1461 41.0676 43.2522 42.2668 43.2923 41.3062C43.2948 41.2392 43.3309 39.0691 43.4289 40.5617C43.4449 40.8074 43.4973 42.3889 43.5573 41.5748C43.5687 41.417 43.5241 41.0655 43.5613 40.8435C43.6184 40.5015 43.7265 40.9215 43.7854 40.2139C43.7956 40.0887 43.8187 39.0131 43.8999 39.8258C43.9126 39.9531 43.9173 40.4815 43.9463 40.5396C44.0837 40.8182 44.2075 40.46 44.3512 40.8204C44.4022 40.947 44.4104 41.8012 44.467 42.0281C44.5237 42.2549 44.6285 42.4712 44.664 42.0794C44.6996 41.6874 44.5942 40.3294 44.6652 40.2177C44.9716 39.733 45.3329 40.5186 45.6602 40.6233C45.709 40.639 45.6509 40.1538 45.7218 40.1419C45.9886 40.0958 46.4219 39.623 46.6908 40.6487C46.9056 41.4703 46.6964 42.1094 46.8496 42.4413C46.9234 42.5996 46.9391 41.0157 46.9536 40.9653C47.0948 40.4538 47.2304 41.1503 47.3645 40.9302C47.3923 40.8846 47.34 40.2447 47.3643 40.2129C47.4476 40.0986 47.5492 40.3814 47.6301 40.3261C47.6663 40.2998 47.6418 39.8105 47.6772 39.8471C47.7619 39.9289 47.8411 40.1321 47.9365 40.588C47.9452 40.6296 47.9186 41.2403 47.9793 41.2608C48.0775 41.2922 48.2122 41.7406 48.3098 41.2691C48.3384 41.1273 48.2998 40.0084 48.3993 40.7785C48.4201 40.9393 48.4489 42.2834 48.4911 41.1197C48.4983 40.9263 48.5826 39.3556 48.6868 40.3624C48.7142 40.6274 48.7992 41.7251 48.8327 41.5509C48.8371 41.5232 48.7943 40.923 48.825 40.8632C48.9323 40.6631 49.0605 40.7227 49.1742 40.5303C49.2046 40.4777 49.1347 39.8575 49.1807 39.799C49.3073 39.6371 49.4764 39.7898 49.6101 39.98C49.6594 40.0513 49.645 40.5675 49.6504 40.6235C49.7366 41.5334 49.7282 40.3014 49.7441 40.229C49.8451 39.7953 49.9529 40.3704 50.0531 40.2137C50.0808 40.1721 50.0398 39.5859 50.0438 39.5334C50.0862 39.0201 50.0779 40.0755 50.1199 40.1903C50.2382 40.5156 50.3515 40.4645 50.4588 40.3857C50.498 40.3559 50.4295 39.677 50.4649 39.6581C50.6745 39.5336 50.8943 39.5913 51.1104 39.9595C51.1522 40.0301 51.1451 40.5549 51.1574 40.6743C51.2421 41.5097 51.2859 40.3648 51.3012 40.2554C51.3704 39.7558 51.4191 40.218 51.4914 40.129C51.8391 39.6863 52.3076 39.9781 52.665 40.1565C53.1238 40.3861 53.4914 40.8736 53.9245 40.7309C53.9519 40.7225 53.903 40.0262 53.9264 40.01C54.2237 39.8328 54.5427 40.0961 54.841 39.8861C54.8665 39.8701 54.8104 39.2102 54.8508 39.1623C54.9335 39.0593 55.0413 39.0923 55.1309 39.301C55.1745 39.4016 55.1353 39.9703 55.1788 40.0599C55.2255 40.1567 55.2723 40.2183 55.3181 40.246C55.3751 40.2783 55.4308 40.2641 55.4835 40.2056C55.525 40.1579 55.4426 39.4836 55.498 39.4743C55.8637 39.3976 56.2422 39.2717 56.6416 40.1388C56.6692 40.1983 56.7188 41.572 56.7714 41.3072C56.7675 40.9258 56.7575 40.4772 56.7506 40.0696C57.298 39.8381 57.8622 40.3043 58.4334 40.3723C58.4572 40.375 58.409 39.6472 58.4552 39.6488C58.7333 39.657 58.996 39.4537 59.2958 40.1782C59.3249 40.2491 59.3027 41.5301 59.392 41.3367C59.4081 41.3014 59.5381 41.1313 59.5728 40.8536C59.5783 40.8117 59.5573 40.2135 59.6028 40.1965C59.8571 40.1081 60.1358 40.2489 60.4391 40.6268C60.4901 40.6891 60.4069 41.323 60.4419 41.3728C60.6907 41.7266 60.9718 41.2382 61.5542 41.9147C62.0264 42.4045 61.6213 43.4472 61.5996 44.575C61.5963 44.6553 61.7053 44.7392 61.8104 44.9111C61.9331 45.0884 62.0191 45.3677 61.8198 45.6141C60.7311 46.7756 59.8765 48.3025 58.7806 49.5948C58.663 49.7486 58.1612 49.3161 57.9753 49.153C57.8784 49.0797 57.8501 49.1138 57.7769 49.1711C57.7161 49.2426 57.544 49.2553 57.5119 49.564C57.4891 49.5787 57.7033 50.0002 58.0997 50.4422C58.4894 50.8784 58.7789 51.1576 58.8423 51.3503C58.9439 51.6164 58.364 52.0723 58.6408 52.4683C58.9196 52.8561 59.3336 52.4067 59.4569 52.7513C59.5822 53.0977 59.4116 53.8093 59.6449 53.9329ZM39.3658 44.4526C39.4504 45.0622 39.3733 42.8203 39.3278 43.3592C39.3257 43.3879 39.3615 44.4227 39.3658 44.4526ZM31.9642 45.0947C32.0832 46.0802 32.0812 44.6243 31.9947 43.863C31.9083 43.1025 31.9281 44.7959 31.9642 45.0947ZM31.162 45.849C31.2862 46.6248 31.1766 43.4457 31.1014 44.0922C31.0969 44.1287 31.1548 45.8039 31.162 45.849ZM60.7968 44.7184C60.7954 44.748 60.8721 44.786 60.8775 44.7571C61.0136 44.0556 60.8347 43.9771 60.7968 44.7184ZM30.3685 46.6671C30.4146 47.0959 30.4793 46.5962 30.422 46.063C30.376 45.634 30.3112 46.1336 30.3685 46.6671ZM42.6541 46.7229C42.6563 46.7563 42.6931 46.785 42.6853 46.5962C42.6598 45.9882 42.6167 46.1617 42.6541 46.7229ZM28.9689 46.7585C29.1807 46.87 29.409 49.4907 29.1719 49.2033C29.129 49.1513 29.2271 48.3626 29.1659 48.1279C29.0539 47.7004 29.0553 49.3514 28.9236 48.4718C28.8997 48.3108 28.9566 46.7463 28.9691 46.7548C28.969 46.7561 28.9689 46.7573 28.9689 46.7585ZM39.5045 47.1436C39.5068 47.1732 39.5569 47.1994 39.557 47.17C39.5561 46.4573 39.4552 46.4041 39.5045 47.1436ZM44.7795 48.0311C44.7846 48.0941 44.9006 48.149 44.9021 48.0906C44.9182 46.9246 44.6834 46.8103 44.7795 48.0311ZM36.2566 48.9119C36.2306 49.6299 36.1696 49.7167 36.0918 48.8194C36.1471 48.865 36.2012 48.87 36.2566 48.9119Z" fill="#FFEE00"/>
<path d="M48.916 10.8747C49.1968 10.8341 48.8676 10.9185 48.5383 10.8931C48.4319 10.8903 48.1212 10.6407 48.0337 10.6277C47.8622 10.6038 47.9737 10.786 47.7748 10.7509C47.7064 10.7395 47.2063 10.355 47.1462 10.3517C46.8177 10.3398 46.8568 10.5695 46.6452 10.6459C45.5902 11.0401 44.8749 11.7148 44.1118 12.3764C43.857 12.6006 43.1617 12.6289 43.1992 13.0366C43.2035 13.0853 43.6827 13.3618 43.7172 13.3924C44.244 13.864 43.3223 13.2338 43.1559 13.2193C42.5694 13.1758 42.3382 13.3561 42.3017 13.6622C42.2985 13.6993 42.2986 13.7382 42.3018 13.7786C42.3152 13.9305 43.3088 14.4132 42.7221 14.1882C42.6823 14.1732 42.2025 13.8338 42.1316 13.8288C41.972 13.8179 41.9825 13.998 41.9107 14.0246C41.7707 14.0731 41.7624 14.0975 41.701 14.1823C41.6116 14.2977 41.2708 14.2914 41.2972 14.4993C41.3043 14.5447 41.8381 14.8261 41.8955 14.9273C41.9524 15.0288 41.8315 15.1253 41.6869 15.0889C41.5414 15.0538 41.1516 14.7851 41.0553 14.7346C40.2436 14.3067 41.2286 15.1211 41.2437 15.156C41.484 15.7776 40.7014 15.6671 40.5041 15.9861C40.3574 16.2263 40.4058 16.5983 40.2344 16.8109C40.0303 17.0595 39.6164 17.1068 39.4981 17.4021C39.4851 17.4328 40.1057 17.7747 40.091 17.8129C39.9406 18.2093 39.6497 18.5302 39.0254 18.6289C38.9622 18.6386 38.4634 18.2645 38.3687 18.2545C37.8017 18.1993 36.5399 17.9056 38.7575 19.4609C38.577 19.551 38.3729 19.6724 37.8272 19.5175C37.4758 19.418 36.9532 18.977 37.1326 19.2353C37.1724 19.2931 37.6949 19.5751 37.7165 19.6382C37.8055 19.9058 37.5434 19.9626 37.7116 20.2719C37.7471 20.3354 38.2031 20.6077 38.279 20.6666C38.8924 21.1467 37.7311 20.5901 37.6358 20.5672C36.9232 20.3996 37.0635 20.691 36.9365 20.8633C36.9065 20.9036 37.5436 21.2298 37.5365 21.282C37.4916 21.5479 37.3017 21.7374 36.9013 21.7823C36.8111 21.7909 36.3215 21.4277 36.2521 21.4151C35.9527 21.3634 36.9143 21.9902 36.6458 21.9527C36.5904 21.9456 36.1554 21.6601 36.1046 21.6336C35.3079 21.2168 36.3569 21.936 36.3718 21.9653C36.5835 22.3509 35.3832 21.7696 35.4313 22.0482C35.4382 22.0823 36.0275 22.3808 36.0127 22.4553C35.9226 22.945 35.5038 23.2773 34.8138 23.3911C34.7072 23.4094 34.314 23.1054 34.2599 23.0771C33.4118 22.6379 34.471 23.3508 34.4995 23.396C34.696 23.7355 33.6948 23.3197 34.9196 24.2283C34.0577 24.6178 34.3711 25.7325 32.8026 25.6794C32.784 25.6796 32.2591 25.3336 32.2242 25.3354C31.7981 25.3533 32.652 25.8295 33.5854 26.5908C33.8197 26.7822 32.5304 26.1252 32.4349 26.0786C32.0833 25.9066 31.3096 25.3803 31.2386 25.3517C30.6783 25.1312 33.3164 26.7435 33.2408 26.8676C33.234 26.8687 32.7602 26.553 32.7057 26.5336C32.5347 26.4723 32.7071 26.6233 32.521 26.5518C32.0908 26.3856 30.7975 25.6207 31.4724 26.1916C31.5602 26.2654 33.0647 27.1668 32.9255 27.2343C32.8687 27.2605 32.7729 27.4724 32.6431 27.4662C32.5131 27.4607 32.0555 27.1261 32.0323 27.1171C31.3064 26.8701 31.0773 26.6517 30.091 26.1429C29.1083 25.6364 31.3564 26.9993 31.5874 27.1836C31.8177 27.3675 31.2267 27.1509 31.028 27.0646C30.8292 26.9783 30.5443 26.7563 30.4265 26.7161C29.6556 26.4553 31.4937 27.4712 31.8167 27.7423C32.5816 28.3837 30.8649 27.453 30.6332 27.4644C30.5706 27.4676 30.9635 27.6764 30.9821 27.7253C31.0519 27.9139 30.4954 27.6572 30.8954 28.0708C30.9606 28.1382 31.8973 28.8519 31.1268 28.4625C31.0158 28.4062 30.6183 28.1253 30.4978 28.1132C30.3172 28.0947 30.1516 28.1606 30.2447 28.3188C30.3136 28.4357 31.0326 28.7952 30.7793 28.732C30.6662 28.7037 30.3024 28.4016 30.1232 28.369C29.9444 28.3359 29.8724 28.4915 29.8528 28.5539C29.8335 28.6166 30.3682 28.9064 30.4003 28.9323C30.5833 29.0819 30.7682 29.3397 30.7619 29.3485C30.539 29.85 29.4001 29.7458 29.4102 30.3737C29.4101 30.4228 29.9694 30.7358 29.975 30.7467C30.1281 31.0094 28.7391 30.0184 28.2018 29.8038C29.3148 30.4747 29.0836 30.4012 29.1518 30.562C29.1855 30.64 29.6275 30.882 29.6689 30.9128C30.2811 31.376 29.415 30.8999 29.2364 30.8047C28.5793 30.4549 29.2985 30.9607 28.859 30.7274C28.4227 30.4961 27.8407 30.0482 27.7976 30.1358C28.1789 30.4035 29.2509 30.9811 29.3797 31.1475C29.8682 31.7745 28.7864 31.7109 28.5845 31.8492C28.3833 31.9865 28.4179 32.0939 28.2071 32.1152C27.8262 32.1534 28.6383 32.5549 28.9134 32.8949C29.1883 33.2355 27.3375 32.0091 26.9207 31.7762C26.5042 31.543 26.9101 31.8201 26.6736 31.704C26.4373 31.5879 26.1903 31.3706 26.0751 31.3698C25.96 31.3691 26.5956 31.9544 27.0087 32.2347C27.8841 32.8283 28.8666 33.3482 28.4515 33.2786C28.4271 33.2742 27.9462 32.9423 27.8777 32.9411C27.349 32.9422 27.1741 33.1724 26.6909 33.1987C26.6236 33.2019 26.0892 32.8319 26.0439 32.8299C25.5694 32.808 26.5439 33.313 27.5118 34.0596C26.1501 33.1852 25.2711 32.7246 25.1707 32.869C25.1098 32.9556 25.7206 33.3114 26.1084 33.6313C26.2254 33.7277 25.7732 33.5364 26.0489 33.7226C26.9497 34.3313 28.0212 34.9108 27.5143 34.8101C27.4905 34.8047 26.9978 34.4708 26.9528 34.4751C26.6596 34.5014 27.6153 35.1164 27.632 35.3513C27.6452 35.5355 26.9153 35.3985 26.7294 35.4851C25.1835 34.5263 25.4529 34.8829 26.4856 35.5977C26.3831 35.6659 26.3812 35.804 26.1775 35.804C26.1078 35.8043 25.6724 35.507 25.6215 35.4811C24.8245 35.0726 25.8376 35.7546 25.8657 35.8001C26.1253 36.2648 25.2273 35.9589 25.866 36.6449C25.8891 36.6695 26.9568 37.3454 26.1368 36.9172C26.0805 36.8875 25.6343 36.5157 25.5351 36.5917C25.4355 36.6684 24.7446 36.4979 25.1579 36.9431C25.2573 37.0504 26.0783 37.6734 25.3546 37.3199C25.2564 37.2718 24.9541 37.0716 24.7745 36.9786C24.2017 36.6831 25.2744 37.3769 24.3206 36.8564C23.3668 36.3359 22.6119 36.0119 23.1631 36.5441C23.1788 36.56 24.0199 37.1246 23.9793 37.16C23.9137 37.2159 23.6729 37.2045 23.6339 37.2803C23.6155 37.3169 24.1641 37.6249 24.1701 37.6369C24.3257 38.0556 23.746 37.9278 23.3841 38.0511C23.3167 38.0731 23.9644 38.6556 23.3327 38.3889C22.641 38.0972 20.0767 36.3761 20.5638 36.9868C20.7582 37.2317 24.0192 39.4026 22.1926 38.5C22.4256 39.0794 21.3608 38.8279 21.7766 39.5209C21.7949 39.5518 22.697 40.1707 22.6637 40.1963C22.6124 40.2333 22.161 39.9923 22.1105 40.0101C21.8878 40.078 22.1756 40.4436 22.0292 40.5515C21.9745 40.593 21.5369 40.2966 21.4717 40.3462C21.4069 40.3959 21.9719 40.8044 21.6317 40.7162C21.3728 40.6484 20.1224 39.9682 19.927 39.9693C21.118 40.7089 21.0561 40.7542 21.3047 41.0561C21.353 41.1145 21.7819 41.3486 21.8262 41.3894C22.0157 41.5613 21.6488 41.3858 21.8584 41.5673C21.9087 41.6111 22.3159 41.8629 22.38 41.9129C22.9406 42.3471 21.959 41.8869 21.7883 41.8065C21.1395 41.5019 21.6494 41.8614 21.3779 41.7673C21.1064 41.6732 20.8572 41.4097 20.6741 41.3824C20.2952 41.3262 20.2587 41.5325 20.1595 41.6514C20.1224 41.7004 20.6882 42.0005 20.6955 42.0153C20.767 42.2081 20.1213 41.96 21.1678 42.6883C18.3205 41.0344 21.3994 42.9209 20.7436 42.7289C20.6908 42.713 19.3566 41.911 19.1909 41.7444C19.0253 41.578 19.483 41.7629 19.2197 41.5112C19.158 41.452 17.9708 40.5983 17.903 40.54C17.3731 40.0837 19.3608 41.292 19.4726 41.3541C20.6806 42.022 19.4093 41.0899 19.3344 41.0045C18.9908 40.614 19.3369 40.676 19.1014 40.3814C18.9497 40.1903 17.6573 39.3832 17.7312 39.3522C17.9762 39.2488 19.8247 40.3008 18.3634 39.1593C18.0519 38.9157 16.6119 38.0781 17.8085 38.6325C17.8839 38.6674 18.9643 39.1978 18.3549 38.7424C18.2781 38.6851 17.8649 38.4304 17.8361 38.3995C17.651 38.1973 18.0062 38.358 17.8914 38.1914C17.7765 38.0248 17.593 37.7966 17.7819 37.8039C17.8951 37.808 18.7023 38.2217 18.9048 38.3152C19.4872 38.5858 18.64 37.9676 19.3218 38.3333C20.0071 38.7008 20.9617 39.3984 21.4535 39.5564C20.3828 38.8902 19.287 38.2016 18.2117 37.5293C18.3919 37.3219 18.8793 37.3085 18.9753 37.0469C18.9861 37.0139 18.3911 36.6873 18.3878 36.6427C18.3765 36.4559 18.8578 36.5962 18.7772 36.3603C18.7126 36.1764 18.1724 35.6851 18.0857 35.4813C19.3544 36.1729 19.038 35.7529 19.2229 35.7044C19.2872 35.687 19.6134 35.8922 19.7385 35.9289C20.2025 36.0624 19.0855 35.4446 18.9335 35.3088C18.2851 34.7289 20.7478 36.2335 20.7817 36.0428C20.7843 36.0332 19.5365 35.126 19.4634 35.062C18.9854 34.6471 19.9279 35.3289 20.0582 35.3343C20.2961 35.3442 20.6512 35.4684 20.3396 35.1155C20.247 35.0113 19.4816 34.4259 20.1535 34.7493C20.2415 34.7916 20.6712 35.0635 20.7009 35.0722C21.2015 35.2062 19.844 34.3637 19.4282 34.0071C19.0125 33.6505 20.0199 34.1182 20.3045 34.2625C21.0409 34.635 20.5754 34.4926 20.6421 34.5382C21.4359 35.0805 21.3455 34.9122 21.4529 34.8927C22.7915 35.7066 22.7652 35.5703 21.5589 34.8691C21.4271 34.7927 21.5215 34.9178 21.4529 34.8927C20.1787 34.0307 20.0702 33.8318 21.3574 34.4809C21.9607 34.7852 22.5998 35.2441 22.4479 34.9436C22.3796 34.8075 21.4455 34.2672 21.2323 34.0527C20.7465 33.5623 21.7132 33.9119 21.6658 33.6869C21.6486 33.6052 21.1152 33.3452 21.0861 33.2787C21.0074 33.1012 21.4351 33.2517 21.2997 33.039C21.2868 33.0193 20.7481 32.7153 20.7594 32.6821C20.8344 32.424 21.2894 32.4406 21.4417 32.2148C21.5149 32.1058 21.3479 31.7274 21.4773 31.6482C21.6989 31.5086 22.6141 31.7372 22.5348 31.4501C22.4849 31.2649 21.9437 30.9646 21.6149 30.6954C20.9772 30.174 22.3223 30.7794 22.5286 30.8765C22.5354 30.8797 22.6001 31.0522 22.9017 31.1678C23.4827 31.4855 22.5303 30.879 22.5286 30.8765C22.662 30.9389 22.8995 30.8213 22.8224 30.7213C22.7802 30.6668 22.2747 30.3705 22.2621 30.3479C21.9733 29.8179 22.0062 29.4814 22.3998 29.3655C22.4126 29.3671 22.9658 29.7183 22.9891 29.7179C23.3299 29.7205 22.7074 29.2032 22.379 28.8294C22.0508 28.4557 22.2466 28.4419 23.2488 28.9596C23.1864 28.7911 23.6927 28.9177 23.9972 28.9989C24.3017 29.0801 23.2234 28.399 23.2062 28.3789C22.6508 27.7425 23.3474 28.0039 23.5793 27.8446C23.691 27.7709 23.6628 27.4646 23.6142 27.2779C23.5741 27.1291 23.8617 27.2322 23.7501 27.0493C23.7353 27.0247 23.2453 26.7374 23.2288 26.7225C22.7078 26.2733 23.8613 27.0474 24.0839 27.1588C24.8934 27.5639 25.3281 27.7739 25.04 27.4334C24.9741 27.3553 23.3226 26.2255 23.2536 26.1148C23.1671 25.9727 23.7616 26.3736 23.6554 26.2153C23.6469 26.202 23.27 25.9712 23.3124 25.9396C23.5047 25.7895 23.8541 25.7135 23.9404 25.4897C23.9536 25.46 23.3356 25.1264 23.3449 25.0775C23.3894 24.8474 23.535 24.6613 23.9278 24.65C24.0261 24.6488 24.4262 24.9351 24.5562 25.0021C25.3432 25.4061 24.3056 24.6477 24.2935 24.6209C23.976 23.9635 25.1162 24.3247 24.8573 23.6936C24.8412 23.658 23.7611 22.793 24.8021 23.3496C24.8714 23.3865 25.9352 23.958 25.2686 23.4691C25.2269 23.4386 24.6751 23.1511 24.7709 23.1164C24.8666 23.0816 24.5818 22.7544 25.2191 23.0201C25.42 23.1037 26.4854 23.6668 25.7246 23.0749C25.6708 23.0347 23.9131 21.7567 25.2148 22.4947C25.429 22.6163 26.7694 23.4572 26.145 22.9244C26.0238 22.8214 25.701 22.6724 25.5466 22.5032C25.3082 22.2429 25.7353 22.3581 25.1977 21.8873C25.1024 21.8043 24.235 21.165 24.9648 21.5348C25.0791 21.5927 25.5173 21.8884 25.5869 21.8882C25.9201 21.8887 25.7154 21.5482 26.1212 21.587C26.2639 21.6006 26.9728 22.0777 27.2022 22.1419C27.4316 22.2061 27.6887 22.2089 27.3932 21.9449C27.0975 21.6808 25.9008 21.0282 25.8625 20.8831C25.6947 20.2556 26.6106 20.2932 26.9449 19.9755C26.9946 19.9284 26.5517 19.7185 26.5952 19.6308C26.7523 19.3085 26.6977 18.5299 27.7394 18.8136C28.5754 19.0383 28.9457 19.6385 29.3335 19.6531C29.5196 19.6583 28.228 18.7386 28.1975 18.6932C27.8834 18.2397 28.559 18.4802 28.4794 18.2007C28.4627 18.1428 27.8969 17.8384 27.8888 17.7929C27.8564 17.6341 28.163 17.683 28.1795 17.5571C28.1852 17.5005 27.764 17.2502 27.8209 17.2302C27.9523 17.1794 28.1794 17.2038 28.6269 17.3535C28.6676 17.3672 29.1501 17.7453 29.2129 17.6872C29.313 17.5921 29.7847 17.6909 29.4675 17.3152C29.3719 17.2025 28.4211 16.6115 29.1299 16.9356C29.278 17.0031 30.4061 17.7348 29.4802 17.0241C29.3265 16.9057 28.0975 15.915 29.0051 16.3679C29.244 16.487 30.2118 17.0136 30.0938 16.8759C30.0743 16.855 29.5479 16.563 29.5219 16.4935C29.4397 16.254 29.581 16.1481 29.5079 15.909C29.4877 15.844 28.9242 15.5718 28.9109 15.4855C28.8736 15.2476 29.1273 15.1396 29.3852 15.0937C29.4813 15.0774 29.8954 15.3875 29.9455 15.4131C30.7602 15.8308 29.7379 15.1427 29.6901 15.0836C29.4064 14.7255 29.9614 14.9285 29.9086 14.7236C29.8953 14.6679 29.3817 14.382 29.3414 14.3475C28.9509 14.0068 29.8136 14.6163 29.94 14.6332C30.2971 14.6824 30.3429 14.5195 30.3565 14.3556C30.3608 14.295 29.7509 13.9864 29.7614 13.9362C29.8108 13.6347 30.0306 13.4051 30.4957 13.3683C30.5846 13.3617 31.012 13.6671 31.1195 13.7211C31.8704 14.1001 30.9587 13.4025 30.8797 13.3235C30.5192 12.9621 30.938 13.1667 30.9194 13.0329C30.8201 12.3779 31.4133 12.0073 31.8215 11.7122C32.3614 11.3091 33.0397 11.1654 33.2398 10.6023C33.2536 10.5661 32.6422 10.2282 32.6467 10.1919C32.7322 9.73906 33.1772 9.54282 33.2331 9.07579C33.2384 9.03867 32.6524 8.72831 32.6421 8.65691C32.6168 8.50826 32.7224 8.40806 32.9647 8.41952C33.0812 8.42545 33.5204 8.79263 33.6278 8.79249C33.8789 8.79299 33.9938 8.69918 33.9748 8.53059C33.9655 8.45811 33.3483 8.16906 33.3807 8.10299C33.3894 8.08405 33.398 8.06512 33.4065 8.04625C33.6172 7.58794 33.81 7.14849 34.7857 7.17828C34.8558 7.18017 36.0324 7.89113 35.8504 7.68626C35.5316 7.4767 35.1529 7.23607 34.8103 7.01509C35.0261 6.26707 35.8291 5.8964 36.3033 5.30138C36.324 5.27486 35.6818 4.92683 35.7188 4.87342C35.9274 4.5723 35.9538 4.16333 36.7679 4.24528C36.8471 4.25395 37.9052 4.97636 37.8061 4.77533C37.7884 4.73803 37.7369 4.50741 37.5308 4.31544C37.4994 4.28688 36.9844 3.98127 37.002 3.92366C37.1043 3.60812 37.4176 3.38933 37.9273 3.30053C38.0108 3.28649 38.4936 3.70661 38.5584 3.69881C39.0132 3.6459 38.789 3.11134 39.6215 3.01926C40.2354 2.9152 40.9406 3.776 41.9073 4.35341C41.977 4.39559 42.0929 4.34333 42.3407 4.30611C42.5714 4.24473 43.2641 4.2218 43.3912 4.56377C43.5456 5.34984 43.3104 6.20263 43.6523 7.00759C43.9015 7.82182 44.5213 8.52272 44.3877 9.44658C44.378 9.49587 44.2837 9.55929 44.1016 9.61914C43.905 9.68186 43.5195 9.74948 43.0727 9.71833C42.0488 9.70145 40.9157 8.89768 40.6801 8.63103C40.3635 8.3282 40.3756 8.38546 40.2942 8.4386C40.2595 8.46931 40.2058 8.49518 40.1608 8.55812C40.1275 8.62916 40.0583 8.71839 40.2924 9.11989C40.3416 9.16705 40.4786 9.45686 41.2949 9.96943C42.0813 10.5206 43.7772 10.7246 44.541 10.5286C46.1398 10.1621 46.2243 10.0086 46.5047 10.0426C46.7951 10.076 46.9083 10.8083 47.3897 10.7567C47.8417 10.7178 47.5931 10.1954 47.9106 10.3095C48.2243 10.4306 48.7619 10.9243 48.916 10.8747ZM25.3594 29.3598C25.9246 29.6104 24.0228 28.4207 24.4316 28.78C24.4536 28.7988 25.3316 29.3477 25.3594 29.3598ZM20.3184 38.1984C21.2182 38.6244 20.0197 37.7962 19.3287 37.461C18.6384 37.1261 20.0456 38.0694 20.3184 38.1984ZM20.3351 39.5469C21.0664 39.8472 18.37 38.1595 18.845 38.6143C18.8717 38.6402 20.2926 39.5295 20.3351 39.5469ZM41.6269 5.11967C41.6508 5.13731 41.7281 5.08596 41.7081 5.06401C41.184 4.57807 41.0156 4.69869 41.6269 5.11967ZM20.4107 40.9218C20.7979 41.1137 20.4358 40.7546 19.9543 40.516C19.5669 40.3241 19.929 40.6832 20.4107 40.9218ZM29.7001 26.8914C29.7292 26.9079 29.7806 26.882 29.6194 26.7834C29.1001 26.4661 29.2102 26.6145 29.7001 26.8914ZM19.4328 42.5763C19.6838 42.3974 22.0104 43.6308 21.5956 43.7383C21.5206 43.7578 20.9459 43.1955 20.7069 43.1318C20.2711 43.0161 21.6296 43.9563 20.8073 43.6053C20.657 43.5409 19.4135 42.5834 19.4299 42.5739C19.4309 42.5747 19.4318 42.5755 19.4328 42.5763ZM27.6769 30.735C27.7031 30.7492 27.7624 30.7067 27.7382 30.6899C27.1515 30.2846 27.0317 30.3699 27.6769 30.735ZM32.3765 25.2025C32.4322 25.2326 32.565 25.1305 32.5181 25.0955C31.571 24.4129 31.2997 24.6175 32.3765 25.2025ZM26.6867 35.4619C27.2576 35.9011 27.283 36.0205 26.4865 35.5979C26.5657 35.5606 26.6105 35.5015 26.6867 35.4619Z" fill="#FFEE00"/>
<path d="M13.8975 0.0168625C14.1181 0.163218 13.9478 0.426794 13.6919 0.646849C13.6126 0.71567 13.2155 0.749085 13.1431 0.799354C13.0019 0.897591 13.2054 0.936828 13.0349 1.03875C12.9765 1.07282 12.3496 1.13962 12.3026 1.17313C12.0495 1.35606 12.2286 1.46376 12.1185 1.62623C11.575 2.42666 11.4486 3.14979 11.2755 3.90116C11.219 4.14882 10.6985 4.52039 10.9831 4.72266C11.0169 4.74619 11.5604 4.64418 11.6062 4.6425C12.3084 4.61882 11.2015 4.76304 11.0636 4.84068C10.5191 5.14837 10.5066 5.39797 10.75 5.57429C10.8552 5.64905 11.926 5.39047 11.3311 5.57514C11.291 5.58779 10.7075 5.65574 10.6494 5.6898C10.519 5.76688 10.639 5.85572 10.5998 5.9058C10.5212 6.00277 10.5291 6.01554 10.5347 6.09477C10.5373 6.20389 10.2689 6.37605 10.4182 6.47025C10.4518 6.49008 11.0413 6.36486 11.1485 6.38812C11.2557 6.41143 11.2214 6.5227 11.0867 6.57943C10.9519 6.63619 10.4823 6.69429 10.3762 6.71718C9.48005 6.90906 10.7508 6.83321 10.7842 6.84376C11.3556 7.04198 10.6799 7.39392 10.723 7.65698C10.7573 7.85644 11.0261 8.03347 11.0235 8.22876C11.0181 8.46178 10.726 8.70416 10.8157 8.91571C10.8245 8.93814 11.5193 8.80179 11.5314 8.82897C11.6598 9.1178 11.6304 9.42914 11.2053 9.80305C11.1621 9.84064 10.5423 9.89764 10.4624 9.94093C9.98679 10.2038 8.82064 10.6844 11.5099 10.3767C11.425 10.5177 11.3408 10.686 10.8196 10.8817C10.4842 11.0078 9.80466 11.0423 10.1038 11.0861C10.1704 11.0961 10.7519 10.9788 10.8076 11.0007C11.0416 11.0932 10.8728 11.2604 11.1947 11.3377C11.2616 11.3532 11.7852 11.2644 11.8808 11.2568C12.6553 11.1977 11.4062 11.4956 11.3177 11.5318C10.6584 11.8055 10.9471 11.8851 10.9546 12.043C10.956 12.0797 11.6541 11.9271 11.6808 11.9584C11.8099 12.1225 11.7784 12.3183 11.4932 12.5432C11.428 12.5935 10.8221 12.6511 10.7603 12.68C10.4949 12.8059 11.6316 12.6472 11.3989 12.7646C11.3514 12.7892 10.836 12.86 10.78 12.8718C9.90148 13.0578 11.1633 12.9032 11.1929 12.9111C11.5958 13.007 10.3008 13.3107 10.5097 13.4314C10.536 13.4457 11.18 13.3038 11.2142 13.35C11.4461 13.6575 11.3228 14.0401 10.8546 14.4534C10.7826 14.5175 10.2884 14.5569 10.2287 14.5695C9.2961 14.7694 10.5621 14.6068 10.6122 14.6163C10.9747 14.6957 9.93684 14.9848 11.4524 14.8407C11.0192 15.4845 11.9498 15.9127 10.6917 16.6805C10.6772 16.69 10.0543 16.7742 10.0281 16.7928C9.70611 17.0176 10.6659 16.8342 11.8637 16.7628C12.1645 16.7449 10.7531 17.0537 10.6499 17.0776C10.2693 17.1656 9.34116 17.2809 9.26808 17.3018C8.69484 17.4704 11.7476 16.981 11.7648 17.0849C11.7602 17.0889 11.1958 17.163 11.1413 17.1805C10.97 17.235 11.1976 17.2271 11.0082 17.2839C10.5699 17.4146 9.08894 17.6679 9.9673 17.6259C10.0812 17.6202 11.8112 17.3317 11.7438 17.4374C11.7155 17.4798 11.7708 17.6392 11.6657 17.7027C11.5607 17.7661 10.9974 17.8217 10.9738 17.8288C10.2547 18.0677 9.94139 18.0686 8.85793 18.3012C7.77859 18.5332 10.3733 18.1106 10.6671 18.0906C10.9602 18.0707 10.3651 18.2565 10.1568 18.3119C9.94846 18.3672 9.58931 18.3948 9.47251 18.4334C8.70969 18.687 10.7708 18.2897 11.1898 18.2687C12.1818 18.2183 10.268 18.5985 10.0938 18.7213C10.0468 18.7546 10.4823 18.6655 10.5268 18.6816C10.6974 18.7462 10.1048 18.8937 10.6717 18.909C10.7641 18.9116 11.935 18.8128 11.0934 18.9985C10.972 19.0252 10.4886 19.0788 10.387 19.1335C10.2345 19.2155 10.1456 19.3341 10.3155 19.37C10.4413 19.3965 11.2242 19.2214 10.9873 19.3165C10.8815 19.3588 10.4115 19.3844 10.2514 19.4578C10.0913 19.5311 10.1304 19.6482 10.1535 19.6916C10.177 19.7347 10.7731 19.616 10.8141 19.6134C11.0491 19.5996 11.3521 19.6422 11.3526 19.6501C11.4869 20.0298 10.5319 20.5483 10.926 20.8769C10.9561 20.9028 11.5857 20.7842 11.5968 20.7871C11.8778 20.848 10.1831 21.0299 9.63123 21.1893C10.9135 20.9786 10.6876 21.057 10.8397 21.1071C10.914 21.1311 11.4082 21.0346 11.4596 21.0298C12.2227 20.9634 11.253 21.1515 11.0549 21.1919C10.3263 21.3406 11.1993 21.2423 10.7123 21.3421C10.2291 21.4413 9.49893 21.5006 9.51897 21.5683C9.98158 21.5159 11.1746 21.2771 11.3774 21.2992C12.1446 21.3823 11.26 21.899 11.187 22.0734C11.114 22.2476 11.2068 22.2857 11.0551 22.4042C10.7809 22.6183 11.6624 22.4179 12.0865 22.4581C12.5106 22.4985 10.3102 22.7902 9.84121 22.8787C9.37238 22.9669 9.85985 22.9073 9.60372 22.966C9.34764 23.0246 9.02101 23.0352 8.93048 23.0932C8.84004 23.1513 9.69648 23.1377 10.1917 23.0759C11.2408 22.9451 12.3283 22.7212 11.961 22.8947C11.9392 22.9048 11.3594 22.9737 11.305 23.0077C10.8922 23.2755 10.8968 23.4859 10.5352 23.7454C10.4846 23.7812 9.83947 23.8569 9.80275 23.8789C9.41832 24.1081 10.4905 23.8803 11.7059 23.7833C10.1041 24.0125 9.13383 24.2153 9.14396 24.3421C9.14949 24.4184 9.84568 24.2965 10.3454 24.2684C10.496 24.2599 10.0249 24.388 10.3548 24.3464C11.4331 24.2107 12.6268 23.9729 12.1686 24.1769C12.1467 24.1861 11.5564 24.2598 11.5238 24.2849C11.3107 24.4479 12.4358 24.2878 12.5931 24.4035C12.7166 24.4942 12.0617 24.7919 11.9695 24.9315C10.1717 25.2095 10.6013 25.2607 11.8479 25.1141C11.8095 25.2013 11.8929 25.276 11.7336 25.3794C11.6793 25.4149 11.1562 25.4788 11.1005 25.4909C10.2265 25.6796 11.4375 25.5259 11.4874 25.5356C11.9759 25.6494 11.0857 25.9432 12.0063 25.9809C12.0395 25.9821 13.2896 25.7974 12.3854 25.9871C12.323 25.9999 11.7458 26.0301 11.7149 26.1203C11.6839 26.2105 11.0391 26.472 11.6357 26.4973C11.7793 26.5036 12.8039 26.4161 12.0209 26.5966C11.9146 26.6209 11.5552 26.6685 11.3576 26.7106C10.7283 26.845 11.9932 26.6673 10.9276 26.8762C9.86206 27.085 9.07268 27.2967 9.83053 27.2979C9.85262 27.2982 10.8571 27.1697 10.847 27.2089C10.8301 27.2715 10.6347 27.3871 10.6507 27.4472C10.6588 27.476 11.2769 27.3603 11.2891 27.3636C11.6678 27.5061 11.136 27.7326 10.9286 27.981C10.8894 28.0267 11.7537 28.0055 11.0958 28.1849C10.3756 28.3815 7.31335 28.773 8.06925 28.8485C8.3717 28.8793 12.2551 28.3719 10.2723 28.8216C10.8103 29.0096 9.82291 29.4152 10.5736 29.5707C10.6069 29.5778 11.6924 29.4471 11.6821 29.4776C11.6647 29.5231 11.1637 29.6248 11.1351 29.6598C11.0026 29.8086 11.4522 29.8556 11.4039 29.9866C11.3866 30.0362 10.8624 30.1016 10.8417 30.1607C10.8216 30.2198 11.5143 30.1489 11.194 30.2746C10.9498 30.3699 9.55424 30.6449 9.40212 30.7446C10.7877 30.5312 10.7672 30.5865 11.1469 30.6199C11.2206 30.6262 11.6998 30.5323 11.7595 30.5314C12.0132 30.5261 11.6185 30.6195 11.8939 30.609C11.9601 30.6066 12.4332 30.5331 12.514 30.527C13.219 30.472 12.1688 30.7267 11.9859 30.7708C11.2914 30.9389 11.9109 30.8701 11.6408 30.9581C11.3707 31.046 11.014 31.0333 10.854 31.1117C10.5231 31.274 10.6212 31.401 10.6166 31.5141C10.6177 31.5588 11.2444 31.4304 11.2593 31.4345C11.4336 31.5001 10.7762 31.6965 12.0418 31.5504C8.79942 32.1208 12.3658 31.5557 11.7349 31.7868C11.6839 31.8052 10.148 32.0583 9.91607 32.0544C9.68439 32.0504 10.1559 31.916 9.79543 31.9167C9.71082 31.9167 8.25818 32.068 8.16931 32.0715C7.47475 32.0993 9.77125 31.7294 9.89682 31.7055C11.2517 31.4456 9.68507 31.5979 9.57409 31.591C9.06559 31.5592 9.37442 31.4166 9.00938 31.3807C8.77335 31.3567 7.26702 31.5859 7.30583 31.5321C7.43395 31.3535 9.5256 30.9716 7.6819 31.1099C7.28865 31.1392 5.64812 31.4272 6.92443 31.113C7.00489 31.0933 8.1755 30.8252 7.41933 30.894C7.32399 30.9027 6.8445 30.9777 6.80297 30.9761C6.53407 30.9633 6.91053 30.8681 6.71849 30.8385C6.52644 30.8089 6.24276 30.7815 6.39504 30.6897C6.48605 30.6345 7.37146 30.4437 7.58719 30.3904C8.20886 30.2379 7.16669 30.3412 7.92448 30.1886C8.68607 30.0351 9.86099 29.9193 10.3426 29.7534C9.09629 29.9446 7.81638 30.1366 6.56265 30.327C6.5762 30.1259 6.94922 29.8719 6.86376 29.6856C6.85192 29.6627 6.18601 29.792 6.15605 29.7701C6.03259 29.6775 6.49514 29.5075 6.28732 29.4239C6.12388 29.3595 5.39973 29.374 5.20675 29.3102C6.6236 29.0316 6.1184 28.9711 6.23324 28.8519C6.27285 28.8102 6.65396 28.7531 6.77433 28.7091C7.21922 28.5444 5.96623 28.7847 5.764 28.7901C4.90081 28.8129 7.75081 28.3584 7.66024 28.2406C7.6564 28.2342 6.12343 28.388 6.02698 28.3913C5.39837 28.4146 6.55413 28.2966 6.6593 28.2334C6.8515 28.1179 7.20544 28.0033 6.74496 27.9749C6.60864 27.9669 5.65058 28.0463 6.37471 27.8765C6.46953 27.8542 6.97255 27.7798 7.00106 27.7693C7.47491 27.5865 5.89587 27.8302 5.35176 27.8529C4.80776 27.8756 5.88285 27.6117 6.19395 27.5436C6.99864 27.3668 6.54715 27.5277 6.6273 27.5179C7.58112 27.4016 7.40708 27.3587 7.47909 27.2939C9.02575 27.0447 8.92143 26.9861 7.54752 27.2277C7.39748 27.2542 7.54817 27.2723 7.47909 27.2939C5.95329 27.4851 5.74626 27.4351 7.15156 27.1248C7.81021 26.9795 8.59185 26.8977 8.28845 26.8158C8.15144 26.7785 7.08913 26.967 6.79068 26.9618C6.10971 26.9499 7.08047 26.6447 6.90524 26.5501C6.84163 26.5158 6.26481 26.6489 6.20123 26.6286C6.03068 26.575 6.45763 26.4376 6.22111 26.3939C6.19894 26.3901 5.59097 26.5028 5.57937 26.4796C5.47949 26.3051 5.84543 26.0826 5.82604 25.8872C5.8164 25.7929 5.45347 25.6782 5.50605 25.5707C5.59359 25.3849 6.44937 25.0396 6.21123 24.9298C6.05853 24.8577 5.45092 24.9736 5.02848 24.9985C4.20968 25.047 5.63331 24.6844 5.85419 24.631C5.8615 24.6293 6.01807 24.6874 6.32491 24.5955C6.97434 24.4685 5.85716 24.6315 5.85419 24.631C5.99684 24.5964 6.11038 24.4138 5.98863 24.4001C5.92211 24.3927 5.34491 24.4927 5.32117 24.4872C4.76968 24.3529 4.58895 24.1603 4.82548 23.8998C4.83657 23.8942 5.4848 23.7989 5.5028 23.7868C5.7709 23.6156 4.96638 23.6583 4.47996 23.6275C3.99375 23.5967 4.13826 23.4895 5.23991 23.2543C5.08772 23.1976 5.56141 23.0081 5.84939 22.8967C6.13736 22.7853 4.87587 22.9729 4.85007 22.9711C4.02496 22.9175 4.73013 22.7019 4.81354 22.4996C4.85535 22.4031 4.64538 22.2574 4.49274 22.1838C4.37 22.126 4.65823 22.0346 4.4586 21.9948C4.43192 21.9894 3.87235 22.0864 3.8503 22.0869C3.16697 22.1144 4.54435 21.9375 4.78681 21.8833C5.66859 21.6863 6.13744 21.5765 5.70293 21.543C5.6034 21.5351 3.61813 21.7769 3.49614 21.7533C3.34116 21.7221 4.05222 21.632 3.87191 21.6021C3.85713 21.5994 3.42057 21.6686 3.43437 21.6306C3.49267 21.4553 3.71916 21.2386 3.64906 21.0768C3.64116 21.0544 2.95308 21.1921 2.93027 21.1615C2.82377 21.0181 2.82268 20.8429 3.12315 20.6401C3.19928 20.5899 3.68795 20.5376 3.83069 20.507C4.69423 20.3211 3.41715 20.4479 3.3912 20.44C2.73931 20.2563 3.85176 19.8642 3.26194 19.6654C3.2275 19.6549 1.85172 19.7478 3.00743 19.513C3.0843 19.4972 4.26698 19.2588 3.4455 19.3395C3.39411 19.3445 2.78614 19.473 2.83971 19.4061C2.89314 19.3393 2.46938 19.3112 3.13073 19.1276C3.33905 19.0696 4.51783 18.8254 3.5593 18.8991C3.49244 18.9046 1.33337 19.1244 2.80431 18.8529C3.04646 18.8083 4.61088 18.5712 3.79552 18.6078C3.63749 18.6152 3.29357 18.7003 3.06887 18.6897C2.72263 18.6739 3.12723 18.5181 2.41771 18.5429C2.29213 18.5475 1.22131 18.6509 2.01889 18.4752C2.1438 18.4477 2.66805 18.3811 2.72234 18.3456C2.98293 18.1764 2.6133 18.0995 2.95453 17.9157C3.07438 17.8508 3.92173 17.7422 4.14049 17.6598C4.35918 17.5775 4.56182 17.4488 4.16857 17.4598C3.77514 17.4707 2.4388 17.7344 2.31968 17.6775C1.80228 17.4298 2.54156 16.989 2.60697 16.6509C2.6168 16.6007 2.14175 16.7152 2.12169 16.6466C2.04562 16.3942 1.52492 16.0192 2.51245 15.6357C3.30339 15.3285 3.96209 15.4569 4.27395 15.2678C4.4226 15.1769 2.84804 15.3494 2.79632 15.3411C2.272 15.2632 2.94763 15.0467 2.71324 14.9394C2.66462 14.9173 2.0354 15.0447 2.00102 15.0248C1.87797 14.9576 2.14698 14.8249 2.08268 14.7525C2.05237 14.7202 1.56944 14.8024 1.60161 14.7633C1.67299 14.6707 1.86545 14.5686 2.30695 14.4202C2.34718 14.4067 2.95665 14.3604 2.96986 14.298C2.98952 14.1974 3.41854 14.0093 2.93933 13.9719C2.79524 13.961 1.68894 14.1324 2.44191 13.9433C2.59916 13.9037 3.93026 13.7151 2.76995 13.8128C2.57711 13.8289 1.00785 13.9338 1.99514 13.7109C2.25498 13.6522 3.33478 13.4373 3.15787 13.4249C3.12979 13.4238 2.53898 13.5378 2.47597 13.5145C2.26424 13.4306 2.30895 13.301 2.10455 13.2127C2.04879 13.1893 1.44128 13.332 1.37781 13.294C1.20237 13.1899 1.33388 13.0052 1.50672 12.8496C1.57161 12.792 2.08588 12.7445 2.14078 12.7325C3.03378 12.5376 1.81202 12.6955 1.73827 12.6886C1.29598 12.6431 1.85425 12.4688 1.68691 12.3893C1.64227 12.3671 1.06526 12.4779 1.01264 12.4803C0.498017 12.5005 1.54674 12.3816 1.65579 12.3265C1.96473 12.1716 1.89999 12.0628 1.80942 11.9691C1.77529 11.9348 1.10937 12.0833 1.08652 12.0513C0.938528 11.864 0.969561 11.6403 1.30913 11.382C1.37428 11.3331 1.896 11.276 2.01309 11.2497C2.83238 11.0662 1.6909 11.163 1.5805 11.1615C1.07643 11.155 1.52948 11.0512 1.43251 10.9912C0.950814 10.6989 1.18507 10.2086 1.31966 9.8408C1.49201 9.36192 1.93136 8.94262 1.73772 8.54184C1.72606 8.51627 1.04115 8.65081 1.02226 8.63014C0.809674 8.35845 1.03321 8.02342 0.78762 7.75627C0.768688 7.73416 0.120911 7.87141 0.0685649 7.83935C-0.0433844 7.7743 -0.0238077 7.66669 0.172072 7.55267C0.266376 7.49725 0.835271 7.46304 0.918738 7.40904C1.11437 7.28311 1.14532 7.17603 1.02566 7.09673C0.97331 7.0632 0.314753 7.22891 0.298784 7.17721C0.176239 6.82716 0.00591412 6.49117 0.814272 5.9919C0.869797 5.95766 2.22431 5.72378 1.95561 5.71134C1.57813 5.76617 1.13485 5.83559 0.731771 5.89672C0.432885 5.40595 0.822573 4.81316 0.813227 4.27568C0.812679 4.25304 0.099163 4.40369 0.0944348 4.36044C0.066271 4.11021 -0.170731 3.89996 0.504725 3.53407C0.570725 3.49793 1.83852 3.31328 1.63548 3.26882C1.5985 3.26116 1.41221 3.17554 1.13292 3.18949C1.09086 3.19203 0.503234 3.30468 0.480382 3.27129C0.357935 3.07563 0.458517 2.83485 0.786831 2.56919C0.840948 2.52614 1.47573 2.4639 1.51974 2.43238C1.82708 2.20958 1.31982 2.0986 1.86562 1.84634C2.23321 1.67714 3.32709 1.54778 4.38857 1.32266C4.53833 1.29087 4.55171 1.21954 5.17402 1.11882C6.73886 0.865347 8.45899 0.630368 10.1263 0.356326C10.4855 0.297354 10.0841 0.267284 10.9614 0.185235C11.0201 0.179901 11.3188 0.200515 11.6161 0.170664C11.8216 0.150104 12.4519 0.0309385 12.7164 0.0131762C12.9806 -0.00455004 12.4536 0.103572 12.7661 0.0937929C13.0823 0.0834048 13.8003 -0.0458185 13.8975 0.0168625ZM7.13621 22.3965C7.73196 22.2419 5.51421 22.5791 6.05463 22.5613C6.08338 22.56 7.107 22.4042 7.13621 22.3965ZM8.62117 29.612C9.58648 29.3809 8.14067 29.5515 7.39433 29.7248C6.64881 29.8979 8.32857 29.6822 8.62117 29.612ZM9.46204 30.3152C10.2185 30.1031 7.07332 30.5792 7.72403 30.5784C7.76082 30.5785 9.41812 30.3276 9.46204 30.3152ZM4.73541 1.54408C4.76471 1.53865 4.78581 1.48558 4.75646 1.48898C4.0485 1.57299 4.0068 1.67903 4.73541 1.54408ZM10.3652 31.0022C10.7859 30.9072 10.2823 30.9013 9.75915 31.0194C9.33833 31.1145 9.84196 31.1205 10.3652 31.0022ZM9.01235 18.8927C9.04523 18.8866 9.06953 18.8472 8.88295 18.877C8.28202 18.9732 8.45929 18.9952 9.01235 18.8927ZM10.6159 32.3705C10.7025 32.149 13.2795 31.6207 13.021 31.8875C12.9743 31.9358 12.1797 31.9304 11.9536 32.0179C11.5417 32.1777 13.1814 31.9851 12.3228 32.2166C12.1656 32.2588 10.6052 32.384 10.6122 32.3707C10.6134 32.3706 10.6147 32.3705 10.6159 32.3705ZM9.79295 21.9463C9.82207 21.9405 9.84233 21.888 9.8131 21.8914C9.10539 21.9751 9.06416 22.081 9.79295 21.9463ZM10.0655 16.6461C10.1275 16.6337 10.1684 16.5126 10.1103 16.518C8.95057 16.6392 8.86439 16.8844 10.0655 16.6461ZM11.9218 24.9409C12.6379 24.8831 12.7311 24.933 11.8487 25.1137C11.8878 25.054 11.8865 25.0003 11.9218 24.9409Z" fill="#FFEE00"/>
</svg>
