<svg width="60" height="53" viewBox="0 0 60 53" fill="none" xmlns="http://www.w3.org/2000/svg">
<path d="M49.055 52.8067C49.4975 53.1166 49.4199 52.8701 49.4185 52.5849C49.411 52.4939 49.4785 52.102 49.4731 52.0211C49.4632 51.8635 49.3963 52.0511 49.3802 51.8633C49.3741 51.799 49.4741 51.177 49.4651 51.1237C49.4113 50.8361 49.2997 50.984 49.2124 50.8391C48.7653 50.1224 48.2125 49.8318 47.6388 49.4914C47.456 49.3803 47.2642 48.7895 47.0338 49.0204C47.0066 49.0478 46.9734 49.5998 46.9648 49.6448C46.8327 50.3334 46.954 49.2238 46.9206 49.0721C46.788 48.4731 46.582 48.4045 46.3854 48.602C46.3003 48.6876 46.2864 49.7882 46.2596 49.1675C46.2576 49.1256 46.3264 48.5423 46.3102 48.4781C46.2988 48.4334 46.2811 48.4118 46.2611 48.4018C46.2192 48.3799 46.166 48.4156 46.1435 48.3816C46.0808 48.2834 46.0685 48.2883 46.0014 48.2761C45.9094 48.2542 45.8221 47.9543 45.7148 48.079C45.6914 48.1073 45.6702 48.7093 45.6285 48.8086C45.587 48.9078 45.502 48.8497 45.4829 48.7059C45.464 48.5619 45.5151 48.0916 45.5185 47.9831C45.5479 47.0675 45.3402 48.3221 45.326 48.3524C45.0467 48.8656 44.8885 48.1288 44.6651 48.1132C44.4909 48.1025 44.2868 48.3255 44.1262 48.2802C43.9321 48.2236 43.7911 47.8856 43.5971 47.9268C43.5766 47.9305 43.5456 48.6377 43.5204 48.6436C43.248 48.7051 43.0031 48.6089 42.774 48.1124C42.7512 48.062 42.8327 47.4452 42.8127 47.3578C42.6935 46.8368 42.5341 45.5948 42.233 48.2842C42.13 48.1705 42.0105 48.0521 41.9546 47.5011C41.9188 47.1465 42.0303 46.4763 41.9319 46.7585C41.9097 46.8213 41.8877 47.414 41.8578 47.4635C41.7326 47.6716 41.6247 47.4703 41.4945 47.7676C41.468 47.8295 41.4342 48.3594 41.4208 48.4543C41.3112 49.2227 41.3205 47.9396 41.3085 47.8455C41.2162 47.1429 41.0895 47.4072 40.9542 47.3801C40.9228 47.3735 40.9071 48.0876 40.875 48.1068C40.7134 48.1972 40.5569 48.1241 40.4266 47.7971C40.3977 47.7226 40.4742 47.119 40.4627 47.0524C40.4113 46.7662 40.3103 47.9094 40.259 47.657C40.2481 47.6053 40.2949 47.0872 40.2964 47.03C40.322 46.1327 40.1923 47.3972 40.1797 47.4244C40.018 47.7967 40.0301 46.4676 39.8856 46.6452C39.8682 46.6678 39.8549 47.3267 39.809 47.3501C39.4992 47.5094 39.2127 47.307 38.9575 46.7604C38.9188 46.6764 38.9869 46.1857 38.9885 46.1247C39.0127 45.1716 38.8897 46.4419 38.8717 46.4888C38.7319 46.8254 38.7024 45.7503 38.5128 47.2602C38.0599 46.6982 37.5118 47.5139 37.1273 46.1209C37.1222 46.1048 37.1789 45.4788 37.1686 45.4493C37.0455 45.0866 37.0033 46.0627 36.8181 47.2468C36.7715 47.5442 36.8003 46.1004 36.8017 45.9945C36.8058 45.6042 36.8984 44.6736 36.8958 44.5978C36.872 44.0021 36.6593 47.0865 36.5692 47.081C36.5667 47.0756 36.6197 46.5089 36.6162 46.4519C36.6056 46.2731 36.5659 46.4969 36.557 46.2999C36.537 45.844 36.6268 44.3442 36.4828 45.2104C36.4644 45.3229 36.3534 47.0731 36.2784 46.9847C36.2486 46.9479 36.1032 46.9675 36.071 46.8512C36.039 46.7351 36.1073 46.1734 36.1062 46.1488C36.0523 45.3957 36.1158 45.0898 36.1419 43.9824C36.1677 42.8792 35.9931 45.5023 35.9501 45.7933C35.9071 46.0836 35.873 45.4629 35.869 45.2477C35.8651 45.0325 35.9151 44.676 35.9067 44.5538C35.8497 43.7548 35.7626 45.8516 35.695 46.2651C35.5351 47.244 35.6062 45.2945 35.5382 45.0981C35.5198 45.0451 35.5059 45.4892 35.4833 45.5292C35.394 45.6818 35.3902 45.0716 35.2628 45.6217C35.2419 45.7113 35.0868 46.8753 35.1026 46.014C35.105 45.8898 35.1584 45.4066 35.1333 45.2957C35.0958 45.1292 35.0146 45.0169 34.9498 45.1751C34.902 45.2921 34.8895 46.0938 34.8579 45.8422C34.8439 45.7298 34.9182 45.2657 34.8892 45.0936C34.8603 44.9216 34.7537 44.9345 34.7124 44.9478C34.6712 44.9614 34.6496 45.5686 34.6434 45.6092C34.607 45.8415 34.5092 46.1281 34.5028 46.1269C34.1606 46.1766 33.9147 45.1328 33.5621 45.4472C33.5343 45.4709 33.5059 46.1109 33.5011 46.1211C33.3932 46.3823 33.5848 44.6892 33.5635 44.1164C33.4796 45.4131 33.4598 45.1758 33.3869 45.3135C33.3517 45.3808 33.3322 45.8839 33.3258 45.9351C33.2264 46.6941 33.2656 45.7073 33.272 45.5053C33.2953 44.7623 33.2002 45.6354 33.2154 45.1387C33.2303 44.6457 33.3291 43.9204 33.2681 43.9254C33.2179 44.3882 33.176 45.6038 33.1161 45.7971C32.8884 46.5279 32.6386 45.5538 32.5061 45.4451C32.3748 45.3364 32.3238 45.4188 32.2548 45.2454C32.1304 44.9318 32.1201 45.8352 32.0006 46.2405C31.8809 46.6458 32.0827 44.4355 32.1037 43.9588C32.1249 43.4823 32.076 43.9709 32.0788 43.7083C32.0816 43.4457 32.139 43.1247 32.1088 43.0238C32.0785 42.9231 31.9163 43.762 31.8675 44.2586C31.7644 45.3106 31.7315 46.4202 31.6605 46.0244C31.6564 46.001 31.7164 45.4203 31.6988 45.3599C31.558 44.8995 31.3792 44.8589 31.2361 44.4504C31.2164 44.3933 31.2837 43.7473 31.2727 43.7068C31.1588 43.2824 31.1323 44.3778 30.9672 45.585C31.0998 43.9723 31.1266 42.9818 31.018 42.9645C30.9528 42.9535 30.9139 43.6592 30.8361 44.153C30.8126 44.3018 30.8005 43.8145 30.7685 44.1454C30.6636 45.2271 30.6212 46.4432 30.5426 45.9522C30.5393 45.9289 30.5973 45.3368 30.5827 45.2997C30.4889 45.0567 30.3957 46.1893 30.267 46.3181C30.1662 46.4191 30.0494 45.7162 29.9508 45.5962C30.0821 43.7818 29.9519 44.1902 29.8221 45.4384C29.7565 45.3822 29.6766 45.4476 29.6226 45.27C29.6039 45.2094 29.6563 44.6851 29.6574 44.6281C29.6764 43.7345 29.56 44.9496 29.5418 44.9962C29.3477 45.4487 29.2817 44.5168 29.0633 45.4074C29.0555 45.4395 28.9572 46.6993 28.9812 45.7761C28.9831 45.7124 29.0748 45.1426 29.0053 45.0931C28.9355 45.0435 28.847 44.3581 28.7052 44.935C28.6709 45.0739 28.5369 46.0928 28.5442 45.2898C28.5453 45.1808 28.5781 44.8198 28.5829 44.618C28.5976 43.9748 28.4905 45.2476 28.5312 44.1627C28.5718 43.0779 28.5541 42.262 28.3995 43.0015C28.3947 43.023 28.299 44.0311 28.2682 44.0128C28.219 43.9829 28.1613 43.7673 28.1076 43.7702C28.082 43.7719 28.0538 44.4 28.0485 44.4112C27.8528 44.7504 27.7707 44.1828 27.6043 43.9272C27.5739 43.8791 27.4165 44.7273 27.3992 44.0467C27.38 43.3016 27.6716 40.2285 27.455 40.9503C27.368 41.2389 27.0077 45.1383 27.032 43.1065C26.7658 43.5916 26.6245 42.5408 26.3424 43.2404C26.3298 43.2713 26.2197 44.359 26.1963 44.3424C26.1617 44.3157 26.1778 43.8049 26.1542 43.7695C26.0564 43.6083 25.926 44.0371 25.8258 43.9619C25.7877 43.9345 25.8389 43.4087 25.7934 43.3759C25.748 43.3436 25.6672 44.035 25.6265 43.6954C25.5958 43.4366 25.6476 42.0154 25.5949 41.8456C25.4935 43.2439 25.4513 43.212 25.3465 43.5756C25.3263 43.6461 25.3081 44.134 25.2968 44.1925C25.2499 44.4413 25.2515 44.036 25.2045 44.3071C25.1932 44.3722 25.1591 44.8498 25.1479 44.93C25.0514 45.63 25.0503 44.5503 25.0503 44.3623C25.0498 43.6483 24.9822 44.2678 24.963 43.9853C24.9439 43.7029 25.0268 43.3573 24.9934 43.1844C24.9241 42.8266 24.7975 42.8952 24.7036 42.8665C24.666 42.858 24.6469 43.4973 24.6404 43.5109C24.5502 43.667 24.5186 42.9833 24.385 44.2501C24.5627 40.9628 24.315 44.5652 24.2489 43.8999C24.2437 43.8461 24.3423 42.2926 24.3925 42.0671C24.4427 41.8418 24.46 42.3308 24.5324 41.9788C24.5494 41.8962 24.7165 40.4458 24.7314 40.3583C24.8486 39.6743 24.6942 41.9953 24.6888 42.1229C24.6326 43.5012 24.8217 41.9392 24.8501 41.8324C24.9798 41.3428 25.037 41.6748 25.141 41.3262C25.2089 41.1009 25.3215 39.5814 25.3587 39.6308C25.4827 39.7941 25.3797 41.9176 25.6367 40.0882C25.6917 39.6981 25.7822 38.035 25.7872 39.3481C25.7875 39.4309 25.7753 40.6309 25.8708 39.8781C25.8828 39.7831 25.9169 39.299 25.9267 39.2588C25.9919 38.9991 25.9956 39.3869 26.0594 39.2058C26.1231 39.0247 26.2036 38.7536 26.2498 38.9219C26.2777 39.0226 26.2585 39.9277 26.2596 40.1497C26.2616 40.7892 26.3859 39.7498 26.3606 40.5222C26.3351 41.2985 26.1945 42.4702 26.2361 42.9759C26.328 41.7183 26.4259 40.4277 26.5201 39.1632C26.6856 39.2194 26.8235 39.6379 26.9972 39.5943C27.0189 39.5877 27.0452 38.91 27.0696 38.8854C27.1724 38.7847 27.2213 39.2726 27.3335 39.0877C27.4205 38.9419 27.5548 38.2319 27.6472 38.0571C27.5939 39.4998 27.7475 39.0197 27.8243 39.1573C27.8513 39.2049 27.822 39.5891 27.8346 39.7161C27.8827 40.1856 27.9349 38.9111 27.9712 38.7125C28.127 37.865 27.9311 40.7443 28.0482 40.6811C28.0544 40.6788 28.2357 39.1494 28.2524 39.0546C28.3601 38.4359 28.2251 39.5894 28.2568 39.7056C28.3147 39.9179 28.3386 40.2879 28.4561 39.8446C28.4905 39.7132 28.6181 38.761 28.614 39.5042C28.6135 39.6015 28.574 40.1085 28.577 40.1386C28.6345 40.6403 28.75 39.0467 28.8411 38.5107C28.9323 37.9748 28.9359 39.0808 28.9301 39.3991C28.9153 40.2224 28.8719 39.7472 28.8638 39.8276C28.7682 40.7836 28.8395 40.6228 28.8792 40.707C28.7749 42.2701 28.8451 42.1809 28.9208 40.788C28.929 40.6358 28.8833 40.7791 28.8792 40.707C29.0279 39.1767 29.1116 38.9853 29.0871 40.4235C29.0755 41.0975 28.9859 41.878 29.1157 41.5994C29.1747 41.4736 29.2318 40.3963 29.2968 40.1061C29.4451 39.444 29.5047 40.4569 29.6195 40.3061C29.6612 40.2514 29.6664 39.6598 29.6963 39.6021C29.7759 39.4471 29.8046 39.8933 29.8891 39.6718C29.8968 39.651 29.9254 39.0334 29.9472 39.027C30.1132 38.9668 30.2262 39.3718 30.3944 39.3947C30.4757 39.4055 30.6455 39.0758 30.7249 39.1502C30.8627 39.2754 30.9785 40.1847 31.1196 39.9759C31.2112 39.8423 31.2372 39.2243 31.3021 38.8067C31.4276 37.9971 31.443 39.4644 31.4429 39.6914C31.4429 39.6989 31.3625 39.8393 31.3773 40.1585C31.3521 40.8196 31.4419 39.6942 31.4429 39.6914C31.4431 39.8381 31.573 39.988 31.6091 39.8721C31.6287 39.8088 31.6619 39.2239 31.6714 39.202C31.8944 38.6923 32.0954 38.5574 32.2655 38.8441C32.268 38.8562 32.2163 39.5093 32.2228 39.5295C32.312 39.8279 32.4393 39.0334 32.5636 38.5652C32.6876 38.0972 32.7486 38.2613 32.7225 39.3871C32.8013 39.2507 32.8644 39.7537 32.8994 40.0587C32.9345 40.3637 33.0333 39.0922 33.04 39.0674C33.2526 38.2735 33.2901 39.0081 33.442 39.1328C33.515 39.1944 33.6806 39.0208 33.7735 38.8876C33.8471 38.7802 33.8652 39.0812 33.9391 38.8949C33.9491 38.87 33.9814 38.303 33.9855 38.2814C34.1013 37.6085 33.9698 38.9909 33.9659 39.2392C33.9518 40.1421 33.9485 40.6232 34.0647 40.2063C34.0914 40.1109 34.2917 38.1213 34.3365 38.0073C34.3945 37.8628 34.3254 38.5761 34.3874 38.4066C34.3927 38.3927 34.4234 37.9518 34.4527 37.9734C34.5888 38.0681 34.7247 38.3357 34.8744 38.302C34.8947 38.2991 34.9193 37.598 34.9495 37.5823C35.0907 37.5091 35.2385 37.5457 35.3483 37.8826C35.3751 37.9677 35.3193 38.4559 35.316 38.6018C35.2964 39.4845 35.4501 38.2109 35.462 38.1873C35.7494 37.5906 35.8496 38.7605 36.1388 38.2278C36.1547 38.1964 36.3575 36.8339 36.3189 38.0122C36.3164 38.0906 36.2754 39.2961 36.3751 38.4771C36.3813 38.4258 36.3976 37.8049 36.4427 37.8715C36.4877 37.9381 36.5974 37.5305 36.6161 38.2154C36.6218 38.4312 36.587 39.6341 36.7212 38.6829C36.7302 38.6165 36.987 36.4623 36.9148 37.9562C36.9028 38.2021 36.7826 39.7798 36.9184 38.9762C36.9445 38.8204 36.9432 38.4665 36.998 38.2495C37.0821 37.915 37.1302 38.3434 37.254 37.6457C37.2757 37.5222 37.4074 36.4549 37.3917 37.2711C37.3893 37.3989 37.3382 37.9248 37.3568 37.9854C37.4445 38.2761 37.5871 37.9322 37.6716 38.3048C37.7017 38.4357 37.6197 39.286 37.6442 39.5172C37.6687 39.7484 37.7352 39.9739 37.8062 39.5877C37.8773 39.2015 37.9294 37.8406 38.0013 37.7367C38.3122 37.285 38.5374 38.102 38.8046 38.2386C38.8444 38.259 38.8457 37.7708 38.9072 37.766C39.1388 37.7466 39.5564 37.3194 39.6779 38.366C39.7747 39.2042 39.5302 39.8189 39.6258 40.1642C39.672 40.3289 39.8506 38.7554 39.8682 38.7068C40.0416 38.2121 40.0842 38.9181 40.2212 38.7126C40.2495 38.6699 40.272 38.0285 40.2959 37.9993C40.3786 37.8939 40.4355 38.1851 40.51 38.1381C40.5435 38.1156 40.5738 37.6267 40.6001 37.6665C40.6635 37.7563 40.7097 37.9661 40.7431 38.429C40.7461 38.4711 40.6597 39.0757 40.7091 39.1021C40.7894 39.1431 40.857 39.6023 40.9893 39.1431C41.0283 39.0049 41.1125 37.8886 41.1166 38.6642C41.1175 38.8262 41.0014 40.1655 41.1589 39.0125C41.1853 38.8209 41.4212 37.2675 41.4045 38.2789C41.4001 38.5451 41.3576 39.645 41.4043 39.4751C41.4109 39.448 41.4372 38.8469 41.4697 38.7905C41.5818 38.6021 41.6845 38.6741 41.8013 38.494C41.8327 38.4447 41.8381 37.8211 41.8834 37.7675C42.0079 37.6191 42.1357 37.7876 42.2295 37.9899C42.264 38.0657 42.1978 38.5776 42.1965 38.6338C42.1745 39.5471 42.2963 38.3213 42.3174 38.2508C42.4487 37.8295 42.4801 38.412 42.5817 38.2662C42.6097 38.2275 42.6362 37.6406 42.6451 37.5888C42.7349 37.0825 42.6174 38.1312 42.641 38.2495C42.7076 38.5846 42.8093 38.545 42.9087 38.4773C42.9452 38.4515 42.958 37.7697 42.9902 37.7544C43.1815 37.6513 43.3625 37.7304 43.5076 38.1179C43.5357 38.1922 43.4747 38.7133 43.4725 38.8333C43.457 39.6723 43.6143 38.5382 43.6388 38.4309C43.7501 37.941 43.7431 38.4054 43.8139 38.3241C44.1561 37.9182 44.5243 38.2546 44.8095 38.4672C45.1759 38.7407 45.4373 39.2617 45.821 39.1624C45.8453 39.1568 45.8771 38.4596 45.8987 38.4458C46.1707 38.2989 46.4147 38.5921 46.6911 38.4127C46.7146 38.3993 46.7367 37.7377 46.7762 37.694C46.8576 37.5997 46.9461 37.6431 47.0004 37.8595C47.027 37.9637 46.9332 38.5253 46.9608 38.6187C46.9906 38.7203 47.0242 38.7864 47.0608 38.8181C47.1057 38.855 47.1543 38.8461 47.2052 38.7934C47.2457 38.7501 47.247 38.0716 47.2953 38.0678C47.6156 38.0274 47.9524 37.9394 48.2011 38.8405C48.2185 38.9024 48.1136 40.2729 48.1869 40.0148C48.2244 39.6352 48.2639 39.1883 48.3017 38.7824C48.7948 38.6058 49.2277 39.1243 49.7122 39.2474C49.7325 39.2524 49.7704 38.5243 49.8101 38.5304C50.049 38.5655 50.2995 38.3891 50.4803 39.1382C50.4978 39.2115 50.3357 40.4823 50.4349 40.2988C50.4528 40.2653 50.5851 40.1088 50.6467 39.8362C50.6563 39.7951 50.705 39.1987 50.7468 39.1862C50.9801 39.1231 51.2112 39.2902 51.4435 39.6957C51.4827 39.7626 51.3335 40.3839 51.3594 40.4368C51.5454 40.8133 51.8549 40.3539 52.3533 41.0935C52.7681 41.6375 52.2407 42.6243 52.0826 43.7423C52.0692 43.8216 52.169 43.9194 52.2545 44.1067C52.3546 44.3 52.4029 44.5902 52.1708 44.8059C50.931 45.8051 49.8811 47.2063 48.6159 48.3338C48.4776 48.4701 48.0331 47.9629 47.8766 47.784C47.7917 47.7 47.7586 47.7295 47.6783 47.7762C47.6081 47.8384 47.4374 47.8301 47.3614 48.1277C47.3378 48.1397 47.4826 48.5759 47.8248 49.0794C48.1621 49.5763 48.4325 49.9034 48.475 50.1053C48.551 50.3878 47.8971 50.754 48.1449 51.1956C48.3893 51.625 48.877 51.2386 48.9725 51.6003C49.0726 51.9649 48.8121 52.6496 49.055 52.8067ZM33.0576 41.422C33.066 42.0367 33.2337 39.7997 33.139 40.331C33.1342 40.3593 33.057 41.3919 33.0576 41.422ZM26.703 41.3256C26.7016 42.3174 26.8512 40.8695 26.8569 40.1039C26.8625 39.3391 26.7033 41.025 26.703 41.3256ZM25.9432 41.996C25.968 42.7798 26.2052 39.6077 26.0741 40.2431C26.0666 40.279 25.9417 41.9505 25.9432 41.996ZM51.2854 43.7924C51.2803 43.8217 51.3462 43.8668 51.3549 43.8387C51.5685 43.1571 51.4105 43.061 51.2854 43.7924ZM25.1841 42.7307C25.1787 43.1617 25.2856 42.6713 25.2923 42.1354C25.2978 41.7042 25.1908 42.1946 25.1841 42.7307ZM35.6148 44.0058C35.6132 44.0392 35.6415 44.0714 35.6545 43.8829C35.6962 43.2758 35.6414 43.444 35.6148 44.0058ZM23.9856 42.6826C24.154 42.8146 24.0757 45.4432 23.9041 45.1339C23.8731 45.0779 24.0384 44.3033 24.0107 44.0639C23.96 43.6276 23.7897 45.2695 23.7692 44.3818C23.7656 44.2193 23.9764 42.6693 23.9862 42.679C23.986 42.6802 23.9858 42.6814 23.9856 42.6826ZM32.8955 44.1117C32.8944 44.1414 32.9342 44.1724 32.9373 44.1431C33.0107 43.4344 32.9306 43.3715 32.8955 44.1117ZM37.284 45.5173C37.2818 45.5805 37.3746 45.6465 37.3819 45.5887C37.5171 44.4309 37.3296 44.2939 37.284 45.5173ZM29.9526 45.5477C29.856 46.259 29.7951 46.3393 29.8222 45.4393C29.8645 45.4902 29.9099 45.5004 29.9526 45.5477Z" fill="#D8FF01"/>
<path d="M45.6754 13.6784C45.969 13.6558 45.6573 13.6797 45.3497 13.6007C45.2495 13.5808 44.9638 13.3033 44.8815 13.2775C44.7202 13.2282 44.8208 13.411 44.6334 13.3478C44.569 13.3266 44.1075 12.8969 44.0506 12.8844C43.7401 12.8213 43.7692 13.0372 43.5651 13.0745C42.5475 13.2713 41.8387 13.7793 41.0837 14.2687C40.8319 14.4346 40.1668 14.3542 40.1859 14.7335C40.1881 14.7788 40.6347 15.1051 40.6664 15.1385C41.1506 15.6508 40.2955 14.933 40.1372 14.8943C39.5849 14.7657 39.3555 14.8918 39.3047 15.1609C39.2991 15.1968 39.2973 15.2352 39.2989 15.2757C39.3054 15.4169 40.2353 16.0104 39.6838 15.7149C39.6464 15.6951 39.2016 15.3111 39.1341 15.2957C38.982 15.2615 38.9847 15.428 38.9151 15.4414C38.7792 15.4646 38.7704 15.4853 38.7084 15.5536C38.6182 15.6456 38.2928 15.5879 38.3095 15.7824C38.3144 15.825 38.8131 16.164 38.8638 16.2655C38.9139 16.3673 38.795 16.4365 38.6581 16.3813C38.5204 16.327 38.1588 16.0216 38.0689 15.9607C37.3104 15.4452 38.2187 16.341 38.2317 16.3752C38.4358 16.9812 37.6926 16.7602 37.4907 17.0224C37.3411 17.2194 37.3718 17.5677 37.1992 17.7361C36.9943 17.9322 36.5963 17.9127 36.471 18.165C36.4574 18.1911 37.0367 18.5986 37.0211 18.6313C36.8614 18.9708 36.5696 19.2207 35.9689 19.2155C35.9081 19.2147 35.4465 18.7963 35.3564 18.7728C34.8164 18.6358 33.6216 18.1752 35.6786 19.936C35.5022 19.991 35.3021 20.071 34.7866 19.8461C34.4546 19.7016 33.973 19.2184 34.1339 19.4821C34.1696 19.5411 34.6577 19.8787 34.6757 19.9398C34.7497 20.1983 34.497 20.21 34.645 20.5188C34.6763 20.5823 35.1012 20.9009 35.1714 20.9665C35.7382 21.4993 34.6505 20.813 34.5604 20.7775C33.8857 20.5156 34.0081 20.8034 33.8795 20.9419C33.8491 20.9741 34.4449 21.3697 34.436 21.4164C34.3821 21.6529 34.1927 21.7974 33.8079 21.7775C33.7215 21.7713 33.268 21.3645 33.2022 21.3425C32.918 21.2495 33.8118 21.9696 33.5565 21.8943C33.5039 21.8794 33.0996 21.5519 33.0521 21.5199C32.3073 21.0172 33.281 21.835 33.294 21.8641C33.4806 22.2493 32.3565 21.5345 32.3911 21.7968C32.3962 21.829 32.9476 22.1919 32.9303 22.2578C32.8241 22.692 32.4096 22.9325 31.7451 22.9313C31.6424 22.9319 31.2789 22.5938 31.2282 22.5597C30.4352 22.0286 31.4189 22.8422 31.4443 22.888C31.6182 23.2285 30.6777 22.6956 31.8118 23.7135C30.9714 23.9385 31.2251 25.006 29.727 24.7187C29.7091 24.716 29.2213 24.3195 29.1879 24.3158C28.7795 24.2674 29.5767 24.8329 30.4381 25.6717C30.6544 25.8824 29.4482 25.085 29.3587 25.0278C29.0295 24.8169 28.3111 24.2176 28.2444 24.1805C27.7176 23.8935 30.1745 25.7704 30.097 25.8724C30.0905 25.8724 29.6503 25.5114 29.5989 25.4853C29.4379 25.4032 29.5966 25.5676 29.4216 25.4739C29.0169 25.2563 27.8113 24.3595 28.4333 24.9847C28.5142 25.0655 29.9162 26.1194 29.7803 26.1599C29.7248 26.1753 29.6245 26.3544 29.5006 26.329C29.3764 26.3041 28.9526 25.9283 28.9307 25.9165C28.2465 25.58 28.0364 25.3453 27.114 24.7297C26.1949 24.1166 28.2891 25.7058 28.5024 25.9097C28.715 26.113 28.1587 25.8248 27.9722 25.7156C27.7856 25.6064 27.5222 25.3599 27.4112 25.3051C26.6845 24.9492 28.4009 26.1585 28.6986 26.4557C29.4038 27.159 27.8001 26.0461 27.578 26.0213C27.5179 26.0146 27.8851 26.2656 27.901 26.313C27.96 26.4962 27.4382 26.1766 27.8038 26.6159C27.8633 26.6875 28.7299 27.4831 28.0089 27.0095C27.905 26.9411 27.5364 26.6236 27.4217 26.5942C27.2497 26.5497 27.0885 26.5848 27.171 26.7437C27.2322 26.8612 27.9051 27.2995 27.6653 27.2032C27.5583 27.1601 27.2228 26.8283 27.0528 26.7712C26.8831 26.7136 26.8077 26.8451 26.7865 26.8991C26.7654 26.9535 27.2649 27.3001 27.2946 27.3286C27.4634 27.4934 27.6296 27.7574 27.6232 27.7645C27.3892 28.1893 26.3041 27.9205 26.2878 28.4965C26.2857 28.5414 26.8078 28.9129 26.8127 28.9237C26.9482 29.1874 25.6605 28.0692 25.1554 27.7911C26.1923 28.5743 25.9742 28.4719 26.0328 28.6294C26.0618 28.7059 26.4746 28.9946 26.513 29.0291C27.0795 29.546 26.2706 28.9786 26.1037 28.8643C25.4896 28.4443 26.1567 29.0165 25.7459 28.7362C25.338 28.4581 24.7998 27.9597 24.7549 28.0333C25.1087 28.3362 26.1103 29.0279 26.2266 29.1997C26.6681 29.8476 25.6357 29.6248 25.4369 29.7205C25.2387 29.8155 25.2673 29.919 25.0648 29.9063C24.6989 29.8833 25.4591 30.3742 25.7083 30.7273C25.9571 31.0806 24.2373 29.6769 23.8482 29.4004C23.4594 29.1237 23.8362 29.4389 23.6148 29.2967C23.3935 29.1545 23.1663 28.9181 23.0561 28.8998C22.946 28.8817 23.5298 29.5139 23.9134 29.8332C24.7263 30.5095 25.6447 31.1348 25.2505 31.0079C25.2273 31.0001 24.781 30.6233 24.7155 30.6118C24.2097 30.5323 24.0329 30.7161 23.5695 30.6667C23.505 30.6593 23.0091 30.2395 22.9658 30.2307C22.5127 30.1385 23.4241 30.7488 24.3192 31.5792C23.0527 30.572 22.2309 30.0167 22.1288 30.1336C22.067 30.2035 22.6366 30.622 22.9944 30.9737C23.1023 31.0797 22.6776 30.8358 22.9336 31.0481C23.7703 31.7422 24.7713 32.4355 24.2905 32.2661C24.2681 32.2575 23.8105 31.8771 23.7673 31.8742C23.4856 31.8536 24.3745 32.5617 24.3807 32.7791C24.3857 32.9496 23.6932 32.7132 23.5117 32.7641C22.0725 31.6516 22.3154 32.0188 23.2738 32.83C23.173 32.8768 23.1655 33.0027 22.9705 32.9717C22.9039 32.9614 22.4996 32.6231 22.452 32.5916C21.7064 32.0966 22.6473 32.8748 22.6724 32.9207C22.9015 33.3853 22.055 32.9687 22.6377 33.6935C22.6587 33.7195 23.6523 34.5004 22.8855 33.9839C22.8328 33.9481 22.4214 33.54 22.3234 33.5945C22.2248 33.6494 21.571 33.3883 21.9479 33.8585C22.0386 33.9718 22.7982 34.6666 22.1205 34.2331C22.0286 34.1741 21.7476 33.9449 21.5796 33.8326C21.0439 33.475 22.0414 34.2731 21.1505 33.6516C20.2595 33.0303 19.5507 32.6189 20.056 33.1897C20.0704 33.2067 20.8517 33.8512 20.8114 33.8774C20.7463 33.9186 20.5165 33.8715 20.476 33.9349C20.4568 33.9655 20.9689 34.3308 20.9742 34.3427C21.1057 34.7494 20.5564 34.5442 20.2051 34.6019C20.1397 34.6117 20.7352 35.2433 20.1419 34.9031C19.4922 34.5309 17.1102 32.566 17.5509 33.1989C17.7268 33.4525 20.7567 35.9348 19.0465 34.8311C19.2455 35.3966 18.2373 35.0044 18.6063 35.7016C18.6225 35.7327 19.4599 36.4361 19.427 36.4545C19.3765 36.4805 18.9545 36.1914 18.9055 36.2C18.6896 36.2281 18.9498 36.6064 18.8053 36.6828C18.7513 36.7125 18.3449 36.3747 18.2804 36.4101C18.2164 36.4457 18.74 36.9054 18.4182 36.7729C18.1733 36.6714 17.0052 35.8588 16.8182 35.8301C17.927 36.688 17.8659 36.72 18.0913 37.0341C18.1351 37.0948 18.5358 37.3743 18.5764 37.4184C18.7506 37.6044 18.4068 37.388 18.5999 37.586C18.6462 37.6337 19.0253 37.9261 19.0846 37.9815C19.6029 38.4641 18.6829 37.8937 18.5229 37.7941C17.9147 37.4167 18.3877 37.8231 18.1318 37.6958C17.8761 37.5684 17.6485 37.2893 17.4744 37.2365C17.1143 37.1274 17.0709 37.3106 16.971 37.4042C16.9335 37.4434 17.4624 37.8041 17.4688 37.8187C17.5292 38.0059 16.9217 37.6807 17.8927 38.5062C15.2372 36.5598 18.1047 38.7543 17.4852 38.4788C17.4353 38.4562 16.1921 37.5194 16.0405 37.3418C15.889 37.1643 16.3192 37.4031 16.0777 37.1328C16.0211 37.0693 14.9207 36.1076 14.8582 36.0439C14.3702 35.5459 16.2218 36.9538 16.3262 37.0277C17.4542 37.8225 16.2766 36.7763 16.2084 36.6868C15.8959 36.2772 16.2244 36.3867 16.0113 36.0814C15.874 35.8834 14.671 34.9483 14.743 34.9313C14.9817 34.874 16.7066 36.1177 15.3558 34.8511C15.0679 34.5808 13.7249 33.5953 14.8468 34.2847C14.9175 34.3281 15.9292 34.9778 15.365 34.4685C15.2939 34.4043 14.9091 34.1084 14.8828 34.0758C14.7141 33.8626 15.0473 34.0637 14.9443 33.8938C14.8414 33.724 14.6753 33.4872 14.8557 33.5227C14.9638 33.5436 15.7189 34.045 15.9087 34.1614C16.4548 34.4975 15.6698 33.8031 16.3069 34.2415C16.9474 34.6819 17.8317 35.4654 18.2957 35.6848C17.299 34.9125 16.2791 34.1156 15.2783 33.337C15.4592 33.1747 15.9261 33.2366 16.0287 33.012C16.0404 32.9834 15.4847 32.594 15.4834 32.5527C15.4803 32.3802 15.935 32.5817 15.8676 32.3537C15.8135 32.1756 15.317 31.644 15.2425 31.4443C16.4277 32.2701 16.1423 31.8378 16.3212 31.8216C16.3834 31.8155 16.687 32.0528 16.8052 32.1054C17.2436 32.2982 16.2005 31.563 16.0607 31.4156C15.4644 30.7864 17.7582 32.5378 17.7985 32.3685C17.8014 32.3601 16.6452 31.3402 16.5779 31.2706C16.1378 30.8182 17.0113 31.5854 17.1356 31.6102C17.3629 31.6555 17.6975 31.8232 17.4139 31.4529C17.3297 31.3435 16.6216 30.6914 17.251 31.0896C17.3335 31.1417 17.7333 31.4559 17.7614 31.4683C18.2347 31.6671 16.9709 30.6897 16.5879 30.3002C16.205 29.9107 17.1494 30.492 17.4156 30.6673C18.1047 31.1202 17.6653 30.919 17.7272 30.9709C18.4642 31.5879 18.3847 31.4201 18.4883 31.4186C19.7352 32.367 19.7156 32.2383 18.5907 31.4132C18.4677 31.3232 18.5529 31.452 18.4883 31.4186C17.3049 30.4361 17.2093 30.2376 18.414 31.0274C18.9785 31.3977 19.571 31.9147 19.4381 31.6167C19.3784 31.4818 18.5071 30.8453 18.312 30.6166C17.8675 30.0941 18.7779 30.5611 18.7418 30.348C18.7288 30.2707 18.2293 29.9516 18.2042 29.8863C18.1362 29.712 18.5392 29.9148 18.4185 29.6996C18.4069 29.6796 17.9041 29.3195 17.9163 29.2908C17.9987 29.0661 18.4333 29.1506 18.5884 28.9673C18.663 28.8787 18.5188 28.5071 18.646 28.4544C18.8637 28.3604 19.7297 28.7089 19.6658 28.4342C19.6257 28.2572 19.1204 27.9 18.817 27.6037C18.2286 27.0297 19.4903 27.7882 19.6836 27.9084C19.69 27.9125 19.7448 28.0801 20.0286 28.2318C20.5712 28.6109 19.6852 27.9111 19.6836 27.9084C19.8086 27.9859 20.0408 27.9145 19.9711 27.8113C19.933 27.7549 19.4617 27.4069 19.4506 27.3843C19.1963 26.8555 19.2416 26.5527 19.6229 26.5066C19.6352 26.51 20.1498 26.9155 20.1722 26.9187C20.4981 26.973 19.924 26.4049 19.6253 26.013C19.3267 25.6212 19.5146 25.6383 20.452 26.2646C20.3993 26.1009 20.8784 26.2938 21.1663 26.4145C21.4543 26.5351 20.4509 25.7478 20.4352 25.7268C19.9303 25.0601 20.5859 25.4052 20.8144 25.2949C20.9242 25.2444 20.9099 24.96 20.8712 24.7817C20.839 24.6395 21.1098 24.7776 21.0107 24.5933C20.9975 24.5685 20.5406 24.2311 20.5255 24.215C20.0456 23.7247 21.1171 24.6085 21.3255 24.7443C22.0831 25.2382 22.4903 25.4965 22.2287 25.1411C22.1689 25.0596 20.6358 23.7745 20.5744 23.6627C20.4974 23.5196 21.0496 23.9768 20.9545 23.8159C20.9469 23.8024 20.596 23.5338 20.6378 23.5114C20.828 23.4034 21.1654 23.387 21.2572 23.1954C21.2711 23.1702 20.6937 22.771 20.7046 22.7276C20.7567 22.5239 20.9037 22.3758 21.2799 22.4253C21.374 22.4392 21.7449 22.7621 21.8664 22.8431C22.6026 23.3326 21.6415 22.4807 21.631 22.4543C21.3545 21.8046 22.4303 22.3085 22.2087 21.6918C22.1948 21.6568 21.1973 20.701 22.1701 21.3687C22.2349 21.413 23.2289 22.0978 22.6114 21.5491C22.5727 21.5148 22.0568 21.1677 22.1499 21.1505C22.2429 21.1333 21.984 20.7905 22.5827 21.1307C22.7713 21.2377 23.7673 21.9152 23.0639 21.2578C23.0142 21.2128 21.3856 19.776 22.6003 20.6493C22.8001 20.7932 24.0475 21.7667 23.4723 21.1841C23.3606 21.0715 23.058 20.8859 22.9173 20.7076C22.7 20.4331 23.1038 20.6036 22.609 20.091C22.5213 20.0005 21.718 19.2835 22.4008 19.733C22.5077 19.8034 22.9147 20.1406 22.9814 20.1511C23.3001 20.2022 23.1182 19.8596 23.5049 19.9568C23.6408 19.991 24.2992 20.5355 24.516 20.6292C24.7327 20.7228 24.9786 20.7645 24.7068 20.478C24.4349 20.1913 23.3171 19.412 23.2865 19.2734C23.1521 18.6736 24.0265 18.8476 24.3594 18.6077C24.4089 18.5722 23.994 18.3127 24.0392 18.239C24.2027 17.9682 24.1828 17.2472 25.1675 17.6654C25.9576 17.9986 26.2874 18.6038 26.6575 18.6765C26.8353 18.7096 25.6379 17.6713 25.6106 17.6251C25.3289 17.1623 25.9652 17.4852 25.9006 17.2173C25.8871 17.1618 25.3584 16.797 25.3525 16.7542C25.3282 16.6038 25.6192 16.6955 25.6403 16.5827C25.6481 16.5318 25.2556 16.2386 25.3109 16.229C25.4386 16.2025 25.6549 16.2594 26.0767 16.4645C26.1151 16.4832 26.5609 16.9027 26.6234 16.859C26.7231 16.7873 27.1702 16.9495 26.8823 16.5574C26.7955 16.4397 25.9107 15.7539 26.575 16.1587C26.7139 16.243 27.7626 17.0843 26.9064 16.293C26.7643 16.1612 25.6298 15.0674 26.4791 15.62C26.7027 15.7654 27.6067 16.3947 27.4995 16.2507C27.4817 16.2287 26.9902 15.8812 26.9683 15.8137C26.8995 15.582 27.0393 15.5064 26.979 15.2766C26.9623 15.2141 26.4346 14.8792 26.4255 14.7982C26.3996 14.5747 26.6467 14.5145 26.8953 14.5117C26.9879 14.5114 27.3712 14.8583 27.4181 14.8893C28.18 15.3956 27.2307 14.6102 27.1874 14.5488C26.931 14.1778 27.4532 14.4484 27.4112 14.2527C27.4008 14.1997 26.9213 13.8598 26.8843 13.8221C26.5249 13.4508 27.3248 14.1401 27.445 14.1747C27.7845 14.2741 27.835 14.1319 27.8548 13.9839C27.8614 13.9291 27.2908 13.5538 27.303 13.5094C27.3624 13.2413 27.5823 13.0642 28.0287 13.1014C28.114 13.1089 28.5102 13.4535 28.6107 13.5193C29.3132 13.9805 28.4701 13.2031 28.3978 13.1187C28.0677 12.7335 28.46 12.9842 28.4477 12.859C28.3799 12.244 28.9623 11.9952 29.365 11.7868C29.8977 11.5 30.5522 11.4718 30.767 10.9863C30.7811 10.9558 30.2108 10.5529 30.2166 10.5204C30.3173 10.1182 30.7505 10.0067 30.8234 9.58686C30.83 9.55363 30.2827 9.18019 30.2757 9.11316C30.2579 8.97286 30.3624 8.89773 30.5938 8.94481C30.705 8.96792 31.1097 9.37123 31.2124 9.3874C31.4525 9.42597 31.5662 9.35738 31.5551 9.19991C31.5492 9.13203 30.9711 8.77333 31.0049 8.71767C31.0152 8.69946 31.0253 8.68125 31.0354 8.66309C31.2545 8.27729 31.4602 7.90864 32.3859 8.08339C32.4528 8.09573 33.548 8.92652 33.3826 8.71092C33.0866 8.47029 32.7346 8.19205 32.4163 7.93733C32.6534 7.28388 33.4363 7.0652 33.9141 6.58979C33.9345 6.56923 33.3357 6.15169 33.3733 6.1082C33.5859 5.86177 33.6273 5.4906 34.4026 5.68712C34.4775 5.70745 35.4575 6.53261 35.3716 6.33216C35.3561 6.29525 35.3175 6.07373 35.128 5.86659C35.0993 5.8355 34.6204 5.47628 34.6398 5.42556C34.752 5.1482 35.0606 4.99263 35.5528 4.98323C35.6324 4.98344 36.0752 5.44454 36.1374 5.4468C36.5747 5.46336 36.3864 4.9317 37.1944 4.95076C37.7937 4.92717 38.4199 5.84531 39.3126 6.52313C39.3789 6.57103 39.4894 6.53707 39.7331 6.52474C39.8803 6.50854 40.0224 6.51385 40.2708 6.54891C40.4923 6.59047 40.7087 6.71337 40.7404 6.87383C40.8343 7.67009 40.5333 8.50081 40.8073 9.33071C40.9939 10.1619 41.5612 10.9081 41.35 11.8198C41.309 11.8978 41.0084 12.1089 39.9863 11.9818C39.5451 11.9279 38.8463 11.6555 38.429 11.3443C37.9825 11.0277 37.7293 10.7196 37.5863 10.5517C37.3008 10.1928 37.3085 10.2537 37.2198 10.2945C37.1812 10.3202 37.1244 10.3384 37.0719 10.3957C37.0307 10.4632 36.9481 10.5425 37.1403 10.9887C37.1864 11.0422 37.2854 11.3685 38.0953 12.0128C38.879 12.7099 40.6913 13.0483 41.4148 12.911C43.0145 12.6782 43.0966 12.5504 43.3742 12.607C43.6547 12.6701 43.7187 13.3978 44.1798 13.4057C44.63 13.4109 44.4246 12.8737 44.7282 13.0193C45.03 13.169 45.514 13.7156 45.6754 13.6784ZM22.4546 26.9521C22.9848 27.2674 21.2147 25.8894 21.591 26.2804C21.6113 26.3009 22.4284 26.9368 22.4546 26.9521ZM17.266 34.2698C18.1092 34.7965 16.9969 33.8564 16.3497 33.4445C15.7031 33.0331 17.0103 34.1103 17.266 34.2698ZM17.2261 35.5059C17.9134 35.892 15.4036 33.9375 15.8392 34.4259C15.8637 34.4536 17.1862 35.4835 17.2261 35.5059ZM39.0027 7.21865C39.025 7.23829 39.1001 7.20216 39.0824 7.17818C38.6056 6.64629 38.4393 6.73578 39.0027 7.21865ZM17.2415 36.7751C17.6041 37.0096 17.2725 36.626 16.8217 36.3344C16.4591 36.0998 16.7905 36.4835 17.2415 36.7751ZM26.7091 25.355C26.7362 25.3744 26.7865 25.3586 26.6364 25.2439C26.1527 24.8744 26.2519 25.027 26.7091 25.355ZM16.2374 38.1396C16.485 38.0142 18.6598 39.4967 18.2586 39.5319C18.1859 39.5383 17.6595 38.9364 17.4334 38.8417C17.0213 38.6696 18.2821 39.7364 17.5099 39.2902C17.3687 39.2083 16.2187 38.1432 16.2348 38.137C16.2357 38.1378 16.2366 38.1387 16.2374 38.1396ZM24.6147 28.5631C24.6391 28.58 24.6976 28.5502 24.6752 28.5311C24.1307 28.071 24.0126 28.1308 24.6147 28.5631ZM29.339 24.2174C29.3911 24.2534 29.5223 24.1802 29.4789 24.1411C28.6012 23.3723 28.3332 23.5182 29.339 24.2174ZM23.4719 32.7364C23.9998 33.225 24.0192 33.3381 23.2747 32.8303C23.352 32.8082 23.3973 32.7609 23.4719 32.7364Z" fill="#D8FF01"/>
<path d="M17.2932 0.343065C17.4929 0.495494 17.2898 0.708185 17.0075 0.873373C16.9199 0.925117 16.5218 0.911176 16.4435 0.94739C16.2908 1.01821 16.4874 1.07479 16.3052 1.14564C16.2429 1.16917 15.6126 1.1595 15.5616 1.18377C15.2869 1.31669 15.4505 1.43069 15.3202 1.56123C14.6774 2.20427 14.4581 2.82492 14.1888 3.46525C14.1005 3.67637 13.5363 3.94568 13.7921 4.15413C13.8225 4.17845 14.3746 4.14815 14.4203 4.15167C15.1195 4.20737 14.0034 4.21334 13.8565 4.26643C13.2768 4.47708 13.2319 4.69469 13.4503 4.87589C13.5448 4.95294 14.6401 4.84271 14.0263 4.93993C13.9849 4.94665 13.3975 4.94271 13.3356 4.96628C13.1962 5.01969 13.3037 5.11071 13.2582 5.15036C13.1677 5.22688 13.174 5.23895 13.1692 5.30907C13.1576 5.40508 12.8691 5.52689 13.0049 5.62579C13.0356 5.64686 13.6363 5.6012 13.7396 5.63328C13.8428 5.66541 13.7943 5.75929 13.6534 5.79439C13.5124 5.8295 13.0393 5.82933 12.9311 5.83785C12.0177 5.90859 13.2874 5.98045 13.3191 5.99334C13.8599 6.22947 13.1442 6.46465 13.1528 6.70013C13.1609 6.87886 13.4044 7.06345 13.3764 7.2345C13.3408 7.43834 13.0196 7.61917 13.0811 7.81453C13.0869 7.83517 13.7934 7.79122 13.802 7.81639C13.8917 8.08378 13.8221 8.35371 13.3521 8.63545C13.3043 8.66372 12.6824 8.64623 12.5976 8.6755C12.0918 8.85436 10.8732 9.14895 13.5794 9.17186C13.4769 9.28637 13.3716 9.42484 12.8294 9.53976C12.4805 9.61384 11.8023 9.57008 12.0931 9.64114C12.1579 9.65718 12.7497 9.61758 12.8021 9.64289C13.022 9.74946 12.8329 9.8778 13.1421 9.98069C13.2063 10.0016 13.737 9.98068 13.8327 9.98445C14.6083 10.0169 13.3312 10.1422 13.2387 10.1644C12.5495 10.3326 12.8254 10.434 12.8123 10.5733C12.8089 10.6056 13.5209 10.5478 13.5433 10.5782C13.6499 10.7362 13.5933 10.9045 13.2813 11.0708C13.2101 11.1078 12.6019 11.0924 12.5368 11.111C12.2574 11.1926 13.4049 11.1771 13.159 11.2548C13.1087 11.2711 12.5885 11.2771 12.5315 11.2814C11.6363 11.3489 12.9074 11.3507 12.9358 11.3609C13.3227 11.4889 11.9993 11.6142 12.1908 11.7429C12.215 11.7583 12.8719 11.7039 12.8998 11.7482C13.0897 12.0432 12.9178 12.3655 12.3998 12.6771C12.3202 12.7255 11.8251 12.7062 11.7642 12.7108C10.8136 12.7846 12.0899 12.7799 12.1384 12.7936C12.4874 12.9028 11.4209 13.0434 12.9422 13.082C12.429 13.5996 13.2959 14.0766 11.9488 14.6132C11.9332 14.62 11.3048 14.626 11.2764 14.6395C10.9279 14.8016 11.9033 14.7453 13.1001 14.813C13.4006 14.8301 11.9612 14.9473 11.8558 14.9571C11.4671 14.9928 10.5319 14.9929 10.4567 15.0033C9.86644 15.0887 12.9566 14.9918 12.9602 15.0849C12.9551 15.0879 12.3859 15.0915 12.3296 15.1009C12.1527 15.1301 12.3794 15.1479 12.1843 15.177C11.7327 15.244 10.2315 15.3049 11.1078 15.3638C11.2215 15.3711 12.9741 15.3065 12.8936 15.3919C12.86 15.426 12.8941 15.5718 12.7817 15.6161C12.6693 15.6603 12.1036 15.6478 12.0793 15.6514C11.3353 15.7827 11.0245 15.7493 9.92014 15.8354C8.8199 15.9213 11.4473 15.8332 11.7412 15.8476C12.0343 15.8622 11.4202 15.9603 11.2065 15.9862C10.9927 16.0121 10.6331 15.9972 10.5123 16.0182C9.72302 16.1577 11.8181 16.0337 12.2362 16.0608C13.2263 16.1247 11.2795 16.2497 11.0908 16.3386C11.0399 16.3626 11.4832 16.3319 11.5253 16.3508C11.686 16.4262 11.0793 16.4909 11.6393 16.5662C11.7306 16.5785 12.9043 16.6193 12.0458 16.6906C11.922 16.7008 11.4358 16.6951 11.328 16.7321C11.1661 16.7874 11.0625 16.8818 11.2263 16.9318C11.3476 16.9688 12.1465 16.9004 11.8993 16.958C11.7889 16.9836 11.3196 16.9549 11.1513 17.0019C10.9831 17.0487 11.0066 17.1558 11.0239 17.1963C11.0416 17.2367 11.648 17.1975 11.6889 17.1997C11.9238 17.2132 12.2186 17.2835 12.2181 17.2905C12.3019 17.6382 11.2877 17.9892 11.6357 18.3203C11.6622 18.3464 12.3018 18.3108 12.3124 18.3146C12.5831 18.3987 10.8793 18.3737 10.3114 18.4534C11.6101 18.4082 11.3759 18.4524 11.5202 18.5129C11.5907 18.542 12.0932 18.5112 12.1448 18.5126C12.91 18.5375 11.9242 18.5969 11.7226 18.6107C10.9809 18.6618 11.8591 18.6707 11.3634 18.7052C10.8714 18.7396 10.1398 18.7121 10.1508 18.7737C10.6163 18.7781 11.8301 18.6985 12.0284 18.74C12.7782 18.8964 11.834 19.2534 11.7389 19.3985C11.6439 19.5433 11.7309 19.5868 11.5652 19.6743C11.2655 19.8323 12.1655 19.7525 12.5807 19.8339C12.9959 19.9156 10.7765 19.9318 10.3 19.9584C9.82372 19.9847 10.3148 19.9855 10.0532 20.0091C9.79169 20.0327 9.46649 20.0064 9.36918 20.0474C9.27198 20.0885 10.1228 20.1698 10.6218 20.1696C11.6789 20.1691 12.7863 20.0911 12.3996 20.2033C12.3766 20.2098 11.7928 20.2071 11.7345 20.231C11.2904 20.4209 11.2677 20.6061 10.8754 20.7943C10.8206 20.8202 10.1711 20.8164 10.1319 20.8317C9.72093 20.9909 10.8135 20.9078 12.0311 20.9551C10.4132 20.9817 9.42495 21.0539 9.41851 21.1663C9.41407 21.2339 10.1201 21.2027 10.6192 21.2325C10.7697 21.2414 10.286 21.3026 10.6184 21.302C11.7051 21.3004 12.9195 21.2218 12.4387 21.3508C12.4158 21.3565 11.8209 21.3568 11.7854 21.3754C11.5529 21.4952 12.6892 21.4773 12.8301 21.5959C12.9407 21.6889 12.2528 21.8788 12.1432 21.9912C10.3247 22.0393 10.744 22.131 11.9989 22.1381C11.9495 22.2104 12.0225 22.2851 11.8511 22.3584C11.7927 22.3837 11.2658 22.3828 11.209 22.3873C10.3179 22.4576 11.5385 22.4547 11.5868 22.4687C12.0562 22.6217 11.1355 22.7825 12.0433 22.9158C12.076 22.9205 13.3394 22.8946 12.4183 22.9625C12.3548 22.967 11.7787 22.9307 11.7363 23.0064C11.6938 23.0821 11.0206 23.2413 11.6088 23.3285C11.7504 23.3496 12.7775 23.3845 11.9778 23.4576C11.8692 23.4673 11.5067 23.47 11.3054 23.4853C10.6639 23.5347 11.9411 23.5166 10.8575 23.5838C9.77392 23.6509 8.96379 23.7507 9.715 23.8342C9.73684 23.837 10.7494 23.8336 10.7344 23.8669C10.7094 23.92 10.5007 24.0001 10.5088 24.0546C10.513 24.0807 11.1409 24.0465 11.1525 24.0508C11.5095 24.217 10.9528 24.3578 10.7149 24.5531C10.6701 24.589 11.5297 24.6646 10.8541 24.7503C10.1145 24.8443 7.02763 24.8543 7.76725 25.0028C8.0631 25.0628 11.9791 25.0406 9.95487 25.2192C10.4639 25.4427 9.43222 25.691 10.1562 25.9092C10.1883 25.919 11.2815 25.9226 11.2674 25.9482C11.2442 25.9862 10.7343 26.0209 10.7014 26.0485C10.5507 26.1646 10.9903 26.2548 10.9254 26.3645C10.9018 26.4061 10.3736 26.4064 10.3454 26.456C10.3178 26.5056 11.0138 26.5189 10.6799 26.5943C10.4254 26.6513 9.00601 26.7406 8.84224 26.8115C10.2437 26.7752 10.2161 26.8215 10.5883 26.8921C10.6605 26.9057 11.1478 26.8755 11.2071 26.8812C11.4594 26.9042 11.0559 26.9431 11.3303 26.9639C11.3962 26.969 11.8748 26.9561 11.9557 26.9595C12.6619 26.988 11.5875 27.0971 11.4005 27.1159C10.6901 27.1877 11.3132 27.1948 11.034 27.2426C10.7548 27.2903 10.4027 27.2403 10.2339 27.2916C9.8848 27.398 9.96554 27.5201 9.94626 27.6189C9.94153 27.6582 10.5796 27.6138 10.5938 27.619C10.7581 27.6955 10.0808 27.7962 11.3546 27.8059C8.06581 27.9532 11.6751 27.8459 11.0196 27.9799C10.9666 27.9905 9.41094 28.0452 9.18154 28.0165C8.95235 27.9878 9.43725 27.9213 9.07983 27.8826C8.99594 27.8734 7.53608 27.8479 7.44751 27.8414C6.7553 27.7901 9.08019 27.7156 9.2078 27.7084C10.5848 27.6279 9.01184 27.5909 8.90272 27.5727C8.40271 27.4895 8.72742 27.398 8.37019 27.3267C8.13929 27.28 6.61607 27.317 6.66154 27.2741C6.81179 27.1313 8.93515 27.0241 7.08928 26.9446C6.69559 26.9275 5.03168 27.0014 6.33788 26.8649C6.42023 26.8563 7.61565 26.7486 6.85702 26.7266C6.76137 26.7238 6.27622 26.7374 6.23527 26.7315C5.97033 26.691 6.35594 26.6484 6.16939 26.6016C5.98284 26.5547 5.70515 26.4998 5.86806 26.4358C5.96546 26.3973 6.86808 26.3263 7.0889 26.303C7.72506 26.237 6.67839 26.2141 7.44953 26.1627C8.22455 26.111 9.40444 26.1374 9.90355 26.0443C8.64302 26.0763 7.34911 26.1054 6.08138 26.1358C6.12095 25.9609 6.52379 25.7787 6.46327 25.6059C6.45451 25.5846 5.7775 25.6254 5.75064 25.603C5.64028 25.5083 6.12097 25.4095 5.92579 25.3135C5.77213 25.2393 5.05229 25.1731 4.86926 25.0961C6.31018 25.006 5.81717 24.8979 5.94653 24.8058C5.99121 24.7736 6.37648 24.765 6.50154 24.7395C6.96402 24.6435 5.69055 24.7177 5.48934 24.7005C4.63058 24.6265 7.51523 24.5382 7.44076 24.4249C7.43779 24.4189 5.89795 24.3869 5.80191 24.3793C5.17565 24.3313 6.33685 24.3536 6.44933 24.3096C6.6549 24.2292 7.02071 24.1672 6.56787 24.0921C6.43375 24.0703 5.47357 24.0356 6.21357 23.9655C6.31047 23.9563 6.81886 23.9458 6.84848 23.9397C7.34203 23.8309 5.74486 23.8727 5.20245 23.8334C4.66016 23.7941 5.76035 23.6796 6.07763 23.6537C6.89841 23.5863 6.42988 23.6782 6.51061 23.6784C7.47138 23.6802 7.3044 23.6236 7.38422 23.5746C8.95002 23.5245 8.85421 23.4617 7.46067 23.524C7.30846 23.5309 7.45551 23.5633 7.38422 23.5746C5.84664 23.5762 5.64788 23.5098 7.08147 23.3906C7.75337 23.3349 8.53894 23.3482 8.24879 23.2433C8.1178 23.1957 7.04009 23.2454 6.74487 23.2084C6.07128 23.1237 7.0734 22.9617 6.91197 22.8596C6.85336 22.8226 6.26417 22.8766 6.20378 22.8518C6.04166 22.7862 6.48281 22.7121 6.254 22.6481C6.23252 22.6423 5.6151 22.675 5.60662 22.6533C5.53027 22.4894 5.92201 22.334 5.92818 22.1605C5.93088 22.0767 5.58597 21.9365 5.65208 21.8479C5.76301 21.6945 6.65634 21.4848 6.43452 21.3625C6.29249 21.2826 5.67502 21.3181 5.25297 21.2939C4.43488 21.2473 5.89344 21.0843 6.11936 21.0615C6.12684 21.0608 6.27452 21.1288 6.59068 21.0816C7.25105 21.0409 6.12225 21.0622 6.11936 21.0615C6.2653 21.0466 6.4016 20.8988 6.28268 20.8735C6.21769 20.8598 5.63243 20.8847 5.60961 20.8772C5.08031 20.6993 4.92616 20.5107 5.19451 20.308C5.20625 20.3042 5.86131 20.2912 5.88072 20.2826C6.16878 20.1615 5.36561 20.1114 4.88736 20.0314C4.40932 19.9514 4.56652 19.8731 5.6893 19.7868C5.54579 19.7204 6.04005 19.6058 6.34004 19.5394C6.64003 19.473 5.36495 19.5002 5.33961 19.4958C4.52854 19.3589 5.25569 19.2466 5.36468 19.0782C5.41868 18.9981 5.22944 18.8474 5.08768 18.7662C4.97351 18.7021 5.27115 18.6533 5.0784 18.5967C5.05266 18.589 4.48526 18.6132 4.46334 18.6113C3.78229 18.5609 5.17086 18.5557 5.4183 18.5346C6.31811 18.4579 6.79722 18.4126 6.3708 18.3358C6.27314 18.3181 4.27346 18.314 4.15558 18.28C4.00598 18.2357 4.72266 18.2341 4.54778 18.1882C4.53347 18.1843 4.09167 18.1975 4.11028 18.1656C4.19088 18.0181 4.44358 17.8527 4.39512 17.7031C4.3902 17.6826 3.69012 17.7285 3.67147 17.6992C3.58453 17.5618 3.60622 17.4079 3.93048 17.2627C4.01249 17.2269 4.50376 17.2343 4.64926 17.223C5.52957 17.154 4.24694 17.1261 4.22225 17.1164C3.59982 16.8842 4.7537 16.6614 4.19478 16.4227C4.162 16.4098 2.78594 16.3414 3.96226 16.2613C4.04052 16.2558 5.24406 16.1755 4.41913 16.1568C4.36753 16.1556 3.74806 16.2021 3.80987 16.1492C3.87153 16.0964 3.45504 16.0257 4.1346 15.9366C4.34867 15.9084 5.54909 15.8226 4.5892 15.7828C4.52219 15.7803 2.35306 15.738 3.84668 15.66C4.09255 15.6473 5.67439 15.6097 4.86125 15.553C4.70362 15.5422 4.35158 15.5795 4.13018 15.5457C3.78897 15.4941 4.21035 15.4015 3.50368 15.346C3.37859 15.3363 2.3035 15.3104 3.11708 15.2431C3.2445 15.2326 3.77291 15.2313 3.83135 15.206C4.11171 15.086 3.75524 14.9783 4.11743 14.8542C4.24469 14.8103 5.0989 14.8073 5.32649 14.7589C5.55401 14.7105 5.77164 14.6196 5.38033 14.5864C4.98885 14.5532 3.62968 14.639 3.51898 14.5761C3.03821 14.3024 3.82845 13.9962 3.93726 13.7067C3.95352 13.6637 3.46767 13.7124 3.45669 13.6501C3.41408 13.4204 2.94658 13.0347 3.97549 12.8058C4.79959 12.6224 5.43596 12.8068 5.76973 12.6749C5.92893 12.6113 4.34543 12.5911 4.29524 12.5782C3.78554 12.4527 4.48352 12.3364 4.26507 12.2168C4.21974 12.1921 3.57936 12.2353 3.54787 12.2141C3.4346 12.1418 3.71856 12.0546 3.66422 11.9841C3.63837 11.9524 3.14889 11.972 3.18586 11.9412C3.26867 11.8677 3.47275 11.7991 3.92975 11.717C3.97139 11.7095 4.58167 11.7353 4.60286 11.682C4.63544 11.5959 5.08523 11.4776 4.61499 11.3925C4.47355 11.3673 3.35445 11.3972 4.12555 11.3133C4.2866 11.2957 5.63081 11.2752 4.46774 11.2346C4.27446 11.2277 2.70501 11.1487 3.71282 11.0607C3.97806 11.0375 5.07654 10.9666 4.90276 10.9365C4.87506 10.9325 4.27449 10.9681 4.21506 10.9408C4.01605 10.8441 4.07722 10.7353 3.88604 10.6356C3.8338 10.609 3.21295 10.668 3.15496 10.6278C2.99456 10.5173 3.14896 10.3696 3.34054 10.2519C3.41235 10.2085 3.9284 10.2228 3.98438 10.2182C4.89506 10.1445 3.66325 10.15 3.59102 10.1359C3.15844 10.0478 3.73459 9.95564 3.57901 9.86772C3.53764 9.84341 2.95117 9.87771 2.89869 9.8741C2.38586 9.83576 3.44105 9.84566 3.55633 9.8092C3.88275 9.70697 3.8327 9.60448 3.75509 9.51239C3.72572 9.47859 3.04619 9.53633 3.0277 9.50577C2.90533 9.3253 2.96516 9.13251 3.3354 8.94281C3.40635 8.90706 3.93102 8.91378 4.05053 8.90342C4.88665 8.83172 3.74237 8.7923 3.6331 8.77896C3.1342 8.71837 3.59686 8.67665 3.50853 8.61338C3.06895 8.30452 3.36493 7.89992 3.54617 7.59186C3.77929 7.1905 4.26938 6.87049 4.12949 6.49779C4.12125 6.47409 3.42473 6.51752 3.40868 6.49734C3.23324 6.23582 3.49841 5.96624 3.28964 5.70511C3.27375 5.68365 2.61368 5.73352 2.56595 5.69968C2.46342 5.63042 2.49681 5.53815 2.70584 5.45945C2.80653 5.4211 3.375 5.45305 3.46477 5.41476C3.6751 5.32559 3.7197 5.23502 3.61137 5.15241C3.56383 5.1173 2.88938 5.19095 2.88026 5.14385C2.80427 4.8234 2.67908 4.51007 3.54541 4.16011C3.60491 4.13611 4.97821 4.07845 4.71344 4.03827C4.33206 4.04526 3.88356 4.05788 3.47598 4.06762C3.24345 3.60449 3.70685 3.12688 3.76745 2.65431C3.76985 2.63439 3.04287 2.68885 3.0438 2.65039C3.0484 2.42779 2.84076 2.21752 3.55799 1.97009C3.62812 1.94556 4.90906 1.92165 4.71353 1.86053C4.67787 1.84979 4.50431 1.75439 4.22559 1.7362C4.18356 1.73385 3.58633 1.76868 3.56801 1.73689C3.47205 1.5519 3.60306 1.35162 3.9631 1.15431C4.02234 1.12243 4.65978 1.13696 4.7075 1.11411C5.04118 0.952111 4.55269 0.799498 5.12659 0.637634C5.51304 0.529225 6.61436 0.534877 7.696 0.452987C7.84861 0.441415 7.87115 0.380291 8.50122 0.359702C10.0856 0.307765 11.8215 0.288964 13.5102 0.230144C13.874 0.217524 13.4799 0.14742 14.3603 0.170993C14.4193 0.172711 14.7127 0.223323 15.0113 0.229516C15.2178 0.233868 15.8582 0.19797 16.1227 0.211192C16.387 0.22442 15.8504 0.261873 16.1614 0.287327C16.4763 0.312659 17.205 0.277491 17.2932 0.343065ZM7.68085 19.2407C8.29159 19.17 6.04902 19.2242 6.58712 19.2675C6.61579 19.2695 7.65089 19.2443 7.68085 19.2407ZM8.2152 25.7328C9.20228 25.6351 7.74668 25.6273 6.98421 25.6981C6.22257 25.7688 7.91598 25.7625 8.2152 25.7328ZM8.95746 26.4413C9.73499 26.3376 6.55489 26.4127 7.20013 26.4829C7.23659 26.487 8.91231 26.4473 8.95746 26.4413ZM8.01108 0.685019C8.04084 0.683452 8.06866 0.639192 8.03912 0.638971C7.32631 0.635567 7.27118 0.724056 8.01108 0.685019ZM9.76362 27.1424C10.193 27.1049 9.69446 27.0448 9.16048 27.0915C8.73091 27.129 9.22945 27.1892 9.76362 27.1424ZM9.99635 16.3712C10.0297 16.3694 10.059 16.3374 9.8701 16.3433C9.26181 16.3622 9.4347 16.4008 9.99635 16.3712ZM9.83428 28.3701C9.94894 28.1852 12.5725 28.0024 12.2816 28.2083C12.229 28.2456 11.4418 28.1543 11.2063 28.2065C10.7772 28.3018 12.4279 28.3114 11.5465 28.421C11.3852 28.4409 9.8219 28.3808 9.83061 28.3699C9.83183 28.3699 9.83305 28.37 9.83428 28.3701ZM10.3733 19.1351C10.403 19.1333 10.4299 19.0893 10.4005 19.0891C9.68793 19.0855 9.63329 19.174 10.3733 19.1351ZM11.3325 14.5148C11.3956 14.5107 11.4519 14.409 11.3936 14.4073C10.228 14.3873 10.1107 14.5931 11.3325 14.5148ZM12.0947 21.9942C12.8122 22.0215 12.8981 22.0754 11.9998 22.1378C12.0463 22.0898 12.052 22.0425 12.0947 21.9942Z" fill="#D8FF01"/>
</svg>
