<svg width="61" height="64" viewBox="0 0 61 64" fill="none" xmlns="http://www.w3.org/2000/svg">
<path d="M4.3326 36.1903C5.75139 35.3393 7.78117 34.415 9.36269 33.7747C9.3632 33.7745 9.36371 33.7743 9.36422 33.7741C9.84938 33.5782 9.72664 33.9128 10.075 33.7825C10.7499 33.5305 11.2856 33.114 11.9666 32.8772C12.1897 32.8014 12.111 33.2712 12.3416 33.1836C13.6129 32.6967 14.6961 32.0092 15.9411 31.433C22.0741 28.5913 27.9704 25.5458 33.983 22.3425C35.9535 21.2907 38.4659 20.2369 40.3573 18.9348C40.37 18.926 40.3827 18.9173 40.3953 18.9086C40.6205 18.7524 40.3096 18.5523 40.3401 18.5021C40.8078 17.7309 40.9223 18.4439 41.4187 18.2453C43.3615 17.4671 45.3338 16.2462 46.7565 15.0018C47.3412 14.4759 46.3274 14.4391 47.1512 14.2494C47.2077 14.2349 47.2847 14.6287 47.4681 14.5252C47.8968 14.2952 48.4596 13.6279 48.4748 13.601C48.5091 13.5778 48.4702 13.6301 48.4365 13.829C48.3987 14.0184 48.4249 14.4005 48.5728 14.6737C48.6328 14.7874 48.7454 14.9625 48.9696 15.1201C49.1887 15.2809 49.4915 15.3451 49.6151 15.3385C49.798 15.3282 49.6963 15.3077 49.5657 15.3511C49.4312 15.3888 49.2334 15.4693 49.0368 15.569C48.6334 15.7734 48.1947 16.0688 47.8283 16.4162C47.6722 16.5666 48.1205 16.6656 47.8954 16.9308C47.6744 17.1881 46.969 17.7794 46.6801 17.9398C46.3927 18.0946 46.2936 17.798 46.2079 17.7896C45.4842 17.7155 45.2322 19.0552 45.1545 19.1676C43.6359 21.207 41.9251 22.645 40.4507 24.5445C40.4092 24.5981 40.3679 24.6525 40.3268 24.7079C39.2512 26.1539 38.3601 27.9378 37.505 29.496C36.4864 31.3551 35.5307 32.9252 34.7096 34.8546C34.6227 35.0588 35.116 34.9927 35.011 35.2423C33.9013 37.8858 32.7964 40.5236 31.4947 43.1159C31.3638 43.3762 31.1495 42.8936 30.9978 43.1462C30.0758 44.691 28.4074 47.0816 29.5706 48.6301C29.2716 49.3308 28.9379 50.1294 28.5617 50.8539C28.3484 51.2605 28.1288 51.637 27.8937 51.9641C27.4843 52.5392 27.2983 51.7891 27.212 52.636C27.194 52.8253 27.6051 52.6978 27.5527 52.9746C27.3374 54.1265 26.9059 55.3388 26.9246 56.4291C26.9306 56.6474 27.2553 56.6339 27.304 56.6994C27.6864 57.248 26.9217 57.8432 26.888 57.9032C26.8569 57.9536 26.8371 57.98 26.7861 57.9231C26.7293 57.8769 26.6528 57.6716 26.2585 57.4398C26.238 57.4779 26.1361 57.4806 26.1152 57.5043C26.0913 57.5253 26.1643 57.5207 26.272 57.459C26.4996 57.335 26.8202 57.0276 27.1621 56.6502C27.3574 56.4326 26.8125 56.4058 26.9787 56.1939C27.8595 55.0545 28.7755 53.5626 29.7292 52.2137C29.9427 51.9108 30.1021 52.3818 30.2204 52.2458C30.7403 51.6347 30.2107 51.1597 30.6858 50.5617C30.7854 50.4341 31.0225 50.6558 31.0662 50.6455C31.7533 50.4835 31.2508 49.7842 31.2879 49.6726C31.7442 48.2443 32.8725 47.7341 33.4064 46.3771C33.4694 46.2148 32.9433 46.3941 33.1419 45.9486C33.4367 45.2869 33.7469 44.6205 34.0761 43.9547C34.9504 42.2071 35.0043 39.733 34.832 37.3651C34.796 36.8933 35.1475 37.1696 35.1785 37.1347C35.6504 36.5425 34.8276 36.3672 34.7678 36.2285C34.3031 35.0791 34.5865 33.7611 33.463 33.2254C32.1595 28.0803 29.3696 23.4037 27.824 18.1772C27.8034 18.1112 28.1968 18.0619 28.1543 17.9309C27.6461 16.3541 27.2507 16.8781 26.1495 16.2065C26.1452 16.204 26.1408 16.2015 26.1365 16.1989C25.8668 16.0406 26.2888 14.9403 26.3086 14.8437C26.3975 14.5035 27.0212 14.4918 27.0213 14.3924C26.9916 13.5636 25.4116 14.5337 24.9444 13.6983C24.9321 13.6702 25.2923 13.6134 25.2815 13.5254C25.2481 13.2502 25.0055 13.1024 24.9787 12.8271C24.9226 12.2054 25.5752 11.5367 24.6495 11.0776C24.5298 11.0231 23.7482 11.7345 23.3055 11.0006C23.1353 10.7021 22.2187 9.49913 21.9987 9.13804C21.7867 8.77192 22.2297 8.77752 22.2226 8.74549C21.8242 7.57606 22.2442 7.78956 22.3348 6.89633C22.4033 6.00006 21.369 7.2071 21.0851 7.16692C20.8006 7.11965 20.4541 6.28887 20.3737 6.06191C20.2954 5.82868 20.6368 5.83272 20.536 5.65448C19.8256 4.50543 19.634 5.95267 19.2082 5.95782C18.5599 5.99328 18.4894 5.67945 18.5727 5.31234C18.2534 5.28909 17.9604 5.28169 17.7092 5.42337C17.5148 5.53701 17.8187 5.63417 17.695 5.76993C17.266 6.27797 16.682 6.50149 16.8782 7.32869C16.9045 7.50494 17.5939 7.94917 17.1969 8.44042C17.1403 8.51816 16.8086 8.40878 16.83 8.74092C16.8537 9.24037 17.2042 10.1468 17.5803 10.5723C17.8582 10.8941 18.0227 10.2445 18.1636 10.7521C18.2319 10.9806 17.761 10.7717 17.9165 11.196C18.0695 11.6287 18.7686 12.5292 19.0638 12.8571C19.3492 13.1825 19.4753 12.7651 19.5165 12.7764C19.7577 12.8492 20.4323 13.3424 20.4832 13.3946C22.9974 16.0371 25.3085 18.7065 28.36 20.7584C28.6009 20.9199 28.677 20.4967 28.7162 20.5182C29.4654 20.9082 28.6983 21.2238 28.6477 21.721C28.6407 21.8122 28.6576 21.9097 28.711 22.015C29.0979 21.3313 29.3423 21.6872 29.9533 22.0489C30.2462 22.2218 30.2853 21.8708 30.3285 21.8651C31.0124 21.8141 30.9217 22.4984 30.9175 22.6495C30.9009 23.2047 31.5126 23.021 31.5013 23.3955C31.4894 23.7669 30.8126 23.7808 31.334 24.1988C31.6572 24.1029 31.7309 23.22 32.2037 23.4552C34.005 24.3312 36.3199 27.2131 37.3602 28.3636C38.4175 29.5076 38.7912 29.8411 39.3346 30.5817C40.2938 31.9268 40.2942 31.1146 41.1569 31.7521C42.0131 32.4115 40.648 32.8471 40.5167 33.139C40.3983 33.3766 40.6155 33.3802 40.6722 33.5083C40.6837 33.5336 40.69 33.564 40.6881 33.6024C40.682 33.8462 40.2686 33.645 40.5108 34.0355C40.7555 34.4435 41.9617 34.8819 42.2668 34.7424C42.9163 34.4659 42.9772 33.6522 43.6221 34.4986C43.6605 34.5481 43.2843 34.6923 43.4439 34.8689C44.7316 36.2624 46.3673 37.3964 47.845 38.6338C48.0466 38.803 47.6394 39.0043 47.7551 39.1069C48.9741 40.177 48.844 39.3144 49.9663 39.1529C49.2903 39.8754 49.3881 40.6397 50.4324 41.2735C51.0592 41.6526 51.1696 41.2241 51.7263 41.2059C51.8927 41.1997 52.1929 41.7127 52.3732 41.5867C52.9666 41.177 52.9155 40.3068 53.8452 41.1774C53.8859 41.2166 53.5568 41.4392 53.7107 41.5523C54.263 41.9597 54.6536 41.9743 55.0986 42.0098C55.4125 42.0151 55.7561 42.0276 56.1481 42.1195C56.3822 42.1759 56.6477 42.2464 56.7508 42.2797C56.8438 42.3103 56.8079 42.4203 56.8932 42.4525C56.9094 42.6276 56.9647 42.5402 56.934 42.4298C56.9129 42.3196 56.8472 42.1694 56.7763 42.0454C57.7286 41.4697 56.8098 40.6943 55.9626 40.9171C55.4825 40.3571 54.8727 39.8326 54.4046 39.2578C54.2423 39.0598 54.5789 38.9404 54.5784 38.8935C54.58 38.1671 53.8401 38.4877 53.6969 38.3978C52.1866 37.4237 51.4329 36.0557 49.7772 35.358C49.7173 35.3327 49.1554 35.8501 49.1627 35.1299C49.1652 35.082 49.8202 35.1857 49.2225 34.6432C48.7245 34.1911 48.0229 33.2236 47.1798 32.6448C47.0091 32.5278 46.8328 32.4294 46.6519 32.3572C46.3904 32.2497 45.4921 32.3152 45.36 31.6116C45.3428 31.5165 45.5368 31.3908 45.5274 31.2318C45.4861 30.7175 44.887 31.2268 44.9459 30.4666C45.0063 29.709 44.5702 28.7992 43.3546 28.5726C43.3159 28.5641 42.7699 28.9392 42.4721 28.7512C41.9966 28.4484 41.3563 27.9476 40.8256 27.6807C40.5729 27.5537 40.5629 27.9723 40.5161 27.9562C38.7447 27.3067 37.6529 26.4853 35.7465 25.7391C35.3926 25.5991 34.243 25.8141 33.6353 25.2676C32.9508 24.6736 34.1522 22.9967 32.1607 23.1002C31.4928 23.1427 30.5514 24.6334 29.6047 24.4662C29.3884 24.4288 29.1683 24.3097 28.9421 24.0752C26.3668 24.2179 23.9404 23.6078 21.3817 24.2851C21.2631 24.3156 20.9788 25.0037 20.7048 25.027C20.3015 25.0598 20.0548 24.7837 19.7595 24.8043C18.5473 24.8819 17.5085 25.3444 16.3738 25.573C15.9392 25.6636 16.0193 25.316 15.4974 25.4333C14.9778 25.5544 14.7574 26.0482 14.0177 26.0688C13.4664 26.0825 12.6625 25.4529 11.9333 25.6212C12.2034 26.4198 11.7264 26.5734 11.0073 27.1208C10.8678 27.2274 11.1506 27.4247 11.091 27.4888C10.8565 27.7538 10.4864 27.6536 10.2801 27.9299C10.2301 27.9965 10.3495 28.2578 10.3152 28.3273C10.0368 28.9212 9.00391 28.72 8.82232 28.6891C8.12418 28.5704 8.07431 29.0233 7.61251 29.0841C7.15762 29.1425 7.61732 28.649 7.12671 28.803C6.79688 28.9069 6.44748 29.0555 6.10625 29.2147L6.06976 29.2377C5.35941 29.6825 4.7446 30.3104 4.24349 30.8445C3.94972 31.1638 4.4341 31.2001 4.39854 31.2519C4.0972 31.6737 3.67762 32.0009 3.44549 32.3796C3.28439 32.6423 3.21645 32.9294 3.35946 33.2698C1.3969 32.645 3.19002 33.7946 2.27045 34.6381C2.19968 34.7047 1.30324 34.3975 1.37482 33.9751C1.45 33.5488 2.01416 33.1787 2.15747 32.6046C2.1834 32.476 1.95964 31.4134 1.96977 31.2306C1.96999 31.2236 1.97051 31.2179 1.97136 31.2136C2.16041 30.3035 3.32004 31.1106 3.40046 31.1306C4.32568 31.3075 4.23514 30.0282 4.3846 29.7983C4.69958 29.2702 5.12037 28.8789 5.56885 28.5389L5.69184 28.4614C6.05947 28.2437 6.4203 28.0303 6.74452 27.7365C7.1923 27.3338 6.81264 26.5004 7.24135 26.3052C8.70549 25.652 9.71546 26.5852 10.6538 24.9928C10.8663 24.6548 10.1928 23.8353 11.5754 24.1504C11.6655 24.1678 12.7091 24.5547 13.0368 23.9733C13.078 23.8996 12.9863 23.6232 13.0579 23.5744C13.5478 23.2521 13.9677 23.3683 14.5207 23.1001C15.0787 22.831 15.7546 22.4927 16.4517 22.4432C16.8827 22.4094 17.4978 22.8427 17.7196 22.9372C18.3219 23.2137 18.8128 22.5005 19.2168 22.9099C19.6195 23.3229 19.0735 24.1127 19.9793 24.2914C19.911 23.5373 19.8843 22.7576 19.8413 21.996C21.8431 21.7664 23.8095 21.9014 25.791 21.8707C26.0395 21.8666 25.7858 21.4588 26.0548 21.4445C27.1667 21.3885 28.147 21.7153 29.2906 21.6746C29.4619 21.6686 29.6383 21.6513 29.8189 21.6274C30.6058 21.527 31.4656 21.323 32.2755 21.3576C32.7427 22.2981 34.1992 22.2701 35.2024 22.6148C35.5506 22.7326 35.4695 22.9512 35.6977 23.0914C36.5585 23.6249 36.3319 22.7677 36.6272 22.7286C37.9059 22.5904 37.4544 24.2606 38.6923 24.6889C38.7544 24.7084 39.9092 24.1852 40.0488 24.1863C40.9072 24.1537 40.037 24.5303 40.4472 24.7887C41.1902 25.2662 41.6224 25.7232 42.6439 25.9691C42.9413 26.0388 43.8564 25.8942 44.1245 26.5787C44.1596 26.6681 43.9652 26.907 44.0079 26.9539C44.7782 27.7798 45.314 26.9956 46.0301 27.0827C46.7525 27.1757 47.1646 28.2957 47.204 28.5659C47.3224 29.2711 46.761 28.4979 46.7095 28.523C46.1079 28.7982 46.732 29.126 47.1227 29.4888C46.6134 30.2805 47.2175 30.6835 47.5291 29.8639C47.5624 29.7732 47.1807 29.5865 47.1227 29.4888C48.0212 29.0544 48.7526 29.4513 48.9186 30.6023C48.9234 30.642 48.9274 30.6826 48.9308 30.724C48.9769 31.2935 48.3788 31.4036 49.4221 32.0637C49.8927 32.3613 50.1522 31.7326 50.6368 31.9125C51.748 32.3276 52.4685 33.7304 53.4116 34.4158C53.7548 34.6656 53.674 34.1286 53.9157 34.2895C54.5605 34.7185 54.8981 35.3641 55.5719 35.7804C55.6334 35.818 55.7503 35.4256 55.9354 35.584C57.3587 36.8502 58.3511 37.8714 59.9032 40.0108C60.0398 40.2209 60.2242 40.4989 60.4149 40.9025C60.588 41.3284 60.9154 41.9107 60.7665 43.1149C60.575 44.5114 59.5251 45.7107 58.3895 46.173C57.2608 46.6424 56.3958 46.5513 55.8263 46.4613C54.7079 46.2523 53.922 45.7739 53.2502 45.2987C52.3228 44.5862 51.4103 43.8365 50.5835 43.4481C49.7482 43.053 49.7326 43.4733 49.2626 43.4876C48.3502 43.5152 47.6478 42.0519 47.5659 41.8388C47.5635 41.8327 48.2873 42.1778 48.027 41.7929C48.0248 41.3248 47.5748 41.8423 47.5659 41.8388C47.511 41.7045 46.2076 40.7778 45.9037 40.6597C45.7392 40.5985 45.6269 40.9449 45.5433 40.9065C43.5683 39.9769 41.7127 38.8272 39.987 37.0732C39.959 37.0383 40.2716 36.7911 40.2038 36.7136C39.6739 36.0912 39.1227 35.7004 38.4972 35.1687C38.1855 34.9702 37.8425 34.7959 37.4988 34.5748C36.693 34.0563 36.2686 33.4503 36.3775 32.575C35.8268 32.1042 35.3137 31.1507 35.0088 30.5952C34.7064 30.041 34.1082 30.5299 34.0613 30.5047C32.5415 29.712 32.1383 28.7505 30.881 27.5723C30.2857 27.0107 28.9616 26.0642 28.2134 25.5882C27.6237 25.2115 27.3965 24.8121 26.814 24.5184C26.735 24.4785 26.6015 24.804 26.5723 24.7986C26.4968 24.7891 26.4348 24.7767 26.3845 24.7616C25.8836 24.6092 26.5201 24.2121 26.4869 24.0189C26.3603 23.2483 26.2396 22.8001 25.309 22.404C25.1051 22.3207 23.8348 22.8507 23.4611 22.6421C22.9721 22.3653 23.4126 22.1681 22.8964 21.8838C22.8529 21.8592 22.6907 22.0699 22.4271 21.8386C21.1826 20.7504 19.9207 19.4456 18.6387 18.2335C18.4639 18.0664 18.3923 18.5853 18.1333 18.3459C16.9201 17.2203 15.6595 15.8318 14.7662 14.2593C14.5511 13.8731 14.952 13.9271 14.9686 13.7996C15.0693 13.0344 13.982 12.7273 13.8881 12.5859C12.9198 11.205 12.1358 9.44093 12.4065 6.98127C12.6648 4.39221 14.7736 2.32209 16.4639 1.36159C16.9768 1.07569 17.5325 0.915961 17.9989 0.851059C18.4315 0.73761 19.8933 0.667829 20.703 0.924275C21.5717 1.1543 22.165 1.53081 22.2827 2.04254C22.3177 2.12118 22.4472 3.1113 23.1861 3.10748C23.2337 3.10965 23.1693 2.55268 23.6833 3.06103C24.1834 3.56 25.1186 4.16452 25.3851 5.09961C25.4737 5.39761 25.3296 6.33704 26.2675 6.60844C26.3309 6.6167 28.1284 6.84546 27.6487 7.73488C27.5671 7.87911 26.754 8.35749 27.6756 8.85605C27.8534 8.9538 27.8499 8.56329 28.2217 8.88803C28.795 9.39104 29.08 10.3383 29.8884 10.91C30.0303 11.0069 30.9264 11.2905 30.7436 11.9984C30.7147 12.1087 30.3604 12.114 30.4592 12.3812C30.6457 12.8904 30.8817 13.384 31.1183 13.8851C31.4322 14.5491 31.7724 15.2182 31.9683 15.9431C32.0839 16.3701 31.5252 16.386 31.595 16.8574C31.6654 17.3296 31.937 18.2197 32.3512 18.554C32.7664 18.8903 33.2846 18.0683 33.6487 18.6961C35.2284 21.4257 36.0916 24.5023 37.1962 27.5483C37.3592 28.002 37.4898 27.5223 37.7472 28.1876C38.7184 30.5992 40.3614 35.1009 40.008 37.7892C39.7312 39.8672 39.0955 37.3744 39.0419 38.9161C39.0085 39.6325 39.9632 40.4504 39.9879 40.6593C40.2438 42.5894 39.6191 43.9988 38.942 45.8897C38.7894 46.2851 39.3161 46.0679 39.1724 46.4113C39.1621 46.4356 39.1515 46.4598 39.1408 46.4839C38.8463 47.1987 38.3376 47.8683 38.0331 48.5658C37.8943 48.886 38.1861 48.9579 38.0259 49.2361C37.643 49.9086 37.2316 50.473 36.6469 51.0376C36.5937 51.0889 36.4726 50.507 36.2047 51.0204C35.7706 51.8536 35.004 52.7775 34.7363 53.8853C34.6569 54.2147 35.2449 54.5448 34.4939 54.9543C34.3344 55.0418 33.7281 54.4791 33.9256 55.5517C33.9671 55.721 34.0466 57.4616 33.1168 57.7719C32.8778 57.8493 32.0548 57.901 31.8867 58.3164C31.8645 58.3759 32.3022 58.3841 32.1124 58.7101C31.3397 59.8381 30.758 61.0446 28.2535 62.4152C27.8733 62.5852 27.9937 62.6394 28.0823 62.7171C28.1595 62.7887 28.2366 62.9052 27.5358 63.1173C26.3876 63.5035 24.3733 63.3071 23.1783 62.4996C21.9325 61.7107 21.5202 60.8112 21.2768 60.2806C21.0417 59.7228 20.9597 59.3084 20.9041 58.9838C20.7998 58.3177 20.8103 57.8722 20.8268 57.4645C20.8696 56.6656 20.9895 56.0618 21.1103 55.5315C21.2432 54.9804 21.4862 55.4172 21.5258 55.3814C22.1701 54.8479 21.5202 54.3756 21.5225 54.1569C21.5431 52.8695 22.1309 52.0785 22.3645 51.0151C22.4319 50.7198 22.0317 50.8177 22.0199 50.7508C21.9177 50.0633 22.3776 50.6997 22.5658 50.3471C22.8094 49.8983 23.0218 49.4152 23.2162 48.9228C23.4309 48.3819 23.6095 47.8322 23.7768 47.3022C23.8897 46.9425 23.361 47.2002 23.4667 46.8792C24.0861 44.9752 24.8507 43.0259 25.7634 41.2689C25.9365 40.9371 26.1467 41.2681 26.2415 41.2215C26.9 40.9067 26.5428 39.9311 26.5472 39.7405C26.5671 38.8689 26.9414 38.6781 27.1622 37.9831C28.2269 34.6007 30.1438 30.6021 31.8476 27.5745C33.1684 25.221 34.5027 23.2213 36.0947 21.2447C37.0989 20.0141 38.1197 18.7934 39.2362 17.4637C39.413 17.2545 38.916 17.187 39.0651 17.0028C41.1285 14.6158 42.92 12.6227 46.455 10.3099C46.8053 10.1145 46.0759 10.0426 46.6891 9.70149C47.1686 9.46444 47.7377 9.13713 49.0027 8.97388C49.6395 8.91156 50.5925 8.88544 51.7541 9.39015C52.943 9.88916 53.9023 10.9949 54.285 11.8578C54.815 12.9083 54.8515 14.1907 54.6873 14.9402C54.5322 15.7169 54.2839 16.1906 54.0934 16.527C53.7522 17.0827 53.7267 16.8937 53.6906 16.7715C53.6588 16.6256 53.6069 16.5461 53.3146 16.9376C52.0073 18.4725 51.2037 18.9073 50.3794 19.6658C50.0326 19.9646 50.8223 19.8753 50.3607 20.2299C48.1031 21.9357 45.9824 23.283 43.6811 24.4731C42.7887 24.9299 41.8747 25.3512 40.926 25.7321C40.6987 25.8226 40.0986 25.2178 39.7263 25.6157C39.8074 25.8331 39.9438 26.0652 40.0515 26.2855C35.6695 28.9646 31.1096 31.157 26.6023 33.567C26.412 33.6687 26.9485 33.8739 26.5813 34.0727C24.4593 35.2218 22.4522 36.4448 20.071 37.2308C19.8371 37.3081 19.5827 36.5724 19.0004 37.0166C18.9019 37.0936 17.9849 37.701 17.8224 37.9769C17.7997 38.0175 18.1473 38.2386 17.8388 38.4153C16.3184 39.2808 14.6818 40.0902 13.0568 40.7732C12.7758 40.8926 12.515 40.9979 12.2418 41.1065C11.9297 41.23 12.0654 40.7269 11.8429 40.8112C10.2788 41.4041 8.82149 42.4949 7.21275 42.916C6.13704 43.1912 6.19403 42.4249 5.39355 42.0892C5.28423 42.0428 4.63345 42.3219 4.44125 41.9851C4.01926 41.1305 3.87398 40.0632 3.3783 39.1716C3.35184 39.1235 3.30125 39.1164 3.26064 39.1141C3.23214 39.1099 3.16497 39.114 3.34238 39.0515C3.4334 39.0313 3.62939 38.9386 4.16502 39.0032C4.41836 39.035 4.72407 39.1502 4.8621 39.2175C5.00507 39.285 5.02169 39.2868 5.03088 39.2751C5.03608 39.2619 5.05458 39.2552 5.04923 39.2306C5.04179 39.2094 4.97217 39.1179 4.65968 38.9652C4.35509 38.8136 3.92242 38.7376 3.69454 38.725C3.45014 38.7081 3.31955 38.7098 3.22495 38.6976C3.19993 38.6938 3.09979 38.7045 3.08172 38.6862C3.05785 38.6691 3.07894 38.6288 3.11553 38.5751C3.19236 38.4665 3.30625 38.3168 3.33295 38.2057C3.36215 38.0555 3.05106 37.7763 3.15343 37.5534C3.25625 37.33 3.59828 37.5232 3.8289 37.2014C4.06056 36.8756 3.72381 36.5561 4.3326 36.1903ZM33.5788 28.1136C33.4064 27.4584 32.4428 28.4018 33.1075 28.572C33.1409 28.5794 33.5884 28.1469 33.5788 28.1136ZM23.8385 22.9552C24.6256 23.5192 25.1595 22.6427 24.5853 22.1942C24.0054 21.7492 23.5909 22.7856 23.8385 22.9552ZM15.8575 24.4825C16.8493 24.7263 16.5839 22.8306 15.684 23.439C15.6313 23.4743 15.799 24.4689 15.8575 24.4825ZM7.67241 40.742C7.66259 40.7271 7.22454 40.932 7.22745 40.9502C7.19753 41.4458 8.05606 41.0449 7.67241 40.742ZM8.55251 27.7234C8.92106 27.8221 9.51448 27.2022 9.05898 27.0669C8.68398 26.9598 8.09267 27.598 8.55251 27.7234ZM17.2898 4.91707C17.3115 4.92189 17.6027 4.73674 17.5338 4.64941C17.3168 4.34782 16.9439 4.75474 17.2898 4.91707ZM0.223065 38.0061C0.849883 36.041 2.76725 35.6258 1.91571 37.4553C1.76828 37.8008 1.69177 36.5352 1.40606 36.9407C0.875732 37.7158 1.68077 38.5356 0.966718 39.2835C0.830893 39.4282 0.177071 38.1232 0.22187 38.0021C0.222268 38.0034 0.222666 38.0048 0.223065 38.0061ZM34.425 26.6971C34.4288 26.676 34.0924 26.3495 34.0729 26.3562C33.6008 26.5058 34.2724 27.1579 34.425 26.6971ZM28.6878 19.1507C28.6646 19.1902 29.0911 20.1855 29.1372 20.2025C30.01 20.4192 29.1488 18.4035 28.6878 19.1507ZM56.792 42.0165C56.2067 41.9162 55.836 41.5739 55.9637 40.919C56.2695 41.29 56.5763 41.6514 56.792 42.0165Z" fill="#1340FF"/>
</svg>
