<svg width="255" height="35" viewBox="0 0 255 35" fill="none" xmlns="http://www.w3.org/2000/svg">
<path d="M3.34104 5.54252C5.14952 5.12227 7.53522 5.25907 9.38981 5.55221C9.96397 5.64317 9.71825 6.24468 10.1148 6.33387C10.8778 6.50851 11.5979 6.17276 12.3703 6.39137C12.6275 6.46662 12.3774 7.40917 12.6453 7.467C14.0929 7.77873 15.4737 7.45209 16.9257 7.55554C24.1875 8.06025 31.271 8.00654 38.5722 8.0902C40.9881 8.11637 43.9392 8.83009 46.4071 8.36992C46.6965 8.31529 46.4923 7.51175 46.5451 7.44288C47.3712 6.38821 47.1391 8.03473 47.7091 8.23135C49.9822 9.00711 52.4723 9.00098 54.6228 8.62768C55.5544 8.46621 54.5795 6.88223 55.5317 7.76037C55.597 7.8197 55.3894 8.68652 55.6413 8.77158C56.1985 8.96299 57.2969 8.78122 57.7382 8.839C58.608 8.95409 58.7259 8.94277 59.5463 8.93452C60.6523 8.93124 61.951 9.33397 63.1367 9.11793C63.387 9.06929 63.0343 8.19285 63.4442 8.03543C63.8469 7.87835 64.8891 7.9354 65.2638 8.13669C65.6116 8.3386 65.4754 9.0348 65.5393 9.19266C65.7114 9.59008 65.9351 9.70132 66.1475 9.66058C66.6523 9.56558 67.1922 8.61583 67.2877 8.57854C69.8085 7.66699 72.1573 8.41662 74.6822 7.95798C76.5853 7.60686 78.5488 6.80836 80.3815 6.40188C82.5671 5.92026 84.5504 5.86937 86.677 5.18123C86.9016 5.10946 86.3527 4.18674 86.6258 4.09718C89.5248 3.14878 92.5335 2.36707 95.8208 2.23518C96.1473 2.22422 95.9787 3.20874 96.3164 3.2513C98.4292 3.4658 101.686 4.60967 102.348 0.524455C103.805 0.455849 105.727 0.449526 107.154 1.29428C108.068 1.84613 107.122 2.78483 108.24 2.44023C108.506 2.37089 108.246 1.47103 108.658 1.43757C109.683 1.35729 110.859 1.61172 112.027 2.00843C112.479 2.17579 112.925 2.37867 113.459 2.76908C114.035 3.19932 114.588 3.78761 114.991 4.60617C115.78 6.28915 115.52 7.62279 115.381 8.43171C115.22 9.20132 116.005 9.26559 116.051 9.53295C116.247 11.8389 113.714 11.7785 113.451 11.8975C111.238 12.8503 110.577 13.9145 109.254 15.0286C108.948 15.28 109.982 15.7754 109.71 16.0465C108.301 17.4293 106.681 18.5816 104.942 19.3333C104.554 19.498 104.309 18.5628 104.096 18.6049C103.165 18.7982 104.035 20.2508 103.164 20.4565C102.982 20.5009 102.598 19.835 102.522 19.7872C101.335 19.0378 102.123 20.7784 102.05 20.886C101.126 22.2933 99.1399 21.3543 98.1291 22.4956C98.0138 22.6308 98.9158 23.1489 98.5608 23.4786C98.079 23.9269 97.6015 24.3544 97.1791 24.7367C96.6996 25.169 96.2115 25.5991 95.9055 25.8809C95.834 25.9455 95.7763 25.9999 95.7588 26.0059C95.7412 26.0064 95.7626 25.9867 95.8804 25.7316C95.9345 25.6049 96.0343 25.3842 96.1092 24.9929C96.1872 24.5729 96.2339 23.897 95.94 23.1075C95.6703 22.3498 95.0719 21.7457 94.7458 21.5274C94.3565 21.2535 94.1424 21.1888 93.9793 21.1333C93.6765 21.0465 93.6383 21.0809 93.6407 21.0982C93.6539 21.1209 93.7159 21.1493 93.8176 21.1765C93.9993 21.2304 94.2727 21.2795 94.5658 21.3236C95.1587 21.4115 95.7881 21.4916 96.4571 21.5789C96.9628 21.6452 96.6875 22.4032 96.7267 22.489C97.4168 23.8201 97.5308 21.9212 97.6925 21.8311C98.9427 21.1704 100.392 22.5524 100.999 20.2156C103.214 20.2042 105.437 19.8609 107.64 19.5223C111.086 18.9919 114.561 18.4569 118.205 19.1214C118.281 19.1329 118.294 20.0637 118.445 20.0827C120.249 20.3234 119.694 18.9605 120.568 17.0495C120.783 16.5704 121.986 18.5219 122.089 18.6626C122.461 19.1823 122.381 20.583 122.493 20.6773C123.417 21.4111 122.576 16.9533 123.629 16.7855C123.663 16.7878 123.655 17.634 123.756 17.702C124.072 17.9159 124.293 17.5451 124.609 17.786C125.331 18.3448 125.887 20.4876 126.63 19.0715C126.723 18.8883 126.141 16.3763 127.1 16.3472C127.477 16.3387 129.142 16.0296 129.627 16.1212C130.117 16.2118 129.928 17.0811 129.967 17.1113C131.391 17.9944 130.989 18.5185 131.873 20.0207C132.754 21.5174 131.973 17.7375 132.161 17.2718C132.349 16.8073 133.41 17.5538 133.686 17.828C133.962 18.1025 133.763 18.6676 133.992 18.8112C135.503 19.7475 134.273 16.8283 134.614 16.1542C135.419 14.5582 136.674 17.2531 137.665 17.3783C137.933 17.412 137.621 16.8024 137.839 16.7057C138.705 16.3314 139.389 17.1254 140.286 16.153C140.432 15.9944 140.99 14.1637 141.727 15.323C141.832 15.4904 141.729 16.2287 142.139 16.3245C142.75 16.4689 143.812 16.4556 144.391 16.1212C144.818 15.8739 144.11 14.7987 144.741 15.0666C145.021 15.1863 144.658 15.9405 145.176 16.1089C145.695 16.2772 146.908 16.0508 147.366 15.9529C147.826 15.8541 147.43 15.0158 147.458 14.9506C147.631 14.5745 148.451 14.0069 148.529 13.9954C152.46 13.2496 156.37 14.1354 160.13 13.0172C160.43 12.9299 160.075 12.0364 160.119 12.0135C161.097 11.4547 160.681 14.0531 161.54 14.7594C161.129 12.8954 161.603 13.1675 162.301 12.8412C162.64 12.6821 162.327 11.9856 162.347 11.9057C162.691 10.7135 163.285 12.0831 163.426 12.3601C163.942 13.3793 164.11 12.0471 164.467 12.7265C164.82 13.4008 164.451 14.5474 165.152 14.4182C165.237 13.7127 164.429 12.039 164.912 11.6666C166.742 10.2582 170.689 11.0218 172.325 10.8945C172.342 10.8932 172.36 10.8919 172.377 10.8906C173.985 10.7609 174.47 10.5566 175.433 10.641C177.18 10.7973 176.378 9.59154 177.297 8.82126C178.269 8.04179 178.288 11.3398 178.56 12.0033C178.828 12.6671 178.851 11.9328 179.111 12.2785C179.365 12.6251 179.036 13.1637 179.504 13.2305C179.961 13.2987 180.92 11.8732 180.967 11.1233C181.037 9.53931 180.22 8.02784 181.472 8.39543C181.543 8.41773 181.472 9.29766 181.738 9.34039C182.734 9.48636 183.719 9.49381 184.728 9.50302C184.99 9.5045 185.243 9.50784 185.511 9.51756C185.65 9.52218 185.797 9.52789 185.95 9.54144C186.058 9.54853 186.107 9.55355 186.283 9.57742C186.374 9.59695 186.42 9.58453 186.688 9.69093C186.75 9.71859 186.82 9.75546 186.899 9.81161C187.002 9.88284 187.173 10.0424 187.268 10.2568C187.472 10.7556 187.317 11.0531 187.242 11.2188C186.936 11.6856 186.891 11.5958 186.784 11.6887C186.709 11.7318 186.628 11.7729 186.568 11.7989C186.433 11.8611 186.318 11.9041 186.203 11.9467C185.972 12.0327 185.75 12.1081 185.529 12.1838C185.414 12.2223 185.294 12.2641 185.175 12.3045C184.91 12.3966 184.545 11.4845 184.378 11.5345C182.622 12.1291 184.109 13.023 184.678 14.897C183.226 13.0191 181.841 12.2661 180.864 13.2829C180.295 13.8945 181.168 14.4811 181.416 15.3248C181.495 15.5709 180.599 15.5705 180.935 15.9415C182.069 17.1083 183.712 17.8155 182.656 18.1808C182.606 18.1998 181.912 17.6553 181.794 17.7578C181.577 17.9481 181.561 18.1535 181.66 18.3138C181.785 18.5088 182.095 18.6569 182.39 18.5838C182.535 18.5455 182.678 18.4427 182.75 18.2465C182.824 18.0562 182.805 17.7574 182.679 17.5166C182.542 17.2457 182.312 17.1316 182.254 17.1884C182.187 17.2394 182.264 17.4116 182.432 17.5899C182.772 17.956 183.423 18.3421 183.951 18.4613C183.887 19.2255 183.932 19.7266 184.058 20.0087L183.851 20.0193C184.323 20.6295 184.901 19.8351 185.011 18.4858C185.813 18.4246 186.659 18.1687 187.468 18.2794C187.746 18.3165 187.713 19.1079 187.761 19.184C188.507 20.3784 188.532 18.5526 188.69 18.4517C190.413 17.4333 192.189 18.4616 193.688 16.7924C193.741 16.7324 193.458 14.8984 194.204 16.123C194.256 16.2074 193.848 17.1566 194.692 17.043C195.537 16.9298 197.32 17.5539 198.274 16.4523C198.501 16.1881 198.869 14.5584 199.697 15.5704C199.808 15.7081 199.849 16.2447 200.025 16.5069C200.594 17.3405 200.344 15.4744 201.133 16.9212C201.924 18.3674 203.064 19.3178 203.975 17.9563C204.005 17.9159 203.918 16.4071 204.284 16.3379C204.868 16.2296 205.784 16.3118 206.38 16.1447C206.666 16.0638 206.247 15.221 206.293 15.1915C208.109 14.1758 209.698 14.5916 211.87 14.3395C212.284 14.291 212.997 12.7743 214.026 13.5041C215.149 14.3035 215.6 18.8976 217.182 17.2896C217.818 16.6436 217.046 10.8728 219.286 13.2798C221.647 11.7497 224.543 12.3787 226.772 10.4642C226.875 10.3779 226.7 8.73819 226.97 8.66353C227.383 8.55155 227.868 9.17187 228.167 9.11471C229.452 8.88306 230.321 7.87001 231.504 7.51687C231.954 7.38049 232.07 8.16701 232.621 7.99657C233.003 7.87944 233.116 7.25279 233.462 7.00983L233.488 7.00115C233.628 6.9254 233.806 6.90099 234.037 6.9747C234.695 7.18632 235.749 9.06817 236.517 9.1327C236.064 7.1274 236.575 7.04527 237.359 6.31206C237.509 6.17037 237.166 5.51394 237.229 5.41083C237.488 4.97474 237.925 5.48581 238.163 5.02344C238.222 4.91212 238.076 4.22519 238.115 4.09557C238.448 2.96521 239.673 4.32458 239.88 4.56335C240.677 5.46635 240.77 4.51642 241.302 4.83012C241.833 5.14423 241.259 5.78164 241.832 5.92296C243.014 6.21585 244.388 5.84026 245.497 5.66879C245.939 5.59603 245.469 4.72954 245.529 4.69772C246.4 4.2956 247.5 5.11056 247.678 3.18194C249.161 7.82104 248.147 2.62179 249.625 3.34179C249.742 3.40057 250.269 5.62587 249.933 6.0254C249.597 6.42485 248.874 5.82834 248.42 6.44021C248.31 6.58432 247.952 8.82232 247.874 8.96825C247.269 10.1068 246.544 6.77176 246.469 6.59494C245.63 4.69217 245.14 7.12687 244.935 7.32737C243.986 8.24712 242.977 7.95251 242.177 8.64154C241.652 9.08874 242.036 11.2913 241.569 11.316C240.027 11.4017 238.821 8.47076 238.012 11.4267C237.847 12.0575 238.691 14.3646 237.212 12.7444C237.128 12.6395 235.915 11.1292 235.761 12.3207C235.743 12.4707 235.927 13.1582 235.872 13.2347C235.702 13.4685 235.504 13.4924 235.311 13.491L235.983 13.2618C235.735 13.2968 235.45 13.3129 235.196 13.5685C234.732 14.045 234.163 14.7021 233.429 14.7251C232.973 14.7457 232.001 13.6956 231.698 13.463C230.816 12.7959 230.813 14.4329 230.071 13.4992C229.353 12.5501 229.39 10.6953 228.287 10.3162C228.89 12.0647 229.467 13.8748 230.051 15.6415C228.088 16.2879 226.001 16.3825 224.086 17.1109C223.85 17.2023 224.411 18.063 224.165 18.1858C223.107 18.7055 221.938 18.3417 220.893 18.9717C220.075 19.4662 219.416 20.7754 218.574 21.311C217.384 19.4632 216.23 20.5624 215.17 20.6712C214.804 20.7089 214.669 20.1596 214.369 20.0549C213.24 19.6725 214.199 21.3413 214.02 21.6992C213.266 23.2221 211.997 19.183 210.744 19.6403C210.679 19.6628 210.432 22.0709 210.348 22.2391C209.847 23.3247 210.019 21.515 209.514 21.4788C208.593 21.4118 207.862 21.0488 207.042 21.9453C206.803 22.2097 206.446 23.7542 205.619 22.8415C205.51 22.7222 205.368 21.9888 205.297 21.9616C204.043 21.527 204.575 23.808 204.146 24.7312C203.715 25.6547 202.357 24.3172 202.062 23.9077C201.276 22.8549 202.329 23.3142 202.332 23.1916C202.327 21.7441 201.689 22.1473 201.132 22.1561C200.528 19.9383 199.822 20.2451 200.555 22.1744C200.637 22.3848 201.002 22.0791 201.132 22.1561C201.187 24.4595 200.409 24.938 199.042 23.0877C198.401 22.2201 198.547 21.0091 197.358 21.7052C196.821 22.0183 197.384 23.5142 196.959 24.0485C195.974 25.2705 194.131 24.1486 192.962 24.6196C192.535 24.7911 193.138 25.5538 192.851 25.7004C192.084 26.0927 191.25 25.593 190.5 26.0739C190.432 26.1186 190.781 26.9751 190.529 27.0345C188.705 27.4805 187.005 27.2492 185.091 27.5049L183.593 27.582C183.473 27.5717 183.352 27.5616 183.232 27.5517C181.95 27.3564 179.261 27.9902 175.948 25.5339C174.738 24.6184 173.197 22.524 172.924 20.2692C172.624 18.0371 173.235 16.4844 173.735 15.4828C174.925 13.3397 175.978 12.6231 176.516 11.6195C177.188 10.4761 176.326 10.1164 176.25 9.27033C176.138 7.59329 179.048 7.83143 179.434 7.95432C179.439 7.95856 178.789 8.83218 179.522 8.7974C180.407 9.30561 179.424 7.96864 179.434 7.95432C179.661 7.99427 181.08 7.06014 181.733 6.55021C181.819 6.47965 181.88 6.42117 181.915 6.37367C182.069 6.15979 181.489 5.51258 181.579 5.41525C181.708 5.27556 181.829 5.14593 181.915 5.04051C181.989 4.94313 182.067 4.84052 181.917 4.89414C181.811 4.95732 181.747 4.91906 181.078 5.52072C180.872 5.71885 180.606 5.98378 180.258 6.45969C179.895 7.06989 178.737 8.32959 178.92 11.4365C179.049 13.1781 180.051 15.0234 181.09 15.9921C181.346 16.2448 181.601 16.4587 181.844 16.6412C182.063 16.8037 182.16 16.867 182.31 16.9642C182.589 17.1421 182.848 17.281 183.083 17.3943C183.99 17.8301 184.728 17.9565 184.915 17.997C186.026 18.1814 186.073 18.1249 186.273 18.1517C186.403 18.1633 186.443 18.1747 186.464 18.1885C186.503 18.2453 186.291 18.3225 186.086 18.3964C185.885 18.4691 185.645 18.5406 185.393 18.606C184.406 18.865 183.29 19.0091 182.163 18.9969C182.119 18.9866 182.019 18.029 181.919 18.0167C180.568 17.8134 179.971 19.1079 179.018 19.978C178.08 20.845 177.196 20.7578 176.302 19.2358C175.593 19.5508 174.471 19.1181 173.701 18.7979C173.644 18.7721 173.589 18.7469 173.537 18.7229C172.819 18.3944 173.027 20.2558 172.976 20.3018C171.365 21.7705 170.137 20.8889 168.242 21.0331C167.327 21.1007 165.6 21.6601 164.683 22.0177C163.948 22.3054 163.41 21.9492 162.761 22.3397C162.672 22.3921 162.902 23.1983 162.879 23.2347C162.255 24.3465 162.303 22.2756 162.082 21.9432C161.271 20.7359 160.811 20.0976 159.904 20.876C159.693 21.0548 159.49 24.0583 159.099 24.2957C158.587 24.5996 158.625 23.5287 158.089 23.8739C158.043 23.9025 158.158 24.5406 157.796 24.5706C156.14 24.7142 154.276 24.6348 152.58 24.9753C152.348 25.0194 152.811 25.986 152.478 26.0664C150.908 26.4442 149.171 26.6863 147.552 26.4598C147.152 26.401 147.276 25.6518 147.16 25.4541C146.445 24.2592 146.03 26.2296 145.917 26.2841C143.234 27.6307 140.804 26.2984 138.052 27.5587C137.905 27.6304 137.013 29.8134 136.203 28.1929C136.147 28.0854 135.34 26.4242 135.057 27.6933C135.039 27.7726 135.515 28.6183 134.92 28.6193C134.324 28.6207 133.495 29.3683 132.536 28.5084C132.234 28.2376 131.362 26.5908 130.833 28.0982C130.798 28.203 130.132 31.5272 129.377 29.4266C129.252 29.081 128.965 26.7768 128.249 28.0951C128.113 28.3502 128.506 28.812 128.103 29.2031C127.487 29.8051 126.479 29.3355 125.784 30.4919C125.662 30.6964 125.283 32.3511 124.587 31.2505C124.478 31.0782 124.509 30.2889 124.226 30.2458C122.886 30.0362 121.629 30.7588 120.261 30.4309C119.769 30.3174 119.81 29.043 119.279 28.7866C118.75 28.53 117.744 28.3607 117.327 29.0052C116.916 29.649 117.767 31.5364 117.048 31.8104C114.669 32.7116 112.14 32.5587 109.638 32.5682C108.796 32.5757 108.011 32.5921 107.186 32.6744C106.697 32.7222 107.215 33.3666 106.494 33.4887C103.849 33.9361 99.3443 35.2936 96.2822 34.0005C93.7918 32.9369 96.7722 31.8369 94.9296 31.4408C94.4567 31.3417 93.9609 31.871 93.4138 32.4112C93.1142 32.6805 92.8058 32.95 92.5407 33.1502C92.2564 33.3491 91.9738 33.4719 91.8425 33.471C91.6748 33.4699 91.5153 33.4657 91.3201 33.449C91.1053 33.4284 90.8794 33.3981 90.6396 33.3545C90.1961 33.2754 89.544 33.1145 88.766 32.7744C88.0412 32.4515 86.8446 31.8379 85.6345 30.5005C84.3597 29.1403 83.3963 26.8998 83.2952 25.0068C83.1826 21.4055 84.2404 20.2403 84.6128 19.4437C84.8737 19.0085 85.0705 18.7423 85.2635 18.4927C85.4585 18.2425 85.6377 18.0381 85.7863 17.8802C87.0035 16.6273 87.7028 16.2997 88.2815 15.5513C88.5037 15.266 87.6171 14.7953 87.8169 14.5579C87.8979 14.4606 87.9853 14.3693 88.0778 14.2824C88.8698 13.5492 89.7571 13.2515 90.353 12.695C90.6473 12.4175 90.1525 11.8926 90.4778 11.7096C91.2457 11.2709 92.0291 11.0533 93.0777 11.1016C93.1739 11.1055 93.3162 12.12 93.8289 11.7719C94.6449 11.2161 96.0106 11.0159 96.4685 9.80294C96.6017 9.44136 95.616 8.12886 96.8542 8.60738C97.1125 8.70714 98.1731 10.3801 97.7669 8.54047C97.7075 8.22946 97.3292 5.61093 98.7401 6.37718C99.113 6.57837 100.459 7.56694 100.588 7.1345C100.601 7.07198 99.891 6.51297 100.07 6.25612C100.705 5.36462 101.589 4.73587 102.067 3.91513C102.186 3.70101 101.316 3.26562 101.502 2.9763C101.754 2.58201 102.072 2.25335 102.231 2.16589C102.31 2.12568 102.34 2.15032 102.264 2.36485C102.191 2.60552 101.956 2.98119 101.629 4.22443C101.374 5.30565 101.602 5.73395 101.819 5.61305C102.043 5.52386 102.317 5.18661 102.341 5.28392C102.693 6.71183 102.813 9.01679 103.595 10.8019C104.28 12.5074 105.035 13.6076 105.521 14.0074C106.117 14.4769 106.652 14.7752 107.092 14.9816C107.272 15.3988 107.39 14.6993 107.092 14.8793C107.008 14.9327 107.003 15.796 106.982 15.8715C106.796 16.612 106.998 15.0739 106.875 14.8981C106.496 14.3983 105.743 14.5046 105.026 14.7083C104.755 14.785 105.188 15.7358 104.955 15.7926C103.575 16.1497 101.748 16.4557 99.8085 16.3857C99.4456 16.37 99.4652 15.5711 99.3508 15.4192C98.5506 14.3561 98.2261 16.1786 98.1062 16.3769C97.5254 17.2903 97.0383 16.7204 96.3755 17.0383C93.1451 18.6056 88.5291 19.5089 84.8639 20.15C80.0799 20.9865 76.1586 21.0819 71.2636 21.8024C70.9497 21.8456 71.372 22.831 71.0992 22.8812C69.576 23.1388 68.0104 23.226 66.4247 23.232C64.6404 23.2316 62.9502 23.1998 61.2414 23.4029C60.9983 23.4302 61.3705 24.3926 60.9782 24.4692C60.146 24.6336 59.1322 24.6032 58.3031 24.3134C57.8909 24.174 58.4203 23.3289 58.0038 23.2057C57.0642 22.9164 56.0553 22.8737 55.0745 23.0568C54.6657 23.1366 55.3057 24.1107 54.7826 24.137C51.1396 24.3396 47.5703 24.6376 43.8244 23.5074C43.5709 23.4297 43.2676 21.4247 42.7411 21.834C42.724 22.3947 42.7542 23.052 42.7618 23.6502C37.4584 24.1988 32.1537 23.7689 26.792 23.9682C26.569 23.9767 27.0154 25.0209 26.5837 25.0428C24.0441 25.1734 21.6316 25.6161 18.9747 24.7211C18.7124 24.6338 18.7105 22.751 17.9838 23.0823C17.857 23.1423 16.7404 23.4656 16.4695 23.8922C16.4334 23.9563 16.6993 24.8178 16.3324 24.8674C14.2044 25.1401 11.9588 25.0918 9.79851 24.706C9.44661 24.6423 9.74964 23.6848 9.49814 23.6313C7.72141 23.2589 5.87499 24.1038 4.16653 23.3794C3.01798 22.8917 3.30799 21.2515 2.59735 19.7108C2.49716 19.4934 1.79921 19.5099 1.69345 18.5907C1.42674 16.2792 1.57516 13.7151 1.25105 11.2543C1.18253 10.7241 0.283536 11.3682 0.744643 10.04C0.77753 9.95091 1.42666 9.47294 1.56071 9.02418C1.65454 8.7138 1.37491 7.79174 1.58353 7.38783C1.7921 6.9843 2.11085 7.75098 2.46787 7.2683C2.82369 6.78013 2.57504 5.72575 3.34104 5.54252ZM170.246 17.266C169.5 16.4793 169.951 19.7395 170.468 18.8557C170.493 18.809 170.286 17.3041 170.246 17.266ZM225.201 14.0247C223.959 12.9176 224.12 15.1149 225.028 15.9902C225.932 16.8648 225.585 14.3573 225.201 14.0247ZM232.79 10.1156C231.488 9.39457 233.008 13.8084 233.652 12.547C233.688 12.4755 232.866 10.1575 232.79 10.1156ZM5.3037 19.0579C5.29276 19.0148 4.78463 19.0092 4.77881 19.053C4.58832 20.1146 5.59586 20.1258 5.3037 19.0579ZM240.152 6.95845C239.739 6.39868 239.066 7.28545 239.582 7.97862C239.993 8.53639 240.665 7.65433 240.152 6.95845ZM137.944 18.9599C137.927 18.913 137.567 18.9259 137.618 19.1985C137.783 20.076 138.234 19.7486 137.944 18.9599ZM253.96 4.3645C251.881 4.54734 249.972 0.969252 252.283 1.00749C252.701 1.01453 251.621 2.37022 252.196 2.62274C253.246 3.0823 253.458 0.589626 254.641 1.70033C254.856 1.90399 254.08 4.36243 253.957 4.37042C253.958 4.36844 253.959 4.36647 253.96 4.3645ZM169.255 13.4248C169.236 13.3837 168.745 13.4233 168.74 13.4679C168.648 14.5418 169.638 14.4626 169.255 13.4248ZM117.04 20.2146C117.008 20.1259 115.843 20.2203 115.823 20.3098C115.492 22.0904 117.825 21.9081 117.04 20.2146ZM183.963 18.5335C184.032 18.4036 184.101 18.2886 184.17 18.1895L183.553 18.2212C183.919 17.4496 184.448 17.414 185.009 18.4849C184.544 18.5029 184.083 18.5648 183.615 18.5962L184.147 18.5689C184.084 18.5581 184.023 18.5464 183.963 18.5335Z" fill="#FFF0E5"/>
</svg>
