<svg width="60" height="53" viewBox="0 0 60 53" fill="none" xmlns="http://www.w3.org/2000/svg">
<path d="M49.0549 52.8071C49.4973 53.117 49.4197 52.8705 49.4184 52.5853C49.4109 52.4943 49.4783 52.1024 49.473 52.0215C49.4631 51.8639 49.3962 52.0515 49.3801 51.8637C49.3739 51.7994 49.474 51.1774 49.4649 51.1241C49.4112 50.8365 49.2996 50.9844 49.2122 50.8395C48.7652 50.1228 48.2124 49.8322 47.6386 49.4918C47.4558 49.3807 47.264 48.7899 47.0336 49.0208C47.0064 49.0482 46.9733 49.6002 46.9646 49.6452C46.8325 50.3338 46.9538 49.2242 46.9205 49.0725C46.7878 48.4735 46.5819 48.4049 46.3853 48.6024C46.3002 48.688 46.2862 49.7886 46.2595 49.1679C46.2575 49.126 46.3263 48.5427 46.3101 48.4785C46.2986 48.4338 46.281 48.4122 46.2609 48.4022C46.2191 48.3803 46.1658 48.416 46.1434 48.382C46.0807 48.2838 46.0684 48.2887 46.0013 48.2765C45.9093 48.2546 45.822 47.9547 45.7146 48.0794C45.6913 48.1077 45.6701 48.7097 45.6284 48.809C45.5868 48.9082 45.5018 48.8501 45.4828 48.7063C45.4639 48.5623 45.515 48.092 45.5184 47.9835C45.5478 47.0679 45.3401 48.3225 45.3259 48.3528C45.0466 48.866 44.8884 48.1292 44.6649 48.1136C44.4908 48.1029 44.2867 48.3259 44.1261 48.2806C43.9319 48.224 43.7909 47.886 43.597 47.9272C43.5764 47.9309 43.5455 48.6381 43.5203 48.644C43.2478 48.7055 43.003 48.6093 42.7739 48.1128C42.7511 48.0624 42.8326 47.4456 42.8126 47.3582C42.6933 46.8372 42.534 45.5952 42.2329 48.2846C42.1299 48.1709 42.0103 48.0525 41.9545 47.5015C41.9187 47.1469 42.0301 46.4767 41.9318 46.7589C41.9096 46.8217 41.8875 47.4144 41.8577 47.4639C41.7325 47.672 41.6245 47.4707 41.4943 47.768C41.4679 47.8299 41.434 48.3598 41.4207 48.4547C41.3111 49.2231 41.3204 47.94 41.3083 47.8459C41.216 47.1433 41.0893 47.4076 40.954 47.3805C40.9226 47.3739 40.907 48.088 40.8749 48.1072C40.7133 48.1977 40.5568 48.1245 40.4264 47.7975C40.3975 47.723 40.4741 47.1194 40.4626 47.0529C40.4112 46.7666 40.3101 47.9098 40.2589 47.6574C40.248 47.6057 40.2947 47.0876 40.2963 47.0304C40.3218 46.1331 40.1922 47.3976 40.1796 47.4248C40.0178 47.7971 40.0299 46.468 39.8855 46.6456C39.8681 46.6682 39.8548 47.3271 39.8089 47.3505C39.4991 47.5098 39.2126 47.3074 38.9574 46.7608C38.9186 46.6768 38.9867 46.1861 38.9884 46.1251C39.0126 45.172 38.8896 46.4424 38.8715 46.4892C38.7318 46.8258 38.7023 45.7507 38.5126 47.2606C38.0598 46.6986 37.5117 47.5143 37.1271 46.1213C37.1221 46.1052 37.1787 45.4792 37.1685 45.4497C37.0454 45.087 37.0031 46.0631 36.818 47.2472C36.7714 47.5446 36.8002 46.1008 36.8015 45.9949C36.8057 45.6046 36.8982 44.674 36.8956 44.5982C36.8718 44.0025 36.6591 47.0869 36.569 47.0814C36.5666 47.076 36.6196 46.5093 36.6161 46.4523C36.6054 46.2735 36.5658 46.4973 36.5569 46.3003C36.5369 45.8444 36.6266 44.3446 36.4827 45.2108C36.4642 45.3233 36.3533 47.0735 36.2783 46.9851C36.2485 46.9483 36.103 46.9679 36.0709 46.8516C36.0388 46.7355 36.1072 46.1738 36.1061 46.1492C36.0521 45.3961 36.1157 45.0902 36.1417 43.9828C36.1676 42.8796 35.9929 45.5027 35.95 45.7937C35.907 46.084 35.8728 45.4633 35.8689 45.2481C35.865 45.0329 35.915 44.6764 35.9065 44.5542C35.8495 43.7552 35.7625 45.852 35.6948 46.2655C35.535 47.2444 35.606 45.2949 35.5381 45.0985C35.5197 45.0455 35.5058 45.4896 35.4831 45.5296C35.3939 45.6822 35.39 45.072 35.2627 45.6221C35.2418 45.7117 35.0867 46.8757 35.1025 46.0144C35.1049 45.8902 35.1583 45.407 35.1331 45.2961C35.0957 45.1296 35.0144 45.0173 34.9497 45.1755C34.9018 45.2925 34.8893 46.0942 34.8578 45.8426C34.8438 45.7302 34.9181 45.2661 34.889 45.094C34.8602 44.922 34.7535 44.9349 34.7123 44.9482C34.6711 44.9618 34.6494 45.569 34.6433 45.6096C34.6069 45.8419 34.509 46.1285 34.5027 46.1273C34.1604 46.177 33.9145 45.1332 33.562 45.4476C33.5342 45.4714 33.5057 46.1113 33.501 46.1215C33.393 46.3827 33.5847 44.6896 33.5633 44.1168C33.4795 45.4135 33.4596 45.1762 33.3868 45.3139C33.3515 45.3812 33.3321 45.8843 33.3256 45.9355C33.2262 46.6945 33.2655 45.7077 33.2718 45.5057C33.2951 44.7627 33.2001 45.6358 33.2153 45.1391C33.2302 44.6461 33.329 43.9208 33.2679 43.9258C33.2178 44.3886 33.1759 45.6042 33.116 45.7975C32.8883 46.5283 32.6384 45.5542 32.506 45.4455C32.3746 45.3368 32.3236 45.4192 32.2547 45.2458C32.1302 44.9322 32.12 45.8356 32.0004 46.2409C31.8808 46.6462 32.0826 44.4359 32.1036 43.9592C32.1248 43.4827 32.0759 43.9713 32.0787 43.7087C32.0815 43.4461 32.1388 43.1251 32.1086 43.0242C32.0784 42.9235 31.9161 43.7624 31.8674 44.259C31.7643 45.311 31.7314 46.4206 31.6603 46.0248C31.6563 46.0014 31.7162 45.4207 31.6987 45.3603C31.5579 44.8999 31.3791 44.8593 31.236 44.4508C31.2163 44.3937 31.2836 43.7477 31.2726 43.7072C31.1586 43.2828 31.1321 44.3782 30.9671 45.5854C31.0997 43.9727 31.1265 42.9822 31.0179 42.9649C30.9527 42.9539 30.9138 43.6596 30.8359 44.1534C30.8125 44.3022 30.8004 43.8149 30.7684 44.1458C30.6634 45.2275 30.621 46.4436 30.5425 45.9526C30.5392 45.9293 30.5971 45.3372 30.5826 45.3001C30.4888 45.0571 30.3956 46.1897 30.2669 46.3185C30.1661 46.4195 30.0493 45.7166 29.9507 45.5966C30.0819 43.7822 29.9517 44.1906 29.822 45.4388C29.7564 45.3826 29.6765 45.448 29.6225 45.2704C29.6038 45.2098 29.6561 44.6855 29.6573 44.6285C29.6763 43.7349 29.5599 44.95 29.5416 44.9966C29.3476 45.4491 29.2815 44.5172 29.0632 45.4078C29.0554 45.4399 28.9571 46.6997 28.9811 45.7765C28.9829 45.7128 29.0746 45.143 29.0051 45.0935C28.9354 45.0439 28.8469 44.3585 28.7051 44.9354C28.6708 45.0743 28.5367 46.0932 28.544 45.2902C28.5451 45.1812 28.578 44.8202 28.5828 44.6184C28.5975 43.9752 28.4904 45.248 28.531 44.1631C28.5717 43.0783 28.554 42.2624 28.3993 43.0019C28.3946 43.0234 28.2989 44.0315 28.268 44.0132C28.2189 43.9833 28.1611 43.7677 28.1075 43.7706C28.0818 43.7723 28.0536 44.4004 28.0484 44.4116C27.8527 44.7508 27.7705 44.1832 27.6041 43.9276C27.5737 43.8795 27.4164 44.7277 27.399 44.0471C27.3798 43.302 27.6715 40.2289 27.4548 40.9507C27.3679 41.2393 27.0076 45.1388 27.0318 43.1069C26.7656 43.592 26.6243 42.5412 26.3423 43.2408C26.3296 43.2717 26.2196 44.3594 26.1962 44.3428C26.1616 44.3161 26.1777 43.8053 26.1541 43.7699C26.0562 43.6087 25.9258 44.0375 25.8257 43.9623C25.7876 43.9349 25.8388 43.4091 25.7933 43.3763C25.7478 43.344 25.6671 44.0354 25.6263 43.6958C25.5957 43.437 25.6474 42.0158 25.5947 41.846C25.4933 43.2443 25.4511 43.2124 25.3464 43.576C25.3262 43.6465 25.308 44.1344 25.2966 44.1929C25.2498 44.4417 25.2514 44.0364 25.2044 44.3075C25.193 44.3726 25.1589 44.8502 25.1477 44.9304C25.0512 45.6304 25.0502 44.5507 25.0502 44.3627C25.0497 43.6487 24.982 44.2682 24.9629 43.9857C24.9438 43.7033 25.0266 43.3577 24.9933 43.1848C24.924 42.827 24.7974 42.8956 24.7035 42.8669C24.6658 42.8584 24.6467 43.4977 24.6403 43.5113C24.5501 43.6674 24.5184 42.9837 24.3849 44.2505C24.5625 40.9632 24.3149 44.5656 24.2487 43.9003C24.2436 43.8465 24.3421 42.293 24.3923 42.0675C24.4425 41.8422 24.4598 42.3312 24.5322 41.9792C24.5493 41.8966 24.7163 40.4462 24.7313 40.3587C24.8485 39.6747 24.6941 41.9957 24.6887 42.1233C24.6325 43.5016 24.8216 41.9396 24.85 41.8328C24.9796 41.3432 25.0368 41.6752 25.1409 41.3266C25.2088 41.1013 25.3213 39.5818 25.3586 39.6312C25.4826 39.7945 25.3796 41.918 25.6366 40.0886C25.6915 39.6985 25.782 38.0354 25.7871 39.3485C25.7874 39.4313 25.7751 40.6313 25.8707 39.8785C25.8827 39.7835 25.9167 39.2994 25.9266 39.2592C25.9917 38.9995 25.9955 39.3873 26.0593 39.2062C26.123 39.0251 26.2034 38.754 26.2496 38.9223C26.2775 39.023 26.2584 39.9281 26.2594 40.1501C26.2615 40.7896 26.3858 39.7502 26.3604 40.5226C26.335 41.2989 26.1943 42.4706 26.236 42.9763C26.3279 41.7187 26.4258 40.4282 26.5199 39.1636C26.6854 39.2198 26.8234 39.6383 26.9971 39.5947C27.0187 39.5881 27.0451 38.9104 27.0695 38.8858C27.1723 38.7851 27.2212 39.273 27.3334 39.0881C27.4203 38.9423 27.5546 38.2323 27.6471 38.0575C27.5938 39.5002 27.7473 39.0201 27.8242 39.1577C27.8511 39.2053 27.8219 39.5895 27.8345 39.7165C27.8826 40.186 27.9347 38.9115 27.9711 38.7129C28.1268 37.8654 27.931 40.7447 28.0481 40.6815C28.0542 40.6792 28.2355 39.1498 28.2523 39.055C28.3599 38.4363 28.225 39.5898 28.2566 39.706C28.3146 39.9183 28.3384 40.2883 28.456 39.845C28.4903 39.7136 28.6179 38.7614 28.6138 39.5046C28.6133 39.6019 28.5738 40.1089 28.5768 40.139C28.6344 40.6407 28.7498 39.0471 28.841 38.5111C28.9322 37.9752 28.9358 39.0812 28.9299 39.3995C28.9152 40.2228 28.8718 39.7476 28.8637 39.828C28.7681 40.784 28.8393 40.6233 28.8791 40.7074C28.7748 42.2705 28.845 42.1813 28.9207 40.7884C28.9288 40.6362 28.8831 40.7795 28.8791 40.7074C29.0277 39.1771 29.1115 38.9857 29.0869 40.4239C29.0753 41.0979 28.9857 41.8785 29.1155 41.5998C29.1746 41.474 29.2317 40.3967 29.2966 40.1065C29.445 39.4444 29.5046 40.4573 29.6194 40.3065C29.6611 40.2518 29.6663 39.6602 29.6962 39.6025C29.7758 39.4475 29.8045 39.8937 29.8889 39.6722C29.8966 39.6514 29.9253 39.0338 29.9471 39.0274C30.113 38.9672 30.2261 39.3722 30.3943 39.3951C30.4756 39.4059 30.6454 39.0762 30.7248 39.1506C30.8625 39.2758 30.9784 40.1851 31.1195 39.9763C31.2111 39.8427 31.2371 39.2247 31.3019 38.8071C31.4274 37.9975 31.4429 39.4648 31.4428 39.6918C31.4428 39.6993 31.3623 39.8397 31.3772 40.1589C31.352 40.82 31.4418 39.6946 31.4428 39.6918C31.443 39.8385 31.5728 39.9884 31.6089 39.8725C31.6286 39.8092 31.6618 39.2243 31.6712 39.2024C31.8943 38.6927 32.0952 38.5578 32.2653 38.8445C32.2678 38.8566 32.2162 39.5097 32.2226 39.5299C32.3119 39.8283 32.4392 39.0338 32.5634 38.5656C32.6874 38.0976 32.7485 38.2617 32.7223 39.3875C32.8012 39.2511 32.8642 39.7541 32.8993 40.0591C32.9344 40.3641 33.0331 39.0926 33.0399 39.0678C33.2525 38.2739 33.2899 39.0085 33.4418 39.1332C33.5149 39.1948 33.6805 39.0212 33.7734 38.888C33.847 38.7806 33.8651 39.0816 33.939 38.8953C33.949 38.8704 33.9813 38.3034 33.9853 38.2818C34.1011 37.609 33.9696 38.9913 33.9658 39.2396C33.9517 40.1425 33.9484 40.6236 34.0645 40.2067C34.0913 40.1113 34.2916 38.1217 34.3363 38.0077C34.3944 37.8632 34.3252 38.5765 34.3873 38.407C34.3926 38.3931 34.4233 37.9522 34.4525 37.9738C34.5886 38.0685 34.7246 38.3361 34.8743 38.3024C34.8946 38.2995 34.9192 37.5984 34.9494 37.5827C35.0905 37.5095 35.2384 37.5461 35.3482 37.883C35.375 37.9681 35.3192 38.4563 35.3158 38.6022C35.2962 39.4849 35.4499 38.2113 35.4619 38.1877C35.7492 37.591 35.8494 38.7609 36.1387 38.2282C36.1546 38.1968 36.3574 36.8343 36.3188 38.0126C36.3163 38.091 36.2752 39.2965 36.375 38.4775C36.3812 38.4262 36.3974 37.8053 36.4425 37.8719C36.4876 37.9385 36.5972 37.5309 36.616 38.2158C36.6217 38.4316 36.5869 39.6345 36.721 38.6833C36.7301 38.6169 36.9868 36.4627 36.9146 37.9566C36.9027 38.2025 36.7824 39.7802 36.9183 38.9766C36.9444 38.8208 36.9431 38.4669 36.9979 38.2499C37.0819 37.9154 37.1301 38.3438 37.2538 37.6461C37.2756 37.5226 37.4073 36.4553 37.3916 37.2715C37.3891 37.3993 37.3381 37.9252 37.3566 37.9858C37.4444 38.2765 37.5869 37.9326 37.6715 38.3052C37.7016 38.4361 37.6196 39.2864 37.644 39.5176C37.6685 39.7488 37.7351 39.9743 37.8061 39.5881C37.8772 39.2019 37.9292 37.841 38.0012 37.7371C38.312 37.2854 38.5373 38.1024 38.8045 38.239C38.8443 38.2594 38.8456 37.7712 38.907 37.7664C39.1386 37.747 39.5563 37.3198 39.6777 38.3664C39.7746 39.2046 39.53 39.8193 39.6256 40.1646C39.6718 40.3293 39.8505 38.7558 39.8681 38.7072C40.0415 38.2126 40.084 38.9185 40.221 38.713C40.2494 38.6703 40.2718 38.0289 40.2957 37.9997C40.3784 37.8943 40.4353 38.1855 40.5098 38.1385C40.5434 38.116 40.5736 37.6271 40.6 37.6669C40.6634 37.7567 40.7095 37.9665 40.743 38.4294C40.746 38.4715 40.6596 39.0761 40.709 39.1025C40.7893 39.1435 40.8569 39.6027 40.9891 39.1435C41.0282 39.0053 41.1123 37.889 41.1165 38.6646C41.1174 38.8266 41.0013 40.1659 41.1588 39.0129C41.1851 38.8213 41.4211 37.2679 41.4043 38.2793C41.4 38.5455 41.3574 39.6454 41.4041 39.4755C41.4108 39.4484 41.4371 38.8473 41.4695 38.7909C41.5816 38.6025 41.6844 38.6745 41.8012 38.4944C41.8325 38.4451 41.838 37.8215 41.8832 37.7679C42.0078 37.6195 42.1356 37.788 42.2294 37.9903C42.2639 38.0661 42.1976 38.578 42.1963 38.6342C42.1743 39.5475 42.2962 38.3217 42.3172 38.2513C42.4485 37.8299 42.48 38.4124 42.5816 38.2666C42.6095 38.2279 42.6361 37.641 42.645 37.5892C42.7348 37.0829 42.6172 38.1316 42.6409 38.2499C42.7074 38.585 42.8091 38.5454 42.9086 38.4777C42.945 38.4519 42.9579 37.7701 42.99 37.7548C43.1814 37.6517 43.3623 37.7308 43.5074 38.1183C43.5356 38.1926 43.4745 38.7137 43.4724 38.8337C43.4569 39.6727 43.6142 38.5386 43.6387 38.4313C43.75 37.9414 43.7429 38.4058 43.8138 38.3245C44.156 37.9186 44.5241 38.255 44.8094 38.4676C45.1758 38.7411 45.4372 39.2621 45.8209 39.1628C45.8452 39.1572 45.877 38.46 45.8986 38.4462C46.1706 38.2993 46.4146 38.5925 46.691 38.4131C46.7145 38.3997 46.7366 37.7381 46.7761 37.6944C46.8575 37.6001 46.946 37.6435 47.0003 37.8599C47.0269 37.9641 46.9331 38.5257 46.9607 38.6191C46.9904 38.7207 47.0241 38.7868 47.0606 38.8185C47.1055 38.8554 47.1542 38.8465 47.205 38.7938C47.2455 38.7505 47.2469 38.072 47.2951 38.0682C47.6155 38.0278 47.9522 37.9398 48.201 38.8409C48.2183 38.9028 48.1135 40.2733 48.1868 40.0152C48.2242 39.6356 48.2638 39.1887 48.3015 38.7828C48.7946 38.6062 49.2276 39.1247 49.7121 39.2478C49.7323 39.2528 49.7703 38.5247 49.81 38.5308C50.0489 38.5659 50.2994 38.3895 50.4801 39.1386C50.4977 39.2119 50.3355 40.4828 50.4348 40.2992C50.4527 40.2657 50.5849 40.1092 50.6466 39.8366C50.6561 39.7955 50.7048 39.1991 50.7467 39.1866C50.98 39.1235 51.211 39.2906 51.4434 39.6961C51.4826 39.763 51.3333 40.3843 51.3592 40.4372C51.5452 40.8137 51.8548 40.3543 52.3532 41.0939C52.768 41.6379 52.2406 42.6247 52.0825 43.7427C52.069 43.822 52.1689 43.9198 52.2544 44.1071C52.3545 44.3004 52.4028 44.5906 52.1707 44.8063C50.9308 45.8055 49.881 47.2067 48.6157 48.3342C48.4774 48.4705 48.033 47.9633 47.8764 47.7844C47.7916 47.7005 47.7585 47.7299 47.6782 47.7766C47.608 47.8388 47.4373 47.8305 47.3613 48.1281C47.3377 48.1401 47.4825 48.5763 47.8247 49.0798C48.1619 49.5767 48.4323 49.9038 48.4749 50.1057C48.5509 50.3882 47.897 50.7544 48.1447 51.1961C48.3891 51.6254 48.8769 51.239 48.9723 51.6007C49.0725 51.9653 48.8119 52.65 49.0549 52.8071ZM33.0574 41.4224C33.0659 42.0371 33.2336 39.8001 33.1389 40.3314C33.1341 40.3597 33.0569 41.3923 33.0574 41.4224ZM26.7029 41.326C26.7015 42.3178 26.8511 40.8699 26.8567 40.1043C26.8623 39.3395 26.7032 41.0254 26.7029 41.326ZM25.943 41.9964C25.9679 42.7802 26.205 39.6081 26.074 40.2435C26.0665 40.2794 25.9415 41.9509 25.943 41.9964ZM51.2852 43.7928C51.2802 43.8221 51.3461 43.8672 51.3548 43.8391C51.5684 43.1575 51.4103 43.0614 51.2852 43.7928ZM25.184 42.7311C25.1786 43.1621 25.2854 42.6717 25.2922 42.1358C25.2976 41.7046 25.1907 42.195 25.184 42.7311ZM35.6146 44.0062C35.6131 44.0396 35.6414 44.0718 35.6543 43.8833C35.6961 43.2762 35.6413 43.4444 35.6146 44.0062ZM23.9855 42.683C24.1538 42.815 24.0756 45.4436 23.904 45.1343C23.8729 45.0783 24.0383 44.3037 24.0106 44.0643C23.9599 43.628 23.7895 45.2699 23.769 44.3822C23.7655 44.2197 23.9763 42.6697 23.986 42.6794C23.9858 42.6806 23.9857 42.6818 23.9855 42.683ZM32.8953 44.1121C32.8943 44.1418 32.9341 44.1728 32.9372 44.1435C33.0106 43.4348 32.9304 43.3719 32.8953 44.1121ZM37.2839 45.5177C37.2816 45.5809 37.3745 45.6469 37.3818 45.5891C37.517 44.4313 37.3295 44.2944 37.2839 45.5177ZM29.9525 45.5481C29.8558 46.2594 29.7949 46.3397 29.8221 45.4397C29.8644 45.4906 29.9098 45.5008 29.9525 45.5481Z" fill="#FFEE00"/>
<path d="M45.6757 13.6778C45.9694 13.6552 45.6576 13.6791 45.3501 13.6001C45.2499 13.5802 44.9641 13.3027 44.8818 13.2769C44.7205 13.2277 44.8212 13.4105 44.6338 13.3472C44.5693 13.326 44.1079 12.8963 44.0509 12.8838C43.7404 12.8207 43.7696 13.0366 43.5654 13.0739C42.5479 13.2708 41.8391 13.7788 41.0841 14.2681C40.8323 14.434 40.1671 14.3537 40.1863 14.7329C40.1884 14.7782 40.635 15.1046 40.6667 15.1379C41.1509 15.6502 40.2959 14.9324 40.1375 14.8937C39.5853 14.7652 39.3558 14.8912 39.3051 15.1604C39.2995 15.1962 39.2976 15.2346 39.2992 15.2751C39.3058 15.4163 40.2357 16.0098 39.6842 15.7143C39.6468 15.6946 39.202 15.3105 39.1345 15.2952C38.9824 15.2609 38.9851 15.4274 38.9154 15.4408C38.7795 15.4641 38.7708 15.4848 38.7088 15.553C38.6186 15.645 38.2931 15.5873 38.3098 15.7818C38.3147 15.8244 38.8135 16.1635 38.8641 16.2649C38.9143 16.3667 38.7953 16.436 38.6584 16.3808C38.5207 16.3264 38.1592 16.021 38.0692 15.9601C37.3108 15.4446 38.219 16.3404 38.232 16.3747C38.4362 16.9807 37.693 16.7596 37.4911 17.0218C37.3414 17.2188 37.3721 17.5671 37.1996 17.7355C36.9946 17.9316 36.5966 17.9121 36.4714 18.1644C36.4577 18.1905 37.0371 18.598 37.0215 18.6308C36.8618 18.9702 36.5699 19.2201 35.9693 19.2149C35.9084 19.2141 35.4469 18.7958 35.3567 18.7723C34.8168 18.6353 33.622 18.1746 35.6789 19.9354C35.5026 19.9904 35.3024 20.0704 34.7869 19.8456C34.455 19.701 33.9734 19.2178 34.1343 19.4815C34.1699 19.5405 34.658 19.8782 34.6761 19.9392C34.7501 20.1978 34.4973 20.2094 34.6454 20.5182C34.6767 20.5818 35.1016 20.9003 35.1718 20.9659C35.7386 21.4987 34.6509 20.8124 34.5607 20.7769C33.8861 20.5151 34.0084 20.8029 33.8798 20.9413C33.8495 20.9735 34.4453 21.3691 34.4364 21.4158C34.3825 21.6523 34.1931 21.7968 33.8083 21.7769C33.7218 21.7707 33.2684 21.364 33.2026 21.3419C32.9184 21.2489 33.8122 21.969 33.5569 21.8937C33.5042 21.8788 33.0999 21.5514 33.0525 21.5193C32.3077 21.0166 33.2814 21.8345 33.2943 21.8635C33.4809 22.2487 32.3569 21.5339 32.3914 21.7962C32.3966 21.8284 32.9479 22.1913 32.9306 22.2573C32.8245 22.6914 32.4099 22.9319 31.7455 22.9308C31.6428 22.9313 31.2792 22.5932 31.2286 22.5591C30.4355 22.028 31.4192 22.8416 31.4446 22.8874C31.6185 23.228 30.6781 22.695 31.8121 23.7129C30.9717 23.9379 31.2255 25.0055 29.7273 24.7181C29.7094 24.7154 29.2217 24.3189 29.1882 24.3152C28.7799 24.2668 29.5771 24.8323 30.4385 25.6711C30.6547 25.8818 29.4485 25.0844 29.3591 25.0273C29.0299 24.8163 28.3115 24.217 28.2448 24.18C27.718 23.893 30.1748 25.7698 30.0974 25.8718C30.0908 25.8718 29.6506 25.5108 29.5993 25.4847C29.4382 25.4026 29.597 25.567 29.4219 25.4733C29.0173 25.2557 27.8117 24.3589 28.4337 24.9841C28.5146 25.0649 29.9166 26.1188 29.7806 26.1593C29.7252 26.1747 29.6249 26.3538 29.501 26.3284C29.3768 26.3035 28.9529 25.9277 28.9311 25.916C28.2469 25.5794 28.0368 25.3447 27.1144 24.7291C26.1952 24.1161 28.2894 25.7053 28.5027 25.9091C28.7154 26.1124 28.159 25.8242 27.9725 25.7151C27.786 25.6058 27.5226 25.3593 27.4116 25.3046C26.6849 24.9486 28.4012 26.158 28.6989 26.4551C29.4042 27.1584 27.8004 26.0455 27.5783 26.0207C27.5183 26.014 27.8855 26.265 27.9013 26.3125C27.9603 26.4956 27.4385 26.1761 27.8041 26.6153C27.8637 26.6869 28.7303 27.4826 28.0093 27.009C27.9054 26.9405 27.5368 26.623 27.422 26.5936C27.25 26.5492 27.0889 26.5842 27.1714 26.7431C27.2325 26.8606 27.9054 27.2989 27.6657 27.2026C27.5587 27.1595 27.2231 26.8277 27.0531 26.7706C26.8834 26.713 26.808 26.8445 26.7868 26.8985C26.7657 26.9529 27.2653 27.2995 27.2949 27.328C27.4638 27.4928 27.63 27.7568 27.6236 27.7639C27.3896 28.1887 26.3044 27.9199 26.2881 28.4959C26.286 28.5408 26.8081 28.9123 26.813 28.9232C26.9486 29.1868 25.6609 28.0687 25.1557 27.7905C26.1927 28.5738 25.9746 28.4713 26.0331 28.6288C26.0622 28.7053 26.475 28.994 26.5134 29.0285C27.0798 29.5455 26.2709 28.978 26.104 28.8638C25.4899 28.4437 26.157 29.0159 25.7462 28.7356C25.3384 28.4575 24.8001 27.9591 24.7553 28.0327C25.109 28.3357 26.1106 29.0274 26.227 29.1991C26.6684 29.8471 25.6361 29.6242 25.4372 29.72C25.2391 29.8149 25.2676 29.9185 25.0652 29.9058C24.6992 29.8827 25.4595 30.3737 25.7086 30.7267C25.9575 31.08 24.2377 29.6764 23.8485 29.3998C23.4598 29.1231 23.8366 29.4383 23.6152 29.2961C23.3939 29.154 23.1666 28.9175 23.0565 28.8993C22.9464 28.8811 23.5301 29.5133 23.9138 29.8326C24.7267 30.509 25.6451 31.1342 25.2509 31.0073C25.2276 30.9996 24.7814 30.6227 24.7158 30.6112C24.21 30.5317 24.0332 30.7156 23.5698 30.6661C23.5054 30.6588 23.0094 30.2389 22.9661 30.2301C22.5131 30.1379 23.4245 30.7483 24.3196 31.5786C23.0531 30.5714 22.2312 30.0161 22.1291 30.133C22.0673 30.2029 22.6369 30.6215 22.9947 30.9731C23.1026 31.0791 22.678 30.8353 22.9339 31.0475C23.7706 31.7416 24.7716 32.4349 24.2909 32.2655C24.2684 32.257 23.8108 31.8765 23.7676 31.8736C23.486 31.853 24.3748 32.5611 24.3811 32.7785C24.3861 32.949 23.6935 32.7126 23.5121 32.7635C22.0728 31.651 22.3158 32.0182 23.2741 32.8294C23.1733 32.8762 23.1658 33.0021 22.9708 32.9712C22.9042 32.9608 22.4999 32.6226 22.4524 32.5911C21.7068 32.0961 22.6477 32.8742 22.6728 32.9201C22.9019 33.3847 22.0554 32.9681 22.638 33.6929C22.6591 33.7189 23.6526 34.4999 22.8859 33.9833C22.8332 33.9475 22.4218 33.5395 22.3237 33.5939C22.2252 33.6488 21.5713 33.3877 21.9483 33.8579C22.039 33.9712 22.7986 34.6661 22.1208 34.2326C22.0289 34.1736 21.748 33.9444 21.58 33.832C21.0443 33.4744 22.0418 34.2725 21.1508 33.6511C20.2599 33.0297 19.5511 32.6183 20.0563 33.1892C20.0708 33.2061 20.8521 33.8507 20.8118 33.8768C20.7467 33.918 20.5168 33.8709 20.4763 33.9343C20.4572 33.965 20.9693 34.3302 20.9746 34.3422C21.106 34.7488 20.5568 34.5436 20.2054 34.6013C20.14 34.6111 20.7356 35.2427 20.1422 34.9025C19.4925 34.5303 17.1106 32.5655 17.5513 33.1983C17.7271 33.4519 20.7571 35.9343 19.0469 34.8305C19.2459 35.396 18.2376 35.0038 18.6066 35.701C18.6229 35.7321 19.4603 36.4356 19.4274 36.4539C19.3768 36.4799 18.9549 36.1908 18.9058 36.1994C18.69 36.2276 18.9502 36.6059 18.8057 36.6822C18.7517 36.7119 18.3453 36.3741 18.2808 36.4095C18.2167 36.4451 18.7404 36.9049 18.4186 36.7723C18.1736 36.6709 17.0055 35.8583 16.8186 35.8295C17.9274 36.6874 17.8663 36.7195 18.0916 37.0335C18.1354 37.0943 18.5361 37.3737 18.5768 37.4178C18.7509 37.6039 18.4072 37.3874 18.6002 37.5854C18.6465 37.6331 19.0256 37.9255 19.0849 37.9809C19.6032 38.4635 18.6833 37.8931 18.5232 37.7936C17.9151 37.4161 18.388 37.8226 18.1322 37.6952C17.8764 37.5678 17.6489 37.2887 17.4748 37.2359C17.1146 37.1268 17.0712 37.31 16.9714 37.4036C16.9338 37.4428 17.4627 37.8035 17.4691 37.8181C17.5295 38.0054 16.922 37.6801 17.8931 38.5056C15.2376 36.5592 18.105 38.7537 17.4856 38.4782C17.4357 38.4556 16.1925 37.5189 16.0408 37.3412C15.8893 37.1637 16.3195 37.4026 16.078 37.1322C16.0215 37.0687 14.921 36.1071 14.8586 36.0434C14.3705 35.5453 16.2221 36.9532 16.3265 37.0271C17.4546 37.822 16.2769 36.7757 16.2088 36.6862C15.8962 36.2767 16.2248 36.3861 16.0116 36.0808C15.8744 35.8828 14.6714 34.9478 14.7434 34.9307C14.982 34.8734 16.7069 36.1171 15.3562 34.8505C15.0682 34.5802 13.7253 33.5947 14.8471 34.2841C14.9179 34.3276 15.9295 34.9772 15.3654 34.4679C15.2942 34.4037 14.9095 34.1078 14.8832 34.0752C14.7144 33.8621 15.0476 34.0631 14.9447 33.8932C14.8417 33.7234 14.6756 33.4866 14.856 33.5221C14.9641 33.5431 15.7193 34.0445 15.9091 34.1608C16.4551 34.497 15.6702 33.8025 16.3073 34.2409C16.9477 34.6813 17.8321 35.4648 18.2961 35.6842C17.2993 34.9119 16.2795 34.115 15.2786 33.3364C15.4596 33.1741 15.9264 33.236 16.0291 33.0114C16.0408 32.9828 15.485 32.5934 15.4837 32.5521C15.4806 32.3796 15.9353 32.5811 15.868 32.3531C15.8138 32.1751 15.3173 31.6434 15.2429 31.4437C16.428 32.2695 16.1427 31.8372 16.3216 31.821C16.3838 31.8149 16.6874 32.0522 16.8055 32.1048C17.2439 32.2976 16.2008 31.5624 16.061 31.4151C15.4647 30.7858 17.7585 32.5372 17.7989 32.3679C17.8018 32.3595 16.6455 31.3396 16.5783 31.27C16.1381 30.8177 17.0116 31.5848 17.136 31.6096C17.3632 31.6549 17.6978 31.8226 17.4142 31.4523C17.33 31.3429 16.622 30.6909 17.2514 31.089C17.3338 31.1411 17.7337 31.4553 17.7617 31.4677C18.2351 31.6666 16.9712 30.6891 16.5882 30.2996C16.2053 29.9102 17.1498 30.4914 17.416 30.6667C18.1051 31.1196 17.6657 30.9185 17.7276 30.9704C18.4646 31.5873 18.385 31.4196 18.4886 31.4181C19.7356 32.3664 19.716 32.2377 18.591 31.4126C18.468 31.3226 18.5532 31.4515 18.4886 31.4181C17.3053 30.4355 17.2097 30.237 18.4143 31.0268C18.9789 31.3971 19.5713 31.9142 19.4385 31.6161C19.3787 31.4813 18.5074 30.8447 18.3123 30.6161C17.8679 30.0935 18.7782 30.5605 18.7422 30.3475C18.7291 30.2701 18.2296 29.951 18.2045 29.8857C18.1365 29.7114 18.5395 29.9142 18.4188 29.699C18.4073 29.6791 17.9045 29.3189 17.9166 29.2903C17.9991 29.0656 18.4337 29.1501 18.5888 28.9667C18.6633 28.8781 18.5192 28.5066 18.6463 28.4538C18.8641 28.3598 19.7301 28.7084 19.6661 28.4336C19.6261 28.2566 19.1208 27.8995 18.8173 27.6031C18.2289 27.0291 19.4907 27.7877 19.684 27.9079C19.6903 27.9119 19.7451 28.0795 20.0289 28.2312C20.5715 28.6103 19.6855 27.9105 19.684 27.9079C19.809 27.9853 20.0411 27.9139 19.9715 27.8107C19.9333 27.7544 19.462 27.4064 19.4509 27.3838C19.1966 26.855 19.242 26.5522 19.6233 26.506C19.6355 26.5095 20.1502 26.915 20.1725 26.9181C20.4984 26.9724 19.9243 26.4044 19.6256 26.0124C19.3271 25.6206 19.515 25.6377 20.4523 26.264C20.3996 26.1004 20.8787 26.2933 21.1667 26.4139C21.4546 26.5345 20.4512 25.7472 20.4356 25.7263C19.9306 25.0595 20.5862 25.4047 20.8147 25.2943C20.9246 25.2438 20.9102 24.9594 20.8715 24.7812C20.8393 24.6389 21.1102 24.7771 21.011 24.5927C20.9979 24.568 20.541 24.2305 20.5258 24.2144C20.046 23.7241 21.1174 24.6079 21.3258 24.7437C22.0834 25.2376 22.4906 25.4959 22.229 25.1405C22.1692 25.059 20.6361 23.774 20.5747 23.6621C20.4978 23.519 21.0499 23.9763 20.9549 23.8153C20.9473 23.8019 20.5963 23.5332 20.6382 23.5108C20.8283 23.4028 21.1657 23.3865 21.2575 23.1948C21.2714 23.1697 20.694 22.7704 20.7049 22.727C20.7571 22.5233 20.9041 22.3752 21.2802 22.4248C21.3743 22.4386 21.7452 22.7615 21.8668 22.8425C22.603 23.332 21.6418 22.4801 21.6313 22.4538C21.3548 21.804 22.4306 22.3079 22.2091 21.6912C22.1951 21.6562 21.1976 20.7004 22.1704 21.3681C22.2353 21.4124 23.2292 22.0973 22.6117 21.5485C22.5731 21.5142 22.0571 21.1671 22.1503 21.1499C22.2433 21.1327 21.9844 20.7899 22.583 21.1301C22.7717 21.2372 23.7676 21.9146 23.0643 21.2572C23.0145 21.2122 21.3859 19.7754 22.6006 20.6487C22.8005 20.7926 24.0479 21.7661 23.4727 21.1836C23.361 21.0709 23.0583 20.8854 22.9176 20.707C22.7004 20.4326 23.1042 20.603 22.6094 20.0905C22.5216 19.9999 21.7184 19.283 22.4012 19.7324C22.5081 19.8028 22.9151 20.14 22.9817 20.1505C23.3004 20.2016 23.1186 19.859 23.5052 19.9563C23.6411 19.9904 24.2996 20.5349 24.5164 20.6286C24.7331 20.7222 24.9789 20.764 24.7072 20.4774C24.4353 20.1907 23.3175 19.4114 23.2869 19.2728C23.1524 18.673 24.0268 18.847 24.3598 18.6071C24.4093 18.5716 23.9943 18.3121 24.0395 18.2385C24.203 17.9676 24.1831 17.2466 25.1678 17.6649C25.9579 17.9981 26.2877 18.6032 26.6578 18.6759C26.8356 18.709 25.6382 17.6707 25.611 17.6246C25.3292 17.1617 25.9656 17.4847 25.901 17.2167C25.8874 17.1612 25.3588 16.7965 25.3529 16.7536C25.3286 16.6032 25.6196 16.6949 25.6406 16.5821C25.6485 16.5312 25.2559 16.238 25.3112 16.2284C25.4389 16.2019 25.6552 16.2588 26.077 16.4639C26.1154 16.4826 26.5613 16.9021 26.6237 16.8585C26.7234 16.7867 27.1706 16.949 26.8827 16.5568C26.7958 16.4391 25.911 15.7533 26.5753 16.1581C26.7143 16.2425 27.763 17.0838 26.9067 16.2924C26.7646 16.1607 25.6302 15.0668 26.4795 15.6195C26.703 15.7648 27.607 16.3941 27.4998 16.2502C27.482 16.2281 26.9906 15.8806 26.9687 15.8131C26.8999 15.5814 27.0396 15.5058 26.9793 15.2761C26.9627 15.2135 26.435 14.8786 26.4258 14.7976C26.4 14.5742 26.6471 14.5139 26.8957 14.5111C26.9883 14.5108 27.3715 14.8577 27.4184 14.8888C28.1803 15.3951 27.231 14.6096 27.1878 14.5482C26.9313 14.1772 27.4535 14.4478 27.4115 14.2521C27.4011 14.1991 26.9217 13.8592 26.8846 13.8215C26.5252 13.4502 27.3251 14.1395 27.4453 14.1742C27.7848 14.2735 27.8354 14.1313 27.8552 13.9834C27.8618 13.9285 27.2912 13.5532 27.3033 13.5088C27.3628 13.2407 27.5827 13.0637 28.0291 13.1008C28.1143 13.1083 28.5105 13.4529 28.611 13.5187C29.3136 13.98 28.4705 13.2025 28.3981 13.1181C28.068 12.7329 28.4604 12.9836 28.4481 12.8584C28.3802 12.2434 28.9627 11.9946 29.3654 11.7862C29.8981 11.4995 30.5525 11.4712 30.7673 10.9857C30.7815 10.9552 30.2112 10.5523 30.2169 10.5198C30.3176 10.1177 30.7508 10.0061 30.8238 9.58628C30.8304 9.55305 30.283 9.17961 30.2761 9.11259C30.2582 8.97229 30.3628 8.89715 30.5942 8.94424C30.7053 8.96735 31.1101 9.37065 31.2128 9.38683C31.4529 9.42539 31.5666 9.3568 31.5555 9.19934C31.5496 9.13146 30.9714 8.77276 31.0052 8.7171C31.0155 8.69888 31.0257 8.68067 31.0358 8.66252C31.2548 8.27671 31.4605 7.90807 32.3863 8.08282C32.4532 8.09516 33.5484 8.92595 33.3829 8.71034C33.0869 8.46971 32.7349 8.19148 32.4166 7.93675C32.6538 7.2833 33.4367 7.06462 33.9145 6.58921C33.9348 6.56866 33.336 6.15112 33.3737 6.10763C33.5863 5.8612 33.6277 5.49003 34.4029 5.68654C34.4778 5.70687 35.4579 6.53203 35.3719 6.33159C35.3565 6.29468 35.3178 6.07316 35.1284 5.86601C35.0997 5.83492 34.6207 5.47571 34.6402 5.42499C34.7524 5.14762 35.061 4.99205 35.5532 4.98266C35.6327 4.98286 36.0756 5.44396 36.1377 5.44622C36.5751 5.46278 36.3868 4.93113 37.1948 4.95019C37.7941 4.92659 38.4202 5.84473 39.3129 6.52255C39.3792 6.57046 39.4897 6.5365 39.7335 6.52416C39.8806 6.50796 40.0228 6.51327 40.2712 6.54834C40.4926 6.58989 40.709 6.71279 40.7407 6.87325C40.8347 7.66951 40.5337 8.50023 40.8077 9.33014C40.9943 10.1613 41.5616 10.9075 41.3504 11.8193C41.3093 11.8972 41.0088 12.1083 39.9866 11.9813C39.5454 11.9273 38.8466 11.6549 38.4294 11.3437C37.9828 11.0272 37.7296 10.7191 37.5867 10.5511C37.3012 10.1922 37.3089 10.2531 37.2201 10.2939C37.1815 10.3196 37.1247 10.3378 37.0722 10.3951C37.0311 10.4627 36.9484 10.5419 37.1406 10.9881C37.1867 11.0416 37.2857 11.3679 38.0956 12.0123C38.8794 12.7093 40.6917 13.0477 41.4152 12.9105C43.0148 12.6776 43.097 12.5498 43.3745 12.6064C43.6551 12.6695 43.7191 13.3973 44.1802 13.4051C44.6303 13.4103 44.4249 12.8731 44.7285 13.0187C45.0303 13.1685 45.5143 13.715 45.6757 13.6778ZM22.4549 26.9515C22.9852 27.2668 21.2151 25.8888 21.5913 26.2798C21.6116 26.3004 22.4288 26.9362 22.4549 26.9515ZM17.2664 34.2692C18.1096 34.7959 16.9972 33.8559 16.35 33.4439C15.7035 33.0325 17.0107 34.1097 17.2664 34.2692ZM17.2265 35.5053C17.9137 35.8914 15.404 33.9369 15.8395 34.4253C15.864 34.453 17.1865 35.4829 17.2265 35.5053ZM39.0031 7.21808C39.0254 7.23771 39.1004 7.20158 39.0828 7.1776C38.606 6.64571 38.4397 6.73521 39.0031 7.21808ZM17.2419 36.7745C17.6044 37.009 17.2728 36.6254 16.8221 36.3338C16.4594 36.0992 16.7909 36.4829 17.2419 36.7745ZM26.7094 25.3544C26.7366 25.3739 26.7869 25.358 26.6367 25.2433C26.1531 24.8739 26.2523 25.0265 26.7094 25.3544ZM16.2378 38.139C16.4854 38.0136 18.6601 39.4962 18.2589 39.5313C18.1863 39.5377 17.6598 38.9359 17.4338 38.8412C17.0216 38.669 18.2824 39.7359 17.5103 39.2896C17.3691 39.2078 16.219 38.1426 16.2352 38.1364C16.236 38.1373 16.2369 38.1381 16.2378 38.139ZM24.6151 28.5625C24.6395 28.5794 24.698 28.5496 24.6755 28.5305C24.1311 28.0704 24.0129 28.1302 24.6151 28.5625ZM29.3394 24.2168C29.3914 24.2528 29.5226 24.1796 29.4793 24.1405C28.6016 23.3717 28.3335 23.5176 29.3394 24.2168ZM23.4722 32.7358C24.0002 33.2244 24.0195 33.3375 23.2751 32.8297C23.3524 32.8076 23.3976 32.7603 23.4722 32.7358Z" fill="#FFEE00"/>
<path d="M17.293 0.342978C17.4927 0.495407 17.2896 0.708098 17.0073 0.873286C16.9198 0.92503 16.5217 0.911089 16.4434 0.947303C16.2907 1.01812 16.4873 1.0747 16.3051 1.14555C16.2427 1.16909 15.6125 1.15941 15.5615 1.18369C15.2868 1.3166 15.4504 1.4306 15.3201 1.56115C14.6772 2.20418 14.4579 2.82484 14.1886 3.46517C14.1004 3.67629 13.5361 3.94559 13.7919 4.15404C13.8223 4.17836 14.3745 4.14806 14.4201 4.15158C15.1194 4.20729 14.0032 4.21325 13.8564 4.26635C13.2766 4.47699 13.2317 4.6946 13.4502 4.8758C13.5447 4.95285 14.64 4.84262 14.0262 4.93984C13.9847 4.94656 13.3974 4.94263 13.3354 4.96619C13.196 5.0196 13.3035 5.11062 13.2581 5.15028C13.1676 5.22679 13.1738 5.23886 13.1691 5.30899C13.1575 5.405 12.869 5.5268 13.0048 5.62571C13.0355 5.64677 13.6362 5.60111 13.7395 5.6332C13.8427 5.66532 13.7942 5.7592 13.6533 5.7943C13.5123 5.82942 13.0392 5.82924 12.9309 5.83776C12.0176 5.9085 13.2873 5.98036 13.319 5.99325C13.8597 6.22939 13.1441 6.46456 13.1527 6.70004C13.1607 6.87877 13.4043 7.06337 13.3763 7.23441C13.3407 7.43825 13.0195 7.61908 13.081 7.81445C13.0868 7.83508 13.7933 7.79113 13.8018 7.8163C13.8916 8.08369 13.8219 8.35363 13.3519 8.63537C13.3042 8.66364 12.6823 8.64614 12.5974 8.67541C12.0917 8.85427 10.8731 9.14887 13.5793 9.17178C13.4768 9.28628 13.3715 9.42475 12.8293 9.53967C12.4803 9.61375 11.8022 9.56999 12.093 9.64105C12.1578 9.65709 12.7495 9.6175 12.8019 9.6428C13.0219 9.74937 12.8328 9.87771 13.1419 9.9806C13.2062 10.0015 13.7368 9.9806 13.8326 9.98437C14.6082 10.0169 13.331 10.1421 13.2386 10.1643C12.5493 10.3326 12.8252 10.4339 12.8121 10.5732C12.8088 10.6056 13.5207 10.5477 13.5431 10.5781C13.6498 10.7361 13.5931 10.9044 13.2811 11.0707C13.21 11.1077 12.6018 11.0923 12.5367 11.1109C12.2572 11.1925 13.4048 11.177 13.1589 11.2547C13.1085 11.271 12.5884 11.277 12.5314 11.2813C11.6362 11.3488 12.9073 11.3506 12.9356 11.3608C13.3226 11.4888 11.9992 11.6141 12.1906 11.7429C12.2149 11.7582 12.8717 11.7039 12.8996 11.7481C13.0896 12.0431 12.9176 12.3654 12.3997 12.677C12.32 12.7254 11.8249 12.7061 11.7641 12.7107C10.8135 12.7845 12.0898 12.7798 12.1382 12.7935C12.4873 12.9027 11.4207 13.0433 12.9421 13.0819C12.4289 13.5995 13.2958 14.0766 11.9487 14.6131C11.9331 14.6199 11.3046 14.626 11.2762 14.6394C10.9278 14.8015 11.9032 14.7452 13.1 14.813C13.4005 14.83 11.9611 14.9472 11.8556 14.957C11.4669 14.9927 10.5317 14.9928 10.4565 15.0032C9.8663 15.0886 12.9565 14.9917 12.9601 15.0848C12.955 15.0879 12.3858 15.0914 12.3295 15.1008C12.1526 15.13 12.3793 15.1478 12.1841 15.177C11.7325 15.2439 10.2314 15.3049 11.1076 15.3637C11.2214 15.371 12.974 15.3064 12.8935 15.3918C12.8599 15.4259 12.894 15.5718 12.7815 15.616C12.6692 15.6602 12.1035 15.6477 12.0791 15.6513C11.3352 15.7826 11.0244 15.7492 9.92 15.8353C8.81976 15.9213 11.4472 15.8331 11.7411 15.8475C12.0342 15.8621 11.4201 15.9603 11.2064 15.9861C10.9926 16.012 10.6329 15.9971 10.5121 16.0182C9.72289 16.1576 11.8179 16.0336 12.2361 16.0607C13.2262 16.1246 11.2793 16.2497 11.0907 16.3385C11.0397 16.3625 11.4831 16.3318 11.5252 16.3508C11.6859 16.4261 11.0791 16.4909 11.6392 16.5661C11.7305 16.5784 12.9042 16.6193 12.0456 16.6905C11.9218 16.7007 11.4357 16.6951 11.3278 16.732C11.166 16.7873 11.0624 16.8817 11.2262 16.9317C11.3474 16.9687 12.1464 16.9004 11.8992 16.9579C11.7888 16.9835 11.3195 16.9548 11.1512 17.0018C10.9829 17.0486 11.0065 17.1557 11.0238 17.1962C11.0414 17.2366 11.6478 17.1974 11.6888 17.1996C11.9236 17.2131 12.2185 17.2835 12.218 17.2904C12.3017 17.6382 11.2875 17.9891 11.6356 18.3203C11.662 18.3463 12.3016 18.3107 12.3123 18.3145C12.583 18.3986 10.8791 18.3736 10.3113 18.4533C11.61 18.4081 11.3758 18.4523 11.52 18.5128C11.5906 18.5419 12.0931 18.5111 12.1447 18.5125C12.9099 18.5374 11.924 18.5968 11.7224 18.6107C10.9807 18.6617 11.859 18.6706 11.3633 18.7051C10.8712 18.7395 10.1396 18.712 10.1507 18.7736C10.6162 18.778 11.83 18.6985 12.0282 18.7399C12.7781 18.8964 11.8338 19.2533 11.7388 19.3984C11.6437 19.5432 11.7308 19.5868 11.565 19.6742C11.2654 19.8322 12.1654 19.7524 12.5806 19.8338C12.9958 19.9155 10.7763 19.9317 10.2999 19.9583C9.82358 19.9847 10.3146 19.9854 10.0531 20.009C9.79155 20.0326 9.46635 20.0063 9.36904 20.0473C9.27184 20.0884 10.1227 20.1697 10.6217 20.1695C11.6788 20.169 12.7862 20.091 12.3994 20.2033C12.3765 20.2097 11.7927 20.207 11.7343 20.2309C11.2902 20.4208 11.2675 20.606 10.8753 20.7942C10.8204 20.8201 10.171 20.8163 10.1317 20.8316C9.72079 20.9908 10.8134 20.9077 12.031 20.955C10.4131 20.9817 9.42481 21.0538 9.41837 21.1662C9.41393 21.2338 10.12 21.2026 10.6191 21.2324C10.7695 21.2413 10.2858 21.3025 10.6183 21.3019C11.705 21.3003 12.9194 21.2217 12.4385 21.3507C12.4157 21.3564 11.8208 21.3568 11.7853 21.3753C11.5528 21.4951 12.6891 21.4772 12.83 21.5958C12.9406 21.6888 12.2527 21.8787 12.1431 21.9911C10.3246 22.0392 10.7438 22.1309 11.9988 22.138C11.9494 22.2103 12.0224 22.285 11.851 22.3583C11.7926 22.3836 11.2657 22.3827 11.2089 22.3872C10.3177 22.4576 11.5384 22.4546 11.5866 22.4686C12.0561 22.6216 11.1353 22.7824 12.0432 22.9157C12.0759 22.9204 13.3393 22.8945 12.4182 22.9624C12.3547 22.9669 11.7785 22.9306 11.7362 23.0063C11.6937 23.082 11.0204 23.2412 11.6086 23.3284C11.7502 23.3496 12.7774 23.3845 11.9776 23.4575C11.869 23.4673 11.5065 23.4699 11.3052 23.4852C10.6638 23.5346 11.9409 23.5165 10.8573 23.5837C9.77378 23.6509 8.96365 23.7506 9.71486 23.8342C9.73671 23.8369 10.7493 23.8335 10.7342 23.8668C10.7093 23.9199 10.5005 24.0001 10.5086 24.0545C10.5129 24.0806 11.1408 24.0465 11.1524 24.0507C11.5094 24.2169 10.9527 24.3577 10.7148 24.553C10.6699 24.5889 11.5295 24.6645 10.8539 24.7502C10.1144 24.8442 7.02749 24.8542 7.76712 25.0027C8.06296 25.0627 11.979 25.0405 9.95473 25.2191C10.4638 25.4426 9.43208 25.6909 10.1561 25.9091C10.1882 25.919 11.2814 25.9225 11.2672 25.9481C11.2441 25.9862 10.7341 26.0208 10.7013 26.0484C10.5506 26.1645 10.9902 26.2547 10.9252 26.3644C10.9017 26.406 10.3734 26.4063 10.3453 26.456C10.3176 26.5055 11.0136 26.5188 10.6797 26.5942C10.4252 26.6512 9.00587 26.7405 8.8421 26.8114C10.2436 26.7751 10.216 26.8214 10.5882 26.892C10.6604 26.9056 11.1477 26.8754 11.207 26.8811C11.4592 26.9041 11.0557 26.943 11.3302 26.9638C11.3961 26.9689 11.8747 26.956 11.9556 26.9594C12.6618 26.988 11.5874 27.097 11.4003 27.1158C10.6899 27.1876 11.3131 27.1948 11.0338 27.2425C10.7546 27.2902 10.4026 27.2402 10.2338 27.2916C9.88466 27.398 9.9654 27.52 9.94613 27.6188C9.94139 27.6581 10.5795 27.6137 10.5937 27.6189C10.7579 27.6954 10.0806 27.7962 11.3544 27.8058C8.06568 27.9531 11.6749 27.8458 11.0195 27.9798C10.9664 27.9904 9.4108 28.0451 9.1814 28.0165C8.95221 27.9878 9.43711 27.9212 9.07969 27.8825C8.9958 27.8733 7.53594 27.8478 7.44737 27.8413C6.75516 27.79 9.08006 27.7156 9.20766 27.7083C10.5847 27.6278 9.01171 27.5908 8.90258 27.5726C8.40257 27.4894 8.72728 27.3979 8.37005 27.3266C8.13915 27.2799 6.61593 27.3169 6.6614 27.274C6.81165 27.1312 8.93501 27.024 7.08914 26.9445C6.69545 26.9274 5.03154 27.0013 6.33774 26.8648C6.42009 26.8562 7.61551 26.7485 6.85688 26.7265C6.76123 26.7237 6.27609 26.7374 6.23513 26.7314C5.97019 26.6909 6.3558 26.6484 6.16925 26.6015C5.9827 26.5546 5.70501 26.4997 5.86792 26.4357C5.96532 26.3972 6.86795 26.3262 7.08876 26.303C7.72492 26.2369 6.67826 26.214 7.44939 26.1626C8.22441 26.1109 9.40431 26.1374 9.90341 26.0442C8.64288 26.0762 7.34897 26.1053 6.08125 26.1357C6.12081 25.9608 6.52365 25.7786 6.46314 25.6059C6.45437 25.5845 5.77737 25.6254 5.7505 25.6029C5.64015 25.5082 6.12083 25.4094 5.92566 25.3134C5.77199 25.2392 5.05215 25.173 4.86912 25.096C6.31004 25.006 5.81704 24.8978 5.94639 24.8057C5.99108 24.7735 6.37634 24.7649 6.50141 24.7394C6.96389 24.6434 5.69041 24.7177 5.4892 24.7004C4.63044 24.6264 7.51509 24.5381 7.44062 24.4248C7.43765 24.4188 5.89782 24.3868 5.80177 24.3792C5.17552 24.3312 6.33671 24.3535 6.44919 24.3095C6.65476 24.2291 7.02057 24.1671 6.56773 24.092C6.43361 24.0702 5.47344 24.0355 6.21344 23.9654C6.31034 23.9562 6.81872 23.9457 6.84834 23.9396C7.3419 23.8308 5.74472 23.8726 5.20231 23.8333C4.66003 23.794 5.76021 23.6795 6.07749 23.6537C6.89827 23.5862 6.42974 23.6781 6.51047 23.6783C7.47124 23.6801 7.30426 23.6235 7.38409 23.5745C8.94988 23.5244 8.85407 23.4616 7.46053 23.5239C7.30832 23.5308 7.45537 23.5632 7.38409 23.5745C5.84651 23.5761 5.64774 23.5097 7.08133 23.3906C7.75323 23.3348 8.53881 23.3481 8.24865 23.2433C8.11766 23.1956 7.03995 23.2453 6.74473 23.2083C6.07114 23.1236 7.07326 22.9616 6.91183 22.8595C6.85322 22.8225 6.26403 22.8765 6.20364 22.8517C6.04153 22.7861 6.48267 22.712 6.25386 22.648C6.23238 22.6422 5.61496 22.6749 5.60648 22.6532C5.53013 22.4893 5.92187 22.3339 5.92804 22.1604C5.93074 22.0766 5.58583 21.9364 5.65194 21.8478C5.76287 21.6944 6.6562 21.4847 6.43438 21.3624C6.29236 21.2825 5.67488 21.318 5.25284 21.2938C4.43474 21.2472 5.8933 21.0842 6.11923 21.0614C6.1267 21.0607 6.27438 21.1287 6.59054 21.0815C7.25091 21.0408 6.12211 21.0621 6.11923 21.0614C6.26517 21.0465 6.40146 20.8987 6.28254 20.8734C6.21755 20.8597 5.63229 20.8846 5.60947 20.8771C5.08017 20.6992 4.92602 20.5106 5.19438 20.3079C5.20611 20.3041 5.86117 20.2911 5.88058 20.2825C6.16864 20.1614 5.36547 20.1113 4.88722 20.0313C4.40918 19.9513 4.56638 19.873 5.68916 19.7867C5.54565 19.7203 6.03991 19.6057 6.3399 19.5393C6.63989 19.4729 5.36482 19.5001 5.33947 19.4957C4.5284 19.3588 5.25555 19.2465 5.36454 19.0781C5.41854 18.998 5.2293 18.8473 5.08754 18.7661C4.97337 18.702 5.27101 18.6532 5.07826 18.5966C5.05252 18.5889 4.48512 18.6131 4.4632 18.6112C3.78215 18.5609 5.17073 18.5556 5.41816 18.5345C6.31798 18.4578 6.79709 18.4125 6.37066 18.3357C6.273 18.318 4.27332 18.3139 4.15544 18.2799C4.00585 18.2356 4.72253 18.234 4.54764 18.1882C4.53333 18.1842 4.09153 18.1974 4.11014 18.1656C4.19074 18.018 4.44344 17.8526 4.39499 17.703C4.39006 17.6825 3.68999 17.7284 3.67134 17.6991C3.58439 17.5617 3.60609 17.4078 3.93034 17.2626C4.01236 17.2268 4.50363 17.2343 4.64912 17.2229C5.52943 17.1539 4.24681 17.126 4.22211 17.1163C3.59968 16.8841 4.75357 16.6613 4.19465 16.4226C4.16186 16.4097 2.7858 16.3413 3.96212 16.2612C4.04038 16.2558 5.24392 16.1754 4.41899 16.1567C4.36739 16.1555 3.74792 16.202 3.80973 16.1492C3.87139 16.0963 3.4549 16.0256 4.13447 15.9365C4.34854 15.9083 5.54895 15.8225 4.58906 15.7827C4.52206 15.7802 2.35292 15.7379 3.84654 15.6599C4.09241 15.6472 5.67425 15.6096 4.86112 15.5529C4.70348 15.5421 4.35145 15.5794 4.13005 15.5456C3.78883 15.494 4.21021 15.4014 3.50355 15.3459C3.37845 15.3363 2.30336 15.3103 3.11695 15.243C3.24437 15.2325 3.77278 15.2312 3.83122 15.2059C4.11157 15.0859 3.7551 14.9782 4.11729 14.8541C4.24455 14.8102 5.09876 14.8072 5.32636 14.7588C5.55387 14.7104 5.77151 14.6195 5.38019 14.5863C4.98871 14.5531 3.62954 14.6389 3.51885 14.576C3.03807 14.3023 3.82831 13.9962 3.93712 13.7066C3.95338 13.6636 3.46753 13.7123 3.45655 13.65C3.41394 13.4203 2.94645 13.0346 3.97535 12.8057C4.79945 12.6223 5.43582 12.8067 5.76959 12.6748C5.92879 12.6112 4.34529 12.591 4.2951 12.5781C3.7854 12.4526 4.48338 12.3363 4.26493 12.2167C4.21961 12.192 3.57922 12.2352 3.54773 12.214C3.43446 12.1417 3.71842 12.0545 3.66408 11.984C3.63823 11.9524 3.14875 11.9719 3.18572 11.9411C3.26853 11.8676 3.47261 11.799 3.92961 11.7169C3.97125 11.7094 4.58153 11.7352 4.60273 11.6819C4.6353 11.5958 5.08509 11.4775 4.61485 11.3924C4.47341 11.3673 3.35431 11.3971 4.12541 11.3132C4.28646 11.2956 5.63067 11.2751 4.4676 11.2345C4.27432 11.2276 2.70488 11.1486 3.71268 11.0606C3.97792 11.0374 5.0764 10.9666 4.90262 10.9364C4.87492 10.9324 4.27435 10.9681 4.21492 10.9407C4.01592 10.844 4.07708 10.7352 3.88591 10.6355C3.83367 10.6089 3.21282 10.6679 3.15482 10.6277C2.99442 10.5172 3.14882 10.3695 3.3404 10.2518C3.41221 10.2084 3.92826 10.2227 3.98425 10.2181C4.89493 10.1444 3.66311 10.1499 3.59088 10.1358C3.1583 10.0477 3.73445 9.95556 3.57887 9.86763C3.5375 9.84332 2.95103 9.87762 2.89856 9.87401C2.38572 9.83567 3.44092 9.84558 3.55619 9.80912C3.88262 9.70689 3.83257 9.60439 3.75495 9.51231C3.72558 9.47851 3.04606 9.53624 3.02756 9.50569C2.90519 9.32522 2.96503 9.13242 3.33527 8.94273C3.40621 8.90697 3.93088 8.91369 4.05039 8.90334C4.88651 8.83164 3.74223 8.79222 3.63296 8.77888C3.13406 8.71829 3.59672 8.67656 3.5084 8.61329C3.06881 8.30443 3.36479 7.89984 3.54603 7.59177C3.77916 7.19041 4.26924 6.8704 4.12935 6.49771C4.12112 6.474 3.42459 6.51744 3.40854 6.49725C3.2331 6.23574 3.49827 5.96615 3.28951 5.70503C3.27361 5.68357 2.61354 5.73343 2.56581 5.6996C2.46328 5.63033 2.49668 5.53806 2.7057 5.45937C2.8064 5.42102 3.37486 5.45296 3.46464 5.41468C3.67496 5.3255 3.71956 5.23493 3.61123 5.15232C3.56369 5.11721 2.88924 5.19087 2.88013 5.14376C2.80413 4.82331 2.67894 4.50999 3.54527 4.16002C3.60477 4.13602 4.97808 4.07836 4.7133 4.03818C4.33192 4.04517 3.88342 4.0578 3.47585 4.06753C3.24331 3.60441 3.70671 3.12679 3.76731 2.65423C3.76971 2.63431 3.04273 2.68876 3.04366 2.6503C3.04826 2.42771 2.84062 2.21743 3.55785 1.97C3.62798 1.94548 4.90892 1.92157 4.7134 1.86045C4.67773 1.8497 4.50417 1.7543 4.22545 1.73611C4.18342 1.73376 3.58619 1.76859 3.56787 1.73681C3.47191 1.55181 3.60293 1.35153 3.96296 1.15422C4.02221 1.12234 4.65964 1.13688 4.70737 1.11402C5.04104 0.952024 4.55255 0.799411 5.12646 0.637547C5.5129 0.529138 6.61422 0.53479 7.69587 0.4529C7.84847 0.441328 7.87101 0.380204 8.50108 0.359615C10.0855 0.307678 11.8214 0.288877 13.5101 0.230057C13.8738 0.217437 13.4797 0.147333 14.3602 0.170906C14.4191 0.172624 14.7125 0.223236 15.0112 0.229429C15.2177 0.233781 15.858 0.197883 16.1226 0.211105C16.3868 0.224333 15.8502 0.261786 16.1613 0.28724C16.4762 0.312572 17.2048 0.277404 17.293 0.342978ZM7.68071 19.2406C8.29145 19.1699 6.04888 19.2241 6.58698 19.2674C6.61565 19.2694 7.65075 19.2442 7.68071 19.2406ZM8.21506 25.7327C9.20215 25.635 7.74654 25.6273 6.98408 25.698C6.22243 25.7687 7.91584 25.7624 8.21506 25.7327ZM8.95732 26.4412C9.73485 26.3375 6.55475 26.4127 7.19999 26.4828C7.23646 26.4869 8.91217 26.4472 8.95732 26.4412ZM8.01095 0.684932C8.0407 0.683365 8.06852 0.639105 8.03898 0.638884C7.32617 0.63548 7.27104 0.723969 8.01095 0.684932ZM9.76348 27.1423C10.1929 27.1048 9.69433 27.0447 9.16034 27.0914C8.73077 27.129 9.22931 27.1891 9.76348 27.1423ZM9.99621 16.3711C10.0296 16.3693 10.0588 16.3373 9.86996 16.3432C9.26167 16.3622 9.43456 16.4007 9.99621 16.3711ZM9.83414 28.37C9.9488 28.1851 12.5724 28.0023 12.2815 28.2082C12.2288 28.2455 11.4417 28.1543 11.2062 28.2064C10.7771 28.3017 12.4278 28.3114 11.5464 28.4209C11.3851 28.4408 9.82176 28.3807 9.83047 28.3698C9.83169 28.3698 9.83292 28.3699 9.83414 28.37ZM10.3732 19.1351C10.4028 19.1332 10.4298 19.0893 10.4003 19.089C9.6878 19.0854 9.63315 19.1739 10.3732 19.1351ZM11.3323 14.5147C11.3954 14.5106 11.4518 14.4089 11.3934 14.4072C10.2279 14.3873 10.1106 14.593 11.3323 14.5147ZM12.0946 21.9942C12.8121 22.0214 12.8979 22.0753 11.9997 22.1378C12.0461 22.0897 12.0518 22.0424 12.0946 21.9942Z" fill="#FFEE00"/>
</svg>
