<svg width="384" height="15" viewBox="0 0 384 15" fill="none" xmlns="http://www.w3.org/2000/svg">
<path d="M4.99003 0.549715C6.68595 0.66639 9.43289 1.03412 11.4902 1.38177C12.1115 1.48844 11.7752 1.78798 12.2174 1.87574C13.1297 2.04858 13.9106 1.92958 14.8206 2.11669C15.1226 2.18013 14.7212 2.66714 15.0402 2.72213C16.6774 3.01445 18.2882 2.94252 20.0374 3.10245C28.4606 3.87781 36.8754 4.15707 45.5001 4.44828C48.3423 4.54293 51.7693 5.01647 54.7647 4.82577C55.0995 4.80302 54.9014 4.3602 54.9651 4.32395C55.97 3.76902 55.634 4.66072 56.2955 4.78115C58.9824 5.25668 61.8703 5.30132 64.479 5.13156C65.5538 5.06059 64.5502 4.24035 65.4896 4.62545C65.522 4.63952 65.5568 4.65521 65.5944 4.67259C65.6683 4.70591 65.4 5.17547 65.6899 5.22558C66.3459 5.33832 67.6121 5.25405 68.1366 5.29094C69.1461 5.36446 69.3149 5.3596 70.2849 5.36406C71.6503 5.37415 73.1283 5.60552 74.5377 5.49661C74.8365 5.47197 74.4396 4.99131 74.9168 4.90853C75.3931 4.82591 76.6695 4.86414 77.1052 4.97662C77.5396 5.0892 77.3557 5.46796 77.4328 5.55451C78.0936 6.28505 79.4961 5.26777 79.6905 5.24217C83.0941 4.80611 86.0753 5.37377 89.2781 5.36013C91.7712 5.34829 94.3235 5.14701 96.6662 5.16274C99.4887 5.18317 101.772 5.43311 104.485 5.37471C104.771 5.36909 104.433 4.8048 104.782 4.79679C108.521 4.7121 112.11 4.75449 115.822 5.11573C116.187 5.1525 115.719 5.65207 116.084 5.71851C118.313 6.11442 121.906 7.07457 123.244 4.90297C124.754 4.97854 126.601 5.05476 127.972 5.48259C128.856 5.75793 128.001 6.30449 129.086 6.06689C129.33 6.01394 129.009 5.54179 129.376 5.49822C130.933 5.31517 132.602 5.459 134.118 5.20463C134.427 5.15177 134.34 4.72749 134.427 4.65045C135.159 4.02638 136.394 5.04278 136.664 5.11551C138.712 5.65761 140.213 5.42975 142.097 5.43134C142.537 5.43194 142.014 4.86463 142.436 4.84471C144.626 4.74902 146.926 4.78335 149.08 5.02272C149.557 5.07735 149.121 5.56621 149.35 5.61719C150.356 5.83603 150.573 4.91658 151.541 5.10871C151.745 5.14804 151.633 5.56487 151.67 5.61033C152.256 6.32393 152.756 5.30423 152.906 5.28083C154.798 4.962 156.033 6.01518 157.859 5.85315C158.077 5.83269 157.582 5.30938 158.195 5.28408C162.281 5.11237 166.645 5.22885 170.699 5.62409C171.331 5.68482 170.883 6.0832 170.923 6.13171C171.576 6.88936 171.989 5.86598 172.195 5.82622C173.821 5.53915 175.347 6.38549 176.44 5.1628C183.32 5.54124 190.169 4.81624 196.999 5.86533C197.086 5.87744 196.934 6.38105 197.107 6.40304C199.193 6.6731 198.788 5.89417 200.161 4.93065C200.507 4.6887 201.569 5.83628 201.663 5.92031C202.006 6.22998 201.657 6.97989 201.771 7.03958C202.719 7.50808 202.551 5.03565 203.826 5.02763C203.866 5.03153 203.701 5.48772 203.808 5.53238C204.141 5.67261 204.47 5.48985 204.796 5.64474C205.542 6.00317 205.813 7.20349 206.945 6.49775C207.088 6.40618 206.861 5.00441 207.998 5.06443C208.452 5.08953 210.452 5.05459 211.018 5.14249C211.581 5.23028 211.197 5.68446 211.237 5.70382C212.757 6.29353 212.183 6.54438 212.947 7.42543C213.711 8.30316 213.489 6.20123 213.797 5.96487C214.106 5.72917 215.218 6.21662 215.492 6.38669C215.765 6.55682 215.427 6.84586 215.669 6.94168C217.278 7.56764 216.369 5.89417 216.896 5.55767C218.14 4.76093 219.109 6.31572 220.26 6.46283C220.571 6.50256 220.316 6.1486 220.592 6.11402C221.685 5.98176 222.344 6.46519 223.583 6.01303C223.786 5.93934 224.784 4.99686 225.435 5.68197C225.527 5.78077 225.269 6.17065 225.733 6.25553C226.427 6.38294 227.672 6.46215 228.417 6.32888C228.97 6.23026 228.333 5.5927 229.03 5.78851C229.34 5.87595 228.768 6.25317 229.35 6.3862C229.93 6.51919 231.406 6.49624 231.966 6.48091C232.526 6.46528 232.217 5.98081 232.263 5.94789C232.536 5.75923 233.607 5.52043 233.702 5.52062C238.461 5.44133 242.902 6.24348 247.559 5.95747C247.926 5.93573 247.68 5.42424 247.736 5.41564C248.992 5.19703 248.006 6.56216 248.884 7.0153C248.754 5.97616 249.272 6.16275 250.153 6.0461C250.578 5.98905 250.345 5.58722 250.384 5.5459C251.011 4.93265 251.451 5.72107 251.564 5.88229C251.981 6.47534 252.431 5.77193 252.715 6.16835C252.998 6.5618 252.35 7.14803 253.19 7.13823C253.425 6.76547 252.799 5.79471 253.436 5.63537C255.864 5.03238 260.405 5.78518 262.322 5.86117C264.283 5.93681 264.914 5.86727 266.049 6.0001C268.095 6.24046 267.344 5.51999 268.608 5.18823C269.873 4.85664 269.26 6.63256 269.442 7.01399C269.621 7.39526 269.815 7.0024 270.036 7.21189C270.257 7.42133 269.78 7.68126 270.298 7.75949C270.816 7.83762 272.273 7.1579 272.457 6.75877C272.852 5.91315 272.203 5.02622 273.597 5.33723C273.677 5.35569 273.418 5.82261 273.724 5.86963C276.165 6.22781 278.631 6.25008 281.098 6.56932C281.433 6.61395 281.134 7.13307 281.328 7.16492C283.354 7.49845 282.629 6.6224 283.735 5.65073C283.485 6.94493 284.098 7.73729 285.612 7.74687C286.518 7.75313 286.373 7.18762 286.975 6.79007C287.157 6.67023 287.816 7.05948 287.936 6.79383C288.33 5.92545 287.715 4.95135 289.304 5.34175C289.373 5.3603 289.151 5.83559 289.391 5.86487C290.942 6.05663 291.13 5.14797 292.786 5.04211C294.061 4.95895 296.473 5.52078 297.948 5.6166C297.913 7.07173 299.317 6.74389 299.885 5.74293C300.824 5.78793 301.91 5.73615 302.853 5.87951C303.179 5.92841 302.962 6.34869 303.003 6.39442C303.629 7.11172 304.056 6.13778 304.266 6.10062C306.534 5.74073 308.347 6.49184 310.556 5.7845C310.633 5.75902 310.766 4.74902 311.34 5.4914C311.377 5.54256 310.659 5.99716 311.676 6.04032C312.7 6.08362 314.55 6.64053 316.024 6.18568C316.373 6.07607 317.255 5.26364 317.941 5.91169C318.032 5.99967 317.928 6.28858 318.06 6.45123C318.484 6.96958 318.729 5.95024 319.22 6.82346C319.512 7.34144 319.993 7.78476 320.622 7.93807C321.081 8.04351 321.614 8.01264 322.206 7.77603C322.252 7.75917 322.605 6.95344 323.056 6.97181C323.777 7.00178 324.784 7.18353 325.515 7.18825C325.866 7.19022 325.648 6.68433 325.709 6.67596C328.112 6.42744 329.872 6.90286 332.393 7.14194C332.881 7.18717 334.277 6.52702 335.172 7.08714C336.155 7.70063 335.081 10.1472 337.368 9.60706C338.33 9.3925 339.606 6.28785 341.201 7.95053C344.482 7.62991 347.48 8.54827 350.689 8.08775C350.842 8.06771 351.35 7.21131 351.699 7.2362C352.217 7.27481 352.482 7.69382 352.842 7.73474C354.298 7.91441 355.817 7.62896 357.234 7.74972C357.782 7.79533 357.542 8.20666 358.238 8.26408C358.922 8.32098 359.403 7.78811 360.274 8.1037C360.906 8.34274 361.573 9.51854 362.463 9.70458C362.572 8.58781 363.16 8.64478 364.286 8.42161C364.51 8.37873 364.3 7.97372 364.407 7.93335C364.843 7.76048 365.204 8.10936 365.605 7.91792C365.702 7.87203 365.733 7.49028 365.814 7.43122C366.48 6.91218 367.539 7.85745 367.71 8.0221C368.386 8.64756 368.719 8.17597 369.255 8.4477C369.801 8.72105 368.934 8.92578 369.578 9.11965C370.878 9.51803 372.529 9.62422 373.881 9.81233C374.408 9.88372 374.113 9.33103 374.19 9.32946C375.278 9.33672 376.28 10.0399 377.1 9.14957C377.379 11.879 377.814 8.99481 379.274 9.86746C379.392 9.94051 379.244 11.1842 378.739 11.2523C378.286 11.3325 377.617 10.7987 376.969 10.9751C376.809 11.0124 375.732 12.0188 375.63 12.0765C374.656 12.4878 374.731 10.6253 374.707 10.5178C374.341 9.3524 373.017 10.458 372.76 10.5177C371.436 10.7673 370.363 10.4011 369.214 10.5844C368.456 10.7024 368.329 11.9156 367.771 11.8324C365.86 11.5571 365.416 9.82306 363.5 11.176C363.109 11.4669 363.412 12.8189 362.126 11.692C362.061 11.6216 361.035 10.6021 360.457 11.1781C360.382 11.2506 360.363 11.6384 360.268 11.6659C359.627 11.8426 359.215 11.5113 358.489 11.6233C357.736 11.7341 356.927 11.9168 356.128 11.7492C355.65 11.6488 355.046 10.8987 354.814 10.7116C354.132 10.1721 353.451 10.9819 353.065 10.3485C352.682 9.71211 353.519 8.80088 352.46 8.3584C352.381 9.36487 352.25 10.396 352.147 11.4073C349.704 11.2792 347.46 10.8801 345.091 10.8563C344.801 10.8545 345.082 11.4051 344.771 11.4172C343.476 11.4665 342.197 11.0461 340.891 11.168C339.842 11.2635 338.654 11.8103 337.5 11.93C336.808 10.7603 335.226 11.1195 333.998 10.9909C333.573 10.9464 333.607 10.6387 333.304 10.5325C332.153 10.1395 332.676 11.1693 332.355 11.324C330.997 11.9854 330.968 9.67563 329.393 9.7073C329.312 9.70816 328.268 10.9228 328.124 10.9973C327.211 11.4834 327.981 10.5667 327.413 10.4674C326.348 10.2856 325.703 9.98266 324.51 10.3274C324.164 10.4297 323.322 11.186 322.645 10.5845C322.556 10.5057 322.61 10.0995 322.538 10.0748C321.339 9.69724 321.189 10.7344 320.586 11.2387C320.532 11.2857 320.475 11.3281 320.414 11.3644C319.689 11.7891 318.568 10.8951 318.337 10.6385C317.738 9.9746 318.804 10.3621 318.837 10.2979C319.228 9.53366 318.403 9.65732 317.765 9.58615C317.686 8.332 316.789 8.39859 317.103 9.51745C317.139 9.63966 317.638 9.52762 317.765 9.58615C317.194 10.8102 316.209 10.9582 315.111 9.79945C314.609 9.25655 315.051 8.63217 313.55 8.84937C312.861 8.94745 313.12 9.81251 312.509 10.0429C311.111 10.5687 309.27 9.75066 307.778 9.86814C307.261 9.91094 307.762 10.3864 307.408 10.432C306.469 10.5544 305.636 10.1951 304.675 10.3714C304.588 10.388 304.798 10.8836 304.499 10.8883C302.226 10.9336 300.227 10.6078 297.89 10.5903C296.755 10.5819 294.68 10.8479 293.486 10.7899C291.469 10.6921 288.943 9.96776 287.163 10.1397C286.002 10.2498 286.257 10.7448 285.772 11.0811C284.839 11.7329 283.174 10.5613 282.948 10.38C282.942 10.3739 283.923 10.2583 283.4 10.0039C283.096 9.47463 282.959 10.3777 282.948 10.38C282.803 10.2627 280.831 10.1491 280.435 10.2435C280.221 10.2951 280.341 10.7637 280.229 10.7818C277.549 11.1999 274.999 11.3194 272.294 11.1021C272.247 11.0927 272.318 10.5685 272.207 10.5529C270.639 10.3209 269.669 10.9631 268.402 11.3452C267.136 11.7272 266.124 11.6012 265.366 10.7025C264.404 10.8172 263.006 10.4218 262.213 10.1819C261.426 9.94201 261.318 10.9625 261.248 10.9828C259.087 11.6327 257.827 11.0515 255.554 10.9663C254.461 10.924 252.354 11.0777 251.192 11.1927C250.276 11.2853 249.721 11.0478 248.873 11.2033C248.759 11.2241 248.876 11.678 248.841 11.6956C247.895 12.2421 248.347 11.1301 248.151 10.9324C247.438 10.2134 246.998 9.83064 245.779 10.174C245.497 10.2527 244.699 11.8544 244.192 11.9497C243.533 12.0707 243.78 11.4966 243.09 11.6379C243.031 11.6495 243.045 12.003 242.618 11.989C240.64 11.9284 238.457 11.7309 236.395 11.7747C236.115 11.7793 236.476 12.3387 236.071 12.3546C234.171 12.4288 232.078 12.4169 230.209 12.1627C229.75 12.0983 230.036 11.7044 229.936 11.5882C229.32 10.8854 228.454 11.9144 228.311 11.9346C224.922 12.4427 222.301 11.5275 218.825 11.9867C218.637 12.0135 217.19 13.1198 216.536 12.1807C216.492 12.1182 215.845 11.1573 215.28 11.8195C215.245 11.8609 215.648 12.3552 214.949 12.3083C214.251 12.2614 213.127 12.5988 212.162 12.0586C211.857 11.8884 211.13 10.9304 210.228 11.702C210.17 11.7558 208.781 13.4971 208.275 12.3037C208.193 12.1073 208.271 10.841 207.193 11.4959C206.987 11.6229 207.364 11.9032 206.82 12.0825C205.987 12.3588 204.879 12.026 203.855 12.5957C203.677 12.6965 202.919 13.56 202.304 12.9114C202.207 12.8098 202.387 12.3862 202.064 12.3407C200.527 12.1226 198.924 12.4146 197.364 12.1313C196.811 12.0318 197.09 11.347 196.513 11.1673C195.937 10.9877 194.776 10.8185 194.176 11.1343C193.576 11.4502 194.24 12.5351 193.338 12.6276C189.416 13.0294 185.534 12.4145 181.612 12.3455C181.03 12.3352 181.515 12.7218 180.658 12.7345C177.504 12.7832 172.055 13.1831 169.311 12.3728C167.116 11.7238 169.87 11.2013 168.194 10.9422C167.385 10.8187 166.521 12.0901 166.327 12.1312C164.419 12.5483 163.082 11.9962 161.367 12.1793C161.013 12.2173 161.364 12.7281 161.062 12.7547C160.032 12.8503 158.95 12.6283 157.969 12.6765C157.529 12.6993 157.613 13.0907 157.208 13.063C156.229 13.0015 155.364 12.8424 154.411 12.4812C154.324 12.4483 154.905 11.9571 154.183 11.9436C153.016 11.9232 151.568 11.5702 150.235 11.9529C149.839 12.068 149.829 12.9637 148.975 12.3507C148.794 12.2227 149.022 11.1458 148.027 12.0814C147.859 12.2369 146.185 13.5009 145.357 12.6983C145.139 12.4871 144.579 11.6106 144.102 11.752C144.037 11.7744 144.3 12.2538 143.904 12.3033C142.508 12.4692 141.055 12.4271 139.624 12.5868C139.238 12.6304 139.817 13.1245 139.241 13.1737C137.659 13.3095 135.693 13.195 134.161 13.0487C133.596 12.9938 133.984 12.5791 133.943 12.5344C133.278 11.8087 132.895 12.7962 132.677 12.855C131.33 13.2073 130.261 12.7511 128.999 12.8812C128.649 12.9159 128.9 13.3842 128.831 13.4265C128.112 13.8401 128.644 12.9932 128.188 12.903C126.909 12.6475 125.493 12.6937 124.216 12.7613C123.746 12.7869 124.277 13.3284 123.856 13.345C121.343 13.4538 118.698 13.417 116.27 13.1304C115.812 13.0755 116.098 12.6544 116.002 12.5592C115.347 11.8926 114.371 12.8122 114.144 12.9006C113.119 13.3039 112.719 12.9352 111.818 13.0093C107.459 13.3778 102.01 13.1597 97.8713 13.0265C92.4647 12.8555 88.276 12.4731 83.1233 12.5926C82.7927 12.5997 83.1277 13.1566 82.8429 13.1699C79.2177 13.3153 75.5623 13.1057 71.9866 13.2715C71.6942 13.2841 72.1162 13.8126 71.6473 13.8506C70.6317 13.9323 69.3639 13.9047 68.3684 13.7364C67.883 13.6552 68.5335 13.201 68.0453 13.1286C67.2088 13.0037 66.3386 12.9504 65.4886 12.9647C65.1655 12.9698 64.8453 12.9836 64.5302 13.0058C64.0217 13.0429 64.7882 13.5842 64.128 13.5901C59.6914 13.6416 55.4652 13.7263 50.9089 13.0054C50.6067 12.9559 50.3457 11.8553 49.7109 12.063C49.6617 12.3679 49.6625 12.7268 49.6401 13.0529C43.2106 13.1959 36.8485 12.7622 30.3615 12.5983C30.0889 12.5915 30.5498 13.1817 30.0232 13.1714C26.9935 13.1121 23.9959 13.2125 20.8757 12.546C20.569 12.4806 20.7473 11.4609 19.8534 11.5895C19.7341 11.6147 18.2664 11.7053 17.9261 11.9157C17.8773 11.9477 18.1088 12.4342 17.6704 12.4332C15.065 12.4157 12.347 12.1923 9.73772 11.7318C9.32656 11.6568 9.7995 11.1772 9.50948 11.1194C7.39611 10.7004 5.0271 10.9233 2.76709 10.0445C1.2035 9.39503 1.97974 8.66371 1.36729 7.55621C1.3378 7.47889 1.03195 7.33285 0.740423 7.06923C0.449661 6.82196 0.166008 6.35797 0.335334 6.1546C0.747464 5.66188 1.35903 5.35275 1.82927 4.86483C2.31989 4.3989 2.679 3.80176 3.20434 3.36407C3.25876 3.31684 3.3723 3.36342 3.51948 3.51303C3.66378 3.65226 3.80743 3.91116 3.85835 3.99097C3.91552 4.08014 3.92181 3.99157 3.98969 3.95818C4.04622 3.89654 4.22031 4.05135 4.31197 3.79135C4.31633 3.77396 4.30847 3.67426 4.23069 3.46773C4.15041 3.25314 3.97851 2.95824 3.81933 2.74921C3.47441 2.31868 3.42416 2.21723 3.44571 2.08465C3.46794 1.91395 3.76952 1.48557 3.74461 1.24527C3.74277 1.0182 3.69354 1.46466 4.01471 1.28439C4.17096 1.19135 4.26869 0.997912 4.38328 0.831395C4.49393 0.663278 4.62835 0.525979 4.99003 0.549715ZM258.656 9.11029C257.92 8.62197 257.816 10.4168 258.61 9.98564C258.648 9.96267 258.694 9.13425 258.656 9.11029ZM347.522 9.53071C346.569 8.70878 345.853 9.8522 346.53 10.4841C347.21 11.1157 347.81 9.77992 347.522 9.53071ZM357.454 9.33725C356.395 8.66291 356.106 11.1973 357.295 10.7375C357.363 10.7116 357.516 9.37644 357.454 9.33725ZM5.00101 8.05391C4.98858 8.02935 4.41011 7.92946 4.3734 7.94694C3.96612 8.46753 5.18989 8.67746 5.00101 8.05391ZM367.347 9.30719C367.007 8.93471 365.98 9.25761 366.374 9.7159C366.686 10.0835 367.76 9.76898 367.347 9.30719ZM220.296 7.33864C220.284 7.31195 219.856 7.29 219.866 7.44112C219.897 7.92783 220.491 7.78747 220.296 7.33864ZM382.427 12.607C382.578 12.0551 381.678 11.0233 381.554 10.4276C381.433 9.88715 381.833 9.28052 383.359 10.5065C383.627 10.7786 383.201 10.5976 382.831 10.5717C382.477 10.5528 382.147 10.6054 382.403 10.8688C382.818 11.349 383.436 11.5478 383.774 12.3006C384.084 13.0419 383.915 13.7971 383.371 14.1724C383.266 14.2464 383.083 13.8233 382.898 13.3806C382.722 12.92 382.425 12.6249 382.424 12.6046C382.425 12.6054 382.426 12.6062 382.427 12.607ZM258.228 6.95573C258.214 6.93203 257.623 6.91088 257.609 6.93445C257.29 7.5049 258.48 7.54784 258.228 6.95573ZM195.424 6.36535C195.391 6.31497 194.021 6.2758 193.977 6.32267C193.268 7.25854 196.037 7.34048 195.424 6.36535ZM297.972 5.6555C298.616 5.08475 299.379 5.02033 299.882 5.74218C299.251 5.70133 298.613 5.69317 297.972 5.6555Z" fill="#D8FF01"/>
</svg>
