<svg width="322" height="241" viewBox="0 0 322 241" fill="none" xmlns="http://www.w3.org/2000/svg">
<path d="M0.5 0.307617H314.762C318.445 0.307617 321.43 3.2931 321.43 6.97589V233.697C321.43 237.38 318.445 240.365 314.762 240.365H0.5V0.307617Z" fill="url(#paint0_linear_8072_142222)"/>
<rect x="37.5" y="61.25" width="195.534" height="146.384" rx="10.6849" fill="#F5F5F5"/>
<path d="M123.202 76.4829C127.168 75.6165 131.212 75.1797 135.267 75.1797V100.221C132.926 100.221 130.59 100.473 128.3 100.974L123.202 76.4829Z" fill="#68A7ED"/>
<path d="M78.2527 124.41C80.2103 112.734 85.5391 101.927 93.5513 93.3838C101.564 84.8407 111.892 78.9538 123.202 76.4829L128.301 100.976C121.77 102.403 115.807 105.802 111.181 110.735C106.554 115.667 103.477 121.907 102.347 128.649L78.2527 124.41Z" fill="#8A5AFE"/>
<path d="M135.267 75.1797C147.128 75.1797 158.702 78.9145 168.422 85.8781C178.141 92.8417 185.537 102.698 189.606 114.111C193.675 125.524 194.221 137.942 191.17 149.684C188.119 161.425 181.619 171.922 172.55 179.753C163.481 187.584 152.282 192.37 140.469 193.462C128.656 194.555 116.801 191.901 106.51 185.861C96.2183 179.821 87.9879 170.687 82.9335 159.695C77.8791 148.703 76.2451 136.385 78.2527 124.41L102.366 128.652C101.207 135.563 102.15 142.671 105.067 149.014C107.983 155.357 112.733 160.629 118.672 164.114C124.611 167.6 131.452 169.131 138.269 168.501C145.086 167.87 151.549 165.108 156.782 160.589C162.016 156.071 165.767 150.013 167.527 143.237C169.288 136.461 168.973 129.295 166.625 122.709C164.276 116.123 160.009 110.435 154.4 106.417C148.791 102.398 142.112 100.243 135.267 100.243L135.267 75.1797Z" fill="#1340FF"/>
<path d="M181.94 179.623H179.777L178.7 181.709H177.862L181.025 175.811H182.068L183.06 181.709H182.265L181.94 179.623ZM181.846 179.025L181.444 176.392L180.085 179.025H181.846ZM188.076 177.179L185.554 181.709H184.614L183.7 177.179H184.537L185.187 181.119L187.23 177.179H188.076ZM192.734 177.179L192.127 180.598C192.075 180.88 192.015 181.23 191.964 181.478C191.691 182.803 190.844 183.504 189.451 183.504C188.331 183.504 187.613 182.966 187.69 182.008L187.699 181.923H188.442L188.434 182C188.4 182.555 188.776 182.94 189.554 182.94C190.451 182.94 191.024 182.427 191.212 181.555C191.255 181.341 191.289 181.196 191.315 181.059L191.332 180.982L190.896 181.47C190.605 181.683 190.101 181.829 189.639 181.829C188.511 181.829 187.947 181.017 187.947 179.982C187.947 178.58 188.801 177.059 190.631 177.059C191.007 177.059 191.468 177.213 191.665 177.435L191.87 177.888L191.998 177.179H192.734ZM189.844 181.264C190.597 181.264 191.357 180.786 191.588 179.487V179.529L191.648 179.179L191.631 179.239C191.776 178.401 191.451 177.623 190.528 177.623C189.383 177.623 188.75 178.794 188.75 179.948C188.75 180.717 189.101 181.264 189.844 181.264ZM199.115 181.111L199.004 181.709H195.081L196.124 175.811H196.859L195.918 181.111H199.115ZM201.253 175.691C201.493 175.691 201.655 175.862 201.655 176.084C201.655 176.392 201.407 176.632 201.1 176.632C200.86 176.632 200.698 176.461 200.698 176.238C200.698 175.931 200.946 175.691 201.253 175.691ZM200.552 181.709H199.817L200.621 177.179H201.356L200.552 181.709ZM203.924 179.324L205.633 181.709H204.753L203.385 179.734L202.821 180.23L202.556 181.709H201.821L202.932 175.426H203.667L202.966 179.41L205.471 177.179H206.411L203.924 179.324ZM210.172 179.666H206.898C206.89 179.786 206.881 179.914 206.881 180.025C206.881 180.888 207.317 181.264 207.907 181.264C208.497 181.264 209.044 180.897 209.257 180.247H210.027C209.659 181.341 208.71 181.829 207.779 181.829C206.761 181.829 206.077 181.196 206.077 180.051C206.077 178.734 206.787 177.059 208.599 177.059C209.659 177.059 210.309 177.726 210.309 178.743C210.309 179.042 210.257 179.392 210.172 179.666ZM208.488 177.623C207.608 177.623 207.163 178.333 206.984 179.102H209.548C209.556 178.991 209.565 178.888 209.565 178.786C209.565 178.042 209.146 177.623 208.488 177.623ZM212.634 177.059C213.686 177.059 214.13 177.64 214.147 178.469H213.378C213.352 177.939 213.113 177.623 212.6 177.623C211.968 177.623 211.72 177.974 211.72 178.35C211.72 178.768 212.053 178.974 212.54 179.119C213.412 179.384 213.882 179.743 213.882 180.487C213.882 181.273 213.241 181.88 212.113 181.88C210.839 181.88 210.42 181.119 210.386 180.427H211.155C211.215 181.085 211.626 181.316 212.173 181.316C212.686 181.316 213.079 181.025 213.079 180.546C213.079 180.145 212.814 179.914 212.173 179.717C211.472 179.504 210.916 179.213 210.916 178.427C210.916 177.683 211.497 177.059 212.634 177.059Z" fill="black" fill-opacity="0.7"/>
<path d="M204.062 193.578H203.319V195.065H202.583V193.578H199.66V193.211L202.583 189.167H203.319V192.98H204.062V193.578ZM202.583 192.98V190.15C202.447 190.381 202.293 190.629 202.096 190.903L200.592 192.98H202.583ZM207.79 191.945C208.422 192.151 208.918 192.706 208.918 193.416C208.918 194.706 207.85 195.194 206.815 195.194C205.696 195.194 204.713 194.706 204.713 193.416C204.713 192.706 205.251 192.151 205.884 191.954C205.354 191.749 204.969 191.279 204.969 190.638C204.969 189.663 205.713 189.048 206.867 189.048C208.021 189.048 208.764 189.663 208.764 190.638C208.764 191.287 208.337 191.749 207.79 191.945ZM206.867 189.629C206.123 189.629 205.764 190.099 205.764 190.663C205.764 191.262 206.123 191.715 206.858 191.715C207.593 191.715 207.969 191.262 207.969 190.663C207.969 190.099 207.61 189.629 206.867 189.629ZM206.832 194.612C207.696 194.612 208.098 194.125 208.098 193.45C208.098 192.843 207.738 192.296 206.824 192.296C205.909 192.296 205.533 192.843 205.533 193.45C205.533 194.125 205.969 194.612 206.832 194.612ZM212.748 191.945C213.381 192.151 213.877 192.706 213.877 193.416C213.877 194.706 212.808 195.194 211.774 195.194C210.654 195.194 209.671 194.706 209.671 193.416C209.671 192.706 210.21 192.151 210.842 191.954C210.312 191.749 209.927 191.279 209.927 190.638C209.927 189.663 210.671 189.048 211.825 189.048C212.979 189.048 213.723 189.663 213.723 190.638C213.723 191.287 213.295 191.749 212.748 191.945ZM211.825 189.629C211.081 189.629 210.722 190.099 210.722 190.663C210.722 191.262 211.081 191.715 211.817 191.715C212.552 191.715 212.928 191.262 212.928 190.663C212.928 190.099 212.569 189.629 211.825 189.629ZM211.791 194.612C212.654 194.612 213.056 194.125 213.056 193.45C213.056 192.843 212.697 192.296 211.782 192.296C210.868 192.296 210.492 192.843 210.492 193.45C210.492 194.125 210.928 194.612 211.791 194.612Z" fill="black" fill-opacity="0.7"/>
<path d="M164.117 179.586L167.842 185.463H214.336" stroke="#1340FF" stroke-width="0.534247"/>
<path d="M130.351 122.973C131.608 122.973 132.3 123.811 132.3 124.939C132.3 126.247 131.343 127.068 130.137 127.068C128.753 127.068 127.975 126.213 127.975 124.239C127.975 121.948 129.026 120.93 130.325 120.93C131.411 120.93 132.121 121.563 132.232 122.546L132.24 122.632H131.266L131.249 122.546C131.112 121.948 130.796 121.649 130.257 121.649C129.522 121.649 129.026 122.264 128.966 123.862L129.283 123.332C129.599 123.067 129.924 122.973 130.351 122.973ZM130.137 126.35C130.821 126.35 131.283 125.811 131.283 125.051C131.283 124.29 130.932 123.691 130.129 123.691C129.53 123.691 129.018 124.153 129.018 125.034C129.018 125.786 129.454 126.35 130.137 126.35ZM134.63 126.196H137.34V126.948H133.228V126.47L135.288 124.392C136.032 123.657 136.357 123.23 136.357 122.666C136.357 122.093 136.032 121.64 135.391 121.64C134.716 121.64 134.382 122.067 134.305 122.845L134.297 122.931H133.356L133.365 122.845C133.485 121.597 134.245 120.922 135.493 120.922C136.741 120.922 137.374 121.649 137.374 122.58C137.374 123.358 136.964 123.905 135.929 124.914L134.63 126.196ZM140.422 120.93C141.815 120.93 142.593 121.777 142.593 123.76C142.593 126.051 141.542 127.068 140.243 127.068C139.148 127.068 138.43 126.435 138.336 125.444L138.328 125.358H139.302L139.319 125.444C139.448 126.051 139.764 126.35 140.311 126.35C141.046 126.35 141.542 125.726 141.602 124.136L141.285 124.666C140.969 124.922 140.644 125.025 140.217 125.025C138.96 125.025 138.268 124.187 138.268 123.059C138.268 121.751 139.217 120.93 140.422 120.93ZM140.431 124.307C141.038 124.307 141.55 123.845 141.55 122.965C141.55 122.213 141.106 121.649 140.431 121.649C139.747 121.649 139.285 122.187 139.285 122.948C139.285 123.7 139.636 124.307 140.431 124.307ZM122.039 134.999H119.945L119.304 136.948H118.304L120.424 131.05H121.637L123.697 136.948H122.68L122.039 134.999ZM120.193 134.256H121.791L121.013 131.828L120.193 134.256ZM128.131 132.409L126.396 136.948H125.302L123.567 132.409H124.601L125.875 136.256L127.131 132.409H128.131ZM132.545 134.563C132.545 134.649 132.545 134.777 132.528 134.939H129.271C129.348 136.025 129.844 136.384 130.46 136.384C131.007 136.384 131.434 136.051 131.528 135.478H132.477C132.28 136.555 131.417 137.068 130.425 137.068C129.212 137.068 128.297 136.299 128.297 134.692C128.297 133.256 129.212 132.29 130.519 132.29C131.836 132.29 132.545 133.281 132.545 134.563ZM130.485 132.973C129.844 132.973 129.383 133.409 129.28 134.281H131.579C131.511 133.444 131.143 132.973 130.485 132.973ZM135.465 132.298C135.593 132.298 135.687 132.315 135.781 132.349V133.085C134.918 133.025 134.379 133.469 134.379 134.589V136.948H133.439V132.409H134.379V133.179L134.764 132.555C134.969 132.392 135.234 132.298 135.465 132.298ZM139.068 136.948L138.982 136.29L138.752 136.777C138.444 136.991 138.051 137.068 137.623 137.068C136.82 137.068 136.162 136.606 136.162 135.76C136.162 134.751 136.965 134.204 138.683 134.204H138.974V134.093C138.974 133.922 138.974 133.768 138.957 133.597C138.931 133.23 138.7 132.973 138.162 132.973C137.615 132.973 137.333 133.281 137.281 133.845H136.341C136.401 132.854 137.145 132.29 138.179 132.29C139.35 132.29 139.812 132.785 139.888 133.555C139.906 133.743 139.914 133.982 139.914 134.196V135.794C139.914 136.136 139.931 136.444 140 136.948H139.068ZM137.965 136.384C138.555 136.384 138.974 135.982 138.974 135.247V134.828C137.871 134.743 137.153 134.991 137.153 135.683C137.153 136.162 137.469 136.384 137.965 136.384ZM145.282 132.409V135.82C145.282 136.102 145.282 136.452 145.273 136.7C145.222 138.077 144.367 138.769 142.999 138.769C141.691 138.769 140.999 138.222 140.905 137.247L140.896 137.162H141.82L141.828 137.239C141.888 137.726 142.307 138.059 143.008 138.059C143.828 138.059 144.299 137.615 144.333 136.803C144.341 136.606 144.341 136.444 144.341 136.282V136.187L143.999 136.683C143.743 136.888 143.298 137.025 142.837 137.025C141.529 137.025 140.768 136.068 140.768 134.734C140.768 133.076 141.794 132.29 142.965 132.29C143.341 132.29 143.811 132.392 144.042 132.572L144.341 133.025V132.409H145.282ZM143.025 136.341C143.734 136.341 144.341 135.897 144.341 134.683V134.486C144.341 133.384 143.675 132.973 143.068 132.973C142.324 132.973 141.76 133.521 141.76 134.649C141.76 135.632 142.213 136.341 143.025 136.341ZM150.392 134.563C150.392 134.649 150.392 134.777 150.375 134.939H147.119C147.195 136.025 147.691 136.384 148.307 136.384C148.854 136.384 149.281 136.051 149.375 135.478H150.324C150.127 136.555 149.264 137.068 148.273 137.068C147.059 137.068 146.144 136.299 146.144 134.692C146.144 133.256 147.059 132.29 148.367 132.29C149.683 132.29 150.392 133.281 150.392 134.563ZM148.332 132.973C147.691 132.973 147.23 133.409 147.127 134.281H149.427C149.358 133.444 148.991 132.973 148.332 132.973ZM113.645 146.948H112.704V141.05H113.645V146.948ZM118.862 143.589C118.879 143.82 118.887 144.025 118.887 144.392V146.948H117.947V144.495C117.947 144.281 117.947 144.085 117.93 143.854C117.887 143.341 117.614 142.982 116.973 142.982C116.323 142.982 115.793 143.495 115.793 144.914V146.948H114.853V142.409H115.793V143.162L116.101 142.64C116.46 142.367 116.793 142.29 117.246 142.29C118.221 142.29 118.776 142.794 118.862 143.589ZM121.156 143.102V145.478C121.156 145.632 121.156 145.734 121.165 145.854C121.199 146.299 121.37 146.393 121.986 146.333V146.982C121.746 147.017 121.524 147.034 121.293 147.034C120.584 147.034 120.276 146.769 120.233 146.17C120.225 146.017 120.225 145.82 120.225 145.563V143.102H119.584V142.443H120.225V141.358H121.156V142.443H122.045V143.102H121.156ZM126.706 144.563C126.706 144.649 126.706 144.777 126.689 144.939H123.432C123.509 146.025 124.005 146.384 124.62 146.384C125.167 146.384 125.595 146.051 125.689 145.478H126.638C126.441 146.555 125.578 147.068 124.586 147.068C123.372 147.068 122.458 146.299 122.458 144.692C122.458 143.256 123.372 142.29 124.68 142.29C125.997 142.29 126.706 143.281 126.706 144.563ZM124.646 142.973C124.005 142.973 123.543 143.409 123.441 144.281H125.74C125.672 143.444 125.304 142.973 124.646 142.973ZM129.625 142.298C129.754 142.298 129.848 142.315 129.942 142.349V143.085C129.078 143.025 128.54 143.469 128.54 144.589V146.948H127.6V142.409H128.54V143.179L128.924 142.555C129.13 142.392 129.395 142.298 129.625 142.298ZM133.229 146.948L133.143 146.29L132.912 146.777C132.605 146.991 132.212 147.068 131.784 147.068C130.981 147.068 130.322 146.606 130.322 145.76C130.322 144.751 131.126 144.204 132.844 144.204H133.135V144.093C133.135 143.922 133.135 143.768 133.118 143.597C133.092 143.23 132.861 142.973 132.323 142.973C131.776 142.973 131.493 143.281 131.442 143.845H130.502C130.562 142.854 131.305 142.29 132.34 142.29C133.511 142.29 133.972 142.785 134.049 143.555C134.066 143.743 134.075 143.982 134.075 144.196V145.794C134.075 146.136 134.092 146.444 134.16 146.948H133.229ZM132.126 146.384C132.716 146.384 133.135 145.982 133.135 145.247V144.828C132.032 144.743 131.314 144.991 131.314 145.683C131.314 146.162 131.63 146.384 132.126 146.384ZM137.126 142.29C138.271 142.29 138.998 142.982 139.109 143.982H138.16C138.023 143.29 137.656 142.973 137.1 142.973C136.442 142.973 135.921 143.495 135.921 144.632C135.921 145.863 136.434 146.384 137.066 146.384C137.605 146.384 137.989 146.059 138.126 145.444H139.083C138.87 146.529 138.083 147.068 137.015 147.068C135.827 147.068 134.929 146.316 134.929 144.7C134.929 143.153 135.938 142.29 137.126 142.29ZM141.04 143.102V145.478C141.04 145.632 141.04 145.734 141.049 145.854C141.083 146.299 141.254 146.393 141.87 146.333V146.982C141.63 147.017 141.408 147.034 141.177 147.034C140.468 147.034 140.16 146.769 140.117 146.17C140.109 146.017 140.109 145.82 140.109 145.563V143.102H139.468V142.443H140.109V141.358H141.04V142.443H141.929V143.102H141.04ZM143.254 140.828C143.57 140.828 143.81 141.059 143.81 141.366C143.81 141.683 143.57 141.913 143.254 141.913C142.938 141.913 142.707 141.683 142.707 141.366C142.707 141.059 142.938 140.828 143.254 140.828ZM143.724 146.948H142.784V142.409H143.724V146.948ZM146.887 142.29C148.408 142.29 149.186 143.35 149.186 144.674C149.186 145.999 148.408 147.068 146.887 147.068C145.357 147.068 144.587 145.999 144.587 144.674C144.587 143.35 145.357 142.29 146.887 142.29ZM146.887 146.384C147.707 146.384 148.186 145.7 148.186 144.674C148.186 143.649 147.707 142.973 146.887 142.973C146.058 142.973 145.579 143.649 145.579 144.674C145.579 145.7 146.058 146.384 146.887 146.384ZM154.022 143.589C154.039 143.82 154.048 144.025 154.048 144.392V146.948H153.107V144.495C153.107 144.281 153.107 144.085 153.09 143.854C153.047 143.341 152.774 142.982 152.133 142.982C151.483 142.982 150.953 143.495 150.953 144.914V146.948H150.013V142.409H150.953V143.162L151.261 142.64C151.62 142.367 151.953 142.29 152.406 142.29C153.381 142.29 153.936 142.794 154.022 143.589ZM156.658 142.29C157.701 142.29 158.283 142.879 158.385 143.709H157.428C157.334 143.23 157.052 142.948 156.59 142.948C156.146 142.948 155.932 143.196 155.932 143.538C155.932 143.948 156.265 144.119 156.941 144.298C157.932 144.555 158.454 144.948 158.454 145.752C158.454 146.632 157.676 147.068 156.684 147.068C155.675 147.068 154.932 146.615 154.804 145.589H155.752C155.863 146.17 156.248 146.401 156.718 146.401C157.154 146.401 157.505 146.213 157.505 145.82C157.505 145.427 157.197 145.213 156.428 145.008C155.598 144.794 154.983 144.444 154.983 143.649C154.983 142.802 155.65 142.29 156.658 142.29Z" fill="black" fill-opacity="0.9"/>
<path d="M51.0707 75.178H48.9081L47.8311 77.2637H46.9934L50.1561 71.3656H51.1989L52.1905 77.2637H51.3956L51.0707 75.178ZM50.9767 74.5796L50.5749 71.9468L49.2158 74.5796H50.9767ZM57.207 72.7333L54.6853 77.2637H53.745L52.8304 72.7333H53.6681L54.3177 76.6739L56.3607 72.7333H57.207ZM61.8644 72.7333L61.2575 76.1524C61.2062 76.4345 61.1464 76.785 61.0951 77.0329C60.8215 78.3578 59.9753 79.0587 58.582 79.0587C57.4622 79.0587 56.7442 78.5202 56.8211 77.5629L56.8296 77.4774H57.5733L57.5648 77.5543C57.5306 78.1099 57.9067 78.4946 58.6845 78.4946C59.5821 78.4946 60.1548 77.9817 60.3429 77.1098C60.3856 76.8961 60.4198 76.7508 60.4454 76.614L60.4625 76.5371L60.0266 77.0243C59.7359 77.238 59.2316 77.3833 58.77 77.3833C57.6417 77.3833 57.0775 76.5713 57.0775 75.537C57.0775 74.1351 57.9323 72.6136 59.7616 72.6136C60.1377 72.6136 60.5993 72.7675 60.7959 72.9897L61.001 73.4427L61.1293 72.7333H61.8644ZM58.9752 76.8192C59.7274 76.8192 60.4882 76.3405 60.719 75.0412V75.0839L60.7788 74.7335L60.7617 74.7933C60.907 73.9556 60.5822 73.1778 59.659 73.1778C58.5136 73.1778 57.881 74.3488 57.881 75.5028C57.881 76.2721 58.2315 76.8192 58.9752 76.8192ZM67.5624 71.2459C69.0583 71.2459 69.7849 72.0922 69.6994 73.2461L69.6908 73.3316H68.9557V73.2461C68.9557 72.2289 68.4257 71.8272 67.4427 71.8272C66.0238 71.8272 65.0835 73.1863 65.0835 74.8531C65.0835 76.1695 65.6818 76.8021 66.6563 76.8021C67.6393 76.8021 68.2035 76.2294 68.5283 75.3831L68.5625 75.2976H69.2976L69.272 75.3831C68.9472 76.5371 68.0667 77.3833 66.511 77.3833C65.0407 77.3833 64.2458 76.426 64.2543 74.9472C64.2458 72.8615 65.6391 71.2459 67.5624 71.2459ZM72.7407 72.6136C74.1426 72.6136 74.6811 73.5795 74.6811 74.6138C74.6811 75.8362 73.9203 77.3833 72.074 77.3833C70.6721 77.3833 70.1336 76.4174 70.1336 75.3831C70.1336 74.1608 70.8944 72.6136 72.7407 72.6136ZM72.168 76.8192C73.2963 76.8192 73.8776 75.6652 73.8776 74.6309C73.8776 73.8359 73.5015 73.1778 72.6467 73.1778C71.5184 73.1778 70.9371 74.3317 70.9371 75.366C70.9371 76.161 71.3132 76.8192 72.168 76.8192ZM80.6295 72.6136C81.433 72.6136 81.8092 73.0837 81.8092 73.6992C81.8092 73.9385 81.7835 74.118 81.7151 74.4941L81.2279 77.2637H80.4928L80.9202 74.8361C80.9971 74.4001 81.0398 74.1437 81.0398 73.8958C81.0398 73.4256 80.7578 73.1948 80.2705 73.1948C79.6978 73.1948 79.1593 73.8958 78.9541 75.007V75.0241L78.5609 77.2637H77.8258L78.2532 74.8361C78.3301 74.4001 78.3729 74.1437 78.3729 73.8958C78.3729 73.4256 78.0908 73.1948 77.6036 73.1948C77.0309 73.1948 76.4838 73.9043 76.2872 75.0241L75.894 77.2637H75.1589L75.9538 72.7333H76.6889L76.5693 73.4L76.9539 72.8786C77.2189 72.6905 77.5608 72.6136 77.9626 72.6136C78.655 72.6136 79.0311 72.9641 79.1251 73.4598L79.6209 72.8786C79.8859 72.6905 80.2278 72.6136 80.6295 72.6136ZM87.942 72.6136C88.7456 72.6136 89.1217 73.0837 89.1217 73.6992C89.1217 73.9385 89.096 74.118 89.0276 74.4941L88.5404 77.2637H87.8053L88.2327 74.8361C88.3096 74.4001 88.3523 74.1437 88.3523 73.8958C88.3523 73.4256 88.0703 73.1948 87.583 73.1948C87.0103 73.1948 86.4718 73.8958 86.2666 75.007V75.0241L85.8734 77.2637H85.1383L85.5657 74.8361C85.6426 74.4001 85.6854 74.1437 85.6854 73.8958C85.6854 73.4256 85.4033 73.1948 84.9161 73.1948C84.3434 73.1948 83.7963 73.9043 83.5997 75.0241L83.2065 77.2637H82.4714L83.2663 72.7333H84.0014L83.8818 73.4L84.2664 72.8786C84.5314 72.6905 84.8733 72.6136 85.2751 72.6136C85.9675 72.6136 86.3436 72.9641 86.4376 73.4598L86.9334 72.8786C87.1984 72.6905 87.5403 72.6136 87.942 72.6136ZM93.8527 75.2207H90.5788C90.5703 75.3404 90.5617 75.4686 90.5617 75.5797C90.5617 76.4431 90.9977 76.8192 91.5875 76.8192C92.1773 76.8192 92.7244 76.4516 92.9381 75.802H93.7074C93.3398 76.8961 92.391 77.3833 91.4593 77.3833C90.4421 77.3833 89.7582 76.7508 89.7582 75.6054C89.7582 74.289 90.4677 72.6136 92.2799 72.6136C93.3398 72.6136 93.9895 73.2803 93.9895 74.2975C93.9895 74.5967 93.9382 74.9472 93.8527 75.2207ZM92.1687 73.1778C91.2883 73.1778 90.8438 73.8872 90.6643 74.6565H93.2287C93.2372 74.5454 93.2458 74.4428 93.2458 74.3403C93.2458 73.5966 92.8269 73.1778 92.1687 73.1778ZM97.4092 72.6136C98.3323 72.6136 98.7939 73.0666 98.7939 73.7761C98.7939 74.0155 98.7854 74.1693 98.6828 74.7164L98.2212 77.2637H97.4861L97.9391 74.7677C98.0075 74.383 98.0332 74.1608 98.0332 73.9813C98.0332 73.5197 97.7938 73.1778 97.1527 73.1948C96.4347 73.2119 95.7509 73.7248 95.4773 75.272L95.1269 77.2637H94.3917L95.1867 72.7333H95.9218L95.7851 73.5111L96.1612 72.9897C96.5971 72.6905 96.9476 72.6136 97.4092 72.6136ZM100.971 73.3316L100.51 75.9387C100.458 76.2294 100.45 76.3319 100.45 76.4089C100.45 76.7337 100.681 76.8106 101.176 76.7252L101.074 77.2637C100.92 77.3064 100.715 77.3321 100.527 77.3321C99.9798 77.3321 99.6806 77.1355 99.6806 76.6739C99.6806 76.5542 99.7062 76.3405 99.7746 75.9729L100.245 73.3316H99.6464L99.749 72.7675H100.339L100.527 71.7161H101.262L101.074 72.7675H101.852L101.749 73.3316H100.971ZM103.986 72.6136C105.038 72.6136 105.482 73.1948 105.499 74.024H104.73C104.705 73.494 104.465 73.1778 103.952 73.1778C103.32 73.1778 103.072 73.5282 103.072 73.9043C103.072 74.3232 103.405 74.5283 103.892 74.6736C104.764 74.9386 105.234 75.2976 105.234 76.0413C105.234 76.8277 104.593 77.4346 103.465 77.4346C102.191 77.4346 101.773 76.6739 101.738 75.9815H102.508C102.568 76.6397 102.978 76.8705 103.525 76.8705C104.038 76.8705 104.431 76.5798 104.431 76.1012C104.431 75.6994 104.166 75.4686 103.525 75.272C102.824 75.0583 102.268 74.7677 102.268 73.9813C102.268 73.2376 102.85 72.6136 103.986 72.6136Z" fill="black" fill-opacity="0.7"/>
<path d="M50.6775 84.722V90.6201H49.9424V85.4999L48.3183 86.4658V85.6879L49.5663 84.9101C49.7971 84.7648 50.0022 84.722 50.2074 84.722H50.6775ZM55.636 84.722V90.6201H54.9009V85.4999L53.2767 86.4658V85.6879L54.5247 84.9101C54.7555 84.7648 54.9607 84.722 55.1658 84.722H55.636ZM59.6285 84.6024C60.9449 84.6024 61.7142 85.4315 61.7142 87.389C61.7142 89.7653 60.6457 90.7398 59.4319 90.7398C58.4233 90.7398 57.7052 90.1158 57.6112 89.1499L57.6027 89.0644H58.3891L58.4062 89.1499C58.5429 89.8166 58.8934 90.1585 59.4918 90.1585C60.2867 90.1585 60.8509 89.5174 60.9107 87.7993L60.5774 88.3293C60.2611 88.5943 59.9277 88.7054 59.5003 88.7054C58.2694 88.7054 57.5428 87.8762 57.5428 86.7052C57.5428 85.4486 58.4318 84.6024 59.6285 84.6024ZM59.6285 88.1241C60.2953 88.1241 60.8594 87.6198 60.8594 86.6368C60.8594 85.8162 60.3722 85.1836 59.6285 85.1836C58.8934 85.1836 58.3634 85.7649 58.3634 86.6197C58.3634 87.4403 58.731 88.1241 59.6285 88.1241Z" fill="black" fill-opacity="0.7"/>
<path d="M109.812 87.4285L104.165 81.5518H47.5977" stroke="#8A5AFE" stroke-width="0.534247"/>
<g filter="url(#filter0_d_8072_142222)">
<rect x="155.5" y="30.25" width="135.164" height="61.9726" rx="10.6849" fill="#F5F5F5" shape-rendering="crispEdges"/>
<path d="M166.755 50.0449L163.886 42.2712H164.877L166.557 46.9563C166.637 47.1859 166.738 47.4815 166.859 47.8432C166.981 48.205 167.129 48.6519 167.303 49.1841C167.473 48.6519 167.618 48.205 167.736 47.8432C167.858 47.4815 167.959 47.1859 168.039 46.9563L169.677 42.2712H170.658L167.819 50.0449H166.755ZM171.419 50.0449V44.5355H172.306V50.0449H171.419ZM171.863 43.4607C171.696 43.4607 171.553 43.4016 171.435 43.2834C171.317 43.1651 171.258 43.0225 171.258 42.8555C171.258 42.6886 171.317 42.546 171.435 42.4277C171.553 42.3095 171.696 42.2503 171.863 42.2503C172.03 42.2503 172.172 42.3095 172.291 42.4277C172.409 42.546 172.468 42.6886 172.468 42.8555C172.468 43.0225 172.409 43.1651 172.291 43.2834C172.172 43.4016 172.03 43.4607 171.863 43.4607ZM175.896 50.1701C175.357 50.1701 174.896 50.0467 174.513 49.7997C174.134 49.5528 173.844 49.2136 173.642 48.7823C173.44 48.3476 173.339 47.8537 173.339 47.3006C173.339 46.7407 173.445 46.2433 173.658 45.8085C173.87 45.3737 174.164 45.0329 174.539 44.7859C174.915 44.5355 175.346 44.4103 175.833 44.4103C176.344 44.4103 176.788 44.532 177.164 44.7755C177.539 45.019 177.828 45.3581 178.03 45.7929C178.235 46.2276 178.337 46.7302 178.337 47.3006V47.5459H174.216C174.237 48.085 174.391 48.5232 174.68 48.8606C174.969 49.198 175.374 49.3667 175.896 49.3667C176.289 49.3667 176.609 49.2762 176.856 49.0954C177.106 48.9145 177.273 48.6815 177.357 48.3963H178.243C178.174 48.7476 178.03 49.0571 177.81 49.3249C177.591 49.5893 177.317 49.7962 176.986 49.9458C176.659 50.0954 176.296 50.1701 175.896 50.1701ZM174.226 46.7841H177.45C177.402 46.3007 177.233 45.9163 176.944 45.6311C176.656 45.3459 176.285 45.2033 175.833 45.2033C175.381 45.2033 175.012 45.3459 174.727 45.6311C174.442 45.9163 174.275 46.3007 174.226 46.7841ZM180.362 50.0449L178.65 44.5355H179.579L180.273 46.9563C180.37 47.2902 180.463 47.6311 180.55 47.9789C180.64 48.3267 180.73 48.671 180.821 49.0119C180.911 48.671 181.002 48.3267 181.092 47.9789C181.183 47.6311 181.276 47.2902 181.374 46.9563L182.073 44.5355H182.949L183.638 46.9563C183.732 47.2867 183.822 47.6241 183.909 47.9685C184 48.3128 184.09 48.6519 184.181 48.9858C184.271 48.6519 184.362 48.3128 184.452 47.9685C184.542 47.6241 184.636 47.2867 184.734 46.9563L185.443 44.5355H186.372L184.661 50.0449H183.732L183.007 47.5406C182.92 47.238 182.836 46.9302 182.756 46.6172C182.676 46.3007 182.595 45.9876 182.511 45.6781C182.431 45.9876 182.349 46.3007 182.266 46.6172C182.183 46.9302 182.097 47.238 182.01 47.5406L181.269 50.0449H180.362ZM189.106 50.1701C188.713 50.1701 188.356 50.1058 188.036 49.9771C187.716 49.8484 187.457 49.6536 187.259 49.3928C187.061 49.1284 186.949 48.7963 186.925 48.3963H187.801C187.864 49.071 188.292 49.4084 189.085 49.4084C189.468 49.4084 189.768 49.3284 189.988 49.1684C190.21 49.0084 190.321 48.8067 190.321 48.5632C190.321 48.3545 190.245 48.1876 190.092 48.0624C189.939 47.9372 189.739 47.8467 189.492 47.7911L188.605 47.5824C187.568 47.3389 187.05 46.8172 187.05 46.0172C187.05 45.7042 187.134 45.4277 187.301 45.1877C187.471 44.9442 187.706 44.7546 188.005 44.619C188.308 44.4799 188.655 44.4103 189.048 44.4103C189.431 44.4103 189.774 44.4833 190.076 44.6294C190.382 44.772 190.624 44.9755 190.801 45.2398C190.982 45.5042 191.078 45.8189 191.088 46.1842H190.222C190.219 45.892 190.111 45.6503 189.899 45.459C189.687 45.2677 189.403 45.172 189.048 45.172C188.711 45.172 188.441 45.2537 188.24 45.4172C188.038 45.5807 187.937 45.7807 187.937 46.0172C187.937 46.2259 188.014 46.3946 188.167 46.5233C188.32 46.6485 188.528 46.7424 188.793 46.805L189.68 47.0137C190.208 47.1389 190.596 47.3267 190.843 47.5772C191.09 47.8241 191.214 48.1458 191.214 48.5424C191.214 48.8832 191.121 49.1754 190.937 49.4189C190.753 49.6623 190.501 49.8484 190.181 49.9771C189.864 50.1058 189.506 50.1701 189.106 50.1701Z" fill="#636366"/>
<path d="M166.39 58.5652V64.7842H165.493V59.4751H165.488L163.969 60.4685V59.5836L165.518 58.5652H166.39ZM167.308 64.7842V64.0496L169.545 62.0545C169.782 61.8403 169.979 61.6483 170.138 61.4785C170.297 61.306 170.415 61.1363 170.493 60.9693C170.573 60.8024 170.614 60.6145 170.614 60.4059C170.614 60.0525 170.508 59.7728 170.297 59.5669C170.085 59.3582 169.797 59.2539 169.433 59.2539C169.037 59.2539 168.73 59.3763 168.51 59.6212C168.29 59.866 168.18 60.1986 168.18 60.6187H167.316C167.316 60.193 167.403 59.8187 167.575 59.496C167.751 59.1732 167.995 58.9214 168.31 58.7405C168.627 58.5569 169 58.465 169.428 58.465C169.829 58.465 170.184 58.5457 170.493 58.7071C170.802 58.8657 171.044 59.0883 171.219 59.3749C171.397 59.6587 171.486 59.9885 171.486 60.3641C171.486 60.7787 171.372 61.153 171.144 61.4869C170.916 61.818 170.578 62.1839 170.13 62.5846L168.569 63.987V63.9953H171.519V64.7842H167.308ZM177.467 64.8844C177.197 64.8844 176.962 64.8217 176.762 64.6965C176.561 64.5713 176.404 64.3988 176.29 64.179C176.179 63.9592 176.123 63.7087 176.123 63.4277V63.3025C176.123 63.0214 176.179 62.771 176.29 62.5512C176.404 62.3314 176.561 62.1589 176.762 62.0336C176.962 61.9084 177.197 61.8458 177.467 61.8458C177.734 61.8458 177.968 61.9084 178.168 62.0336C178.369 62.1589 178.525 62.3314 178.636 62.5512C178.75 62.771 178.807 63.0214 178.807 63.3025V63.4277C178.807 63.7087 178.75 63.9592 178.636 64.179C178.525 64.3988 178.369 64.5713 178.168 64.6965C177.968 64.8217 177.734 64.8844 177.467 64.8844ZM173.757 61.5036C173.49 61.5036 173.254 61.441 173.051 61.3157C172.851 61.1905 172.695 61.018 172.584 60.7982C172.472 60.5784 172.417 60.3279 172.417 60.0469V59.9217C172.417 59.6407 172.472 59.3902 172.584 59.1704C172.695 58.9506 172.851 58.7781 173.051 58.6529C173.254 58.5276 173.49 58.465 173.757 58.465C174.027 58.465 174.262 58.5276 174.462 58.6529C174.662 58.7781 174.818 58.9506 174.929 59.1704C175.041 59.3902 175.096 59.6407 175.096 59.9217V60.0469C175.096 60.3279 175.041 60.5784 174.929 60.7982C174.818 61.018 174.662 61.1905 174.462 61.3157C174.262 61.441 174.027 61.5036 173.757 61.5036ZM173.068 64.7842L177.342 58.5652H178.131L173.857 64.7842H173.068ZM177.467 64.2666C177.656 64.2666 177.807 64.1943 177.918 64.0496C178.029 63.9021 178.085 63.6948 178.085 63.4277V63.3025C178.085 63.0354 178.029 62.8281 177.918 62.6806C177.807 62.5331 177.656 62.4594 177.467 62.4594C177.275 62.4594 177.122 62.5331 177.008 62.6806C176.897 62.8281 176.841 63.0354 176.841 63.3025V63.4277C176.841 63.6948 176.897 63.9021 177.008 64.0496C177.122 64.1943 177.275 64.2666 177.467 64.2666ZM173.757 60.89C173.949 60.89 174.1 60.8163 174.212 60.6688C174.323 60.5213 174.379 60.314 174.379 60.0469V59.9217C174.379 59.6546 174.323 59.4473 174.212 59.2998C174.1 59.1523 173.949 59.0786 173.757 59.0786C173.567 59.0786 173.416 59.1523 173.302 59.2998C173.19 59.4473 173.135 59.6546 173.135 59.9217V60.0469C173.135 60.314 173.19 60.5213 173.302 60.6688C173.416 60.8163 173.567 60.89 173.757 60.89Z" fill="#1340FF"/>
<path d="M184.83 60.3766V61.1029H183.933V64.7842H183.052V61.1029H182.263V60.3766H183.052V59.6629C183.052 59.3151 183.161 59.0452 183.378 58.8532C183.597 58.6612 183.906 58.5652 184.304 58.5652H184.83V59.2915H184.442C184.255 59.2915 184.123 59.3304 184.045 59.4083C183.97 59.4862 183.933 59.6184 183.933 59.8048V60.3766H184.83ZM185.498 64.7842V60.3766H186.341V61.0904H186.358C186.438 60.8483 186.565 60.6605 186.738 60.5269C186.913 60.3906 187.141 60.3224 187.422 60.3224C187.489 60.3224 187.55 60.3252 187.606 60.3307C187.661 60.3363 187.707 60.3405 187.743 60.3433V61.1655C187.71 61.1571 187.65 61.1488 187.564 61.1404C187.478 61.1293 187.383 61.1238 187.28 61.1238C187.032 61.1238 186.82 61.21 186.642 61.3825C186.466 61.555 186.379 61.8208 186.379 62.1797V64.7842H185.498ZM190.231 64.8844C189.811 64.8844 189.442 64.787 189.125 64.5922C188.808 64.3974 188.56 64.1275 188.382 63.7825C188.207 63.4374 188.119 63.0395 188.119 62.5888C188.119 62.1324 188.207 61.7317 188.382 61.3867C188.56 61.0389 188.808 60.7676 189.125 60.5728C189.442 60.3753 189.811 60.2765 190.231 60.2765C190.651 60.2765 191.018 60.3753 191.333 60.5728C191.65 60.7676 191.896 61.0389 192.072 61.3867C192.25 61.7317 192.339 62.1324 192.339 62.5888C192.339 63.0395 192.25 63.4374 192.072 63.7825C191.896 64.1275 191.65 64.3974 191.333 64.5922C191.018 64.787 190.651 64.8844 190.231 64.8844ZM190.231 64.1247C190.609 64.1247 190.907 63.9856 191.124 63.7073C191.341 63.4291 191.45 63.0562 191.45 62.5888C191.45 62.1157 191.34 61.7387 191.12 61.4577C190.903 61.1766 190.607 61.0361 190.231 61.0361C189.855 61.0361 189.558 61.1766 189.338 61.4577C189.121 61.7359 189.012 62.1129 189.012 62.5888C189.012 63.059 189.121 63.4333 189.338 63.7115C189.555 63.987 189.853 64.1247 190.231 64.1247ZM193.119 64.7842V60.3766H193.975V61.1154C194.111 60.8427 194.296 60.6368 194.53 60.4977C194.764 60.3586 195.017 60.289 195.29 60.289C195.59 60.289 195.853 60.3655 196.078 60.5186C196.307 60.6716 196.467 60.8664 196.558 61.1029C196.678 60.8636 196.859 60.6688 197.101 60.5186C197.346 60.3655 197.631 60.289 197.957 60.289C198.229 60.289 198.477 60.3488 198.7 60.4685C198.922 60.5881 199.099 60.7662 199.23 61.0027C199.36 61.2364 199.426 61.53 199.426 61.8834V64.7842H198.541V61.9585C198.541 61.6441 198.453 61.4159 198.278 61.274C198.103 61.1321 197.895 61.0611 197.656 61.0611C197.361 61.0611 197.129 61.153 196.959 61.3366C196.789 61.5175 196.705 61.7484 196.705 62.0295V64.7842H195.836V61.9001C195.836 61.6469 195.754 61.4437 195.59 61.2907C195.429 61.1377 195.223 61.0611 194.972 61.0611C194.716 61.0611 194.49 61.1516 194.292 61.3324C194.097 61.5133 194 61.7776 194 62.1255V64.7842H193.119ZM205.202 64.8844C204.632 64.8844 204.128 64.7494 203.691 64.4795C203.255 64.2096 202.914 63.8339 202.669 63.3526C202.424 62.8712 202.302 62.3133 202.302 61.6789C202.302 61.0389 202.424 60.4782 202.669 59.9968C202.914 59.5154 203.253 59.1398 203.687 58.8699C204.124 58.6 204.629 58.465 205.202 58.465C205.656 58.465 206.066 58.5541 206.434 58.7322C206.804 58.9102 207.11 59.1621 207.352 59.4876C207.594 59.8104 207.751 60.193 207.824 60.6354H206.88C206.788 60.2125 206.592 59.8869 206.292 59.6587C205.994 59.4278 205.634 59.3123 205.211 59.3123C204.802 59.3123 204.45 59.4111 204.155 59.6087C203.86 59.8062 203.632 60.0831 203.47 60.4393C203.312 60.7954 203.232 61.2086 203.232 61.6789C203.232 62.1491 203.312 62.5609 203.47 62.9143C203.629 63.2677 203.856 63.5432 204.151 63.7407C204.448 63.9383 204.802 64.0371 205.211 64.0371C205.631 64.0371 205.99 63.923 206.288 63.6948C206.588 63.4666 206.787 63.1425 206.884 62.7223H207.824C207.751 63.162 207.594 63.5446 207.352 63.8701C207.11 64.1929 206.804 64.4433 206.434 64.6214C206.066 64.7967 205.656 64.8844 205.202 64.8844ZM209.526 58.5652V64.7842H208.646V58.5652H209.526ZM211.868 64.8551C211.428 64.8551 211.064 64.7438 210.774 64.5212C210.485 64.2958 210.34 63.9633 210.34 63.5237C210.34 63.1898 210.422 62.9338 210.587 62.7557C210.754 62.5748 210.969 62.4455 211.234 62.3675C211.501 62.2896 211.783 62.2326 212.081 62.1964C212.356 62.163 212.575 62.1352 212.736 62.1129C212.898 62.0907 213.012 62.0573 213.078 62.0128C213.148 61.9683 213.183 61.8917 213.183 61.7832V61.7457C213.183 61.5314 213.105 61.3561 212.949 61.2198C212.793 61.0806 212.575 61.0111 212.294 61.0111C212.013 61.0111 211.783 61.0792 211.605 61.2156C211.427 61.3491 211.33 61.5175 211.313 61.7206H210.449C210.468 61.3004 210.645 60.9568 210.979 60.6897C211.313 60.4226 211.755 60.289 212.306 60.289C212.849 60.289 213.276 60.4226 213.588 60.6897C213.899 60.9568 214.055 61.3144 214.055 61.7623V64.7842H213.187V64.1581H213.17C213.078 64.3362 212.932 64.4976 212.732 64.6423C212.534 64.7842 212.246 64.8551 211.868 64.8551ZM212.047 64.1456C212.437 64.1456 212.724 64.0454 212.907 63.8451C213.094 63.6419 213.187 63.4054 213.187 63.1355V62.618C213.128 62.6653 212.996 62.7084 212.79 62.7474C212.584 62.7835 212.365 62.8183 212.131 62.8517C211.889 62.8879 211.676 62.9561 211.492 63.0562C211.309 63.1564 211.217 63.3178 211.217 63.5404C211.217 63.7296 211.291 63.8785 211.438 63.987C211.588 64.0927 211.791 64.1456 212.047 64.1456ZM216.643 64.8718C216.342 64.8718 216.071 64.8064 215.829 64.6757C215.59 64.5421 215.399 64.3459 215.257 64.0872C215.118 63.8284 215.048 63.507 215.048 63.123V60.3766H215.929V63.0145C215.929 63.3679 216.014 63.635 216.184 63.8159C216.353 63.9939 216.591 64.083 216.897 64.083C217.195 64.083 217.446 63.9912 217.649 63.8075C217.855 63.6211 217.958 63.3233 217.958 62.9143V60.3766H218.838V64.7842H217.974V64.1205C217.674 64.6214 217.23 64.8718 216.643 64.8718ZM221.526 64.8718C221.142 64.8718 220.807 64.7758 220.52 64.5838C220.234 64.3891 220.011 64.1205 219.852 63.7783C219.694 63.4333 219.615 63.034 219.615 62.5804C219.615 62.1269 219.694 61.729 219.852 61.3867C220.014 61.0417 220.238 60.7732 220.524 60.5812C220.811 60.3864 221.144 60.289 221.522 60.289C221.809 60.289 222.07 60.3488 222.307 60.4685C222.543 60.5881 222.732 60.7704 222.874 61.0152H222.883V58.5652H223.763V64.7842H222.899V64.1122H222.891C222.744 64.3682 222.55 64.5588 222.311 64.684C222.074 64.8092 221.813 64.8718 221.526 64.8718ZM221.706 64.1122C222.081 64.1122 222.38 63.9731 222.603 63.6948C222.828 63.4138 222.941 63.0423 222.941 62.5804C222.941 62.1157 222.828 61.7443 222.603 61.466C222.38 61.185 222.081 61.0445 221.706 61.0445C221.349 61.0445 221.06 61.1766 220.837 61.441C220.618 61.7025 220.508 62.0823 220.508 62.5804C220.508 63.0785 220.618 63.4583 220.837 63.7199C221.06 63.9814 221.349 64.1122 221.706 64.1122ZM226.639 64.8844C226.202 64.8844 225.827 64.7856 225.512 64.588C225.2 64.3905 224.96 64.1192 224.79 63.7741C224.623 63.4263 224.54 63.0312 224.54 62.5888C224.54 62.1408 224.627 61.7429 224.803 61.3951C224.978 61.0472 225.22 60.7745 225.529 60.577C225.838 60.3766 226.192 60.2765 226.593 60.2765C227.011 60.2765 227.372 60.3739 227.678 60.5686C227.987 60.7634 228.227 61.0347 228.396 61.3825C228.566 61.7276 228.651 62.1269 228.651 62.5804V62.8183H225.408C225.424 63.2162 225.539 63.5376 225.75 63.7825C225.964 64.0273 226.265 64.1498 226.652 64.1498C226.941 64.1498 227.179 64.0844 227.365 63.9536C227.552 63.8228 227.676 63.6531 227.737 63.4444H228.584C228.531 63.7282 228.413 63.9786 228.229 64.1957C228.048 64.4127 227.82 64.5824 227.545 64.7049C227.272 64.8245 226.97 64.8844 226.639 64.8844ZM225.416 62.1505H227.791C227.755 61.7999 227.631 61.523 227.42 61.3199C227.208 61.114 226.935 61.0111 226.602 61.0111C226.268 61.0111 225.995 61.114 225.783 61.3199C225.575 61.523 225.452 61.7999 225.416 62.1505Z" fill="#636366"/>
<path d="M165.057 79.4277V73.2088H166.364L167.758 76.8525C167.813 77.0111 167.886 77.2198 167.975 77.4786C168.064 77.7346 168.144 77.9711 168.217 78.1881C168.286 77.9711 168.366 77.7346 168.455 77.4786C168.544 77.2198 168.616 77.0111 168.672 76.8525L170.045 73.2088H171.355V79.4277H170.446V76.0386C170.446 75.816 170.448 75.5572 170.454 75.2623C170.459 74.9645 170.466 74.6682 170.475 74.3733C170.361 74.7099 170.252 75.0272 170.149 75.3249C170.049 75.6226 169.966 75.8605 169.899 76.0386L168.588 79.4277H167.829L166.505 76.0386C166.441 75.8689 166.359 75.6449 166.259 75.3666C166.162 75.0856 166.056 74.7837 165.942 74.4609C165.95 74.7447 165.957 75.0258 165.963 75.304C165.968 75.5823 165.971 75.8271 165.971 76.0386V79.4277H165.057ZM174.319 79.5279C173.899 79.5279 173.53 79.4305 173.213 79.2357C172.896 79.041 172.648 78.7711 172.47 78.426C172.295 78.081 172.207 77.6831 172.207 77.2323C172.207 76.776 172.295 76.3753 172.47 76.0303C172.648 75.6824 172.896 75.4111 173.213 75.2164C173.53 75.0188 173.899 74.92 174.319 74.92C174.739 74.92 175.106 75.0188 175.421 75.2164C175.738 75.4111 175.984 75.6824 176.159 76.0303C176.338 76.3753 176.427 76.776 176.427 77.2323C176.427 77.6831 176.338 78.081 176.159 78.426C175.984 78.7711 175.738 79.041 175.421 79.2357C175.106 79.4305 174.739 79.5279 174.319 79.5279ZM174.319 78.7683C174.697 78.7683 174.995 78.6291 175.212 78.3509C175.429 78.0726 175.538 77.6998 175.538 77.2323C175.538 76.7593 175.428 76.3822 175.208 76.1012C174.991 75.8202 174.694 75.6797 174.319 75.6797C173.943 75.6797 173.645 75.8202 173.426 76.1012C173.209 76.3795 173.1 76.7565 173.1 77.2323C173.1 77.7026 173.209 78.0768 173.426 78.3551C173.643 78.6305 173.94 78.7683 174.319 78.7683ZM177.207 79.4277V75.0202H178.05V75.7339H178.067C178.148 75.4918 178.274 75.304 178.447 75.1705C178.622 75.0341 178.85 74.9659 179.131 74.9659C179.198 74.9659 179.259 74.9687 179.315 74.9743C179.37 74.9799 179.416 74.984 179.453 74.9868V75.809C179.419 75.8007 179.359 75.7924 179.273 75.784C179.187 75.7729 179.092 75.7673 178.989 75.7673C178.742 75.7673 178.529 75.8536 178.351 76.0261C178.175 76.1986 178.088 76.4643 178.088 76.8233V79.4277H177.207ZM181.969 81.2308C181.43 81.2308 180.989 81.1112 180.646 80.8719C180.304 80.6326 180.104 80.2973 180.045 79.866H180.926C180.982 80.0802 181.103 80.2416 181.289 80.3501C181.475 80.4587 181.702 80.5129 181.969 80.5129C182.326 80.5129 182.604 80.4169 182.804 80.2249C183.004 80.0329 183.105 79.7589 183.105 79.4027V78.7349H183.1C182.947 78.9909 182.754 79.1801 182.52 79.3025C182.289 79.425 182.029 79.4862 181.74 79.4862C181.356 79.4862 181.021 79.3902 180.734 79.1982C180.447 79.0034 180.225 78.7363 180.066 78.3968C179.908 78.0546 179.828 77.6594 179.828 77.2114C179.828 76.7635 179.908 76.3683 180.066 76.0261C180.228 75.6838 180.452 75.4167 180.738 75.2247C181.025 75.0299 181.357 74.9325 181.736 74.9325C182.022 74.9325 182.285 74.9938 182.525 75.1162C182.764 75.2386 182.957 75.4306 183.105 75.6922H183.109V75.0202H183.977V79.3693C183.977 79.8145 183.887 80.1735 183.706 80.4461C183.525 80.7188 183.283 80.9178 182.979 81.043C182.676 81.1682 182.339 81.2308 181.969 81.2308ZM181.919 78.7307C182.295 78.7307 182.594 78.593 182.817 78.3175C183.042 78.0392 183.155 77.6692 183.155 77.2073C183.155 76.7454 183.042 76.3767 182.817 76.1012C182.594 75.823 182.295 75.6838 181.919 75.6838C181.563 75.6838 181.274 75.8146 181.051 76.0762C180.831 76.3349 180.721 76.712 180.721 77.2073C180.721 77.7026 180.831 78.081 181.051 78.3425C181.274 78.6013 181.563 78.7307 181.919 78.7307ZM186.314 79.4987C185.875 79.4987 185.51 79.3874 185.221 79.1648C184.931 78.9394 184.787 78.6069 184.787 78.1672C184.787 77.8333 184.869 77.5773 185.033 77.3993C185.2 77.2184 185.416 77.089 185.68 77.0111C185.947 76.9332 186.229 76.8761 186.527 76.84C186.803 76.8066 187.021 76.7788 187.182 76.7565C187.344 76.7342 187.458 76.7008 187.525 76.6563C187.594 76.6118 187.629 76.5353 187.629 76.4268V76.3892C187.629 76.175 187.551 75.9997 187.395 75.8633C187.24 75.7242 187.021 75.6546 186.74 75.6546C186.459 75.6546 186.229 75.7228 186.051 75.8591C185.873 75.9927 185.776 76.161 185.759 76.3642H184.895C184.915 75.944 185.091 75.6004 185.425 75.3332C185.759 75.0661 186.202 74.9325 186.753 74.9325C187.295 74.9325 187.722 75.0661 188.034 75.3332C188.346 75.6004 188.501 75.9579 188.501 76.4059V79.4277H187.633V78.8017H187.617C187.525 78.9797 187.379 79.1411 187.178 79.2858C186.981 79.4277 186.693 79.4987 186.314 79.4987ZM186.494 78.7891C186.883 78.7891 187.17 78.689 187.354 78.4886C187.54 78.2855 187.633 78.049 187.633 77.7791V77.2615C187.575 77.3088 187.443 77.352 187.237 77.3909C187.031 77.4271 186.811 77.4619 186.577 77.4953C186.335 77.5314 186.122 77.5996 185.939 77.6998C185.755 77.8 185.663 77.9613 185.663 78.1839C185.663 78.3732 185.737 78.522 185.884 78.6305C186.035 78.7363 186.238 78.7891 186.494 78.7891ZM190.375 76.8901V79.4277H189.495V75.0202H190.359V75.6838C190.659 75.183 191.103 74.9325 191.69 74.9325C191.993 74.9325 192.265 74.9993 192.504 75.1329C192.746 75.2637 192.937 75.4584 193.076 75.7172C193.215 75.976 193.285 76.2974 193.285 76.6814V79.4277H192.404V76.7899C192.404 76.4365 192.319 76.1708 192.149 75.9927C191.98 75.8118 191.743 75.7214 191.44 75.7214C191.139 75.7214 190.886 75.8146 190.68 76.001C190.477 76.1847 190.375 76.481 190.375 76.8901Z" fill="#636366"/>
<path d="M240.179 44.4078C240.179 42.0473 242.092 40.1338 244.453 40.1338H278.11C280.471 40.1338 282.384 42.0473 282.384 44.4078V78.0653C282.384 80.4258 280.471 82.3393 278.11 82.3393H244.453C242.092 82.3393 240.179 80.4258 240.179 78.0653V44.4078Z" fill="#1340FF"/>
<path d="M253.967 65.8615C253.37 65.8615 252.834 65.7384 252.358 65.4922C251.882 65.2417 251.502 64.9037 251.219 64.4779C250.935 64.0522 250.78 63.5701 250.755 63.0317H251.882C251.932 63.5618 252.149 64 252.533 64.3465C252.921 64.6887 253.399 64.8598 253.967 64.8598C254.372 64.8598 254.725 64.7659 255.025 64.5781C255.33 64.3903 255.568 64.1336 255.739 63.808C255.91 63.4783 255.995 63.1027 255.995 62.6811C255.995 62.2595 255.914 61.886 255.751 61.5604C255.588 61.2349 255.361 60.9803 255.069 60.7966C254.777 60.6088 254.437 60.5149 254.048 60.5149C253.535 60.5149 253.095 60.6192 252.727 60.8279C252.36 61.0325 252.103 61.333 251.957 61.7295H250.874L251.187 56.4079H256.571V57.4096H252.208L251.982 60.4335H251.995C252.575 59.8116 253.305 59.5007 254.186 59.5007C254.758 59.5007 255.261 59.6363 255.695 59.9076C256.133 60.1789 256.473 60.5525 256.715 61.0283C256.962 61.5041 257.085 62.0509 257.085 62.6686C257.085 63.2947 256.953 63.8477 256.69 64.3277C256.432 64.8077 256.068 65.1833 255.601 65.4546C255.134 65.7259 254.589 65.8615 253.967 65.8615ZM261.161 65.8866C260.351 65.8866 259.683 65.6591 259.157 65.2042C258.635 64.7492 258.331 64.1503 258.243 63.4073H259.345C259.433 63.8581 259.627 64.2171 259.927 64.4842C260.228 64.7513 260.614 64.8849 261.085 64.8849C261.624 64.8849 262.068 64.7304 262.419 64.4216C262.774 64.1127 263.039 63.687 263.214 63.1444C263.389 62.6018 263.477 61.9841 263.477 61.2912H263.464C263.252 61.6502 262.936 61.9298 262.519 62.1302C262.106 62.3305 261.649 62.4307 261.148 62.4307C260.589 62.4307 260.088 62.2992 259.645 62.0363C259.203 61.7691 258.854 61.4039 258.6 60.9406C258.345 60.4773 258.218 59.9514 258.218 59.3629C258.218 58.7494 258.349 58.2089 258.612 57.7414C258.88 57.2739 259.247 56.9108 259.714 56.652C260.186 56.3891 260.726 56.2576 261.336 56.2576C262.371 56.2576 263.17 56.6416 263.734 57.4096C264.297 58.1776 264.579 59.2669 264.579 60.6777C264.579 61.7211 264.456 62.6352 264.209 63.4199C263.967 64.2004 263.594 64.8077 263.089 65.2417C262.584 65.6716 261.941 65.8866 261.161 65.8866ZM261.298 61.429C261.678 61.429 262.022 61.3371 262.331 61.1535C262.64 60.9698 262.886 60.7215 263.07 60.4085C263.258 60.0913 263.352 59.7386 263.352 59.3504C263.352 58.9581 263.26 58.6054 263.076 58.2923C262.897 57.9751 262.655 57.7247 262.35 57.5411C262.045 57.3532 261.707 57.2593 261.336 57.2593C260.96 57.2593 260.618 57.3532 260.309 57.5411C260.004 57.7247 259.76 57.9751 259.577 58.2923C259.397 58.6096 259.307 58.9664 259.307 59.3629C259.307 59.7553 259.395 60.108 259.57 60.421C259.746 60.7299 259.984 60.9761 260.284 61.1598C260.589 61.3392 260.927 61.429 261.298 61.429ZM266.069 65.7363V56.4079H267.196V61.1911C267.459 60.8989 267.724 60.6088 267.991 60.3208C268.258 60.0328 268.527 59.7427 268.799 59.4506L271.628 56.4079H273.118L269.331 60.446L273.118 65.7363H271.785L268.554 61.2161L267.196 62.6811V65.7363H266.069Z" fill="white"/>
</g>
<defs>
<filter id="filter0_d_8072_142222" x="153.363" y="30.25" width="139.438" height="66.2466" filterUnits="userSpaceOnUse" color-interpolation-filters="sRGB">
<feFlood flood-opacity="0" result="BackgroundImageFix"/>
<feColorMatrix in="SourceAlpha" type="matrix" values="0 0 0 0 0 0 0 0 0 0 0 0 0 0 0 0 0 0 127 0" result="hardAlpha"/>
<feOffset dy="2.13699"/>
<feGaussianBlur stdDeviation="1.06849"/>
<feComposite in2="hardAlpha" operator="out"/>
<feColorMatrix type="matrix" values="0 0 0 0 0.556863 0 0 0 0 0.556863 0 0 0 0 0.576471 0 0 0 0.25 0"/>
<feBlend mode="normal" in2="BackgroundImageFix" result="effect1_dropShadow_8072_142222"/>
<feBlend mode="normal" in="SourceGraphic" in2="effect1_dropShadow_8072_142222" result="shape"/>
</filter>
<linearGradient id="paint0_linear_8072_142222" x1="160.965" y1="0.307617" x2="160.965" y2="240.365" gradientUnits="userSpaceOnUse">
<stop stop-color="#8A5AFE"/>
<stop offset="1" stop-color="#533698" stop-opacity="0"/>
</linearGradient>
</defs>
</svg>
