<svg width="19" height="18" viewBox="0 0 19 18" fill="none" xmlns="http://www.w3.org/2000/svg">
<path d="M8.35352 1.42822C8.81865 0.523864 10.111 0.523865 10.5762 1.42822L11.9971 4.19092C12.4061 4.98656 13.1765 5.53404 14.0625 5.65771L17.1006 6.08154C18.1414 6.22693 18.5493 7.5137 17.7822 8.23193L15.6895 10.1899C15.0095 10.8265 14.6975 11.7642 14.8613 12.6812L15.3701 15.5249C15.551 16.5391 14.496 17.3241 13.5762 16.8599L10.7041 15.4106C9.92487 15.0174 9.00482 15.0174 8.22559 15.4106L5.35352 16.8599C4.43371 17.3241 3.37872 16.5391 3.55957 15.5249L4.06836 12.6812C4.23216 11.7642 3.92023 10.8265 3.24023 10.1899L1.14746 8.23193C0.380403 7.5137 0.788335 6.22692 1.8291 6.08154L4.86719 5.65771C5.75321 5.53404 6.52358 4.98656 6.93262 4.19092L8.35352 1.42822Z" stroke="#231F20" stroke-width="1.5"/>
</svg>
