<svg width="19" height="19" viewBox="0 0 19 19" fill="none" xmlns="http://www.w3.org/2000/svg">
<path d="M8.34131 1.46777C8.79163 0.510656 10.1527 0.510657 10.603 1.46777L12.3608 5.2041C12.6456 5.80943 13.1416 6.29047 13.7554 6.55664L17.4419 8.15527C18.4452 8.59054 18.4452 10.013 17.4419 10.4482L13.7554 12.0469C13.1416 12.313 12.6456 12.7941 12.3608 13.3994L10.603 17.1357C10.1527 18.0929 8.79163 18.0929 8.34131 17.1357L6.5835 13.3994C6.29871 12.7941 5.8027 12.313 5.18896 12.0469L1.50244 10.4482C0.499115 10.013 0.499115 8.59054 1.50244 8.15527L5.18896 6.55664C5.8027 6.29047 6.29871 5.80943 6.5835 5.2041L8.34131 1.46777Z" stroke="#231F20" stroke-width="1.5"/>
</svg>
