<svg width="19" height="21" viewBox="0 0 19 21" fill="none" xmlns="http://www.w3.org/2000/svg">
<path d="M8.4458 1.31836C8.93879 0.560518 10.0485 0.560517 10.5415 1.31836L12.0464 3.63184C12.5361 4.3846 13.3627 4.85096 14.2603 4.88086L17.0259 4.97266C17.9596 5.00372 18.5305 6.01098 18.0776 6.82812L16.8745 8.99902C16.4151 9.82818 16.4151 10.8359 16.8745 11.665L18.0776 13.8359C18.5305 14.6531 17.9596 15.6603 17.0259 15.6914L14.2603 15.7832C13.3627 15.8131 12.5361 16.2795 12.0464 17.0322L10.5415 19.3457C10.0485 20.1035 8.93879 20.1035 8.4458 19.3457L6.94092 17.0322C6.45123 16.2795 5.62458 15.8131 4.72705 15.7832L1.96143 15.6914C1.0277 15.6603 0.456792 14.6531 0.909668 13.8359L2.11279 11.665C2.57222 10.8359 2.57222 9.82818 2.11279 8.99902L0.909668 6.82812C0.456793 6.01099 1.0277 5.00372 1.96143 4.97266L4.72705 4.88086C5.62458 4.85096 6.45123 4.3846 6.94092 3.63184L8.4458 1.31836Z" stroke="#231F20" stroke-width="1.5"/>
</svg>
