<svg width="563" height="507" viewBox="0 0 563 507" fill="none" xmlns="http://www.w3.org/2000/svg">
<g filter="url(#filter0_d_8175_27568)">
<rect width="400" height="400" transform="translate(123.439 40.0723) rotate(4)" fill="white"/>
<path d="M181.683 134.485L175.794 134.073L174.756 148.917L172.697 148.773L173.735 133.929L167.845 133.517L167.962 131.842L181.801 132.809L181.683 134.485ZM193.192 140.847C193.195 141.497 193.16 142 193.088 143.03L192.589 150.164L190.53 150.02L191.019 143.029C191.064 142.383 191.101 141.856 191.098 141.206C191.082 139.714 190.349 138.507 188.382 138.418C186.392 138.327 184.615 139.646 184.312 143.98L183.922 149.558L181.863 149.414L183.102 131.697L185.161 131.841L184.657 139.048L185.549 137.643C186.685 136.88 187.634 136.73 188.927 136.82C191.704 137.014 193.157 138.608 193.192 140.847ZM206.939 144.431C206.925 144.623 206.902 144.958 206.822 145.409L197.628 144.766C197.586 148.132 199.087 149.367 200.955 149.498C202.606 149.614 204.019 148.678 204.434 146.878L206.588 147.029C205.871 150.058 203.358 151.254 200.748 151.071C197.444 150.84 195.129 148.513 195.442 144.036C195.73 139.918 198.474 137.488 201.946 137.73C205.441 137.975 207.198 140.72 206.939 144.431ZM201.787 139.307C199.776 139.167 198.192 140.499 197.763 143.188L204.897 143.687C204.89 141.04 203.87 139.453 201.787 139.307ZM221.499 139.074C221.882 139.101 222.144 139.143 222.426 139.235L222.24 141.892C219.501 141.508 218.051 142.634 217.811 146.057L217.403 151.899L214.099 151.668L214.989 138.931L218.293 139.162L218.131 141.485L219.26 139.783C219.923 139.252 220.781 139.024 221.499 139.074ZM235.104 146.473C235.083 146.784 235.056 147.167 234.978 147.595L225.928 146.962C225.956 149.658 227.094 150.58 228.627 150.687C230.039 150.786 231.124 150.068 231.435 148.718L234.739 148.949C233.885 151.873 231.385 153.214 228.392 153.005C224.897 152.76 222.344 150.392 222.657 145.915C222.93 142.013 225.691 139.343 229.593 139.616C233.496 139.889 235.347 143.001 235.104 146.473ZM229.287 141.928C227.755 141.821 226.609 142.727 226.174 144.814L231.777 145.206C231.702 143.179 230.867 142.038 229.287 141.928ZM242.381 140.51C245.422 140.722 247.026 142.543 247.151 144.885L243.847 144.654C243.714 143.466 243.114 142.75 242.013 142.673C241.032 142.605 240.465 143.143 240.409 143.933C240.342 144.89 241.097 145.448 243.167 146.122C245.73 146.975 247.189 148.136 247.025 150.482C246.846 153.044 244.436 154.126 241.515 153.922C238.427 153.706 236.342 152.213 236.184 149.315L239.488 149.546C239.654 150.953 240.566 151.666 241.716 151.747C242.769 151.82 243.615 151.423 243.68 150.489C243.749 149.507 242.949 148.898 240.785 148.193C238.457 147.429 236.901 146.286 237.055 144.083C237.226 141.641 239.34 140.297 242.381 140.51ZM257.298 141.553C260.866 141.802 262.783 144.655 262.52 148.414C262.199 153.011 259.21 155.159 255.93 154.93C254.876 154.856 253.602 154.503 252.987 154.003L252.241 152.627L251.794 159.02L248.49 158.789L249.709 141.359L253.013 141.59L252.878 143.529L253.932 142.208C254.691 141.683 256.005 141.463 257.298 141.553ZM255.446 152.563C257.361 152.697 258.876 151.335 259.082 148.39C259.264 145.78 258.141 143.946 256.178 143.808C254.359 143.681 252.796 144.703 252.578 147.815L252.536 148.414C252.334 151.31 253.913 152.455 255.446 152.563ZM270.863 142.502C275.101 142.798 277.273 145.789 277.002 149.667C276.733 153.522 274.163 156.205 269.925 155.909C265.688 155.612 263.517 152.598 263.786 148.743C264.058 144.865 266.625 142.205 270.863 142.502ZM270.088 153.586C272.075 153.725 273.388 152.157 273.578 149.428C273.771 146.675 272.688 144.963 270.701 144.824C268.713 144.685 267.403 146.229 267.21 148.983C267.019 151.712 268.101 153.448 270.088 153.586ZM291.262 147.513C291.288 148.164 291.267 148.812 291.195 149.842L290.693 157.024L287.389 156.793L287.859 150.066C287.896 149.539 287.938 148.94 287.935 148.291C287.933 146.943 287.255 145.981 285.651 145.869C284.047 145.757 282.681 147.057 282.433 150.6L282.026 156.418L278.722 156.187L279.613 143.45L282.917 143.681L282.773 145.74L283.86 144.301C284.815 143.718 285.765 143.544 286.986 143.629C289.692 143.818 291.154 145.268 291.262 147.513ZM299.055 144.473C302.096 144.686 303.701 146.506 303.826 148.848L300.522 148.617C300.388 147.429 299.789 146.714 298.687 146.637C297.706 146.568 297.139 147.106 297.084 147.896C297.017 148.853 297.771 149.411 299.842 150.085C302.404 150.938 303.863 152.099 303.699 154.445C303.52 157.007 301.11 158.089 298.189 157.885C295.101 157.669 293.016 156.176 292.858 153.278L296.162 153.509C296.328 154.916 297.24 155.63 298.39 155.71C299.443 155.784 300.289 155.386 300.354 154.452C300.423 153.47 299.623 152.861 297.459 152.156C295.131 151.392 293.575 150.249 293.729 148.046C293.9 145.604 296.015 144.26 299.055 144.473ZM308.367 140.697C309.444 140.773 310.136 141.543 310.064 142.572C309.991 143.626 309.2 144.268 308.122 144.193C307.045 144.117 306.351 143.371 306.425 142.318C306.497 141.288 307.289 140.622 308.367 140.697ZM308.797 158.29L305.493 158.059L306.383 145.322L309.687 145.553L308.797 158.29ZM324.809 146.611L318.987 159.003L315.3 158.745L311.235 145.661L314.898 145.918L317.389 156.389L321.242 146.361L324.809 146.611ZM337.02 153.599C336.998 153.911 336.971 154.294 336.893 154.721L327.843 154.088C327.871 156.785 329.009 157.707 330.542 157.814C331.954 157.913 333.039 157.195 333.35 155.845L336.654 156.076C335.8 158.999 333.3 160.34 330.308 160.131C326.812 159.887 324.259 157.519 324.572 153.042C324.845 149.139 327.606 146.469 331.508 146.742C335.411 147.015 337.262 150.128 337.02 153.599ZM331.202 149.055C329.67 148.947 328.524 149.854 328.089 151.94L333.692 152.332C333.617 150.306 332.783 149.165 331.202 149.055ZM351.373 151.716C351.399 152.368 351.378 153.016 351.306 154.045L350.804 161.228L347.5 160.997L347.97 154.269C348.007 153.742 348.049 153.144 348.046 152.494C348.044 151.146 347.366 150.185 345.762 150.073C344.158 149.96 342.792 151.26 342.544 154.804L342.137 160.622L338.833 160.39L339.724 147.654L343.028 147.885L342.884 149.944L343.971 148.504C344.926 147.921 345.876 147.747 347.097 147.832C349.803 148.022 351.265 149.471 351.373 151.716ZM365.731 155.607C365.709 155.918 365.682 156.301 365.604 156.729L356.554 156.096C356.582 158.793 357.721 159.714 359.253 159.821C360.665 159.92 361.75 159.202 362.061 157.853L365.365 158.084C364.511 161.007 362.011 162.348 359.019 162.139C355.523 161.894 352.97 159.527 353.283 155.049C353.556 151.147 356.317 148.477 360.22 148.75C364.122 149.023 365.973 152.136 365.731 155.607ZM359.914 151.062C358.381 150.955 357.235 151.861 356.801 153.948L362.403 154.34C362.328 152.314 361.494 151.173 359.914 151.062ZM373.007 149.644C376.048 149.857 377.653 151.677 377.778 154.02L374.474 153.789C374.34 152.6 373.741 151.885 372.64 151.808C371.658 151.739 371.091 152.277 371.036 153.067C370.969 154.025 371.724 154.583 373.794 155.257C376.356 156.11 377.815 157.27 377.651 159.616C377.472 162.178 375.062 163.261 372.142 163.056C369.053 162.84 366.968 161.347 366.81 158.449L370.114 158.68C370.28 160.087 371.193 160.801 372.342 160.881C373.395 160.955 374.241 160.557 374.306 159.623C374.375 158.641 373.576 158.032 371.411 157.328C369.083 156.563 367.527 155.42 367.681 153.217C367.852 150.775 369.967 149.432 373.007 149.644ZM384.908 150.476C387.949 150.689 389.553 152.509 389.678 154.852L386.374 154.621C386.241 153.433 385.641 152.717 384.54 152.64C383.559 152.571 382.992 153.109 382.936 153.899C382.869 154.857 383.624 155.415 385.694 156.089C388.257 156.942 389.716 158.102 389.552 160.449C389.373 163.01 386.963 164.093 384.042 163.889C380.954 163.673 378.869 162.18 378.711 159.281L382.015 159.513C382.181 160.92 383.093 161.633 384.242 161.713C385.296 161.787 386.142 161.389 386.207 160.455C386.276 159.474 385.476 158.864 383.312 158.16C380.984 157.395 379.428 156.252 379.582 154.049C379.752 151.607 381.867 150.264 384.908 150.476ZM402.93 151.785C407.239 152.086 409.011 155.313 408.76 158.905C408.51 162.472 406.305 165.445 401.996 165.144C397.686 164.843 395.917 161.591 396.166 158.024C396.417 154.433 398.62 151.483 402.93 151.785ZM402.106 163.564C404.668 163.743 406.301 161.716 406.509 158.747C406.718 155.755 405.381 153.544 402.819 153.365C400.258 153.186 398.626 155.189 398.417 158.181C398.209 161.15 399.545 163.385 402.106 163.564ZM414.089 150.448C414.018 150.78 413.952 151.377 413.927 151.736L413.84 152.981L416.449 153.163L416.339 154.743L413.729 154.561L412.959 165.574L410.9 165.43L411.67 154.417L410.305 154.321L410.416 152.741L411.781 152.837L411.854 151.783C411.888 151.304 411.955 150.684 412.033 150.256C412.378 148.428 413.695 147.485 415.586 147.617C416.113 147.654 416.612 147.737 417.038 147.839L416.919 149.539C415.383 149.143 414.328 149.43 414.089 150.448ZM426.151 155.429L425.641 162.732C425.611 163.163 425.596 163.378 425.596 163.715C425.606 164.943 426.091 165.241 427.708 165.162L427.603 166.67C426.998 166.724 426.421 166.708 425.847 166.668C424.267 166.557 423.498 165.854 423.489 164.265C423.488 163.928 423.525 163.402 423.575 162.683L424.092 155.285L422.393 155.167L422.503 153.586L424.203 153.705L424.409 150.76L426.468 150.904L426.262 153.849L428.632 154.015L428.522 155.595L426.151 155.429ZM441.75 158.228C441.752 158.878 441.717 159.381 441.645 160.41L441.146 167.545L439.087 167.401L439.576 160.41C439.621 159.764 439.658 159.237 439.655 158.587C439.64 157.094 438.906 155.888 436.939 155.799C434.949 155.708 433.173 157.027 432.869 161.36L432.479 166.939L430.42 166.795L431.659 149.078L433.718 149.222L433.214 156.429L434.107 155.023C435.243 154.261 436.191 154.111 437.484 154.201C440.261 154.395 441.714 155.988 441.75 158.228ZM455.496 161.812C455.482 162.003 455.459 162.339 455.379 162.79L446.186 162.147C446.143 165.512 447.644 166.748 449.512 166.879C451.164 166.994 452.576 166.059 452.991 164.259L455.146 164.41C454.429 167.439 451.915 168.635 449.305 168.452C446.001 168.221 443.686 165.894 443.999 161.417C444.287 157.299 447.031 154.869 450.503 155.111C453.998 155.356 455.755 158.101 455.496 161.812ZM450.345 156.688C448.333 156.547 446.749 157.88 446.32 160.569L453.455 161.068C453.447 158.421 452.427 156.834 450.345 156.688ZM169.048 165.519L168.537 172.822C168.507 173.252 168.492 173.468 168.493 173.805C168.503 175.032 168.987 175.331 170.605 175.252L170.499 176.76C169.894 176.814 169.318 176.798 168.743 176.757C167.163 176.647 166.394 175.944 166.385 174.355C166.384 174.018 166.421 173.492 166.472 172.773L166.989 165.375L165.289 165.256L165.4 163.676L167.099 163.795L167.305 160.85L169.364 160.994L169.158 163.939L171.529 164.105L171.418 165.685L169.048 165.519ZM183.896 170.888C183.883 171.08 183.859 171.415 183.78 171.866L174.586 171.224C174.543 174.589 176.045 175.825 177.912 175.955C179.564 176.071 180.977 175.135 181.391 173.335L183.546 173.486C182.829 176.515 180.316 177.711 177.706 177.529C174.402 177.298 172.087 174.97 172.4 170.493C172.688 166.375 175.432 163.945 178.903 164.188C182.399 164.432 184.156 167.177 183.896 170.888ZM178.745 165.764C176.734 165.624 175.149 166.956 174.721 169.645L181.855 170.144C181.848 167.497 180.828 165.91 178.745 165.764ZM193.431 178.291L193.343 176.457L192.553 177.773C191.649 178.311 190.535 178.426 189.313 178.34C187.015 178.18 185.308 176.785 185.472 174.439C185.673 171.566 187.932 170.232 192.912 170.58L193.726 170.637L193.749 170.302C193.788 169.751 193.823 169.249 193.808 168.766C193.795 167.587 193.178 166.774 191.478 166.655C189.754 166.534 188.827 167.408 188.561 169.145L186.406 168.995C186.787 166.303 188.787 164.879 191.588 165.075C194.605 165.286 195.785 166.643 195.855 168.741C195.868 169.247 195.848 169.871 195.81 170.422L195.477 175.186C195.41 176.144 195.397 177.009 195.49 178.435L193.431 178.291ZM190.118 176.809C192.034 176.943 193.367 175.761 193.528 173.462L193.618 172.169C190.141 171.662 187.887 172.25 187.735 174.429C187.627 175.961 188.562 176.7 190.118 176.809ZM216.445 169.916C216.496 170.569 216.485 171.074 216.413 172.103L215.87 179.86L213.811 179.716L214.287 172.917C214.365 171.792 214.39 171.096 214.363 170.444C214.272 168.994 213.411 168.237 211.974 168.136C210.37 168.024 209.109 169.211 208.839 173.065L208.4 179.338L206.341 179.194L206.817 172.395C206.896 171.269 206.92 170.573 206.894 169.922C206.802 168.472 205.941 167.714 204.505 167.614C202.901 167.502 201.639 168.688 201.369 172.543L200.931 178.816L198.872 178.672L199.759 165.983L201.818 166.127L201.689 167.97L202.603 166.591C203.287 166.109 204.212 165.957 205.337 166.036C207.276 166.172 208.452 167.24 208.834 168.662L210.073 167.113C210.756 166.631 211.681 166.48 212.807 166.558C215.081 166.717 216.28 168.148 216.445 169.916ZM242.286 168.957L237.353 181.363L234.911 181.192L232.832 170.316L229.26 180.797L226.818 180.626L223.66 167.654L226.03 167.82L228.225 178.752L231.752 168.22L234.314 168.399L236.394 179.251L240.083 168.803L242.286 168.957ZM250.596 182.289L250.508 180.454L249.718 181.77C248.814 182.308 247.7 182.423 246.479 182.338C244.18 182.177 242.473 180.782 242.637 178.436C242.838 175.563 245.097 174.229 250.077 174.578L250.891 174.635L250.914 174.299C250.953 173.749 250.988 173.246 250.973 172.764C250.96 171.584 250.343 170.771 248.643 170.652C246.919 170.532 245.992 171.405 245.726 173.143L243.571 172.992C243.952 170.3 245.952 168.876 248.753 169.072C251.77 169.283 252.95 170.641 253.02 172.739C253.033 173.245 253.013 173.869 252.975 174.419L252.642 179.184C252.575 180.141 252.562 181.007 252.655 182.433L250.596 182.289ZM247.283 180.806C249.199 180.94 250.532 179.758 250.693 177.46L250.784 176.167C247.306 175.659 245.052 176.247 244.9 178.426C244.792 179.958 245.727 180.697 247.283 180.806ZM260.634 169.903C263.484 170.102 264.926 171.839 265.027 174.18L262.872 174.029C262.689 172.524 261.841 171.575 260.356 171.471C258.92 171.371 258.194 172.114 258.117 173.215C258.029 174.484 259.047 175.061 260.739 175.636C263.606 176.606 264.914 177.853 264.764 180.007C264.596 182.402 262.478 183.456 259.796 183.269C257.186 183.086 255.283 181.75 255.101 178.851L257.256 179.001C257.462 180.868 258.59 181.597 260.05 181.699C261.415 181.794 262.56 181.249 262.645 180.028C262.73 178.807 261.914 178.1 259.823 177.376C257.592 176.595 255.838 175.534 255.994 173.307C256.156 170.985 258.025 169.72 260.634 169.903ZM283.957 177.957C283.935 178.269 283.908 178.652 283.83 179.079L274.78 178.446C274.808 181.143 275.947 182.065 277.479 182.172C278.892 182.27 279.976 181.552 280.287 180.203L283.591 180.434C282.737 183.357 280.237 184.698 277.245 184.489C273.749 184.245 271.196 181.877 271.509 177.4C271.782 173.497 274.543 170.827 278.446 171.1C282.348 171.373 284.2 174.486 283.957 177.957ZM278.14 173.412C276.607 173.305 275.461 174.212 275.027 176.298L280.629 176.69C280.554 174.664 279.72 173.523 278.14 173.412ZM292.508 178.748L296.511 185.499L292.656 185.23L290.355 180.642L287.365 184.86L283.582 184.595L288.535 178.446L284.641 171.87L288.495 172.14L290.737 176.555L293.547 172.493L297.354 172.759L292.508 178.748ZM303.951 172.884C307.399 173.125 309.382 175.381 309.424 178.222L306.168 177.995C305.986 176.13 305.082 175.296 303.717 175.201C302.041 175.084 300.749 176.365 300.546 179.262C300.325 182.422 301.429 183.846 303.081 183.962C304.373 184.052 305.388 183.305 305.835 181.725L309.139 181.956C308.369 185.053 305.911 186.494 302.727 186.271C299.255 186.028 296.799 183.643 297.108 179.238C297.412 174.88 300.456 172.639 303.951 172.884ZM322.979 180.686C322.957 180.997 322.93 181.38 322.852 181.808L313.802 181.175C313.83 183.872 314.969 184.793 316.501 184.9C317.913 184.999 318.998 184.281 319.309 182.931L322.613 183.162C321.759 186.086 319.259 187.427 316.267 187.218C312.771 186.973 310.218 184.605 310.531 180.128C310.804 176.226 313.565 173.556 317.468 173.829C321.37 174.102 323.221 177.214 322.979 180.686ZM317.162 176.141C315.629 176.034 314.483 176.94 314.049 179.027L319.651 179.419C319.576 177.393 318.742 176.252 317.162 176.141ZM333.272 174.934C336.839 175.183 338.757 178.036 338.494 181.795C338.173 186.392 335.183 188.54 331.903 188.311C330.85 188.237 329.576 187.884 328.961 187.384L328.215 186.008L327.768 192.401L324.464 192.17L325.683 174.74L328.987 174.971L328.851 176.91L329.906 175.589C330.665 175.064 331.979 174.844 333.272 174.934ZM331.419 185.944C333.335 186.077 334.849 184.716 335.055 181.771C335.238 179.161 334.115 177.327 332.152 177.189C330.332 177.062 328.769 178.084 328.552 181.196L328.51 181.794C328.307 184.691 329.887 185.836 331.419 185.944ZM344.859 178.367L344.447 184.256C344.417 184.687 344.392 185.046 344.392 185.383C344.401 186.635 344.836 186.954 346.689 186.939L346.538 189.094C345.788 189.162 345.09 189.161 344.348 189.109C341.882 188.937 341.053 188.061 341.035 186.255C341.027 185.677 341.066 185.126 341.116 184.408L341.555 178.136L339.687 178.005L339.84 175.826L341.707 175.957L341.926 172.821L345.23 173.052L345.011 176.188L347.645 176.372L347.492 178.551L344.859 178.367ZM351.702 171.796C352.779 171.871 353.471 172.641 353.399 173.671C353.325 174.724 352.534 175.367 351.457 175.291C350.38 175.216 349.686 174.47 349.76 173.416C349.832 172.387 350.624 171.721 351.702 171.796ZM352.131 189.389L348.827 189.158L349.718 176.421L353.022 176.652L352.131 189.389ZM361.847 176.932C366.085 177.228 368.257 180.219 367.986 184.098C367.717 187.952 365.147 190.636 360.909 190.339C356.672 190.043 354.501 187.028 354.77 183.174C355.042 179.295 357.609 176.636 361.847 176.932ZM361.072 188.017C363.059 188.156 364.372 186.588 364.562 183.858C364.755 181.105 363.672 179.393 361.685 179.254C359.697 179.115 358.386 180.66 358.194 183.413C358.003 186.142 359.085 187.878 361.072 188.017ZM382.246 181.943C382.272 182.595 382.251 183.243 382.179 184.272L381.677 191.455L378.373 191.224L378.843 184.496C378.88 183.969 378.922 183.371 378.919 182.721C378.917 181.374 378.239 180.412 376.635 180.3C375.031 180.188 373.665 181.488 373.417 185.031L373.01 190.849L369.706 190.618L370.597 177.881L373.901 178.112L373.757 180.171L374.844 178.731C375.799 178.148 376.749 177.974 377.97 178.06C380.676 178.249 382.138 179.698 382.246 181.943ZM391.974 192.175L391.865 190.291L391.147 191.612C390.22 192.148 389.125 192.312 387.928 192.229C385.726 192.075 383.925 190.65 384.094 188.232C384.29 185.43 386.794 184.018 391.415 184.341L392.229 184.398L392.248 184.134C392.274 183.751 392.301 183.368 392.283 182.934C392.25 182.041 391.72 181.355 390.427 181.264C389.111 181.172 388.339 181.888 388.146 183.27L384.936 183.07C385.233 180.203 387.669 178.738 390.709 178.95C394.277 179.2 395.509 180.85 395.546 183.066C395.552 183.668 395.529 184.34 395.481 185.034L395.193 189.152C395.126 190.11 395.113 190.975 395.206 192.401L391.974 192.175ZM389.36 189.995C390.7 190.089 391.891 189.234 392.015 187.462L392.087 186.433C389.467 186.057 387.653 186.532 387.536 188.208C387.457 189.333 388.187 189.913 389.36 189.995ZM402.458 175.225L401.519 188.656C401.484 189.159 401.461 189.494 401.461 189.831C401.488 190.482 401.76 190.718 402.89 190.725L402.731 192.999C402.08 193.026 401.432 193.005 400.69 192.953C399.061 192.839 398.074 192.168 398.118 190.511C398.11 189.933 398.152 189.335 398.21 188.497L399.155 174.994L402.458 175.225ZM405.807 190.399C406.693 190.461 407.294 191.153 407.232 192.039C407.17 192.925 406.479 193.526 405.593 193.464C404.707 193.402 404.106 192.71 404.168 191.825C404.23 190.939 404.921 190.337 405.807 190.399ZM177.777 190.349L171.887 189.937L170.849 204.781L168.791 204.637L169.829 189.793L163.939 189.381L164.056 187.705L177.894 188.673L177.777 190.349ZM189.286 196.711C189.289 197.361 189.254 197.864 189.182 198.893L188.683 206.028L186.624 205.884L187.113 198.893C187.158 198.246 187.195 197.72 187.192 197.07C187.176 195.577 186.442 194.371 184.476 194.282C182.485 194.191 180.709 195.51 180.406 199.843L180.016 205.422L177.957 205.278L179.196 187.561L181.255 187.705L180.751 194.911L181.643 193.506C182.779 192.743 183.728 192.593 185.021 192.684C187.798 192.878 189.25 194.471 189.286 196.711ZM203.032 200.295C203.019 200.486 202.995 200.821 202.916 201.273L193.722 200.63C193.679 203.995 195.181 205.231 197.048 205.362C198.7 205.477 200.113 204.541 200.527 202.742L202.682 202.893C201.965 205.922 199.452 207.118 196.842 206.935C193.538 206.704 191.223 204.377 191.536 199.9C191.824 195.782 194.568 193.351 198.039 193.594C201.535 193.839 203.292 196.584 203.032 200.295ZM197.881 195.171C195.87 195.03 194.285 196.363 193.857 199.052L200.991 199.55C200.984 196.904 199.964 195.317 197.881 195.171ZM216.262 195.205L210.08 208.607C208.863 211.216 207.41 212.39 205.351 212.246C204.896 212.214 204.609 212.194 204.301 212.124L204.418 210.448C204.727 210.494 204.943 210.509 205.158 210.524C206.427 210.613 207.304 210.121 208.067 208.49L208.267 208.047L204.148 194.358L206.47 194.52L209.473 205.942L214.012 195.048L216.262 195.205ZM225.686 197.548L225.175 204.85C225.145 205.281 225.13 205.497 225.131 205.834C225.141 207.061 225.625 207.36 227.243 207.281L227.137 208.789C226.532 208.843 225.956 208.827 225.381 208.786C223.801 208.676 223.032 207.973 223.023 206.384C223.023 206.047 223.059 205.52 223.11 204.802L223.627 197.404L221.927 197.285L222.038 195.705L223.737 195.824L223.943 192.879L226.002 193.023L225.796 195.968L228.167 196.134L228.056 197.714L225.686 197.548ZM235.805 196.235C240.114 196.536 241.886 199.764 241.635 203.355C241.385 206.922 239.18 209.896 234.871 209.594C230.561 209.293 228.792 206.042 229.041 202.474C229.292 198.883 231.495 195.934 235.805 196.235ZM234.981 208.014C237.543 208.193 239.176 206.166 239.384 203.198C239.593 200.205 238.256 197.994 235.694 197.815C233.133 197.636 231.501 199.639 231.292 202.632C231.084 205.6 232.42 207.835 234.981 208.014ZM249.833 197.216C254.143 197.517 255.914 200.745 255.663 204.336C255.413 207.903 253.209 210.877 248.899 210.575C244.59 210.274 242.82 207.023 243.07 203.455C243.321 199.864 245.524 196.915 249.833 197.216ZM249.01 208.995C251.571 209.174 253.205 207.147 253.412 204.178C253.622 201.186 252.284 198.975 249.723 198.796C247.161 198.617 245.529 200.62 245.32 203.613C245.112 206.581 246.448 208.816 249.01 208.995ZM265.584 211.405L261.339 205.719L260.049 206.952L259.766 210.998L257.708 210.854L258.938 193.257L260.997 193.401L260.207 204.702L266.567 198.723L269.201 198.907L262.869 204.479L268.385 211.601L265.584 211.405ZM287.355 200.176L286.686 209.753C286.63 210.543 286.562 211.525 286.489 212.217C286.11 215.92 283.722 217.726 280.059 217.47C276.444 217.217 274.754 215.583 274.678 212.883L274.671 212.642L276.754 212.788L276.763 213.005C276.821 214.573 277.991 215.737 280.17 215.89C282.684 216.065 284.149 214.724 284.415 212.289C284.481 211.692 284.51 211.285 284.536 210.902L284.551 210.686L283.498 211.984C282.738 212.532 281.369 212.846 280.076 212.755C276.365 212.496 274.5 209.575 274.76 205.864C275.088 201.171 278.161 199.197 281.441 199.426C282.495 199.5 283.814 199.905 284.423 200.477L285.174 201.78L285.296 200.032L287.355 200.176ZM280.498 211.197C282.605 211.344 284.59 210.136 284.844 206.497L284.893 205.802C285.122 202.522 283.15 201.133 281.331 201.006C279.104 200.851 277.26 202.454 277.027 205.782C276.826 208.655 277.96 211.02 280.498 211.197ZM296 200.492C296.335 200.516 296.619 200.584 296.85 200.72L296.741 202.276C294.597 201.982 292.88 203.137 292.677 206.034L292.172 213.264L290.113 213.12L291 200.431L293.059 200.575L292.92 202.562L294.188 200.943C294.74 200.621 295.401 200.45 296 200.492ZM308.618 207.678C308.605 207.869 308.581 208.205 308.502 208.656L299.308 208.013C299.265 211.379 300.767 212.614 302.634 212.745C304.286 212.86 305.699 211.925 306.113 210.125L308.268 210.276C307.551 213.305 305.037 214.501 302.428 214.318C299.124 214.087 296.809 211.76 297.122 207.283C297.41 203.165 300.154 200.735 303.625 200.977C307.121 201.222 308.878 203.967 308.618 207.678ZM303.467 202.554C301.456 202.414 299.871 203.746 299.442 206.435L306.577 206.934C306.57 204.287 305.55 202.7 303.467 202.554ZM318.153 215.081L318.065 213.246L317.275 214.563C316.371 215.101 315.256 215.215 314.035 215.13C311.737 214.969 310.03 213.575 310.194 211.229C310.395 208.356 312.654 207.022 317.633 207.37L318.447 207.427L318.471 207.092C318.509 206.541 318.545 206.038 318.53 205.556C318.516 204.376 317.9 203.563 316.2 203.445C314.476 203.324 313.549 204.197 313.283 205.935L311.128 205.784C311.509 203.092 313.509 201.669 316.31 201.864C319.327 202.075 320.507 203.433 320.577 205.531C320.59 206.037 320.57 206.661 320.532 207.212L320.198 211.976C320.131 212.934 320.119 213.799 320.212 215.225L318.153 215.081ZM314.84 213.598C316.755 213.732 318.089 212.551 318.25 210.252L318.34 208.959C314.863 208.451 312.609 209.04 312.456 211.218C312.349 212.751 313.284 213.49 314.84 213.598ZM326.83 204.621L326.319 211.923C326.289 212.354 326.274 212.569 326.274 212.906C326.285 214.134 326.769 214.433 328.387 214.353L328.281 215.862C327.676 215.915 327.1 215.899 326.525 215.859C324.945 215.749 324.176 215.045 324.167 213.457C324.166 213.12 324.203 212.593 324.253 211.875L324.771 204.477L323.071 204.358L323.181 202.778L324.881 202.897L325.087 199.952L327.146 200.096L326.94 203.041L329.31 203.206L329.2 204.787L326.83 204.621ZM338.474 199.565C339.216 199.617 339.75 200.232 339.698 200.974C339.647 201.716 339.032 202.25 338.29 202.198C337.547 202.146 337.013 201.532 337.065 200.79C337.117 200.047 337.732 199.513 338.474 199.565ZM338.325 216.492L336.266 216.348L337.153 203.659L339.212 203.803L338.325 216.492ZM353.3 208.18C353.302 208.83 353.267 209.333 353.195 210.362L352.696 217.497L350.637 217.353L351.126 210.362C351.171 209.715 351.208 209.189 351.206 208.539C351.19 207.046 350.453 205.888 348.489 205.751C346.502 205.612 344.723 206.979 344.42 211.312L344.029 216.891L341.971 216.747L342.858 204.058L344.917 204.202L344.764 206.38L345.657 204.975C346.793 204.212 347.741 204.062 349.034 204.153C351.811 204.347 353.264 205.94 353.3 208.18ZM358.371 200.956C359.113 201.008 359.647 201.623 359.595 202.365C359.543 203.107 358.929 203.642 358.186 203.59C357.444 203.538 356.91 202.923 356.962 202.181C357.014 201.439 357.628 200.904 358.371 200.956ZM358.221 217.883L356.162 217.739L357.05 205.05L359.109 205.194L358.221 217.883ZM365.103 207.297L364.593 214.599C364.563 215.03 364.548 215.246 364.548 215.583C364.558 216.81 365.043 217.109 366.66 217.03L366.555 218.538C365.95 218.592 365.373 218.576 364.799 218.535C363.219 218.425 362.45 217.722 362.44 216.133C362.44 215.796 362.477 215.269 362.527 214.551L363.044 207.153L361.345 207.034L361.455 205.454L363.155 205.573L363.361 202.628L365.42 202.772L365.214 205.717L367.584 205.883L367.474 207.463L365.103 207.297ZM371.58 201.88C372.323 201.932 372.857 202.547 372.805 203.289C372.753 204.031 372.138 204.565 371.396 204.513C370.654 204.462 370.12 203.847 370.172 203.105C370.223 202.362 370.838 201.828 371.58 201.88ZM371.431 218.807L369.372 218.663L370.26 205.974L372.319 206.118L371.431 218.807ZM382.355 219.571L382.267 217.736L381.477 219.052C380.574 219.59 379.459 219.705 378.238 219.619C375.94 219.459 374.233 218.064 374.397 215.718C374.598 212.845 376.856 211.511 381.836 211.86L382.65 211.916L382.673 211.581C382.712 211.031 382.747 210.528 382.733 210.046C382.719 208.866 382.102 208.053 380.402 207.934C378.679 207.813 377.751 208.687 377.486 210.425L375.331 210.274C375.712 207.582 377.712 206.158 380.513 206.354C383.53 206.565 384.71 207.922 384.779 210.02C384.792 210.527 384.773 211.151 384.734 211.701L384.401 216.466C384.334 217.423 384.322 218.289 384.414 219.715L382.355 219.571ZM379.043 218.088C380.958 218.222 382.292 217.04 382.452 214.742L382.543 213.449C379.066 212.941 376.811 213.529 376.659 215.708C376.552 217.24 377.487 217.979 379.043 218.088ZM391.032 209.11L390.522 216.413C390.491 216.843 390.476 217.059 390.477 217.396C390.487 218.624 390.972 218.922 392.589 218.843L392.484 220.351C391.878 220.405 391.302 220.389 390.728 220.348C389.147 220.238 388.379 219.535 388.369 217.946C388.369 217.609 388.406 217.083 388.456 216.364L388.973 208.966L387.273 208.848L387.384 207.267L389.084 207.386L389.29 204.441L391.349 204.585L391.143 207.53L393.513 207.696L393.402 209.276L391.032 209.11ZM397.509 203.693C398.252 203.745 398.786 204.36 398.734 205.102C398.682 205.844 398.067 206.378 397.325 206.327C396.583 206.275 396.049 205.66 396.1 204.918C396.152 204.176 396.767 203.641 397.509 203.693ZM397.36 220.62L395.301 220.476L396.189 207.787L398.248 207.931L397.36 220.62ZM412.284 208.912L406.584 221.265L404.071 221.089L400.146 208.064L402.42 208.223L405.517 219.674L410.105 208.76L412.284 208.912ZM424 215.746C423.987 215.938 423.964 216.273 423.884 216.725L414.69 216.082C414.648 219.447 416.149 220.683 418.016 220.813C419.668 220.929 421.081 219.993 421.496 218.194L423.65 218.344C422.933 221.374 420.42 222.569 417.81 222.387C414.506 222.156 412.191 219.828 412.504 215.351C412.792 211.233 415.536 208.803 419.008 209.046C422.503 209.29 424.26 212.035 424 215.746ZM418.849 210.622C416.838 210.482 415.253 211.815 414.825 214.503L421.959 215.002C421.952 212.355 420.932 210.768 418.849 210.622ZM434.66 212.161L434.149 219.463C434.119 219.894 434.104 220.11 434.105 220.447C434.115 221.674 434.599 221.973 436.217 221.893L436.111 223.402C435.506 223.456 434.93 223.439 434.355 223.399C432.775 223.289 432.006 222.585 431.997 220.997C431.997 220.66 432.034 220.133 432.084 219.415L432.601 212.017L430.901 211.898L431.012 210.318L432.712 210.437L432.917 207.492L434.976 207.636L434.771 210.581L437.141 210.747L437.03 212.327L434.66 212.161ZM444.779 210.848C449.089 211.149 450.86 214.377 450.609 217.968C450.359 221.535 448.154 224.509 443.845 224.207C439.535 223.906 437.766 220.654 438.015 217.087C438.266 213.496 440.47 210.546 444.779 210.848ZM443.955 222.627C446.517 222.806 448.15 220.779 448.358 217.81C448.567 214.818 447.23 212.607 444.669 212.428C442.107 212.249 440.475 214.252 440.266 217.245C440.058 220.213 441.394 222.448 443.955 222.627ZM173.327 220.271L172.44 232.96L170.381 232.816L170.531 230.662L169.637 232.091C168.505 232.805 167.556 232.956 166.263 232.865C163.63 232.681 162.201 231.089 162.036 229.322C161.986 228.669 161.997 228.164 162.069 227.135L162.601 219.521L164.66 219.665L164.155 226.896C164.126 227.303 164.101 227.998 164.128 228.65C164.219 230.1 165.18 231.153 166.904 231.274C168.891 231.413 170.575 230.039 170.878 225.706L171.268 220.127L173.327 220.271ZM187.403 224.648C187.406 225.298 187.371 225.8 187.299 226.83L186.8 233.964L184.741 233.82L185.23 226.829C185.275 226.183 185.312 225.656 185.309 225.007C185.293 223.514 184.556 222.356 182.593 222.218C180.606 222.079 178.826 223.447 178.523 227.78L178.133 233.358L176.074 233.214L176.961 220.525L179.02 220.669L178.868 222.848L179.76 221.443C180.896 220.68 181.845 220.53 183.138 220.62C185.915 220.815 187.367 222.408 187.403 224.648ZM202.581 217.385L201.351 234.982L199.292 234.838L199.434 232.803L198.381 234.101C197.621 234.649 196.252 234.962 194.959 234.872C191.248 234.612 189.383 231.691 189.643 227.98C189.971 223.288 193.044 221.313 196.324 221.542C197.377 221.616 198.696 222.021 199.306 222.593L200.057 223.897L200.522 217.241L202.581 217.385ZM195.381 233.313C197.487 233.461 199.473 232.252 199.727 228.613L199.776 227.919C200.005 224.639 198.033 223.25 196.213 223.123C193.987 222.967 192.143 224.57 191.91 227.898C191.709 230.771 192.843 233.136 195.381 233.313ZM215.879 229.261C215.865 229.453 215.842 229.788 215.762 230.24L206.569 229.597C206.526 232.962 208.027 234.198 209.895 234.328C211.547 234.444 212.959 233.508 213.374 231.709L215.529 231.859C214.812 234.889 212.298 236.084 209.689 235.902C206.385 235.671 204.069 233.344 204.382 228.866C204.67 224.749 207.415 222.318 210.886 222.561C214.382 222.805 216.138 225.55 215.879 229.261ZM210.728 224.138C208.717 223.997 207.132 225.33 206.703 228.018L213.838 228.517C213.83 225.87 212.811 224.283 210.728 224.138ZM224.023 223.527C224.358 223.551 224.642 223.619 224.873 223.755L224.764 225.312C222.619 225.017 220.902 226.172 220.7 229.069L220.194 236.3L218.135 236.156L219.023 223.467L221.082 223.611L220.943 225.598L222.211 223.978C222.762 223.656 223.424 223.486 224.023 223.527ZM230.636 223.942C233.485 224.141 234.927 225.878 235.028 228.219L232.873 228.068C232.69 226.563 231.842 225.614 230.357 225.51C228.921 225.41 228.195 226.153 228.118 227.254C228.03 228.523 229.048 229.1 230.74 229.675C233.607 230.645 234.915 231.892 234.765 234.046C234.597 236.441 232.479 237.495 229.797 237.308C227.188 237.125 225.284 235.789 225.102 232.89L227.257 233.04C227.463 234.907 228.591 235.636 230.051 235.738C231.416 235.833 232.561 235.288 232.646 234.067C232.732 232.846 231.915 232.139 229.824 231.415C227.593 230.634 225.839 229.573 225.995 227.346C226.157 225.024 228.026 223.759 230.636 223.942ZM240.263 226.636L239.752 233.938C239.722 234.369 239.707 234.585 239.707 234.921C239.718 236.149 240.202 236.448 241.82 236.368L241.714 237.877C241.109 237.93 240.533 237.914 239.958 237.874C238.378 237.764 237.609 237.06 237.6 235.472C237.599 235.135 237.636 234.608 237.686 233.89L238.204 226.492L236.504 226.373L236.614 224.793L238.314 224.912L238.52 221.967L240.579 222.111L240.373 225.056L242.743 225.222L242.633 226.802L240.263 226.636ZM251.81 238.51L251.722 236.676L250.932 237.992C250.028 238.53 248.914 238.645 247.693 238.559C245.394 238.399 243.687 237.004 243.851 234.658C244.052 231.785 246.311 230.451 251.291 230.799L252.105 230.856L252.128 230.521C252.167 229.97 252.202 229.468 252.187 228.985C252.174 227.806 251.557 226.993 249.857 226.874C248.133 226.753 247.206 227.627 246.94 229.364L244.785 229.214C245.166 226.522 247.166 225.098 249.967 225.294C252.984 225.505 254.164 226.862 254.234 228.96C254.247 229.466 254.227 230.09 254.189 230.641L253.856 235.405C253.789 236.363 253.776 237.228 253.869 238.654L251.81 238.51ZM248.497 237.028C250.413 237.162 251.746 235.98 251.907 233.681L251.997 232.389C248.52 231.881 246.266 232.469 246.114 234.648C246.006 236.18 246.941 236.919 248.497 237.028ZM268.58 230.324C268.583 230.974 268.547 231.477 268.475 232.506L267.977 239.641L265.918 239.497L266.406 232.506C266.452 231.859 266.488 231.333 266.486 230.683C266.47 229.19 265.733 228.032 263.77 227.895C261.782 227.756 260.003 229.123 259.7 233.456L259.31 239.035L257.251 238.891L258.138 226.202L260.197 226.346L260.045 228.524L260.937 227.119C262.073 226.357 263.022 226.206 264.314 226.297C267.092 226.491 268.544 228.084 268.58 230.324ZM283.758 223.061L282.528 240.658L280.469 240.514L280.611 238.479L279.558 239.777C278.798 240.325 277.428 240.639 276.136 240.548C272.425 240.289 270.56 237.367 270.819 233.657C271.148 228.964 274.221 226.99 277.501 227.219C278.554 227.293 279.873 227.698 280.483 228.27L281.234 229.573L281.699 222.917L283.758 223.061ZM276.557 238.99C278.664 239.137 280.649 237.929 280.904 234.29L280.952 233.595C281.182 230.315 279.21 228.926 277.39 228.799C275.164 228.643 273.319 230.247 273.087 233.574C272.886 236.447 274.02 238.812 276.557 238.99ZM297.493 228.617C301.803 228.918 303.574 232.146 303.323 235.737C303.073 239.304 300.869 242.278 296.559 241.976C292.25 241.675 290.48 238.424 290.73 234.856C290.981 231.265 293.184 228.316 297.493 228.617ZM296.67 240.396C299.231 240.575 300.865 238.548 301.072 235.58C301.282 232.587 299.945 230.376 297.383 230.197C294.821 230.018 293.189 232.021 292.98 235.014C292.772 237.982 294.108 240.217 296.67 240.396ZM316.789 230.303L315.902 242.992L313.843 242.848L313.994 240.693L313.1 242.122C311.967 242.837 311.018 242.987 309.725 242.897C307.092 242.713 305.663 241.121 305.498 239.353C305.448 238.7 305.459 238.196 305.531 237.166L306.063 229.553L308.122 229.697L307.617 236.927C307.588 237.334 307.564 238.03 307.59 238.682C307.681 240.132 308.642 241.185 310.366 241.306C312.353 241.445 314.037 240.071 314.34 235.737L314.73 230.159L316.789 230.303ZM325.423 230.618C325.759 230.642 326.042 230.71 326.274 230.846L326.165 232.402C324.02 232.108 322.303 233.263 322.101 236.16L321.595 243.39L319.536 243.246L320.423 230.557L322.482 230.701L322.343 232.688L323.611 231.069C324.163 230.747 324.825 230.576 325.423 230.618ZM339.885 231.581C343.596 231.841 345.461 234.762 345.201 238.473C344.873 243.165 341.8 245.14 338.52 244.91C337.466 244.837 336.147 244.432 335.538 243.86L334.787 242.556L334.665 244.304L332.606 244.16L333.836 226.563L335.895 226.707L335.41 233.65L336.463 232.352C337.223 231.804 338.592 231.491 339.885 231.581ZM338.63 243.33C340.857 243.486 342.701 241.883 342.934 238.555C343.135 235.682 342.001 233.317 339.463 233.14C337.356 232.992 335.371 234.201 335.117 237.84L335.068 238.534C334.839 241.814 336.811 243.203 338.63 243.33ZM353.129 232.555C353.464 232.579 353.748 232.647 353.979 232.783L353.87 234.34C351.726 234.045 350.009 235.2 349.806 238.097L349.301 245.328L347.242 245.184L348.129 232.495L350.188 232.639L350.049 234.626L351.317 233.006C351.869 232.684 352.531 232.514 353.129 232.555ZM362.423 246.245L362.334 244.411L361.545 245.727C360.641 246.265 359.526 246.379 358.305 246.294C356.007 246.133 354.3 244.739 354.464 242.393C354.665 239.52 356.923 238.186 361.903 238.534L362.717 238.591L362.741 238.256C362.779 237.705 362.814 237.202 362.8 236.72C362.786 235.54 362.17 234.727 360.47 234.609C358.746 234.488 357.819 235.361 357.553 237.099L355.398 236.948C355.779 234.256 357.779 232.833 360.58 233.028C363.597 233.239 364.777 234.597 364.847 236.695C364.86 237.201 364.84 237.825 364.801 238.376L364.468 243.14C364.401 244.098 364.389 244.963 364.482 246.389L362.423 246.245ZM359.11 244.762C361.025 244.896 362.359 243.715 362.52 241.416L362.61 240.123C359.133 239.616 356.879 240.204 356.726 242.382C356.619 243.915 357.554 244.654 359.11 244.762ZM379.193 238.059C379.195 238.709 379.16 239.212 379.088 240.241L378.589 247.376L376.53 247.232L377.019 240.241C377.064 239.594 377.101 239.068 377.098 238.418C377.083 236.925 376.346 235.767 374.382 235.63C372.395 235.491 370.615 236.858 370.312 241.191L369.922 246.77L367.863 246.626L368.751 233.937L370.81 234.081L370.657 236.259L371.55 234.854C372.685 234.091 373.634 233.941 374.927 234.032C377.704 234.226 379.157 235.819 379.193 238.059ZM394.371 230.796L393.14 248.393L391.081 248.249L391.224 246.214L390.17 247.512C389.41 248.06 388.041 248.373 386.748 248.283C383.037 248.023 381.173 245.102 381.432 241.391C381.76 236.699 384.833 234.724 388.113 234.954C389.167 235.027 390.486 235.432 391.095 236.004L391.846 237.308L392.312 230.652L394.371 230.796ZM387.17 246.725C389.277 246.872 391.262 245.663 391.517 242.024L391.565 241.33C391.794 238.05 389.823 236.661 388.003 236.534C385.776 236.378 383.932 237.981 383.699 241.309C383.498 244.182 384.632 246.547 387.17 246.725ZM398.516 246.604L396.009 251.481L394.07 251.345L396.306 246.209L398.533 246.364L398.516 246.604ZM167.23 260.664L167.142 258.83L166.352 260.146C165.449 260.684 164.334 260.799 163.113 260.713C160.815 260.553 159.108 259.158 159.272 256.812C159.473 253.939 161.731 252.605 166.711 252.953L167.525 253.01L167.549 252.675C167.587 252.124 167.622 251.622 167.608 251.139C167.594 249.96 166.977 249.147 165.277 249.028C163.554 248.907 162.626 249.781 162.361 251.518L160.206 251.368C160.587 248.676 162.587 247.252 165.388 247.448C168.405 247.659 169.585 249.016 169.655 251.114C169.667 251.62 169.648 252.244 169.609 252.795L169.276 257.559C169.209 258.517 169.197 259.382 169.289 260.808L167.23 260.664ZM163.918 259.182C165.833 259.316 167.167 258.134 167.328 255.835L167.418 254.542C163.941 254.035 161.686 254.623 161.534 256.802C161.427 258.334 162.362 259.073 163.918 259.182ZM184.987 244.223L183.756 261.82L181.697 261.676L181.839 259.641L180.786 260.939C180.026 261.487 178.657 261.8 177.364 261.71C173.653 261.45 171.788 258.529 172.048 254.818C172.376 250.126 175.449 248.151 178.729 248.381C179.783 248.454 181.102 248.859 181.711 249.431L182.462 250.735L182.928 244.079L184.987 244.223ZM177.786 260.151C179.893 260.299 181.878 259.09 182.132 255.451L182.181 254.757C182.41 251.477 180.438 250.088 178.619 249.961C176.392 249.805 174.548 251.408 174.315 254.736C174.114 257.609 175.248 259.974 177.786 260.151ZM199.716 245.253L198.486 262.85L196.427 262.706L196.569 260.671L195.516 261.969C194.756 262.517 193.387 262.83 192.094 262.74C188.383 262.48 186.518 259.559 186.778 255.848C187.106 251.156 190.179 249.181 193.459 249.411C194.512 249.484 195.831 249.889 196.441 250.461L197.192 251.765L197.657 245.109L199.716 245.253ZM192.516 261.181C194.622 261.329 196.608 260.12 196.862 256.481L196.911 255.787C197.14 252.507 195.168 251.118 193.348 250.991C191.122 250.835 189.278 252.438 189.045 255.766C188.844 258.639 189.978 261.004 192.516 261.181ZM208.018 250.477C208.353 250.5 208.637 250.568 208.868 250.705L208.759 252.261C206.614 251.966 204.898 253.121 204.695 256.018L204.189 263.249L202.13 263.105L203.018 250.416L205.077 250.56L204.938 252.547L206.206 250.927C206.758 250.605 207.419 250.435 208.018 250.477ZM220.636 257.662C220.622 257.854 220.599 258.189 220.519 258.641L211.326 257.998C211.283 261.363 212.784 262.599 214.652 262.729C216.304 262.845 217.716 261.909 218.131 260.11L220.286 260.26C219.569 263.29 217.055 264.485 214.446 264.303C211.142 264.072 208.826 261.745 209.139 257.267C209.427 253.15 212.172 250.719 215.643 250.962C219.139 251.206 220.895 253.951 220.636 257.662ZM215.485 252.539C213.474 252.398 211.889 253.731 211.46 256.419L218.595 256.918C218.587 254.271 217.568 252.684 215.485 252.539ZM227.49 251.79C230.339 251.989 231.781 253.726 231.882 256.067L229.728 255.916C229.544 254.412 228.696 253.462 227.212 253.359C225.775 253.258 225.05 254.001 224.973 255.103C224.884 256.372 225.902 256.948 227.594 257.523C230.462 258.494 231.77 259.74 231.619 261.895C231.452 264.289 229.333 265.344 226.652 265.156C224.042 264.974 222.139 263.638 221.956 260.738L224.111 260.889C224.317 262.756 225.445 263.484 226.906 263.586C228.27 263.682 229.415 263.136 229.501 261.915C229.586 260.694 228.769 259.987 226.679 259.264C224.448 258.482 222.694 257.421 222.849 255.195C223.012 252.872 224.88 251.608 227.49 251.79ZM238.479 252.559C241.328 252.758 242.77 254.495 242.871 256.835L240.716 256.685C240.533 255.18 239.685 254.231 238.201 254.127C236.764 254.027 236.039 254.77 235.962 255.871C235.873 257.14 236.891 257.716 238.583 258.292C241.45 259.262 242.759 260.509 242.608 262.663C242.441 265.057 240.322 266.112 237.64 265.925C235.031 265.742 233.127 264.406 232.945 261.506L235.1 261.657C235.306 263.524 236.434 264.252 237.895 264.355C239.259 264.45 240.404 263.905 240.489 262.684C240.575 261.463 239.758 260.756 237.667 260.032C235.437 259.251 233.682 258.19 233.838 255.963C234 253.641 235.869 252.376 238.479 252.559ZM256.191 253.797C260.5 254.099 262.272 257.326 262.02 260.917C261.771 264.484 259.566 267.458 255.257 267.157C250.947 266.855 249.178 263.604 249.427 260.037C249.678 256.445 251.881 253.496 256.191 253.797ZM255.367 265.576C257.929 265.756 259.562 263.729 259.77 260.76C259.979 257.767 258.642 255.556 256.08 255.377C253.519 255.198 251.887 257.201 251.678 260.194C251.47 263.163 252.805 265.397 255.367 265.576ZM275.487 255.483L274.599 268.172L272.54 268.028L272.691 265.874L271.797 267.303C270.665 268.017 269.716 268.168 268.423 268.077C265.789 267.893 264.361 266.302 264.196 264.534C264.145 263.881 264.157 263.376 264.229 262.347L264.761 254.733L266.82 254.877L266.314 262.108C266.286 262.515 266.261 263.211 266.288 263.862C266.379 265.312 267.34 266.365 269.064 266.486C271.051 266.625 272.735 265.251 273.038 260.918L273.428 255.339L275.487 255.483ZM284.121 255.798C284.456 255.822 284.74 255.89 284.971 256.026L284.862 257.582C282.718 257.288 281.001 258.443 280.798 261.34L280.293 268.57L278.234 268.426L279.121 255.737L281.18 255.881L281.041 257.869L282.309 256.249C282.861 255.927 283.522 255.756 284.121 255.798ZM298.583 256.761C302.293 257.021 304.158 259.942 303.899 263.653C303.571 268.346 300.497 270.32 297.217 270.091C296.164 270.017 294.845 269.612 294.235 269.04L293.485 267.737L293.034 274.177L290.975 274.033L292.191 256.651L294.25 256.795L294.107 258.83L295.16 257.533C295.92 256.984 297.29 256.671 298.583 256.761ZM297.328 268.511C299.554 268.666 301.399 267.063 301.631 263.735C301.832 260.862 300.699 258.497 298.161 258.32C296.054 258.173 294.069 259.381 293.814 263.02L293.766 263.714C293.536 266.994 295.508 268.383 297.328 268.511ZM313.218 270.873L313.129 269.038L312.34 270.354C311.436 270.893 310.321 271.007 309.1 270.922C306.802 270.761 305.095 269.366 305.259 267.02C305.46 264.147 307.718 262.814 312.698 263.162L313.512 263.219L313.536 262.883C313.574 262.333 313.609 261.83 313.595 261.348C313.581 260.168 312.965 259.355 311.265 259.236C309.541 259.116 308.614 259.989 308.348 261.727L306.193 261.576C306.574 258.884 308.574 257.46 311.375 257.656C314.392 257.867 315.572 259.225 315.642 261.323C315.655 261.829 315.635 262.453 315.596 263.004L315.263 267.768C315.196 268.726 315.184 269.591 315.277 271.017L313.218 270.873ZM309.905 269.39C311.82 269.524 313.154 268.342 313.315 266.044L313.405 264.751C309.928 264.243 307.674 264.831 307.521 267.01C307.414 268.542 308.349 269.281 309.905 269.39ZM320.867 254.47C321.609 254.522 322.143 255.137 322.091 255.879C322.039 256.621 321.425 257.156 320.682 257.104C319.94 257.052 319.406 256.437 319.458 255.695C319.51 254.953 320.124 254.418 320.867 254.47ZM320.717 271.397L318.658 271.253L319.546 258.564L321.605 258.708L320.717 271.397ZM335.692 263.086C335.695 263.735 335.66 264.238 335.588 265.268L335.089 272.402L333.03 272.258L333.519 265.267C333.564 264.621 333.601 264.094 333.598 263.444C333.582 261.952 332.845 260.793 330.882 260.656C328.895 260.517 327.115 261.884 326.812 266.218L326.422 271.796L324.363 271.652L325.251 258.963L327.31 259.107L327.157 261.286L328.049 259.881C329.185 259.118 330.134 258.968 331.427 259.058C334.204 259.252 335.657 260.846 335.692 263.086ZM351.001 260.427C354.712 260.686 356.577 263.608 356.318 267.319C355.989 272.011 352.916 273.986 349.636 273.756C348.583 273.683 347.264 273.278 346.654 272.706L345.903 271.402L345.453 277.842L343.394 277.698L344.61 260.317L346.668 260.461L346.526 262.496L347.579 261.198C348.339 260.65 349.709 260.337 351.001 260.427ZM349.747 272.176C351.973 272.332 353.818 270.729 354.05 267.401C354.251 264.528 353.117 262.163 350.58 261.985C348.473 261.838 346.488 263.046 346.233 266.686L346.185 267.38C345.955 270.66 347.927 272.049 349.747 272.176ZM364.512 261.372C368.822 261.673 370.593 264.901 370.342 268.492C370.092 272.059 367.888 275.032 363.578 274.731C359.269 274.43 357.499 271.178 357.749 267.611C358 264.02 360.203 261.07 364.512 261.372ZM363.689 273.151C366.25 273.33 367.884 271.303 368.091 268.334C368.301 265.342 366.964 263.131 364.402 262.952C361.84 262.773 360.208 264.776 359.999 267.768C359.791 270.737 361.127 272.972 363.689 273.151ZM374.595 258.227C375.337 258.279 375.871 258.894 375.819 259.636C375.767 260.378 375.153 260.913 374.411 260.861C373.668 260.809 373.134 260.194 373.186 259.452C373.238 258.71 373.852 258.175 374.595 258.227ZM374.446 275.154L372.387 275.01L373.274 262.321L375.333 262.465L374.446 275.154ZM389.421 266.843C389.423 267.492 389.388 267.995 389.316 269.025L388.817 276.159L386.758 276.015L387.247 269.024C387.292 268.378 387.329 267.851 387.326 267.201C387.311 265.709 386.574 264.55 384.61 264.413C382.623 264.274 380.843 265.641 380.54 269.975L380.15 275.553L378.091 275.409L378.979 262.72L381.038 262.864L380.885 265.043L381.778 263.638C382.913 262.875 383.862 262.725 385.155 262.815C387.932 263.009 389.385 264.603 389.421 266.843ZM395.519 265.561L395.009 272.863C394.979 273.294 394.964 273.509 394.964 273.846C394.974 275.074 395.459 275.373 397.076 275.293L396.971 276.802C396.366 276.855 395.789 276.839 395.215 276.799C393.635 276.689 392.866 275.985 392.857 274.397C392.856 274.06 392.893 273.533 392.943 272.815L393.46 265.417L391.761 265.298L391.871 263.718L393.571 263.837L393.777 260.892L395.836 261.036L395.63 263.981L398 264.146L397.89 265.727L395.519 265.561ZM404.386 264.16C407.235 264.359 408.678 266.096 408.779 268.437L406.624 268.286C406.44 266.782 405.592 265.832 404.108 265.728C402.672 265.628 401.946 266.371 401.869 267.472C401.78 268.741 402.799 269.318 404.49 269.893C407.358 270.864 408.666 272.11 408.515 274.265C408.348 276.659 406.229 277.714 403.548 277.526C400.938 277.344 399.035 276.008 398.853 273.108L401.007 273.258C401.214 275.125 402.341 275.854 403.802 275.956C405.167 276.051 406.311 275.506 406.397 274.285C406.482 273.064 405.665 272.357 403.575 271.634C401.344 270.852 399.59 269.791 399.745 267.565C399.908 265.242 401.777 263.978 404.386 264.16ZM412.508 275.651L410.002 280.528L408.062 280.392L410.298 275.255L412.525 275.411L412.508 275.651ZM165.277 288.596L165.189 286.762L164.399 288.078C163.496 288.616 162.381 288.73 161.16 288.645C158.861 288.484 157.155 287.09 157.319 284.744C157.52 281.871 159.778 280.537 164.758 280.885L165.572 280.942L165.595 280.607C165.634 280.056 165.669 279.553 165.655 279.071C165.641 277.891 165.024 277.078 163.324 276.96C161.6 276.839 160.673 277.712 160.407 279.45L158.253 279.299C158.633 276.607 160.634 275.184 163.435 275.379C166.451 275.59 167.632 276.948 167.701 279.046C167.714 279.552 167.694 280.176 167.656 280.727L167.323 285.491C167.256 286.449 167.243 287.314 167.336 288.74L165.277 288.596ZM161.965 287.113C163.88 287.247 165.214 286.066 165.374 283.767L165.465 282.474C161.988 281.967 159.733 282.555 159.581 284.733C159.474 286.266 160.408 287.005 161.965 287.113ZM182.047 280.41C182.05 281.06 182.015 281.563 181.943 282.592L181.444 289.727L179.385 289.583L179.874 282.592C179.919 281.945 179.956 281.419 179.953 280.769C179.937 279.276 179.2 278.118 177.237 277.981C175.25 277.842 173.47 279.209 173.167 283.542L172.777 289.121L170.718 288.977L171.605 276.288L173.664 276.432L173.512 278.61L174.404 277.205C175.54 276.442 176.489 276.292 177.782 276.383C180.559 276.577 182.011 278.17 182.047 280.41ZM197.225 273.147L195.995 290.744L193.936 290.6L194.078 288.565L193.025 289.863C192.265 290.411 190.896 290.724 189.603 290.634C185.892 290.374 184.027 287.453 184.287 283.742C184.615 279.05 187.688 277.075 190.968 277.305C192.021 277.378 193.34 277.783 193.95 278.355L194.701 279.659L195.166 273.003L197.225 273.147ZM190.025 289.076C192.132 289.223 194.117 288.014 194.371 284.375L194.42 283.681C194.649 280.401 192.677 279.012 190.858 278.885C188.631 278.729 186.787 280.332 186.554 283.66C186.353 286.533 187.487 288.898 190.025 289.076ZM224.15 282.753C224.201 283.406 224.179 284.054 224.107 285.083L223.577 292.673L220.273 292.442L220.737 285.81C220.788 285.068 220.813 284.372 220.786 283.72C220.711 282.392 220.043 281.623 218.774 281.535C217.29 281.431 216.363 282.641 216.157 285.586L215.7 292.122L212.42 291.893L212.884 285.261C212.936 284.519 212.96 283.823 212.934 283.171C212.858 281.843 212.166 281.073 210.897 280.984C209.413 280.88 208.51 282.092 208.304 285.037L207.847 291.573L204.543 291.342L205.434 278.605L208.738 278.836L208.602 280.775L209.643 279.308C210.396 278.856 211.251 278.675 212.4 278.755C214.483 278.901 215.728 280.023 216.134 281.446L217.496 279.857C218.249 279.405 219.128 279.226 220.277 279.306C222.695 279.475 223.985 280.985 224.15 282.753ZM238.502 287.052C238.48 287.363 238.453 287.747 238.375 288.174L229.325 287.541C229.353 290.238 230.492 291.159 232.024 291.267C233.436 291.365 234.521 290.647 234.832 289.298L238.136 289.529C237.282 292.452 234.782 293.793 231.79 293.584C228.294 293.34 225.741 290.972 226.054 286.495C226.327 282.592 229.088 279.922 232.99 280.195C236.893 280.468 238.744 283.581 238.502 287.052ZM232.684 282.507C231.152 282.4 230.006 283.307 229.572 285.393L235.174 285.785C235.099 283.759 234.265 282.618 232.684 282.507ZM252.343 288.02C252.321 288.331 252.294 288.714 252.216 289.142L243.166 288.509C243.194 291.206 244.333 292.127 245.865 292.235C247.278 292.333 248.362 291.615 248.673 290.266L251.977 290.497C251.123 293.42 248.623 294.761 245.631 294.552C242.135 294.307 239.582 291.94 239.895 287.462C240.168 283.56 242.929 280.89 246.832 281.163C250.734 281.436 252.586 284.549 252.343 288.02ZM246.526 283.475C244.993 283.368 243.847 284.274 243.413 286.361L249.015 286.753C248.94 284.727 248.106 283.586 246.526 283.475ZM258.838 284.625L258.427 290.515C258.396 290.946 258.371 291.305 258.372 291.641C258.381 292.893 258.815 293.212 260.669 293.198L260.518 295.352C259.768 295.42 259.07 295.419 258.328 295.368C255.862 295.195 255.033 294.319 255.015 292.513C255.007 291.936 255.046 291.385 255.096 290.667L255.534 284.394L253.667 284.263L253.819 282.085L255.687 282.215L255.906 279.079L259.21 279.31L258.991 282.446L261.624 282.63L261.472 284.809L258.838 284.625ZM274.12 283.071C278.358 283.367 280.53 286.358 280.259 290.237C279.99 294.091 277.42 296.775 273.182 296.478C268.945 296.182 266.774 293.167 267.043 289.313C267.315 285.434 269.882 282.775 274.12 283.071ZM273.345 294.156C275.332 294.295 276.645 292.727 276.835 289.997C277.028 287.244 275.945 285.532 273.958 285.393C271.97 285.255 270.66 286.799 270.467 289.552C270.276 292.281 271.358 294.017 273.345 294.156ZM294.625 284.842L293.734 297.579L290.431 297.348L290.581 295.193L289.486 296.752C288.509 297.31 287.582 297.485 286.361 297.4C283.727 297.216 282.251 295.621 282.086 293.853C282.035 293.2 282.057 292.552 282.129 291.522L282.654 284.005L285.958 284.236L285.481 291.059C285.453 291.466 285.428 292.162 285.455 292.814C285.53 294.142 286.238 295.034 287.77 295.141C289.422 295.256 290.667 293.972 290.867 291.099L291.321 284.611L294.625 284.842ZM304.18 285.197C304.563 285.224 304.824 285.266 305.107 285.358L304.921 288.016C302.181 287.632 300.731 288.757 300.491 292.181L300.083 298.023L296.779 297.792L297.67 285.055L300.974 285.286L300.811 287.608L301.941 285.907C302.603 285.376 303.461 285.147 304.18 285.197ZM323.066 290.079C323.093 290.73 323.072 291.378 323 292.408L322.497 299.59L319.193 299.359L319.664 292.631C319.701 292.105 319.743 291.506 319.74 290.856C319.738 289.509 319.059 288.547 317.455 288.435C315.851 288.323 314.485 289.623 314.237 293.166L313.831 298.984L310.527 298.753L311.417 286.016L314.721 286.247L314.577 288.306L315.664 286.866C316.619 286.284 317.57 286.109 318.791 286.195C321.496 286.384 322.959 287.834 323.066 290.079ZM337.424 293.97C337.402 294.281 337.376 294.664 337.298 295.091L328.248 294.459C328.276 297.155 329.414 298.077 330.946 298.184C332.359 298.283 333.444 297.565 333.755 296.215L337.058 296.446C336.204 299.37 333.705 300.711 330.712 300.501C327.217 300.257 324.664 297.889 324.977 293.412C325.25 289.509 328.011 286.84 331.913 287.112C335.815 287.385 337.667 290.498 337.424 293.97ZM331.607 289.425C330.075 289.318 328.929 290.224 328.494 292.311L334.096 292.702C334.022 290.676 333.187 289.535 331.607 289.425ZM351.265 294.937C351.244 295.249 351.217 295.632 351.139 296.059L342.089 295.427C342.117 298.123 343.255 299.045 344.788 299.152C346.2 299.251 347.285 298.533 347.596 297.183L350.9 297.414C350.046 300.338 347.546 301.678 344.553 301.469C341.058 301.225 338.505 298.857 338.818 294.38C339.091 290.477 341.852 287.807 345.754 288.08C349.657 288.353 351.508 291.466 351.265 294.937ZM345.448 290.393C343.916 290.285 342.77 291.192 342.335 293.278L347.938 293.67C347.863 291.644 347.028 290.503 345.448 290.393ZM366.687 284.997L365.457 302.594L362.153 302.363L362.29 300.4L361.234 301.745C360.477 302.246 359.161 302.491 357.868 302.4C354.3 302.151 352.383 299.298 352.646 295.539C352.969 290.918 355.956 288.794 359.236 289.023C360.29 289.097 361.564 289.45 362.179 289.951L362.925 291.326L363.383 284.766L366.687 284.997ZM358.988 300.145C360.807 300.272 362.37 299.251 362.588 296.138L362.632 295.516C362.833 292.643 361.253 291.498 359.72 291.391C357.805 291.257 356.29 292.618 356.084 295.563C355.902 298.173 357.025 300.008 358.988 300.145ZM373.973 290.054C377.014 290.266 378.619 292.087 378.743 294.429L375.44 294.198C375.306 293.01 374.707 292.294 373.605 292.217C372.624 292.149 372.057 292.686 372.001 293.476C371.934 294.434 372.689 294.992 374.759 295.666C377.322 296.519 378.781 297.68 378.617 300.026C378.438 302.588 376.028 303.67 373.107 303.466C370.019 303.25 367.934 301.757 367.776 298.859L371.08 299.09C371.246 300.497 372.158 301.21 373.308 301.291C374.361 301.364 375.207 300.966 375.272 300.032C375.341 299.051 374.541 298.442 372.377 297.737C370.049 296.973 368.493 295.829 368.647 293.627C368.818 291.185 370.932 289.841 373.973 290.054ZM381.511 300.974C382.397 301.036 382.998 301.728 382.936 302.613C382.874 303.499 382.183 304.1 381.297 304.039C380.411 303.977 379.81 303.285 379.872 302.399C379.934 301.513 380.625 300.912 381.511 300.974Z" fill="#1340FF"/>
<path d="M345.82 375.858L344.048 386.776C343.96 387.286 343.911 387.622 343.899 387.784C343.881 388.044 343.916 388.245 344.004 388.388C344.114 388.585 344.27 388.737 344.471 388.842C344.679 388.948 345.033 389.018 345.533 389.053L345.401 389.406L340.199 389.042L340.331 388.69L340.555 388.705C340.978 388.735 341.328 388.668 341.607 388.505C341.804 388.394 341.965 388.2 342.088 387.922C342.174 387.725 342.275 387.256 342.392 386.514L342.666 384.849L338.886 384.585L337.414 386.312C337.08 386.7 336.868 386.982 336.777 387.159C336.687 387.328 336.636 387.491 336.626 387.647C336.611 387.855 336.683 388.04 336.841 388.201C337 388.362 337.273 388.463 337.662 388.503L337.53 388.856L333.623 388.583L333.756 388.23C334.238 388.244 334.671 388.114 335.055 387.841C335.447 387.562 336.041 386.954 336.837 386.017L345.479 375.834L345.82 375.858ZM343.664 378.967L339.471 383.911L342.793 384.143L343.664 378.967ZM351.814 380.995L350.208 385.337C351.55 383.61 352.562 382.483 353.245 381.957C353.934 381.431 354.577 381.188 355.175 381.23C355.5 381.253 355.758 381.379 355.951 381.608C356.151 381.837 356.238 382.124 356.214 382.468C356.187 382.858 356.056 383.371 355.823 384.007L354.347 388.025C354.178 388.49 354.089 388.774 354.082 388.878C354.076 388.969 354.096 389.048 354.144 389.117C354.192 389.179 354.245 389.212 354.303 389.216C354.381 389.222 354.478 389.186 354.595 389.109C354.958 388.861 355.364 388.471 355.812 387.941L356.101 388.148C355.437 388.969 354.822 389.546 354.257 389.879C353.863 390.106 353.516 390.209 353.217 390.188C352.977 390.171 352.791 390.083 352.658 389.924C352.525 389.771 352.467 389.571 352.485 389.324C352.506 389.012 352.654 388.484 352.928 387.74L354.332 383.903C354.509 383.425 354.607 383.051 354.626 382.778C354.635 382.648 354.6 382.541 354.521 382.457C354.443 382.367 354.342 382.317 354.218 382.309C354.037 382.296 353.814 382.359 353.549 382.497C353.048 382.756 352.514 383.204 351.948 383.844C351.381 384.476 350.773 385.295 350.121 386.3C349.778 386.831 349.482 387.417 349.235 388.059L348.635 389.632L347.174 389.53L349.374 383.556C349.633 382.836 349.768 382.402 349.778 382.253C349.788 382.11 349.738 381.982 349.629 381.87C349.526 381.752 349.39 381.687 349.221 381.675C349.143 381.67 349.006 381.673 348.809 381.686L348.435 381.718L348.401 381.364L351.814 380.995ZM362.119 377.829C362.391 377.848 362.615 377.959 362.79 378.16C362.966 378.362 363.044 378.599 363.025 378.872C363.006 379.138 362.892 379.362 362.684 379.543C362.482 379.718 362.249 379.796 361.982 379.778C361.716 379.759 361.492 379.649 361.31 379.447C361.136 379.239 361.058 379.002 361.076 378.735C361.095 378.463 361.206 378.239 361.407 378.064C361.609 377.888 361.846 377.81 362.119 377.829ZM361.975 381.706L359.568 388.4C359.406 388.852 359.322 389.123 359.316 389.214C359.308 389.318 359.332 389.405 359.386 389.474C359.446 389.543 359.518 389.581 359.603 389.587C359.7 389.594 359.821 389.55 359.964 389.455C360.355 389.189 360.758 388.8 361.172 388.287L361.497 388.535C361.008 389.179 360.449 389.711 359.819 390.131C359.354 390.444 358.919 390.587 358.517 390.558C358.251 390.54 358.038 390.447 357.88 390.279C357.723 390.105 357.653 389.897 357.669 389.657C357.686 389.417 357.795 389.023 357.997 388.476L359.568 384.2C359.826 383.5 359.961 383.059 359.974 382.878C359.984 382.735 359.94 382.614 359.843 382.516C359.752 382.418 359.618 382.363 359.443 382.351C359.3 382.341 359.002 382.356 358.549 382.396L358.576 382.016L361.975 381.706ZM366.125 381.996C366.319 382.388 366.447 382.753 366.508 383.09C366.57 383.42 366.61 384.069 366.627 385.036L366.72 389.859C367.143 389.419 367.759 388.718 368.571 387.757C368.962 387.288 369.451 386.647 370.037 385.833C370.391 385.336 370.611 384.985 370.697 384.783C370.744 384.681 370.771 384.576 370.778 384.465C370.783 384.394 370.765 384.334 370.722 384.285C370.68 384.236 370.564 384.176 370.373 384.104C370.189 384.026 370.038 383.901 369.919 383.73C369.808 383.552 369.759 383.356 369.774 383.142C369.793 382.876 369.886 382.667 370.053 382.515C370.22 382.364 370.421 382.296 370.655 382.313C370.94 382.333 371.176 382.47 371.36 382.724C371.545 382.972 371.623 383.304 371.594 383.72C371.558 384.233 371.342 384.808 370.945 385.446C370.548 386.077 369.802 387.04 368.707 388.334C367.611 389.628 366.296 391.031 364.761 392.542C363.702 393.584 362.926 394.231 362.432 394.484C361.938 394.743 361.522 394.86 361.184 394.837C360.982 394.823 360.813 394.733 360.674 394.566C360.529 394.406 360.463 394.225 360.477 394.024C360.495 393.771 360.618 393.547 360.847 393.355C361.069 393.161 361.304 393.073 361.551 393.091C361.681 393.1 361.786 393.136 361.866 393.201C361.916 393.237 361.968 393.332 362.022 393.486C362.07 393.646 362.118 393.754 362.166 393.809C362.196 393.844 362.234 393.863 362.28 393.866C362.319 393.869 362.389 393.841 362.491 393.783C362.864 393.587 363.304 393.265 363.812 392.818C364.479 392.225 364.977 391.738 365.304 391.356L365.19 385.142C365.171 384.116 365.078 383.486 364.911 383.252C364.745 383.019 364.447 382.887 364.019 382.857C363.882 382.847 363.637 382.85 363.284 382.864L363.221 382.498L366.125 381.996ZM378.089 377.771L373.947 389.131C373.744 389.698 373.638 390.046 373.629 390.176C373.622 390.273 373.646 390.357 373.7 390.426C373.76 390.495 373.836 390.533 373.927 390.539C374.05 390.548 374.187 390.502 374.338 390.402C374.694 390.159 375.077 389.772 375.486 389.239L375.757 389.561C375.079 390.388 374.469 390.956 373.925 391.264C373.525 391.484 373.152 391.582 372.808 391.558C372.561 391.54 372.359 391.441 372.202 391.261C372.052 391.081 371.984 390.88 372 390.659C372.016 390.425 372.153 389.952 372.412 389.239L375.691 380.286C375.958 379.554 376.095 379.133 376.103 379.023C376.113 378.867 376.061 378.736 375.944 378.63C375.828 378.517 375.64 378.452 375.38 378.434C375.231 378.423 375.002 378.43 374.693 378.454L374.719 378.094L378.089 377.771ZM381.844 392.258L383.277 387.434L383.609 387.457C383.53 387.928 383.48 388.32 383.458 388.631C383.396 389.521 383.628 390.265 384.154 390.863C384.686 391.462 385.41 391.793 386.326 391.857C387.177 391.916 387.841 391.702 388.319 391.213C388.798 390.718 389.061 390.129 389.108 389.447C389.139 389.006 389.067 388.596 388.891 388.218C388.623 387.658 387.874 386.653 386.644 385.203C386.047 384.508 385.668 383.996 385.509 383.665C385.247 383.118 385.136 382.555 385.176 381.977C385.241 381.055 385.64 380.29 386.375 379.682C387.109 379.074 388.015 378.808 389.093 378.884C389.457 378.909 389.799 378.969 390.118 379.063C390.317 379.116 390.675 379.271 391.192 379.53C391.558 379.705 391.76 379.801 391.798 379.817C391.888 379.843 391.988 379.859 392.098 379.867C392.287 379.88 392.452 379.843 392.596 379.755C392.739 379.667 392.912 379.47 393.117 379.165L393.487 379.191L392.167 383.504L391.836 383.481C391.889 383.093 391.924 382.779 391.941 382.538C391.996 381.752 391.781 381.091 391.296 380.555C390.812 380.019 390.144 379.721 389.293 379.661C388.618 379.614 388.055 379.774 387.605 380.14C387.156 380.507 386.912 380.95 386.876 381.47C386.844 381.924 386.947 382.369 387.184 382.803C387.428 383.231 388.002 383.947 388.904 384.95C389.813 385.946 390.392 386.718 390.641 387.264C390.891 387.803 390.995 388.369 390.953 388.96C390.907 389.629 390.683 390.266 390.281 390.871C389.887 391.47 389.347 391.918 388.66 392.216C387.974 392.514 387.237 392.635 386.452 392.58C386.062 392.553 385.701 392.492 385.368 392.397C385.035 392.302 384.508 392.089 383.788 391.758C383.541 391.643 383.334 391.579 383.165 391.567C382.781 391.54 382.465 391.779 382.214 392.284L381.844 392.258ZM394.338 389.138C394.27 389.459 394.228 389.727 394.213 389.941C394.173 390.519 394.343 391.027 394.723 391.465C395.104 391.896 395.587 392.132 396.172 392.173C396.639 392.206 397.094 392.143 397.536 391.985C397.985 391.82 398.657 391.44 399.554 390.844L399.739 391.14C398.093 392.559 396.572 393.219 395.175 393.122C394.227 393.055 393.534 392.707 393.095 392.076C392.656 391.445 392.462 390.769 392.512 390.048C392.58 389.08 392.948 388.11 393.616 387.139C394.285 386.168 395.09 385.434 396.031 384.939C396.974 384.437 397.922 384.219 398.877 384.286C399.565 384.334 400.065 384.51 400.377 384.812C400.689 385.114 400.831 385.457 400.804 385.84C400.767 386.379 400.516 386.881 400.053 387.344C399.443 387.948 398.575 388.409 397.45 388.729C396.704 388.944 395.667 389.08 394.338 389.138ZM394.439 388.665C395.408 388.622 396.204 388.488 396.827 388.264C397.651 387.963 398.278 387.579 398.709 387.113C399.146 386.641 399.381 386.181 399.412 385.733C399.431 385.461 399.359 385.234 399.195 385.052C399.038 384.872 398.801 384.77 398.482 384.748C397.82 384.702 397.09 385.006 396.294 385.662C395.505 386.312 394.886 387.313 394.439 388.665ZM407.471 379.826L403.328 391.186C403.125 391.752 403.02 392.101 403.01 392.231C403.004 392.328 403.027 392.411 403.081 392.48C403.142 392.55 403.217 392.588 403.308 392.594C403.432 392.603 403.568 392.557 403.719 392.456C404.075 392.214 404.458 391.826 404.867 391.293L405.139 391.616C404.461 392.443 403.85 393.01 403.306 393.318C402.906 393.538 402.534 393.636 402.189 393.612C401.943 393.595 401.741 393.496 401.584 393.315C401.433 393.135 401.366 392.935 401.381 392.714C401.397 392.48 401.535 392.007 401.794 391.294L405.073 382.341C405.339 381.609 405.476 381.188 405.484 381.077C405.495 380.921 405.442 380.79 405.325 380.684C405.209 380.572 405.021 380.506 404.762 380.488C404.612 380.478 404.383 380.485 404.075 380.509L404.1 380.148L407.471 379.826ZM407.125 385.47L409.983 385.063C410.15 385.557 410.278 386.059 410.367 386.568C410.491 387.314 410.573 388.194 410.613 389.209C410.629 389.719 410.626 390.795 410.602 392.438C411.477 391.599 412 391.077 412.17 390.874C413.109 389.771 413.65 389.124 413.794 388.932C414.033 388.603 414.203 388.311 414.306 388.057C414.391 387.867 414.439 387.685 414.452 387.509C414.463 387.341 414.324 387.135 414.035 386.893C413.751 386.651 413.619 386.394 413.638 386.121C413.653 385.913 413.747 385.734 413.921 385.583C414.101 385.432 414.305 385.365 414.532 385.381C414.805 385.4 415.037 385.53 415.229 385.772C415.421 386.008 415.506 386.291 415.483 386.622C415.46 386.953 415.385 387.268 415.26 387.566C415.057 388.048 414.7 388.63 414.189 389.312C413.678 389.987 412.868 390.887 411.758 392.01C411.618 392.15 410.844 392.853 409.437 394.119L409.077 394.094C409.209 389.972 409.063 387.384 408.641 386.33C408.502 385.987 408.244 385.803 407.867 385.776C407.705 385.765 407.472 385.778 407.169 385.816L407.125 385.47ZM424.965 386.11L422.604 392.583L422.328 393.454C422.302 393.537 422.288 393.608 422.283 393.666C422.276 393.77 422.302 393.864 422.362 393.946C422.41 394.008 422.473 394.042 422.55 394.047C422.635 394.053 422.749 394.009 422.893 393.915C423.159 393.744 423.524 393.378 423.987 392.816L424.302 393.073C423.807 393.717 423.31 394.202 422.811 394.526C422.312 394.843 421.861 394.988 421.459 394.96C421.18 394.94 420.973 394.854 420.841 394.701C420.714 394.555 420.66 394.349 420.678 394.083C420.7 393.765 420.801 393.351 420.98 392.841L421.236 392.125C420.308 393.176 419.471 393.897 418.725 394.289C418.19 394.571 417.676 394.695 417.182 394.661C416.708 394.627 416.312 394.404 415.996 393.99C415.679 393.57 415.545 393.016 415.593 392.327C415.665 391.295 416.05 390.228 416.747 389.128C417.451 388.023 418.304 387.159 419.307 386.537C420.092 386.044 420.815 385.82 421.478 385.867C421.874 385.894 422.195 386.021 422.44 386.247C422.692 386.474 422.869 386.832 422.972 387.322L423.4 386.236L424.965 386.11ZM421.462 386.375C421.046 386.345 420.591 386.509 420.096 386.866C419.395 387.372 418.747 388.149 418.152 389.197C417.563 390.246 417.237 391.209 417.176 392.086C417.145 392.527 417.231 392.886 417.434 393.161C417.637 393.43 417.881 393.574 418.167 393.594C418.875 393.643 419.681 393.174 420.586 392.187C421.793 390.875 422.448 389.488 422.551 388.027C422.589 387.475 422.51 387.068 422.313 386.806C422.116 386.544 421.832 386.4 421.462 386.375ZM429.905 386.456L428.331 390.761C428.968 389.768 429.503 389.025 429.936 388.533C430.609 387.771 431.25 387.229 431.86 386.906C432.219 386.722 432.587 386.643 432.964 386.67C433.288 386.692 433.551 386.815 433.75 387.038C433.95 387.261 434.039 387.535 434.016 387.859C433.994 388.178 433.89 388.588 433.705 389.091L432.84 391.517C434.037 389.61 435.138 388.29 436.142 387.558C436.699 387.153 437.234 386.968 437.747 387.004C438.046 387.025 438.282 387.146 438.456 387.367C438.636 387.582 438.712 387.904 438.682 388.332C438.655 388.709 438.569 389.104 438.423 389.518L437.086 393.233C436.795 394.042 436.646 394.491 436.639 394.582C436.633 394.673 436.657 394.753 436.711 394.822C436.746 394.87 436.797 394.897 436.862 394.901C436.927 394.906 437.045 394.852 437.216 394.74C437.606 394.48 437.98 394.128 438.337 393.683L438.644 393.91C438.464 394.158 438.15 394.495 437.702 394.921C437.261 395.347 436.889 395.631 436.585 395.773C436.282 395.915 436.007 395.977 435.76 395.96C435.532 395.944 435.346 395.852 435.201 395.686C435.063 395.519 435.002 395.323 435.018 395.095C435.039 394.784 435.216 394.166 435.548 393.243L436.654 390.178C436.905 389.471 437.04 389.079 437.059 389.002C437.087 388.88 437.105 388.761 437.113 388.644C437.125 388.481 437.098 388.352 437.033 388.256C436.961 388.16 436.877 388.108 436.779 388.102C436.506 388.082 436.208 388.202 435.883 388.46C434.929 389.222 434.01 390.319 433.127 391.752C432.545 392.697 431.977 393.92 431.422 395.421L429.951 395.319L432.029 389.541C432.255 388.917 432.376 388.498 432.391 388.284C432.403 388.109 432.376 387.976 432.311 387.887C432.245 387.798 432.16 387.749 432.056 387.742C431.842 387.727 431.609 387.789 431.358 387.928C430.951 388.154 430.41 388.661 429.734 389.449C429.066 390.238 428.536 391 428.145 391.737C427.958 392.082 427.491 393.202 426.745 395.094L425.304 394.994L427.547 388.807L427.838 388.005C427.892 387.885 427.922 387.795 427.926 387.737C427.936 387.594 427.88 387.463 427.757 387.343C427.636 387.217 427.474 387.147 427.273 387.133C427.188 387.127 426.952 387.15 426.563 387.201L426.501 386.835L429.905 386.456ZM439.023 398.156C439.525 397.969 439.941 397.717 440.27 397.401C440.522 397.157 440.656 396.916 440.673 396.675C440.681 396.558 440.669 396.45 440.637 396.35C440.615 396.296 440.531 396.186 440.386 396.019C440.241 395.852 440.161 395.739 440.146 395.679C440.108 395.565 440.094 395.437 440.104 395.294C440.123 395.015 440.234 394.781 440.437 394.593C440.646 394.405 440.88 394.321 441.14 394.339C441.406 394.357 441.632 394.481 441.819 394.709C442.012 394.938 442.097 395.215 442.074 395.54C442.034 396.118 441.765 396.686 441.269 397.246C440.774 397.805 440.082 398.217 439.196 398.481L439.023 398.156ZM223.092 392.615L219.001 392.329L218.112 393.284L217.098 394.339C216.899 394.567 216.751 394.775 216.653 394.964C216.578 395.109 216.535 395.256 216.524 395.405C216.513 395.561 216.584 395.713 216.737 395.861C216.897 396.003 217.168 396.097 217.549 396.143L217.524 396.503L213.579 396.227L213.701 395.874C214.056 395.84 214.377 395.738 214.663 395.569C215.044 395.335 215.605 394.835 216.343 394.071L226.487 383.552L226.925 383.583L225.73 394.365C225.671 394.929 225.638 395.269 225.63 395.386C225.599 395.828 225.664 396.156 225.825 396.369C225.993 396.583 226.284 396.721 226.697 396.783L226.574 397.136L220.856 396.736L220.988 396.383C221.557 396.371 221.885 396.348 221.972 396.315C222.16 396.237 222.339 396.06 222.508 395.785C222.678 395.503 222.804 395.006 222.887 394.294L223.092 392.615ZM223.148 391.816L223.703 387.528L219.729 391.577L223.148 391.816ZM235.274 384.166L231.282 394.91C231.048 395.547 230.926 395.946 230.915 396.108C230.909 396.193 230.93 396.266 230.977 396.328C231.032 396.391 231.091 396.424 231.156 396.429C231.273 396.437 231.387 396.399 231.497 396.315C231.827 396.084 232.204 395.68 232.629 395.102L232.997 395.304C232.311 396.248 231.655 396.911 231.028 397.291C230.598 397.548 230.153 397.661 229.692 397.628C229.264 397.598 228.931 397.461 228.693 397.216C228.456 396.964 228.349 396.676 228.372 396.351C228.389 396.111 228.494 395.73 228.687 395.209L231.945 386.41C232.122 385.927 232.217 385.604 232.228 385.442C232.239 385.286 232.18 385.157 232.049 385.057C231.877 384.914 231.605 384.84 231.233 384.834L231.366 384.471L234.689 384.126L235.274 384.166ZM240.757 389.053C241.27 389.089 241.742 389.243 242.173 389.514C242.612 389.78 242.93 390.132 243.127 390.57C243.332 391.008 243.416 391.484 243.38 391.997C243.307 393.049 242.937 394.081 242.273 395.091C241.615 396.103 240.784 396.88 239.78 397.423C238.776 397.96 237.788 398.194 236.813 398.126C235.93 398.064 235.263 397.754 234.813 397.193C234.369 396.634 234.174 395.974 234.227 395.214C234.29 394.311 234.528 393.48 234.94 392.719C235.359 391.952 235.865 391.295 236.458 390.75C237.058 390.198 237.731 389.765 238.477 389.452C239.224 389.132 239.984 388.999 240.757 389.053ZM240.321 389.541C239.977 389.517 239.684 389.598 239.443 389.783C238.96 390.161 238.38 391.083 237.703 392.55C237.026 394.01 236.646 395.344 236.561 396.552C236.54 396.851 236.614 397.104 236.782 397.312C236.951 397.519 237.158 397.632 237.405 397.649C237.658 397.666 237.888 397.604 238.093 397.462C238.396 397.248 238.783 396.75 239.255 395.967C239.728 395.178 240.132 394.302 240.467 393.34C240.802 392.372 240.998 391.478 241.056 390.66C241.079 390.322 241.016 390.057 240.867 389.863C240.717 389.664 240.536 389.556 240.321 389.541ZM249.299 391.07L247.845 395.491C247.163 397.577 246.536 399.08 245.963 400C245.39 400.919 244.746 401.582 244.032 401.989C243.325 402.403 242.532 402.579 241.656 402.518C241.104 402.479 240.705 402.344 240.46 402.111C240.215 401.885 240.103 401.629 240.123 401.343C240.141 401.077 240.264 400.854 240.492 400.674C240.72 400.494 241.01 400.417 241.36 400.441C241.653 400.462 241.871 400.552 242.017 400.712C242.162 400.873 242.227 401.066 242.211 401.294C242.197 401.502 242.137 401.651 242.033 401.741C241.928 401.838 241.875 401.903 241.873 401.936L241.917 402.007C241.953 402.043 241.998 402.062 242.05 402.066C242.244 402.079 242.414 402.029 242.559 401.915C242.925 401.634 243.207 401.282 243.407 400.858C243.544 400.568 243.824 399.794 244.244 398.538L246.776 390.893L245.422 390.799L245.823 389.681C246.31 389.722 246.668 389.685 246.898 389.571C247.128 389.456 247.382 389.18 247.66 388.743C248.467 387.474 249.287 386.582 250.119 386.066C250.951 385.55 251.854 385.326 252.829 385.394C253.452 385.438 253.895 385.589 254.157 385.849C254.426 386.109 254.548 386.431 254.521 386.814C254.497 387.152 254.384 387.415 254.182 387.603C253.98 387.785 253.739 387.866 253.46 387.846C253.2 387.828 252.991 387.732 252.834 387.558C252.676 387.384 252.606 387.183 252.621 386.956C252.633 386.793 252.697 386.625 252.813 386.45C252.937 386.276 253 386.157 253.005 386.092C253.01 386.02 252.988 385.96 252.939 385.911C252.897 385.862 252.837 385.835 252.759 385.83C252.376 385.803 251.966 386.012 251.53 386.458C250.815 387.172 250.198 388.336 249.681 389.951L251.093 390.05L250.673 391.166L249.299 391.07ZM256.705 387.78L255.74 390.375L257.016 390.464L256.597 391.561L255.34 391.473L253.318 397.009C253.19 397.353 253.119 397.615 253.107 397.797C253.101 397.882 253.125 397.958 253.179 398.027C253.233 398.09 253.296 398.124 253.367 398.129C253.478 398.136 253.595 398.099 253.718 398.016C254.032 397.81 254.408 397.438 254.843 396.9L255.169 397.139C254.667 397.887 254.133 398.424 253.569 398.75C253.004 399.076 252.462 399.221 251.943 399.184C251.501 399.153 251.164 399.019 250.933 398.781C250.709 398.537 250.609 398.242 250.633 397.898C250.659 397.522 250.777 397.044 250.987 396.464L252.895 391.302L251.57 391.209L251.815 390.502C252.668 390.255 253.395 389.947 253.995 389.577C254.595 389.208 255.329 388.597 256.198 387.744L256.705 387.78ZM272.965 400.38L267.247 399.98L267.379 399.627C267.758 399.621 268.045 399.534 268.239 399.364C268.434 399.189 268.541 398.965 268.56 398.692C268.581 398.4 268.513 397.928 268.356 397.278L267.268 392.679L265.537 397.404C265.344 397.932 265.239 398.316 265.222 398.556C265.203 398.829 265.294 399.057 265.497 399.241C265.7 399.419 266.08 399.53 266.639 399.576L266.506 399.928L260.086 399.48L260.219 399.127C260.733 399.149 261.121 399.108 261.383 399.002C261.644 398.897 261.859 398.719 262.027 398.47C262.194 398.221 262.408 397.736 262.667 397.017L265.425 389.486C265.74 388.62 265.906 388.067 265.923 387.827C265.939 387.606 265.848 387.407 265.652 387.231C265.462 387.054 265.082 386.936 264.511 386.877L264.644 386.524L270.859 386.958L270.727 387.311C270.311 387.282 269.988 387.322 269.759 387.43C269.455 387.578 269.201 387.808 268.996 388.12C268.858 388.326 268.654 388.811 268.385 389.575L267.268 392.669L270.928 389.753C271.64 389.183 272.039 388.839 272.126 388.721C272.241 388.566 272.305 388.397 272.318 388.215C272.332 388.021 272.272 387.847 272.139 387.694C272.013 387.542 271.779 387.431 271.438 387.361L271.57 387.008L276.548 387.356L276.416 387.709C276.03 387.715 275.715 387.748 275.469 387.809C275.144 387.891 274.767 388.044 274.341 388.269C273.914 388.487 273.478 388.75 273.032 389.058L272.068 389.833L269.842 391.567L271.06 396.546C271.454 398.186 271.781 399.162 272.04 399.474C272.299 399.785 272.651 399.97 273.097 400.027L272.965 400.38ZM279.968 391.795L277.615 398.287C277.502 398.586 277.442 398.794 277.434 398.911C277.43 398.969 277.449 399.016 277.493 399.052C277.541 399.108 277.601 399.138 277.672 399.143C277.971 399.164 278.389 398.925 278.926 398.428C279.695 397.705 280.523 396.647 281.41 395.254L282.505 392.335L284.975 392.419L282.655 398.718C282.461 399.253 282.362 399.559 282.356 399.637C282.353 399.689 282.371 399.746 282.413 399.807C282.461 399.863 282.511 399.892 282.563 399.896C282.654 399.902 282.745 399.87 282.834 399.798C283.081 399.626 283.416 399.267 283.84 398.723L284.154 398.98C283.138 400.547 282.087 401.292 281.002 401.216C280.6 401.188 280.289 401.065 280.069 400.847C279.856 400.624 279.761 400.346 279.784 400.015C279.809 399.664 279.921 399.225 280.121 398.697L280.714 397.084C279.784 398.253 279.112 399.038 278.699 399.44C278.069 400.042 277.546 400.436 277.128 400.622C276.717 400.809 276.33 400.889 275.966 400.864C275.622 400.84 275.332 400.692 275.096 400.421C274.867 400.151 274.766 399.821 274.794 399.431C274.817 399.1 274.929 398.661 275.13 398.114L276.504 394.294C276.73 393.67 276.851 393.248 276.866 393.027C276.873 392.93 276.853 392.843 276.806 392.768C276.76 392.687 276.676 392.622 276.555 392.574C276.442 392.521 276.222 392.483 275.898 392.46L276.021 392.097L279.383 391.754L279.968 391.795ZM295.321 393.006L292.978 399.352L292.728 400.127C292.702 400.223 292.687 400.294 292.684 400.34C292.678 400.417 292.7 400.487 292.748 400.55C292.802 400.612 292.858 400.645 292.917 400.649C293.053 400.659 293.249 400.568 293.504 400.377C293.607 400.3 293.862 400.017 294.268 399.53L294.596 399.729C294.076 400.541 293.539 401.124 292.986 401.477C292.44 401.824 291.865 401.976 291.261 401.934C290.89 401.908 290.615 401.794 290.433 401.592C290.252 401.383 290.171 401.133 290.192 400.841C290.209 400.587 290.346 400.124 290.602 399.45L290.891 398.677C290.047 399.917 289.259 400.782 288.527 401.272C288.102 401.556 287.663 401.682 287.208 401.65C286.611 401.608 286.196 401.335 285.963 400.829C285.732 400.317 285.637 399.752 285.681 399.135C285.745 398.219 286.097 397.19 286.738 396.047C287.38 394.898 288.181 393.994 289.14 393.337C289.929 392.792 290.651 392.542 291.307 392.588C291.671 392.613 291.956 392.741 292.161 392.971C292.368 393.194 292.503 393.588 292.568 394.154L293.003 392.981L295.321 393.006ZM292.074 394.639C292.111 394.113 292.056 393.727 291.91 393.482C291.805 393.311 291.651 393.219 291.45 393.205C291.249 393.191 291.034 393.274 290.806 393.453C290.343 393.826 289.815 394.611 289.222 395.81C288.636 397.002 288.312 398.047 288.249 398.943C288.225 399.287 288.263 399.541 288.362 399.704C288.469 399.862 288.59 399.946 288.726 399.955C289.019 399.976 289.326 399.827 289.648 399.511C290.111 399.06 290.538 398.499 290.931 397.828C291.627 396.65 292.008 395.587 292.074 394.639ZM302.376 388.859L298.384 399.603C298.15 400.239 298.028 400.638 298.016 400.8C298.01 400.885 298.031 400.958 298.079 401.02C298.134 401.083 298.193 401.116 298.258 401.121C298.375 401.129 298.489 401.091 298.599 401.008C298.928 400.776 299.306 400.372 299.731 399.795L300.099 399.997C299.413 400.941 298.756 401.603 298.129 401.983C297.7 402.24 297.255 402.353 296.794 402.321C296.365 402.291 296.032 402.153 295.795 401.908C295.558 401.656 295.451 401.368 295.474 401.044C295.49 400.803 295.595 400.422 295.788 399.901L299.047 391.103C299.224 390.619 299.319 390.296 299.33 390.134C299.341 389.978 299.281 389.85 299.151 389.749C298.978 389.607 298.706 389.532 298.335 389.526L298.468 389.163L301.791 388.818L302.376 388.859ZM310.85 394.091L308.507 400.438L308.257 401.213C308.23 401.309 308.216 401.38 308.212 401.425C308.207 401.503 308.228 401.573 308.276 401.635C308.33 401.698 308.387 401.731 308.445 401.735C308.582 401.745 308.777 401.654 309.032 401.463C309.135 401.385 309.39 401.103 309.796 400.616L310.125 400.815C309.605 401.627 309.068 402.21 308.515 402.563C307.968 402.909 307.393 403.062 306.789 403.019C306.419 402.994 306.143 402.88 305.961 402.678C305.78 402.469 305.7 402.219 305.72 401.927C305.738 401.673 305.875 401.21 306.131 400.536L306.42 399.763C305.576 401.003 304.788 401.868 304.055 402.358C303.631 402.642 303.191 402.768 302.737 402.736C302.139 402.694 301.724 402.421 301.492 401.915C301.26 401.403 301.166 400.838 301.209 400.221C301.273 399.305 301.626 398.276 302.267 397.133C302.908 395.984 303.709 395.08 304.669 394.423C305.457 393.878 306.18 393.628 306.836 393.674C307.199 393.699 307.484 393.827 307.69 394.057C307.896 394.28 308.032 394.674 308.097 395.24L308.531 394.066L310.85 394.091ZM307.603 395.724C307.639 395.198 307.585 394.813 307.439 394.568C307.333 394.397 307.18 394.305 306.979 394.291C306.777 394.277 306.563 394.359 306.335 394.539C305.871 394.912 305.343 395.697 304.75 396.896C304.164 398.088 303.84 399.132 303.778 400.029C303.753 400.373 303.791 400.627 303.891 400.79C303.997 400.948 304.119 401.031 304.255 401.041C304.547 401.061 304.854 400.913 305.177 400.596C305.639 400.146 306.067 399.585 306.459 398.914C307.155 397.736 307.536 396.673 307.603 395.724ZM325.542 404.057L314.991 403.319L315.124 402.966C315.754 403.01 316.22 402.922 316.522 402.702C316.832 402.475 317.14 401.945 317.446 401.112L320.494 392.798C320.664 392.34 320.757 391.978 320.776 391.712C320.794 391.452 320.711 391.237 320.527 391.068C320.343 390.898 319.967 390.781 319.397 390.715L319.529 390.362L325.871 390.805L325.739 391.158C325.127 391.128 324.66 391.233 324.337 391.471C324.02 391.71 323.716 392.221 323.427 393.003L320.643 400.611C320.288 401.578 320.104 402.169 320.089 402.383C320.079 402.513 320.142 402.641 320.277 402.768C320.419 402.889 320.652 402.961 320.977 402.984C322.055 403.059 323.111 402.885 324.146 402.461C325.187 402.038 326.089 401.36 326.853 400.428L327.262 400.457L325.542 404.057ZM333.762 395.557L331.409 402.049C331.297 402.348 331.236 402.556 331.228 402.673C331.224 402.731 331.244 402.778 331.287 402.814C331.335 402.869 331.395 402.9 331.467 402.905C331.765 402.926 332.183 402.687 332.721 402.19C333.489 401.467 334.317 400.409 335.204 399.015L336.299 396.096L338.77 396.181L336.45 402.48C336.256 403.014 336.156 403.321 336.151 403.399C336.147 403.451 336.166 403.507 336.207 403.569C336.256 403.625 336.306 403.654 336.358 403.658C336.449 403.664 336.539 403.631 336.629 403.559C336.876 403.387 337.211 403.029 337.634 402.484L337.949 402.741C336.932 404.308 335.881 405.054 334.797 404.978C334.394 404.95 334.083 404.827 333.863 404.609C333.651 404.385 333.556 404.108 333.579 403.777C333.603 403.426 333.716 402.987 333.916 402.459L334.508 400.846C333.578 402.015 332.906 402.8 332.493 403.202C331.864 403.804 331.34 404.198 330.923 404.384C330.511 404.571 330.124 404.651 329.76 404.626C329.416 404.602 329.126 404.454 328.891 404.183C328.662 403.913 328.561 403.582 328.588 403.193C328.611 402.862 328.723 402.422 328.925 401.875L330.298 398.055C330.524 397.432 330.645 397.009 330.661 396.789C330.668 396.691 330.648 396.605 330.601 396.53C330.554 396.448 330.47 396.384 330.35 396.336C330.236 396.282 330.017 396.244 329.692 396.222L329.815 395.858L333.178 395.516L333.762 395.557ZM344.868 396.333L343.328 400.435C344.256 399.208 344.927 398.383 345.341 397.962C345.952 397.346 346.447 396.949 346.824 396.773C347.209 396.598 347.586 396.523 347.956 396.549C348.378 396.579 348.675 396.727 348.845 396.993C349.016 397.26 349.09 397.545 349.069 397.851C349.047 398.169 348.926 398.63 348.708 399.235L348.16 400.773C349.095 399.533 349.763 398.712 350.163 398.309C350.781 397.686 351.309 397.273 351.747 397.069C352.051 396.92 352.369 396.858 352.7 396.881C353.044 396.905 353.322 397.042 353.533 397.292C353.751 397.535 353.847 397.842 353.821 398.212C353.792 398.628 353.657 399.16 353.416 399.809L352.08 403.367C351.88 403.895 351.775 404.237 351.764 404.392C351.76 404.444 351.776 404.495 351.812 404.543C351.854 404.591 351.901 404.617 351.953 404.621C352.025 404.626 352.088 404.608 352.143 404.566C352.39 404.394 352.656 404.135 352.942 403.79C353.005 403.716 353.102 403.602 353.23 403.448L353.546 403.685C353.039 404.491 352.503 405.071 351.937 405.423C351.377 405.775 350.87 405.935 350.415 405.904C350.019 405.876 349.708 405.747 349.483 405.515C349.258 405.278 349.156 405.013 349.176 404.721C349.196 404.441 349.306 404.025 349.508 403.471L350.875 399.749C351.061 399.233 351.158 398.91 351.168 398.781C351.171 398.735 351.151 398.691 351.108 398.649C351.066 398.601 351.022 398.575 350.977 398.571C350.892 398.566 350.806 398.579 350.719 398.612C350.591 398.668 350.388 398.824 350.109 399.079C349.837 399.334 349.435 399.798 348.905 400.473C348.376 401.14 348.003 401.666 347.787 402.049C347.577 402.432 347.359 402.933 347.134 403.55L346.399 405.515L343.934 405.343L346.201 399.109C346.322 398.771 346.388 398.538 346.397 398.408C346.4 398.362 346.38 398.319 346.337 398.276C346.301 398.235 346.26 398.212 346.215 398.209C345.975 398.192 345.573 398.481 345.009 399.074C344.149 399.993 343.346 401.115 342.6 402.44L341.616 405.181L339.132 405.007L341.401 398.871C341.626 398.267 341.748 397.835 341.766 397.575C341.773 397.471 341.753 397.382 341.706 397.306C341.66 397.225 341.579 397.161 341.465 397.113C341.352 397.06 341.129 397.021 340.798 396.998L340.921 396.635L344.283 396.292L344.868 396.333ZM356.267 397.678L359.529 397.358L360.114 397.399L359.564 398.957C360.29 398.381 360.878 398.001 361.328 397.817C361.778 397.627 362.218 397.546 362.647 397.576C363.257 397.619 363.711 397.889 364.009 398.386C364.308 398.877 364.433 399.463 364.386 400.145C364.255 402.009 363.494 403.617 362.1 404.968C360.868 406.161 359.577 406.711 358.226 406.616C357.986 406.599 357.783 406.562 357.617 406.505C357.451 406.448 357.221 406.331 356.927 406.153L356.298 407.872C356.071 408.495 355.947 408.973 355.924 409.304C355.909 409.512 355.969 409.679 356.104 409.806C356.238 409.939 356.565 410.067 357.085 410.188L356.973 410.542L351.731 410.176L351.854 409.822C352.271 409.838 352.627 409.729 352.924 409.496C353.215 409.261 353.51 408.734 353.808 407.913L356.758 399.886C356.976 399.288 357.094 398.862 357.112 398.609C357.12 398.498 357.1 398.406 357.053 398.331C357.007 398.249 356.932 398.188 356.831 398.149C356.729 398.109 356.497 398.076 356.133 398.051L356.267 397.678ZM357.263 405.266C357.436 405.598 357.596 405.825 357.744 405.946C357.893 406.061 358.071 406.126 358.279 406.14C358.487 406.155 358.692 406.114 358.894 406.017C359.104 405.914 359.367 405.701 359.683 405.377C360 405.053 360.31 404.631 360.614 404.111C360.924 403.591 361.184 402.995 361.394 402.325C361.605 401.648 361.732 400.998 361.776 400.374C361.811 399.874 361.745 399.504 361.579 399.264C361.42 399.024 361.213 398.896 360.96 398.878C360.733 398.862 360.514 398.906 360.305 399.008C360.001 399.157 359.634 399.448 359.206 399.881L357.263 405.266ZM370.372 398.117L368.019 404.609C367.907 404.908 367.846 405.116 367.838 405.233C367.834 405.291 367.854 405.338 367.897 405.374C367.945 405.429 368.005 405.46 368.076 405.465C368.375 405.486 368.793 405.247 369.331 404.75C370.099 404.027 370.927 402.969 371.814 401.575L372.909 398.656L375.38 398.741L373.06 405.04C372.866 405.574 372.766 405.881 372.76 405.959C372.757 406.011 372.776 406.067 372.817 406.129C372.865 406.185 372.915 406.214 372.967 406.218C373.058 406.224 373.149 406.191 373.239 406.119C373.486 405.947 373.821 405.589 374.244 405.044L374.559 405.301C373.542 406.868 372.491 407.614 371.407 407.538C371.004 407.51 370.693 407.387 370.473 407.169C370.26 406.945 370.166 406.668 370.189 406.337C370.213 405.986 370.326 405.547 370.526 405.019L371.118 403.406C370.188 404.575 369.516 405.36 369.103 405.762C368.474 406.364 367.95 406.758 367.532 406.944C367.121 407.131 366.734 407.211 366.37 407.186C366.026 407.162 365.736 407.014 365.5 406.743C365.271 406.473 365.171 406.142 365.198 405.753C365.221 405.422 365.333 404.982 365.535 404.435L366.908 400.615C367.134 399.992 367.255 399.569 367.271 399.349C367.277 399.251 367.257 399.165 367.21 399.09C367.164 399.008 367.08 398.944 366.96 398.896C366.846 398.842 366.627 398.804 366.302 398.782L366.425 398.418L369.787 398.076L370.372 398.117ZM380.903 398.853L379.049 404.225C380.444 401.64 381.468 400.061 382.121 399.486C382.504 399.148 382.893 398.992 383.29 399.02C383.562 399.039 383.776 399.155 383.931 399.368C384.086 399.575 384.151 399.86 384.126 400.224C384.082 400.854 383.892 401.372 383.557 401.78C383.343 402.039 383.116 402.16 382.875 402.143C382.616 402.125 382.429 401.991 382.316 401.742C382.203 401.492 382.122 401.346 382.073 401.304C382.024 401.255 381.97 401.228 381.912 401.224C381.847 401.22 381.777 401.234 381.703 401.268C381.555 401.336 381.353 401.515 381.098 401.804C380.85 402.086 380.532 402.57 380.145 403.254C379.758 403.939 379.453 404.521 379.23 405.001C379.007 405.475 378.679 406.389 378.245 407.742L375.888 407.577L377.947 401.231C378.097 400.758 378.178 400.444 378.189 400.288C378.201 400.113 378.178 399.974 378.12 399.872C378.068 399.771 377.989 399.693 377.882 399.64C377.781 399.588 377.562 399.549 377.224 399.526L377.331 399.249L380.318 398.812L380.903 398.853ZM400.895 395.748L399.481 400.152L399.159 400.13C399.137 399.423 399.049 398.853 398.897 398.418C398.667 397.788 398.336 397.292 397.905 396.929C397.48 396.566 397.004 396.367 396.478 396.33C395.972 396.294 395.513 396.458 395.103 396.821C394.699 397.178 394.48 397.6 394.446 398.087C394.413 398.568 394.509 399.051 394.737 399.536C394.971 400.016 395.545 400.758 396.461 401.762C397.194 402.564 397.675 403.243 397.904 403.801C398.139 404.359 398.234 404.953 398.19 405.583C398.141 406.291 397.907 406.931 397.488 407.502C397.07 408.073 396.489 408.499 395.745 408.78C395.008 409.054 394.184 409.16 393.275 409.096C392.717 409.057 392.018 408.924 391.179 408.695C390.346 408.474 389.79 408.354 389.511 408.334C389.29 408.319 389.089 408.34 388.909 408.4C388.729 408.452 388.502 408.567 388.229 408.744L387.849 408.717L389.38 403.763L389.75 403.789C389.773 404.678 389.899 405.444 390.128 406.086C390.357 406.722 390.713 407.234 391.195 407.62C391.678 407.999 392.244 408.212 392.893 408.257C393.536 408.302 394.087 408.129 394.545 407.736C395.01 407.338 395.263 406.853 395.303 406.282C395.337 405.795 395.246 405.319 395.03 404.853C394.821 404.388 394.312 403.697 393.502 402.779C392.698 401.861 392.154 401.053 391.87 400.354C391.664 399.837 391.582 399.296 391.621 398.731C391.69 397.751 392.135 396.93 392.958 396.27C393.781 395.609 394.816 395.323 396.063 395.41C396.628 395.449 397.363 395.628 398.267 395.946C398.796 396.133 399.17 396.234 399.391 396.25C399.58 396.263 399.751 396.236 399.906 396.168C400.061 396.094 400.248 395.944 400.466 395.718L400.895 395.748ZM402.787 405.787C402.699 406.205 402.645 406.551 402.626 406.823C402.592 407.31 402.705 407.71 402.964 408.022C403.229 408.334 403.599 408.507 404.073 408.54C404.527 408.572 404.99 408.493 405.46 408.304C405.936 408.115 406.496 407.766 407.138 407.256L407.412 407.54C406.602 408.39 405.83 408.982 405.095 409.316C404.361 409.65 403.565 409.787 402.707 409.727C401.623 409.651 400.891 409.339 400.511 408.79C400.132 408.241 399.966 407.626 400.014 406.944C400.088 405.879 400.471 404.835 401.163 403.814C401.861 402.792 402.765 401.997 403.875 401.429C404.991 400.861 406.089 400.614 407.167 400.69C407.712 400.728 408.116 400.886 408.377 401.166C408.638 401.445 408.755 401.783 408.727 402.179C408.694 402.653 408.525 403.105 408.221 403.534C407.802 404.118 407.293 404.578 406.695 404.915C406.098 405.245 405.438 405.483 404.717 405.628C404.234 405.725 403.59 405.778 402.787 405.787ZM402.91 405.287C403.487 405.242 403.937 405.159 404.259 405.038C404.587 404.911 404.912 404.699 405.233 404.402C405.561 404.098 405.853 403.711 406.108 403.239C406.363 402.761 406.506 402.308 406.535 401.879C406.548 401.697 406.506 401.551 406.41 401.439C406.319 401.329 406.196 401.268 406.041 401.257C405.729 401.235 405.363 401.428 404.943 401.836C404.173 402.578 403.495 403.729 402.91 405.287ZM414.239 401.184L412.739 405.279C413.636 404.115 414.302 403.323 414.736 402.903C415.372 402.295 415.913 401.889 416.358 401.685C416.803 401.481 417.214 401.392 417.591 401.418C417.928 401.442 418.208 401.589 418.431 401.859C418.654 402.123 418.752 402.456 418.723 402.858C418.698 403.222 418.589 403.658 418.397 404.167L416.859 408.24C416.73 408.596 416.661 408.829 416.654 408.94C416.649 409.005 416.668 409.065 416.709 409.12C416.758 409.176 416.808 409.205 416.86 409.209C416.925 409.213 416.995 409.192 417.07 409.145C417.31 408.973 417.56 408.723 417.817 408.395C417.882 408.308 417.986 408.178 418.129 408.005L418.483 408.255C417.416 409.793 416.357 410.525 415.305 410.451C414.902 410.423 414.594 410.297 414.381 410.073C414.169 409.849 414.073 409.582 414.095 409.27C414.114 408.997 414.22 408.597 414.414 408.069L415.923 403.994C416.026 403.727 416.082 403.529 416.091 403.399C416.096 403.327 416.071 403.264 416.017 403.208C415.962 403.145 415.896 403.111 415.818 403.106C415.571 403.088 415.261 403.236 414.887 403.549C413.93 404.344 412.974 405.56 412.018 407.196L411.017 410.034L408.532 409.86L410.792 403.733C411.01 403.128 411.128 402.696 411.146 402.436C411.154 402.326 411.135 402.233 411.088 402.158C411.041 402.076 410.961 402.012 410.847 401.965C410.733 401.911 410.514 401.873 410.189 401.85L410.322 401.488L413.645 401.143L414.239 401.184ZM425.901 399.611L424.936 402.206L426.213 402.295L425.793 403.392L424.537 403.304L422.515 408.841C422.386 409.184 422.316 409.447 422.303 409.629C422.297 409.713 422.321 409.79 422.375 409.859C422.429 409.921 422.492 409.955 422.564 409.96C422.674 409.968 422.791 409.93 422.914 409.847C423.229 409.641 423.604 409.269 424.04 408.732L424.366 408.97C423.863 409.718 423.329 410.255 422.765 410.581C422.2 410.907 421.658 411.052 421.139 411.016C420.697 410.985 420.361 410.85 420.129 410.612C419.905 410.368 419.805 410.074 419.829 409.73C419.855 409.353 419.973 408.875 420.184 408.296L422.091 403.133L420.766 403.04L421.012 402.333C421.864 402.086 422.591 401.778 423.191 401.409C423.791 401.04 424.526 400.428 425.394 399.576L425.901 399.611ZM430.294 402.307L428.44 407.679C429.835 405.094 430.859 403.514 431.513 402.94C431.895 402.601 432.285 402.446 432.681 402.474C432.953 402.493 433.167 402.609 433.322 402.822C433.477 403.029 433.542 403.314 433.517 403.678C433.473 404.307 433.283 404.826 432.948 405.233C432.734 405.493 432.507 405.614 432.267 405.597C432.007 405.579 431.82 405.445 431.707 405.196C431.594 404.946 431.513 404.8 431.464 404.758C431.415 404.709 431.361 404.682 431.303 404.678C431.238 404.673 431.168 404.688 431.094 404.722C430.946 404.79 430.744 404.968 430.489 405.257C430.241 405.54 429.923 406.024 429.536 406.708C429.149 407.392 428.844 407.975 428.621 408.455C428.398 408.929 428.07 409.843 427.636 411.196L425.279 411.031L427.338 404.684C427.488 404.212 427.569 403.898 427.58 403.742C427.592 403.567 427.569 403.428 427.511 403.326C427.459 403.225 427.38 403.147 427.273 403.094C427.172 403.041 426.953 403.003 426.615 402.98L426.722 402.703L429.709 402.266L430.294 402.307ZM442.89 403.325L440.547 409.671L440.297 410.446C440.271 410.542 440.256 410.613 440.253 410.659C440.248 410.737 440.269 410.807 440.317 410.869C440.371 410.931 440.428 410.964 440.486 410.969C440.622 410.978 440.818 410.887 441.073 410.696C441.176 410.619 441.431 410.336 441.837 409.849L442.166 410.048C441.646 410.86 441.109 411.443 440.555 411.796C440.009 412.143 439.434 412.295 438.83 412.253C438.46 412.227 438.184 412.113 438.002 411.911C437.821 411.702 437.741 411.452 437.761 411.16C437.779 410.906 437.916 410.443 438.172 409.769L438.461 408.996C437.617 410.236 436.829 411.101 436.096 411.592C435.672 411.875 435.232 412.001 434.777 411.969C434.18 411.927 433.765 411.654 433.533 411.148C433.301 410.636 433.207 410.071 433.25 409.454C433.314 408.538 433.667 407.509 434.308 406.366C434.949 405.217 435.75 404.313 436.71 403.656C437.498 403.111 438.221 402.861 438.877 402.907C439.24 402.932 439.525 403.06 439.731 403.29C439.937 403.513 440.073 403.908 440.138 404.473L440.572 403.3L442.89 403.325ZM439.644 404.958C439.68 404.432 439.626 404.046 439.48 403.801C439.374 403.63 439.221 403.538 439.019 403.524C438.818 403.51 438.603 403.593 438.375 403.773C437.912 404.145 437.384 404.93 436.791 406.129C436.205 407.321 435.881 408.366 435.818 409.262C435.794 409.606 435.832 409.86 435.932 410.024C436.038 410.181 436.159 410.265 436.296 410.274C436.588 410.295 436.895 410.146 437.218 409.83C437.68 409.379 438.107 408.818 438.5 408.147C439.196 406.969 439.577 405.906 439.644 404.958ZM449.945 399.178L445.953 409.922C445.72 410.558 445.597 410.957 445.586 411.12C445.58 411.204 445.601 411.277 445.649 411.339C445.703 411.402 445.763 411.435 445.828 411.44C445.944 411.448 446.058 411.41 446.168 411.327C446.498 411.095 446.875 410.691 447.301 410.114L447.668 410.316C446.982 411.26 446.326 411.922 445.699 412.302C445.27 412.559 444.824 412.672 444.363 412.64C443.935 412.61 443.602 412.472 443.364 412.227C443.127 411.976 443.02 411.687 443.043 411.363C443.06 411.122 443.165 410.741 443.358 410.22L446.616 401.422C446.794 400.938 446.888 400.615 446.899 400.453C446.91 400.297 446.851 400.169 446.721 400.068C446.548 399.926 446.276 399.851 445.904 399.845L446.037 399.482L449.36 399.137L449.945 399.178Z" fill="#1340FF"/>
<path d="M93.8294 348.831L95.6067 388.149L128.077 365.906L101.532 394.965L140.22 402.197L100.902 403.974L123.145 436.444L94.0857 409.899L86.8537 448.587L85.0764 409.269L52.6061 431.512L79.1513 402.453L40.4633 395.221L79.7813 393.444L57.5386 360.973L86.5974 387.519L93.8294 348.831Z" fill="#FFEE00"/>
</g>
<defs>
<filter id="filter0_d_8175_27568" x="0.462891" y="0.0722656" width="562.002" height="506.928" filterUnits="userSpaceOnUse" color-interpolation-filters="sRGB">
<feFlood flood-opacity="0" result="BackgroundImageFix"/>
<feColorMatrix in="SourceAlpha" type="matrix" values="0 0 0 0 0 0 0 0 0 0 0 0 0 0 0 0 0 0 127 0" result="hardAlpha"/>
<feOffset/>
<feGaussianBlur stdDeviation="20"/>
<feComposite in2="hardAlpha" operator="out"/>
<feColorMatrix type="matrix" values="0 0 0 0 0.0745098 0 0 0 0 0.25098 0 0 0 0 1 0 0 0 1 0"/>
<feBlend mode="normal" in2="BackgroundImageFix" result="effect1_dropShadow_8175_27568"/>
<feBlend mode="normal" in="SourceGraphic" in2="effect1_dropShadow_8175_27568" result="shape"/>
</filter>
</defs>
</svg>
