<svg width="508" height="487" viewBox="0 0 508 487" fill="none" xmlns="http://www.w3.org/2000/svg">
<g filter="url(#filter0_d_8175_27625)">
<rect width="400" height="400" transform="translate(68.4375 40.0723) rotate(4)" fill="white"/>
<path d="M128.912 217.162L123.16 233.36L120.454 233.171L117.716 218.665L112.841 232.639L110.112 232.448L106.909 215.624L109.256 215.788L111.701 230.707L116.541 216.538L119.318 216.732L122.042 231.454L126.733 217.01L128.912 217.162ZM140.045 227.805C140.032 227.996 140.008 228.331 139.928 228.783L130.735 228.14C130.692 231.505 132.193 232.741 134.061 232.872C135.713 232.987 137.126 232.051 137.54 230.252L139.695 230.403C138.978 233.432 136.464 234.628 133.855 234.445C130.551 234.214 128.235 231.887 128.548 227.41C128.836 223.292 131.581 220.861 135.052 221.104C138.548 221.348 140.304 224.094 140.045 227.805ZM134.894 222.681C132.883 222.54 131.298 223.873 130.869 226.562L138.004 227.06C137.996 224.414 136.977 222.827 134.894 222.681ZM150.662 217.6L149.686 231.558C149.659 231.941 149.631 232.348 149.626 232.757C149.617 233.574 149.982 233.865 151.116 233.824L151.012 235.308C150.552 235.348 150.023 235.335 149.545 235.302C148.348 235.218 147.489 234.773 147.529 233.164C147.535 232.731 147.574 232.18 147.622 231.486L148.603 217.456L150.662 217.6ZM159.538 222.816C163.847 223.118 165.618 226.345 165.367 229.936C165.118 233.504 162.913 236.477 158.603 236.176C154.294 235.874 152.524 232.623 152.774 229.056C153.025 225.464 155.228 222.515 159.538 222.816ZM158.714 234.595C161.276 234.775 162.909 232.748 163.117 229.779C163.326 226.786 161.989 224.576 159.427 224.396C156.865 224.217 155.234 226.22 155.024 229.213C154.817 232.182 156.152 234.416 158.714 234.595ZM178.69 224.492L172.99 236.845L170.476 236.669L166.552 223.644L168.826 223.803L171.923 235.254L176.511 224.34L178.69 224.492ZM190.406 231.326C190.393 231.518 190.369 231.853 190.29 232.305L181.096 231.662C181.053 235.027 182.555 236.263 184.422 236.393C186.074 236.509 187.487 235.573 187.902 233.774L190.056 233.924C189.339 236.954 186.826 238.149 184.216 237.967C180.912 237.736 178.597 235.408 178.91 230.931C179.198 226.813 181.942 224.383 185.414 224.626C188.909 224.87 190.666 227.615 190.406 231.326ZM185.255 226.202C183.244 226.062 181.659 227.395 181.231 230.083L188.365 230.582C188.358 227.935 187.338 226.348 185.255 226.202ZM201.066 227.741L200.555 235.043C200.525 235.474 200.51 235.69 200.511 236.027C200.521 237.254 201.005 237.553 202.623 237.473L202.517 238.982C201.912 239.036 201.336 239.019 200.761 238.979C199.181 238.869 198.412 238.165 198.403 236.577C198.403 236.24 198.439 235.713 198.49 234.995L199.007 227.597L197.307 227.478L197.418 225.898L199.117 226.017L199.323 223.072L201.382 223.216L201.176 226.161L203.547 226.327L203.436 227.907L201.066 227.741ZM216.664 230.54C216.667 231.19 216.632 231.693 216.56 232.722L216.061 239.857L214.002 239.713L214.491 232.722C214.536 232.075 214.573 231.549 214.57 230.899C214.554 229.406 213.82 228.2 211.854 228.111C209.863 228.019 208.087 229.339 207.784 233.672L207.394 239.251L205.335 239.107L206.574 221.39L208.633 221.534L208.129 228.74L209.021 227.335C210.157 226.572 211.106 226.422 212.399 226.513C215.176 226.707 216.628 228.3 216.664 230.54ZM230.41 234.124C230.397 234.315 230.373 234.65 230.294 235.102L221.1 234.459C221.057 237.824 222.559 239.06 224.426 239.191C226.078 239.306 227.491 238.37 227.905 236.571L230.06 236.722C229.343 239.751 226.83 240.946 224.22 240.764C220.916 240.533 218.601 238.206 218.914 233.729C219.202 229.611 221.946 227.18 225.417 227.423C228.913 227.667 230.67 230.413 230.41 234.124ZM225.259 229C223.248 228.859 221.663 230.192 221.235 232.881L228.369 233.379C228.362 230.732 227.342 229.145 225.259 229ZM246.05 228.818C249.617 229.067 251.535 231.92 251.272 235.679C250.951 240.275 247.961 242.424 244.682 242.195C243.628 242.121 242.354 241.767 241.739 241.267L240.993 239.892L240.546 246.284L237.242 246.053L238.461 228.624L241.765 228.855L241.629 230.794L242.684 229.472C243.443 228.948 244.757 228.727 246.05 228.818ZM244.197 239.827C246.113 239.961 247.627 238.6 247.833 235.655C248.016 233.045 246.893 231.21 244.93 231.073C243.11 230.946 241.547 231.967 241.33 235.08L241.288 235.678C241.085 238.575 242.665 239.72 244.197 239.827ZM260.355 229.842C260.738 229.869 261 229.911 261.282 230.003L261.096 232.661C258.357 232.277 256.907 233.402 256.667 236.826L256.259 242.668L252.955 242.436L253.845 229.7L257.149 229.931L256.987 232.253L258.116 230.552C258.779 230.021 259.637 229.792 260.355 229.842ZM264.924 225.711C266.001 225.786 266.693 226.556 266.621 227.586C266.547 228.639 265.757 229.281 264.679 229.206C263.602 229.131 262.908 228.385 262.982 227.331C263.054 226.302 263.846 225.635 264.924 225.711ZM265.354 243.304L262.05 243.072L262.94 230.336L266.244 230.567L265.354 243.304ZM274.83 230.83C278.277 231.071 280.261 233.327 280.303 236.169L277.047 235.941C276.864 234.076 275.96 233.243 274.596 233.147C272.92 233.03 271.627 234.311 271.425 237.208C271.204 240.368 272.307 241.793 273.959 241.908C275.252 241.999 276.266 241.252 276.714 239.671L280.018 239.902C279.248 243 276.789 244.44 273.605 244.217C270.133 243.975 267.678 241.589 267.986 237.184C268.291 232.827 271.334 230.586 274.83 230.83ZM293.857 238.632C293.835 238.944 293.808 239.327 293.73 239.754L284.681 239.121C284.708 241.818 285.847 242.74 287.379 242.847C288.792 242.946 289.877 242.228 290.187 240.878L293.491 241.109C292.637 244.033 290.138 245.373 287.145 245.164C283.65 244.92 281.096 242.552 281.41 238.075C281.682 234.172 284.443 231.502 288.346 231.775C292.248 232.048 294.1 235.161 293.857 238.632ZM288.04 234.088C286.508 233.98 285.362 234.887 284.927 236.973L290.529 237.365C290.454 235.339 289.62 234.198 288.04 234.088ZM308.38 233.224C312.091 233.484 313.956 236.405 313.697 240.116C313.368 244.809 310.295 246.783 307.015 246.554C305.962 246.48 304.643 246.075 304.033 245.503L303.282 244.199L302.832 250.64L300.773 250.496L301.988 233.114L304.047 233.258L303.905 235.293L304.958 233.996C305.718 233.447 307.087 233.134 308.38 233.224ZM307.126 244.973C309.352 245.129 311.197 243.526 311.429 240.198C311.63 237.325 310.496 234.96 307.959 234.783C305.852 234.635 303.867 235.844 303.612 239.483L303.564 240.177C303.334 243.457 305.306 244.846 307.126 244.973ZM323.015 247.336L322.927 245.501L322.137 246.817C321.234 247.355 320.119 247.47 318.898 247.385C316.6 247.224 314.893 245.829 315.057 243.483C315.258 240.61 317.516 239.276 322.496 239.625L323.31 239.682L323.334 239.346C323.372 238.796 323.407 238.293 323.393 237.811C323.379 236.631 322.762 235.818 321.062 235.699C319.339 235.578 318.411 236.452 318.146 238.19L315.991 238.039C316.372 235.347 318.372 233.923 321.173 234.119C324.19 234.33 325.37 235.687 325.44 237.785C325.452 238.292 325.433 238.916 325.394 239.466L325.061 244.231C324.994 245.188 324.982 246.054 325.074 247.48L323.015 247.336ZM319.703 245.853C321.618 245.987 322.952 244.805 323.113 242.507L323.203 241.214C319.726 240.706 317.471 241.294 317.319 243.473C317.212 245.005 318.147 245.744 319.703 245.853ZM334.275 235.035C337.316 235.248 339.128 237.203 339.316 240.007L337.162 239.856C336.849 237.789 335.816 236.731 334.117 236.612C332.129 236.473 330.345 237.912 330.105 241.336C329.847 245.023 331.368 246.669 333.26 246.801C334.936 246.918 336.176 246.042 336.736 244.229L338.89 244.38C338.062 247.281 335.855 248.57 333.03 248.373C329.821 248.148 327.52 245.967 327.845 241.322C328.144 237.036 331.091 234.812 334.275 235.035ZM349.005 249.153L344.759 243.467L343.47 244.7L343.187 248.746L341.128 248.602L342.359 231.005L344.418 231.149L343.628 242.45L349.988 236.471L352.622 236.655L346.29 242.227L351.806 249.349L349.005 249.153ZM360.845 249.981L360.757 248.146L359.967 249.462C359.063 250.001 357.949 250.115 356.728 250.03C354.429 249.869 352.722 248.475 352.886 246.128C353.087 243.255 355.346 241.922 360.326 242.27L361.14 242.327L361.163 241.992C361.202 241.441 361.237 240.938 361.222 240.456C361.209 239.276 360.592 238.463 358.892 238.344C357.168 238.224 356.241 239.097 355.975 240.835L353.82 240.684C354.201 237.992 356.201 236.568 359.002 236.764C362.019 236.975 363.199 238.333 363.269 240.431C363.282 240.937 363.262 241.561 363.224 242.112L362.891 246.876C362.824 247.834 362.811 248.699 362.904 250.125L360.845 249.981ZM357.532 248.498C359.448 248.632 360.781 247.45 360.942 245.152L361.032 243.859C357.555 243.351 355.301 243.939 355.149 246.118C355.041 247.65 355.976 248.389 357.532 248.498ZM378.258 238.447L377.588 248.024C377.533 248.814 377.464 249.796 377.392 250.488C377.013 254.191 374.625 255.997 370.962 255.741C367.347 255.488 365.657 253.854 365.581 251.154L365.573 250.913L367.656 251.059L367.665 251.276C367.724 252.844 368.894 254.008 371.072 254.161C373.586 254.336 375.051 252.995 375.318 250.56C375.384 249.963 375.412 249.556 375.439 249.173L375.454 248.957L374.401 250.255C373.641 250.804 372.272 251.117 370.979 251.026C367.268 250.767 365.403 247.846 365.663 244.135C365.991 239.442 369.064 237.468 372.344 237.697C373.397 237.771 374.716 238.176 375.326 238.748L376.077 240.051L376.199 238.304L378.258 238.447ZM371.4 249.468C373.507 249.615 375.492 248.407 375.747 244.768L375.795 244.073C376.025 240.793 374.053 239.404 372.233 239.277C370.007 239.122 368.162 240.725 367.93 244.053C367.729 246.926 368.863 249.291 371.4 249.468ZM391.899 245.416C391.885 245.608 391.862 245.943 391.782 246.394L382.589 245.751C382.546 249.117 384.047 250.352 385.915 250.483C387.567 250.598 388.979 249.663 389.394 247.863L391.549 248.014C390.832 251.043 388.318 252.239 385.708 252.056C382.404 251.825 380.089 249.498 380.402 245.021C380.69 240.903 383.434 238.473 386.906 238.715C390.401 238.96 392.158 241.705 391.899 245.416ZM386.748 240.292C384.736 240.152 383.152 241.484 382.723 244.173L389.858 244.672C389.85 242.025 388.83 240.438 386.748 240.292ZM112.228 260.664L112.14 258.83L111.351 260.146C110.447 260.684 109.332 260.799 108.111 260.713C105.813 260.553 104.106 259.158 104.27 256.812C104.471 253.939 106.729 252.605 111.709 252.953L112.523 253.01L112.547 252.675C112.585 252.124 112.62 251.622 112.606 251.139C112.592 249.96 111.975 249.147 110.275 249.028C108.552 248.907 107.624 249.781 107.359 251.518L105.204 251.368C105.585 248.676 107.585 247.252 110.386 247.448C113.403 247.659 114.583 249.016 114.653 251.114C114.665 251.62 114.646 252.244 114.607 252.795L114.274 257.559C114.207 258.517 114.195 259.382 114.287 260.808L112.228 260.664ZM108.916 259.182C110.831 259.316 112.165 258.134 112.326 255.835L112.416 254.542C108.939 254.035 106.684 254.623 106.532 256.802C106.425 258.334 107.36 259.073 108.916 259.182ZM128.998 252.478C129.001 253.128 128.966 253.631 128.894 254.66L128.395 261.795L126.336 261.651L126.825 254.66C126.87 254.013 126.907 253.487 126.904 252.837C126.888 251.344 126.151 250.186 124.188 250.049C122.201 249.91 120.421 251.277 120.118 255.61L119.728 261.189L117.669 261.045L118.556 248.356L120.615 248.5L120.463 250.678L121.355 249.273C122.491 248.511 123.44 248.36 124.733 248.451C127.51 248.645 128.963 250.238 128.998 252.478ZM144.177 245.215L142.946 262.812L140.887 262.668L141.029 260.633L139.976 261.931C139.216 262.479 137.847 262.793 136.554 262.702C132.843 262.443 130.978 259.521 131.238 255.811C131.566 251.118 134.639 249.144 137.919 249.373C138.973 249.447 140.292 249.852 140.901 250.423L141.652 251.727L142.118 245.071L144.177 245.215ZM136.976 261.144C139.083 261.291 141.068 260.083 141.322 256.444L141.371 255.749C141.6 252.469 139.628 251.08 137.809 250.953C135.582 250.797 133.738 252.401 133.505 255.728C133.304 258.601 134.438 260.966 136.976 261.144ZM162.669 261.184C162.686 261.979 163.03 262.22 164.066 262.196L163.917 264.327C163.216 264.374 162.496 264.348 161.754 264.296C160.245 264.19 159.282 263.522 159.301 261.863C159.318 261.287 159.36 260.688 159.418 259.85L160.22 248.382C159.751 248.205 159.298 248.149 158.676 248.106C156.952 247.985 156.116 248.576 155.925 249.597C155.853 249.929 155.822 250.384 155.798 250.719L155.778 251.007L158.388 251.189L158.235 253.368L155.626 253.185L154.894 263.648L151.59 263.417L152.322 252.954L151.197 252.876L151.349 250.697L152.474 250.776L152.489 250.56C152.519 250.129 152.551 249.674 152.629 249.247C153.01 246.892 154.768 245.499 158.886 245.787C160.897 245.927 162.462 246.253 163.631 246.744L162.703 260.008C162.668 260.51 162.645 260.846 162.669 261.184ZM177.901 258.592C177.879 258.904 177.852 259.287 177.774 259.714L168.724 259.081C168.752 261.778 169.891 262.7 171.423 262.807C172.836 262.906 173.92 262.187 174.231 260.838L177.535 261.069C176.681 263.992 174.182 265.333 171.189 265.124C167.693 264.88 165.14 262.512 165.454 258.035C165.726 254.132 168.487 251.462 172.39 251.735C176.292 252.008 178.144 255.121 177.901 258.592ZM172.084 254.048C170.552 253.94 169.406 254.847 168.971 256.933L174.573 257.325C174.498 255.299 173.664 254.158 172.084 254.048ZM186.452 259.383L190.455 266.134L186.6 265.865L184.299 261.277L181.309 265.495L177.527 265.23L182.48 259.081L178.585 252.505L182.439 252.775L184.681 257.19L187.491 253.128L191.298 253.394L186.452 259.383ZM194.934 248.885C196.011 248.96 196.703 249.73 196.631 250.76C196.557 251.813 195.767 252.456 194.689 252.38C193.612 252.305 192.918 251.559 192.992 250.505C193.064 249.476 193.856 248.81 194.934 248.885ZM195.363 266.478L192.059 266.247L192.95 253.51L196.254 253.741L195.363 266.478ZM206.899 254.148C210.466 254.398 212.384 257.25 212.121 261.009C211.799 265.606 208.81 267.755 205.53 267.525C204.477 267.452 203.202 267.098 202.588 266.598L201.842 265.223L201.723 266.922L198.419 266.691L199.649 249.094L202.953 249.325L202.478 256.125L203.533 254.803C204.291 254.279 205.606 254.058 206.899 254.148ZM205.046 265.158C206.961 265.292 208.476 263.93 208.682 260.985C208.864 258.376 207.742 256.541 205.779 256.404C203.959 256.276 202.396 257.298 202.178 260.41L202.136 261.009C201.934 263.906 203.514 265.051 205.046 265.158ZM216.677 250.405C217.755 250.481 218.447 251.251 218.375 252.28C218.301 253.334 217.51 253.976 216.433 253.901C215.356 253.825 214.662 253.079 214.736 252.026C214.808 250.996 215.6 250.33 216.677 250.405ZM217.107 267.998L213.803 267.767L214.694 255.03L217.998 255.261L217.107 267.998ZM224.601 250.839L223.662 264.27C223.627 264.773 223.604 265.108 223.604 265.445C223.631 266.097 223.903 266.332 225.033 266.339L224.874 268.613C224.223 268.64 223.575 268.619 222.832 268.567C221.204 268.453 220.217 267.783 220.261 266.126C220.253 265.548 220.295 264.949 220.353 264.111L221.297 250.608L224.601 250.839ZM229.724 251.318C230.801 251.393 231.493 252.163 231.421 253.193C231.347 254.246 230.557 254.888 229.479 254.813C228.402 254.738 227.708 253.992 227.782 252.938C227.854 251.909 228.646 251.242 229.724 251.318ZM230.153 268.91L226.85 268.679L227.74 255.943L231.044 256.174L230.153 268.91ZM237.891 258.938L237.479 264.828C237.449 265.258 237.424 265.618 237.424 265.954C237.433 267.206 237.868 267.525 239.721 267.51L239.571 269.665C238.82 269.733 238.123 269.732 237.38 269.68C234.914 269.508 234.085 268.632 234.067 266.826C234.06 266.248 234.098 265.698 234.148 264.98L234.587 258.707L232.72 258.576L232.872 256.398L234.739 256.528L234.959 253.392L238.263 253.623L238.043 256.759L240.677 256.943L240.525 259.122L237.891 258.938ZM254.817 257.836L248.769 270.693C247.188 274.047 245.722 275.051 243.136 274.871C242.538 274.829 242.132 274.776 241.659 274.671L241.818 272.397C242.149 272.468 242.461 272.49 242.796 272.513C243.921 272.592 244.693 272.213 245.309 270.981L245.505 270.585L241.242 256.887L244.929 257.144L247.375 267.589L251.202 257.583L254.817 257.836ZM258.021 266.529L256.153 266.398L256.72 254.168L259.162 254.338L258.021 266.529ZM256.976 268.043C257.862 268.105 258.464 268.797 258.402 269.683C258.34 270.569 257.648 271.17 256.762 271.108C255.876 271.046 255.275 270.354 255.337 269.469C255.399 268.583 256.091 267.981 256.976 268.043Z" fill="#1340FF"/>
<path d="M170.709 394.372L172.143 389.548L172.474 389.571C172.395 390.042 172.345 390.433 172.323 390.745C172.261 391.635 172.493 392.379 173.019 392.977C173.551 393.575 174.275 393.907 175.191 393.971C176.042 394.03 176.706 393.816 177.184 393.327C177.663 392.832 177.926 392.243 177.973 391.561C178.004 391.12 177.932 390.71 177.756 390.332C177.488 389.772 176.739 388.767 175.51 387.316C174.912 386.622 174.533 386.109 174.374 385.778C174.112 385.231 174.001 384.669 174.041 384.091C174.106 383.169 174.505 382.404 175.24 381.796C175.974 381.188 176.88 380.922 177.958 380.997C178.322 381.023 178.664 381.083 178.983 381.177C179.182 381.23 179.54 381.385 180.057 381.643C180.423 381.819 180.625 381.915 180.663 381.93C180.753 381.956 180.853 381.973 180.963 381.981C181.152 381.994 181.317 381.957 181.461 381.869C181.604 381.781 181.778 381.584 181.982 381.279L182.352 381.305L181.032 385.618L180.701 385.594C180.754 385.206 180.789 384.892 180.806 384.652C180.861 383.866 180.646 383.205 180.161 382.669C179.677 382.132 179.009 381.834 178.158 381.775C177.483 381.728 176.92 381.887 176.47 382.254C176.021 382.621 175.778 383.064 175.741 383.583C175.709 384.038 175.812 384.482 176.049 384.917C176.293 385.345 176.867 386.06 177.769 387.063C178.678 388.06 179.257 388.832 179.506 389.378C179.756 389.917 179.86 390.482 179.818 391.073C179.772 391.742 179.548 392.379 179.146 392.984C178.752 393.583 178.212 394.032 177.525 394.33C176.839 394.628 176.103 394.749 175.317 394.694C174.927 394.667 174.566 394.606 174.233 394.511C173.9 394.416 173.374 394.203 172.653 393.871C172.406 393.756 172.199 393.693 172.03 393.681C171.647 393.654 171.33 393.893 171.079 394.398L170.709 394.372ZM190.548 386.596L188.186 393.068L187.91 393.94C187.884 394.023 187.87 394.094 187.866 394.152C187.858 394.256 187.884 394.349 187.944 394.432C187.992 394.494 188.055 394.528 188.133 394.533C188.217 394.539 188.331 394.495 188.475 394.4C188.741 394.23 189.106 393.864 189.57 393.302L189.884 393.559C189.389 394.203 188.892 394.687 188.393 395.011C187.894 395.329 187.444 395.474 187.041 395.445C186.762 395.426 186.556 395.34 186.423 395.187C186.296 395.041 186.242 394.835 186.26 394.568C186.283 394.25 186.383 393.836 186.563 393.327L186.818 392.61C185.89 393.662 185.053 394.383 184.308 394.775C183.772 395.057 183.258 395.181 182.764 395.146C182.29 395.113 181.895 394.89 181.578 394.476C181.261 394.056 181.127 393.501 181.175 392.813C181.247 391.78 181.632 390.714 182.329 389.614C183.033 388.508 183.886 387.644 184.889 387.023C185.674 386.529 186.398 386.306 187.06 386.352C187.456 386.38 187.777 386.507 188.022 386.733C188.274 386.959 188.451 387.318 188.554 387.808L188.982 386.722L190.548 386.596ZM187.044 386.86C186.628 386.831 186.173 386.995 185.678 387.352C184.977 387.858 184.329 388.635 183.734 389.683C183.145 390.732 182.82 391.695 182.758 392.571C182.727 393.013 182.813 393.371 183.016 393.647C183.219 393.915 183.463 394.06 183.749 394.08C184.457 394.129 185.263 393.66 186.168 392.673C187.375 391.36 188.03 389.974 188.133 388.512C188.171 387.96 188.092 387.554 187.895 387.292C187.698 387.03 187.414 386.886 187.044 386.86ZM197.271 382.005L194.881 388.603C195.55 387.997 196.123 387.59 196.601 387.382C197.086 387.174 197.581 387.088 198.088 387.123C198.802 387.173 199.37 387.451 199.792 387.957C200.213 388.463 200.395 389.122 200.339 389.934C200.265 390.979 199.894 392.001 199.224 392.998C198.554 393.989 197.748 394.742 196.804 395.257C195.861 395.772 194.951 395.999 194.074 395.937C193.094 395.869 192.113 395.431 191.131 394.625L194.806 384.633C195.089 383.863 195.234 383.409 195.244 383.273C195.256 383.104 195.213 382.974 195.115 382.882C194.973 382.755 194.757 382.681 194.464 382.661C194.328 382.651 194.119 382.659 193.836 382.685L193.862 382.315L197.271 382.005ZM192.585 394.835C193.21 395.237 193.769 395.456 194.262 395.49C194.834 395.53 195.439 395.364 196.079 394.991C196.725 394.612 197.308 393.941 197.825 392.979C198.349 392.017 198.647 391.029 198.718 390.016C198.759 389.419 198.643 388.941 198.368 388.582C198.099 388.224 197.763 388.031 197.361 388.003C196.757 387.96 196.149 388.163 195.536 388.609C194.925 389.049 194.465 389.693 194.158 390.539L192.585 394.835ZM202.141 387.955L205.54 387.645L203.806 392.281C205.079 390.419 206.206 389.133 207.189 388.426C207.746 388.021 208.19 387.83 208.521 387.853C208.736 387.868 208.9 387.945 209.014 388.083C209.129 388.215 209.178 388.401 209.161 388.642C209.131 389.07 208.992 389.472 208.744 389.846C208.568 390.127 208.334 390.258 208.041 390.237C207.892 390.227 207.765 390.169 207.662 390.064C207.565 389.959 207.51 389.805 207.498 389.602C207.494 389.478 207.47 389.395 207.428 389.353C207.379 389.297 207.319 389.267 207.248 389.262C207.138 389.254 207.032 389.273 206.931 389.318C206.756 389.397 206.481 389.632 206.108 390.024C205.525 390.623 204.882 391.407 204.182 392.376C203.879 392.785 203.611 393.253 203.379 393.778C203.054 394.5 202.867 394.934 202.818 395.08L202.42 396.286L200.93 396.182L203.155 390.258C203.412 389.571 203.551 389.078 203.572 388.78C203.58 388.663 203.538 388.562 203.446 388.477C203.323 388.364 203.155 388.3 202.94 388.285C202.804 388.276 202.552 388.287 202.184 388.32L202.141 387.955ZM213.643 384.325C213.916 384.344 214.14 384.454 214.315 384.656C214.49 384.857 214.568 385.094 214.549 385.367C214.531 385.633 214.417 385.857 214.209 386.038C214.007 386.213 213.773 386.292 213.507 386.273C213.241 386.254 213.017 386.144 212.835 385.942C212.66 385.734 212.582 385.497 212.601 385.231C212.62 384.958 212.73 384.734 212.932 384.559C213.133 384.384 213.37 384.306 213.643 384.325ZM213.499 388.201L211.093 394.895C210.931 395.347 210.847 395.619 210.84 395.71C210.833 395.814 210.856 395.9 210.91 395.969C210.971 396.039 211.043 396.076 211.127 396.082C211.225 396.089 211.345 396.045 211.489 395.951C211.88 395.684 212.282 395.295 212.697 394.782L213.022 395.03C212.533 395.675 211.974 396.207 211.344 396.626C210.878 396.939 210.444 397.082 210.041 397.054C209.775 397.035 209.563 396.942 209.405 396.774C209.247 396.6 209.177 396.393 209.194 396.153C209.211 395.912 209.32 395.519 209.521 394.971L211.093 390.696C211.351 389.996 211.486 389.555 211.499 389.373C211.509 389.23 211.465 389.11 211.367 389.011C211.276 388.914 211.143 388.859 210.968 388.846C210.825 388.836 210.527 388.851 210.074 388.892L210.1 388.512L213.499 388.201ZM218.867 388.576L217.261 392.918C218.603 391.191 219.615 390.065 220.298 389.538C220.987 389.012 221.631 388.77 222.228 388.811C222.553 388.834 222.812 388.96 223.004 389.189C223.204 389.418 223.291 389.705 223.267 390.049C223.24 390.439 223.11 390.952 222.876 391.588L221.4 395.606C221.231 396.071 221.143 396.355 221.135 396.459C221.129 396.55 221.149 396.63 221.197 396.698C221.245 396.76 221.298 396.793 221.356 396.797C221.434 396.803 221.531 396.767 221.648 396.691C222.011 396.442 222.417 396.053 222.865 395.523L223.154 395.729C222.49 396.55 221.875 397.127 221.31 397.46C220.916 397.687 220.569 397.79 220.27 397.769C220.03 397.752 219.844 397.664 219.711 397.505C219.578 397.352 219.52 397.152 219.538 396.905C219.56 396.594 219.707 396.065 219.981 395.321L221.385 391.484C221.562 391.007 221.66 390.632 221.679 390.359C221.688 390.229 221.653 390.122 221.574 390.038C221.496 389.948 221.395 389.899 221.272 389.89C221.09 389.877 220.867 389.94 220.603 390.078C220.101 390.337 219.568 390.786 219.001 391.425C218.434 392.057 217.826 392.876 217.175 393.881C216.831 394.412 216.535 394.998 216.288 395.64L215.688 397.214L214.227 397.111L216.427 391.137C216.686 390.418 216.821 389.983 216.831 389.834C216.841 389.691 216.791 389.564 216.682 389.452C216.579 389.333 216.443 389.268 216.274 389.257C216.196 389.251 216.059 389.255 215.862 389.267L215.488 389.3L215.454 388.945L218.867 388.576ZM233.801 389.621L231.44 396.093L231.163 396.964C231.138 397.047 231.123 397.118 231.119 397.177C231.112 397.281 231.138 397.374 231.198 397.456C231.245 397.518 231.308 397.552 231.386 397.558C231.471 397.563 231.585 397.519 231.728 397.425C231.995 397.254 232.36 396.888 232.823 396.327L233.138 396.584C232.643 397.228 232.146 397.712 231.647 398.036C231.148 398.353 230.697 398.498 230.295 398.47C230.015 398.45 229.809 398.364 229.676 398.211C229.55 398.065 229.495 397.859 229.514 397.593C229.536 397.275 229.637 396.861 229.816 396.351L230.072 395.635C229.143 396.686 228.307 397.407 227.561 397.799C227.026 398.082 226.512 398.205 226.018 398.171C225.544 398.138 225.148 397.914 224.831 397.501C224.515 397.08 224.381 396.526 224.429 395.838C224.501 394.805 224.886 393.739 225.582 392.639C226.286 391.533 227.14 390.669 228.143 390.047C228.928 389.554 229.651 389.331 230.314 389.377C230.71 389.405 231.031 389.531 231.276 389.757C231.528 389.984 231.705 390.342 231.808 390.832L232.236 389.746L233.801 389.621ZM230.298 389.885C229.882 389.856 229.427 390.02 228.932 390.377C228.231 390.882 227.583 391.659 226.987 392.708C226.398 393.756 226.073 394.719 226.012 395.596C225.981 396.037 226.067 396.396 226.27 396.671C226.473 396.94 226.717 397.084 227.003 397.104C227.711 397.154 228.517 396.685 229.421 395.697C230.629 394.385 231.284 392.998 231.386 391.537C231.425 390.985 231.346 390.578 231.149 390.316C230.952 390.055 230.668 389.911 230.298 389.885ZM238.902 399.14L240.335 394.317L240.667 394.34C240.588 394.811 240.538 395.202 240.516 395.514C240.454 396.403 240.686 397.147 241.212 397.745C241.744 398.344 242.468 398.675 243.384 398.739C244.235 398.799 244.899 398.584 245.377 398.095C245.855 397.6 246.119 397.012 246.166 396.33C246.197 395.888 246.125 395.478 245.949 395.101C245.681 394.54 244.932 393.535 243.702 392.085C243.105 391.391 242.726 390.878 242.567 390.547C242.305 390 242.194 389.438 242.234 388.86C242.299 387.937 242.698 387.172 243.433 386.564C244.167 385.957 245.073 385.69 246.151 385.766C246.515 385.791 246.857 385.851 247.176 385.945C247.375 385.998 247.733 386.154 248.25 386.412C248.616 386.588 248.818 386.683 248.856 386.699C248.946 386.725 249.046 386.742 249.156 386.749C249.345 386.762 249.51 386.725 249.654 386.637C249.797 386.549 249.97 386.353 250.174 386.047L250.545 386.073L249.225 390.386L248.894 390.363C248.947 389.975 248.982 389.661 248.999 389.421C249.054 388.635 248.839 387.974 248.354 387.437C247.87 386.901 247.202 386.603 246.351 386.543C245.676 386.496 245.113 386.656 244.663 387.023C244.213 387.389 243.97 387.832 243.934 388.352C243.902 388.806 244.005 389.251 244.242 389.685C244.486 390.113 245.06 390.829 245.962 391.832C246.871 392.829 247.45 393.6 247.699 394.146C247.949 394.686 248.053 395.251 248.011 395.842C247.965 396.511 247.741 397.148 247.339 397.753C246.945 398.352 246.405 398.8 245.718 399.098C245.032 399.396 244.295 399.518 243.51 399.463C243.12 399.435 242.759 399.374 242.426 399.279C242.093 399.184 241.566 398.971 240.846 398.64C240.599 398.525 240.391 398.461 240.223 398.45C239.839 398.423 239.522 398.662 239.272 399.166L238.902 399.14ZM258.74 391.365L256.379 397.837L256.103 398.708C256.077 398.791 256.062 398.862 256.058 398.921C256.051 399.025 256.077 399.118 256.137 399.2C256.185 399.262 256.247 399.296 256.325 399.301C256.41 399.307 256.524 399.263 256.668 399.169C256.934 398.998 257.299 398.632 257.762 398.071L258.077 398.328C257.582 398.972 257.085 399.456 256.586 399.78C256.087 400.097 255.636 400.242 255.234 400.214C254.954 400.194 254.748 400.108 254.616 399.955C254.489 399.809 254.435 399.603 254.453 399.337C254.475 399.019 254.576 398.605 254.755 398.095L255.011 397.379C254.083 398.43 253.246 399.151 252.5 399.543C251.965 399.825 251.451 399.949 250.957 399.915C250.483 399.882 250.087 399.658 249.77 399.244C249.454 398.824 249.32 398.27 249.368 397.581C249.44 396.549 249.825 395.483 250.522 394.383C251.225 393.277 252.079 392.413 253.082 391.791C253.867 391.298 254.59 391.074 255.253 391.121C255.649 391.148 255.97 391.275 256.215 391.501C256.467 391.728 256.644 392.086 256.747 392.576L257.175 391.49L258.74 391.365ZM255.237 391.629C254.821 391.6 254.366 391.764 253.871 392.121C253.17 392.626 252.522 393.403 251.926 394.452C251.338 395.5 251.012 396.463 250.951 397.34C250.92 397.781 251.006 398.14 251.209 398.415C251.412 398.684 251.656 398.828 251.942 398.848C252.65 398.898 253.456 398.429 254.361 397.441C255.568 396.129 256.223 394.742 256.325 393.281C256.364 392.729 256.285 392.322 256.088 392.06C255.891 391.798 255.607 391.655 255.237 391.629ZM265.639 386.786L261.497 398.146C261.294 398.712 261.188 399.061 261.179 399.191C261.172 399.288 261.196 399.371 261.25 399.44C261.31 399.51 261.386 399.548 261.477 399.554C261.6 399.563 261.737 399.517 261.888 399.416C262.244 399.174 262.627 398.786 263.036 398.253L263.307 398.576C262.629 399.403 262.019 399.97 261.475 400.278C261.074 400.498 260.702 400.596 260.358 400.572C260.111 400.555 259.909 400.456 259.752 400.275C259.602 400.095 259.534 399.895 259.55 399.674C259.566 399.44 259.703 398.967 259.962 398.254L263.241 389.301C263.508 388.569 263.645 388.148 263.652 388.037C263.663 387.881 263.611 387.75 263.494 387.644C263.378 387.532 263.19 387.466 262.93 387.448C262.781 387.438 262.552 387.445 262.243 387.469L262.269 387.108L265.639 386.786ZM266.924 397.106C266.856 397.427 266.815 397.695 266.8 397.91C266.759 398.488 266.929 398.995 267.31 399.433C267.691 399.865 268.174 400.101 268.758 400.141C269.226 400.174 269.68 400.111 270.122 399.953C270.571 399.789 271.244 399.408 272.14 398.812L272.325 399.108C270.679 400.527 269.158 401.188 267.762 401.09C266.814 401.024 266.12 400.675 265.681 400.044C265.242 399.413 265.048 398.737 265.099 398.016C265.166 397.048 265.534 396.079 266.203 395.107C266.871 394.136 267.676 393.402 268.618 392.907C269.56 392.405 270.509 392.188 271.463 392.254C272.152 392.302 272.652 392.478 272.963 392.78C273.275 393.083 273.418 393.425 273.391 393.809C273.353 394.348 273.103 394.849 272.64 395.313C272.03 395.916 271.162 396.377 270.037 396.697C269.291 396.912 268.253 397.049 266.924 397.106ZM267.026 396.633C267.995 396.59 268.791 396.456 269.413 396.232C270.237 395.931 270.864 395.547 271.295 395.082C271.733 394.61 271.967 394.15 271.998 393.701C272.017 393.429 271.945 393.202 271.782 393.021C271.625 392.84 271.387 392.738 271.069 392.716C270.406 392.67 269.677 392.975 268.881 393.63C268.091 394.28 267.473 395.281 267.026 396.633ZM279.979 387.789L276.58 397.057C277.887 395.36 278.892 394.242 279.595 393.704C280.298 393.166 280.952 392.918 281.556 392.96C281.868 392.982 282.12 393.107 282.313 393.336C282.506 393.565 282.589 393.858 282.564 394.215C282.534 394.644 282.407 395.157 282.183 395.755L280.709 399.753C280.525 400.237 280.431 400.504 280.427 400.556C280.421 400.647 280.442 400.724 280.49 400.786C280.544 400.848 280.607 400.882 280.678 400.887C280.763 400.893 280.863 400.857 280.98 400.781C281.37 400.521 281.764 400.15 282.164 399.669L282.453 399.875C282.208 400.204 281.873 400.563 281.447 400.95C281.029 401.332 280.671 401.595 280.374 401.737C280.084 401.873 279.829 401.934 279.608 401.918C279.368 401.901 279.175 401.81 279.03 401.643C278.891 401.483 278.83 401.283 278.847 401.043C278.867 400.757 279.018 400.232 279.299 399.469L280.692 395.651C280.869 395.173 280.967 394.795 280.987 394.516C280.996 394.386 280.961 394.279 280.882 394.195C280.81 394.112 280.708 394.066 280.578 394.057C280.39 394.044 280.171 394.1 279.921 394.226C279.46 394.468 278.915 394.939 278.285 395.639C278.115 395.829 277.539 396.605 276.556 397.965C276.251 398.401 275.992 398.882 275.779 399.409L275.016 401.362L273.555 401.26L277.539 390.34L277.965 389.155C277.977 388.987 277.916 388.832 277.782 388.692C277.655 388.553 277.49 388.476 277.289 388.462C277.172 388.454 276.992 388.461 276.749 388.483L276.542 388.498L276.569 388.118L279.979 387.789ZM293.123 394.004L291.021 399.691C290.708 400.538 290.543 401.074 290.527 401.302C290.519 401.418 290.532 401.507 290.567 401.569C290.609 401.624 290.666 401.654 290.737 401.659C290.847 401.667 290.971 401.626 291.108 401.538C291.251 401.444 291.617 401.064 292.205 400.401L292.482 400.645C291.912 401.421 291.344 401.982 290.778 402.327C290.404 402.549 290.051 402.649 289.72 402.625C289.467 402.608 289.273 402.522 289.141 402.37C289.008 402.217 288.949 402.027 288.965 401.799C288.981 401.578 289.043 401.289 289.153 400.931C289.291 400.458 289.659 399.433 290.259 397.856C289.028 399.591 288.015 400.777 287.22 401.413C286.432 402.05 285.719 402.346 285.083 402.301C284.784 402.28 284.538 402.159 284.345 401.936C284.151 401.714 284.066 401.444 284.088 401.125C284.122 400.638 284.317 399.901 284.673 398.915L285.731 395.964C285.99 395.257 286.125 394.817 286.137 394.641C286.143 394.563 286.118 394.496 286.063 394.44C286.015 394.378 285.959 394.345 285.894 394.34C285.758 394.331 285.618 394.37 285.475 394.458C285.331 394.546 284.998 394.885 284.473 395.474L284.186 395.239C284.726 394.52 285.281 394 285.852 393.681C286.287 393.431 286.68 393.318 287.031 393.343C287.271 393.36 287.46 393.451 287.599 393.618C287.744 393.778 287.809 393.978 287.792 394.218C287.767 394.569 287.594 395.187 287.271 396.071L286.135 399.154C285.822 399.994 285.657 400.527 285.641 400.754C285.633 400.878 285.665 400.981 285.737 401.064C285.816 401.142 285.924 401.185 286.061 401.195C286.275 401.21 286.562 401.122 286.921 400.932C287.28 400.742 287.771 400.3 288.394 399.606C289.024 398.906 289.546 398.247 289.961 397.63C290.384 397.007 290.855 396.005 291.376 394.626L291.642 393.9L293.123 394.004ZM304.87 389.529L300.714 400.79C300.489 401.401 300.37 401.804 300.356 401.999C300.351 402.064 300.373 402.127 300.421 402.189C300.475 402.252 300.532 402.285 300.59 402.289C300.675 402.295 300.778 402.26 300.901 402.184C301.133 402.043 301.53 401.679 302.093 401.092L302.41 401.32C301.897 401.937 301.386 402.43 300.878 402.799C300.375 403.168 299.916 403.338 299.501 403.309C299.28 403.294 299.103 403.203 298.971 403.037C298.839 402.872 298.783 402.646 298.803 402.36C298.829 401.99 298.961 401.5 299.2 400.89L299.664 399.708C298.621 401.097 297.693 402.044 296.881 402.549C296.322 402.895 295.799 403.05 295.312 403.016C294.818 402.982 294.401 402.734 294.062 402.273C293.729 401.806 293.589 401.196 293.641 400.442C293.709 399.475 294.09 398.464 294.784 397.409C295.477 396.355 296.355 395.519 297.416 394.901C298.254 394.405 299.007 394.18 299.676 394.227C300.026 394.252 300.323 394.344 300.567 394.505C300.81 394.665 301.043 394.92 301.267 395.268L302.459 391.945C302.547 391.71 302.619 391.522 302.674 391.383C302.77 391.128 302.824 390.917 302.836 390.748C302.846 390.611 302.805 390.494 302.714 390.397C302.585 390.277 302.414 390.209 302.199 390.194C302.05 390.184 301.802 390.189 301.454 390.211L301.479 389.85L304.87 389.529ZM300.772 396.193C300.801 395.777 300.704 395.435 300.481 395.165C300.259 394.894 299.962 394.746 299.592 394.721C298.774 394.663 297.873 395.279 296.888 396.568C295.911 397.857 295.379 399.118 295.292 400.352C295.258 400.839 295.339 401.22 295.536 401.495C295.732 401.763 295.98 401.908 296.279 401.929C296.954 401.976 297.853 401.305 298.974 399.915C300.096 398.525 300.695 397.284 300.772 396.193ZM314.845 390.227L310.69 401.488C310.465 402.099 310.345 402.501 310.332 402.696C310.327 402.761 310.349 402.825 310.397 402.887C310.451 402.949 310.507 402.983 310.566 402.987C310.65 402.993 310.754 402.957 310.877 402.881C311.108 402.741 311.506 402.377 312.069 401.79L312.386 402.017C311.873 402.634 311.362 403.127 310.853 403.496C310.351 403.866 309.892 404.036 309.476 404.007C309.255 403.991 309.079 403.901 308.947 403.735C308.815 403.569 308.759 403.343 308.779 403.058C308.805 402.687 308.937 402.197 309.176 401.587L309.64 400.406C308.597 401.795 307.669 402.742 306.857 403.246C306.298 403.592 305.774 403.748 305.287 403.714C304.794 403.679 304.377 403.432 304.037 402.971C303.704 402.504 303.564 401.893 303.617 401.14C303.685 400.172 304.065 399.161 304.759 398.107C305.453 397.052 306.33 396.216 307.392 395.599C308.229 395.103 308.982 394.878 309.651 394.925C310.002 394.949 310.299 395.042 310.542 395.202C310.786 395.363 311.019 395.618 311.243 395.966L312.434 392.643C312.523 392.407 312.595 392.22 312.65 392.08C312.746 391.826 312.8 391.614 312.812 391.445C312.821 391.309 312.781 391.192 312.69 391.094C312.561 390.974 312.389 390.907 312.175 390.892C312.026 390.881 311.777 390.887 311.43 390.908L311.455 390.548L314.845 390.227ZM310.747 396.891C310.776 396.475 310.68 396.132 310.457 395.862C310.234 395.592 309.938 395.444 309.568 395.418C308.75 395.361 307.848 395.977 306.864 397.265C305.886 398.554 305.354 399.816 305.268 401.05C305.234 401.537 305.315 401.918 305.511 402.193C305.708 402.461 305.955 402.606 306.254 402.626C306.93 402.674 307.828 402.002 308.95 400.612C310.072 399.222 310.671 397.982 310.747 396.891ZM318.407 391.651C318.68 391.67 318.904 391.78 319.079 391.981C319.254 392.183 319.332 392.42 319.313 392.693C319.294 392.959 319.181 393.183 318.972 393.364C318.771 393.539 318.537 393.618 318.271 393.599C318.004 393.58 317.78 393.47 317.599 393.268C317.424 393.06 317.346 392.823 317.365 392.557C317.384 392.284 317.494 392.06 317.695 391.885C317.897 391.71 318.134 391.631 318.407 391.651ZM318.263 395.527L315.857 402.221C315.695 402.673 315.61 402.945 315.604 403.035C315.597 403.139 315.62 403.226 315.674 403.295C315.734 403.364 315.807 403.402 315.891 403.408C315.989 403.415 316.109 403.371 316.253 403.277C316.643 403.01 317.046 402.621 317.46 402.108L317.786 402.356C317.297 403 316.737 403.532 316.108 403.952C315.642 404.265 315.208 404.408 314.805 404.38C314.539 404.361 314.327 404.268 314.169 404.1C314.011 403.926 313.941 403.719 313.958 403.478C313.974 403.238 314.084 402.844 314.285 402.297L315.857 398.021C316.114 397.321 316.25 396.881 316.262 396.699C316.272 396.556 316.229 396.435 316.131 396.337C316.04 396.239 315.907 396.184 315.731 396.172C315.589 396.162 315.291 396.177 314.837 396.217L314.864 395.837L318.263 395.527ZM323.631 395.902L322.025 400.244C323.366 398.517 324.378 397.39 325.061 396.864C325.751 396.338 326.394 396.095 326.992 396.137C327.316 396.16 327.575 396.286 327.768 396.515C327.967 396.744 328.055 397.031 328.031 397.375C328.004 397.765 327.873 398.278 327.639 398.914L326.164 402.932C325.995 403.397 325.906 403.681 325.899 403.785C325.893 403.876 325.913 403.955 325.961 404.024C326.008 404.086 326.062 404.119 326.12 404.123C326.198 404.129 326.295 404.093 326.411 404.016C326.775 403.768 327.18 403.378 327.629 402.848L327.918 403.055C327.253 403.876 326.639 404.453 326.074 404.786C325.679 405.013 325.333 405.116 325.034 405.095C324.794 405.078 324.607 404.99 324.475 404.831C324.342 404.678 324.284 404.478 324.301 404.231C324.323 403.919 324.471 403.391 324.745 402.647L326.149 398.81C326.326 398.332 326.424 397.958 326.443 397.685C326.452 397.555 326.417 397.448 326.338 397.364C326.26 397.274 326.159 397.224 326.035 397.216C325.853 397.203 325.63 397.266 325.366 397.404C324.865 397.663 324.331 398.111 323.764 398.751C323.198 399.383 322.589 400.202 321.938 401.207C321.594 401.738 321.299 402.324 321.052 402.966L320.452 404.539L318.991 404.437L321.19 398.463C321.45 397.744 321.584 397.309 321.595 397.16C321.605 397.017 321.555 396.889 321.445 396.777C321.343 396.659 321.207 396.594 321.038 396.582C320.96 396.577 320.823 396.58 320.626 396.593L320.252 396.625L320.218 396.271L323.631 395.902ZM328.229 407.286C328.731 407.099 329.147 406.848 329.476 406.531C329.728 406.288 329.862 406.046 329.879 405.806C329.887 405.689 329.875 405.58 329.843 405.48C329.821 405.426 329.737 405.316 329.592 405.149C329.447 404.982 329.367 404.869 329.352 404.809C329.314 404.696 329.3 404.568 329.31 404.425C329.329 404.145 329.44 403.912 329.643 403.723C329.852 403.536 330.086 403.451 330.346 403.469C330.612 403.488 330.838 403.611 331.025 403.84C331.218 404.069 331.303 404.345 331.28 404.67C331.24 405.248 330.971 405.817 330.475 406.376C329.98 406.935 329.288 407.347 328.402 407.611L328.229 407.286ZM342.574 392.812L347.796 393.177C348.958 393.258 349.785 393.378 350.277 393.536C350.922 393.738 351.407 394.079 351.732 394.558C352.065 395.032 352.211 395.555 352.171 396.126C352.138 396.594 351.962 397.061 351.642 397.528C351.322 397.995 350.866 398.368 350.272 398.646C349.685 398.918 348.795 399.147 347.6 399.331C348.797 399.76 349.614 400.261 350.05 400.833C350.487 401.406 350.68 402.049 350.63 402.763C350.583 403.432 350.303 404.078 349.79 404.702C349.277 405.318 348.623 405.752 347.829 406.003C347.035 406.248 345.609 406.299 343.55 406.155L338.056 405.77L338.208 405.419C338.74 405.456 339.123 405.434 339.358 405.352C339.598 405.271 339.794 405.135 339.944 404.943C340.102 404.745 340.297 404.328 340.531 403.692L343.457 395.732C343.755 394.924 343.913 394.38 343.933 394.101C343.949 393.874 343.864 393.679 343.68 393.516C343.502 393.353 343.093 393.236 342.452 393.165L342.574 392.812ZM345.157 398.856C346.041 398.905 346.746 398.814 347.271 398.583C347.803 398.353 348.242 397.946 348.59 397.364C348.944 396.775 349.14 396.211 349.178 395.672C349.213 395.165 349.083 394.742 348.787 394.401C348.491 394.061 348.076 393.879 347.543 393.854L347.006 393.836L345.157 398.856ZM344.872 399.571L342.776 405.327C343.1 405.363 343.343 405.386 343.505 405.398C344.953 405.499 345.988 405.167 346.61 404.401C347.231 403.629 347.575 402.781 347.639 401.859C347.67 401.417 347.587 401.02 347.39 400.667C347.199 400.308 346.937 400.051 346.601 399.897C346.267 399.737 345.69 399.628 344.872 399.571ZM360.253 403.045L356.161 402.758L355.272 403.714L354.259 404.769C354.06 404.997 353.912 405.205 353.814 405.394C353.738 405.539 353.695 405.686 353.685 405.835C353.674 405.991 353.745 406.143 353.898 406.291C354.058 406.433 354.328 406.527 354.71 406.573L354.685 406.933L350.74 406.657L350.862 406.304C351.217 406.27 351.537 406.168 351.823 405.999C352.205 405.765 352.765 405.265 353.504 404.501L363.647 393.982L364.086 394.013L362.891 404.795C362.832 405.359 362.799 405.699 362.79 405.816C362.76 406.258 362.825 406.585 362.986 406.799C363.154 407.013 363.444 407.151 363.858 407.212L363.735 407.566L358.017 407.166L358.149 406.813C358.718 406.801 359.046 406.778 359.133 406.745C359.321 406.667 359.5 406.49 359.669 406.215C359.839 405.933 359.965 405.436 360.048 404.724L360.253 403.045ZM360.309 402.246L360.863 397.958L356.89 402.007L360.309 402.246ZM368.185 394.603L378.814 395.346L377.562 398.832L377.211 398.807C377.237 398.62 377.255 398.454 377.265 398.312C377.312 397.636 377.151 397.099 376.781 396.702C376.411 396.297 375.757 396.036 374.819 395.918L371.181 405.659C370.98 406.2 370.871 406.603 370.852 406.869C370.835 407.116 370.921 407.321 371.112 407.485C371.304 407.642 371.707 407.748 372.323 407.804L372.211 408.159L365.654 407.7L365.796 407.348C366.465 407.395 366.961 407.305 367.284 407.08C367.607 406.848 367.925 406.306 368.239 405.453L371.877 395.713C370.861 395.674 369.998 395.836 369.288 396.197C368.577 396.559 367.906 397.197 367.274 398.112L366.894 398.086L368.185 394.603ZM383.536 404.673L379.444 404.387L378.555 405.343L377.542 406.397C377.343 406.625 377.195 406.833 377.097 407.022C377.021 407.167 376.978 407.314 376.968 407.464C376.957 407.619 377.028 407.771 377.181 407.919C377.341 408.061 377.611 408.155 377.993 408.201L377.968 408.561L374.023 408.285L374.145 407.932C374.5 407.898 374.82 407.796 375.106 407.627C375.488 407.393 376.048 406.893 376.787 406.129L386.93 395.61L387.369 395.641L386.174 406.423C386.115 406.987 386.082 407.327 386.073 407.444C386.043 407.886 386.108 408.214 386.269 408.427C386.437 408.641 386.727 408.779 387.141 408.841L387.018 409.194L381.3 408.794L381.432 408.441C382.001 408.429 382.329 408.406 382.416 408.373C382.604 408.295 382.783 408.118 382.952 407.843C383.122 407.561 383.248 407.064 383.331 406.352L383.536 404.673ZM383.592 403.874L384.146 399.586L380.173 403.635L383.592 403.874ZM390.238 407.667C390.517 407.687 390.744 407.8 390.919 408.008C391.101 408.21 391.182 408.448 391.163 408.72C391.144 408.993 391.03 409.22 390.822 409.401C390.614 409.576 390.373 409.654 390.1 409.635C389.828 409.616 389.6 409.505 389.419 409.303C389.244 409.095 389.166 408.855 389.185 408.582C389.204 408.309 389.315 408.085 389.516 407.91C389.725 407.729 389.965 407.648 390.238 407.667Z" fill="#1340FF"/>
<path d="M233.426 75.2957C233.336 75.5778 232.977 75.8836 232.83 76.2032C232.215 77.542 231.9 78.0112 231.402 79.2661C230.562 81.1055 229.688 86.9704 228.715 86.9389C228.715 86.9389 228.715 86.9389 228.715 86.9389C228.704 86.9382 228.694 86.9368 228.683 86.9349C228.48 86.8998 228.306 86.3594 228.078 86.2606C227.851 86.1618 226.327 86.096 226.288 85.3031C226.22 84.1526 226.994 81.5106 227.107 80.9241C227.166 80.5164 227.107 79.984 227.188 79.4551C227.455 77.7559 227.81 76.9331 227.813 75.2926C228.228 74.7736 228.66 74.2729 229.107 73.789C229.268 72.9837 230.04 71.9961 230.222 71.5457C230.367 71.1741 230.271 70.8696 230.436 70.4851C230.62 70.0536 231.136 69.5099 231.498 68.7421C232.097 67.4883 231.728 66.9716 232.086 66.1938C232.462 65.384 233.463 64.4119 233.931 63.3625C233.956 63.2058 233.982 63.0487 234.009 62.8914C233.826 62.8815 233.644 62.873 233.461 62.8659C233.73 62.3468 234.127 62.3385 234.443 61.918C234.816 61.424 234.77 60.9773 235.028 60.6447C235.241 60.3725 235.721 60.1716 235.992 59.8193C236.39 59.3068 236.028 59.1703 236.205 58.8546C236.26 58.721 237.864 56.6393 237.979 56.54C238.754 55.7208 239.182 56.0432 239.856 55.4694C241.728 53.8883 243.449 51.9679 245.275 50.5154C246.087 49.869 247.021 49.3176 247.955 48.8812C247.295 50.9777 250.877 50.3033 248.647 48.8538C249.791 48.6004 250.229 47.6532 251.257 47.2771C251.921 47.0402 252.492 47.1463 253.404 46.7528C255.01 46.0575 256.604 44.4792 257.581 46.0638C259.466 45.1452 261.325 45.4384 261.775 43.6785C262.293 43.4618 263.812 44.1901 264.408 44.2486C264.986 44.2369 269.307 44.343 269.997 44.4158C270.703 44.4263 271.918 44.4732 272.519 44.3476C272.764 44.296 272.996 44.0757 273.243 43.8752C273.752 43.4582 274.356 43.1187 275.091 44.6389C276.641 44.6236 277.184 44.7602 278.548 45.2474C278.794 45.3374 278.76 45.6603 278.907 45.688C279.21 45.7448 279.771 45.6104 280.323 45.701C281.23 45.8506 281.552 46.6503 281.723 45.6064C282.354 45.5811 282.995 45.5699 283.637 45.5705C283.784 45.8262 283.927 46.0829 284.067 46.3407C284.444 46.2226 284.826 46.1089 285.213 45.9996C284.351 47.3314 286.796 47.2223 286.416 46.1432C287.433 46.8464 288.409 47.5899 289.344 48.3696C288.446 49.9069 291.546 49.6578 291.823 48.7106C291.944 48.7743 292.065 48.8386 292.185 48.9035C293.007 49.8804 294.16 50.0809 295.213 51.1322C296.25 52.189 296.024 52.2721 295.893 53.2049C296.193 53.3548 296.492 53.5081 296.789 53.6649C299.62 52.8806 296.887 55.8105 300.281 56.3798C300.003 58.1004 302.159 59.1131 303.542 59.9879C303.702 60.0873 303.922 59.8967 304.151 60.0196C304.717 60.3204 305.391 61.7283 306.094 61.1041C306.217 61.6895 306.325 62.2738 306.421 62.8568C306.817 63.0975 307.211 63.3457 307.603 63.6009C307.845 63.4295 308.086 63.258 308.328 63.0865C308.016 64.383 309.086 65.3102 309.235 66.0218C309.264 66.1624 308.929 66.3997 309.046 66.8121C309.181 67.2944 309.733 68.0159 309.892 68.5856C310.401 68.5674 310.913 68.5558 311.427 68.5508C312.139 69.3845 311.207 70.2492 311.379 70.8355C311.42 70.9366 312.299 72.7356 312.355 72.8323C312.863 73.5787 313.789 72.9588 314.425 75.5147C314.532 75.9707 314.299 76.4346 314.404 76.8386C314.601 77.5369 315.934 79.51 316.704 79.5385C315.998 80.6363 316.792 82.9514 316.6 83.7108C316.544 83.9354 315.954 84.0596 315.9 84.7208C315.86 85.2537 316.461 86.5749 316.412 87.2575C316.363 87.9792 315.86 88.2546 315.833 88.5683C315.808 88.8661 316.224 89.1348 316.224 89.5469C316.217 90.8427 315.51 91.9596 315.429 92.9565C315.428 92.9718 315.426 92.987 315.425 93.0023C315.332 94.4211 316.372 95.8083 316.707 97.1283C316.581 97.4243 316.274 97.6789 316.215 97.9982C315.495 101.953 313.882 106.232 311.91 109.701C311.042 111.385 307.282 114.372 310.217 114.773C310.309 115.632 306.628 118.861 306.01 119.472C305.427 120.143 305.317 120.989 304.839 121.515C303.386 123.091 302.089 123.886 300.367 125.862C299.921 126.371 299.698 127.255 299.37 127.495C298.976 127.782 298.233 127.661 297.708 127.992C296.468 128.8 294.212 130.404 292.906 130.982C292.668 131.09 292.364 130.725 291.971 130.767C290.446 130.93 289.043 131.606 289.91 132.83C287.874 132.823 286.585 134.118 284.94 134.684C281.494 135.982 274.9 136.646 271.75 137.154C269.769 137.515 269.773 138.158 266.834 137.401C266.791 137.389 266.748 137.377 266.705 137.365C266.098 137.195 265.494 136.983 264.778 136.758C262.955 136.182 261.547 134.808 259.921 135.739C258.009 134.926 256.378 134.632 255.32 133.112C255.073 133.295 254.824 133.475 254.573 133.653C254.338 133.57 254.104 133.485 253.871 133.399C253.883 133.143 253.896 132.887 253.91 132.632C252.313 131.938 249.891 131.847 248.568 131.086C246.28 129.936 241.253 125.767 239.82 123.868C239.019 122.902 238.666 123.166 238.806 122.003C238.569 121.853 238.333 121.7 238.099 121.544C237.838 121.56 237.578 121.572 237.317 121.581C236.225 120.402 235.256 118.736 234.365 117.52C232.702 115.341 230.205 111.963 229.404 109.269C229.193 108.599 229.178 107.667 228.933 107.045C228.58 106.135 227.983 106.116 227.59 104.922C226.889 102.858 226.615 98.8148 226.354 96.8467C226.267 96.2591 226.066 96.0046 226.009 95.5963C225.774 93.8849 225.731 92.4673 225.52 90.8117C225.971 89.0264 226.481 89.1913 227 88.67C227.396 88.2712 228.303 87.0975 228.624 86.9534C228.849 86.8499 229.122 87.3135 229.372 87.1629C229.545 89.1362 229.382 89.9307 229.105 91.5395C229.342 94.4826 229.896 97.3855 230.753 100.182C230.658 100.483 230.564 100.786 230.47 101.092C230.47 101.092 230.469 101.092 230.469 101.092C230.608 102.241 231.226 102.553 231.542 103.082C234.294 108.284 240.365 117.717 245.608 121.421C246.65 122.319 250.585 124.266 251.23 125.006C251.39 125.214 251.259 125.609 251.483 125.741C253.666 126.548 255.903 127.144 258.151 127.527C260.958 128.811 264.144 129.28 267.27 129.285C268.905 129.291 270.512 129.181 272.1 129.032C284.719 127.897 295.861 120.396 302.281 110.255C303.556 108.291 304.488 105.48 305.517 103.461C305.945 102.625 306.92 102.514 306.667 101.117C306.898 101.174 307.128 101.23 307.358 101.287C307.405 100.13 307.062 99.3244 307.274 98.1201C307.475 97.1144 307.853 94.4149 308.005 93.5207C308.094 93.0546 308.521 93.2692 308.555 92.823C308.561 92.7341 308.56 92.6329 308.552 92.5217C308.5 91.6688 308.065 90.2949 308.052 89.3816C308.052 88.4552 308.471 86.8317 308.321 86.1068C307.815 83.4984 306.537 80.9096 305.906 78.2564C305.738 77.5231 305.937 76.4008 305.834 76.1793C305.637 75.75 305.072 75.8257 304.892 75.5642C303.994 74.2431 303.501 71.7505 302.712 70.3806C300.218 65.9142 296.375 61.9628 292.352 58.8611C289.845 56.8132 285.062 54.3823 282.312 53.0977C281.726 52.8075 282.054 52.3456 281.528 52.1739C280.941 51.9866 280.52 52.2453 280.243 52.1947C278.473 51.838 274.785 51.4258 272.74 51.0658C272.532 51.025 272.341 50.9823 272.172 50.9364C271.822 50.8408 271.581 50.4235 271.366 50.4136C271.257 50.4079 271.005 50.6684 270.667 50.6831C267.679 50.8339 265.507 50.8112 262.581 51.1924C256.952 51.9369 250.925 54.8426 245.959 58.1639C244.872 58.8792 243.774 58.9839 243.632 59.1088C243.324 59.3803 243.392 59.8557 242.841 60.4662C240.998 62.4628 238.197 64.9114 236.823 67.1529C236.129 68.2443 235.538 69.9457 234.987 71.0625C234.523 71.9449 233.289 73.9835 233.277 74.4626C233.26 74.7487 233.523 74.9899 233.426 75.2957ZM254.525 46.7308C254.61 47.5755 256.396 46.1926 255.5 46.0392C255.294 46.0034 254.499 46.5083 254.525 46.7308ZM313.126 102.672C313.433 102.743 313.74 102.814 314.048 102.884C314.003 102.575 313.956 102.265 313.905 101.959C313.681 102.061 313.455 102.162 313.23 102.26C313.196 102.398 313.162 102.535 313.126 102.672Z" fill="#8A5AFE"/>
<path d="M264.603 106.49L283.682 107.824C285.441 107.947 287.02 106.992 287.763 105.51L295.21 91.0131C295.435 90.5389 295.576 90.0376 295.615 89.4864L295.911 85.2468C296.074 82.9149 294.3 80.8737 291.968 80.7106L278.592 79.7753L281.283 70.2285L281.394 69.5546C281.455 68.6855 281.151 67.8548 280.619 67.2424L278.527 64.8594L263.581 77.8522C262.764 78.562 262.224 79.5893 262.142 80.7552L260.66 101.953C260.497 104.285 262.272 106.327 264.603 106.49ZM266.382 81.0517L276.225 72.495L272.593 83.6162L291.672 84.9503L291.375 89.1899L283.978 103.584L264.9 102.25L266.382 81.0517ZM249.424 79.8658L257.903 80.4587L256.124 105.897L247.645 105.304L249.424 79.8658Z" fill="#8A5AFE"/>
</g>
<defs>
<filter id="filter0_d_8175_27625" x="0.535156" y="0.0722656" width="506.928" height="506.928" filterUnits="userSpaceOnUse" color-interpolation-filters="sRGB">
<feFlood flood-opacity="0" result="BackgroundImageFix"/>
<feColorMatrix in="SourceAlpha" type="matrix" values="0 0 0 0 0 0 0 0 0 0 0 0 0 0 0 0 0 0 127 0" result="hardAlpha"/>
<feOffset/>
<feGaussianBlur stdDeviation="20"/>
<feComposite in2="hardAlpha" operator="out"/>
<feColorMatrix type="matrix" values="0 0 0 0 0.0745098 0 0 0 0 0.25098 0 0 0 0 1 0 0 0 1 0"/>
<feBlend mode="normal" in2="BackgroundImageFix" result="effect1_dropShadow_8175_27625"/>
<feBlend mode="normal" in="SourceGraphic" in2="effect1_dropShadow_8175_27625" result="shape"/>
</filter>
</defs>
</svg>
