<svg width="87" height="77" viewBox="0 0 87 77" fill="none" xmlns="http://www.w3.org/2000/svg">
<path d="M69.3951 28.8005C69.0591 29.2647 68.6332 29.772 67.9629 30.3907C67.2072 30.9965 66.6219 31.8033 63.9393 32.7924C61.9007 33.6878 57.626 33.0729 55.8891 31.4527C54.0432 29.9669 53.5646 28.7869 53.1572 27.9386C52.6775 26.7299 53.3394 27.1461 53.1348 26.424C53.0185 25.9508 52.908 25.5514 52.805 25.1766C52.62 24.5011 52.4422 23.8243 52.4751 23.1061C52.4967 22.7421 53.2059 23.0976 53.2177 22.7319C53.2979 20.7594 53.3039 18.9708 53.8921 17.2273C54.4199 15.694 55.1227 14.3101 56.0238 12.9996C56.7827 11.8217 58.1585 10.4424 59.695 9.72387C61.223 8.98949 62.4974 8.83728 63.4424 8.73923C65.8546 8.56811 67.4441 8.6916 69.8543 9.29316C72.2862 9.76475 75.0444 12.3657 75.7915 14.1333C76.0655 14.6523 76.3113 15.1826 76.5286 15.7199C77.5412 18.1664 77.5001 21.201 77.7954 23.594C77.8322 23.8776 78.4095 23.6991 78.4584 23.7529C79.1965 24.6269 78.0215 24.337 77.8531 24.8817C77.6914 25.3931 77.5438 25.9076 77.4059 26.4229C76.9312 28.5504 76.0161 30.5824 74.9932 32.171C74.4115 33.0471 75.9754 32.9758 74.7705 33.3768C74.6896 33.4008 74.4081 32.7938 74.1706 32.9567C73.6428 33.331 72.8523 34.1822 72.4463 34.4235C71.6737 34.888 71.5579 34.9693 70.8497 35.3987C70.649 35.5155 70.4323 35.6215 70.2068 35.7192C69.0217 36.273 67.6871 36.4015 66.6062 36.5756C66.3072 36.6235 66.7488 37.2369 66.2544 37.3639C65.7448 37.5036 64.4909 37.3576 64.1349 37.1421C63.7693 36.9374 64.0147 36.4704 63.9656 36.3479C63.6089 35.3307 62.1778 36.3422 61.9979 36.318C59.1437 36.0485 57.4686 34.3857 55.493 33.2576C55.4465 33.2307 55.3999 33.204 55.3533 33.1775C53.7303 32.2621 51.9196 31.293 50.5612 30.0449C48.947 28.5411 47.9563 26.9581 46.697 25.063C46.5621 24.8509 46.079 25.4905 45.9107 25.224C45.6765 24.8465 45.4464 24.4432 45.2184 23.9358C43.8296 19.6658 44.6938 17.9277 45.2349 15.5244C45.314 15.2664 45.9262 15.6751 46.0441 15.4231C46.2032 15.0778 46.4083 14.6936 46.6015 14.2936C47.2958 12.5566 48.28 11.1461 46.9454 9.15488C47.796 7.97171 49.0379 6.81164 50.255 6.51119C51.0343 6.32446 50.9743 7.30426 51.4242 6.53988C51.529 6.36969 50.9462 6.0373 51.14 5.81485C51.6893 5.18965 52.4127 4.73968 53.0537 4.26917C53.4306 3.99779 53.8007 3.73233 54.1385 3.43955C54.3459 3.25949 54.0341 2.79287 54.0597 2.66798C54.323 1.62384 55.852 2.47013 56.0684 2.50264C57.8738 2.63983 58.8731 2.1334 60.3059 1.90572C60.6358 1.85713 60.1255 1.17958 60.4441 1.10639C62.1049 0.739829 63.824 0.682907 65.3973 0.968878C65.746 1.03477 65.4456 1.6818 65.6116 1.74615C66.3352 2.02496 66.4809 0.818129 67.1771 1.07645C67.3226 1.12978 67.2403 1.67629 67.2668 1.73631C67.4485 2.15396 67.6193 2.12507 67.7626 1.96101C68.0053 1.75521 68.2248 1.34752 68.3111 1.33702C70.331 1.12856 70.8907 2.88151 72.2135 3.25022C72.3786 3.29981 72.3175 2.50679 72.7711 2.68986C74.7906 3.52648 76.4563 4.67924 77.9737 5.88998C78.9541 6.6373 79.7242 7.53314 80.304 8.44861C80.576 8.88457 79.9444 8.95416 79.9192 9.02206C79.4808 10.0403 80.6983 9.42767 80.845 9.5335C81.9262 10.3451 81.5259 11.8762 83.3194 11.8246C84.2651 14.0979 85.1521 16.2226 85.8859 18.3828C86.8932 21.4668 86.5529 24.321 85.6389 26.7469C85.6182 26.8054 84.9672 26.6522 84.9286 26.7685C84.731 27.3545 84.7985 27.6563 85.0319 27.8854C85.3543 28.2163 85.9961 28.4008 86.6735 29.0368C86.9663 29.3214 85.3832 29.922 85.2649 29.9721C84.8321 30.166 83.8825 29.8131 83.7951 29.8837C83.104 30.4509 86.3462 30.7267 86.2227 31.6494C86.2134 31.6768 85.6378 31.4756 85.5683 31.5432C85.3511 31.7501 85.5516 32.0191 85.3125 32.2177C84.7578 32.6733 83.1773 32.5757 83.935 33.5149C84.0316 33.6364 85.8773 33.8287 85.6227 34.6287C85.5258 34.9458 85.2149 36.3844 84.9846 36.7488C84.7615 37.1123 84.2634 36.6828 84.2308 36.705C83.1818 37.5308 82.9791 37.0444 81.718 37.2016C80.462 37.3381 83.1351 38.0411 83.361 38.3456C83.5861 38.6534 82.7174 39.1891 82.4408 39.2877C82.1648 39.3897 81.8892 39.0409 81.7129 39.1544C80.7219 39.7885 82.2398 40.0218 82.8782 40.3903C82.9859 40.4533 83.0679 40.5208 83.1069 40.5965C83.7329 41.8529 81.564 41.6947 81.0606 42.3185C80.922 42.4915 81.4192 42.5261 81.3792 42.7179C81.2108 43.4795 80.4405 43.6095 80.5908 44.6357C80.6164 44.8015 81.4091 45.9766 80.3989 45.9719C80.2541 45.9697 79.8791 45.5798 79.6332 45.8133C79.2649 46.1627 78.7757 46.8726 78.6912 47.4053C78.6296 47.7979 79.5756 47.8016 79.1239 48.1038C78.9228 48.2372 78.6674 47.6629 78.326 47.9321C78.1104 48.1014 77.8508 48.5264 77.6474 48.9025C77.5301 49.1194 77.4306 49.321 77.3699 49.4479C77.2039 49.795 77.8653 49.9111 77.8886 49.9587C78.0174 50.2412 77.9302 51.045 77.8964 51.1033C76.3383 54.0967 73.7488 56.1308 71.919 58.8414C71.7731 59.0551 72.3962 59.3607 72.3792 59.3977C72.0062 60.2625 71.1133 58.5615 70.267 58.6182C71.3465 59.4574 70.9252 59.5662 70.6136 60.1221C70.6101 60.1285 70.6069 60.1348 70.6041 60.1411C70.4866 60.4017 70.9603 60.6346 70.9809 60.6901C71.2536 61.5731 70.2829 61.0817 70.0777 60.9884C69.3169 60.6507 69.7468 61.5247 69.237 61.2949C68.7341 61.0633 68.5132 60.2049 68.11 60.6136C68.3329 61.0786 69.5393 61.6872 69.3589 62.1508C68.6692 63.9354 65.5755 65.2521 64.4563 65.9876C63.3332 66.7423 63.0384 67.0721 62.3047 67.4013C60.9773 67.9844 61.9556 68.4396 61.4871 69.3112C61.0084 70.1828 60.0194 68.025 59.6275 67.6885C59.2402 67.3484 59.4263 67.8477 59.1439 67.7086C58.8636 67.5681 58.9353 67.1034 58.5872 67.2191C58.5143 67.2436 58.4446 67.3176 58.3826 67.4229C58.1372 67.8334 57.9729 68.7174 58.1166 69.1192C58.4946 70.1966 59.5117 70.9322 58.454 71.12C58.3928 71.1298 58.2226 70.5128 58.0057 70.5757C56.3186 71.0668 54.719 71.9513 52.9072 72.0683C52.6626 72.0777 52.6783 71.3642 52.5433 71.3587C51.1852 71.2028 51.9245 72.2443 50.9183 73.5284C51.0476 72.7427 51.0194 72.0922 50.8669 71.6156C50.8622 71.5822 50.8552 71.5466 50.8896 71.5212C50.9242 71.5243 50.9053 71.4557 51.0749 71.58C51.1595 71.6444 51.2062 71.8343 51.1847 71.9148C51.1701 72.0089 51.1369 72.0602 51.1236 72.0887C51.0617 72.2336 51.1335 72.2309 51.1682 72.2768C51.2557 72.347 51.3635 72.3922 51.4777 72.4168C51.7026 72.4675 51.9589 72.4317 52.2212 72.3046C52.8141 72.0134 52.3724 71.4021 52.4768 70.7506C52.5045 70.5568 53.1453 70.7765 53.0354 70.4343C52.6707 69.3183 51.6819 68.4399 52.7669 68.3504C52.8161 68.347 53.0434 68.9453 53.1898 68.8943C53.8096 68.6735 53.7833 68.1462 53.8677 67.619C53.9247 67.318 54.0265 67.0076 54.307 66.7242C54.9246 66.1027 56.5974 65.6917 57.4493 65.1373C58.65 66.6255 59.1162 65.6679 58.5571 64.4131C59.0909 64.0321 59.5752 63.5166 60.1685 63.2374C60.3723 63.1408 60.6312 63.6501 60.6912 63.677C61.6301 64.0998 60.9926 62.9493 61.0617 62.8197C61.446 62.1625 61.9936 61.7894 62.5027 61.3916C63.0632 60.9535 63.5839 60.4748 63.7179 59.5953C63.7282 59.5331 62.7994 58.5848 63.7622 58.9622C63.8296 58.9866 63.9703 59.7385 64.4448 59.2732C64.9114 58.8217 66.2732 58.2574 66.2876 57.1321C66.2971 56.8574 65.6903 55.8213 66.6386 55.8861C66.7676 55.8947 67.0567 56.1515 67.2836 56.1871C68.0121 56.2902 66.941 55.4677 68.0954 55.7535C68.0978 55.754 68.1002 55.7546 68.1026 55.7552C69.2604 56.0265 70.3682 55.8146 70.1573 54.5659C70.1512 54.5293 69.3315 53.8123 69.4883 53.5545C69.7419 53.1402 70.2559 52.6263 70.474 52.1624C70.5775 51.9415 69.9148 51.7936 69.9225 51.7504C70.2786 50.1419 71.2702 49.3514 72.007 47.7421C72.1489 47.4312 71.4807 46.3786 72.2794 45.9099C73.1543 45.3764 76.2687 46.557 75.7255 44.7994C75.6148 44.4593 74.574 43.9838 73.8397 43.467C73.0989 42.9137 72.6474 42.4035 73.7683 41.9196C73.435 39.6626 74.4909 37.5329 73.4692 35.3362C73.4232 35.2342 72.2446 35.0766 72.2262 34.8541C72.2141 34.6892 72.3302 34.5328 72.4499 34.3945C72.5721 34.2686 72.6872 34.1304 72.6695 34.0102C72.4945 32.9532 71.4635 32.5185 70.8155 31.8332C70.5549 31.569 71.0169 31.2324 70.6787 30.9134C70.4496 30.7019 70.0635 30.81 69.7541 30.714L69.8022 30.738C69.6446 30.7477 69.4852 30.7053 69.3161 30.5432C68.9465 30.175 68.7483 28.6074 68.0749 28.3349C67.842 29.7912 67.4073 29.6898 66.6225 30.0211C66.4722 30.086 66.5906 30.6084 66.5187 30.6656C66.2343 30.9105 66.0068 30.4742 65.7378 30.7538C65.6724 30.821 65.6574 31.3238 65.6063 31.4074C65.1847 32.1348 64.4943 31.0172 64.3552 30.8265C63.8512 30.0961 63.6598 30.7643 63.2747 30.4973C62.886 30.2327 63.409 29.8209 62.9584 29.6785C62.0096 29.3855 60.8355 29.6306 59.9163 29.7789C59.5457 29.8416 59.9222 30.4546 59.872 30.4789C59.1686 30.7835 58.2527 30.2604 58.1632 31.6586C56.8413 28.4619 57.7781 32.0086 56.6442 31.7069L56.6819 31.6945C56.669 31.6925 56.6559 31.6901 56.6424 31.6873C56.5575 31.667 56.0049 30.5125 56.0355 30.0009L56.1577 29.9607C56.1682 29.8924 56.1882 29.8369 56.2195 29.7986C56.4854 29.476 57.107 29.84 57.4729 29.3655C57.5543 29.2537 57.8409 27.6128 57.9154 27.5024C58.4676 26.6374 59.0567 29.0169 59.117 29.1405C59.7951 30.479 60.2428 28.7232 60.4445 28.5766C61.3069 27.9077 62.1779 28.1504 62.9579 27.7134C63.4729 27.4323 63.4373 25.8319 63.894 25.859C65.4596 25.9715 65.818 28.2088 67.3861 26.3962C67.7319 26.0204 67.6226 24.2285 68.6323 25.7566C68.7092 25.8531 69.3181 27.2287 69.9785 26.5697C70.0642 26.4864 70.1781 25.9893 70.2742 25.9681C70.6259 25.8957 70.8809 26.0197 71.1412 26.1447L72.6123 26.8771C72.7522 27.0298 72.9026 27.1866 73.1704 27.2854C73.7605 27.5016 74.5677 27.7947 75.0564 28.5393C75.3584 28.9877 75.0946 30.1552 75.0546 30.4976C74.9351 31.4283 76.3374 31.7172 75.7956 32.5918C75.1819 33.3208 73.7983 33.0024 73.5475 34.0623C74.6424 33.8547 75.7764 33.7138 76.9039 33.623C77.1153 33.5957 77.3264 33.5684 77.5367 33.541C77.8187 35.5213 77.5065 37.3148 77.5689 39.1661C77.5769 39.3952 78.2901 39.1609 78.3163 39.4122C78.4196 40.4788 77.8688 41.3733 77.9688 42.4818C78.0144 42.9842 78.2463 43.5418 78.435 44.1164C78.5865 44.4144 78.7254 44.732 78.7629 45.0642C77.2025 45.319 77.5463 46.7036 77.1778 47.7218C77.0528 48.0677 76.6618 47.9562 76.4748 48.17C75.7674 48.9698 77.1687 48.884 77.3018 49.203C77.8297 50.5984 74.9116 49.765 74.5621 50.9027C74.5477 50.9555 75.743 52.3069 75.7854 52.4576C76.1074 53.3679 75.2232 52.3435 74.9386 52.6946C74.4153 53.3294 73.8451 53.629 73.8661 54.637C73.8741 54.9323 74.4763 55.959 73.5512 56.0304C73.4299 56.0403 72.9774 55.7539 72.9246 55.7857C72.0178 56.3586 73.4714 57.1906 73.6924 57.9539C73.8035 58.3391 73.4977 58.5599 73.1119 58.6921C72.7319 58.8265 72.2824 58.8617 72.0952 58.8519C71.1144 58.8022 71.9641 58.356 71.9019 58.2914C71.1802 57.5291 71.0182 58.1493 70.6901 58.5134C69.2564 57.7052 68.9945 58.2975 70.3535 58.8927C70.504 58.9556 70.5763 58.5552 70.6901 58.5134C71.8451 59.7154 71.5556 60.5522 69.827 60.3694C69.0187 60.2732 68.5856 59.4955 68.1202 60.5911C67.9002 61.0855 68.91 61.639 68.8378 62.2111C68.6527 63.5378 66.8936 63.858 66.2451 64.7163C66.0053 65.0332 66.7126 65.2119 66.5609 65.4456C66.5368 65.4826 66.5112 65.5179 66.4844 65.5517C66.0703 66.0748 65.3707 66.179 65.0389 66.7821C65.0072 66.8409 65.5574 67.219 65.4018 67.3707C64.2271 68.5292 62.891 69.1255 61.5945 70.186C60.9693 70.699 60.0666 71.8904 59.3525 72.358C58.959 72.6182 58.4785 72.8356 57.9784 73.0368C56.785 73.5665 55.5196 73.9127 54.7388 74.526C53.9854 75.1069 54.4612 75.58 54.2916 76.165C54.2017 76.4719 53.9799 76.6418 53.7459 76.7007C53.6302 76.7296 53.5017 76.7361 53.4554 76.6857C53.4473 76.651 53.4048 76.6402 53.6345 76.4616C53.6867 76.4188 53.808 76.3348 53.9763 76.2018C54.0379 76.1511 54.2247 76.0106 54.447 75.8006C54.6886 75.4969 54.9019 75.608 55.7301 73.9813C56.0529 73.162 56.4474 72.0693 55.9303 70.2363C55.3991 68.5404 54.2067 67.6004 53.5199 67.2076C52.682 66.7404 52.2317 66.6745 51.8952 66.5998C51.5819 66.5441 51.515 66.5474 51.3779 66.5369C51.2595 66.5305 51.1691 66.5306 51.0948 66.5328C51.4197 66.699 51.272 66.8596 51.2778 67.0062C51.2569 67.1514 51.2531 67.2734 51.2542 67.3275C51.2523 67.3315 51.2772 67.3707 51.282 67.4518C51.2844 67.5329 51.258 67.6539 51.2781 67.8211C51.3043 68.5156 51.2652 67.33 51.2542 67.3275C51.2515 67.4033 51.2383 67.4871 51.3715 67.5004C51.4941 67.5164 51.7173 67.451 51.7653 67.3674C51.8221 67.2754 51.5714 66.7112 51.6006 66.6755C52.3352 65.8231 53.5848 64.9295 55.0756 64.2922C55.106 64.2871 55.4484 64.8858 55.516 64.866C55.8603 64.7687 56.0802 64.5769 56.2521 64.3214C56.5626 63.857 56.6648 63.2163 56.9019 62.6496C57.2714 61.7703 57.8715 61.5324 58.9704 62.1843C59.3739 61.6953 60.3895 61.5683 60.9882 61.4958C61.5881 61.423 60.7994 60.3355 60.8172 60.2874C61.3457 58.7627 62.4296 58.8487 63.5506 57.9925C64.0856 57.589 64.886 56.547 65.248 55.9527C65.3669 55.7592 65.5121 55.6414 65.6536 55.5361C65.8572 55.3837 66.0583 55.252 66.1622 54.9571C66.1864 54.8893 65.6951 54.5442 65.6914 54.5137C65.5095 53.6393 66.4377 54.7917 66.71 54.8759C67.6981 55.1789 68.2722 55.286 68.385 54.4304C68.4162 54.228 67.0518 52.5615 67.1219 52.2616C67.2225 51.8656 67.7441 52.4272 67.8337 51.9936C67.8417 51.9568 67.4616 51.691 67.6206 51.503C68.3547 50.6247 69.273 49.6914 69.8703 48.5777C69.953 48.4272 69.2067 48.2447 69.314 48.0231C69.7401 47.1441 70.2644 46.1989 70.9427 45.3658C71.0709 45.2065 71.2031 45.0541 71.3405 44.9079C71.5591 44.6789 71.9273 45.0872 72.0937 45.0996C73.1041 45.168 72.1758 44.0345 72.1957 43.94C72.6427 41.6604 74.5242 40.6438 74.8202 38.521C74.8358 38.4111 74.0309 37.3736 74.7201 37.2938C74.8102 37.2728 74.9243 37.2651 75.067 37.2739C75.152 37.2824 76.476 37.3579 75.7714 36.7519C75.7267 36.7154 75.037 36.7126 75.2313 36.3592C75.427 36 75.2048 35.2808 76.0412 34.97C76.3038 34.8763 77.6399 34.8039 76.794 34.0441C76.7402 33.9783 74.7031 32.7175 76.2914 32.7902C76.5525 32.8013 78.1732 33.1948 77.4623 32.4027C77.3229 32.2536 76.9186 32.3929 76.7496 32.0447C76.4869 31.5173 77.032 30.9567 76.3799 30.2669C76.2652 30.1428 75.203 29.5761 76.093 29.3315C76.2326 29.2918 76.7719 29.461 76.855 29.2802C77.1342 28.6739 77.074 27.9974 77.1633 27.3327C77.205 26.9976 77.276 26.6801 77.412 26.3816C77.5724 26.0293 78.4547 26.2759 78.72 25.9209C78.986 25.5659 79.2578 24.8589 78.8585 24.4975C78.4591 24.1431 77.0209 24.4555 76.9169 23.9838C76.6371 22.7477 76.7122 21.9279 76.7987 21.4978C76.6367 20.5865 76.4696 19.6937 76.1851 18.8771C76.0748 18.5639 75.7085 19.0111 75.5128 18.5763C74.773 16.8548 73.1367 15.1633 73.4239 14.0604C73.5439 13.0061 74.605 13.0468 74.4074 12.4137C74.32 12.1943 73.7299 12.6788 73.3987 13.0576C73.1714 13.1891 72.9994 13.294 72.955 13.2856C71.593 13.0483 71.263 11.9675 70.2824 11.6545C70.0821 11.5923 69.9154 12.2746 69.7529 12.2181C69.2019 12.0347 68.8659 11.5162 68.4756 11.3958C68.3045 11.3459 68.1222 11.8284 68.0131 11.738C67.7533 11.5313 67.6711 11.2822 67.6828 10.7904C67.6757 10.7439 67.9067 10.1389 67.8012 10.0919C67.7294 10.0601 67.7055 9.94804 67.705 9.88245C67.2525 9.80345 66.7835 9.79054 66.3478 10.0607C66.1045 10.213 66.1247 11.3872 65.594 10.5904C65.4842 10.4249 65.5635 9.00611 65.0183 10.2507C64.9114 10.4563 64.0758 12.1519 63.5488 11.1388C63.408 10.871 62.9788 9.75138 62.7275 9.9639C62.6956 9.99688 62.9099 10.6076 62.7019 10.6944C61.9733 10.9898 61.214 11.0518 60.6051 11.4021C60.4473 11.4964 60.8501 12.0703 60.6221 12.1886C59.9981 12.5137 59.2966 12.5973 58.8289 12.612C58.6555 12.6159 58.496 12.0883 58.4602 12.0404C57.8108 11.3 58.3537 12.4867 58.3635 12.5697C58.3631 12.5783 58.3625 12.5866 58.3619 12.5947C57.9974 13.318 57.2876 13.1046 56.9914 13.5463C56.9131 13.6657 57.38 14.0807 57.3944 14.1401C57.5488 14.7119 56.9773 13.7443 56.7712 13.7605C56.1898 13.8064 55.9157 14.1813 55.8192 14.4557C55.7858 14.5546 56.4307 14.8811 56.405 14.9505C56.3159 15.2758 56.2956 15.2786 56.0439 15.4949C55.9494 15.8043 55.8454 16.1055 55.7312 16.3974C55.6256 16.6662 55.0972 16.4324 54.9657 16.4767C54.0454 16.7897 55.1885 17.4818 55.2935 17.6117C55.7687 18.2237 55.2704 18.4047 55.3434 18.8663C55.4172 19.302 55.4801 19.7191 55.5348 19.975C55.5609 20.0993 55.5868 20.1831 55.5891 20.1527C55.5851 20.1178 55.5841 19.98 55.3847 19.5105C55.3264 19.395 55.423 19.6216 55.5263 19.8103C55.6346 20.0133 55.7764 20.2541 55.9308 20.4951C56.2416 20.981 56.613 21.4825 56.992 21.924C57.967 23.0523 58.9818 24.0655 60.1865 24.915C61.1248 25.5587 62.1004 26.1175 63.1224 26.4817C63.279 26.5376 63.4039 25.7967 63.5385 25.8341C64.3881 26.0858 65.1198 26.3261 65.5775 26.4198C66.0387 26.5323 66.122 26.406 65.5356 26.4997C65.4374 26.5228 65.3253 25.8154 65.1212 25.8502C65.0522 25.863 64.9793 25.884 64.9058 25.9131C65.091 25.7572 65.3221 25.6741 65.5822 25.7101C65.7355 25.727 65.9753 26.2953 66.1329 26.2934C66.5076 26.2844 66.7607 26.0965 66.7867 25.8781C66.7911 25.7915 66.17 25.4352 66.2023 25.3781C66.2768 25.2031 66.1699 25.2982 66.2251 25.313C66.3822 24.2939 66.5524 23.2952 66.8874 22.2444C66.9297 22.12 68.3289 21.732 67.9941 21.5006C67.5984 21.5678 67.1391 21.6738 66.7196 21.7608C66.4743 21.0159 66.2246 20.3794 65.9408 19.8126C65.8565 19.6239 65.9217 19.7578 66.2754 20.0123C66.6236 20.2715 67.1124 20.4073 67.1492 20.3677C66.9796 20.2041 65.4772 20.0566 65.1078 20.1043C65.0691 20.1085 65.0344 20.1125 65.0023 20.1165C64.9283 20.1258 65.1655 20.8613 65.0521 20.879C64.8596 20.9062 65.1484 20.918 65.7082 20.588C66.2701 20.2668 66.7294 19.6773 66.7643 19.4739C66.5806 19.6344 66.3184 19.836 65.9487 20.0361C65.8543 20.089 64.5806 19.6331 64.6932 19.9892C64.7094 20.0541 64.7967 20.5194 65.0812 20.6423C65.1237 20.6578 65.7529 20.6875 65.7595 20.7846C65.7812 21.1439 65.7679 21.3841 65.7046 21.662C65.684 21.7354 65.6535 21.7625 65.548 21.6571C65.4286 21.5515 65.288 21.2979 64.664 20.7416C64.0292 20.2364 64.2193 21.3088 63.7639 20.9829C63.3331 20.6896 62.6068 20.3164 61.7675 20.2C60.9297 20.0737 60.1637 20.2259 59.7103 20.3908C59.0881 20.627 58.9981 20.7465 58.9493 20.7651C58.9157 20.7865 58.9813 20.7307 59.0761 20.6521C59.2737 20.4899 59.6001 20.2408 60.0433 20.0704C60.8618 19.7387 61.5654 20.695 62.7361 21.0657C62.9017 21.1177 63.2705 20.7042 63.8043 21.0971C65.1466 22.086 66.3904 23.4479 67.8412 24.4773C68.1557 24.6969 68.3124 23.8473 68.7489 24.7776C68.7786 24.8394 68.664 25.4686 68.8142 25.78C68.9186 25.9947 69.5556 26.2796 69.6398 26.6152C69.7215 26.9528 69.1405 26.7713 69.1543 27.2618C69.1611 27.7633 69.8751 28.1158 69.3951 28.8005ZM63.6785 61.1166C64.4642 61.2911 62.9738 59.4639 62.9564 60.2217C62.9573 60.2605 63.6392 61.1086 63.6785 61.1166ZM75.6882 37.4019C74.6846 38.1429 76.2175 38.5832 77.0078 38.0544C77.7932 37.4996 75.9906 37.1634 75.6882 37.4019ZM72.0215 30.1379C72.0911 31.3014 74.5707 29.0495 73.2965 28.7994C73.223 28.7856 72.0137 30.0681 72.0215 30.1379ZM61.6209 22.837C61.6467 22.857 61.9132 22.6193 61.8965 22.5901C61.4684 21.953 60.9651 22.3991 61.6209 22.837ZM64.4783 29.1022C64.7349 29.5446 65.4415 29.0245 65.1347 28.4619C64.8719 28.0063 64.1475 28.5485 64.4783 29.1022ZM80.005 41.8606C80.0405 41.8679 80.1884 41.618 80.0049 41.5414C79.4137 41.298 79.4141 41.733 80.005 41.8606ZM53.0761 31.8909C54.7134 31.2321 56.6959 33.3996 54.9752 33.8338C54.6575 33.9198 55.2357 32.7421 54.7572 32.6894C53.8612 32.6052 54.1747 34.3871 53.0534 33.9089C52.8485 33.8211 52.9782 31.923 53.0772 31.8861C53.0768 31.8877 53.0765 31.8893 53.0761 31.8909ZM65.7345 63.0831C65.7624 63.1005 66.0865 62.859 66.0731 62.8293C65.7443 62.1241 65.0995 62.6036 65.7345 63.0831ZM85.0665 25.611C85.1364 25.5939 85.2425 24.6353 85.1794 24.6C83.9781 24.075 83.7658 25.9523 85.0665 25.611ZM57.494 65.1665C57.3477 64.3104 57.681 63.9152 58.555 64.4136C58.194 64.6534 57.857 64.9259 57.494 65.1665Z" fill="#1340FF"/>
<path d="M24.98 28.0632C24.6441 28.5274 24.2182 29.0347 23.5479 29.6534C22.7922 30.2592 22.2069 31.066 19.5242 32.0551C17.4856 32.9505 13.2109 32.3356 11.474 30.7154C9.62818 29.2296 9.14956 28.0496 8.74219 27.2013C8.26248 25.9926 8.9244 26.4088 8.71978 25.6867C8.60345 25.2135 8.49298 24.8141 8.38994 24.4393C8.20495 23.7638 8.02716 23.087 8.06002 22.3688C8.08169 22.0048 8.79086 22.3603 8.80269 21.9946C8.88289 20.0221 8.88887 18.2335 9.47702 16.4899C10.0049 14.9567 10.7076 13.5728 11.6088 12.2623C12.3677 11.0844 13.7434 9.70511 15.28 8.98656C16.808 8.25219 18.0823 8.09997 19.0273 8.00193C21.4396 7.8308 23.0291 7.95429 25.4392 8.55585C27.8712 9.02744 30.6294 11.6284 31.3764 13.396C31.6505 13.915 31.8962 14.4453 32.1136 14.9826C33.1262 17.4291 33.0851 20.4636 33.3804 22.8567C33.4172 23.1403 33.9945 22.9618 34.0434 23.0156C34.7815 23.8896 33.6065 23.5997 33.438 24.1444C33.2763 24.6558 33.1287 25.1703 32.9909 25.6856C32.5162 27.8131 31.601 29.8451 30.5782 31.4337C29.9964 32.3098 31.5604 32.2385 30.3555 32.6395C30.2745 32.6635 29.9931 32.0565 29.7556 32.2194C29.2278 32.5937 28.4372 33.4449 28.0312 33.6862C27.2587 34.1507 27.1429 34.232 26.4346 34.6614C26.2339 34.7782 26.0172 34.8842 25.7918 34.9819C24.6066 35.5357 23.272 35.6642 22.1911 35.8383C21.8922 35.8862 22.3338 36.4996 21.8393 36.6266C21.3297 36.7663 20.0759 36.6203 19.7199 36.4048C19.3543 36.2001 19.5996 35.7331 19.5506 35.6106C19.1939 34.5933 17.7627 35.6049 17.5829 35.5807C14.7286 35.3112 13.0535 33.6484 11.0779 32.5203C11.0314 32.4934 10.9849 32.4667 10.9382 32.4402C9.31524 31.5248 7.5046 30.5557 6.14613 29.3076C4.53197 27.8038 3.5413 26.2208 2.28197 24.3257C2.14706 24.1135 1.66398 24.7532 1.49564 24.4867C1.26149 24.1092 1.03133 23.7059 0.803407 23.1985C-0.585476 18.9285 0.278727 17.1904 0.819872 14.7871C0.898921 14.5291 1.51117 14.9378 1.62902 14.6858C1.78819 14.3405 1.99329 13.9563 2.18648 13.5563C2.88074 11.8193 3.86497 10.4088 2.53037 8.41758C3.38095 7.23441 4.62288 6.07433 5.84 5.77389C6.61929 5.58716 6.55927 6.56695 7.00919 5.80258C7.11401 5.63239 6.53115 5.3 6.725 5.07754C7.27425 4.45234 7.99764 4.00238 8.63869 3.53187C9.01556 3.26049 9.38569 2.99503 9.7235 2.70225C9.93083 2.52218 9.61906 2.05557 9.64463 1.93068C9.90801 0.886535 11.4369 1.73283 11.6534 1.76533C13.4587 1.90253 14.4581 1.3961 15.8908 1.16841C16.2208 1.11982 15.7105 0.442275 16.0291 0.369088C17.6899 0.00252458 19.409 -0.0543974 20.9822 0.231573C21.3309 0.297467 21.0305 0.944495 21.1965 1.00885C21.9202 1.28766 22.0659 0.0808243 22.7621 0.339143C22.9075 0.39248 22.8253 0.93899 22.8517 0.999006C23.0335 1.41665 23.2042 1.38777 23.3476 1.2237C23.5903 1.0179 23.8098 0.610219 23.8961 0.599715C25.916 0.391255 26.4756 2.14421 27.7984 2.51291C27.9636 2.56251 27.9025 1.76949 28.3561 1.95256C30.3755 2.78917 32.0412 3.94194 33.5586 5.15267C34.539 5.9 35.3091 6.79584 35.889 7.7113C36.1609 8.14726 35.5293 8.21685 35.5041 8.28475C35.0658 9.30297 36.2833 8.69036 36.4299 8.7962C37.5111 9.60781 37.1109 11.1389 38.9044 11.0873C39.8501 13.3606 40.7371 15.4853 41.4708 17.6455C42.4782 20.7295 42.1378 23.5837 41.2239 26.0096C41.2031 26.0681 40.5521 25.9149 40.5136 26.0312C40.3159 26.6172 40.3834 26.9189 40.6169 27.1481C40.9393 27.479 41.5811 27.6635 42.2584 28.2995C42.5513 28.5841 40.9682 29.1847 40.8498 29.2348C40.417 29.4286 39.4674 29.0758 39.38 29.1464C38.6889 29.7136 41.9312 29.9894 41.8077 30.9121C41.7984 30.9395 41.2227 30.7383 41.1533 30.8058C40.936 31.0128 41.1366 31.2818 40.8975 31.4804C40.3428 31.936 38.7623 31.8384 39.5199 32.7776C39.6166 32.8991 41.4623 33.0914 41.2077 33.8914C41.1108 34.2085 40.7999 35.6471 40.5696 36.0115C40.3465 36.375 39.8484 35.9455 39.8157 35.9677C38.7667 36.7935 38.5641 36.3071 37.3029 36.4643C36.047 36.6008 38.7201 37.3038 38.9459 37.6083C39.171 37.9161 38.3023 38.4518 38.0257 38.5504C37.7497 38.6524 37.4742 38.3036 37.2978 38.4171C36.3069 39.0512 37.8248 39.2845 38.4632 39.653C38.5709 39.716 38.6529 39.7835 38.6919 39.8592C39.3178 41.1155 37.1489 40.9574 36.6456 41.5812C36.507 41.7542 37.0042 41.7888 36.9642 41.9806C36.7958 42.7422 36.0255 42.8722 36.1758 43.8984C36.2013 44.0642 36.994 45.2393 35.9839 45.2346C35.839 45.2324 35.4641 44.8425 35.2182 45.076C34.8499 45.4254 34.3607 46.1353 34.2761 46.668C34.2146 47.0606 35.1606 47.0643 34.7089 47.3665C34.5078 47.4999 34.2523 46.9255 33.911 47.1948C33.6953 47.3641 33.4358 47.7891 33.2323 48.1652C33.1151 48.3821 33.0156 48.5837 32.9548 48.7106C32.7889 49.0577 33.4502 49.1738 33.4735 49.2214C33.6024 49.5039 33.5152 50.3077 33.4813 50.366C31.9233 53.3594 29.3338 55.3935 27.504 58.1041C27.358 58.3178 27.9811 58.6233 27.9641 58.6604C27.5911 59.5252 26.6983 57.8242 25.8519 57.8809C26.9314 58.7201 26.5102 58.8289 26.1986 59.3848C26.1951 59.3912 26.1919 59.3975 26.189 59.4038C26.0716 59.6644 26.5453 59.8973 26.5659 59.9528C26.8386 60.8358 25.8679 60.3444 25.6627 60.2511C24.9019 59.9134 25.3318 60.7874 24.822 60.5576C24.319 60.326 24.0981 59.4676 23.695 59.8763C23.9178 60.3413 25.1243 60.9499 24.9438 61.4135C24.2541 63.1981 21.1605 64.5148 20.0413 65.2503C18.9181 66.005 18.6234 66.3348 17.8896 66.664C16.5623 67.2471 17.5406 67.7023 17.0721 68.5739C16.5933 69.4455 15.6043 67.2877 15.2124 66.9512C14.8252 66.6111 15.0112 67.1104 14.7289 66.9713C14.4486 66.8308 14.5203 66.3661 14.1722 66.4818C14.0993 66.5063 14.0295 66.5803 13.9676 66.6856C13.7221 67.0961 13.5579 67.9801 13.7016 68.3819C14.0795 69.4593 15.0966 70.1949 14.039 70.3827C13.9778 70.3925 13.8075 69.7754 13.5907 69.8384C11.9035 70.3295 10.304 71.214 8.49213 71.331C8.2476 71.3404 8.26325 70.6269 8.12827 70.6214C6.77019 70.4655 7.50941 71.507 6.50324 72.7911C6.63251 72.0054 6.60431 71.3549 6.45187 70.8783C6.44713 70.8449 6.44021 70.8093 6.47457 70.7839C6.50914 70.787 6.4903 70.7184 6.65984 70.8427C6.74442 70.9071 6.79116 71.097 6.76971 71.1775C6.7551 71.2716 6.72189 71.3229 6.7086 71.3514C6.64666 71.4962 6.7185 71.4936 6.75319 71.5395C6.84061 71.6097 6.94848 71.6549 7.06262 71.6795C7.2876 71.7302 7.54385 71.6944 7.80614 71.5673C8.39904 71.2761 7.95736 70.6648 8.06175 70.0133C8.08942 69.8195 8.7303 70.0392 8.62033 69.697C8.25566 68.581 7.2669 67.7026 8.35185 67.6131C8.40108 67.6097 8.62835 68.208 8.77477 68.157C9.39452 67.9362 9.36825 67.4089 9.45266 66.8816C9.50963 66.5807 9.61146 66.2703 9.89195 65.9869C10.5096 65.3654 12.1824 64.9544 13.0343 64.4C14.2349 65.8882 14.7011 64.9306 14.1421 63.6758C14.6758 63.2948 15.1601 62.7793 15.7534 62.5001C15.9573 62.4035 16.2161 62.9128 16.2761 62.9397C17.2151 63.3625 16.5776 62.212 16.6467 62.0824C17.031 61.4252 17.5785 61.0521 18.0877 60.6543C18.6481 60.2162 19.1689 59.7375 19.3028 58.858C19.3131 58.7958 18.3844 57.8475 19.3472 58.2249C19.4145 58.2493 19.5552 59.0012 20.0298 58.5359C20.4964 58.0844 21.8581 57.5201 21.8726 56.3948C21.8821 56.1201 21.2753 55.084 22.2236 55.1488C22.3526 55.1574 22.6416 55.4142 22.8686 55.4498C23.5971 55.5529 22.526 54.7304 23.6804 55.0162C23.6828 55.0167 23.6852 55.0173 23.6875 55.0179C24.8454 55.2892 25.9531 55.0773 25.7423 53.8286C25.7362 53.792 24.9164 53.075 25.0732 52.8172C25.3269 52.4029 25.8408 51.889 26.0589 51.4251C26.1624 51.2042 25.4998 51.0563 25.5074 51.0131C25.8635 49.4046 26.8552 48.6141 27.592 47.0048C27.7339 46.6939 27.0657 45.6413 27.8644 45.1726C28.7392 44.6391 31.8537 45.8197 31.3105 44.0621C31.1997 43.722 30.159 43.2465 29.4247 42.7297C28.6838 42.1764 28.2324 41.6662 29.3532 41.1823C29.02 38.9253 30.0759 36.7955 29.0542 34.5989C29.0081 34.4969 27.8296 34.3393 27.8112 34.1168C27.799 33.9519 27.9152 33.7955 28.0348 33.6572C28.1571 33.5313 28.2721 33.3931 28.2544 33.2729C28.0795 32.2159 27.0484 31.7812 26.4004 31.0959C26.1399 30.8317 26.6019 30.4951 26.2636 30.1761C26.0346 29.9646 25.6484 30.0727 25.339 29.9767L25.3872 30.0007C25.2296 30.0104 25.0702 29.968 24.9011 29.8059C24.5315 29.4376 24.3333 27.8701 23.6599 27.5976C23.4269 29.0539 22.9923 28.9525 22.2074 29.2838C22.0572 29.3487 22.1756 29.8711 22.1037 29.9283C21.8192 30.1732 21.5918 29.7369 21.3227 30.0165C21.2574 30.0837 21.2423 30.5865 21.1912 30.6701C20.7696 31.3975 20.0793 30.2799 19.9401 30.0892C19.4361 29.3588 19.2448 30.027 18.8597 29.7599C18.471 29.4954 18.9939 29.0836 18.5434 28.9412C17.5945 28.6482 16.4205 28.8933 15.5012 29.0416C15.1307 29.1043 15.5072 29.7173 15.457 29.7416C14.7536 30.0462 13.8376 29.5231 13.7482 30.9213C12.4263 27.7246 13.3631 31.2713 12.2292 30.9696L12.2669 30.9572C12.254 30.9552 12.2408 30.9528 12.2274 30.9499C12.1425 30.9297 11.5899 29.7752 11.6205 29.2636L11.7426 29.2234C11.7532 29.1551 11.7731 29.0996 11.8045 29.0613C12.0703 28.7387 12.6919 29.1027 13.0579 28.6282C13.1393 28.5164 13.4259 26.8755 13.5003 26.765C14.0525 25.9001 14.6417 28.2796 14.702 28.4032C15.38 29.7417 15.8278 27.9859 16.0295 27.8393C16.8919 27.1704 17.7629 27.4131 18.5429 26.9761C19.0579 26.695 19.0222 25.0946 19.4789 25.1217C21.0446 25.2342 21.403 27.4715 22.9711 25.6589C23.3169 25.2831 23.2076 23.4912 24.2173 25.0193C24.2942 25.1158 24.9031 26.4914 25.5635 25.8324C25.6492 25.7491 25.7631 25.252 25.8591 25.2308C26.2108 25.1583 26.4658 25.2824 26.7262 25.4074L28.1973 26.1398C28.3371 26.2925 28.4876 26.4493 28.7554 26.548C29.3454 26.7643 30.1527 27.0574 30.6414 27.802C30.9434 28.2503 30.6796 29.4179 30.6396 29.7603C30.5201 30.691 31.9224 30.9799 31.3805 31.8545C30.7669 32.5835 29.3833 32.2651 29.1324 33.325C30.2274 33.1174 31.3614 32.9765 32.4888 32.8857C32.7003 32.8584 32.9114 32.8311 33.1217 32.8036C33.4036 34.784 33.0914 36.5774 33.1539 38.4288C33.1619 38.6579 33.8751 38.4236 33.9012 38.6749C34.0045 39.7415 33.4538 40.636 33.5537 41.7445C33.5994 42.2469 33.8313 42.8045 34.0199 43.3791C34.1715 43.6771 34.3103 43.9947 34.3479 44.3269C32.7875 44.5817 33.1313 45.9663 32.7628 46.9845C32.6378 47.3304 32.2468 47.2189 32.0598 47.4327C31.3523 48.2325 32.7537 48.1467 32.8867 48.4657C33.4146 49.8611 30.4966 49.0277 30.1471 50.1654C30.1326 50.2182 31.3279 51.5696 31.3704 51.7203C31.6923 52.6306 30.8082 51.6062 30.5236 51.9573C30.0003 52.5921 29.4301 52.8917 29.4511 53.8997C29.459 54.195 30.0612 55.2217 29.1362 55.2931C29.0148 55.303 28.5624 55.0166 28.5096 55.0483C27.6028 55.6213 29.0564 56.4533 29.2774 57.2166C29.3885 57.6018 29.0827 57.8226 28.6969 57.9548C28.3169 58.0892 27.8673 58.1244 27.6801 58.1146C26.6994 58.0648 27.5491 57.6187 27.4869 57.5541C26.7652 56.7918 26.6032 57.412 26.2751 57.7761C24.8414 56.9679 24.5795 57.5602 25.9385 58.1554C26.0889 58.2183 26.1612 57.8179 26.2751 57.7761C27.4301 58.9781 27.1405 59.8149 25.4119 59.6321C24.6036 59.5359 24.1706 58.7582 23.7052 59.8538C23.4851 60.3482 24.495 60.9017 24.4227 61.4738C24.2377 62.8005 22.4785 63.1207 21.8301 63.979C21.5903 64.2959 22.2975 64.4746 22.1459 64.7083C22.1218 64.7453 22.0962 64.7806 22.0693 64.8144C21.6552 65.3375 20.9557 65.4417 20.6239 66.0448C20.5922 66.1036 21.1424 66.4817 20.9868 66.6334C19.812 67.7919 18.476 68.3882 17.1795 69.4487C16.5543 69.9617 15.6515 71.1531 14.9374 71.6207C14.5439 71.8809 14.0635 72.0983 13.5634 72.2995C12.37 72.8292 11.1046 73.1754 10.3238 73.7886C9.57039 74.3696 10.0461 74.8427 9.87654 75.4277C9.78668 75.7346 9.5649 75.9045 9.33089 75.9634C9.21519 75.9923 9.08666 75.9988 9.04035 75.9484C9.03228 75.9137 8.98973 75.9029 9.21944 75.7243C9.27163 75.6815 9.39293 75.5975 9.56123 75.4645C9.62283 75.4138 9.80965 75.2733 10.032 75.0633C10.2735 74.7596 10.4869 74.8706 11.3151 73.244C11.6379 72.4247 12.0324 71.332 11.5153 69.499C10.9841 67.8031 9.79164 66.8631 9.10482 66.4703C8.26693 66.0031 7.81662 65.9372 7.48018 65.8625C7.1669 65.8068 7.09995 65.8101 6.96289 65.7996C6.84449 65.7932 6.75406 65.7933 6.67977 65.7955C7.0047 65.9617 6.857 66.1222 6.86281 66.2689C6.84184 66.4141 6.83809 66.5361 6.83913 66.5902C6.83724 66.5942 6.86214 66.6334 6.86693 66.7145C6.86933 66.7956 6.84292 66.9166 6.86309 67.0838C6.88928 67.7783 6.85016 66.5927 6.83913 66.5902C6.83649 66.666 6.82323 66.7498 6.95648 66.7631C7.07904 66.7791 7.30222 66.7136 7.3503 66.6301C7.40705 66.5381 7.15639 65.9739 7.1856 65.9382C7.92011 65.0858 9.16978 64.1922 10.6605 63.5549C10.6909 63.5498 11.0334 64.1485 11.101 64.1287C11.4453 64.0314 11.6652 63.8396 11.837 63.5841C12.1475 63.1197 12.2498 62.479 12.4869 61.9123C12.8563 61.033 13.4564 60.7951 14.5553 61.447C14.9589 60.958 15.9745 60.831 16.5732 60.7585C17.173 60.6857 16.3843 59.5982 16.4021 59.5501C16.9307 58.0253 18.0146 58.1114 19.1356 57.2552C19.6705 56.8517 20.471 55.8097 20.833 55.2154C20.9519 55.0219 21.097 54.9041 21.2385 54.7988C21.4422 54.6464 21.6433 54.5147 21.7472 54.2198C21.7714 54.152 21.2801 53.8069 21.2763 53.7764C21.0944 52.902 22.0227 54.0544 22.295 54.1386C23.2831 54.4416 23.8572 54.5487 23.9699 53.6931C24.0011 53.4907 22.6368 51.8242 22.7069 51.5243C22.8075 51.1283 23.329 51.6899 23.4187 51.2563C23.4267 51.2195 23.0466 50.9537 23.2056 50.7657C23.9396 49.8874 24.8579 48.9541 25.4552 47.8404C25.5379 47.6898 24.7916 47.5074 24.899 47.2858C25.3251 46.4068 25.8494 45.4616 26.5276 44.6285C26.6559 44.4692 26.7881 44.3168 26.9255 44.1706C27.144 43.9416 27.5123 44.3499 27.6787 44.3623C28.6891 44.4307 27.7608 43.2972 27.7807 43.2027C28.2277 40.9231 30.1091 39.9064 30.4051 37.7837C30.4207 37.6738 29.6158 36.6363 30.3051 36.5565C30.3952 36.5355 30.5092 36.5278 30.652 36.5366C30.7369 36.545 32.0609 36.6206 31.3564 36.0146C31.3116 35.9781 30.6219 35.9753 30.8162 35.6219C31.012 35.2627 30.7898 34.5435 31.6262 34.2327C31.8888 34.139 33.2249 34.0666 32.379 33.3068C32.3252 33.241 30.288 31.9802 31.8764 32.0528C32.1375 32.064 33.7581 32.4575 33.0473 31.6654C32.9079 31.5163 32.5036 31.6556 32.3345 31.3074C32.0719 30.78 32.617 30.2194 31.9648 29.5296C31.8501 29.4055 30.788 28.8388 31.678 28.5942C31.8175 28.5545 32.3569 28.7237 32.44 28.5429C32.7191 27.9366 32.659 27.2601 32.7483 26.5954C32.7899 26.2603 32.861 25.9428 32.997 25.6443C33.1574 25.292 34.0396 25.5386 34.305 25.1836C34.5709 24.8286 34.8427 24.1216 34.4435 23.7602C34.0441 23.4058 32.6058 23.7182 32.5018 23.2465C32.222 22.0104 32.2971 21.1906 32.3837 20.7605C32.2216 19.8492 32.0546 18.9564 31.77 18.1398C31.6598 17.8266 31.2935 18.2738 31.0978 17.839C30.358 16.1175 28.7216 14.426 29.0088 13.3231C29.1289 12.2688 30.19 12.3095 29.9924 11.6764C29.905 11.457 29.3149 11.9415 28.9837 12.3203C28.7564 12.4518 28.5843 12.5567 28.54 12.5483C27.178 12.311 26.848 11.2302 25.8674 10.9172C25.6671 10.855 25.5004 11.5373 25.3379 11.4808C24.7868 11.2974 24.4509 10.7788 24.0606 10.6584C23.8894 10.6086 23.7072 11.0911 23.5981 11.0007C23.3383 10.794 23.256 10.5449 23.2677 10.0531C23.2606 10.0066 23.4917 9.40164 23.3862 9.35461C23.3143 9.32281 23.2905 9.21073 23.2899 9.14515C22.8375 9.06614 22.3685 9.05323 21.9328 9.32335C21.6895 9.47571 21.7097 10.6499 21.179 9.85305C21.0691 9.68755 21.1484 8.2688 20.6033 9.51338C20.4964 9.719 19.6607 11.4146 19.1338 10.4015C18.9929 10.1337 18.5638 9.01408 18.3125 9.22659C18.2805 9.25958 18.4948 9.8703 18.2868 9.95712C17.5583 10.2525 16.799 10.3145 16.1901 10.6648C16.0323 10.7591 16.4351 11.333 16.207 11.4513C15.5831 11.7764 14.8816 11.86 14.4138 11.8747C14.2405 11.8786 14.081 11.351 14.0451 11.3031C13.3958 10.5627 13.9387 11.7494 13.9485 11.8324C13.948 11.841 13.9475 11.8493 13.9469 11.8574C13.5823 12.5807 12.8726 12.3673 12.5764 12.809C12.498 12.9284 12.965 13.3434 12.9793 13.4028C13.1338 13.9746 12.5623 13.007 12.3562 13.0232C11.7747 13.0691 11.5007 13.444 11.4041 13.7184C11.3708 13.8173 12.0156 14.1438 11.99 14.2132C11.9009 14.5385 11.8805 14.5413 11.6289 14.7575C11.5343 15.067 11.4304 15.3682 11.3161 15.6601C11.2105 15.9289 10.6821 15.6951 10.5507 15.7394C9.63038 16.0524 10.7735 16.7445 10.8784 16.8744C11.3537 17.4864 10.8554 17.6674 10.9284 18.129C11.0022 18.5647 11.065 18.9818 11.1198 19.2377C11.1459 19.362 11.1717 19.4458 11.1741 19.4154C11.1701 19.3805 11.1691 19.2427 10.9697 18.7732C10.9114 18.6577 11.0079 18.8843 11.1113 19.073C11.2196 19.276 11.3614 19.5168 11.5158 19.7578C11.8265 20.2437 12.198 20.7452 12.5769 21.1867C13.5519 22.315 14.5668 23.3282 15.7715 24.1777C16.7098 24.8214 17.6854 25.3802 18.7074 25.7444C18.864 25.8003 18.9888 25.0594 19.1235 25.0968C19.9731 25.3485 20.7048 25.5888 21.1625 25.6825C21.6237 25.795 21.7069 25.6687 21.1205 25.7624C21.0223 25.7855 20.9103 25.0781 20.7062 25.1129C20.6371 25.1257 20.5643 25.1467 20.4907 25.1758C20.6759 25.0199 20.907 24.9368 21.1672 24.9728C21.3205 24.9897 21.5602 25.558 21.7179 25.5561C22.0926 25.5471 22.3457 25.3592 22.3717 25.1408C22.3761 25.0542 21.7549 24.6979 21.7873 24.6408C21.8618 24.4658 21.7549 24.5609 21.81 24.5757C21.9672 23.5566 22.1374 22.5579 22.4724 21.5071C22.5146 21.3827 23.9139 20.9947 23.5791 20.7633C23.1834 20.8305 22.724 20.9365 22.3046 21.0235C22.0592 20.2786 21.8095 19.6421 21.5258 19.0753C21.4415 18.8866 21.5067 19.0205 21.8604 19.275C22.2086 19.5342 22.6974 19.67 22.7341 19.6304C22.5645 19.4668 21.0622 19.3193 20.6928 19.367C20.6541 19.3712 20.6193 19.3752 20.5872 19.3792C20.5133 19.3885 20.7504 20.124 20.637 20.1417C20.4445 20.1689 20.7333 20.1807 21.2932 19.8507C21.8551 19.5295 22.3144 18.94 22.3493 18.7366C22.1656 18.8971 21.9034 19.0987 21.5337 19.2988C21.4393 19.3517 20.1655 18.8958 20.2781 19.2519C20.2944 19.3168 20.3816 19.7821 20.6661 19.905C20.7087 19.9205 21.3379 19.9502 21.3444 20.0473C21.3662 20.4066 21.3529 20.6468 21.2896 20.9247C21.269 20.9981 21.2385 21.0252 21.1329 20.9198C21.0136 20.8142 20.873 20.5606 20.249 20.0043C19.6142 19.4991 19.8043 20.5715 19.3488 20.2456C18.9181 19.9523 18.1918 19.579 17.3524 19.4627C16.5146 19.3364 15.7486 19.4886 15.2953 19.6535C14.6731 19.8897 14.5831 20.0092 14.5343 20.0278C14.5006 20.0492 14.5663 19.9934 14.661 19.9147C14.8587 19.7526 15.1851 19.5035 15.6283 19.3331C16.4468 19.0014 17.1503 19.9577 18.321 20.3284C18.4867 20.3804 18.8554 19.9669 19.3892 20.3598C20.7315 21.3487 21.9754 22.7106 23.4261 23.74C23.7406 23.9596 23.8974 23.11 24.3338 24.0403C24.3636 24.102 24.249 24.7313 24.3991 25.0427C24.5036 25.2574 25.1406 25.5423 25.2247 25.8779C25.3064 26.2155 24.7254 26.034 24.7393 26.5245C24.746 27.026 25.46 27.3785 24.98 28.0632ZM19.2635 60.3793C20.0491 60.5538 18.5588 58.7266 18.5414 59.4844C18.5423 59.5232 19.2242 60.3713 19.2635 60.3793ZM31.2732 36.6646C30.2696 37.4056 31.8024 37.8459 32.5928 37.317C33.3781 36.7623 31.5756 36.4261 31.2732 36.6646ZM27.6064 29.4005C27.6761 30.5641 30.1557 28.3122 28.8815 28.0621C28.8079 28.0483 27.5987 29.3308 27.6064 29.4005ZM17.2059 22.0996C17.2317 22.1197 17.4982 21.882 17.4815 21.8528C17.0534 21.2157 16.55 21.6618 17.2059 22.0996ZM20.0632 28.3649C20.3198 28.8072 21.0265 28.2872 20.7196 27.7245C20.4568 27.2689 19.7324 27.8112 20.0632 28.3649ZM35.59 41.1233C35.6255 41.1306 35.7733 40.8806 35.5899 40.8041C34.9986 40.5607 34.999 40.9957 35.59 41.1233ZM8.66111 31.1536C10.2983 30.4948 12.2808 32.6623 10.5602 33.0965C10.2424 33.1824 10.8206 32.0048 10.3422 31.9521C9.44613 31.8679 9.75964 33.6498 8.63836 33.1716C8.43343 33.0838 8.56319 31.1857 8.66214 31.1488C8.6618 31.1504 8.66145 31.152 8.66111 31.1536ZM21.3194 62.3458C21.3474 62.3632 21.6715 62.1217 21.6581 62.092C21.3292 61.3868 20.6844 61.8663 21.3194 62.3458ZM40.6515 24.8737C40.7213 24.8566 40.8274 23.898 40.7643 23.8627C39.563 23.3377 39.3508 25.215 40.6515 24.8737ZM13.0789 64.4292C12.9327 63.5731 13.2659 63.1779 14.1399 63.6763C13.779 63.9161 13.442 64.1886 13.0789 64.4292Z" fill="#1340FF"/>
</svg>
