<svg width="458" height="411" viewBox="0 0 458 411" fill="none" xmlns="http://www.w3.org/2000/svg">
<rect width="400" height="400" transform="translate(58 0.479492)" fill="#F5F5F5"/>
<path d="M122.688 90.5995H116.784V105.479H114.72V90.5995H108.816V88.9195H122.688V90.5995ZM134.613 96.1435C134.661 96.7915 134.661 97.2955 134.661 98.3275V105.479H132.597V98.4715C132.597 97.8235 132.597 97.2955 132.549 96.6475C132.429 95.1595 131.613 94.0075 129.645 94.0555C127.653 94.1035 125.973 95.5435 125.973 99.8875V105.479H123.909V87.7195H125.973V94.9435L126.765 93.4795C127.845 92.6395 128.781 92.4235 130.077 92.4235C132.861 92.4235 134.421 93.9115 134.613 96.1435ZM148.575 98.7595C148.575 98.9515 148.575 99.2875 148.527 99.7435H139.311C139.503 103.103 141.087 104.231 142.959 104.231C144.615 104.231 145.959 103.199 146.247 101.375H148.407C147.903 104.447 145.479 105.815 142.863 105.815C139.551 105.815 137.079 103.655 137.079 99.1675C137.079 95.0395 139.647 92.4235 143.127 92.4235C146.631 92.4235 148.575 95.0395 148.575 98.7595ZM143.079 94.0075C141.063 94.0075 139.575 95.4475 139.335 98.1595H146.487C146.295 95.5195 145.167 94.0075 143.079 94.0075ZM162.727 92.3995C163.111 92.3995 163.375 92.4235 163.663 92.4955V95.1595C160.903 94.9675 159.535 96.1915 159.535 99.6235V105.479H156.223V92.7115H159.535V95.0395L160.543 93.2635C161.167 92.6875 162.007 92.3995 162.727 92.3995ZM176.815 98.8315C176.815 99.1435 176.815 99.5275 176.767 99.9595H167.695C167.911 102.647 169.111 103.487 170.647 103.487C172.063 103.487 173.095 102.695 173.311 101.327H176.623C175.975 104.303 173.575 105.815 170.575 105.815C167.071 105.815 164.359 103.631 164.359 99.1435C164.359 95.2315 166.927 92.3755 170.839 92.3755C174.751 92.3755 176.815 95.3515 176.815 98.8315ZM170.695 94.7035C169.159 94.7035 168.079 95.6875 167.791 97.7995H173.407C173.191 95.7835 172.279 94.7035 170.695 94.7035ZM183.658 92.3755C186.706 92.3755 188.434 94.0795 188.722 96.4075H185.41C185.194 95.2315 184.546 94.5595 183.442 94.5595C182.458 94.5595 181.93 95.1355 181.93 95.9275C181.93 96.8875 182.722 97.3915 184.834 97.9195C187.45 98.5915 188.986 99.6475 188.986 101.999C188.986 104.567 186.658 105.815 183.73 105.815C180.634 105.815 178.45 104.471 178.09 101.591H181.402C181.666 102.983 182.626 103.631 183.778 103.631C184.834 103.631 185.65 103.175 185.65 102.239C185.65 101.255 184.81 100.703 182.602 100.151C180.226 99.5515 178.594 98.5195 178.594 96.3115C178.594 93.8635 180.61 92.3755 183.658 92.3755ZM198.612 92.3755C202.188 92.3755 204.3 95.0875 204.3 98.8555C204.3 103.463 201.468 105.815 198.18 105.815C197.124 105.815 195.828 105.551 195.18 105.095L194.34 103.775V110.183H191.028V92.7115H194.34V94.6555L195.3 93.2635C196.02 92.6875 197.316 92.3755 198.612 92.3755ZM197.532 103.487C199.452 103.487 200.868 102.023 200.868 99.0715C200.868 96.4555 199.62 94.7035 197.652 94.7035C195.828 94.7035 194.34 95.8315 194.34 98.9515V99.5515C194.34 102.455 195.996 103.487 197.532 103.487ZM212.21 92.3755C216.458 92.3755 218.834 95.2075 218.834 99.0955C218.834 102.959 216.458 105.815 212.21 105.815C207.962 105.815 205.586 102.959 205.586 99.0955C205.586 95.2075 207.962 92.3755 212.21 92.3755ZM212.21 103.487C214.202 103.487 215.402 101.831 215.402 99.0955C215.402 96.3355 214.202 94.7035 212.21 94.7035C210.218 94.7035 209.018 96.3355 209.018 99.0955C209.018 101.831 210.218 103.487 212.21 103.487ZM232.908 95.9515C232.98 96.5995 233.004 97.2475 233.004 98.2795V105.479H229.692V98.7355C229.692 98.2075 229.692 97.6075 229.644 96.9595C229.548 95.6155 228.804 94.7035 227.196 94.7035C225.588 94.7035 224.316 96.0955 224.316 99.6475V105.479H221.004V92.7115H224.316V94.7755L225.3 93.2635C226.212 92.6155 227.148 92.3755 228.372 92.3755C231.084 92.3755 232.644 93.7195 232.908 95.9515ZM240.47 92.3755C243.518 92.3755 245.246 94.0795 245.534 96.4075H242.222C242.006 95.2315 241.358 94.5595 240.254 94.5595C239.27 94.5595 238.742 95.1355 238.742 95.9275C238.742 96.8875 239.534 97.3915 241.646 97.9195C244.262 98.5915 245.798 99.6475 245.798 101.999C245.798 104.567 243.47 105.815 240.542 105.815C237.446 105.815 235.262 104.471 234.902 101.591H238.214C238.478 102.983 239.438 103.631 240.59 103.631C241.646 103.631 242.462 103.175 242.462 102.239C242.462 101.255 241.622 100.703 239.414 100.151C237.038 99.5515 235.406 98.5195 235.406 96.3115C235.406 93.8635 237.422 92.3755 240.47 92.3755ZM249.496 87.9595C250.576 87.9595 251.32 88.6795 251.32 89.7115C251.32 90.7675 250.576 91.4635 249.496 91.4635C248.416 91.4635 247.672 90.7675 247.672 89.7115C247.672 88.6795 248.416 87.9595 249.496 87.9595ZM251.152 105.479H247.84V92.7115H251.152V105.479ZM266.311 92.7115L261.367 105.479H257.671L252.703 92.7115H256.375L259.591 102.983L262.735 92.7115H266.311ZM278.979 98.8315C278.979 99.1435 278.979 99.5275 278.931 99.9595H269.859C270.075 102.647 271.275 103.487 272.811 103.487C274.227 103.487 275.259 102.695 275.475 101.327H278.787C278.139 104.303 275.739 105.815 272.739 105.815C269.235 105.815 266.523 103.631 266.523 99.1435C266.523 95.2315 269.091 92.3755 273.003 92.3755C276.915 92.3755 278.979 95.3515 278.979 98.8315ZM272.859 94.7035C271.323 94.7035 270.243 95.6875 269.955 97.7995H275.571C275.355 95.7835 274.443 94.7035 272.859 94.7035ZM293.166 95.9515C293.238 96.5995 293.262 97.2475 293.262 98.2795V105.479H289.95V98.7355C289.95 98.2075 289.95 97.6075 289.902 96.9595C289.806 95.6155 289.062 94.7035 287.454 94.7035C285.846 94.7035 284.574 96.0955 284.574 99.6475V105.479H281.262V92.7115H284.574V94.7755L285.558 93.2635C286.47 92.6155 287.406 92.3755 288.63 92.3755C291.342 92.3755 292.902 93.7195 293.166 95.9515ZM307.76 98.8315C307.76 99.1435 307.76 99.5275 307.712 99.9595H298.64C298.856 102.647 300.056 103.487 301.592 103.487C303.008 103.487 304.04 102.695 304.256 101.327H307.568C306.92 104.303 304.52 105.815 301.52 105.815C298.016 105.815 295.304 103.631 295.304 99.1435C295.304 95.2315 297.872 92.3755 301.784 92.3755C305.696 92.3755 307.76 95.3515 307.76 98.8315ZM301.64 94.7035C300.104 94.7035 299.024 95.6875 298.736 97.7995H304.352C304.136 95.7835 303.224 94.7035 301.64 94.7035ZM314.603 92.3755C317.651 92.3755 319.379 94.0795 319.667 96.4075H316.355C316.139 95.2315 315.491 94.5595 314.387 94.5595C313.403 94.5595 312.875 95.1355 312.875 95.9275C312.875 96.8875 313.667 97.3915 315.779 97.9195C318.395 98.5915 319.931 99.6475 319.931 101.999C319.931 104.567 317.603 105.815 314.675 105.815C311.579 105.815 309.395 104.471 309.035 101.591H312.347C312.611 102.983 313.571 103.631 314.723 103.631C315.779 103.631 316.595 103.175 316.595 102.239C316.595 101.255 315.755 100.703 313.547 100.151C311.171 99.5515 309.539 98.5195 309.539 96.3115C309.539 93.8635 311.555 92.3755 314.603 92.3755ZM326.533 92.3755C329.581 92.3755 331.309 94.0795 331.597 96.4075H328.285C328.069 95.2315 327.421 94.5595 326.317 94.5595C325.333 94.5595 324.805 95.1355 324.805 95.9275C324.805 96.8875 325.597 97.3915 327.709 97.9195C330.325 98.5915 331.861 99.6475 331.861 101.999C331.861 104.567 329.533 105.815 326.605 105.815C323.509 105.815 321.325 104.471 320.965 101.591H324.277C324.541 102.983 325.501 103.631 326.653 103.631C327.709 103.631 328.525 103.175 328.525 102.239C328.525 101.255 327.685 100.703 325.477 100.151C323.101 99.5515 321.469 98.5195 321.469 96.3115C321.469 93.8635 323.485 92.3755 326.533 92.3755ZM344.602 92.4235C348.922 92.4235 350.914 95.5195 350.914 99.1195C350.914 102.695 348.922 105.815 344.602 105.815C340.282 105.815 338.29 102.695 338.29 99.1195C338.29 95.5195 340.282 92.4235 344.602 92.4235ZM344.602 104.231C347.17 104.231 348.658 102.095 348.658 99.1195C348.658 96.1195 347.17 94.0075 344.602 94.0075C342.034 94.0075 340.546 96.1195 340.546 99.1195C340.546 102.095 342.034 104.231 344.602 104.231ZM355.641 90.3115C355.593 90.6475 355.569 91.2475 355.569 91.6075V92.8555H358.185V94.4395H355.569V105.479H353.505V94.4395H352.137V92.8555H353.505V91.7995C353.505 91.3195 353.529 90.6955 353.577 90.2635C353.793 88.4155 355.041 87.3835 356.937 87.3835C357.465 87.3835 357.969 87.4315 358.401 87.5035V89.2075C356.841 88.9195 355.809 89.2795 355.641 90.3115ZM368.021 94.4395V101.759C368.021 102.191 368.021 102.407 368.045 102.743C368.141 103.967 368.645 104.231 370.253 104.039V105.551C369.653 105.647 369.077 105.671 368.501 105.671C366.917 105.671 366.101 105.023 365.981 103.439C365.957 103.103 365.957 102.575 365.957 101.855V94.4395H364.253V92.8555H365.957V89.9035H368.021V92.8555H370.397V94.4395H368.021ZM383.777 96.1435C383.825 96.7915 383.825 97.2955 383.825 98.3275V105.479H381.761V98.4715C381.761 97.8235 381.761 97.2955 381.713 96.6475C381.593 95.1595 380.777 94.0075 378.809 94.0555C376.817 94.1035 375.137 95.5435 375.137 99.8875V105.479H373.073V87.7195H375.137V94.9435L375.929 93.4795C377.009 92.6395 377.945 92.4235 379.241 92.4235C382.025 92.4235 383.585 93.9115 383.777 96.1435ZM397.739 98.7595C397.739 98.9515 397.739 99.2875 397.691 99.7435H388.475C388.667 103.103 390.251 104.231 392.123 104.231C393.779 104.231 395.123 103.199 395.411 101.375H397.571C397.067 104.447 394.643 105.815 392.027 105.815C388.715 105.815 386.243 103.655 386.243 99.1675C386.243 95.0395 388.811 92.4235 392.291 92.4235C395.795 92.4235 397.739 95.0395 397.739 98.7595ZM392.243 94.0075C390.227 94.0075 388.739 95.4475 388.499 98.1595H395.651C395.459 95.5195 394.331 94.0075 392.243 94.0075ZM112.248 122.439V129.759C112.248 130.191 112.248 130.407 112.272 130.743C112.368 131.967 112.872 132.231 114.48 132.039V133.551C113.88 133.647 113.304 133.671 112.728 133.671C111.144 133.671 110.328 133.023 110.208 131.439C110.184 131.103 110.184 130.575 110.184 129.855V122.439H108.48V120.855H110.184V117.903H112.248V120.855H114.624V122.439H112.248ZM127.435 126.759C127.435 126.951 127.435 127.287 127.387 127.743H118.171C118.363 131.103 119.947 132.231 121.819 132.231C123.475 132.231 124.819 131.199 125.107 129.375H127.267C126.763 132.447 124.339 133.815 121.723 133.815C118.411 133.815 115.939 131.655 115.939 127.167C115.939 123.039 118.507 120.423 121.987 120.423C125.491 120.423 127.435 123.039 127.435 126.759ZM121.939 122.007C119.923 122.007 118.435 123.447 118.195 126.159H125.347C125.155 123.519 124.027 122.007 121.939 122.007ZM137.463 133.479L137.247 131.655L136.551 133.023C135.687 133.623 134.583 133.815 133.359 133.815C131.055 133.815 129.255 132.543 129.255 130.191C129.255 127.311 131.415 125.823 136.407 125.823H137.223V125.487C137.223 124.935 137.223 124.431 137.175 123.951C137.079 122.775 136.407 122.007 134.703 122.007C132.975 122.007 132.111 122.943 131.967 124.695H129.807C129.999 121.983 131.895 120.423 134.703 120.423C137.727 120.423 138.999 121.695 139.215 123.783C139.263 124.287 139.287 124.911 139.287 125.463V130.239C139.287 131.199 139.335 132.063 139.527 133.479H137.463ZM134.055 132.231C135.975 132.231 137.223 130.959 137.223 128.655V127.359C133.719 127.095 131.511 127.839 131.511 130.023C131.511 131.559 132.495 132.231 134.055 132.231ZM159.837 123.519C159.933 124.167 159.957 124.671 159.957 125.703V133.479H157.893V126.663C157.893 125.535 157.869 124.839 157.797 124.191C157.605 122.751 156.693 122.055 155.253 122.055C153.645 122.055 152.469 123.327 152.469 127.191V133.479H150.405V126.663C150.405 125.535 150.381 124.839 150.309 124.191C150.117 122.751 149.205 122.055 147.765 122.055C146.157 122.055 144.981 123.327 144.981 127.191V133.479H142.917V120.759H144.981V122.607L145.797 121.167C146.445 120.639 147.357 120.423 148.485 120.423C150.429 120.423 151.677 121.407 152.157 122.799L153.285 121.167C153.933 120.639 154.845 120.423 155.973 120.423C158.253 120.423 159.549 121.767 159.837 123.519ZM185.548 120.759L181.492 133.479H179.044L176.212 122.775L173.38 133.479H170.932L166.876 120.759H169.252L172.204 131.511L174.988 120.759H177.556L180.388 131.439L183.34 120.759H185.548ZM194.767 133.479L194.551 131.655L193.855 133.023C192.991 133.623 191.887 133.815 190.663 133.815C188.359 133.815 186.559 132.543 186.559 130.191C186.559 127.311 188.719 125.823 193.711 125.823H194.527V125.487C194.527 124.935 194.527 124.431 194.479 123.951C194.383 122.775 193.711 122.007 192.007 122.007C190.279 122.007 189.415 122.943 189.271 124.695H187.111C187.303 121.983 189.199 120.423 192.007 120.423C195.031 120.423 196.303 121.695 196.519 123.783C196.567 124.287 196.591 124.911 196.591 125.463V130.239C196.591 131.199 196.639 132.063 196.831 133.479H194.767ZM191.359 132.231C193.279 132.231 194.527 130.959 194.527 128.655V127.359C191.023 127.095 188.815 127.839 188.815 130.023C188.815 131.559 189.799 132.231 191.359 132.231ZM203.917 120.423C206.773 120.423 208.333 122.055 208.597 124.383H206.437C206.149 122.895 205.237 122.007 203.749 122.007C202.309 122.007 201.637 122.799 201.637 123.903C201.637 125.175 202.693 125.679 204.421 126.135C207.349 126.903 208.741 128.055 208.741 130.215C208.741 132.615 206.701 133.815 204.013 133.815C201.397 133.815 199.405 132.615 199.021 129.735H201.181C201.517 131.583 202.693 132.231 204.157 132.231C205.525 132.231 206.629 131.607 206.629 130.383C206.629 129.159 205.765 128.511 203.629 127.935C201.349 127.311 199.525 126.375 199.525 124.143C199.525 121.815 201.301 120.423 203.917 120.423ZM227.745 126.831C227.745 127.143 227.745 127.527 227.697 127.959H218.625C218.841 130.647 220.041 131.487 221.577 131.487C222.993 131.487 224.025 130.695 224.241 129.327H227.553C226.905 132.303 224.505 133.815 221.505 133.815C218.001 133.815 215.289 131.631 215.289 127.143C215.289 123.231 217.857 120.375 221.769 120.375C225.681 120.375 227.745 123.351 227.745 126.831ZM221.625 122.703C220.089 122.703 219.009 123.687 218.721 125.799H224.337C224.121 123.783 223.209 122.703 221.625 122.703ZM236.33 127.023L240.794 133.479H236.93L234.314 129.063L231.626 133.479H227.834L232.346 126.999L228.002 120.711H231.866L234.41 124.959L236.93 120.711H240.746L236.33 127.023ZM247.337 120.375C250.793 120.375 252.929 122.487 253.169 125.319H249.905C249.593 123.471 248.633 122.703 247.265 122.703C245.585 122.703 244.385 124.071 244.385 126.975C244.385 130.143 245.585 131.487 247.241 131.487C248.537 131.487 249.497 130.671 249.833 129.063H253.145C252.593 132.207 250.241 133.815 247.049 133.815C243.569 133.815 240.953 131.607 240.953 127.191C240.953 122.823 243.833 120.375 247.337 120.375ZM266.862 126.831C266.862 127.143 266.862 127.527 266.814 127.959H257.742C257.958 130.647 259.158 131.487 260.694 131.487C262.11 131.487 263.142 130.695 263.358 129.327H266.67C266.022 132.303 263.622 133.815 260.622 133.815C257.118 133.815 254.406 131.631 254.406 127.143C254.406 123.231 256.974 120.375 260.886 120.375C264.798 120.375 266.862 123.351 266.862 126.831ZM260.742 122.703C259.206 122.703 258.126 123.687 257.838 125.799H263.454C263.238 123.783 262.326 122.703 260.742 122.703ZM276.729 120.375C280.305 120.375 282.417 123.087 282.417 126.855C282.417 131.463 279.585 133.815 276.297 133.815C275.241 133.815 273.945 133.551 273.297 133.095L272.457 131.775V138.183H269.145V120.711H272.457V122.655L273.417 121.263C274.137 120.687 275.433 120.375 276.729 120.375ZM275.649 131.487C277.569 131.487 278.985 130.023 278.985 127.071C278.985 124.455 277.737 122.703 275.769 122.703C273.945 122.703 272.457 123.831 272.457 126.951V127.551C272.457 130.455 274.113 131.487 275.649 131.487ZM288.527 122.991V128.895C288.527 129.327 288.527 129.687 288.551 130.023C288.647 131.271 289.103 131.559 290.951 131.415V133.575C290.207 133.695 289.511 133.743 288.767 133.743C286.295 133.743 285.407 132.927 285.263 131.127C285.215 130.551 285.215 129.999 285.215 129.279V122.991H283.343V120.807H285.215V117.663H288.527V120.807H291.167V122.991H288.527ZM294.895 115.959C295.975 115.959 296.719 116.679 296.719 117.711C296.719 118.767 295.975 119.463 294.895 119.463C293.815 119.463 293.071 118.767 293.071 117.711C293.071 116.679 293.815 115.959 294.895 115.959ZM296.551 133.479H293.239V120.711H296.551V133.479ZM305.374 120.375C309.622 120.375 311.998 123.207 311.998 127.095C311.998 130.959 309.622 133.815 305.374 133.815C301.126 133.815 298.75 130.959 298.75 127.095C298.75 123.207 301.126 120.375 305.374 120.375ZM305.374 131.487C307.366 131.487 308.566 129.831 308.566 127.095C308.566 124.335 307.366 122.703 305.374 122.703C303.382 122.703 302.182 124.335 302.182 127.095C302.182 129.831 303.382 131.487 305.374 131.487ZM326.072 123.951C326.144 124.599 326.168 125.247 326.168 126.279V133.479H322.856V126.735C322.856 126.207 322.856 125.607 322.808 124.959C322.712 123.615 321.968 122.703 320.36 122.703C318.752 122.703 317.48 124.095 317.48 127.647V133.479H314.168V120.711H317.48V122.775L318.464 121.263C319.376 120.615 320.312 120.375 321.536 120.375C324.248 120.375 325.808 121.719 326.072 123.951ZM336.491 133.479L336.251 131.607L335.627 132.975C334.739 133.575 333.659 133.815 332.459 133.815C330.251 133.815 328.354 132.519 328.354 130.095C328.354 127.287 330.755 125.703 335.387 125.703H336.203V125.439C336.203 125.055 336.203 124.671 336.155 124.239C336.059 123.351 335.483 122.703 334.187 122.703C332.867 122.703 332.147 123.471 332.051 124.863L328.835 124.887C328.931 122.007 331.259 120.375 334.307 120.375C337.883 120.375 339.227 121.935 339.419 124.143C339.467 124.743 339.491 125.415 339.491 126.111V130.239C339.491 131.199 339.539 132.063 339.731 133.479H336.491ZM333.73 131.487C335.075 131.487 336.203 130.551 336.203 128.775V127.743C333.562 127.551 331.787 128.151 331.787 129.831C331.787 130.959 332.555 131.487 333.73 131.487ZM345.767 115.839V129.303C345.767 129.807 345.767 130.143 345.791 130.479C345.863 131.127 346.151 131.343 347.279 131.271V133.551C346.631 133.623 345.983 133.647 345.239 133.647C343.607 133.647 342.575 133.047 342.503 131.391C342.455 130.815 342.455 130.215 342.455 129.375V115.839H345.767ZM350.166 130.743C351.054 130.743 351.702 131.391 351.702 132.279C351.702 133.167 351.054 133.815 350.166 133.815C349.278 133.815 348.63 133.167 348.63 132.279C348.63 131.391 349.278 130.743 350.166 130.743ZM122.688 146.599H116.784V161.479H114.72V146.599H108.816V144.919H122.688V146.599ZM134.613 152.143C134.661 152.791 134.661 153.295 134.661 154.327V161.479H132.597V154.471C132.597 153.823 132.597 153.295 132.549 152.647C132.429 151.159 131.613 150.007 129.645 150.055C127.653 150.103 125.973 151.543 125.973 155.887V161.479H123.909V143.719H125.973V150.943L126.765 149.479C127.845 148.639 128.781 148.423 130.077 148.423C132.861 148.423 134.421 149.911 134.613 152.143ZM148.575 154.759C148.575 154.951 148.575 155.287 148.527 155.743H139.311C139.503 159.103 141.087 160.231 142.959 160.231C144.615 160.231 145.959 159.199 146.247 157.375H148.407C147.903 160.447 145.479 161.815 142.863 161.815C139.551 161.815 137.079 159.655 137.079 155.167C137.079 151.039 139.647 148.423 143.127 148.423C146.631 148.423 148.575 151.039 148.575 154.759ZM143.079 150.007C141.063 150.007 139.575 151.447 139.335 154.159H146.487C146.295 151.519 145.167 150.007 143.079 150.007ZM161.418 148.759L156.186 162.559C155.154 165.247 153.786 166.519 151.722 166.519C151.266 166.519 150.978 166.519 150.666 166.471V164.791C150.978 164.815 151.194 164.815 151.41 164.815C152.682 164.815 153.522 164.263 154.17 162.583L154.338 162.127L149.274 148.759H151.602L155.394 159.943L159.162 148.759H161.418ZM170.982 150.439V157.759C170.982 158.191 170.982 158.407 171.006 158.743C171.102 159.967 171.606 160.231 173.214 160.039V161.551C172.614 161.647 172.038 161.671 171.462 161.671C169.878 161.671 169.062 161.023 168.942 159.439C168.918 159.103 168.918 158.575 168.918 157.855V150.439H167.214V148.855H168.918V145.903H170.982V148.855H173.358V150.439H170.982ZM180.985 148.423C185.305 148.423 187.297 151.519 187.297 155.119C187.297 158.695 185.305 161.815 180.985 161.815C176.665 161.815 174.673 158.695 174.673 155.119C174.673 151.519 176.665 148.423 180.985 148.423ZM180.985 160.231C183.553 160.231 185.041 158.095 185.041 155.119C185.041 152.119 183.553 150.007 180.985 150.007C178.417 150.007 176.929 152.119 176.929 155.119C176.929 158.095 178.417 160.231 180.985 160.231ZM195.048 148.423C199.368 148.423 201.36 151.519 201.36 155.119C201.36 158.695 199.368 161.815 195.048 161.815C190.728 161.815 188.736 158.695 188.736 155.119C188.736 151.519 190.728 148.423 195.048 148.423ZM195.048 160.231C197.616 160.231 199.104 158.095 199.104 155.119C199.104 152.119 197.616 150.007 195.048 150.007C192.48 150.007 190.992 152.119 190.992 155.119C190.992 158.095 192.48 160.231 195.048 160.231ZM211.75 161.479L207.118 156.103L205.918 157.423V161.479H203.854V143.839H205.918V155.167L211.846 148.759H214.486L208.558 154.759L214.558 161.479H211.75ZM232.685 148.759V158.359C232.685 159.151 232.685 160.135 232.661 160.831C232.541 164.551 230.285 166.519 226.613 166.519C222.989 166.519 221.189 165.007 220.925 162.319L220.901 162.079H222.989L223.013 162.295C223.181 163.855 224.429 164.935 226.613 164.935C229.133 164.935 230.501 163.495 230.597 161.047C230.621 160.447 230.621 160.039 230.621 159.655V159.439L229.661 160.807C228.941 161.407 227.597 161.815 226.301 161.815C222.581 161.815 220.517 159.031 220.517 155.311C220.517 150.607 223.445 148.423 226.733 148.423C227.789 148.423 229.133 148.735 229.781 149.263L230.621 150.511V148.759H232.685ZM226.613 160.231C228.725 160.231 230.621 158.887 230.621 155.239V154.543C230.621 151.255 228.557 150.007 226.733 150.007C224.501 150.007 222.773 151.735 222.773 155.071C222.773 157.951 224.069 160.231 226.613 160.231ZM241.331 148.471C241.667 148.471 241.955 148.519 242.195 148.639V150.199C240.035 150.055 238.403 151.327 238.403 154.231V161.479H236.339V148.759H238.403V150.751L239.555 149.047C240.083 148.687 240.73 148.471 241.331 148.471ZM254.419 154.759C254.419 154.951 254.419 155.287 254.371 155.743H245.155C245.347 159.103 246.931 160.231 248.803 160.231C250.459 160.231 251.803 159.199 252.091 157.375H254.251C253.747 160.447 251.323 161.815 248.707 161.815C245.395 161.815 242.923 159.655 242.923 155.167C242.923 151.039 245.491 148.423 248.971 148.423C252.475 148.423 254.419 151.039 254.419 154.759ZM248.923 150.007C246.907 150.007 245.419 151.447 245.179 154.159H252.331C252.139 151.519 251.011 150.007 248.923 150.007ZM264.447 161.479L264.231 159.655L263.535 161.023C262.671 161.623 261.567 161.815 260.343 161.815C258.039 161.815 256.239 160.543 256.239 158.191C256.239 155.311 258.399 153.823 263.391 153.823H264.207V153.487C264.207 152.935 264.207 152.431 264.159 151.951C264.063 150.775 263.391 150.007 261.687 150.007C259.959 150.007 259.095 150.943 258.951 152.695H256.791C256.983 149.983 258.879 148.423 261.687 148.423C264.711 148.423 265.983 149.695 266.199 151.783C266.247 152.287 266.271 152.911 266.271 153.463V158.239C266.271 159.199 266.319 160.063 266.511 161.479H264.447ZM261.039 160.231C262.959 160.231 264.207 158.959 264.207 156.655V155.359C260.703 155.095 258.495 155.839 258.495 158.023C258.495 159.559 259.479 160.231 261.039 160.231ZM272.373 150.439V157.759C272.373 158.191 272.373 158.407 272.397 158.743C272.493 159.967 272.997 160.231 274.605 160.039V161.551C274.005 161.647 273.429 161.671 272.853 161.671C271.269 161.671 270.453 161.023 270.333 159.439C270.309 159.103 270.309 158.575 270.309 157.855V150.439H268.605V148.855H270.309V145.903H272.373V148.855H274.749V150.439H272.373ZM283.636 144.583C284.38 144.583 284.956 145.159 284.956 145.903C284.956 146.647 284.38 147.223 283.636 147.223C282.892 147.223 282.316 146.647 282.316 145.903C282.316 145.159 282.892 144.583 283.636 144.583ZM284.668 161.479H282.604V148.759H284.668V161.479ZM299.027 152.143C299.075 152.791 299.075 153.295 299.075 154.327V161.479H297.011V154.471C297.011 153.823 297.011 153.295 296.963 152.647C296.843 151.159 296.027 150.055 294.059 150.055C292.067 150.055 290.387 151.543 290.387 155.887V161.479H288.323V148.759H290.387V150.943L291.179 149.479C292.259 148.639 293.195 148.423 294.491 148.423C297.275 148.423 298.835 149.911 299.027 152.143ZM303.581 144.583C304.325 144.583 304.901 145.159 304.901 145.903C304.901 146.647 304.325 147.223 303.581 147.223C302.837 147.223 302.261 146.647 302.261 145.903C302.261 145.159 302.837 144.583 303.581 144.583ZM304.613 161.479H302.549V148.759H304.613V161.479ZM310.74 150.439V157.759C310.74 158.191 310.74 158.407 310.764 158.743C310.86 159.967 311.364 160.231 312.972 160.039V161.551C312.372 161.647 311.796 161.671 311.22 161.671C309.636 161.671 308.82 161.023 308.7 159.439C308.676 159.103 308.676 158.575 308.676 157.855V150.439H306.972V148.855H308.676V145.903H310.74V148.855H313.116V150.439H310.74ZM316.824 144.583C317.568 144.583 318.144 145.159 318.144 145.903C318.144 146.647 317.568 147.223 316.824 147.223C316.08 147.223 315.504 146.647 315.504 145.903C315.504 145.159 316.08 144.583 316.824 144.583ZM317.856 161.479H315.792V148.759H317.856V161.479ZM328.806 161.479L328.59 159.655L327.894 161.023C327.03 161.623 325.926 161.815 324.702 161.815C322.398 161.815 320.598 160.543 320.598 158.191C320.598 155.311 322.758 153.823 327.75 153.823H328.566V153.487C328.566 152.935 328.566 152.431 328.518 151.951C328.422 150.775 327.75 150.007 326.046 150.007C324.318 150.007 323.454 150.943 323.31 152.695H321.15C321.342 149.983 323.238 148.423 326.046 148.423C329.07 148.423 330.342 149.695 330.558 151.783C330.606 152.287 330.63 152.911 330.63 153.463V158.239C330.63 159.199 330.678 160.063 330.87 161.479H328.806ZM325.398 160.231C327.318 160.231 328.566 158.959 328.566 156.655V155.359C325.062 155.095 322.854 155.839 322.854 158.023C322.854 159.559 323.838 160.231 325.398 160.231ZM336.732 150.439V157.759C336.732 158.191 336.732 158.407 336.756 158.743C336.852 159.967 337.356 160.231 338.964 160.039V161.551C338.364 161.647 337.788 161.671 337.212 161.671C335.628 161.671 334.812 161.023 334.692 159.439C334.668 159.103 334.668 158.575 334.668 157.855V150.439H332.964V148.855H334.668V145.903H336.732V148.855H339.108V150.439H336.732ZM342.816 144.583C343.56 144.583 344.136 145.159 344.136 145.903C344.136 146.647 343.56 147.223 342.816 147.223C342.072 147.223 341.496 146.647 341.496 145.903C341.496 145.159 342.072 144.583 342.816 144.583ZM343.848 161.479H341.784V148.759H343.848V161.479ZM357.919 148.759L353.095 161.479H350.575L345.751 148.759H348.031L351.919 159.967L355.735 148.759H357.919ZM370.083 154.759C370.083 154.951 370.083 155.287 370.035 155.743H360.819C361.011 159.103 362.595 160.231 364.467 160.231C366.123 160.231 367.467 159.199 367.755 157.375H369.915C369.411 160.447 366.987 161.815 364.371 161.815C361.059 161.815 358.587 159.655 358.587 155.167C358.587 151.039 361.155 148.423 364.635 148.423C368.139 148.423 370.083 151.039 370.083 154.759ZM364.587 150.007C362.571 150.007 361.083 151.447 360.843 154.159H367.995C367.803 151.519 366.675 150.007 364.587 150.007ZM380.467 150.439V157.759C380.467 158.191 380.467 158.407 380.491 158.743C380.587 159.967 381.091 160.231 382.699 160.039V161.551C382.099 161.647 381.523 161.671 380.947 161.671C379.363 161.671 378.547 161.023 378.427 159.439C378.403 159.103 378.403 158.575 378.403 157.855V150.439H376.699V148.855H378.403V145.903H380.467V148.855H382.843V150.439H380.467ZM390.47 148.423C394.79 148.423 396.782 151.519 396.782 155.119C396.782 158.695 394.79 161.815 390.47 161.815C386.15 161.815 384.158 158.695 384.158 155.119C384.158 151.519 386.15 148.423 390.47 148.423ZM390.47 160.231C393.038 160.231 394.526 158.095 394.526 155.119C394.526 152.119 393.038 150.007 390.47 150.007C387.902 150.007 386.414 152.119 386.414 155.119C386.414 158.095 387.902 160.231 390.47 160.231ZM120.336 176.759V189.479H118.272V187.319L117.48 188.807C116.4 189.599 115.464 189.815 114.168 189.815C111.528 189.815 109.992 188.327 109.704 186.575C109.608 185.927 109.584 185.423 109.584 184.391V176.759H111.648V184.007C111.648 184.415 111.672 185.111 111.744 185.759C111.936 187.199 112.968 188.183 114.696 188.183C116.688 188.183 118.272 186.695 118.272 182.351V176.759H120.336ZM134.683 180.143C134.731 180.791 134.731 181.295 134.731 182.327V189.479H132.667V182.471C132.667 181.823 132.667 181.295 132.619 180.647C132.499 179.159 131.683 178.055 129.715 178.055C127.723 178.055 126.043 179.543 126.043 183.887V189.479H123.979V176.759H126.043V178.943L126.835 177.479C127.915 176.639 128.851 176.423 130.147 176.423C132.931 176.423 134.491 177.911 134.683 180.143ZM149.318 171.839V189.479H147.254V187.439L146.294 188.807C145.574 189.407 144.23 189.815 142.934 189.815C139.214 189.815 137.15 187.031 137.15 183.311C137.15 178.607 140.078 176.423 143.366 176.423C144.422 176.423 145.766 176.735 146.414 177.263L147.254 178.511V171.839H149.318ZM143.246 188.231C145.358 188.231 147.254 186.887 147.254 183.239V182.543C147.254 179.255 145.19 178.007 143.366 178.007C141.134 178.007 139.406 179.735 139.406 183.071C139.406 185.951 140.702 188.231 143.246 188.231ZM163.411 182.759C163.411 182.951 163.411 183.287 163.363 183.743H154.147C154.339 187.103 155.923 188.231 157.795 188.231C159.451 188.231 160.795 187.199 161.083 185.375H163.243C162.739 188.447 160.315 189.815 157.699 189.815C154.387 189.815 151.915 187.655 151.915 183.167C151.915 179.039 154.483 176.423 157.963 176.423C161.467 176.423 163.411 179.039 163.411 182.759ZM157.915 178.007C155.899 178.007 154.411 179.447 154.171 182.159H161.323C161.131 179.519 160.003 178.007 157.915 178.007ZM171.135 176.471C171.471 176.471 171.759 176.519 171.999 176.639V178.199C169.839 178.055 168.207 179.327 168.207 182.231V189.479H166.143V176.759H168.207V178.751L169.359 177.047C169.887 176.687 170.535 176.471 171.135 176.471ZM177.761 176.423C180.617 176.423 182.177 178.055 182.441 180.383H180.281C179.993 178.895 179.081 178.007 177.593 178.007C176.153 178.007 175.481 178.799 175.481 179.903C175.481 181.175 176.537 181.679 178.265 182.135C181.193 182.903 182.585 184.055 182.585 186.215C182.585 188.615 180.545 189.815 177.857 189.815C175.241 189.815 173.249 188.615 172.865 185.735H175.025C175.361 187.583 176.537 188.231 178.001 188.231C179.369 188.231 180.473 187.607 180.473 186.383C180.473 185.159 179.609 184.511 177.473 183.935C175.193 183.311 173.369 182.375 173.369 180.143C173.369 177.815 175.145 176.423 177.761 176.423ZM187.553 178.439V185.759C187.553 186.191 187.553 186.407 187.577 186.743C187.673 187.967 188.177 188.231 189.785 188.039V189.551C189.185 189.647 188.609 189.671 188.033 189.671C186.449 189.671 185.633 189.023 185.513 187.439C185.489 187.103 185.489 186.575 185.489 185.855V178.439H183.785V176.855H185.489V173.903H187.553V176.855H189.929V178.439H187.553ZM199.9 189.479L199.684 187.655L198.988 189.023C198.124 189.623 197.02 189.815 195.796 189.815C193.492 189.815 191.692 188.543 191.692 186.191C191.692 183.311 193.852 181.823 198.844 181.823H199.66V181.487C199.66 180.935 199.66 180.431 199.612 179.951C199.516 178.775 198.844 178.007 197.14 178.007C195.412 178.007 194.548 178.943 194.404 180.695H192.244C192.436 177.983 194.332 176.423 197.14 176.423C200.164 176.423 201.436 177.695 201.652 179.783C201.7 180.287 201.724 180.911 201.724 181.463V186.239C201.724 187.199 201.772 188.063 201.964 189.479H199.9ZM196.492 188.231C198.412 188.231 199.66 186.959 199.66 184.655V183.359C196.156 183.095 193.948 183.839 193.948 186.023C193.948 187.559 194.932 188.231 196.492 188.231ZM216.058 180.143C216.106 180.791 216.106 181.295 216.106 182.327V189.479H214.042V182.471C214.042 181.823 214.042 181.295 213.994 180.647C213.874 179.159 213.058 178.055 211.09 178.055C209.098 178.055 207.418 179.543 207.418 183.887V189.479H205.354V176.759H207.418V178.943L208.21 177.479C209.29 176.639 210.226 176.423 211.522 176.423C214.306 176.423 215.866 177.911 216.058 180.143ZM230.693 171.839V189.479H228.629V187.439L227.669 188.807C226.949 189.407 225.605 189.815 224.309 189.815C220.589 189.815 218.525 187.031 218.525 183.311C218.525 178.607 221.453 176.423 224.741 176.423C225.797 176.423 227.141 176.735 227.789 177.263L228.629 178.511V171.839H230.693ZM224.621 188.231C226.733 188.231 228.629 186.887 228.629 183.239V182.543C228.629 179.255 226.565 178.007 224.741 178.007C222.509 178.007 220.781 179.735 220.781 183.071C220.781 185.951 222.077 188.231 224.621 188.231ZM244.782 176.423C249.102 176.423 251.094 179.519 251.094 183.119C251.094 186.695 249.102 189.815 244.782 189.815C240.462 189.815 238.47 186.695 238.47 183.119C238.47 179.519 240.462 176.423 244.782 176.423ZM244.782 188.231C247.35 188.231 248.838 186.095 248.838 183.119C248.838 180.119 247.35 178.007 244.782 178.007C242.214 178.007 240.726 180.119 240.726 183.119C240.726 186.095 242.214 188.231 244.782 188.231ZM264.148 176.759V189.479H262.085V187.319L261.293 188.807C260.213 189.599 259.277 189.815 257.98 189.815C255.34 189.815 253.805 188.327 253.517 186.575C253.421 185.927 253.396 185.423 253.396 184.391V176.759H255.461V184.007C255.461 184.415 255.485 185.111 255.557 185.759C255.749 187.199 256.781 188.183 258.509 188.183C260.501 188.183 262.085 186.695 262.085 182.351V176.759H264.148ZM272.784 176.471C273.12 176.471 273.408 176.519 273.648 176.639V178.199C271.488 178.055 269.856 179.327 269.856 182.231V189.479H267.792V176.759H269.856V178.751L271.008 177.047C271.536 176.687 272.184 176.471 272.784 176.471ZM287.277 176.423C290.997 176.423 293.061 179.207 293.061 182.927C293.061 187.631 290.133 189.815 286.845 189.815C285.789 189.815 284.445 189.503 283.797 188.975L282.957 187.727V189.479H280.893V171.839H282.957V178.799L283.917 177.431C284.637 176.831 285.981 176.423 287.277 176.423ZM286.845 188.231C289.077 188.231 290.805 186.503 290.805 183.167C290.805 180.287 289.509 178.007 286.965 178.007C284.853 178.007 282.957 179.351 282.957 182.999V183.695C282.957 186.983 285.021 188.231 286.845 188.231ZM300.557 176.471C300.893 176.471 301.181 176.519 301.421 176.639V178.199C299.261 178.055 297.629 179.327 297.629 182.231V189.479H295.565V176.759H297.629V178.751L298.781 177.047C299.309 176.687 299.957 176.471 300.557 176.471ZM310.783 189.479L310.567 187.655L309.871 189.023C309.007 189.623 307.903 189.815 306.679 189.815C304.375 189.815 302.575 188.543 302.575 186.191C302.575 183.311 304.735 181.823 309.727 181.823H310.543V181.487C310.543 180.935 310.543 180.431 310.495 179.951C310.399 178.775 309.727 178.007 308.023 178.007C306.295 178.007 305.431 178.943 305.287 180.695H303.127C303.319 177.983 305.215 176.423 308.023 176.423C311.047 176.423 312.319 177.695 312.535 179.783C312.583 180.287 312.607 180.911 312.607 181.463V186.239C312.607 187.199 312.655 188.063 312.847 189.479H310.783ZM307.375 188.231C309.295 188.231 310.543 186.959 310.543 184.655V183.359C307.039 183.095 304.831 183.839 304.831 186.023C304.831 187.559 305.815 188.231 307.375 188.231ZM326.941 180.143C326.989 180.791 326.989 181.295 326.989 182.327V189.479H324.925V182.471C324.925 181.823 324.925 181.295 324.877 180.647C324.757 179.159 323.941 178.055 321.973 178.055C319.981 178.055 318.301 179.543 318.301 183.887V189.479H316.237V176.759H318.301V178.943L319.093 177.479C320.173 176.639 321.109 176.423 322.405 176.423C325.189 176.423 326.749 177.911 326.941 180.143ZM341.576 171.839V189.479H339.512V187.439L338.552 188.807C337.832 189.407 336.488 189.815 335.192 189.815C331.472 189.815 329.408 187.031 329.408 183.311C329.408 178.607 332.336 176.423 335.624 176.423C336.68 176.423 338.024 176.735 338.672 177.263L339.512 178.511V171.839H341.576ZM335.504 188.231C337.616 188.231 339.512 186.887 339.512 183.239V182.543C339.512 179.255 337.448 178.007 335.624 178.007C333.392 178.007 331.664 179.735 331.664 183.071C331.664 185.951 332.96 188.231 335.504 188.231ZM346.813 187.319L344.653 192.359H342.709L344.581 187.079H346.813V187.319ZM117.072 217.479L116.856 215.655L116.16 217.023C115.296 217.623 114.192 217.815 112.968 217.815C110.664 217.815 108.864 216.543 108.864 214.191C108.864 211.311 111.024 209.823 116.016 209.823H116.832V209.487C116.832 208.935 116.832 208.431 116.784 207.951C116.688 206.775 116.016 206.007 114.312 206.007C112.584 206.007 111.72 206.943 111.576 208.695H109.416C109.608 205.983 111.504 204.423 114.312 204.423C117.336 204.423 118.608 205.695 118.824 207.783C118.872 208.287 118.896 208.911 118.896 209.463V214.239C118.896 215.199 118.944 216.063 119.136 217.479H117.072ZM113.664 216.231C115.584 216.231 116.832 214.959 116.832 212.655V211.359C113.328 211.095 111.12 211.839 111.12 214.023C111.12 215.559 112.104 216.231 113.664 216.231ZM133.638 199.839V217.479H131.574V215.439L130.614 216.807C129.894 217.407 128.55 217.815 127.254 217.815C123.534 217.815 121.47 215.031 121.47 211.311C121.47 206.607 124.398 204.423 127.686 204.423C128.742 204.423 130.086 204.735 130.734 205.263L131.574 206.511V199.839H133.638ZM127.566 216.231C129.678 216.231 131.574 214.887 131.574 211.239V210.543C131.574 207.255 129.51 206.007 127.686 206.007C125.454 206.007 123.726 207.735 123.726 211.071C123.726 213.951 125.022 216.231 127.566 216.231ZM148.404 199.839V217.479H146.34V215.439L145.38 216.807C144.66 217.407 143.316 217.815 142.02 217.815C138.3 217.815 136.236 215.031 136.236 211.311C136.236 206.607 139.164 204.423 142.452 204.423C143.508 204.423 144.852 204.735 145.5 205.263L146.34 206.511V199.839H148.404ZM142.332 216.231C144.444 216.231 146.34 214.887 146.34 211.239V210.543C146.34 207.255 144.276 206.007 142.452 206.007C140.22 206.007 138.492 207.735 138.492 211.071C138.492 213.951 139.788 216.231 142.332 216.231ZM157.049 204.471C157.385 204.471 157.673 204.519 157.913 204.639V206.199C155.753 206.055 154.121 207.327 154.121 210.231V217.479H152.057V204.759H154.121V206.751L155.273 205.047C155.801 204.687 156.449 204.471 157.049 204.471ZM170.138 210.759C170.138 210.951 170.138 211.287 170.09 211.743H160.874C161.066 215.103 162.65 216.231 164.522 216.231C166.178 216.231 167.522 215.199 167.81 213.375H169.97C169.466 216.447 167.042 217.815 164.426 217.815C161.114 217.815 158.642 215.655 158.642 211.167C158.642 207.039 161.21 204.423 164.69 204.423C168.194 204.423 170.138 207.039 170.138 210.759ZM164.642 206.007C162.626 206.007 161.138 207.447 160.898 210.159H168.05C167.858 207.519 166.73 206.007 164.642 206.007ZM176.566 204.423C179.422 204.423 180.982 206.055 181.246 208.383H179.086C178.798 206.895 177.886 206.007 176.398 206.007C174.958 206.007 174.286 206.799 174.286 207.903C174.286 209.175 175.342 209.679 177.07 210.135C179.998 210.903 181.39 212.055 181.39 214.215C181.39 216.615 179.35 217.815 176.662 217.815C174.046 217.815 172.054 216.615 171.67 213.735H173.83C174.166 215.583 175.342 216.231 176.806 216.231C178.174 216.231 179.278 215.607 179.278 214.383C179.278 213.159 178.414 212.511 176.278 211.935C173.998 211.311 172.174 210.375 172.174 208.143C172.174 205.815 173.95 204.423 176.566 204.423ZM187.581 204.423C190.437 204.423 191.997 206.055 192.261 208.383H190.101C189.813 206.895 188.901 206.007 187.413 206.007C185.973 206.007 185.301 206.799 185.301 207.903C185.301 209.175 186.357 209.679 188.085 210.135C191.013 210.903 192.405 212.055 192.405 214.215C192.405 216.615 190.365 217.815 187.677 217.815C185.061 217.815 183.069 216.615 182.685 213.735H184.845C185.181 215.583 186.357 216.231 187.821 216.231C189.189 216.231 190.293 215.607 190.293 214.383C190.293 213.159 189.429 212.511 187.293 211.935C185.013 211.311 183.189 210.375 183.189 208.143C183.189 205.815 184.965 204.423 187.581 204.423ZM205.337 204.423C209.657 204.423 211.649 207.519 211.649 211.119C211.649 214.695 209.657 217.815 205.337 217.815C201.017 217.815 199.025 214.695 199.025 211.119C199.025 207.519 201.017 204.423 205.337 204.423ZM205.337 216.231C207.905 216.231 209.393 214.095 209.393 211.119C209.393 208.119 207.905 206.007 205.337 206.007C202.769 206.007 201.281 208.119 201.281 211.119C201.281 214.095 202.769 216.231 205.337 216.231ZM224.703 204.759V217.479H222.639V215.319L221.847 216.807C220.767 217.599 219.831 217.815 218.535 217.815C215.895 217.815 214.359 216.327 214.071 214.575C213.975 213.927 213.951 213.423 213.951 212.391V204.759H216.015V212.007C216.015 212.415 216.039 213.111 216.111 213.759C216.303 215.199 217.335 216.183 219.063 216.183C221.055 216.183 222.639 214.695 222.639 210.351V204.759H224.703ZM233.338 204.471C233.674 204.471 233.962 204.519 234.202 204.639V206.199C232.042 206.055 230.41 207.327 230.41 210.231V217.479H228.346V204.759H230.41V206.751L231.562 205.047C232.09 204.687 232.738 204.471 233.338 204.471ZM247.832 204.423C251.552 204.423 253.616 207.207 253.616 210.927C253.616 215.631 250.688 217.815 247.4 217.815C246.344 217.815 245 217.503 244.352 216.975L243.512 215.727V222.183H241.448V204.759H243.512V206.799L244.472 205.431C245.192 204.831 246.536 204.423 247.832 204.423ZM247.4 216.231C249.632 216.231 251.36 214.503 251.36 211.167C251.36 208.287 250.064 206.007 247.52 206.007C245.408 206.007 243.512 207.351 243.512 210.999V211.695C243.512 214.983 245.576 216.231 247.4 216.231ZM263.416 217.479L263.2 215.655L262.504 217.023C261.64 217.623 260.536 217.815 259.312 217.815C257.008 217.815 255.208 216.543 255.208 214.191C255.208 211.311 257.368 209.823 262.36 209.823H263.176V209.487C263.176 208.935 263.176 208.431 263.128 207.951C263.032 206.775 262.36 206.007 260.656 206.007C258.928 206.007 258.064 206.943 257.92 208.695H255.76C255.952 205.983 257.848 204.423 260.656 204.423C263.68 204.423 264.952 205.695 265.168 207.783C265.216 208.287 265.24 208.911 265.24 209.463V214.239C265.24 215.199 265.288 216.063 265.48 217.479H263.416ZM260.008 216.231C261.928 216.231 263.176 214.959 263.176 212.655V211.359C259.672 211.095 257.464 211.839 257.464 214.023C257.464 215.559 258.448 216.231 260.008 216.231ZM269.902 200.583C270.646 200.583 271.222 201.159 271.222 201.903C271.222 202.647 270.646 203.223 269.902 203.223C269.158 203.223 268.582 202.647 268.582 201.903C268.582 201.159 269.158 200.583 269.902 200.583ZM270.934 217.479H268.87V204.759H270.934V217.479ZM285.293 208.143C285.341 208.791 285.341 209.295 285.341 210.327V217.479H283.277V210.471C283.277 209.823 283.277 209.295 283.229 208.647C283.109 207.159 282.293 206.055 280.325 206.055C278.333 206.055 276.653 207.543 276.653 211.887V217.479H274.589V204.759H276.653V206.943L277.445 205.479C278.525 204.639 279.461 204.423 280.757 204.423C283.541 204.423 285.101 205.911 285.293 208.143ZM300.379 204.423C304.099 204.423 306.163 207.207 306.163 210.927C306.163 215.631 303.235 217.815 299.947 217.815C298.891 217.815 297.547 217.503 296.899 216.975L296.059 215.727V222.183H293.995V204.759H296.059V206.799L297.019 205.431C297.739 204.831 299.083 204.423 300.379 204.423ZM299.947 216.231C302.179 216.231 303.907 214.503 303.907 211.167C303.907 208.287 302.611 206.007 300.067 206.007C297.955 206.007 296.059 207.351 296.059 210.999V211.695C296.059 214.983 298.123 216.231 299.947 216.231ZM313.923 204.423C318.243 204.423 320.235 207.519 320.235 211.119C320.235 214.695 318.243 217.815 313.923 217.815C309.603 217.815 307.611 214.695 307.611 211.119C307.611 207.519 309.603 204.423 313.923 204.423ZM313.923 216.231C316.491 216.231 317.979 214.095 317.979 211.119C317.979 208.119 316.491 206.007 313.923 206.007C311.355 206.007 309.867 208.119 309.867 211.119C309.867 214.095 311.355 216.231 313.923 216.231ZM323.761 200.583C324.505 200.583 325.081 201.159 325.081 201.903C325.081 202.647 324.505 203.223 323.761 203.223C323.017 203.223 322.441 202.647 322.441 201.903C322.441 201.159 323.017 200.583 323.761 200.583ZM324.793 217.479H322.729V204.759H324.793V217.479ZM339.152 208.143C339.2 208.791 339.2 209.295 339.2 210.327V217.479H337.136V210.471C337.136 209.823 337.136 209.295 337.088 208.647C336.968 207.159 336.152 206.055 334.184 206.055C332.192 206.055 330.512 207.543 330.512 211.887V217.479H328.448V204.759H330.512V206.943L331.304 205.479C332.384 204.639 333.32 204.423 334.616 204.423C337.4 204.423 338.96 205.911 339.152 208.143ZM345.146 206.439V213.759C345.146 214.191 345.146 214.407 345.17 214.743C345.266 215.967 345.77 216.231 347.378 216.039V217.551C346.778 217.647 346.202 217.671 345.626 217.671C344.042 217.671 343.226 217.023 343.106 215.439C343.082 215.103 343.082 214.575 343.082 213.855V206.439H341.378V204.855H343.082V201.903H345.146V204.855H347.522V206.439H345.146ZM353.894 204.423C356.75 204.423 358.31 206.055 358.574 208.383H356.414C356.126 206.895 355.214 206.007 353.726 206.007C352.286 206.007 351.614 206.799 351.614 207.903C351.614 209.175 352.67 209.679 354.398 210.135C357.326 210.903 358.718 212.055 358.718 214.215C358.718 216.615 356.678 217.815 353.99 217.815C351.374 217.815 349.382 216.615 348.998 213.735H351.158C351.494 215.583 352.67 216.231 354.134 216.231C355.502 216.231 356.606 215.607 356.606 214.383C356.606 213.159 355.742 212.511 353.606 211.935C351.326 211.311 349.502 210.375 349.502 208.143C349.502 205.815 351.278 204.423 353.894 204.423ZM362.798 215.319L360.638 220.359H358.693L360.566 215.079H362.798V215.319ZM117.072 245.479L116.856 243.655L116.16 245.023C115.296 245.623 114.192 245.815 112.968 245.815C110.664 245.815 108.864 244.543 108.864 242.191C108.864 239.311 111.024 237.823 116.016 237.823H116.832V237.487C116.832 236.935 116.832 236.431 116.784 235.951C116.688 234.775 116.016 234.007 114.312 234.007C112.584 234.007 111.72 234.943 111.576 236.695H109.416C109.608 233.983 111.504 232.423 114.312 232.423C117.336 232.423 118.608 233.695 118.824 235.783C118.872 236.287 118.896 236.911 118.896 237.463V242.239C118.896 243.199 118.944 244.063 119.136 245.479H117.072ZM113.664 244.231C115.584 244.231 116.832 242.959 116.832 240.655V239.359C113.328 239.095 111.12 239.839 111.12 242.023C111.12 243.559 112.104 244.231 113.664 244.231ZM133.23 236.143C133.278 236.791 133.278 237.295 133.278 238.327V245.479H131.214V238.471C131.214 237.823 131.214 237.295 131.166 236.647C131.046 235.159 130.23 234.055 128.262 234.055C126.27 234.055 124.59 235.543 124.59 239.887V245.479H122.526V232.759H124.59V234.943L125.382 233.479C126.462 232.639 127.398 232.423 128.694 232.423C131.478 232.423 133.038 233.911 133.23 236.143ZM147.865 227.839V245.479H145.801V243.439L144.841 244.807C144.121 245.407 142.777 245.815 141.481 245.815C137.761 245.815 135.697 243.031 135.697 239.311C135.697 234.607 138.625 232.423 141.913 232.423C142.969 232.423 144.313 232.735 144.961 233.263L145.801 234.511V227.839H147.865ZM141.793 244.231C143.905 244.231 145.801 242.887 145.801 239.239V238.543C145.801 235.255 143.737 234.007 141.913 234.007C139.681 234.007 137.953 235.735 137.953 239.071C137.953 241.951 139.249 244.231 141.793 244.231ZM175.394 235.543C175.49 236.191 175.514 236.839 175.514 237.871V245.479H172.202V238.831C172.202 238.087 172.178 237.391 172.106 236.743C171.938 235.423 171.218 234.703 169.946 234.703C168.458 234.703 167.618 235.975 167.618 238.927V245.479H164.33V238.831C164.33 238.087 164.306 237.391 164.234 236.743C164.066 235.423 163.322 234.703 162.05 234.703C160.562 234.703 159.746 235.975 159.746 238.927V245.479H156.434V232.711H159.746V234.655L160.682 233.119C161.402 232.615 162.242 232.375 163.394 232.375C165.482 232.375 166.802 233.407 167.306 234.799L168.554 233.119C169.274 232.615 170.138 232.375 171.29 232.375C173.714 232.375 175.106 233.791 175.394 235.543ZM190.01 238.831C190.01 239.143 190.01 239.527 189.962 239.959H180.89C181.106 242.647 182.306 243.487 183.842 243.487C185.258 243.487 186.29 242.695 186.506 241.327H189.818C189.17 244.303 186.77 245.815 183.77 245.815C180.266 245.815 177.554 243.631 177.554 239.143C177.554 235.231 180.122 232.375 184.034 232.375C187.946 232.375 190.01 235.351 190.01 238.831ZM183.89 234.703C182.354 234.703 181.274 235.687 180.986 237.799H186.602C186.386 235.783 185.474 234.703 183.89 234.703ZM203.885 238.831C203.885 239.143 203.885 239.527 203.837 239.959H194.765C194.981 242.647 196.181 243.487 197.717 243.487C199.133 243.487 200.165 242.695 200.381 241.327H203.693C203.045 244.303 200.645 245.815 197.645 245.815C194.141 245.815 191.429 243.631 191.429 239.143C191.429 235.231 193.997 232.375 197.909 232.375C201.821 232.375 203.885 235.351 203.885 238.831ZM197.765 234.703C196.229 234.703 195.149 235.687 194.861 237.799H200.477C200.261 235.783 199.349 234.703 197.765 234.703ZM210.128 234.991V240.895C210.128 241.327 210.128 241.687 210.152 242.023C210.248 243.271 210.704 243.559 212.552 243.415V245.575C211.808 245.695 211.112 245.743 210.368 245.743C207.896 245.743 207.008 244.927 206.864 243.127C206.816 242.551 206.816 241.999 206.816 241.279V234.991H204.944V232.807H206.816V229.663H210.128V232.807H212.768V234.991H210.128ZM225.264 232.375C229.512 232.375 231.888 235.207 231.888 239.095C231.888 242.959 229.512 245.815 225.264 245.815C221.016 245.815 218.64 242.959 218.64 239.095C218.64 235.207 221.016 232.375 225.264 232.375ZM225.264 243.487C227.256 243.487 228.456 241.831 228.456 239.095C228.456 236.335 227.256 234.703 225.264 234.703C223.272 234.703 222.072 236.335 222.072 239.095C222.072 241.831 223.272 243.487 225.264 243.487ZM245.843 232.711V245.479H242.531V243.319L241.547 244.951C240.611 245.575 239.699 245.815 238.475 245.815C235.835 245.815 234.251 244.327 233.963 242.575C233.867 241.927 233.843 241.279 233.843 240.247V232.711H237.155V239.551C237.155 239.959 237.179 240.655 237.251 241.303C237.419 242.623 238.187 243.463 239.723 243.463C241.379 243.463 242.531 242.095 242.531 239.215V232.711H245.843ZM255.399 232.399C255.783 232.399 256.047 232.423 256.335 232.495V235.159C253.575 234.967 252.207 236.191 252.207 239.623V245.479H248.895V232.711H252.207V235.039L253.215 233.263C253.839 232.687 254.679 232.399 255.399 232.399ZM274.58 235.951C274.652 236.599 274.676 237.247 274.676 238.279V245.479H271.364V238.735C271.364 238.207 271.364 237.607 271.316 236.959C271.22 235.615 270.476 234.703 268.868 234.703C267.26 234.703 265.988 236.095 265.988 239.647V245.479H262.676V232.711H265.988V234.775L266.972 233.263C267.884 232.615 268.82 232.375 270.044 232.375C272.756 232.375 274.316 233.719 274.58 235.951ZM289.174 238.831C289.174 239.143 289.174 239.527 289.126 239.959H280.054C280.27 242.647 281.47 243.487 283.006 243.487C284.422 243.487 285.454 242.695 285.67 241.327H288.982C288.334 244.303 285.934 245.815 282.934 245.815C279.43 245.815 276.718 243.631 276.718 239.143C276.718 235.231 279.286 232.375 283.198 232.375C287.11 232.375 289.174 235.351 289.174 238.831ZM283.054 234.703C281.518 234.703 280.438 235.687 280.15 237.799H285.766C285.55 235.783 284.638 234.703 283.054 234.703ZM303.049 238.831C303.049 239.143 303.049 239.527 303.001 239.959H293.929C294.145 242.647 295.345 243.487 296.881 243.487C298.297 243.487 299.329 242.695 299.545 241.327H302.857C302.209 244.303 299.809 245.815 296.809 245.815C293.305 245.815 290.593 243.631 290.593 239.143C290.593 235.231 293.161 232.375 297.073 232.375C300.985 232.375 303.049 235.351 303.049 238.831ZM296.929 234.703C295.393 234.703 294.313 235.687 294.025 237.799H299.641C299.425 235.783 298.513 234.703 296.929 234.703ZM317.74 227.839V245.479H314.428V243.511L313.468 244.927C312.748 245.479 311.452 245.815 310.156 245.815C306.58 245.815 304.468 243.103 304.468 239.335C304.468 234.703 307.3 232.375 310.588 232.375C311.644 232.375 312.94 232.639 313.588 233.095L314.428 234.415V227.839H317.74ZM311.116 243.487C312.94 243.487 314.428 242.359 314.428 239.239V238.615C314.428 235.735 312.772 234.703 311.236 234.703C309.316 234.703 307.9 236.167 307.9 239.119C307.9 241.735 309.148 243.487 311.116 243.487ZM325.361 232.375C328.409 232.375 330.137 234.079 330.425 236.407H327.113C326.897 235.231 326.249 234.559 325.145 234.559C324.161 234.559 323.633 235.135 323.633 235.927C323.633 236.887 324.425 237.391 326.537 237.919C329.153 238.591 330.689 239.647 330.689 241.999C330.689 244.567 328.361 245.815 325.433 245.815C322.337 245.815 320.153 244.471 319.793 241.591H323.105C323.369 242.983 324.329 243.631 325.481 243.631C326.537 243.631 327.353 243.175 327.353 242.239C327.353 241.255 326.513 240.703 324.305 240.151C321.929 239.551 320.297 238.519 320.297 236.311C320.297 233.863 322.313 232.375 325.361 232.375ZM333.643 242.743C334.531 242.743 335.179 243.391 335.179 244.279C335.179 245.167 334.531 245.815 333.643 245.815C332.755 245.815 332.107 245.167 332.107 244.279C332.107 243.391 332.755 242.743 333.643 242.743Z" fill="#231F20"/>
<path d="M303.264 319.935L302.258 330.95C302.206 331.465 302.18 331.803 302.18 331.966C302.18 332.226 302.228 332.425 302.326 332.562C302.45 332.75 302.616 332.89 302.824 332.981C303.039 333.073 303.397 333.118 303.898 333.118L303.791 333.479H298.576L298.684 333.118H298.908C299.331 333.118 299.676 333.027 299.943 332.845C300.132 332.721 300.279 332.516 300.383 332.229C300.454 332.028 300.523 331.552 300.588 330.804L300.744 329.124H296.955L295.607 330.95C295.301 331.36 295.109 331.657 295.031 331.839C294.953 332.015 294.914 332.181 294.914 332.337C294.914 332.545 294.999 332.724 295.168 332.874C295.337 333.024 295.617 333.105 296.008 333.118L295.9 333.479H291.984L292.092 333.118C292.573 333.099 292.997 332.939 293.361 332.64C293.732 332.334 294.282 331.686 295.012 330.696L302.922 319.935H303.264ZM301.33 323.187L297.492 328.411H300.822L301.33 323.187ZM309.601 324.642L308.303 329.085C309.52 327.269 310.451 326.074 311.096 325.501C311.747 324.928 312.372 324.642 312.971 324.642C313.296 324.642 313.563 324.749 313.771 324.964C313.986 325.179 314.094 325.459 314.094 325.804C314.094 326.194 313.999 326.715 313.81 327.366L312.619 331.478C312.482 331.953 312.414 332.243 312.414 332.347C312.414 332.438 312.44 332.516 312.492 332.581C312.544 332.64 312.6 332.669 312.658 332.669C312.736 332.669 312.831 332.627 312.941 332.542C313.286 332.269 313.664 331.852 314.074 331.292L314.377 331.478C313.771 332.343 313.198 332.962 312.658 333.333C312.281 333.587 311.942 333.714 311.642 333.714C311.402 333.714 311.21 333.639 311.066 333.489C310.923 333.346 310.851 333.151 310.851 332.903C310.851 332.591 310.962 332.054 311.184 331.292L312.316 327.366C312.46 326.878 312.531 326.497 312.531 326.224C312.531 326.093 312.489 325.989 312.404 325.911C312.32 325.826 312.215 325.784 312.092 325.784C311.909 325.784 311.691 325.862 311.437 326.019C310.956 326.312 310.454 326.797 309.934 327.474C309.413 328.144 308.863 329.004 308.283 330.052C307.977 330.605 307.723 331.211 307.521 331.868L307.033 333.479H305.568L307.346 327.366C307.554 326.631 307.658 326.188 307.658 326.038C307.658 325.895 307.6 325.771 307.482 325.667C307.372 325.556 307.232 325.501 307.062 325.501C306.984 325.501 306.848 325.514 306.652 325.54L306.281 325.599L306.223 325.247L309.601 324.642ZM319.66 320.765C319.934 320.765 320.165 320.859 320.353 321.048C320.542 321.237 320.637 321.468 320.637 321.741C320.637 322.008 320.539 322.239 320.344 322.435C320.155 322.623 319.927 322.718 319.66 322.718C319.393 322.718 319.162 322.623 318.967 322.435C318.778 322.239 318.684 322.008 318.684 321.741C318.684 321.468 318.778 321.237 318.967 321.048C319.156 320.859 319.387 320.765 319.66 320.765ZM319.787 324.642L317.853 331.487C317.723 331.95 317.658 332.226 317.658 332.317C317.658 332.422 317.687 332.506 317.746 332.571C317.811 332.636 317.886 332.669 317.971 332.669C318.068 332.669 318.185 332.617 318.322 332.513C318.693 332.22 319.068 331.803 319.445 331.263L319.787 331.487C319.344 332.164 318.823 332.734 318.225 333.196C317.782 333.541 317.359 333.714 316.955 333.714C316.688 333.714 316.47 333.636 316.301 333.479C316.131 333.317 316.047 333.115 316.047 332.874C316.047 332.633 316.128 332.233 316.291 331.673L317.56 327.298C317.769 326.582 317.873 326.132 317.873 325.95C317.873 325.807 317.821 325.69 317.717 325.599C317.619 325.507 317.482 325.462 317.307 325.462C317.163 325.462 316.867 325.498 316.418 325.569V325.188L319.787 324.642ZM323.947 324.642C324.169 325.019 324.322 325.374 324.406 325.706C324.491 326.032 324.575 326.676 324.66 327.64L325.09 332.444C325.48 331.976 326.047 331.233 326.789 330.218C327.147 329.723 327.59 329.049 328.117 328.196C328.436 327.675 328.631 327.311 328.703 327.103C328.742 326.998 328.762 326.891 328.762 326.78C328.762 326.709 328.739 326.65 328.693 326.604C328.648 326.559 328.527 326.507 328.332 326.448C328.143 326.383 327.984 326.269 327.853 326.106C327.73 325.937 327.668 325.745 327.668 325.53C327.668 325.263 327.746 325.049 327.902 324.886C328.059 324.723 328.254 324.642 328.488 324.642C328.775 324.642 329.019 324.762 329.221 325.003C329.422 325.237 329.523 325.563 329.523 325.979C329.523 326.494 329.348 327.083 328.996 327.747C328.644 328.405 327.967 329.417 326.965 330.784C325.962 332.151 324.748 333.642 323.322 335.257C322.339 336.37 321.61 337.07 321.135 337.356C320.659 337.649 320.253 337.796 319.914 337.796C319.712 337.796 319.536 337.718 319.387 337.562C319.23 337.412 319.152 337.236 319.152 337.034C319.152 336.78 319.26 336.549 319.475 336.341C319.683 336.132 319.911 336.028 320.158 336.028C320.288 336.028 320.396 336.058 320.48 336.116C320.532 336.149 320.591 336.24 320.656 336.39C320.715 336.546 320.77 336.65 320.822 336.702C320.855 336.735 320.894 336.751 320.939 336.751C320.978 336.751 321.047 336.718 321.144 336.653C321.503 336.432 321.919 336.08 322.394 335.599C323.019 334.961 323.482 334.44 323.781 334.036L323.234 327.845C323.143 326.823 323.006 326.201 322.824 325.979C322.642 325.758 322.336 325.647 321.906 325.647C321.769 325.647 321.525 325.667 321.174 325.706L321.086 325.345L323.947 324.642ZM335.588 319.593L332.248 331.214C332.085 331.793 332.004 332.148 332.004 332.278C332.004 332.376 332.033 332.457 332.092 332.522C332.157 332.588 332.235 332.62 332.326 332.62C332.45 332.62 332.583 332.565 332.726 332.454C333.065 332.187 333.42 331.774 333.791 331.214L334.084 331.517C333.465 332.389 332.896 332.998 332.375 333.343C331.991 333.59 331.626 333.714 331.281 333.714C331.034 333.714 330.825 333.629 330.656 333.46C330.493 333.291 330.412 333.095 330.412 332.874C330.412 332.64 330.516 332.158 330.725 331.429L333.371 322.269C333.586 321.52 333.693 321.09 333.693 320.979C333.693 320.823 333.631 320.696 333.508 320.599C333.384 320.494 333.192 320.442 332.932 320.442C332.782 320.442 332.554 320.465 332.248 320.511V320.149L335.588 319.593ZM340.344 333.782L341.437 328.87H341.769C341.724 329.345 341.701 329.739 341.701 330.052C341.701 330.944 341.984 331.67 342.551 332.229C343.124 332.789 343.869 333.069 344.787 333.069C345.64 333.069 346.288 332.809 346.73 332.288C347.173 331.761 347.394 331.155 347.394 330.472C347.394 330.029 347.294 329.625 347.092 329.261C346.786 328.72 345.969 327.77 344.641 326.409C343.996 325.758 343.583 325.273 343.4 324.954C343.101 324.427 342.951 323.873 342.951 323.294C342.951 322.369 343.296 321.578 343.986 320.921C344.676 320.263 345.562 319.935 346.642 319.935C347.007 319.935 347.352 319.97 347.678 320.042C347.879 320.081 348.247 320.211 348.781 320.433C349.159 320.582 349.367 320.664 349.406 320.677C349.497 320.696 349.598 320.706 349.709 320.706C349.898 320.706 350.06 320.657 350.197 320.56C350.334 320.462 350.493 320.254 350.676 319.935H351.047L350.031 324.329H349.699C349.725 323.938 349.738 323.623 349.738 323.382C349.738 322.594 349.478 321.95 348.957 321.448C348.436 320.947 347.749 320.696 346.896 320.696C346.219 320.696 345.669 320.895 345.246 321.292C344.823 321.689 344.611 322.148 344.611 322.669C344.611 323.125 344.745 323.561 345.012 323.978C345.285 324.388 345.907 325.062 346.877 325.999C347.853 326.93 348.485 327.659 348.771 328.187C349.058 328.707 349.201 329.264 349.201 329.856C349.201 330.527 349.022 331.178 348.664 331.81C348.312 332.435 347.805 332.92 347.141 333.265C346.476 333.61 345.751 333.782 344.963 333.782C344.572 333.782 344.208 333.746 343.869 333.675C343.531 333.603 342.99 333.427 342.248 333.147C341.994 333.05 341.782 333.001 341.613 333.001C341.229 333.001 340.93 333.261 340.715 333.782H340.344ZM352.59 329.798C352.544 330.123 352.521 330.394 352.521 330.608C352.521 331.188 352.726 331.683 353.137 332.093C353.547 332.496 354.045 332.698 354.631 332.698C355.1 332.698 355.549 332.604 355.978 332.415C356.415 332.22 357.059 331.793 357.912 331.136L358.117 331.419C356.574 332.949 355.103 333.714 353.703 333.714C352.753 333.714 352.036 333.414 351.555 332.815C351.073 332.216 350.832 331.556 350.832 330.833C350.832 329.863 351.131 328.87 351.73 327.854C352.329 326.839 353.081 326.051 353.986 325.491C354.891 324.925 355.822 324.642 356.779 324.642C357.469 324.642 357.98 324.782 358.312 325.062C358.644 325.341 358.81 325.674 358.81 326.058C358.81 326.598 358.596 327.116 358.166 327.61C357.6 328.255 356.766 328.776 355.666 329.173C354.937 329.44 353.911 329.648 352.59 329.798ZM352.658 329.319C353.622 329.209 354.406 329.02 355.012 328.753C355.812 328.395 356.411 327.968 356.809 327.474C357.212 326.972 357.414 326.497 357.414 326.048C357.414 325.774 357.326 325.553 357.15 325.384C356.981 325.215 356.737 325.13 356.418 325.13C355.754 325.13 355.047 325.485 354.299 326.194C353.557 326.897 353.01 327.939 352.658 329.319ZM365.041 319.593L361.701 331.214C361.538 331.793 361.457 332.148 361.457 332.278C361.457 332.376 361.486 332.457 361.545 332.522C361.61 332.588 361.688 332.62 361.779 332.62C361.903 332.62 362.036 332.565 362.18 332.454C362.518 332.187 362.873 331.774 363.244 331.214L363.537 331.517C362.919 332.389 362.349 332.998 361.828 333.343C361.444 333.59 361.079 333.714 360.734 333.714C360.487 333.714 360.279 333.629 360.109 333.46C359.947 333.291 359.865 333.095 359.865 332.874C359.865 332.64 359.969 332.158 360.178 331.429L362.824 322.269C363.039 321.52 363.146 321.09 363.146 320.979C363.146 320.823 363.085 320.696 362.961 320.599C362.837 320.494 362.645 320.442 362.385 320.442C362.235 320.442 362.007 320.465 361.701 320.511V320.149L365.041 319.593ZM365.09 325.247L367.912 324.642C368.114 325.123 368.277 325.615 368.4 326.116C368.576 326.852 368.719 327.724 368.83 328.733C368.882 329.241 368.954 330.315 369.045 331.956C369.859 331.058 370.344 330.501 370.5 330.286C371.359 329.121 371.854 328.437 371.984 328.235C372.199 327.89 372.349 327.588 372.434 327.327C372.505 327.132 372.541 326.946 372.541 326.771C372.541 326.601 372.388 326.406 372.082 326.185C371.782 325.963 371.633 325.716 371.633 325.442C371.633 325.234 371.714 325.049 371.877 324.886C372.046 324.723 372.245 324.642 372.473 324.642C372.746 324.642 372.987 324.756 373.195 324.983C373.404 325.205 373.508 325.481 373.508 325.813C373.508 326.146 373.456 326.465 373.351 326.771C373.182 327.265 372.866 327.871 372.404 328.587C371.942 329.297 371.197 330.25 370.168 331.448C370.038 331.598 369.315 332.353 368 333.714H367.639C367.482 329.593 367.157 327.021 366.662 325.999C366.499 325.667 366.229 325.501 365.851 325.501C365.689 325.501 365.458 325.53 365.158 325.589L365.09 325.247ZM382.932 324.642L381.027 331.263L380.812 332.151C380.793 332.236 380.783 332.308 380.783 332.366C380.783 332.47 380.816 332.562 380.881 332.64C380.933 332.698 380.998 332.728 381.076 332.728C381.161 332.728 381.271 332.675 381.408 332.571C381.662 332.382 382.001 331.992 382.424 331.399L382.756 331.634C382.307 332.311 381.844 332.828 381.369 333.187C380.894 333.538 380.454 333.714 380.051 333.714C379.771 333.714 379.559 333.642 379.416 333.499C379.279 333.362 379.211 333.16 379.211 332.894C379.211 332.575 379.282 332.155 379.426 331.634L379.631 330.901C378.778 332.015 377.993 332.793 377.277 333.235C376.763 333.554 376.258 333.714 375.764 333.714C375.288 333.714 374.878 333.519 374.533 333.128C374.188 332.731 374.016 332.187 374.016 331.497C374.016 330.462 374.325 329.371 374.943 328.226C375.568 327.073 376.359 326.152 377.316 325.462C378.065 324.915 378.771 324.642 379.435 324.642C379.833 324.642 380.161 324.746 380.422 324.954C380.689 325.162 380.891 325.507 381.027 325.989L381.379 324.876L382.932 324.642ZM379.455 325.149C379.038 325.149 378.596 325.345 378.127 325.735C377.463 326.289 376.87 327.109 376.35 328.196C375.835 329.284 375.578 330.267 375.578 331.146C375.578 331.588 375.689 331.94 375.91 332.2C376.131 332.454 376.385 332.581 376.672 332.581C377.381 332.581 378.153 332.057 378.986 331.009C380.1 329.616 380.656 328.187 380.656 326.722C380.656 326.168 380.549 325.768 380.334 325.521C380.119 325.273 379.826 325.149 379.455 325.149ZM387.883 324.642L386.613 329.046C387.18 328.011 387.661 327.233 388.059 326.712C388.677 325.905 389.279 325.319 389.865 324.954C390.21 324.746 390.572 324.642 390.949 324.642C391.275 324.642 391.545 324.746 391.76 324.954C391.975 325.162 392.082 325.429 392.082 325.755C392.082 326.074 392.007 326.491 391.857 327.005L391.164 329.485C392.225 327.5 393.231 326.106 394.182 325.306C394.709 324.863 395.23 324.642 395.744 324.642C396.044 324.642 396.288 324.746 396.476 324.954C396.672 325.156 396.769 325.472 396.769 325.901C396.769 326.279 396.711 326.679 396.594 327.103L395.519 330.901C395.285 331.728 395.168 332.187 395.168 332.278C395.168 332.369 395.197 332.448 395.256 332.513C395.295 332.558 395.347 332.581 395.412 332.581C395.477 332.581 395.591 332.519 395.754 332.396C396.125 332.109 396.473 331.731 396.799 331.263L397.121 331.468C396.958 331.728 396.669 332.086 396.252 332.542C395.842 332.998 395.49 333.307 395.197 333.47C394.904 333.632 394.634 333.714 394.387 333.714C394.159 333.714 393.967 333.636 393.81 333.479C393.661 333.323 393.586 333.131 393.586 332.903C393.586 332.591 393.719 331.963 393.986 331.019L394.875 327.884C395.077 327.161 395.184 326.761 395.197 326.683C395.217 326.559 395.226 326.438 395.226 326.321C395.226 326.159 395.191 326.032 395.119 325.94C395.041 325.849 394.953 325.804 394.855 325.804C394.582 325.804 394.292 325.944 393.986 326.224C393.088 327.05 392.248 328.209 391.467 329.7C390.952 330.683 390.471 331.943 390.021 333.479H388.547L390.217 327.571C390.399 326.933 390.49 326.507 390.49 326.292C390.49 326.116 390.454 325.986 390.383 325.901C390.311 325.817 390.223 325.774 390.119 325.774C389.904 325.774 389.676 325.853 389.435 326.009C389.045 326.263 388.54 326.806 387.922 327.64C387.31 328.473 386.835 329.271 386.496 330.032C386.333 330.39 385.946 331.539 385.334 333.479H383.889L385.695 327.151L385.93 326.331C385.975 326.207 385.998 326.116 385.998 326.058C385.998 325.914 385.933 325.787 385.803 325.677C385.672 325.56 385.506 325.501 385.305 325.501C385.22 325.501 384.986 325.54 384.601 325.618L384.514 325.257L387.883 324.642ZM397.795 335.677C398.283 335.455 398.68 335.175 398.986 334.837C399.221 334.576 399.338 334.326 399.338 334.085C399.338 333.968 399.318 333.86 399.279 333.763C399.253 333.711 399.162 333.606 399.006 333.45C398.85 333.294 398.762 333.187 398.742 333.128C398.697 333.017 398.674 332.89 398.674 332.747C398.674 332.467 398.768 332.226 398.957 332.024C399.152 331.823 399.38 331.722 399.641 331.722C399.907 331.722 400.142 331.829 400.344 332.044C400.552 332.259 400.656 332.529 400.656 332.854C400.656 333.434 400.428 334.02 399.973 334.612C399.517 335.205 398.856 335.664 397.99 335.989L397.795 335.677ZM182.004 345.212H177.902L177.082 346.228L176.144 347.351C175.962 347.591 175.829 347.81 175.744 348.005C175.679 348.155 175.646 348.304 175.646 348.454C175.646 348.61 175.728 348.757 175.891 348.894C176.06 349.024 176.336 349.099 176.721 349.118V349.479H172.766L172.863 349.118C173.215 349.06 173.527 348.936 173.801 348.747C174.165 348.487 174.689 347.95 175.373 347.136L184.758 335.935H185.197L184.758 346.774C184.738 347.341 184.728 347.683 184.728 347.8C184.728 348.243 184.816 348.565 184.992 348.767C185.174 348.968 185.474 349.086 185.891 349.118L185.793 349.479H180.06L180.168 349.118C180.734 349.066 181.06 349.021 181.144 348.981C181.327 348.89 181.493 348.701 181.642 348.415C181.792 348.122 181.883 347.618 181.916 346.901L182.004 345.212ZM182.004 344.411L182.258 340.095L178.576 344.411H182.004ZM193.566 335.935L190.334 346.931C190.145 347.582 190.051 347.989 190.051 348.151C190.051 348.236 190.077 348.308 190.129 348.366C190.187 348.425 190.249 348.454 190.314 348.454C190.432 348.454 190.542 348.409 190.646 348.317C190.959 348.063 191.307 347.634 191.691 347.028L192.072 347.204C191.454 348.194 190.845 348.9 190.246 349.323C189.836 349.61 189.4 349.753 188.937 349.753C188.508 349.753 188.166 349.639 187.912 349.411C187.658 349.177 187.531 348.897 187.531 348.571C187.531 348.33 187.609 347.943 187.766 347.409L190.402 338.405C190.545 337.91 190.617 337.582 190.617 337.419C190.617 337.263 190.549 337.139 190.412 337.048C190.23 336.918 189.953 336.862 189.582 336.882L189.689 336.511L192.98 335.935H193.566ZM199.377 340.427C199.891 340.427 200.373 340.547 200.822 340.788C201.278 341.022 201.62 341.351 201.848 341.774C202.082 342.198 202.199 342.666 202.199 343.181C202.199 344.235 201.903 345.29 201.31 346.345C200.725 347.399 199.95 348.233 198.986 348.845C198.023 349.45 197.053 349.753 196.076 349.753C195.191 349.753 194.504 349.489 194.016 348.962C193.534 348.435 193.293 347.79 193.293 347.028C193.293 346.123 193.472 345.277 193.83 344.489C194.195 343.695 194.654 343.005 195.207 342.419C195.767 341.826 196.408 341.348 197.131 340.983C197.853 340.612 198.602 340.427 199.377 340.427ZM198.976 340.944C198.631 340.944 198.345 341.045 198.117 341.247C197.661 341.657 197.147 342.618 196.574 344.128C196.001 345.632 195.715 346.989 195.715 348.2C195.715 348.5 195.806 348.747 195.988 348.942C196.17 349.138 196.385 349.235 196.633 349.235C196.887 349.235 197.111 349.157 197.307 349.001C197.593 348.767 197.945 348.243 198.361 347.429C198.778 346.608 199.12 345.707 199.387 344.724C199.654 343.734 199.787 342.829 199.787 342.009C199.787 341.67 199.706 341.41 199.543 341.228C199.38 341.039 199.191 340.944 198.976 340.944ZM208.039 341.843L206.896 346.354C206.363 348.483 205.842 350.026 205.334 350.983C204.826 351.94 204.23 352.647 203.547 353.103C202.87 353.565 202.092 353.796 201.213 353.796C200.659 353.796 200.253 353.688 199.992 353.474C199.732 353.265 199.601 353.018 199.601 352.731C199.601 352.465 199.709 352.233 199.924 352.038C200.139 351.843 200.422 351.745 200.773 351.745C201.066 351.745 201.291 351.82 201.447 351.97C201.603 352.119 201.682 352.308 201.682 352.536C201.682 352.744 201.633 352.897 201.535 352.995C201.437 353.099 201.389 353.168 201.389 353.2L201.437 353.269C201.476 353.301 201.522 353.317 201.574 353.317C201.769 353.317 201.935 353.256 202.072 353.132C202.417 352.826 202.674 352.455 202.844 352.019C202.961 351.719 203.185 350.928 203.517 349.646L205.51 341.843H204.152L204.475 340.7C204.963 340.707 205.318 340.645 205.539 340.515C205.76 340.384 205.995 340.091 206.242 339.636C206.958 338.314 207.713 337.367 208.508 336.794C209.302 336.221 210.187 335.935 211.164 335.935C211.789 335.935 212.241 336.055 212.521 336.296C212.808 336.537 212.951 336.849 212.951 337.233C212.951 337.572 212.857 337.842 212.668 338.044C212.479 338.239 212.245 338.337 211.965 338.337C211.704 338.337 211.489 338.256 211.32 338.093C211.151 337.93 211.066 337.735 211.066 337.507C211.066 337.344 211.118 337.172 211.223 336.989C211.333 336.807 211.389 336.683 211.389 336.618C211.389 336.547 211.363 336.488 211.31 336.442C211.265 336.397 211.203 336.374 211.125 336.374C210.741 336.374 210.347 336.612 209.943 337.087C209.279 337.849 208.745 339.053 208.342 340.7H209.758L209.416 341.843H208.039ZM215.197 338.044L214.416 340.7H215.695L215.353 341.823H214.094L212.463 347.487C212.359 347.839 212.307 348.106 212.307 348.288C212.307 348.373 212.336 348.448 212.394 348.513C212.453 348.571 212.518 348.601 212.59 348.601C212.7 348.601 212.814 348.555 212.932 348.464C213.231 348.236 213.579 347.839 213.976 347.272L214.318 347.487C213.869 348.269 213.374 348.841 212.834 349.206C212.294 349.571 211.763 349.753 211.242 349.753C210.799 349.753 210.454 349.642 210.207 349.421C209.966 349.193 209.846 348.907 209.846 348.562C209.846 348.184 209.93 347.699 210.1 347.106L211.642 341.823H210.314L210.51 341.101C211.343 340.795 212.046 340.437 212.619 340.026C213.192 339.616 213.882 338.955 214.689 338.044H215.197ZM232.297 349.479H226.564L226.672 349.118C227.049 349.086 227.329 348.978 227.512 348.796C227.694 348.607 227.785 348.376 227.785 348.103C227.785 347.81 227.684 347.344 227.482 346.706L226.076 342.194L224.68 347.028C224.523 347.569 224.445 347.959 224.445 348.2C224.445 348.474 224.553 348.695 224.767 348.864C224.982 349.027 225.37 349.112 225.93 349.118L225.822 349.479H219.387L219.494 349.118C220.008 349.105 220.392 349.037 220.646 348.913C220.9 348.789 221.102 348.597 221.252 348.337C221.402 348.076 221.581 347.578 221.789 346.843L224.016 339.138C224.269 338.252 224.396 337.689 224.396 337.448C224.396 337.227 224.292 337.035 224.084 336.872C223.882 336.709 223.495 336.618 222.922 336.599L223.029 336.237H229.26L229.152 336.599C228.736 336.599 228.417 336.66 228.195 336.784C227.902 336.953 227.665 337.201 227.482 337.526C227.359 337.741 227.189 338.239 226.975 339.021L226.076 342.185L229.523 339.021C230.194 338.402 230.568 338.031 230.646 337.907C230.751 337.744 230.803 337.572 230.803 337.39C230.803 337.194 230.731 337.025 230.588 336.882C230.451 336.739 230.21 336.644 229.865 336.599L229.973 336.237H234.963L234.855 336.599C234.471 336.631 234.159 336.687 233.918 336.765C233.599 336.869 233.234 337.048 232.824 337.302C232.414 337.549 231.997 337.842 231.574 338.181L230.666 339.021L228.566 340.905L230.129 345.788C230.637 347.396 231.031 348.347 231.31 348.64C231.59 348.933 231.955 349.092 232.404 349.118L232.297 349.479ZM238.684 340.427L236.789 347.067C236.698 347.373 236.652 347.585 236.652 347.702C236.652 347.761 236.675 347.806 236.721 347.839C236.773 347.891 236.835 347.917 236.906 347.917C237.206 347.917 237.606 347.65 238.107 347.116C238.823 346.341 239.575 345.228 240.363 343.776L241.252 340.788L243.723 340.7L241.848 347.146C241.691 347.692 241.613 348.005 241.613 348.083C241.613 348.135 241.636 348.19 241.682 348.249C241.734 348.301 241.786 348.327 241.838 348.327C241.929 348.327 242.017 348.288 242.101 348.21C242.336 348.021 242.645 347.64 243.029 347.067L243.361 347.302C242.456 348.936 241.46 349.753 240.373 349.753C239.969 349.753 239.65 349.652 239.416 349.45C239.188 349.242 239.074 348.972 239.074 348.64C239.074 348.288 239.156 347.842 239.318 347.302L239.797 345.651C238.95 346.882 238.335 347.712 237.951 348.142C237.365 348.786 236.87 349.216 236.467 349.431C236.07 349.646 235.689 349.753 235.324 349.753C234.979 349.753 234.68 349.626 234.426 349.372C234.178 349.118 234.055 348.796 234.055 348.405C234.055 348.073 234.136 347.627 234.299 347.067L235.402 343.161C235.585 342.523 235.676 342.093 235.676 341.872C235.676 341.774 235.65 341.69 235.598 341.618C235.545 341.54 235.458 341.481 235.334 341.442C235.217 341.397 234.995 341.374 234.67 341.374L234.767 341.003L238.098 340.427H238.684ZM254.084 340.563L252.189 347.058L251.994 347.849C251.975 347.946 251.965 348.018 251.965 348.063C251.965 348.142 251.991 348.21 252.043 348.269C252.101 348.327 252.16 348.356 252.219 348.356C252.355 348.356 252.544 348.252 252.785 348.044C252.883 347.959 253.117 347.66 253.488 347.146L253.83 347.321C253.368 348.168 252.873 348.786 252.346 349.177C251.825 349.561 251.262 349.753 250.656 349.753C250.285 349.753 250.002 349.659 249.807 349.47C249.611 349.274 249.514 349.03 249.514 348.737C249.514 348.483 249.618 348.011 249.826 347.321L250.06 346.53C249.305 347.826 248.579 348.744 247.883 349.284C247.479 349.597 247.049 349.753 246.594 349.753C245.995 349.753 245.562 349.509 245.295 349.021C245.028 348.526 244.894 347.969 244.894 347.351C244.894 346.433 245.174 345.381 245.734 344.196C246.294 343.005 247.03 342.048 247.941 341.325C248.69 340.726 249.393 340.427 250.051 340.427C250.415 340.427 250.708 340.534 250.93 340.749C251.151 340.957 251.314 341.341 251.418 341.901L251.769 340.7L254.084 340.563ZM250.959 342.419C250.959 341.892 250.878 341.511 250.715 341.276C250.598 341.114 250.438 341.032 250.236 341.032C250.034 341.032 249.826 341.13 249.611 341.325C249.175 341.729 248.703 342.549 248.195 343.786C247.694 345.017 247.443 346.081 247.443 346.979C247.443 347.325 247.499 347.575 247.609 347.731C247.726 347.881 247.853 347.956 247.99 347.956C248.283 347.956 248.579 347.787 248.879 347.448C249.309 346.966 249.696 346.377 250.041 345.681C250.653 344.457 250.959 343.369 250.959 342.419ZM260.832 335.935L257.6 346.931C257.411 347.582 257.316 347.989 257.316 348.151C257.316 348.236 257.342 348.308 257.394 348.366C257.453 348.425 257.515 348.454 257.58 348.454C257.697 348.454 257.808 348.409 257.912 348.317C258.225 348.063 258.573 347.634 258.957 347.028L259.338 347.204C258.719 348.194 258.111 348.9 257.512 349.323C257.101 349.61 256.665 349.753 256.203 349.753C255.773 349.753 255.432 349.639 255.178 349.411C254.924 349.177 254.797 348.897 254.797 348.571C254.797 348.33 254.875 347.943 255.031 347.409L257.668 338.405C257.811 337.91 257.883 337.582 257.883 337.419C257.883 337.263 257.814 337.139 257.678 337.048C257.495 336.918 257.219 336.862 256.848 336.882L256.955 336.511L260.246 335.935H260.832ZM269.65 340.563L267.756 347.058L267.56 347.849C267.541 347.946 267.531 348.018 267.531 348.063C267.531 348.142 267.557 348.21 267.609 348.269C267.668 348.327 267.726 348.356 267.785 348.356C267.922 348.356 268.111 348.252 268.351 348.044C268.449 347.959 268.684 347.66 269.055 347.146L269.396 347.321C268.934 348.168 268.439 348.786 267.912 349.177C267.391 349.561 266.828 349.753 266.223 349.753C265.851 349.753 265.568 349.659 265.373 349.47C265.178 349.274 265.08 349.03 265.08 348.737C265.08 348.483 265.184 348.011 265.392 347.321L265.627 346.53C264.872 347.826 264.146 348.744 263.449 349.284C263.045 349.597 262.616 349.753 262.16 349.753C261.561 349.753 261.128 349.509 260.861 349.021C260.594 348.526 260.461 347.969 260.461 347.351C260.461 346.433 260.741 345.381 261.301 344.196C261.861 343.005 262.596 342.048 263.508 341.325C264.256 340.726 264.96 340.427 265.617 340.427C265.982 340.427 266.275 340.534 266.496 340.749C266.717 340.957 266.88 341.341 266.984 341.901L267.336 340.7L269.65 340.563ZM266.525 342.419C266.525 341.892 266.444 341.511 266.281 341.276C266.164 341.114 266.004 341.032 265.803 341.032C265.601 341.032 265.392 341.13 265.178 341.325C264.741 341.729 264.269 342.549 263.762 343.786C263.26 345.017 263.01 346.081 263.01 346.979C263.01 347.325 263.065 347.575 263.176 347.731C263.293 347.881 263.42 347.956 263.557 347.956C263.85 347.956 264.146 347.787 264.445 347.448C264.875 346.966 265.262 346.377 265.607 345.681C266.219 344.457 266.525 343.369 266.525 342.419ZM285.002 349.479H274.426L274.533 349.118C275.165 349.118 275.624 348.998 275.91 348.757C276.203 348.509 276.473 347.959 276.721 347.106L279.182 338.601C279.318 338.132 279.387 337.764 279.387 337.497C279.387 337.237 279.289 337.028 279.094 336.872C278.898 336.716 278.514 336.625 277.941 336.599L278.049 336.237H284.406L284.299 336.599C283.687 336.612 283.228 336.748 282.922 337.009C282.622 337.269 282.355 337.8 282.121 338.601L279.875 346.384C279.588 347.373 279.445 347.976 279.445 348.19C279.445 348.321 279.517 348.444 279.66 348.562C279.81 348.672 280.047 348.728 280.373 348.728C281.454 348.728 282.495 348.48 283.498 347.985C284.507 347.491 285.36 346.752 286.057 345.769H286.467L285.002 349.479ZM292.609 340.427L290.715 347.067C290.624 347.373 290.578 347.585 290.578 347.702C290.578 347.761 290.601 347.806 290.646 347.839C290.698 347.891 290.76 347.917 290.832 347.917C291.131 347.917 291.532 347.65 292.033 347.116C292.749 346.341 293.501 345.228 294.289 343.776L295.178 340.788L297.648 340.7L295.773 347.146C295.617 347.692 295.539 348.005 295.539 348.083C295.539 348.135 295.562 348.19 295.607 348.249C295.659 348.301 295.711 348.327 295.764 348.327C295.855 348.327 295.943 348.288 296.027 348.21C296.262 348.021 296.571 347.64 296.955 347.067L297.287 347.302C296.382 348.936 295.386 349.753 294.299 349.753C293.895 349.753 293.576 349.652 293.342 349.45C293.114 349.242 293 348.972 293 348.64C293 348.288 293.081 347.842 293.244 347.302L293.723 345.651C292.876 346.882 292.261 347.712 291.877 348.142C291.291 348.786 290.796 349.216 290.392 349.431C289.995 349.646 289.614 349.753 289.25 349.753C288.905 349.753 288.605 349.626 288.351 349.372C288.104 349.118 287.98 348.796 287.98 348.405C287.98 348.073 288.062 347.627 288.225 347.067L289.328 343.161C289.51 342.523 289.601 342.093 289.601 341.872C289.601 341.774 289.575 341.69 289.523 341.618C289.471 341.54 289.383 341.481 289.26 341.442C289.142 341.397 288.921 341.374 288.596 341.374L288.693 341.003L292.023 340.427H292.609ZM303.742 340.427L302.492 344.626C303.332 343.337 303.944 342.468 304.328 342.019C304.894 341.361 305.36 340.931 305.725 340.729C306.096 340.528 306.467 340.427 306.838 340.427C307.261 340.427 307.567 340.554 307.756 340.808C307.945 341.062 308.039 341.341 308.039 341.647C308.039 341.966 307.951 342.435 307.775 343.054L307.336 344.626C308.182 343.324 308.791 342.458 309.162 342.028C309.735 341.364 310.233 340.915 310.656 340.681C310.949 340.511 311.262 340.427 311.594 340.427C311.939 340.427 312.225 340.544 312.453 340.778C312.687 341.006 312.805 341.306 312.805 341.677C312.805 342.093 312.707 342.634 312.512 343.298L311.428 346.94C311.265 347.481 311.184 347.829 311.184 347.985C311.184 348.037 311.203 348.086 311.242 348.132C311.288 348.177 311.336 348.2 311.389 348.2C311.46 348.2 311.522 348.177 311.574 348.132C311.809 347.943 312.056 347.666 312.316 347.302C312.375 347.224 312.463 347.103 312.58 346.94L312.912 347.155C312.463 347.995 311.968 348.61 311.428 349.001C310.894 349.392 310.399 349.587 309.943 349.587C309.546 349.587 309.227 349.479 308.986 349.265C308.745 349.043 308.625 348.786 308.625 348.493C308.625 348.213 308.706 347.79 308.869 347.224L309.973 343.415C310.122 342.888 310.197 342.559 310.197 342.429C310.197 342.383 310.174 342.341 310.129 342.302C310.083 342.256 310.038 342.233 309.992 342.233C309.907 342.233 309.823 342.253 309.738 342.292C309.614 342.357 309.422 342.526 309.162 342.8C308.908 343.073 308.54 343.565 308.059 344.274C307.577 344.978 307.241 345.528 307.053 345.925C306.87 346.322 306.688 346.836 306.506 347.468L305.91 349.479H303.439L305.266 343.103C305.363 342.757 305.412 342.52 305.412 342.39C305.412 342.344 305.389 342.302 305.344 342.263C305.305 342.224 305.262 342.204 305.217 342.204C304.976 342.204 304.595 342.52 304.074 343.151C303.28 344.128 302.557 345.303 301.906 346.677L301.115 349.479H298.625L300.461 343.2C300.643 342.582 300.734 342.142 300.734 341.882C300.734 341.778 300.708 341.69 300.656 341.618C300.604 341.54 300.519 341.481 300.402 341.442C300.285 341.397 300.06 341.374 299.728 341.374L299.826 341.003L303.156 340.427H303.742ZM315.207 340.974L318.439 340.427H319.025L318.586 342.019C319.269 341.394 319.829 340.974 320.266 340.759C320.702 340.537 321.135 340.427 321.564 340.427C322.176 340.427 322.648 340.664 322.98 341.14C323.312 341.608 323.478 342.185 323.478 342.868C323.478 344.737 322.831 346.394 321.535 347.839C320.389 349.115 319.139 349.753 317.785 349.753C317.544 349.753 317.339 349.73 317.17 349.685C317.001 349.639 316.763 349.538 316.457 349.382L315.949 351.14C315.767 351.778 315.676 352.263 315.676 352.595C315.676 352.803 315.747 352.966 315.891 353.083C316.034 353.207 316.369 353.311 316.896 353.396L316.809 353.757H311.555L311.652 353.396C312.069 353.382 312.417 353.249 312.697 352.995C312.971 352.741 313.228 352.194 313.469 351.354L315.851 343.142C316.027 342.53 316.115 342.097 316.115 341.843C316.115 341.732 316.089 341.641 316.037 341.569C315.985 341.491 315.907 341.436 315.803 341.403C315.698 341.371 315.464 341.354 315.1 341.354L315.207 340.974ZM316.73 348.474C316.926 348.793 317.101 349.007 317.258 349.118C317.414 349.222 317.596 349.274 317.805 349.274C318.013 349.274 318.215 349.219 318.41 349.108C318.612 348.991 318.859 348.76 319.152 348.415C319.445 348.07 319.725 347.627 319.992 347.087C320.266 346.547 320.484 345.935 320.646 345.251C320.809 344.561 320.891 343.903 320.891 343.278C320.891 342.777 320.799 342.412 320.617 342.185C320.441 341.957 320.226 341.843 319.973 341.843C319.745 341.843 319.53 341.901 319.328 342.019C319.035 342.188 318.69 342.504 318.293 342.966L316.73 348.474ZM329.309 340.427L327.414 347.067C327.323 347.373 327.277 347.585 327.277 347.702C327.277 347.761 327.3 347.806 327.346 347.839C327.398 347.891 327.46 347.917 327.531 347.917C327.831 347.917 328.231 347.65 328.732 347.116C329.448 346.341 330.2 345.228 330.988 343.776L331.877 340.788L334.348 340.7L332.473 347.146C332.316 347.692 332.238 348.005 332.238 348.083C332.238 348.135 332.261 348.19 332.307 348.249C332.359 348.301 332.411 348.327 332.463 348.327C332.554 348.327 332.642 348.288 332.726 348.21C332.961 348.021 333.27 347.64 333.654 347.067L333.986 347.302C333.081 348.936 332.085 349.753 330.998 349.753C330.594 349.753 330.275 349.652 330.041 349.45C329.813 349.242 329.699 348.972 329.699 348.64C329.699 348.288 329.781 347.842 329.943 347.302L330.422 345.651C329.575 346.882 328.96 347.712 328.576 348.142C327.99 348.786 327.495 349.216 327.092 349.431C326.695 349.646 326.314 349.753 325.949 349.753C325.604 349.753 325.305 349.626 325.051 349.372C324.803 349.118 324.68 348.796 324.68 348.405C324.68 348.073 324.761 347.627 324.924 347.067L326.027 343.161C326.21 342.523 326.301 342.093 326.301 341.872C326.301 341.774 326.275 341.69 326.223 341.618C326.17 341.54 326.083 341.481 325.959 341.442C325.842 341.397 325.62 341.374 325.295 341.374L325.392 341.003L328.723 340.427H329.309ZM339.865 340.427L338.391 345.915C339.601 343.239 340.513 341.592 341.125 340.974C341.483 340.609 341.861 340.427 342.258 340.427C342.531 340.427 342.753 340.528 342.922 340.729C343.091 340.925 343.176 341.205 343.176 341.569C343.176 342.201 343.023 342.731 342.717 343.161C342.521 343.435 342.303 343.571 342.062 343.571C341.802 343.571 341.607 343.451 341.476 343.21C341.346 342.969 341.255 342.829 341.203 342.79C341.151 342.744 341.096 342.722 341.037 342.722C340.972 342.722 340.904 342.741 340.832 342.78C340.689 342.858 340.5 343.05 340.266 343.356C340.038 343.656 339.754 344.16 339.416 344.87C339.077 345.58 338.814 346.182 338.625 346.677C338.436 347.165 338.172 348.099 337.834 349.479H335.471L337.082 343.005C337.199 342.523 337.258 342.204 337.258 342.048C337.258 341.872 337.225 341.735 337.16 341.638C337.101 341.54 337.017 341.468 336.906 341.423C336.802 341.377 336.581 341.354 336.242 341.354L336.33 341.071L339.279 340.427H339.865ZM359.592 335.935L358.488 340.427H358.166C358.094 339.724 357.967 339.16 357.785 338.737C357.512 338.125 357.147 337.653 356.691 337.321C356.242 336.989 355.754 336.823 355.226 336.823C354.719 336.823 354.273 337.019 353.889 337.409C353.511 337.793 353.322 338.229 353.322 338.718C353.322 339.2 353.452 339.675 353.713 340.144C353.98 340.606 354.605 341.306 355.588 342.243C356.376 342.992 356.903 343.636 357.17 344.177C357.443 344.717 357.58 345.303 357.58 345.935C357.58 346.644 357.391 347.299 357.014 347.897C356.636 348.496 356.086 348.962 355.363 349.294C354.647 349.619 353.833 349.782 352.922 349.782C352.362 349.782 351.656 349.698 350.803 349.528C349.956 349.366 349.393 349.284 349.113 349.284C348.892 349.284 348.693 349.32 348.517 349.392C348.342 349.457 348.124 349.587 347.863 349.782H347.482L348.664 344.733H349.035C349.12 345.619 349.299 346.374 349.572 346.999C349.846 347.618 350.236 348.103 350.744 348.454C351.252 348.799 351.831 348.972 352.482 348.972C353.127 348.972 353.664 348.76 354.094 348.337C354.53 347.907 354.748 347.406 354.748 346.833C354.748 346.345 354.624 345.876 354.377 345.427C354.136 344.978 353.579 344.323 352.707 343.464C351.841 342.604 351.242 341.836 350.91 341.159C350.669 340.658 350.549 340.124 350.549 339.558C350.549 338.575 350.936 337.725 351.711 337.009C352.486 336.293 353.498 335.935 354.748 335.935C355.314 335.935 356.06 336.062 356.984 336.315C357.525 336.465 357.906 336.54 358.127 336.54C358.316 336.54 358.485 336.501 358.635 336.423C358.784 336.338 358.96 336.175 359.162 335.935H359.592ZM362.18 345.817C362.121 346.241 362.092 346.589 362.092 346.862C362.092 347.351 362.232 347.741 362.512 348.034C362.798 348.327 363.179 348.474 363.654 348.474C364.11 348.474 364.566 348.363 365.021 348.142C365.484 347.92 366.017 347.533 366.623 346.979L366.916 347.243C366.167 348.148 365.438 348.793 364.728 349.177C364.019 349.561 363.234 349.753 362.375 349.753C361.288 349.753 360.536 349.493 360.119 348.972C359.702 348.451 359.494 347.849 359.494 347.165C359.494 346.097 359.803 345.03 360.422 343.962C361.047 342.894 361.893 342.038 362.961 341.394C364.035 340.749 365.113 340.427 366.193 340.427C366.74 340.427 367.154 340.557 367.434 340.817C367.713 341.078 367.853 341.407 367.853 341.804C367.853 342.279 367.717 342.741 367.443 343.19C367.066 343.802 366.59 344.297 366.017 344.675C365.445 345.046 364.803 345.329 364.094 345.524C363.618 345.655 362.98 345.752 362.18 345.817ZM362.267 345.31C362.84 345.225 363.283 345.111 363.596 344.968C363.915 344.818 364.224 344.584 364.523 344.265C364.829 343.939 365.093 343.532 365.314 343.044C365.536 342.549 365.646 342.087 365.646 341.657C365.646 341.475 365.594 341.332 365.49 341.228C365.392 341.123 365.266 341.071 365.109 341.071C364.797 341.071 364.445 341.289 364.055 341.726C363.338 342.52 362.743 343.715 362.267 345.31ZM373.283 340.427L372.072 344.616C372.886 343.392 373.495 342.556 373.898 342.106C374.491 341.455 375.002 341.013 375.432 340.778C375.861 340.544 376.265 340.427 376.642 340.427C376.981 340.427 377.271 340.554 377.512 340.808C377.753 341.055 377.873 341.381 377.873 341.784C377.873 342.149 377.795 342.591 377.639 343.112L376.389 347.282C376.284 347.647 376.232 347.884 376.232 347.995C376.232 348.06 376.255 348.119 376.301 348.171C376.353 348.223 376.405 348.249 376.457 348.249C376.522 348.249 376.59 348.223 376.662 348.171C376.89 347.982 377.121 347.715 377.355 347.37C377.414 347.279 377.508 347.142 377.639 346.96L378.01 347.185C377.053 348.793 376.047 349.597 374.992 349.597C374.588 349.597 374.273 349.493 374.045 349.284C373.817 349.076 373.703 348.815 373.703 348.503C373.703 348.229 373.781 347.823 373.937 347.282L375.158 343.112C375.243 342.839 375.285 342.637 375.285 342.507C375.285 342.435 375.256 342.373 375.197 342.321C375.139 342.263 375.07 342.233 374.992 342.233C374.745 342.233 374.445 342.403 374.094 342.741C373.195 343.601 372.326 344.88 371.486 346.579L370.685 349.479H368.195L370.021 343.21C370.197 342.591 370.285 342.152 370.285 341.892C370.285 341.781 370.259 341.69 370.207 341.618C370.155 341.54 370.07 341.481 369.953 341.442C369.836 341.397 369.614 341.374 369.289 341.374L369.396 341.003L372.687 340.427H373.283ZM384.807 338.044L384.025 340.7H385.305L384.963 341.823H383.703L382.072 347.487C381.968 347.839 381.916 348.106 381.916 348.288C381.916 348.373 381.945 348.448 382.004 348.513C382.062 348.571 382.128 348.601 382.199 348.601C382.31 348.601 382.424 348.555 382.541 348.464C382.84 348.236 383.189 347.839 383.586 347.272L383.928 347.487C383.478 348.269 382.984 348.841 382.443 349.206C381.903 349.571 381.372 349.753 380.851 349.753C380.409 349.753 380.064 349.642 379.816 349.421C379.575 349.193 379.455 348.907 379.455 348.562C379.455 348.184 379.54 347.699 379.709 347.106L381.252 341.823H379.924L380.119 341.101C380.952 340.795 381.656 340.437 382.228 340.026C382.801 339.616 383.491 338.955 384.299 338.044H384.807ZM389.377 340.427L387.902 345.915C389.113 343.239 390.025 341.592 390.637 340.974C390.995 340.609 391.372 340.427 391.769 340.427C392.043 340.427 392.264 340.528 392.434 340.729C392.603 340.925 392.687 341.205 392.687 341.569C392.687 342.201 392.534 342.731 392.228 343.161C392.033 343.435 391.815 343.571 391.574 343.571C391.314 343.571 391.118 343.451 390.988 343.21C390.858 342.969 390.767 342.829 390.715 342.79C390.663 342.744 390.607 342.722 390.549 342.722C390.484 342.722 390.415 342.741 390.344 342.78C390.2 342.858 390.012 343.05 389.777 343.356C389.549 343.656 389.266 344.16 388.928 344.87C388.589 345.58 388.325 346.182 388.137 346.677C387.948 347.165 387.684 348.099 387.346 349.479H384.982L386.594 343.005C386.711 342.523 386.769 342.204 386.769 342.048C386.769 341.872 386.737 341.735 386.672 341.638C386.613 341.54 386.529 341.468 386.418 341.423C386.314 341.377 386.092 341.354 385.754 341.354L385.842 341.071L388.791 340.427H389.377ZM402.014 340.563L400.119 347.058L399.924 347.849C399.904 347.946 399.894 348.018 399.894 348.063C399.894 348.142 399.92 348.21 399.973 348.269C400.031 348.327 400.09 348.356 400.148 348.356C400.285 348.356 400.474 348.252 400.715 348.044C400.812 347.959 401.047 347.66 401.418 347.146L401.76 347.321C401.297 348.168 400.803 348.786 400.275 349.177C399.754 349.561 399.191 349.753 398.586 349.753C398.215 349.753 397.932 349.659 397.736 349.47C397.541 349.274 397.443 349.03 397.443 348.737C397.443 348.483 397.547 348.011 397.756 347.321L397.99 346.53C397.235 347.826 396.509 348.744 395.812 349.284C395.409 349.597 394.979 349.753 394.523 349.753C393.924 349.753 393.491 349.509 393.225 349.021C392.958 348.526 392.824 347.969 392.824 347.351C392.824 346.433 393.104 345.381 393.664 344.196C394.224 343.005 394.96 342.048 395.871 341.325C396.62 340.726 397.323 340.427 397.98 340.427C398.345 340.427 398.638 340.534 398.859 340.749C399.081 340.957 399.243 341.341 399.348 341.901L399.699 340.7L402.014 340.563ZM398.889 342.419C398.889 341.892 398.807 341.511 398.644 341.276C398.527 341.114 398.368 341.032 398.166 341.032C397.964 341.032 397.756 341.13 397.541 341.325C397.105 341.729 396.633 342.549 396.125 343.786C395.624 345.017 395.373 346.081 395.373 346.979C395.373 347.325 395.428 347.575 395.539 347.731C395.656 347.881 395.783 347.956 395.92 347.956C396.213 347.956 396.509 347.787 396.809 347.448C397.238 346.966 397.626 346.377 397.971 345.681C398.583 344.457 398.889 343.369 398.889 342.419ZM408.762 335.935L405.529 346.931C405.34 347.582 405.246 347.989 405.246 348.151C405.246 348.236 405.272 348.308 405.324 348.366C405.383 348.425 405.445 348.454 405.51 348.454C405.627 348.454 405.738 348.409 405.842 348.317C406.154 348.063 406.503 347.634 406.887 347.028L407.267 347.204C406.649 348.194 406.04 348.9 405.441 349.323C405.031 349.61 404.595 349.753 404.133 349.753C403.703 349.753 403.361 349.639 403.107 349.411C402.853 349.177 402.726 348.897 402.726 348.571C402.726 348.33 402.805 347.943 402.961 347.409L405.598 338.405C405.741 337.91 405.812 337.582 405.812 337.419C405.812 337.263 405.744 337.139 405.607 337.048C405.425 336.918 405.148 336.862 404.777 336.882L404.885 336.511L408.176 335.935H408.762Z" fill="#231F20"/>
<path d="M50 310.551L54.5157 349.649L85.3553 325.195L60.9018 356.035L100 360.551L60.9018 365.066L85.3553 395.906L54.5157 371.453L50 410.551L45.4843 371.453L14.6447 395.906L39.0982 365.066L0 360.551L39.0982 356.035L14.6447 325.195L45.4843 349.649L50 310.551Z" fill="#FFEE00"/>
</svg>
