<svg width="400" height="412" viewBox="0 0 400 412" fill="none" xmlns="http://www.w3.org/2000/svg">
<rect width="400" height="400" transform="translate(0 11.4795)" fill="#F5F5F5"/>
<path d="M72.68 183.919L68.072 200.479H65.36L61.616 186.199L57.728 200.479H54.992L50.624 183.919H52.976L56.456 198.631L60.296 184.159H63.08L66.824 198.655L70.496 183.919H72.68ZM84.5285 193.759C84.5285 193.951 84.5285 194.287 84.4805 194.743H75.2645C75.4565 198.103 77.0405 199.231 78.9125 199.231C80.5685 199.231 81.9125 198.199 82.2005 196.375H84.3605C83.8565 199.447 81.4325 200.815 78.8165 200.815C75.5045 200.815 73.0325 198.655 73.0325 194.167C73.0325 190.039 75.6005 187.423 79.0805 187.423C82.5845 187.423 84.5285 190.039 84.5285 193.759ZM79.0325 189.007C77.0165 189.007 75.5285 190.447 75.2885 193.159H82.4405C82.2485 190.519 81.1205 189.007 79.0325 189.007ZM94.4081 182.839V196.831C94.4081 197.215 94.4081 197.623 94.4321 198.031C94.4801 198.847 94.8641 199.111 95.9921 198.991V200.479C95.5361 200.551 95.0081 200.575 94.5281 200.575C93.3281 200.575 92.4401 200.191 92.3681 198.583C92.3441 198.151 92.3441 197.599 92.3441 196.903V182.839H94.4081ZM103.626 187.423C107.946 187.423 109.938 190.519 109.938 194.119C109.938 197.695 107.946 200.815 103.626 200.815C99.3058 200.815 97.3138 197.695 97.3138 194.119C97.3138 190.519 99.3058 187.423 103.626 187.423ZM103.626 199.231C106.194 199.231 107.682 197.095 107.682 194.119C107.682 191.119 106.194 189.007 103.626 189.007C101.058 189.007 99.5698 191.119 99.5698 194.119C99.5698 197.095 101.058 199.231 103.626 199.231ZM122.848 187.759L118.024 200.479H115.504L110.68 187.759H112.96L116.848 198.967L120.664 187.759H122.848ZM135.013 193.759C135.013 193.951 135.013 194.287 134.965 194.743H125.749C125.941 198.103 127.525 199.231 129.397 199.231C131.053 199.231 132.397 198.199 132.685 196.375H134.845C134.341 199.447 131.917 200.815 129.301 200.815C125.989 200.815 123.517 198.655 123.517 194.167C123.517 190.039 126.085 187.423 129.565 187.423C133.069 187.423 135.013 190.039 135.013 193.759ZM129.517 189.007C127.501 189.007 126.013 190.447 125.773 193.159H132.925C132.733 190.519 131.605 189.007 129.517 189.007ZM145.396 189.439V196.759C145.396 197.191 145.396 197.407 145.42 197.743C145.516 198.967 146.02 199.231 147.628 199.039V200.551C147.028 200.647 146.452 200.671 145.876 200.671C144.292 200.671 143.476 200.023 143.356 198.439C143.332 198.103 143.332 197.575 143.332 196.855V189.439H141.628V187.855H143.332V184.903H145.396V187.855H147.772V189.439H145.396ZM161.152 191.143C161.2 191.791 161.2 192.295 161.2 193.327V200.479H159.136V193.471C159.136 192.823 159.136 192.295 159.088 191.647C158.968 190.159 158.152 189.007 156.184 189.055C154.192 189.103 152.512 190.543 152.512 194.887V200.479H150.448V182.719H152.512V189.943L153.304 188.479C154.384 187.639 155.32 187.423 156.616 187.423C159.4 187.423 160.96 188.911 161.152 191.143ZM175.114 193.759C175.114 193.951 175.114 194.287 175.066 194.743H165.85C166.042 198.103 167.626 199.231 169.498 199.231C171.154 199.231 172.498 198.199 172.786 196.375H174.946C174.442 199.447 172.018 200.815 169.402 200.815C166.09 200.815 163.618 198.655 163.618 194.167C163.618 190.039 166.186 187.423 169.666 187.423C173.17 187.423 175.114 190.039 175.114 193.759ZM169.618 189.007C167.602 189.007 166.114 190.447 165.874 193.159H173.026C172.834 190.519 171.706 189.007 169.618 189.007ZM190.346 187.375C193.922 187.375 196.034 190.087 196.034 193.855C196.034 198.463 193.202 200.815 189.914 200.815C188.858 200.815 187.562 200.551 186.914 200.095L186.074 198.775V205.183H182.762V187.711H186.074V189.655L187.034 188.263C187.754 187.687 189.05 187.375 190.346 187.375ZM189.266 198.487C191.186 198.487 192.602 197.023 192.602 194.071C192.602 191.455 191.354 189.703 189.386 189.703C187.562 189.703 186.074 190.831 186.074 193.951V194.551C186.074 197.455 187.73 198.487 189.266 198.487ZM204.688 187.399C205.072 187.399 205.336 187.423 205.624 187.495V190.159C202.864 189.967 201.496 191.191 201.496 194.623V200.479H198.184V187.711H201.496V190.039L202.504 188.263C203.128 187.687 203.968 187.399 204.688 187.399ZM208.957 182.959C210.037 182.959 210.781 183.679 210.781 184.711C210.781 185.767 210.037 186.463 208.957 186.463C207.877 186.463 207.133 185.767 207.133 184.711C207.133 183.679 207.877 182.959 208.957 182.959ZM210.613 200.479H207.301V187.711H210.613V200.479ZM219.196 187.375C222.652 187.375 224.788 189.487 225.028 192.319H221.764C221.452 190.471 220.492 189.703 219.124 189.703C217.444 189.703 216.244 191.071 216.244 193.975C216.244 197.143 217.444 198.487 219.1 198.487C220.396 198.487 221.356 197.671 221.692 196.063H225.004C224.452 199.207 222.1 200.815 218.908 200.815C215.428 200.815 212.812 198.607 212.812 194.191C212.812 189.823 215.692 187.375 219.196 187.375ZM238.721 193.831C238.721 194.143 238.721 194.527 238.673 194.959H229.601C229.817 197.647 231.017 198.487 232.553 198.487C233.969 198.487 235.001 197.695 235.217 196.327H238.529C237.881 199.303 235.481 200.815 232.481 200.815C228.977 200.815 226.265 198.631 226.265 194.143C226.265 190.231 228.833 187.375 232.745 187.375C236.657 187.375 238.721 190.351 238.721 193.831ZM232.601 189.703C231.065 189.703 229.985 190.687 229.697 192.799H235.313C235.097 190.783 234.185 189.703 232.601 189.703ZM252.832 187.423C256.552 187.423 258.616 190.207 258.616 193.927C258.616 198.631 255.688 200.815 252.4 200.815C251.344 200.815 250 200.503 249.352 199.975L248.512 198.727V205.183H246.448V187.759H248.512V189.799L249.472 188.431C250.192 187.831 251.536 187.423 252.832 187.423ZM252.4 199.231C254.632 199.231 256.36 197.503 256.36 194.167C256.36 191.287 255.064 189.007 252.52 189.007C250.408 189.007 248.512 190.351 248.512 193.999V194.695C248.512 197.983 250.576 199.231 252.4 199.231ZM268.416 200.479L268.2 198.655L267.504 200.023C266.64 200.623 265.536 200.815 264.312 200.815C262.008 200.815 260.208 199.543 260.208 197.191C260.208 194.311 262.368 192.823 267.36 192.823H268.176V192.487C268.176 191.935 268.176 191.431 268.128 190.951C268.032 189.775 267.36 189.007 265.656 189.007C263.928 189.007 263.064 189.943 262.92 191.695H260.76C260.952 188.983 262.848 187.423 265.656 187.423C268.68 187.423 269.952 188.695 270.168 190.783C270.216 191.287 270.24 191.911 270.24 192.463V197.239C270.24 198.199 270.288 199.063 270.48 200.479H268.416ZM265.008 199.231C266.928 199.231 268.176 197.959 268.176 195.655V194.359C264.672 194.095 262.464 194.839 262.464 197.023C262.464 198.559 263.448 199.231 265.008 199.231ZM278.79 187.423C281.838 187.423 283.782 189.247 284.166 192.031H282.006C281.55 189.991 280.446 189.007 278.742 189.007C276.75 189.007 275.07 190.567 275.07 193.999C275.07 197.695 276.702 199.231 278.598 199.231C280.278 199.231 281.454 198.271 281.886 196.423H284.046C283.422 199.375 281.31 200.815 278.478 200.815C275.262 200.815 272.814 198.799 272.814 194.143C272.814 189.847 275.598 187.423 278.79 187.423ZM294.469 200.479L289.837 195.103L288.637 196.423V200.479H286.573V182.839H288.637V194.167L294.565 187.759H297.205L291.277 193.759L297.277 200.479H294.469ZM306.338 200.479L306.122 198.655L305.426 200.023C304.562 200.623 303.458 200.815 302.234 200.815C299.93 200.815 298.13 199.543 298.13 197.191C298.13 194.311 300.29 192.823 305.282 192.823H306.098V192.487C306.098 191.935 306.098 191.431 306.05 190.951C305.954 189.775 305.282 189.007 303.578 189.007C301.85 189.007 300.986 189.943 300.842 191.695H298.682C298.874 188.983 300.77 187.423 303.578 187.423C306.602 187.423 307.874 188.695 308.09 190.783C308.138 191.287 308.162 191.911 308.162 192.463V197.239C308.162 198.199 308.21 199.063 308.402 200.479H306.338ZM302.93 199.231C304.85 199.231 306.098 197.959 306.098 195.655V194.359C302.594 194.095 300.386 194.839 300.386 197.023C300.386 198.559 301.37 199.231 302.93 199.231ZM322.904 187.759V197.359C322.904 198.151 322.904 199.135 322.88 199.831C322.76 203.551 320.504 205.519 316.832 205.519C313.208 205.519 311.408 204.007 311.144 201.319L311.12 201.079H313.208L313.232 201.295C313.4 202.855 314.648 203.935 316.832 203.935C319.352 203.935 320.72 202.495 320.816 200.047C320.84 199.447 320.84 199.039 320.84 198.655V198.439L319.88 199.807C319.16 200.407 317.816 200.815 316.52 200.815C312.8 200.815 310.736 198.031 310.736 194.311C310.736 189.607 313.664 187.423 316.952 187.423C318.008 187.423 319.352 187.735 320 188.263L320.84 189.511V187.759H322.904ZM316.832 199.231C318.944 199.231 320.84 197.887 320.84 194.239V193.543C320.84 190.255 318.776 189.007 316.952 189.007C314.72 189.007 312.992 190.735 312.992 194.071C312.992 196.951 314.288 199.231 316.832 199.231ZM336.997 193.759C336.997 193.951 336.997 194.287 336.949 194.743H327.733C327.925 198.103 329.509 199.231 331.381 199.231C333.037 199.231 334.381 198.199 334.669 196.375H336.829C336.325 199.447 333.901 200.815 331.285 200.815C327.973 200.815 325.501 198.655 325.501 194.167C325.501 190.039 328.069 187.423 331.549 187.423C335.053 187.423 336.997 190.039 336.997 193.759ZM331.501 189.007C329.485 189.007 327.997 190.447 327.757 193.159H334.909C334.717 190.519 333.589 189.007 331.501 189.007ZM59.072 228.479L58.856 226.655L58.16 228.023C57.296 228.623 56.192 228.815 54.968 228.815C52.664 228.815 50.864 227.543 50.864 225.191C50.864 222.311 53.024 220.823 58.016 220.823H58.832V220.487C58.832 219.935 58.832 219.431 58.784 218.951C58.688 217.775 58.016 217.007 56.312 217.007C54.584 217.007 53.72 217.943 53.576 219.695H51.416C51.608 216.983 53.504 215.423 56.312 215.423C59.336 215.423 60.608 216.695 60.824 218.783C60.872 219.287 60.896 219.911 60.896 220.463V225.239C60.896 226.199 60.944 227.063 61.136 228.479H59.072ZM55.664 227.231C57.584 227.231 58.832 225.959 58.832 223.655V222.359C55.328 222.095 53.12 222.839 53.12 225.023C53.12 226.559 54.104 227.231 55.664 227.231ZM75.23 219.143C75.278 219.791 75.278 220.295 75.278 221.327V228.479H73.214V221.471C73.214 220.823 73.214 220.295 73.166 219.647C73.046 218.159 72.23 217.055 70.262 217.055C68.27 217.055 66.59 218.543 66.59 222.887V228.479H64.526V215.759H66.59V217.943L67.382 216.479C68.462 215.639 69.398 215.423 70.694 215.423C73.478 215.423 75.038 216.911 75.23 219.143ZM89.8646 210.839V228.479H87.8006V226.439L86.8406 227.807C86.1206 228.407 84.7766 228.815 83.4806 228.815C79.7606 228.815 77.6966 226.031 77.6966 222.311C77.6966 217.607 80.6246 215.423 83.9126 215.423C84.9686 215.423 86.3126 215.735 86.9606 216.263L87.8006 217.511V210.839H89.8646ZM83.7926 227.231C85.9046 227.231 87.8006 225.887 87.8006 222.239V221.543C87.8006 218.255 85.7366 217.007 83.9126 217.007C81.6806 217.007 79.9526 218.735 79.9526 222.071C79.9526 224.951 81.2486 227.231 83.7926 227.231ZM109.426 225.479C109.498 226.271 109.858 226.487 110.89 226.391V228.527C110.194 228.623 109.474 228.647 108.73 228.647C107.218 228.647 106.21 228.047 106.114 226.391C106.09 225.815 106.09 225.215 106.09 224.375V212.879C105.61 212.735 105.154 212.711 104.53 212.711C102.802 212.711 102.01 213.359 101.89 214.391C101.842 214.727 101.842 215.183 101.842 215.519V215.807H104.458V217.991H101.842V228.479H98.5299V217.991H97.4019V215.807H98.5299V215.591C98.5299 215.159 98.5299 214.703 98.5779 214.271C98.7939 211.895 100.45 210.383 104.578 210.383C106.594 210.383 108.178 210.599 109.378 211.007V224.303C109.378 224.807 109.378 225.143 109.426 225.479ZM124.44 221.831C124.44 222.143 124.44 222.527 124.392 222.959H115.32C115.536 225.647 116.736 226.487 118.272 226.487C119.688 226.487 120.72 225.695 120.936 224.327H124.248C123.6 227.303 121.2 228.815 118.2 228.815C114.696 228.815 111.984 226.631 111.984 222.143C111.984 218.231 114.552 215.375 118.464 215.375C122.376 215.375 124.44 218.351 124.44 221.831ZM118.32 217.703C116.784 217.703 115.704 218.687 115.416 220.799H121.032C120.816 218.783 119.904 217.703 118.32 217.703ZM133.026 222.023L137.49 228.479H133.626L131.01 224.063L128.322 228.479H124.53L129.042 221.999L124.698 215.711H128.562L131.106 219.959L133.626 215.711H137.442L133.026 222.023ZM140.754 210.959C141.834 210.959 142.578 211.679 142.578 212.711C142.578 213.767 141.834 214.463 140.754 214.463C139.674 214.463 138.93 213.767 138.93 212.711C138.93 211.679 139.674 210.959 140.754 210.959ZM142.41 228.479H139.098V215.711H142.41V228.479ZM153.057 215.375C156.633 215.375 158.745 218.087 158.745 221.855C158.745 226.463 155.913 228.815 152.625 228.815C151.569 228.815 150.273 228.551 149.625 228.095L148.785 226.775V228.479H145.473V210.839H148.785V217.655L149.745 216.263C150.465 215.687 151.761 215.375 153.057 215.375ZM151.977 226.487C153.897 226.487 155.313 225.023 155.313 222.071C155.313 219.455 154.065 217.703 152.097 217.703C150.273 217.703 148.785 218.831 148.785 221.951V222.551C148.785 225.455 150.441 226.487 151.977 226.487ZM162.551 210.959C163.631 210.959 164.375 211.679 164.375 212.711C164.375 213.767 163.631 214.463 162.551 214.463C161.471 214.463 160.727 213.767 160.727 212.711C160.727 211.679 161.471 210.959 162.551 210.959ZM164.207 228.479H160.895V215.711H164.207V228.479ZM170.486 210.839V224.303C170.486 224.807 170.486 225.143 170.51 225.479C170.582 226.127 170.87 226.343 171.998 226.271V228.551C171.35 228.623 170.702 228.647 169.958 228.647C168.326 228.647 167.294 228.047 167.222 226.391C167.174 225.815 167.174 225.215 167.174 224.375V210.839H170.486ZM175.629 210.959C176.709 210.959 177.453 211.679 177.453 212.711C177.453 213.767 176.709 214.463 175.629 214.463C174.549 214.463 173.805 213.767 173.805 212.711C173.805 211.679 174.549 210.959 175.629 210.959ZM177.285 228.479H173.973V215.711H177.285V228.479ZM184.308 217.991V223.895C184.308 224.327 184.308 224.687 184.332 225.023C184.428 226.271 184.884 226.559 186.732 226.415V228.575C185.988 228.695 185.292 228.743 184.548 228.743C182.076 228.743 181.188 227.927 181.044 226.127C180.996 225.551 180.996 224.999 180.996 224.279V217.991H179.124V215.807H180.996V212.663H184.308V215.807H186.948V217.991H184.308ZM201.116 215.711L195.98 228.959C194.636 232.415 193.244 233.519 190.652 233.519C190.052 233.519 189.644 233.495 189.164 233.423V231.143C189.5 231.191 189.812 231.191 190.148 231.191C191.276 231.191 192.02 230.759 192.548 229.487L192.716 229.079L187.508 215.711H191.204L194.372 225.959L197.492 215.711H201.116ZM204.918 224.159H203.046L202.758 211.919H205.206L204.918 224.159ZM203.982 225.743C204.87 225.743 205.518 226.391 205.518 227.279C205.518 228.167 204.87 228.815 203.982 228.815C203.094 228.815 202.446 228.167 202.446 227.279C202.446 226.391 203.094 225.743 203.982 225.743Z" fill="#231F20"/>
<path d="M126.738 357.782L127.832 352.87H128.164C128.118 353.345 128.096 353.739 128.096 354.052C128.096 354.944 128.379 355.67 128.945 356.229C129.518 356.789 130.264 357.069 131.182 357.069C132.034 357.069 132.682 356.809 133.125 356.288C133.568 355.761 133.789 355.155 133.789 354.472C133.789 354.029 133.688 353.625 133.486 353.261C133.18 352.72 132.363 351.77 131.035 350.409C130.391 349.758 129.977 349.273 129.795 348.954C129.495 348.427 129.346 347.873 129.346 347.294C129.346 346.369 129.691 345.578 130.381 344.921C131.071 344.263 131.956 343.935 133.037 343.935C133.402 343.935 133.747 343.97 134.072 344.042C134.274 344.081 134.642 344.211 135.176 344.433C135.553 344.582 135.762 344.664 135.801 344.677C135.892 344.696 135.993 344.706 136.103 344.706C136.292 344.706 136.455 344.657 136.592 344.56C136.728 344.462 136.888 344.254 137.07 343.935H137.441L136.426 348.329H136.094C136.12 347.938 136.133 347.623 136.133 347.382C136.133 346.594 135.872 345.95 135.351 345.448C134.831 344.947 134.144 344.696 133.291 344.696C132.614 344.696 132.064 344.895 131.641 345.292C131.217 345.689 131.006 346.148 131.006 346.669C131.006 347.125 131.139 347.561 131.406 347.978C131.68 348.388 132.301 349.062 133.271 349.999C134.248 350.93 134.879 351.659 135.166 352.187C135.452 352.707 135.596 353.264 135.596 353.856C135.596 354.527 135.417 355.178 135.059 355.81C134.707 356.435 134.199 356.92 133.535 357.265C132.871 357.61 132.145 357.782 131.357 357.782C130.967 357.782 130.602 357.746 130.264 357.675C129.925 357.603 129.385 357.427 128.642 357.147C128.389 357.05 128.177 357.001 128.008 357.001C127.624 357.001 127.324 357.261 127.109 357.782H126.738ZM145.986 348.642L144.082 355.263L143.867 356.151C143.848 356.236 143.838 356.308 143.838 356.366C143.838 356.47 143.87 356.562 143.935 356.64C143.988 356.698 144.053 356.728 144.131 356.728C144.215 356.728 144.326 356.675 144.463 356.571C144.717 356.382 145.055 355.992 145.478 355.399L145.81 355.634C145.361 356.311 144.899 356.828 144.424 357.187C143.948 357.538 143.509 357.714 143.105 357.714C142.825 357.714 142.614 357.642 142.471 357.499C142.334 357.362 142.266 357.16 142.266 356.894C142.266 356.575 142.337 356.155 142.48 355.634L142.685 354.901C141.833 356.015 141.048 356.793 140.332 357.235C139.818 357.554 139.313 357.714 138.818 357.714C138.343 357.714 137.933 357.519 137.588 357.128C137.243 356.731 137.07 356.187 137.07 355.497C137.07 354.462 137.379 353.371 137.998 352.226C138.623 351.073 139.414 350.152 140.371 349.462C141.12 348.915 141.826 348.642 142.49 348.642C142.887 348.642 143.216 348.746 143.476 348.954C143.743 349.162 143.945 349.507 144.082 349.989L144.434 348.876L145.986 348.642ZM142.51 349.149C142.093 349.149 141.65 349.345 141.182 349.735C140.517 350.289 139.925 351.109 139.404 352.196C138.89 353.284 138.633 354.267 138.633 355.146C138.633 355.588 138.743 355.94 138.965 356.2C139.186 356.454 139.44 356.581 139.726 356.581C140.436 356.581 141.208 356.057 142.041 355.009C143.154 353.616 143.711 352.187 143.711 350.722C143.711 350.168 143.603 349.768 143.389 349.521C143.174 349.273 142.881 349.149 142.51 349.149ZM152.373 343.593L150.449 350.341C151.074 349.69 151.618 349.244 152.08 349.003C152.549 348.762 153.037 348.642 153.545 348.642C154.261 348.642 154.847 348.879 155.303 349.354C155.758 349.83 155.986 350.474 155.986 351.288C155.986 352.336 155.687 353.381 155.088 354.423C154.489 355.458 153.737 356.265 152.832 356.845C151.927 357.424 151.035 357.714 150.156 357.714C149.173 357.714 148.164 357.346 147.129 356.61L150.098 346.386C150.325 345.598 150.439 345.136 150.439 344.999C150.439 344.83 150.387 344.703 150.283 344.618C150.133 344.501 149.912 344.442 149.619 344.442C149.482 344.442 149.274 344.465 148.994 344.511V344.14L152.373 343.593ZM148.594 356.718C149.245 357.076 149.818 357.255 150.312 357.255C150.885 357.255 151.478 357.047 152.09 356.63C152.708 356.207 153.242 355.497 153.691 354.501C154.147 353.505 154.375 352.499 154.375 351.483C154.375 350.884 154.225 350.416 153.926 350.077C153.633 349.739 153.284 349.569 152.881 349.569C152.275 349.569 151.683 349.813 151.103 350.302C150.524 350.784 150.111 351.457 149.863 352.323L148.594 356.718ZM157.646 349.188L161.016 348.642L159.609 353.388C160.749 351.441 161.784 350.08 162.715 349.306C163.242 348.863 163.672 348.642 164.004 348.642C164.219 348.642 164.388 348.707 164.512 348.837C164.635 348.961 164.697 349.143 164.697 349.384C164.697 349.813 164.586 350.224 164.365 350.614C164.209 350.907 163.984 351.054 163.691 351.054C163.542 351.054 163.411 351.005 163.301 350.907C163.197 350.81 163.131 350.66 163.105 350.458C163.092 350.334 163.063 350.253 163.017 350.214C162.965 350.162 162.904 350.136 162.832 350.136C162.721 350.136 162.617 350.162 162.519 350.214C162.35 350.305 162.093 350.559 161.748 350.976C161.208 351.614 160.622 352.44 159.99 353.456C159.717 353.886 159.482 354.371 159.287 354.911C159.014 355.653 158.857 356.099 158.818 356.249L158.506 357.479H157.012L158.818 351.415C159.027 350.712 159.131 350.211 159.131 349.911C159.131 349.794 159.082 349.696 158.984 349.618C158.854 349.514 158.682 349.462 158.467 349.462C158.33 349.462 158.079 349.491 157.715 349.55L157.646 349.188ZM168.867 344.765C169.141 344.765 169.372 344.859 169.56 345.048C169.749 345.237 169.844 345.468 169.844 345.741C169.844 346.008 169.746 346.239 169.551 346.435C169.362 346.623 169.134 346.718 168.867 346.718C168.6 346.718 168.369 346.623 168.174 346.435C167.985 346.239 167.891 346.008 167.891 345.741C167.891 345.468 167.985 345.237 168.174 345.048C168.363 344.859 168.594 344.765 168.867 344.765ZM168.994 348.642L167.06 355.487C166.93 355.95 166.865 356.226 166.865 356.317C166.865 356.422 166.894 356.506 166.953 356.571C167.018 356.636 167.093 356.669 167.178 356.669C167.275 356.669 167.392 356.617 167.529 356.513C167.9 356.22 168.275 355.803 168.652 355.263L168.994 355.487C168.551 356.164 168.031 356.734 167.432 357.196C166.989 357.541 166.566 357.714 166.162 357.714C165.895 357.714 165.677 357.636 165.508 357.479C165.338 357.317 165.254 357.115 165.254 356.874C165.254 356.633 165.335 356.233 165.498 355.673L166.767 351.298C166.976 350.582 167.08 350.132 167.08 349.95C167.08 349.807 167.028 349.69 166.924 349.599C166.826 349.507 166.689 349.462 166.514 349.462C166.37 349.462 166.074 349.498 165.625 349.569V349.188L168.994 348.642ZM174.375 348.642L173.076 353.085C174.294 351.269 175.225 350.074 175.869 349.501C176.52 348.928 177.145 348.642 177.744 348.642C178.07 348.642 178.336 348.749 178.545 348.964C178.76 349.179 178.867 349.459 178.867 349.804C178.867 350.194 178.773 350.715 178.584 351.366L177.392 355.478C177.256 355.953 177.187 356.243 177.187 356.347C177.187 356.438 177.213 356.516 177.266 356.581C177.318 356.64 177.373 356.669 177.432 356.669C177.51 356.669 177.604 356.627 177.715 356.542C178.06 356.269 178.437 355.852 178.848 355.292L179.15 355.478C178.545 356.343 177.972 356.962 177.432 357.333C177.054 357.587 176.715 357.714 176.416 357.714C176.175 357.714 175.983 357.639 175.84 357.489C175.697 357.346 175.625 357.151 175.625 356.903C175.625 356.591 175.736 356.054 175.957 355.292L177.09 351.366C177.233 350.878 177.305 350.497 177.305 350.224C177.305 350.093 177.262 349.989 177.178 349.911C177.093 349.826 176.989 349.784 176.865 349.784C176.683 349.784 176.465 349.862 176.211 350.019C175.729 350.312 175.228 350.797 174.707 351.474C174.186 352.144 173.636 353.004 173.057 354.052C172.751 354.605 172.497 355.211 172.295 355.868L171.807 357.479H170.342L172.119 351.366C172.327 350.631 172.432 350.188 172.432 350.038C172.432 349.895 172.373 349.771 172.256 349.667C172.145 349.556 172.005 349.501 171.836 349.501C171.758 349.501 171.621 349.514 171.426 349.54L171.055 349.599L170.996 349.247L174.375 348.642ZM189.346 348.642L187.441 355.263L187.226 356.151C187.207 356.236 187.197 356.308 187.197 356.366C187.197 356.47 187.23 356.562 187.295 356.64C187.347 356.698 187.412 356.728 187.49 356.728C187.575 356.728 187.685 356.675 187.822 356.571C188.076 356.382 188.415 355.992 188.838 355.399L189.17 355.634C188.721 356.311 188.258 356.828 187.783 357.187C187.308 357.538 186.868 357.714 186.465 357.714C186.185 357.714 185.973 357.642 185.83 357.499C185.693 357.362 185.625 357.16 185.625 356.894C185.625 356.575 185.697 356.155 185.84 355.634L186.045 354.901C185.192 356.015 184.407 356.793 183.691 357.235C183.177 357.554 182.672 357.714 182.178 357.714C181.702 357.714 181.292 357.519 180.947 357.128C180.602 356.731 180.43 356.187 180.43 355.497C180.43 354.462 180.739 353.371 181.357 352.226C181.982 351.073 182.773 350.152 183.73 349.462C184.479 348.915 185.185 348.642 185.85 348.642C186.247 348.642 186.575 348.746 186.836 348.954C187.103 349.162 187.305 349.507 187.441 349.989L187.793 348.876L189.346 348.642ZM185.869 349.149C185.452 349.149 185.01 349.345 184.541 349.735C183.877 350.289 183.284 351.109 182.764 352.196C182.249 353.284 181.992 354.267 181.992 355.146C181.992 355.588 182.103 355.94 182.324 356.2C182.545 356.454 182.799 356.581 183.086 356.581C183.795 356.581 184.567 356.057 185.4 355.009C186.514 353.616 187.07 352.187 187.07 350.722C187.07 350.168 186.963 349.768 186.748 349.521C186.533 349.273 186.24 349.149 185.869 349.149ZM195.098 357.782L196.191 352.87H196.523C196.478 353.345 196.455 353.739 196.455 354.052C196.455 354.944 196.738 355.67 197.305 356.229C197.878 356.789 198.623 357.069 199.541 357.069C200.394 357.069 201.042 356.809 201.484 356.288C201.927 355.761 202.148 355.155 202.148 354.472C202.148 354.029 202.047 353.625 201.846 353.261C201.54 352.72 200.723 351.77 199.394 350.409C198.75 349.758 198.336 349.273 198.154 348.954C197.855 348.427 197.705 347.873 197.705 347.294C197.705 346.369 198.05 345.578 198.74 344.921C199.43 344.263 200.316 343.935 201.396 343.935C201.761 343.935 202.106 343.97 202.432 344.042C202.633 344.081 203.001 344.211 203.535 344.433C203.913 344.582 204.121 344.664 204.16 344.677C204.251 344.696 204.352 344.706 204.463 344.706C204.652 344.706 204.814 344.657 204.951 344.56C205.088 344.462 205.247 344.254 205.43 343.935H205.801L204.785 348.329H204.453C204.479 347.938 204.492 347.623 204.492 347.382C204.492 346.594 204.232 345.95 203.711 345.448C203.19 344.947 202.503 344.696 201.65 344.696C200.973 344.696 200.423 344.895 200 345.292C199.577 345.689 199.365 346.148 199.365 346.669C199.365 347.125 199.499 347.561 199.766 347.978C200.039 348.388 200.661 349.062 201.631 349.999C202.607 350.93 203.239 351.659 203.525 352.187C203.812 352.707 203.955 353.264 203.955 353.856C203.955 354.527 203.776 355.178 203.418 355.81C203.066 356.435 202.559 356.92 201.894 357.265C201.23 357.61 200.504 357.782 199.717 357.782C199.326 357.782 198.961 357.746 198.623 357.675C198.284 357.603 197.744 357.427 197.002 357.147C196.748 357.05 196.536 357.001 196.367 357.001C195.983 357.001 195.684 357.261 195.469 357.782H195.098ZM214.346 348.642L212.441 355.263L212.226 356.151C212.207 356.236 212.197 356.308 212.197 356.366C212.197 356.47 212.23 356.562 212.295 356.64C212.347 356.698 212.412 356.728 212.49 356.728C212.575 356.728 212.685 356.675 212.822 356.571C213.076 356.382 213.415 355.992 213.838 355.399L214.17 355.634C213.721 356.311 213.258 356.828 212.783 357.187C212.308 357.538 211.868 357.714 211.465 357.714C211.185 357.714 210.973 357.642 210.83 357.499C210.693 357.362 210.625 357.16 210.625 356.894C210.625 356.575 210.697 356.155 210.84 355.634L211.045 354.901C210.192 356.015 209.407 356.793 208.691 357.235C208.177 357.554 207.672 357.714 207.178 357.714C206.702 357.714 206.292 357.519 205.947 357.128C205.602 356.731 205.43 356.187 205.43 355.497C205.43 354.462 205.739 353.371 206.357 352.226C206.982 351.073 207.773 350.152 208.73 349.462C209.479 348.915 210.185 348.642 210.85 348.642C211.247 348.642 211.575 348.746 211.836 348.954C212.103 349.162 212.305 349.507 212.441 349.989L212.793 348.876L214.346 348.642ZM210.869 349.149C210.452 349.149 210.01 349.345 209.541 349.735C208.877 350.289 208.284 351.109 207.764 352.196C207.249 353.284 206.992 354.267 206.992 355.146C206.992 355.588 207.103 355.94 207.324 356.2C207.545 356.454 207.799 356.581 208.086 356.581C208.795 356.581 209.567 356.057 210.4 355.009C211.514 353.616 212.07 352.187 212.07 350.722C212.07 350.168 211.963 349.768 211.748 349.521C211.533 349.273 211.24 349.149 210.869 349.149ZM220.908 343.593L217.568 355.214C217.406 355.793 217.324 356.148 217.324 356.278C217.324 356.376 217.353 356.457 217.412 356.522C217.477 356.588 217.555 356.62 217.646 356.62C217.77 356.62 217.904 356.565 218.047 356.454C218.385 356.187 218.74 355.774 219.111 355.214L219.404 355.517C218.786 356.389 218.216 356.998 217.695 357.343C217.311 357.59 216.947 357.714 216.601 357.714C216.354 357.714 216.146 357.629 215.976 357.46C215.814 357.291 215.732 357.095 215.732 356.874C215.732 356.64 215.836 356.158 216.045 355.429L218.691 346.269C218.906 345.52 219.014 345.09 219.014 344.979C219.014 344.823 218.952 344.696 218.828 344.599C218.704 344.494 218.512 344.442 218.252 344.442C218.102 344.442 217.874 344.465 217.568 344.511V344.149L220.908 343.593ZM222.91 353.798C222.864 354.123 222.842 354.394 222.842 354.608C222.842 355.188 223.047 355.683 223.457 356.093C223.867 356.496 224.365 356.698 224.951 356.698C225.42 356.698 225.869 356.604 226.299 356.415C226.735 356.22 227.379 355.793 228.232 355.136L228.437 355.419C226.894 356.949 225.423 357.714 224.023 357.714C223.073 357.714 222.357 357.414 221.875 356.815C221.393 356.216 221.152 355.556 221.152 354.833C221.152 353.863 221.452 352.87 222.051 351.854C222.65 350.839 223.402 350.051 224.307 349.491C225.211 348.925 226.142 348.642 227.1 348.642C227.79 348.642 228.301 348.782 228.633 349.062C228.965 349.341 229.131 349.674 229.131 350.058C229.131 350.598 228.916 351.116 228.486 351.61C227.92 352.255 227.086 352.776 225.986 353.173C225.257 353.44 224.232 353.648 222.91 353.798ZM222.978 353.319C223.942 353.209 224.726 353.02 225.332 352.753C226.133 352.395 226.732 351.968 227.129 351.474C227.532 350.972 227.734 350.497 227.734 350.048C227.734 349.774 227.646 349.553 227.471 349.384C227.301 349.215 227.057 349.13 226.738 349.13C226.074 349.13 225.368 349.485 224.619 350.194C223.877 350.897 223.33 351.939 222.978 353.319ZM235.283 343.593L232.539 353.075C233.724 351.291 234.648 350.106 235.312 349.521C235.976 348.935 236.611 348.642 237.217 348.642C237.529 348.642 237.79 348.749 237.998 348.964C238.206 349.179 238.31 349.465 238.31 349.823C238.31 350.253 238.219 350.774 238.037 351.386L236.846 355.478C236.696 355.972 236.621 356.246 236.621 356.298C236.621 356.389 236.647 356.464 236.699 356.522C236.758 356.581 236.823 356.61 236.894 356.61C236.979 356.61 237.077 356.568 237.187 356.483C237.559 356.197 237.926 355.8 238.291 355.292L238.594 355.478C238.372 355.823 238.063 356.203 237.666 356.62C237.275 357.03 236.937 357.317 236.65 357.479C236.37 357.636 236.12 357.714 235.898 357.714C235.657 357.714 235.459 357.636 235.303 357.479C235.153 357.33 235.078 357.134 235.078 356.894C235.078 356.607 235.192 356.073 235.42 355.292L236.543 351.386C236.686 350.897 236.758 350.513 236.758 350.233C236.758 350.103 236.715 349.999 236.631 349.921C236.553 349.843 236.448 349.804 236.318 349.804C236.129 349.804 235.915 349.875 235.674 350.019C235.231 350.292 234.72 350.8 234.141 351.542C233.984 351.744 233.463 352.558 232.578 353.983C232.305 354.439 232.08 354.937 231.904 355.478L231.279 357.479H229.814L233.027 346.308L233.369 345.097C233.369 344.927 233.297 344.778 233.154 344.647C233.017 344.517 232.848 344.452 232.646 344.452C232.529 344.452 232.35 344.472 232.109 344.511L231.904 344.54V344.159L235.283 343.593ZM248.828 348.876L247.129 354.696C246.875 355.562 246.748 356.109 246.748 356.337C246.748 356.454 246.767 356.542 246.807 356.601C246.852 356.653 246.911 356.679 246.982 356.679C247.093 356.679 247.213 356.63 247.344 356.532C247.48 356.428 247.819 356.024 248.359 355.321L248.652 355.546C248.138 356.36 247.611 356.959 247.07 357.343C246.712 357.59 246.367 357.714 246.035 357.714C245.781 357.714 245.583 357.642 245.439 357.499C245.296 357.356 245.225 357.17 245.225 356.942C245.225 356.721 245.267 356.428 245.351 356.063C245.456 355.582 245.752 354.534 246.24 352.919C245.133 354.735 244.206 355.989 243.457 356.679C242.715 357.369 242.025 357.714 241.387 357.714C241.087 357.714 240.833 357.61 240.625 357.401C240.417 357.193 240.312 356.929 240.312 356.61C240.312 356.122 240.456 355.373 240.742 354.364L241.592 351.347C241.8 350.624 241.904 350.175 241.904 349.999C241.904 349.921 241.875 349.856 241.816 349.804C241.764 349.745 241.706 349.716 241.641 349.716C241.504 349.716 241.367 349.765 241.23 349.862C241.094 349.96 240.784 350.321 240.303 350.946L240 350.731C240.488 349.976 241.006 349.42 241.553 349.062C241.969 348.782 242.353 348.642 242.705 348.642C242.946 348.642 243.141 348.72 243.291 348.876C243.447 349.026 243.525 349.221 243.525 349.462C243.525 349.813 243.395 350.442 243.135 351.347L242.217 354.501C241.963 355.36 241.836 355.904 241.836 356.132C241.836 356.256 241.875 356.356 241.953 356.435C242.038 356.506 242.148 356.542 242.285 356.542C242.5 356.542 242.78 356.435 243.125 356.22C243.47 356.005 243.929 355.53 244.502 354.794C245.081 354.052 245.557 353.358 245.928 352.714C246.305 352.063 246.706 351.031 247.129 349.618L247.344 348.876H248.828ZM260.234 343.593L256.875 355.116C256.693 355.741 256.601 356.151 256.601 356.347C256.601 356.412 256.628 356.474 256.68 356.532C256.738 356.591 256.797 356.62 256.855 356.62C256.94 356.62 257.041 356.578 257.158 356.493C257.379 356.337 257.751 355.946 258.271 355.321L258.603 355.526C258.135 356.177 257.659 356.705 257.178 357.108C256.702 357.512 256.256 357.714 255.84 357.714C255.618 357.714 255.436 357.636 255.293 357.479C255.15 357.323 255.078 357.102 255.078 356.815C255.078 356.444 255.176 355.946 255.371 355.321L255.752 354.11C254.808 355.569 253.948 356.578 253.174 357.138C252.64 357.522 252.129 357.714 251.641 357.714C251.146 357.714 250.713 357.496 250.342 357.06C249.977 356.617 249.795 356.018 249.795 355.263C249.795 354.293 250.104 353.257 250.723 352.157C251.341 351.057 252.158 350.162 253.174 349.472C253.975 348.918 254.71 348.642 255.381 348.642C255.732 348.642 256.035 348.713 256.289 348.856C256.543 349 256.794 349.237 257.041 349.569L257.998 346.171C258.07 345.93 258.128 345.738 258.174 345.595C258.252 345.334 258.291 345.119 258.291 344.95C258.291 344.813 258.242 344.7 258.144 344.608C258.008 344.498 257.832 344.442 257.617 344.442C257.467 344.442 257.22 344.465 256.875 344.511V344.149L260.234 343.593ZM256.611 350.526C256.611 350.11 256.491 349.774 256.25 349.521C256.009 349.267 255.703 349.14 255.332 349.14C254.512 349.14 253.656 349.817 252.764 351.171C251.878 352.525 251.435 353.821 251.435 355.058C251.435 355.546 251.543 355.92 251.758 356.181C251.973 356.435 252.23 356.562 252.529 356.562C253.206 356.562 254.056 355.829 255.078 354.364C256.1 352.899 256.611 351.62 256.611 350.526ZM270.234 343.593L266.875 355.116C266.693 355.741 266.601 356.151 266.601 356.347C266.601 356.412 266.628 356.474 266.68 356.532C266.738 356.591 266.797 356.62 266.855 356.62C266.94 356.62 267.041 356.578 267.158 356.493C267.379 356.337 267.751 355.946 268.271 355.321L268.603 355.526C268.135 356.177 267.659 356.705 267.178 357.108C266.702 357.512 266.256 357.714 265.84 357.714C265.618 357.714 265.436 357.636 265.293 357.479C265.15 357.323 265.078 357.102 265.078 356.815C265.078 356.444 265.176 355.946 265.371 355.321L265.752 354.11C264.808 355.569 263.948 356.578 263.174 357.138C262.64 357.522 262.129 357.714 261.641 357.714C261.146 357.714 260.713 357.496 260.342 357.06C259.977 356.617 259.795 356.018 259.795 355.263C259.795 354.293 260.104 353.257 260.723 352.157C261.341 351.057 262.158 350.162 263.174 349.472C263.975 348.918 264.71 348.642 265.381 348.642C265.732 348.642 266.035 348.713 266.289 348.856C266.543 349 266.794 349.237 267.041 349.569L267.998 346.171C268.07 345.93 268.128 345.738 268.174 345.595C268.252 345.334 268.291 345.119 268.291 344.95C268.291 344.813 268.242 344.7 268.144 344.608C268.008 344.498 267.832 344.442 267.617 344.442C267.467 344.442 267.22 344.465 266.875 344.511V344.149L270.234 343.593ZM266.611 350.526C266.611 350.11 266.491 349.774 266.25 349.521C266.009 349.267 265.703 349.14 265.332 349.14C264.512 349.14 263.656 349.817 262.764 351.171C261.878 352.525 261.435 353.821 261.435 355.058C261.435 355.546 261.543 355.92 261.758 356.181C261.973 356.435 262.23 356.562 262.529 356.562C263.206 356.562 264.056 355.829 265.078 354.364C266.1 352.899 266.611 351.62 266.611 350.526ZM273.887 344.765C274.16 344.765 274.391 344.859 274.58 345.048C274.769 345.237 274.863 345.468 274.863 345.741C274.863 346.008 274.766 346.239 274.57 346.435C274.381 346.623 274.154 346.718 273.887 346.718C273.62 346.718 273.389 346.623 273.193 346.435C273.004 346.239 272.91 346.008 272.91 345.741C272.91 345.468 273.004 345.237 273.193 345.048C273.382 344.859 273.613 344.765 273.887 344.765ZM274.014 348.642L272.08 355.487C271.95 355.95 271.885 356.226 271.885 356.317C271.885 356.422 271.914 356.506 271.973 356.571C272.038 356.636 272.113 356.669 272.197 356.669C272.295 356.669 272.412 356.617 272.549 356.513C272.92 356.22 273.294 355.803 273.672 355.263L274.014 355.487C273.571 356.164 273.05 356.734 272.451 357.196C272.008 357.541 271.585 357.714 271.182 357.714C270.915 357.714 270.697 357.636 270.527 357.479C270.358 357.317 270.273 357.115 270.273 356.874C270.273 356.633 270.355 356.233 270.517 355.673L271.787 351.298C271.995 350.582 272.1 350.132 272.1 349.95C272.1 349.807 272.047 349.69 271.943 349.599C271.846 349.507 271.709 349.462 271.533 349.462C271.39 349.462 271.094 349.498 270.644 349.569V349.188L274.014 348.642ZM279.394 348.642L278.096 353.085C279.313 351.269 280.244 350.074 280.889 349.501C281.54 348.928 282.165 348.642 282.764 348.642C283.089 348.642 283.356 348.749 283.564 348.964C283.779 349.179 283.887 349.459 283.887 349.804C283.887 350.194 283.792 350.715 283.603 351.366L282.412 355.478C282.275 355.953 282.207 356.243 282.207 356.347C282.207 356.438 282.233 356.516 282.285 356.581C282.337 356.64 282.392 356.669 282.451 356.669C282.529 356.669 282.624 356.627 282.734 356.542C283.079 356.269 283.457 355.852 283.867 355.292L284.17 355.478C283.564 356.343 282.991 356.962 282.451 357.333C282.073 357.587 281.735 357.714 281.435 357.714C281.195 357.714 281.003 357.639 280.859 357.489C280.716 357.346 280.644 357.151 280.644 356.903C280.644 356.591 280.755 356.054 280.976 355.292L282.109 351.366C282.253 350.878 282.324 350.497 282.324 350.224C282.324 350.093 282.282 349.989 282.197 349.911C282.113 349.826 282.008 349.784 281.885 349.784C281.702 349.784 281.484 349.862 281.23 350.019C280.749 350.312 280.247 350.797 279.726 351.474C279.206 352.144 278.656 353.004 278.076 354.052C277.77 354.605 277.516 355.211 277.314 355.868L276.826 357.479H275.361L277.139 351.366C277.347 350.631 277.451 350.188 277.451 350.038C277.451 349.895 277.392 349.771 277.275 349.667C277.165 349.556 277.025 349.501 276.855 349.501C276.777 349.501 276.641 349.514 276.445 349.54L276.074 349.599L276.016 349.247L279.394 348.642ZM284.775 359.677C285.264 359.455 285.661 359.175 285.967 358.837C286.201 358.576 286.318 358.326 286.318 358.085C286.318 357.968 286.299 357.86 286.26 357.763C286.234 357.711 286.142 357.606 285.986 357.45C285.83 357.294 285.742 357.187 285.723 357.128C285.677 357.017 285.654 356.89 285.654 356.747C285.654 356.467 285.749 356.226 285.937 356.024C286.133 355.823 286.361 355.722 286.621 355.722C286.888 355.722 287.122 355.829 287.324 356.044C287.532 356.259 287.637 356.529 287.637 356.854C287.637 357.434 287.409 358.02 286.953 358.612C286.497 359.205 285.836 359.664 284.971 359.989L284.775 359.677ZM298.076 344.237H303.31C304.476 344.237 305.309 344.299 305.81 344.423C306.468 344.579 306.976 344.885 307.334 345.341C307.698 345.79 307.881 346.301 307.881 346.874C307.881 347.343 307.738 347.821 307.451 348.31C307.165 348.798 306.735 349.201 306.162 349.521C305.596 349.833 304.723 350.123 303.545 350.39C304.769 350.735 305.618 351.177 306.094 351.718C306.569 352.258 306.807 352.886 306.807 353.603C306.807 354.273 306.572 354.937 306.103 355.595C305.635 356.246 305.013 356.724 304.238 357.03C303.463 357.33 302.044 357.479 299.98 357.479H294.473L294.6 357.118C295.133 357.118 295.514 357.069 295.742 356.972C295.976 356.874 296.162 356.724 296.299 356.522C296.442 356.314 296.608 355.884 296.797 355.233L299.16 347.089C299.401 346.262 299.521 345.709 299.521 345.429C299.521 345.201 299.424 345.012 299.228 344.862C299.04 344.713 298.623 344.625 297.978 344.599L298.076 344.237ZM301.074 350.087C301.96 350.074 302.656 349.934 303.164 349.667C303.678 349.4 304.088 348.964 304.394 348.358C304.707 347.746 304.863 347.17 304.863 346.63C304.863 346.122 304.704 345.709 304.385 345.39C304.066 345.071 303.639 344.918 303.105 344.931L302.568 344.95L301.074 350.087ZM300.84 350.819L299.15 356.708C299.476 356.721 299.72 356.728 299.883 356.728C301.335 356.728 302.344 356.324 302.91 355.517C303.476 354.703 303.76 353.834 303.76 352.909C303.76 352.466 303.649 352.076 303.428 351.737C303.213 351.392 302.933 351.155 302.588 351.024C302.243 350.888 301.66 350.819 300.84 350.819ZM316.426 353.212H312.324L311.504 354.228L310.566 355.351C310.384 355.591 310.251 355.81 310.166 356.005C310.101 356.155 310.068 356.304 310.068 356.454C310.068 356.61 310.15 356.757 310.312 356.894C310.482 357.024 310.758 357.099 311.142 357.118V357.479H307.187L307.285 357.118C307.637 357.06 307.949 356.936 308.223 356.747C308.587 356.487 309.111 355.95 309.795 355.136L319.18 343.935H319.619L319.18 354.774C319.16 355.341 319.15 355.683 319.15 355.8C319.15 356.243 319.238 356.565 319.414 356.767C319.596 356.968 319.896 357.086 320.312 357.118L320.215 357.479H314.482L314.59 357.118C315.156 357.066 315.482 357.021 315.566 356.981C315.749 356.89 315.915 356.701 316.064 356.415C316.214 356.122 316.305 355.618 316.338 354.901L316.426 353.212ZM316.426 352.411L316.68 348.095L312.998 352.411H316.426ZM323.75 344.237H334.404L333.398 347.802H333.047C333.06 347.613 333.066 347.447 333.066 347.304C333.066 346.627 332.868 346.103 332.471 345.731C332.073 345.354 331.403 345.139 330.459 345.087L327.51 355.058C327.347 355.611 327.266 356.021 327.266 356.288C327.266 356.535 327.366 356.734 327.568 356.884C327.77 357.027 328.18 357.105 328.799 357.118L328.711 357.479H322.139L322.256 357.118C322.926 357.118 323.415 356.994 323.721 356.747C324.027 356.493 324.307 355.93 324.56 355.058L327.51 345.087C326.494 345.119 325.644 345.341 324.961 345.751C324.277 346.161 323.652 346.845 323.086 347.802H322.705L323.75 344.237ZM339.766 353.212H335.664L334.844 354.228L333.906 355.351C333.724 355.591 333.59 355.81 333.506 356.005C333.441 356.155 333.408 356.304 333.408 356.454C333.408 356.61 333.489 356.757 333.652 356.894C333.822 357.024 334.098 357.099 334.482 357.118V357.479H330.527L330.625 357.118C330.976 357.06 331.289 356.936 331.562 356.747C331.927 356.487 332.451 355.95 333.135 355.136L342.519 343.935H342.959L342.519 354.774C342.5 355.341 342.49 355.683 342.49 355.8C342.49 356.243 342.578 356.565 342.754 356.767C342.936 356.968 343.236 357.086 343.652 357.118L343.555 357.479H337.822L337.93 357.118C338.496 357.066 338.822 357.021 338.906 356.981C339.088 356.89 339.254 356.701 339.404 356.415C339.554 356.122 339.645 355.618 339.678 354.901L339.766 353.212ZM339.766 352.411L340.019 348.095L336.338 352.411H339.766ZM346.66 355.731C346.94 355.731 347.174 355.829 347.363 356.024C347.559 356.213 347.656 356.444 347.656 356.718C347.656 356.991 347.559 357.226 347.363 357.421C347.168 357.61 346.934 357.704 346.66 357.704C346.387 357.704 346.152 357.61 345.957 357.421C345.768 357.226 345.674 356.991 345.674 356.718C345.674 356.444 345.768 356.213 345.957 356.024C346.152 355.829 346.387 355.731 346.66 355.731Z" fill="#231F20"/>
<path d="M167.045 35.1073C166.974 35.395 166.638 35.7251 166.513 36.0542C165.993 37.4326 165.711 37.9226 165.302 39.2092C164.593 41.1027 164.13 47.0143 163.157 47.0508C163.157 47.0508 163.157 47.0508 163.157 47.0508C163.146 47.0508 163.135 47.0502 163.125 47.049C162.92 47.0281 162.708 46.5013 162.474 46.4186C162.24 46.3359 160.716 46.3764 160.622 45.5882C160.474 44.4452 161.062 41.7557 161.133 41.1628C161.164 40.7519 161.068 40.2249 161.112 39.6916C161.26 37.978 161.556 37.1325 161.445 35.4957C161.823 34.949 162.218 34.4194 162.631 33.9055C162.735 33.091 163.437 32.0519 163.586 31.59C163.705 31.2091 163.588 30.912 163.726 30.517C163.879 30.0737 164.357 29.4953 164.664 28.7041C165.174 27.4116 164.769 26.922 165.073 26.121C165.391 25.287 166.322 24.2474 166.716 23.1679C166.73 23.0098 166.745 22.8513 166.761 22.6925C166.578 22.6954 166.395 22.6997 166.212 22.7053C166.444 22.1687 166.84 22.1327 167.125 21.6913C167.463 21.1724 167.386 20.73 167.621 20.3802C167.813 20.0939 168.278 19.8599 168.525 19.4896C168.886 18.9505 168.515 18.8397 168.669 18.5124C168.716 18.3752 170.17 16.1867 170.278 16.0796C170.993 15.2085 171.443 15.5002 172.075 14.8808C173.833 13.1729 175.416 11.1372 177.136 9.56084C177.901 8.8593 178.793 8.24417 179.695 7.74358C179.183 9.88109 182.709 8.95852 180.384 7.66804C181.507 7.3355 181.878 6.36009 182.877 5.91311C183.523 5.6305 184.1 5.69652 184.983 5.24027C186.536 4.43464 188.016 2.74905 189.102 4.26162C190.918 3.21379 192.792 3.37659 193.118 1.58958C193.62 1.3373 195.186 1.95783 195.785 1.97459C196.36 1.92266 200.679 1.72701 201.372 1.75151C202.077 1.71282 203.292 1.6748 203.884 1.50761C204.123 1.4391 204.34 1.20312 204.572 0.985856C205.051 0.53433 205.63 0.153531 206.469 1.61878C208.014 1.4954 208.565 1.59377 209.96 1.98468C210.212 2.05725 210.201 2.38173 210.349 2.39911C210.655 2.43468 211.206 2.26137 211.762 2.31333C212.678 2.39931 213.055 3.17457 213.153 2.12129C213.78 2.05209 214.419 1.99618 215.059 1.95201C215.224 2.1968 215.384 2.44292 215.542 2.6903C215.91 2.5462 216.284 2.4061 216.662 2.27004C215.894 3.6588 218.326 3.37935 217.872 2.32938C218.935 2.96001 219.961 3.63353 220.948 4.34609C220.159 5.94235 223.234 5.47757 223.444 4.51336C223.569 4.56854 223.694 4.62426 223.819 4.68052C224.707 5.5977 225.872 5.71726 226.996 6.69261C228.103 7.67449 227.884 7.77314 227.818 8.71282C228.128 8.84143 228.436 8.97358 228.744 9.10924C231.513 8.12933 228.991 11.2428 232.417 11.5739C232.259 13.3098 234.481 14.1695 235.922 14.9457C236.088 15.0338 236.295 14.8283 236.532 14.9349C237.116 15.1955 237.888 16.5529 238.545 15.8812C238.708 16.4566 238.858 17.0319 238.994 17.6069C239.405 17.8194 239.816 18.0395 240.225 18.2666C240.454 18.0788 240.683 17.8909 240.912 17.703C240.692 19.0181 241.823 19.8684 242.022 20.5678C242.06 20.7061 241.743 20.9662 241.888 21.3694C242.056 21.8411 242.658 22.5222 242.856 23.0795C243.363 23.0258 243.872 22.9786 244.384 22.9378C245.153 23.7197 244.284 24.6473 244.496 25.2202C244.544 25.3182 245.547 27.0515 245.609 27.1441C246.168 27.8533 247.049 27.1702 247.861 29.6755C247.999 30.123 247.8 30.602 247.933 30.9977C248.178 31.6805 249.645 33.5558 250.415 33.5306C249.788 34.675 250.741 36.929 250.603 37.6999C250.563 37.9279 249.983 38.093 249.975 38.7563C249.972 39.2908 250.664 40.5668 250.663 41.2512C250.663 41.9745 250.181 42.2843 250.176 42.5991C250.172 42.898 250.606 43.137 250.635 43.5481C250.718 44.8412 250.09 46.0048 250.079 47.0048C250.079 47.0201 250.079 47.0355 250.079 47.0508C250.085 48.4726 251.219 49.7839 251.645 51.0774C251.54 51.3814 251.252 51.6568 251.215 51.9794C250.773 55.9749 249.462 60.3555 247.737 63.9537C246.989 65.6946 243.446 68.936 246.402 69.132C246.554 69.9821 243.107 73.4606 242.533 74.1125C241.999 74.8223 241.947 75.6742 241.508 76.2324C240.168 77.9057 238.929 78.7893 237.349 80.881C236.94 81.4199 236.779 82.3172 236.469 82.579C236.096 82.8933 235.346 82.8243 234.845 83.1908C233.665 84.0838 231.527 85.8406 230.263 86.5092C230.034 86.6327 229.705 86.2901 229.316 86.3591C227.806 86.6286 226.454 87.4009 227.404 88.5616C225.373 88.6965 224.177 90.0784 222.575 90.7571C219.229 92.2927 212.696 93.4147 209.59 94.1419C207.639 94.6394 207.687 95.2806 204.703 94.7307C204.659 94.7221 204.616 94.7134 204.572 94.7044C203.954 94.5763 203.338 94.4074 202.608 94.2328C200.749 93.7855 199.248 92.5134 197.691 93.555C195.726 92.8773 194.08 92.6979 192.918 91.2552C192.684 91.455 192.448 91.6522 192.21 91.8469C191.97 91.7808 191.731 91.7127 191.492 91.6427C191.486 91.3864 191.482 91.1307 191.478 90.8754C189.837 90.2946 187.414 90.3725 186.041 89.7056C183.679 88.7181 178.372 84.9098 176.811 83.1156C175.944 82.2073 175.611 82.4959 175.67 81.3253C175.422 81.1923 175.176 81.0563 174.932 80.9173C174.673 80.9506 174.414 80.981 174.155 81.0084C172.983 79.9081 171.9 78.3145 170.926 77.1634C169.116 75.1057 166.389 71.9103 165.402 69.2788C165.145 68.6252 165.064 67.6961 164.777 67.0923C164.362 66.2099 163.764 66.2318 163.289 65.0683C162.446 63.0589 161.891 59.0442 161.492 57.0991C161.365 56.519 161.147 56.2791 161.061 55.8759C160.707 54.185 160.566 52.7738 160.239 51.137C160.566 49.3245 161.086 49.4535 161.567 48.8973C161.934 48.4718 162.757 47.2377 163.067 47.0715C163.285 46.9526 163.589 47.3961 163.828 47.2284C164.138 49.1848 164.031 49.9887 163.867 51.6129C164.308 54.5324 165.064 57.3895 166.114 60.1198C166.04 60.4259 165.967 60.7348 165.895 61.0467C165.895 61.0468 165.894 61.0469 165.894 61.0471C166.113 62.1831 166.751 62.4514 167.103 62.9571C170.212 67.9542 176.926 76.9413 182.414 80.2708C183.516 81.0932 187.578 82.7613 188.272 83.4549C188.447 83.6507 188.343 84.0543 188.576 84.1699C190.81 84.8233 193.083 85.2616 195.352 85.4866C198.242 86.5718 201.453 86.8169 204.572 86.6042C206.203 86.4966 207.799 86.2739 209.372 86.0148C221.882 84.0028 232.474 75.742 238.17 65.1783C239.305 63.1301 240.039 60.2613 240.924 58.1756C241.292 57.3109 242.258 57.133 241.908 55.7563C242.142 55.797 242.376 55.8375 242.609 55.8777C242.575 54.7211 242.177 53.9409 242.304 52.7247C242.434 51.7075 242.624 48.9881 242.713 48.0855C242.77 47.6143 243.21 47.7987 243.213 47.3511C243.213 47.2621 243.204 47.1612 243.189 47.0508C243.077 46.2037 242.548 44.8634 242.471 43.9533C242.406 43.0291 242.711 41.3804 242.511 40.6676C241.824 38.1009 240.368 35.6076 239.554 33.0048C239.335 32.285 239.456 31.1516 239.338 30.9377C239.111 30.5233 238.553 30.6381 238.355 30.3899C237.367 29.1346 236.702 26.6825 235.819 25.371C233.019 21.0894 228.91 17.4158 224.68 14.6022C222.036 12.7342 217.096 10.6429 214.263 9.55321C213.658 9.30464 213.953 8.82099 213.416 8.68638C212.817 8.54053 212.416 8.82786 212.135 8.79679C210.345 8.56439 206.637 8.41048 204.572 8.19398C204.362 8.16786 204.169 8.13852 203.996 8.10455C203.641 8.03354 203.371 7.63415 203.156 7.63923C203.047 7.64119 202.814 7.91858 202.478 7.95684C199.508 8.31565 197.339 8.44457 194.447 9.02893C188.884 10.1643 183.074 13.4833 178.352 17.1429C177.317 17.9324 176.229 18.1134 176.096 18.2479C175.808 18.5402 175.909 19.0097 175.402 19.6571C173.702 21.7775 171.08 24.4154 169.864 26.7473C169.248 27.8845 168.778 29.623 168.306 30.7755C167.905 31.6881 166.816 33.8079 166.837 34.2867C166.84 34.5732 167.12 34.7955 167.045 35.1073ZM186.099 5.14021C186.243 5.9769 187.928 4.47281 187.023 4.38226C186.816 4.36094 186.058 4.92008 186.099 5.14021ZM248.46 56.8575C248.771 56.9069 249.083 56.9558 249.394 57.0044C249.328 56.6989 249.259 56.3931 249.187 56.0922C248.97 56.2087 248.753 56.3259 248.535 56.4395C248.511 56.579 248.486 56.7184 248.46 56.8575Z" fill="#8A5AFE"/>
<path d="M200.322 64.0508H219.447C221.211 64.0508 222.72 62.9883 223.357 61.4583L229.775 46.477C229.966 45.9883 230.072 45.4783 230.072 44.9258V40.6758C230.072 38.3383 228.16 36.4258 225.822 36.4258H212.414L214.432 26.7145L214.496 26.0345C214.496 25.1633 214.135 24.3558 213.561 23.782L211.309 21.5508L197.305 35.5545C196.54 36.3195 196.072 37.382 196.072 38.5508V59.8008C196.072 62.1383 197.985 64.0508 200.322 64.0508ZM200.322 38.5508L209.545 29.3283L206.697 40.6758H225.822V44.9258L219.447 59.8008H200.322V38.5508ZM183.322 38.5508H191.822V64.0508H183.322V38.5508Z" fill="#8A5AFE"/>
</svg>
