<svg width="92" height="95" viewBox="0 0 92 95" fill="none" xmlns="http://www.w3.org/2000/svg">
<path d="M7.04472 35.1073C6.97387 35.395 6.63751 35.7251 6.51259 36.0542C5.99298 37.4326 5.71102 37.9226 5.30235 39.2092C4.59254 41.1027 4.12951 47.0143 3.15668 47.0508C3.15666 47.0508 3.15663 47.0508 3.1566 47.0508C3.14604 47.0508 3.13538 47.0502 3.1246 47.049C2.92018 47.0281 2.70804 46.5013 2.47411 46.4186C2.24032 46.3359 0.716331 46.3764 0.622078 45.5882C0.473991 44.4452 1.06171 41.7557 1.13324 41.1628C1.16403 40.7519 1.06793 40.2249 1.11197 39.6916C1.25977 37.978 1.55597 37.1325 1.44486 35.4957C1.82285 34.949 2.21835 34.4194 2.63081 33.9055C2.73484 33.091 3.43678 32.0519 3.58607 31.59C3.70509 31.2091 3.58835 30.912 3.72604 30.517C3.87931 30.0737 4.35653 29.4953 4.66363 28.7041C5.1742 27.4116 4.76931 26.922 5.07294 26.121C5.39112 25.287 6.32217 24.2474 6.71567 23.1679C6.73002 23.0098 6.74499 22.8513 6.76057 22.6925C6.57755 22.6954 6.39474 22.6997 6.21218 22.7053C6.44391 22.1687 6.84017 22.1327 7.12514 21.6913C7.46286 21.1724 7.38614 20.73 7.62066 20.3802C7.81339 20.0939 8.27843 19.8599 8.52461 19.4896C8.886 18.9505 8.51525 18.8397 8.66923 18.5124C8.71564 18.3752 10.1701 16.1867 10.2782 16.0796C10.9934 15.2085 11.4434 15.5002 12.0752 14.8808C13.8326 13.1729 15.4155 11.1372 17.1358 9.56084C17.9007 8.8593 18.7935 8.24417 19.6955 7.74358C19.1832 9.88109 22.709 8.95852 20.3838 7.66804C21.5072 7.3355 21.8776 6.36009 22.8769 5.91311C23.523 5.6305 24.0998 5.69652 24.983 5.24027C26.5363 4.43464 28.0158 2.74905 29.1016 4.26162C30.9179 3.21379 32.7925 3.37659 33.1184 1.58958C33.6202 1.3373 35.186 1.95783 35.785 1.97459C36.3604 1.92266 40.6791 1.72701 41.3724 1.75151C42.0771 1.71282 43.2919 1.6748 43.8836 1.50761C44.1235 1.4391 44.3398 1.20312 44.5723 0.985856C45.0514 0.53433 45.6298 0.153531 46.4692 1.61878C48.0139 1.4954 48.5653 1.59377 49.9599 1.98468C50.212 2.05725 50.2005 2.38173 50.3491 2.39911C50.6554 2.43468 51.2061 2.26137 51.7621 2.31333C52.6778 2.39931 53.0549 3.17457 53.1525 2.12129C53.78 2.05209 54.4191 1.99618 55.0592 1.95201C55.2235 2.1968 55.3845 2.44292 55.542 2.6903C55.91 2.5462 56.2835 2.4061 56.6616 2.27004C55.894 3.6588 58.3261 3.37935 57.8717 2.32938C58.9347 2.96001 59.9609 3.63353 60.9481 4.34609C60.1594 5.94235 63.2342 5.47757 63.4441 4.51336C63.5695 4.56854 63.6945 4.62426 63.8192 4.68052C64.7074 5.5977 65.8717 5.71726 66.9956 6.69261C68.103 7.67449 67.8837 7.77314 67.8183 8.71282C68.1278 8.84143 68.4363 8.97358 68.7438 9.10924C71.5132 8.12933 68.9911 11.2428 72.4167 11.5739C72.2591 13.3098 74.4807 14.1695 75.9216 14.9457C76.0883 15.0338 76.2946 14.8283 76.5315 14.9349C77.1165 15.1955 77.888 16.5529 78.5452 15.8812C78.7085 16.4566 78.8578 17.0319 78.9936 17.6069C79.4052 17.8194 79.8159 18.0395 80.2249 18.2666C80.4539 18.0788 80.6828 17.8909 80.9116 17.703C80.6917 19.0181 81.8233 19.8684 82.022 20.5678C82.0602 20.7061 81.7429 20.9662 81.8879 21.3694C82.0565 21.8411 82.658 22.5222 82.8561 23.0795C83.3629 23.0258 83.8724 22.9786 84.3843 22.9378C85.1532 23.7197 84.2841 24.6473 84.4961 25.2202C84.5442 25.3182 85.5467 27.0515 85.6088 27.1441C86.168 27.8533 87.0486 27.1702 87.861 29.6755C87.9993 30.123 87.7997 30.602 87.9326 30.9977C88.1777 31.6805 89.6454 33.5558 90.4149 33.5306C89.7878 34.675 90.7414 36.929 90.603 37.6999C90.5626 37.9279 89.9827 38.093 89.9752 38.7563C89.9716 39.2908 90.6636 40.5668 90.6627 41.2512C90.6635 41.9745 90.181 42.2843 90.1764 42.5991C90.1717 42.898 90.6059 43.137 90.6349 43.5481C90.7183 44.8412 90.0904 46.0048 90.0793 47.0048C90.0791 47.0201 90.0791 47.0355 90.0791 47.0508C90.0852 48.4726 91.219 49.7839 91.6454 51.0774C91.5402 51.3814 91.2518 51.6568 91.2153 51.9794C90.7727 55.9749 89.4618 60.3555 87.7374 63.9537C86.9891 65.6946 83.4463 68.936 86.4015 69.132C86.5536 69.9821 83.1067 73.4606 82.5334 74.1125C81.9985 74.8223 81.9472 75.6742 81.5076 76.2324C80.1678 77.9057 78.929 78.7893 77.3491 80.881C76.9398 81.4199 76.779 82.3172 76.4691 82.579C76.096 82.8933 75.3459 82.8243 74.8451 83.1908C73.6649 84.0838 71.5267 85.8406 70.2634 86.5092C70.0342 86.6327 69.7049 86.2901 69.3162 86.3591C67.8065 86.6286 66.4541 87.4009 67.4044 88.5616C65.3726 88.6965 64.1769 90.0784 62.5752 90.7571C59.2288 92.2927 52.6964 93.4147 49.59 94.1419C47.6387 94.6394 47.6875 95.2806 44.7028 94.7307C44.6593 94.7221 44.6158 94.7134 44.5723 94.7044C43.9543 94.5763 43.3376 94.4074 42.6076 94.2328C40.7489 93.7855 39.2483 92.5134 37.6914 93.555C35.7265 92.8773 34.0799 92.6979 32.9177 91.2552C32.6841 91.455 32.4483 91.6522 32.2104 91.8469C31.9702 91.7808 31.7308 91.7127 31.4922 91.6427C31.4864 91.3864 31.4818 91.1307 31.4784 90.8754C29.8368 90.2946 27.4143 90.3725 26.0412 89.7056C23.6789 88.7181 18.3725 84.9098 16.8106 83.1156C15.9441 82.2073 15.6107 82.4959 15.6696 81.3253C15.4224 81.1923 15.1763 81.0563 14.9315 80.9173C14.673 80.9506 14.414 80.981 14.1548 81.0084C12.983 79.9081 11.9002 78.3145 10.9265 77.1634C9.11584 75.1057 6.38927 71.9103 5.40164 69.2788C5.1449 68.6252 5.06421 67.6961 4.77653 67.0923C4.3616 66.2099 3.76406 66.2318 3.28923 65.0683C2.44564 63.0589 1.89084 59.0442 1.49236 57.0991C1.36462 56.519 1.14681 56.2791 1.06095 55.8759C0.707397 54.185 0.566124 52.7738 0.239339 51.137C0.565625 49.3245 1.0856 49.4535 1.56699 48.8973C1.93437 48.4718 2.75734 47.2377 3.06701 47.0715C3.28464 46.9526 3.58856 47.3961 3.82779 47.2284C4.13818 49.1848 4.03127 49.9887 3.86734 51.6129C4.30835 54.5324 5.0641 57.3895 6.11423 60.1198C6.04005 60.4259 5.96695 60.7348 5.89508 61.0467C5.89471 61.0468 5.89434 61.0469 5.89397 61.0471C6.11307 62.1831 6.75095 62.4514 7.1032 62.9571C10.2117 67.9542 16.9259 76.9413 22.4144 80.2708C23.5163 81.0932 27.5775 82.7613 28.2722 83.4549C28.4471 83.6507 28.3435 84.0543 28.5761 84.1699C30.8105 84.8233 33.0828 85.2616 35.352 85.4866C38.2418 86.5718 41.4532 86.8169 44.5723 86.6042C46.2029 86.4966 47.7985 86.2739 49.3723 86.0148C61.8819 84.0028 72.4736 75.742 78.1697 65.1783C79.3054 63.1301 80.0388 60.2613 80.9241 58.1756C81.2925 57.3109 82.2581 57.133 81.9083 55.7563C82.1419 55.797 82.3756 55.8375 82.6094 55.8777C82.5755 54.7211 82.1767 53.9409 82.3045 52.7247C82.4344 51.7075 82.624 48.9881 82.7134 48.0855C82.7695 47.6143 83.2103 47.7987 83.2129 47.3511C83.2128 47.2621 83.2042 47.1612 83.1889 47.0508C83.0771 46.2037 82.5478 44.8634 82.4708 43.9533C82.406 43.0291 82.7108 41.3804 82.5109 40.6676C81.8238 38.1009 80.3685 35.6076 79.5541 33.0048C79.3351 32.285 79.4555 31.1516 79.3379 30.9377C79.1111 30.5233 78.5531 30.6381 78.3548 30.3899C77.3673 29.1346 76.7016 26.6825 75.8187 25.371C73.0189 21.0894 68.9096 17.4158 64.6804 14.6022C62.0362 12.7342 57.0955 10.6429 54.2627 9.55321C53.6583 9.30464 53.9533 8.82099 53.4157 8.68638C52.8171 8.54053 52.4161 8.82786 52.1354 8.79679C50.3451 8.56439 46.6369 8.41048 44.5723 8.19398C44.3618 8.16786 44.1687 8.13852 43.9965 8.10455C43.6411 8.03354 43.3708 7.63415 43.1557 7.63923C43.0466 7.64119 42.8143 7.91858 42.478 7.95684C39.5078 8.31565 37.339 8.44457 34.4471 9.02893C28.8839 10.1643 23.0739 13.4833 18.352 17.1429C17.3173 17.9324 16.2293 18.1134 16.096 18.2479C15.8076 18.5402 15.9091 19.0097 15.4023 19.6571C13.7025 21.7775 11.0797 24.4154 9.86445 26.7473C9.2485 27.8845 8.77826 29.623 8.30633 30.7755C7.90511 31.6881 6.81601 33.8079 6.83712 34.2867C6.84019 34.5732 7.11951 34.7955 7.04472 35.1073ZM26.0989 5.14021C26.2432 5.9769 27.9282 4.47281 27.0232 4.38226C26.8159 4.36094 26.0578 4.92008 26.0989 5.14021ZM88.4601 56.8575C88.7713 56.9069 89.0826 56.9558 89.394 57.0044C89.3281 56.6989 89.2595 56.3931 89.187 56.0922C88.9703 56.2087 88.7527 56.3259 88.535 56.4395C88.5107 56.579 88.4857 56.7184 88.4601 56.8575Z" fill="#8A5AFE"/>
<path d="M40.3223 64.0508H59.4473C61.211 64.0508 62.7198 62.9883 63.3573 61.4583L69.7748 46.477C69.966 45.9883 70.0723 45.4783 70.0723 44.9258V40.6758C70.0723 38.3383 68.1598 36.4258 65.8223 36.4258H52.4135L54.4323 26.7145L54.496 26.0345C54.496 25.1633 54.1348 24.3558 53.561 23.782L51.3085 21.5508L37.3048 35.5545C36.5398 36.3195 36.0723 37.382 36.0723 38.5508V59.8008C36.0723 62.1383 37.9848 64.0508 40.3223 64.0508ZM40.3223 38.5508L49.5448 29.3283L46.6973 40.6758H65.8223V44.9258L59.4473 59.8008H40.3223V38.5508ZM23.3223 38.5508H31.8223V64.0508H23.3223V38.5508Z" fill="#8A5AFE"/>
</svg>
