<svg width="314" height="20" viewBox="0 0 314 20" fill="none" xmlns="http://www.w3.org/2000/svg">
<path d="M34.7699 3.32911C38.9583 3.13517 44.4544 3.1289 48.6287 3.19245C49.9391 3.21183 49.2806 3.43801 50.1852 3.46094C51.9542 3.5055 53.5959 3.36631 55.3417 3.42714C55.9217 3.4483 55.2078 3.79954 55.8158 3.81404C59.1475 3.89112 62.2823 3.73838 65.655 3.7375C82.2475 3.73419 98.5468 3.51064 115.332 3.30266C120.886 3.23338 127.602 3.39367 133.321 3.13703C133.985 3.10685 133.583 2.82066 133.709 2.79364C135.69 2.37887 135.047 2.98801 136.351 3.03898C141.492 3.24038 147.276 3.14263 152.214 2.92201C154.332 2.82691 152.194 2.28747 154.338 2.56983C154.487 2.58882 153.956 2.91344 154.538 2.93424C155.865 2.98063 158.318 2.87156 159.36 2.87379C161.333 2.88043 161.657 2.87026 163.503 2.83381C166.061 2.78595 169.037 2.877 171.792 2.74616C172.375 2.71743 171.597 2.41334 172.524 2.33857C173.454 2.26383 175.884 2.23817 176.731 2.2954C177.564 2.35297 177.216 2.61286 177.364 2.66746C178.589 3.1289 181.38 2.39206 181.764 2.36696C188.413 1.93712 194.129 2.19715 200.388 2.05849C205.151 1.95213 210.22 1.7131 214.713 1.63077C216.202 1.6037 217.6 1.58976 218.942 1.58109C222.672 1.55499 226.055 1.56562 229.896 1.45774C230.439 1.4428 229.796 1.07979 230.456 1.06082C237.66 0.855813 244.707 0.737762 251.859 0.843529C252.572 0.854633 251.649 1.20511 252.378 1.23571C256.78 1.41485 263.674 1.94356 266.272 0.468947C269.224 0.483629 272.831 0.50881 275.505 0.807173C277.214 1.00107 275.554 1.35187 277.659 1.21348C278.134 1.18397 277.523 0.86135 278.229 0.841591C280.52 0.780417 282.954 0.880974 285.317 0.966499C286.08 0.994128 286.809 1.0188 287.54 1.03559C288.147 1.04918 288.002 0.754307 288.182 0.717751C289.678 0.418692 292.028 1.37847 292.548 1.50389C296.488 2.4121 299.408 2.84085 303.044 3.91067C303.883 4.16697 302.995 3.49811 303.817 3.7392C306.33 4.48831 308.875 5.50212 311.218 6.80899C311.753 7.11195 312.292 7.43202 312.877 8.04596C313.16 8.36187 313.497 8.76772 313.679 9.47398C313.883 10.18 313.634 11.1287 313.259 11.6008C312.659 12.4305 311.876 13.0551 311.096 13.4931C310.087 14.0205 310.839 13.2311 310.359 13.4504C308.286 14.2398 307.959 14.8571 305.944 15.0976C305.528 15.1341 305.719 14.8238 305.64 14.8052C304.408 14.5034 303.488 15.2481 303.171 15.2884C299.399 15.7424 297.008 14.9665 293.452 14.9912C293.022 14.9925 293.976 15.3694 292.778 15.351C286.801 15.2458 280.635 14.9085 274.603 14.6269C272.466 14.5234 270.42 14.2203 268.443 13.9136C267.219 13.7209 268.123 13.5655 268.053 13.5243C266.875 12.868 265.968 13.4387 265.58 13.4163C262.432 13.2051 259.577 12.2983 257.372 12.8802C244.183 11.1968 230.871 11.0005 217.689 9.871C217.517 9.85747 217.835 9.53165 217.493 9.50612C217.47 9.50437 217.446 9.50265 217.423 9.50095C213.514 9.20876 214.188 9.7483 211.545 10.3127C210.866 10.455 208.82 9.63566 208.652 9.57551C208.001 9.35221 208.693 8.86994 208.475 8.82449C206.666 8.46604 206.882 10.1198 204.44 10.0665C204.363 10.0621 204.692 9.76568 204.487 9.73103C203.849 9.62237 203.208 9.7293 202.576 9.61155C201.112 9.33937 200.651 8.52822 198.427 8.95141C198.149 9.00673 198.545 9.94919 196.345 9.8639C195.484 9.82885 191.564 9.776 190.489 9.69821C189.4 9.61967 190.154 9.33067 190.076 9.31633C187.134 8.86983 188.252 8.72296 186.797 8.10989C185.339 7.49945 185.723 8.90768 185.121 9.05502C184.515 9.20176 182.363 8.84134 181.841 8.71972C181.315 8.59785 181.976 8.41571 181.507 8.34433C178.393 7.87779 180.128 9.02102 179.094 9.22929C176.674 9.72331 174.786 8.65926 172.578 8.53022C171.979 8.49539 172.465 8.73815 171.932 8.7538C169.815 8.81282 168.542 8.4735 166.134 8.74419C165.741 8.78825 163.78 9.39201 162.531 8.92021C162.353 8.8522 162.862 8.59838 161.962 8.53095C160.616 8.42976 158.186 8.34882 156.738 8.42164C155.669 8.47549 156.89 8.91409 155.545 8.76869C154.947 8.70384 156.059 8.46451 154.935 8.36353C153.816 8.26252 150.961 8.2478 149.872 8.24711C148.786 8.24654 149.378 8.57553 149.29 8.59659C148.758 8.71691 146.672 8.85557 146.488 8.85373C137.208 8.81681 128.63 8.21391 119.602 8.34244C118.887 8.35204 119.361 8.69629 119.252 8.70127C116.812 8.83048 118.738 7.93337 117.041 7.6199C117.281 8.3143 116.286 8.18318 114.576 8.2499C113.746 8.2826 114.197 8.55339 114.121 8.58045C112.889 8.9814 112.043 8.4505 111.825 8.34165C111.019 7.94124 110.147 8.40482 109.587 8.13714C109.035 7.87149 110.311 7.48838 108.662 7.48494C108.199 7.73068 109.417 8.38518 108.168 8.48391C103.466 8.85713 94.6885 8.30792 90.9083 8.23826C87.1746 8.16868 85.9186 8.20887 83.7228 8.10931C79.7535 7.9292 81.2112 8.41684 78.7326 8.62555C76.2861 8.83423 77.4874 7.65633 77.1316 7.40025C76.7751 7.14425 76.3857 7.40418 75.949 7.26228C75.5148 7.12042 76.456 6.95197 75.4355 6.89456C75.0511 6.8729 74.4194 6.92203 73.775 7.00581C72.6461 7.14354 71.4961 7.37531 71.2755 7.53971C70.5079 8.09924 71.8058 8.69778 69.0619 8.4752C68.907 8.46202 69.4114 8.15357 68.8187 8.11889C64.1282 7.85363 59.205 7.80839 54.5196 7.55947C53.863 7.52462 54.4518 7.18311 54.0721 7.15891C50.1578 6.90489 51.5352 7.49995 49.4111 8.12868C49.9056 7.26997 48.7114 6.73289 45.7292 6.69335C43.9426 6.66825 44.249 7.04871 43.0905 7.29829C42.7414 7.37369 41.4691 7.09481 41.2483 7.26789C40.4798 7.83158 41.6651 8.5112 38.5925 8.18184C38.4608 8.16603 38.8941 7.86042 38.4275 7.8286C37.3504 7.75367 36.5728 7.76901 35.9147 7.80113C34.8336 7.89197 33.9676 8.16315 31.9847 8.40973C29.5261 8.70095 25.0539 9.17854 22.2311 9.79068C22.0768 8.82522 19.4518 9.68363 18.5542 10.6175C16.7348 11.063 14.7964 11.6477 13.0347 12.0799C12.4286 12.2292 12.7396 11.8424 12.6556 11.8359C11.3587 11.7302 10.7706 12.6002 10.395 12.7464C7.52051 13.8467 4.93415 14.5535 2.37687 15.5906L2.63426 15.3994C2.60075 15.4423 2.58124 15.4794 2.58998 15.4662C2.59551 15.4668 2.64791 15.319 2.58389 15.1769C2.4371 14.9446 2.4941 15.072 2.59042 15.0803C2.79303 15.1416 3.068 15.1791 3.35099 15.2038C3.91892 15.2515 4.52395 15.2491 5.14921 15.2172C5.29353 15.2076 5.56205 14.5558 6.64685 15.0933C6.72144 15.1295 5.34331 15.3836 7.29245 15.4814C9.26492 15.5768 12.9706 15.9737 15.7184 15.6606C16.3724 15.5864 18.071 15.0374 19.4042 15.4586C19.5832 15.5159 19.3879 15.7101 19.6475 15.8164C20.507 16.1551 20.9334 15.4716 21.9326 16.0437C22.8383 16.5541 24.527 16.9426 26.8921 16.7142C27.1637 16.6869 27.4466 16.6507 27.7408 16.6047C27.827 16.5921 28.4756 16.0453 29.3631 16.0435C30.7255 16.042 32.7082 16.1293 34.1755 16.1058C34.8815 16.0943 34.4239 15.7653 34.546 15.7575C39.1986 15.5053 42.5389 15.7518 47.5418 15.7983C48.4654 15.8074 51.0747 15.3058 52.8825 15.6354C54.8276 15.9967 52.8505 17.6785 57.3344 17.2057C59.1361 17.0162 61.3878 14.8866 64.6612 15.907C70.9529 15.5202 76.7986 15.9592 83.1165 15.4495C83.4058 15.4267 84.2805 14.8262 84.9493 14.8207C85.9401 14.8136 86.4927 15.0748 87.206 15.0783C90.1648 15.1003 92.8769 14.8117 95.7489 14.7887C96.836 14.7794 96.4582 15.0689 97.7524 15.0579C99.0431 15.0466 99.9176 14.6576 101.663 14.8004C102.984 14.9094 104.346 15.6392 106.093 15.6909C106.144 14.942 107.351 14.9321 109.5 14.6895C109.91 14.6426 109.464 14.3917 109.658 14.356C110.446 14.2053 111.185 14.4055 111.938 14.2435C112.121 14.2046 112.124 13.9491 112.273 13.9029C113.55 13.4998 115.653 14.0299 116.018 14.1221C117.41 14.4726 118.058 14.1266 119.116 14.2537C120.177 14.3808 118.599 14.6013 119.837 14.6658C122.41 14.7989 125.702 14.6875 128.31 14.6435C129.348 14.6244 128.633 14.2988 128.781 14.2881C130.928 14.1558 133.113 14.4716 134.288 13.7674C135.815 15.4905 135.587 13.5692 138.662 13.8548C138.905 13.878 139.23 14.7014 138.304 14.8432C137.379 14.9848 135.963 14.7556 134.676 14.9732C134.372 15.0243 132.641 15.8395 132.404 15.8917C130.541 16.2999 130.249 15.0653 130.148 14.9993C129.01 14.2882 126.896 15.1715 126.33 15.2415C123.76 15.5618 121.568 15.4339 119.42 15.669C118.019 15.8212 117.894 16.6366 116.786 16.6352C113.112 16.6308 111.796 15.5247 108.356 16.5802C107.617 16.8054 108.37 17.678 105.697 17.0354C105.534 16.9948 103.536 16.3976 102.403 16.8254C102.261 16.8793 102.271 17.138 102.082 17.1637C100.822 17.3307 99.9715 17.1421 98.5885 17.2695C97.2093 17.3969 95.5577 17.5783 93.9732 17.5231C93.0191 17.4902 91.8063 17.0327 91.3404 16.9241C90.0408 16.6105 88.6784 17.1961 87.8799 16.8003C87.0704 16.4027 88.6339 15.7422 86.5119 15.5177C86.4472 16.1917 86.2815 16.8854 86.1696 17.5641C81.5625 17.6337 77.0226 17.5066 72.3905 17.6265C71.8203 17.6419 72.4101 17.992 71.7998 18.0179C69.1956 18.1258 66.9258 17.9115 64.2457 18.0646C62.1527 18.1848 59.8909 18.6095 57.7056 18.7456C56.3805 18.0001 53.1428 18.3193 50.7839 18.2895C49.9643 18.2793 50.0265 18.0727 49.4349 18.0157C47.2035 17.8055 48.2617 18.4677 47.6566 18.5849C45.0829 19.0845 44.834 17.5494 41.7599 17.6359C41.5935 17.6401 39.6468 18.4906 39.3584 18.5459C37.6239 18.905 39.0624 18.2648 37.9817 18.2202C35.9971 18.1384 34.6163 17.962 32.2966 18.2324C31.6306 18.3122 29.999 18.844 28.6718 18.4632C28.4957 18.4134 28.5896 18.1411 28.4485 18.1268C27.775 18.0643 27.2896 18.0775 26.9067 18.1364C25.7771 18.301 25.4879 18.8212 24.4302 19.0429C22.9679 19.3447 20.7494 18.7705 20.2949 18.6029C19.0866 18.1704 21.2117 18.4107 21.2607 18.3669C22.0079 17.8499 20.3945 17.949 19.1465 17.9104C18.988 17.076 17.2131 17.1309 17.8538 17.8731C17.921 17.9543 18.9153 17.8733 19.1465 17.9104C18.055 18.7344 16.1486 18.8456 14.0348 18.0713C13.0371 17.7058 13.9942 17.3003 10.9767 17.4229C9.61403 17.4731 10.1107 18.0565 8.92237 18.1902C7.77344 18.3109 6.51923 18.2749 5.16881 18.147C4.50147 18.0814 3.83212 17.9992 3.0902 17.8649C2.72981 17.7939 2.35047 17.7301 1.80761 17.5416C1.66393 17.4885 1.50963 17.4312 1.27836 17.304C1.06253 17.1647 0.733729 17.0321 0.345436 16.3929C0.172615 16.1008 0.0526861 15.6309 0.074654 15.2708C0.0886236 14.9085 0.185673 14.6357 0.263358 14.4578C0.43249 14.0917 0.556969 13.9603 0.649069 13.8395L0.988316 13.4171L1.45657 13.2396C1.98254 13.0517 2.50921 12.8561 2.98919 12.6598C3.95731 12.2666 2.8922 12.3262 3.55407 12.0475C5.30306 11.3146 6.9564 10.9964 8.72056 10.2955C8.88064 10.2318 8.37871 10.0475 8.93986 9.86185C13.1962 8.46086 17.0013 7.60502 21.5561 6.54328C23.7602 6.02112 27.7053 5.04503 30.1066 4.7787C31.929 4.57215 33.917 4.44083 36.1362 4.67611C38.395 4.96542 40.8588 5.08774 42.752 5.06021C44.9884 5.01746 44.4789 4.67955 45.4394 4.46708C47.2701 4.05444 50.5 4.8651 50.9571 4.98971C50.952 4.99381 49.0658 5.05376 50.068 5.23249C50.6521 5.59065 50.9361 4.99104 50.9571 4.98971C51.2171 5.07071 55.0812 5.17777 55.8079 5.11968C56.2179 5.08834 55.9909 4.77422 56.2061 4.76379C61.3132 4.52237 66.461 4.47309 71.6057 4.64589C71.696 4.65266 71.558 5.00138 71.7706 5.01295C72.4832 5.05382 73.1489 5.06098 73.7848 5.04492C75.6879 4.99329 77.3189 4.7075 79.1679 4.52305C81.691 4.28107 83.5942 4.37456 85.0786 4.98111C86.9188 4.91386 89.6218 5.19115 91.1532 5.35897C92.7064 5.52688 92.9262 4.84771 93.0579 4.83485C97.2673 4.4236 99.7542 4.82438 104.111 4.90611C106.215 4.94624 110.35 4.86849 112.596 4.80613C114.385 4.75573 115.463 4.92101 117.102 4.82822C117.325 4.81585 117.102 4.51175 117.17 4.50047C119.009 4.14845 118.123 4.88387 118.502 5.01823C119.887 5.507 120.714 5.76777 123.073 5.55568C123.618 5.50713 125.206 4.45076 126.191 4.3946C127.475 4.32357 126.987 4.70258 128.337 4.61866C128.452 4.61183 128.429 4.37592 129.263 4.39174C133.108 4.46187 137.322 4.62857 141.325 4.63572C141.872 4.63761 141.174 4.2583 141.965 4.2549C145.678 4.23927 149.745 4.28721 153.358 4.4953C154.247 4.54769 153.687 4.80438 153.879 4.88388C155.062 5.36506 156.751 4.69777 157.028 4.68745C163.653 4.42351 168.713 5.09699 175.465 4.88843C175.84 4.87579 178.652 4.18001 179.923 4.8262C180.009 4.86918 181.252 5.52927 182.356 5.10565C182.425 5.07915 181.656 4.73704 183.005 4.7903C184.366 4.84366 186.56 4.65567 188.41 5.049C189.004 5.17306 190.4 5.83679 192.156 5.35558C192.254 5.32132 195.033 4.21388 195.975 5.02912C196.135 5.16349 195.93 6.00312 198.06 5.61076C198.466 5.53466 197.737 5.33233 198.803 5.23534C200.424 5.0855 202.579 5.35526 204.575 5.02287C204.915 4.96365 206.416 4.42382 207.601 4.88638C207.786 4.9588 207.426 5.23218 208.052 5.27838C211.005 5.49898 214.18 5.39242 217.177 5.67535C217.325 5.68935 217.442 5.71012 217.535 5.7359C218.129 5.89394 217.846 6.23626 218.814 6.37098C219.932 6.52706 222.179 6.72014 223.361 6.55595C224.533 6.39115 223.277 5.61719 225.036 5.62621C232.698 5.67245 240.225 6.49888 247.887 7.17049C249.023 7.27159 248.082 6.93313 249.769 7.06858C255.877 7.49296 266.69 8.64503 271.668 9.75289C275.637 10.5248 270.561 10.4662 273.624 10.8708C273.98 10.9123 274.351 10.8936 274.696 10.8376C275.89 10.6673 276.932 10.2108 277.23 10.1995C280.96 10.0416 283.532 10.5197 286.861 10.5321C287.544 10.5344 286.882 10.1668 287.472 10.1729C289.469 10.1895 291.554 10.4184 293.442 10.4401C294.297 10.4486 294.135 10.1834 294.914 10.2199C296.766 10.3008 298.388 10.4227 300.156 10.6236C300.317 10.6415 299.24 10.9954 300.578 10.9709C302.717 10.9218 305.493 10.9711 307.359 10.1183C307.879 9.8538 307.755 9.31986 308.683 9.23969C308.775 9.22908 308.88 9.40081 309.019 9.43796C309.142 9.48413 309.379 9.34214 309.326 8.88984C309.325 8.88409 309.324 8.87651 309.323 8.86728C309.238 8.96214 309.005 9.18289 308.861 9.76512C308.705 10.3522 308.898 11.0892 309.026 11.3487C309.156 11.6386 309.171 11.6802 309.092 11.6851C309.014 11.6845 308.858 11.6307 308.676 11.5632C308.026 11.2832 307.414 10.9627 307.03 10.5746C306.747 10.2845 306.081 9.34686 305.232 9.11694C305.118 9.08892 305.435 9.55435 304.762 9.32896C302.382 8.53569 299.809 7.78726 297.193 7.34477C296.502 7.23095 297.46 7.76409 296.426 7.58673C293.584 7.10006 289.99 6.56417 287.127 6.24875C286.07 6.13108 286.822 5.91134 286.748 5.87566C286.035 5.53872 285.484 5.61232 285.049 5.733C284.749 5.81944 284.514 5.93016 284.34 5.93732C281.752 6.04035 279.789 5.69523 277.368 5.75351C276.698 5.76989 277.17 6.08681 277.037 6.11369C275.67 6.37822 276.689 5.82147 275.817 5.75577C273.386 5.57204 270.626 5.61824 268.148 5.68789C267.233 5.71416 268.27 6.06458 267.443 6.08428C262.584 6.20913 257.529 6.2733 252.767 6.17062C251.854 6.15109 252.422 5.8597 252.23 5.79978C250.971 5.37884 249.05 6.02923 248.643 6.09603C246.66 6.4036 245.925 6.17228 244.154 6.25712C236.318 6.64013 226.846 6.73316 219.058 6.80678C218.399 6.8128 217.746 6.81883 217.104 6.82503C206.613 6.92796 198.47 6.84067 188.503 7.12773C187.867 7.14567 188.517 7.50354 187.968 7.52379C180.904 7.76787 173.946 7.7739 166.869 8.03497C166.287 8.05575 167.134 8.39009 166.2 8.43531C164.263 8.531 161.879 8.56352 159.926 8.49319C158.977 8.4595 160.243 8.1294 159.287 8.10168C157.069 8.03624 154.718 8.06201 152.429 8.16807C151.47 8.21364 152.926 8.5429 151.678 8.57405C143.127 8.79478 134.725 9.03815 126.07 8.75743C125.477 8.7381 124.943 8.01644 123.683 8.18417C123.592 8.3896 123.602 8.62873 123.566 8.847C111.112 9.23227 98.7676 9.24328 86.2895 9.47172C85.7631 9.48144 86.6813 9.85021 85.6619 9.87101C79.7543 9.99202 74.0372 10.2222 67.9866 9.9658C67.3877 9.94088 67.6806 9.25119 65.9189 9.39231C65.6086 9.41782 62.9507 9.56593 62.2647 9.72898C62.1721 9.75335 62.663 10.0618 61.8077 10.0894C56.8368 10.2444 51.6149 10.2835 46.6425 10.1951C45.8402 10.1802 46.6866 9.82236 46.1151 9.80882C42.0589 9.71538 37.6587 10.0679 33.7796 9.84251C31.1842 9.69043 32.1308 9.08296 30.7415 8.53471C30.545 8.45737 28.9399 8.47883 28.8498 8.14447C28.6186 7.30378 29.3761 6.36159 29.0378 5.46747C28.9663 5.27486 26.8215 5.5299 28.084 5.0337C28.1722 5.00041 29.7271 4.81139 30.1074 4.64409C30.3723 4.52838 29.8834 4.19684 30.4256 4.04437C30.9677 3.89203 31.5728 4.16576 32.4729 3.98098C33.3726 3.79417 32.967 3.41378 34.7699 3.32911ZM98.0922 6.10991C99.5122 6.44318 99.7289 5.24781 98.1885 5.52686C98.1141 5.54177 98.0191 6.09354 98.0922 6.10991ZM77.0229 16.6033C75.1608 16.1123 73.8836 16.9133 75.2191 17.2948C76.5322 17.6761 77.5943 16.752 77.0229 16.6033ZM96.3606 15.8266C94.168 15.4557 93.8559 17.1589 96.1928 16.7677C96.3274 16.7456 96.4878 15.8481 96.3606 15.8266ZM37.1242 8.23342C37.1042 8.21796 35.9501 8.22719 35.9228 8.24352C35.3166 8.63656 37.6243 8.61784 37.1242 8.23342ZM115.538 15.0055C114.853 14.7905 112.905 15.0967 113.755 15.3641C114.437 15.5794 116.391 15.273 115.538 15.0055ZM172.525 7.94555C172.548 7.96364 173.372 7.98986 173.356 7.8889C173.305 7.56363 172.156 7.64113 172.525 7.94555ZM148.154 14.2888C143.335 14.3285 140.381 12.9902 145.634 13.0355C146.586 13.0437 143.594 13.5263 144.807 13.6266C147.028 13.8091 148.473 12.898 150.745 13.3208C151.156 13.3983 148.428 14.2896 148.145 14.2909C148.148 14.2902 148.151 14.2895 148.154 14.2888ZM98.9042 7.55072C98.9317 7.56666 100.08 7.58706 100.109 7.57152C100.732 7.19463 98.4184 7.15331 98.9042 7.55072ZM220.759 9.64098C220.806 9.67521 223.501 9.80171 223.571 9.77435C224.988 9.20295 219.589 8.94626 220.759 9.64098ZM22.1814 9.77568C21.0585 10.4284 19.6417 10.8292 18.5598 10.6166C19.763 10.3291 20.9683 10.0342 22.1814 9.77568Z" fill="#026D54"/>
</svg>
