<svg width="44" height="59" viewBox="0 0 44 59" fill="none" xmlns="http://www.w3.org/2000/svg">
<path d="M43.8837 1.22776C44.0685 0.720182 43.8504 0.858942 43.5753 0.934071C43.4894 0.964841 43.0933 1.00114 43.0166 1.02724C42.8669 1.07758 43.0655 1.09365 42.8882 1.15783C42.8277 1.18041 42.201 1.24478 42.1519 1.26728C41.888 1.39364 42.0598 1.46313 41.9423 1.58503C41.3658 2.20234 41.2282 2.8115 41.0479 3.45384C40.9879 3.65916 40.4669 3.99735 40.7495 4.16011C40.7831 4.17929 41.3248 4.06848 41.3705 4.06518C42.0698 4.01456 40.9666 4.18454 40.8287 4.25603C40.2844 4.53921 40.2715 4.75587 40.5132 4.89464C40.6179 4.95471 41.6846 4.68333 41.092 4.86979C41.052 4.88257 40.4708 4.96711 40.413 4.99938C40.3727 5.02201 40.3564 5.04467 40.352 5.0666C40.3417 5.11266 40.3899 5.15487 40.3629 5.1854C40.2843 5.27133 40.2922 5.28192 40.2978 5.34992C40.3004 5.44445 40.0333 5.60639 40.1815 5.67783C40.2149 5.69305 40.8019 5.55775 40.9086 5.57228C41.0152 5.58675 40.9811 5.68392 40.8471 5.73952C40.713 5.79504 40.2454 5.8674 40.1397 5.89223C39.2477 6.1008 40.5133 5.97672 40.5463 5.98255C41.1143 6.1195 40.4435 6.46302 40.4863 6.68291C40.521 6.85389 40.7893 6.99329 40.7871 7.16016C40.7827 7.36234 40.4927 7.58603 40.5827 7.76272C40.5915 7.78162 41.2826 7.62849 41.2948 7.65131C41.4247 7.89852 41.3952 8.15992 40.9749 8.50972C40.9322 8.5448 40.3153 8.62572 40.2361 8.66765C39.7636 8.91771 38.6052 9.39307 41.281 8.98779C41.1978 9.11675 41.1143 9.26287 40.5966 9.45939C40.2634 9.58578 39.5871 9.65157 39.8851 9.67359C39.9516 9.67872 40.5297 9.54664 40.5853 9.56265C40.8187 9.6297 40.6522 9.78609 40.9731 9.83491C41.0397 9.84447 41.5604 9.74 41.6555 9.7283C42.426 9.63533 41.1843 9.95844 41.0964 9.99443C40.4417 10.2654 40.7298 10.3194 40.7386 10.4571C40.7404 10.4892 41.4342 10.3194 41.4611 10.3455C41.5902 10.4781 41.5601 10.6482 41.2779 10.8588C41.2135 10.906 40.6107 10.9883 40.5493 11.0166C40.2862 11.1403 41.4166 10.9421 41.186 11.0569C41.1388 11.0808 40.6263 11.1697 40.5707 11.183C39.6974 11.3906 40.9523 11.1886 40.9818 11.1937C41.3833 11.2536 40.0963 11.5859 40.3053 11.6795C40.3316 11.6904 40.9716 11.5327 41.006 11.571C41.24 11.829 41.1187 12.1581 40.6568 12.5461C40.5857 12.6053 40.0941 12.6665 40.0347 12.6807C39.1079 12.904 40.3668 12.694 40.4167 12.6993C40.7779 12.7472 39.7472 13.054 41.2547 12.8463C40.8291 13.4292 41.7588 13.7475 40.5128 14.4795C40.4985 14.4885 39.8793 14.5959 39.8533 14.6134C39.5349 14.8262 40.4887 14.6144 41.6804 14.4867C41.9796 14.4548 40.5776 14.8006 40.475 14.8267C40.0969 14.9237 39.1741 15.0752 39.1015 15.0973C38.5323 15.2745 41.5666 14.6816 41.5846 14.7701C41.5801 14.7739 41.019 14.8694 40.9648 14.8875C40.7948 14.9441 41.0213 14.9244 40.8333 14.984C40.3981 15.1213 38.9262 15.4228 39.8002 15.3377C39.9135 15.3264 41.6329 14.9806 41.5668 15.0759C41.539 15.1142 41.5956 15.2496 41.4916 15.3108C41.3878 15.3718 40.8275 15.4511 40.804 15.4585C40.0905 15.7056 39.7786 15.7234 38.7022 15.9848C37.6299 16.2454 40.2088 15.7352 40.5011 15.7014C40.7925 15.6677 40.2019 15.8614 39.995 15.9209C39.7881 15.9803 39.4309 16.0243 39.315 16.0641C38.558 16.326 40.6059 15.8674 41.0228 15.8257C42.0097 15.7267 40.1083 16.1627 39.9361 16.2791C39.8897 16.3106 40.3223 16.2091 40.3668 16.2206C40.5373 16.2674 39.9489 16.429 40.5131 16.4096C40.6051 16.4066 41.7696 16.2552 40.9336 16.4629C40.813 16.4927 40.3324 16.5662 40.2318 16.6191C40.0807 16.6984 39.9932 16.8059 40.1628 16.8276C40.2882 16.8435 41.0658 16.6481 40.8309 16.7437C40.726 16.7862 40.2584 16.8346 40.0998 16.9073C39.9411 16.9796 39.9812 17.0793 40.0047 17.1157C40.0285 17.152 40.6206 17.0157 40.6614 17.0112C40.8952 16.9862 41.1973 17.0065 41.1978 17.013C41.3345 17.3307 40.3898 17.8384 40.7848 18.0976C40.8149 18.1182 41.4404 17.9801 41.4515 17.982C41.7318 18.0187 40.0467 18.2718 39.4989 18.4407C40.7732 18.1861 40.5491 18.2666 40.701 18.3014C40.7752 18.318 41.2661 18.2066 41.3172 18.1996C42.0761 18.0991 41.1128 18.3166 40.916 18.3628C40.1923 18.5326 41.0602 18.3984 40.5766 18.5123C40.0965 18.6255 39.3703 18.7178 39.3909 18.7754C39.8509 18.7041 41.036 18.43 41.2382 18.4378C42.003 18.4686 41.1268 18.962 41.056 19.1181C40.9851 19.2731 41.0779 19.3011 40.9282 19.4126C40.6575 19.6139 41.5328 19.39 41.9552 19.4005C42.3777 19.4112 40.1905 19.7884 39.7245 19.8915C39.2588 19.9944 39.7434 19.9151 39.489 19.9804C39.2347 20.0456 38.9097 20.0733 38.8202 20.1286C38.7307 20.1838 39.583 20.1235 40.0753 20.042C41.1182 19.8693 42.1984 19.614 41.8345 19.785C41.8129 19.795 41.2365 19.8874 41.1827 19.92C40.7745 20.1751 40.7815 20.3583 40.4239 20.6023C40.3739 20.6361 39.7325 20.7383 39.6962 20.7594C39.3158 20.9793 40.3807 20.7214 41.5895 20.5684C39.9974 20.8577 39.0337 21.0882 39.0451 21.1975C39.0514 21.2634 39.7431 21.1183 40.2402 21.0657C40.3901 21.0498 39.9225 21.1876 40.2504 21.1329C41.3223 20.9543 42.5081 20.6805 42.0541 20.8835C42.0324 20.8927 41.4455 20.9899 41.4134 21.0136C41.203 21.1671 42.3211 20.964 42.4788 21.055C42.6025 21.1262 41.9538 21.421 41.8634 21.5472C40.0768 21.8901 40.505 21.9101 41.7442 21.7124C41.707 21.7903 41.7908 21.8505 41.6332 21.9487C41.5796 21.9824 41.0596 22.0676 41.0043 22.0812C40.1362 22.2941 41.3399 22.0921 41.3897 22.0976C41.877 22.168 40.9939 22.473 41.9107 22.4534C41.9437 22.4526 43.1861 22.2215 42.2881 22.4372C42.2261 22.4519 41.652 22.5108 41.6221 22.5908C41.5922 22.671 40.9531 22.9339 41.5471 22.9215C41.6901 22.9187 42.709 22.7845 41.9315 22.9852C41.8259 23.0124 41.4687 23.0741 41.2725 23.1217C40.6475 23.2739 41.9046 23.048 40.8462 23.2895C39.7878 23.5311 39.0043 23.7593 39.7586 23.7173C39.7806 23.7163 40.7791 23.5478 40.7695 23.5823C40.7532 23.6376 40.56 23.7492 40.5766 23.8003C40.5849 23.8246 41.199 23.6892 41.2111 23.6914C41.5894 23.7926 41.0624 24.0189 40.8586 24.2458C40.82 24.2876 41.68 24.22 41.0271 24.413C40.3124 24.6244 37.2685 25.138 38.0217 25.1605C38.323 25.1697 42.1829 24.5085 40.214 25.011C40.7514 25.1426 39.773 25.551 40.5217 25.6424C40.5549 25.6466 41.634 25.4714 41.6241 25.4983C41.6072 25.5387 41.1096 25.6553 41.0815 25.6872C40.9512 25.8235 41.3991 25.8384 41.3524 25.9547C41.3358 25.9986 40.8147 26.0852 40.7947 26.1376C40.7753 26.1899 41.464 26.089 41.1466 26.2162C40.9045 26.3128 39.5184 26.6306 39.368 26.7255C40.7449 26.4615 40.725 26.5105 41.1033 26.5176C41.1767 26.5189 41.6526 26.4102 41.7121 26.406C41.9645 26.3869 41.5726 26.4902 41.8466 26.4654C41.9125 26.4595 42.3826 26.3689 42.4629 26.359C43.1641 26.271 42.1214 26.5515 41.9399 26.6001C41.2504 26.7854 41.8662 26.6904 41.5983 26.782C41.3304 26.8735 40.9752 26.8829 40.8168 26.96C40.4892 27.1194 40.5882 27.224 40.5848 27.3221C40.5863 27.3607 41.2088 27.2137 41.2236 27.2164C41.3977 27.2631 40.7455 27.4707 42.0036 27.2718C38.7824 27.951 42.3261 27.2578 41.7007 27.4939C41.65 27.5128 40.124 27.8197 39.8931 27.8296C39.6625 27.8394 40.1304 27.6961 39.7716 27.7173C39.6874 27.7222 38.2432 27.9363 38.1548 27.9444C37.4638 28.0082 39.7456 27.5567 39.8704 27.5289C41.2162 27.2264 39.6585 27.448 39.548 27.4483C39.0415 27.4497 39.3474 27.3086 38.9837 27.2983C38.7485 27.291 37.2517 27.5756 37.2897 27.5268C37.4154 27.3648 39.4932 26.9147 37.6596 27.1399C37.2686 27.1878 35.6387 27.5308 36.9058 27.1861C36.9857 27.1643 38.148 26.8656 37.3961 26.9682C37.3013 26.9812 36.8248 27.0735 36.7835 27.0744C36.5157 27.0787 36.8894 26.9747 36.6979 26.96C36.5065 26.9453 36.2238 26.9378 36.3744 26.8496C36.4644 26.7966 37.3437 26.5808 37.5579 26.5223C38.175 26.3548 37.1388 26.5038 37.8915 26.3284C38.6479 26.152 39.8161 25.9847 40.2938 25.8135C39.0552 26.0503 37.7833 26.2897 36.5375 26.5261C36.5489 26.3516 36.9175 26.1101 36.8305 25.9536C36.8185 25.9344 36.157 26.0844 36.127 26.0671C36.0031 25.9939 36.4617 25.8204 36.254 25.7599C36.0907 25.7136 35.3701 25.7677 35.1774 25.7236C36.5848 25.4017 36.0812 25.3776 36.1943 25.2678C36.2332 25.2294 36.612 25.1582 36.7313 25.1132C37.1724 24.9453 35.9278 25.2247 35.7266 25.241C34.8676 25.3099 37.6996 24.7539 37.6082 24.6571C37.6043 24.6518 36.0802 24.8725 35.9842 24.8808C35.3588 24.937 36.5079 24.7688 36.6119 24.7081C36.8021 24.5972 37.1533 24.4784 36.6946 24.4796C36.5588 24.4804 35.606 24.6037 36.325 24.4153C36.4191 24.3906 36.919 24.2975 36.9473 24.2868C37.417 24.1014 35.8479 24.4023 35.3065 24.453C34.7653 24.5036 35.8327 24.2138 36.1416 24.1371C36.9407 23.9383 36.493 24.1032 36.5726 24.0902C37.5208 23.9351 37.3471 23.9079 37.4181 23.8477C38.955 23.5439 38.8506 23.4992 37.4856 23.7866C37.3365 23.8181 37.4867 23.8252 37.4181 23.8477C35.9015 24.1002 35.6949 24.0688 37.0905 23.7204C37.7446 23.5571 38.5217 23.4416 38.2189 23.3884C38.0822 23.3639 37.0268 23.5876 36.7296 23.5999C36.0517 23.628 37.0147 23.3083 36.8393 23.2364C36.7757 23.2103 36.2029 23.3584 36.1394 23.3444C35.9691 23.3077 36.3927 23.1645 36.1568 23.1402C36.1347 23.1382 35.5307 23.2704 35.519 23.2509C35.4179 23.1062 35.7798 22.8922 35.7584 22.7238C35.7478 22.6425 35.3854 22.5638 35.4367 22.4679C35.522 22.3024 36.3703 21.9552 36.1321 21.8729C35.9793 21.819 35.3757 21.9538 34.9555 21.9993C34.141 22.0876 35.5543 21.6929 35.7736 21.6342C35.7809 21.6323 35.9373 21.6737 36.2418 21.5767C36.8869 21.43 35.7766 21.6345 35.7736 21.6342C35.9152 21.5961 36.0265 21.4318 35.9052 21.427C35.8389 21.4244 35.2654 21.5437 35.2417 21.5402C34.6917 21.4567 34.5094 21.2975 34.7423 21.059C34.7533 21.0535 35.3975 20.9343 35.4153 20.9229C35.6805 20.7594 34.8802 20.8421 34.3958 20.8432C33.9116 20.8446 34.0543 20.7432 35.1484 20.4771C34.9963 20.4362 35.4659 20.2451 35.7514 20.1323C36.0369 20.0195 34.7832 20.2532 34.7575 20.2531C33.9357 20.2532 34.6355 20.0269 34.7167 19.8479C34.7572 19.7614 34.5467 19.6464 34.394 19.5911C34.2712 19.5478 34.5572 19.4524 34.3582 19.4293C34.3315 19.4261 33.7755 19.5416 33.7536 19.5433C33.0737 19.6056 34.443 19.3748 34.6838 19.3143C35.5596 19.0942 36.0252 18.9728 35.5924 18.9686C35.4933 18.9674 33.5197 19.2889 33.398 19.2752C33.2434 19.2565 33.9503 19.1387 33.7705 19.1226C33.7557 19.1211 33.3218 19.2055 33.3352 19.1717C33.3914 19.0158 33.6147 18.8152 33.5434 18.6793C33.5353 18.6604 32.8518 18.8181 32.8288 18.793C32.7215 18.6756 32.7187 18.5233 33.0157 18.3301C33.091 18.2822 33.5769 18.2097 33.7187 18.1752C34.5764 17.9657 33.3064 18.1468 33.2805 18.1414C32.6298 18.0183 33.7339 17.6187 33.1445 17.4771C33.1101 17.4699 31.7414 17.6267 32.8896 17.359C32.966 17.3411 34.141 17.0688 33.3241 17.1844C33.273 17.1917 32.669 17.3367 32.7217 17.2759C32.7743 17.2151 32.3523 17.2147 33.009 17.0193C33.2159 16.958 34.3869 16.6802 33.4334 16.7969C33.3669 16.8053 31.2196 17.1148 32.6813 16.798C32.9219 16.7459 34.477 16.4537 33.6656 16.5304C33.5084 16.5455 33.1668 16.6384 32.9431 16.6417C32.5982 16.647 32.9996 16.4896 32.2936 16.5507C32.1686 16.5617 31.1037 16.7106 31.8961 16.5146C32.0202 16.4839 32.5414 16.3971 32.5951 16.3634C32.8532 16.2035 32.4841 16.1548 32.8221 15.9767C32.9408 15.9137 33.7833 15.7729 34.0003 15.6894C34.2173 15.6059 34.4179 15.4833 34.0265 15.5146C33.635 15.5459 32.3071 15.8478 32.188 15.8053C31.6713 15.6219 32.4022 15.1929 32.465 14.8994C32.4744 14.8557 32.0025 14.9808 31.9819 14.9227C31.9033 14.704 31.3825 14.4111 32.362 14.0229C33.1466 13.7124 33.8036 13.7895 34.1124 13.6079C34.2595 13.5206 32.6935 13.7553 32.6419 13.7509C32.1192 13.7114 32.7902 13.4876 32.5562 13.4085C32.5076 13.3921 31.8823 13.5364 31.8479 13.5209C31.7246 13.4683 31.9912 13.3379 31.9265 13.2782C31.8961 13.2516 31.416 13.3489 31.4477 13.3132C31.5179 13.2287 31.7087 13.1298 32.1471 12.9777C32.1871 12.9639 32.7934 12.8908 32.8061 12.8363C32.8249 12.7481 33.251 12.564 32.7732 12.5551C32.6296 12.5531 31.5296 12.7608 32.2776 12.5561C32.4339 12.5133 33.7576 12.2787 32.6032 12.425C32.4113 12.4492 30.8497 12.6233 31.831 12.3777C32.0892 12.313 33.1627 12.0694 32.9865 12.0683C32.9586 12.0689 32.3712 12.199 32.3083 12.1823C32.0973 12.1228 32.1403 12.0049 31.936 11.9387C31.8803 11.9212 31.2766 12.0773 31.2131 12.0475C31.0375 11.9656 31.1671 11.7985 31.3383 11.6556C31.4026 11.6026 31.9142 11.5341 31.9688 11.5208C32.8567 11.3057 31.6411 11.5053 31.5676 11.5032C31.1267 11.4854 31.6812 11.3043 31.514 11.2438C31.4694 11.2269 30.8957 11.3531 30.8433 11.358C30.331 11.4022 31.3744 11.2444 31.4826 11.1909C31.789 11.0399 31.7244 10.9519 31.6333 10.8734C31.599 10.8448 30.937 11.0089 30.914 10.9818C30.7648 10.8237 30.7944 10.6284 31.1312 10.3879C31.1956 10.3415 31.7148 10.2656 31.8312 10.2366C32.6457 10.0345 31.5095 10.176 31.3996 10.1802C30.8975 10.1995 31.3479 10.086 31.251 10.0387C30.7704 9.81321 31.0001 9.37051 31.1316 9.03996C31.301 8.61527 31.7365 8.22791 31.5413 7.88295C31.5296 7.86098 30.848 8.0107 30.829 7.99336C30.6167 7.76865 30.8368 7.45712 30.5919 7.23657C30.5729 7.21737 29.9281 7.36726 29.8757 7.34041C29.7636 7.28615 29.7826 7.18945 29.9775 7.08099C30.0714 7.02834 30.638 6.9736 30.7211 6.92275C30.8115 6.86771 30.8667 6.81809 30.8879 6.77459C30.9118 6.72169 30.8907 6.67697 30.8266 6.6415C30.7743 6.6136 30.1186 6.78789 30.1025 6.74226C29.9805 6.4433 29.8084 6.14077 30.6144 5.66728C30.6697 5.63452 32.0206 5.38111 31.7523 5.3771C31.376 5.43914 30.934 5.5166 30.5322 5.58521C30.234 5.15463 30.6228 4.6022 30.6163 4.10235C30.6159 4.08153 29.9028 4.2333 29.8983 4.19342C29.8705 3.95353 29.6352 3.75723 30.312 3.38874C30.3783 3.35283 31.6478 3.18052 31.4448 3.13219C31.4078 3.1236 31.2225 3.0363 30.9432 3.04733C30.901 3.04875 30.3123 3.15607 30.2894 3.11889C30.1681 2.90984 30.2696 2.64342 30.6012 2.31404C30.6557 2.25885 31.2944 2.24223 31.3389 2.20348C31.6544 1.92639 31.1305 1.74629 31.7159 1.07349C32.134 0.532017 33.2237 0.786055 34.3445 0.649374C34.4246 0.641838 34.4932 0.520055 34.652 0.389003C34.8128 0.242306 35.0807 0.120547 35.3491 0.288917C36.6351 1.22791 38.2603 1.8793 39.6768 2.80965C39.8443 2.90796 39.4694 3.46853 39.3371 3.66604C39.278 3.76975 39.315 3.79405 39.3809 3.85958C39.4591 3.91127 39.4953 4.07833 39.8025 4.07468C39.8202 4.09435 40.2039 3.8416 40.6018 3.38074C40.9944 2.92639 41.2404 2.58055 41.4244 2.48718C41.6776 2.34064 42.2006 2.87749 42.5631 2.52387C42.9145 2.1767 42.4151 1.80555 42.7398 1.61976C43.066 1.42864 43.7947 1.5031 43.8837 1.22776ZM37.0273 19.6267C37.6188 19.4594 35.4147 19.8764 35.9524 19.8304C35.981 19.8277 36.9984 19.6351 37.0273 19.6267ZM38.5789 25.7897C39.5373 25.5343 38.1 25.7646 37.359 25.9573C36.6188 26.1498 38.2884 25.8672 38.5789 25.7897ZM39.4231 26.3501C40.1738 26.1232 37.0484 26.7152 37.696 26.6773C37.7326 26.6753 39.3795 26.3633 39.4231 26.3501ZM34.5993 1.4065C34.6288 1.40378 34.6554 1.32846 34.626 1.32731C33.9123 1.29742 33.8604 1.47496 34.5993 1.4065ZM40.3292 26.8932C40.7469 26.7868 40.2456 26.8106 39.7262 26.9427C39.3083 27.0491 39.8096 27.0254 40.3292 26.8932ZM38.8613 16.4879C38.8939 16.4808 38.9177 16.4451 38.7323 16.4813C38.135 16.5982 38.3117 16.6075 38.8613 16.4879ZM40.593 28.0633C40.6769 27.8665 43.2362 27.2618 42.9818 27.5075C42.9358 27.552 42.1448 27.5928 41.9207 27.6815C41.5124 27.8434 43.1425 27.583 42.2903 27.8325C42.1343 27.8781 40.5825 28.0756 40.5893 28.0637C40.5906 28.0635 40.5918 28.0634 40.593 28.0633ZM39.6673 19.0871C39.6963 19.0805 39.7159 19.034 39.6869 19.0386C38.9833 19.1511 38.9432 19.2448 39.6673 19.0871ZM39.8892 14.4843C39.9508 14.4701 39.9906 14.3634 39.9328 14.3713C38.7795 14.5404 38.6957 14.7569 39.8892 14.4843ZM41.816 21.5581C42.5282 21.4673 42.6215 21.5053 41.7451 21.712C41.7833 21.6581 41.7815 21.6115 41.816 21.5581Z" fill="#FFEE00"/>
<path d="M6.96335 14.6195C6.86556 14.3417 6.96933 14.6366 6.97259 14.9542C6.97932 15.0561 6.78524 15.4039 6.78162 15.4901C6.77578 15.6587 6.9263 15.5141 6.91369 15.7115C6.9099 15.7793 6.61428 16.3362 6.61693 16.3944C6.63634 16.7107 6.8374 16.6266 6.92621 16.8142C7.37974 17.7461 8.05389 18.2993 8.72198 18.9019C8.94742 19.1022 9.04194 19.7655 9.4033 19.6488C9.44647 19.635 9.64615 19.1192 9.67013 19.0799C10.0397 18.4797 9.56762 19.4913 9.57126 19.6543C9.59 20.221 9.77113 20.41 10.0443 20.3894C10.0803 20.3855 10.1179 20.3774 10.1566 20.3653C10.2913 20.3225 10.6239 19.2706 10.4812 19.8798C10.4718 19.9211 10.216 20.4501 10.2186 20.5193C10.2249 20.6751 10.385 20.6294 10.416 20.6932C10.4736 20.8184 10.4959 20.8215 10.5779 20.8637C10.6901 20.927 10.7186 21.2563 10.9021 21.1899C10.942 21.1741 11.1404 20.6046 11.2253 20.5294C11.3106 20.4546 11.4083 20.5516 11.3904 20.6981C11.3736 20.8452 11.1722 21.2735 11.1366 21.3761C10.835 22.2421 11.4652 21.133 11.4949 21.1116C12.0274 20.7575 12.0063 21.5327 12.3118 21.6598C12.5408 21.7534 12.8693 21.6335 13.0766 21.7566C13.319 21.9039 13.4032 22.2934 13.6793 22.349C13.7081 22.3555 13.9518 21.6904 13.9875 21.697C14.3566 21.7633 14.6736 21.9806 14.824 22.5621C14.839 22.6211 14.5544 23.1752 14.555 23.2684C14.5624 23.8254 14.4267 25.0987 15.5951 22.6561C15.6939 22.8122 15.823 22.9848 15.7392 23.541C15.6855 23.899 15.3434 24.4893 15.5564 24.2656C15.6042 24.2159 15.804 23.657 15.8583 23.6238C16.0889 23.4854 16.1656 23.7265 16.4256 23.5036C16.4788 23.4569 16.6766 22.964 16.7217 22.8793C17.0897 22.1939 16.7083 23.4221 16.6973 23.5184C16.619 24.2378 16.8654 24.0451 17.0324 24.1336C17.0714 24.1545 17.2992 23.4766 17.3467 23.4732C17.5891 23.464 17.7777 23.6095 17.858 23.9864C17.8744 24.0715 17.5989 24.6148 17.5946 24.684C17.5783 24.9826 18.0425 23.9329 18.0359 24.199C18.0351 24.2537 17.8235 24.729 17.8048 24.7831C17.512 25.6326 18.05 24.4805 18.0747 24.4604C18.3985 24.1805 17.999 25.4512 18.2434 25.35C18.2732 25.3366 18.481 24.7102 18.5492 24.7098C18.996 24.7 19.3356 25.0381 19.5065 25.6802C19.5335 25.7793 19.3011 26.218 19.2812 26.2757C18.9735 27.1792 19.5048 26.0184 19.5424 25.9821C19.8264 25.726 19.555 26.7723 20.2447 25.4135C20.6796 26.167 21.645 25.6456 21.7552 27.1671C21.7572 27.185 21.5005 27.7588 21.5056 27.7921C21.5645 28.199 21.9045 27.2826 22.4917 26.2335C22.6393 25.9701 22.1812 27.3416 22.1492 27.4427C22.0306 27.8153 21.6376 28.6644 21.6191 28.7384C21.4783 29.3215 22.6553 26.4626 22.7738 26.511C22.7756 26.5173 22.5408 27.036 22.5289 27.0923C22.4913 27.2691 22.609 27.0732 22.5637 27.2666C22.4583 27.7138 21.9041 29.1104 22.347 28.3478C22.4041 28.2487 23.0592 26.6217 23.1335 26.7426C23.1627 26.7921 23.3617 26.8426 23.3692 26.9689C23.3774 27.0953 23.1241 27.602 23.1184 27.6261C22.9704 28.3741 22.7981 28.6378 22.4421 29.6881C22.0879 30.7346 23.0809 28.3005 23.2226 28.0416C23.364 27.7836 23.2296 28.3956 23.1724 28.604C23.1152 28.8125 22.9452 29.1307 22.9211 29.2521C22.7653 30.0462 23.4892 28.0753 23.6992 27.7108C24.196 26.8476 23.5361 28.6847 23.5697 28.9057C23.5788 28.9654 23.7261 28.5458 23.7679 28.5182C23.9295 28.4138 23.7559 29.0005 24.0855 28.5337C24.1393 28.4576 24.6835 27.4146 24.4127 28.2337C24.3735 28.3517 24.1622 28.79 24.1635 28.9084C24.1651 29.086 24.2406 29.2326 24.3728 29.1118C24.4705 29.0223 24.7197 28.2589 24.6887 28.5154C24.6747 28.6299 24.4411 29.0399 24.4299 29.2189C24.4182 29.3977 24.5647 29.4365 24.6224 29.443C24.6804 29.4493 24.8859 28.8771 24.9058 28.8411C25.0212 28.6353 25.2332 28.4065 25.2417 28.4108C25.7126 28.5268 25.7338 29.6446 26.2945 29.5113C26.3383 29.5017 26.562 28.9012 26.5713 28.8937C26.7908 28.6945 26.0441 30.2278 25.9062 30.7877C26.3943 29.5833 26.3518 29.8205 26.4888 29.7232C26.5552 29.6753 26.7272 29.2019 26.7506 29.1559C27.1033 28.4749 26.7645 29.4031 26.6974 29.5939C26.4506 30.2958 26.8307 29.5033 26.6662 29.9727C26.5032 30.4386 26.1611 31.0875 26.2437 31.1118C26.4448 30.6917 26.8537 29.5452 26.9895 29.3884C27.5011 28.7942 27.553 29.8491 27.697 30.0164C27.84 30.1832 27.9326 30.1288 27.9728 30.3277C28.0453 30.6871 28.3227 29.8257 28.5992 29.4937C28.8761 29.1619 27.9654 31.1864 27.7989 31.6338C27.6323 32.0809 27.8392 31.6354 27.7592 31.886C27.6792 32.1366 27.5096 32.4173 27.5205 32.5284C27.5314 32.6395 27.991 31.912 28.2001 31.4588C28.643 30.4985 29.0092 29.4496 28.9887 29.8632C28.9873 29.8876 28.7388 30.4162 28.7446 30.4825C28.7987 30.9917 29.0221 31.1149 29.0942 31.5753C29.1038 31.6394 28.8266 32.2271 28.8294 32.2713C28.8576 32.7327 29.2112 31.6944 29.7816 30.6149C29.1365 32.099 28.8129 33.0365 28.9522 33.1049C29.0357 33.1465 29.2926 32.488 29.5397 32.0513C29.6141 31.9197 29.4885 32.393 29.6272 32.0908C30.0811 31.103 30.4917 29.9566 30.4525 30.4648C30.4501 30.4888 30.2011 31.0292 30.2094 31.0717C30.2624 31.3491 30.7163 30.3072 30.9247 30.2449C31.0881 30.196 31.039 30.9261 31.1351 31.0882C30.433 32.7664 30.7248 32.4366 31.2603 31.301C31.3316 31.3863 31.4552 31.3609 31.4758 31.5573C31.483 31.6243 31.2609 32.1023 31.2428 32.1564C30.9577 33.0047 31.4658 31.8945 31.5036 31.8584C31.8931 31.5168 31.7098 32.4423 32.2591 31.6919C32.2788 31.6648 32.7759 30.5031 32.4754 31.3774C32.4545 31.4375 32.1668 31.9405 32.2448 32.0211C32.3234 32.1021 32.2404 32.8013 32.597 32.3155C32.6829 32.1986 33.1575 31.285 32.9142 32.0518C32.881 32.1559 32.7323 32.4866 32.6673 32.6779C32.4605 33.2879 32.9732 32.1179 32.6036 33.1393C32.2339 34.1607 32.0201 34.9518 32.4407 34.316C32.4533 34.2977 32.8737 33.3762 32.9094 33.4084C32.966 33.4606 32.98 33.6948 33.0517 33.7175C33.0863 33.7281 33.3065 33.1389 33.3167 33.1307C33.6755 32.8984 33.6194 33.4821 33.7661 33.8065C33.7925 33.8672 34.2484 33.1284 34.0734 33.7896C33.882 34.5135 32.6007 37.3228 33.0979 36.7334C33.2973 36.4979 34.9109 32.9287 34.2873 34.8663C34.7821 34.5277 34.6642 35.6031 35.2421 35.0662C35.268 35.0425 35.7307 34.0516 35.757 34.0786C35.7952 34.1207 35.6251 34.6031 35.6461 34.6482C35.7292 34.8494 36.0272 34.5002 36.1384 34.62C36.181 34.6645 35.96 35.1445 36.0108 35.1976C36.0618 35.2503 36.3704 34.6255 36.3256 34.9706C36.291 35.2335 35.8084 36.5721 35.829 36.7601C36.3708 35.467 36.4175 35.5177 36.6625 35.2188C36.7099 35.1608 36.8761 34.7014 36.9082 34.6507C37.0428 34.4344 36.9227 34.8224 37.064 34.5847C37.0981 34.5276 37.2824 34.0857 37.3206 34.0142C37.6526 33.3886 37.3397 34.4249 37.285 34.6052C37.0778 35.2903 37.348 34.7283 37.2912 35.0084C37.2343 35.2884 37.0237 35.5804 37.0177 35.7622C37.0055 36.1384 37.1937 36.1329 37.31 36.2051C37.3575 36.2312 37.569 35.627 37.5816 35.617C37.7468 35.5102 37.5898 36.1812 38.1359 35.0296C36.9431 38.0984 38.3206 34.7606 38.2149 35.4303C38.206 35.4843 37.6229 36.9277 37.4906 37.1201C37.3583 37.3124 37.4777 36.835 37.2791 37.1382C37.2323 37.2093 36.5883 38.5212 36.5429 38.598C36.1881 39.1983 37.0689 37.0454 37.1132 36.9254C37.589 35.6301 36.8832 37.0384 36.8144 37.1274C36.4997 37.5353 36.5204 37.1896 36.2807 37.4745C36.1249 37.6583 35.5331 39.0623 35.498 38.9972C35.3809 38.7815 36.1358 36.7935 35.2619 38.426C35.0754 38.7741 34.471 40.3264 34.8466 39.0643C34.8702 38.9848 35.2359 37.8394 34.8899 38.5162C34.8464 38.6015 34.6602 39.0497 34.6354 39.0836C34.4732 39.3018 34.5812 38.9279 34.4437 39.0713C34.3063 39.2147 34.1206 39.4364 34.1082 39.253C34.1005 39.1431 34.3894 38.2839 34.4526 38.0705C34.636 37.4561 34.1684 38.394 34.4269 37.6651C34.6866 36.9325 35.2145 35.8755 35.3063 35.3706C34.8183 36.5332 34.3125 37.7246 33.8194 38.8929C33.6158 38.7601 33.5548 38.2931 33.3113 38.2521C33.2806 38.2482 33.0484 38.8858 33.0088 38.8977C32.843 38.9453 32.92 38.454 32.7172 38.578C32.5592 38.6765 32.1742 39.2936 32.0005 39.4172C32.4915 38.0587 32.1478 38.4462 32.0857 38.2776C32.0638 38.2191 32.2145 37.8645 32.2347 37.7367C32.3074 37.2634 31.8672 38.4612 31.7611 38.6344C31.3076 39.3732 32.4057 36.7043 32.2317 36.7091C32.2229 36.7085 31.537 38.0893 31.4871 38.1723C31.1641 38.7145 31.6791 37.6722 31.6708 37.5457C31.6558 37.3145 31.7311 36.9479 31.4468 37.3176C31.363 37.4273 30.9164 38.28 31.1381 37.5689C31.1671 37.4758 31.3671 37.0083 31.3718 36.978C31.4413 36.4693 30.8243 37.9431 30.5472 38.4138C30.2701 38.8845 30.5871 37.8218 30.6875 37.5193C30.9467 36.7364 30.8661 37.2129 30.9002 37.1397C31.3054 36.2681 31.1639 36.3884 31.1357 36.2887C31.729 34.8388 31.6097 34.891 31.1039 36.1912C31.0488 36.3333 31.1512 36.2177 31.1357 36.2887C30.4929 37.686 30.3259 37.8298 30.777 36.4617C30.9885 35.8206 31.3347 35.1145 31.0811 35.32C30.9664 35.4126 30.577 36.4189 30.4066 36.6666C30.0169 37.2311 30.2324 36.2309 30.0359 36.3209C29.9646 36.3535 29.7857 36.9186 29.7291 36.9597C29.5783 37.0705 29.6699 36.6288 29.4933 36.8011C29.477 36.8174 29.2593 37.3962 29.2284 37.3919C28.99 37.3705 28.9592 36.9288 28.7419 36.8265C28.6371 36.7774 28.3155 37.0127 28.2316 36.9036C28.0845 36.7176 28.197 35.7909 27.9482 35.9238C27.7875 36.0083 27.5734 36.5888 27.3657 36.9586C26.9635 37.6755 27.3696 36.2604 27.4357 36.0426C27.438 36.0354 27.5857 35.9391 27.6588 35.6257C27.8845 35.0035 27.4379 36.0404 27.4357 36.0426C27.4781 35.9018 27.3491 35.6961 27.2674 35.7901C27.2229 35.8415 27.0087 36.3868 26.9898 36.4034C26.5448 36.7859 26.2406 36.8204 26.0973 36.4641C26.0975 36.4513 26.356 35.8493 26.3532 35.8269C26.3214 35.498 25.9212 36.1996 25.62 36.5895C25.3187 36.9793 25.2867 36.7934 25.649 35.7259C25.5046 35.8191 25.5669 35.3064 25.6089 34.9971C25.6509 34.6877 25.1501 35.8607 25.1339 35.8812C24.6206 36.5416 24.7843 35.819 24.6185 35.6268C24.5414 35.5338 24.2703 35.6213 24.1082 35.7048C23.9791 35.7727 24.0425 35.4753 23.89 35.6188C23.8696 35.6379 23.6619 36.1666 23.6502 36.1854C23.3008 36.7758 23.8772 35.5121 23.9544 35.2757C24.2354 34.416 24.3795 33.9559 24.104 34.3005C24.0407 34.3794 23.1962 36.1929 23.1041 36.2811C22.9858 36.3924 23.2845 35.7408 23.1537 35.8742C23.1426 35.885 22.974 36.2936 22.9415 36.259C22.788 36.1032 22.6849 35.7816 22.476 35.7425C22.4481 35.7356 22.2119 36.3967 22.1672 36.3973C21.9569 36.3997 21.7758 36.2961 21.7263 35.9199C21.7154 35.8254 21.9312 35.3836 21.978 35.2452C22.2603 34.4074 21.6862 35.5563 21.6634 35.5733C21.1074 36.0085 21.3157 34.8389 20.7774 35.2125C20.7472 35.2351 20.0821 36.446 20.4752 35.3335C20.5013 35.2594 20.9055 34.1221 20.5353 34.8605C20.5121 34.9067 20.3104 35.4949 20.2697 35.4094C20.229 35.3241 19.9649 35.6629 20.1386 34.9966C20.1931 34.7866 20.5897 33.6493 20.1368 34.4988C20.1062 34.5585 19.1399 36.5035 19.6691 35.1041C19.7563 34.8739 20.3737 33.417 19.9599 34.1234C19.88 34.2604 19.7792 34.6008 19.6433 34.7829C19.4344 35.0637 19.4945 34.6296 19.1275 35.2402C19.0628 35.3484 18.5781 36.3098 18.8356 35.534C18.8759 35.4125 19.0963 34.932 19.0891 34.865C19.0561 34.5439 18.7722 34.8082 18.766 34.4096C18.7639 34.2695 19.1194 33.4925 19.1538 33.2589C19.1881 33.0253 19.1648 32.7771 18.9583 33.1137C18.7518 33.4506 18.2883 34.732 18.1624 34.7974C17.6179 35.0825 17.5596 34.1928 17.2417 33.9333C17.1946 33.8947 17.0513 34.3627 16.9685 34.3381C16.6646 34.2503 15.9733 34.4561 16.1224 33.3967C16.2398 32.5473 16.7389 32.0721 16.7134 31.6958C16.6993 31.5155 16.0063 32.9408 15.9688 32.9791C15.5946 33.371 15.7419 32.6728 15.4997 32.8045C15.4497 32.832 15.2342 33.437 15.1943 33.4538C15.0554 33.5162 15.0686 33.2114 14.9542 33.2203C14.903 33.2259 14.7214 33.6809 14.6978 33.63C14.6391 33.5135 14.6381 33.2898 14.7271 32.8293C14.7352 32.7874 15.025 32.2481 14.9667 32.1991C14.8716 32.1214 14.9126 31.6475 14.6083 32.0271C14.5171 32.1414 14.0836 33.1736 14.3027 32.4271C14.3482 32.2711 14.8894 31.0404 14.3466 32.0723C14.2562 32.2436 13.4933 33.6225 13.8072 32.6591C13.8898 32.4056 14.2636 31.3695 14.1523 31.5103C14.1356 31.5332 13.9272 32.0979 13.8677 32.1365C13.6616 32.2629 13.5525 32.1475 13.3462 32.2652C13.2901 32.2975 13.1032 32.8939 13.0273 32.9237C12.8181 33.0065 12.6959 32.7834 12.6289 32.544C12.6047 32.4546 12.8405 31.9946 12.8584 31.9413C13.1502 31.0743 12.6373 32.1946 12.5892 32.2522C12.2972 32.596 12.4234 32.0215 12.2452 32.1127C12.1968 32.1365 11.9925 32.6876 11.9657 32.7331C11.7 33.1764 12.1588 32.2253 12.1612 32.1002C12.1693 31.7466 12.0189 31.7346 11.8708 31.7538C11.8161 31.7616 11.6013 32.4099 11.5553 32.4096C11.2809 32.4216 11.053 32.255 10.9733 31.8142C10.9585 31.7299 11.1888 31.258 11.2264 31.1439C11.4901 30.346 10.9573 31.3615 10.8945 31.4532C10.6079 31.8718 10.7485 31.4279 10.6307 31.4722C10.0542 31.6969 9.66322 31.1987 9.35768 30.8637C8.94281 30.4233 8.74612 29.7985 8.22156 29.7167C8.18844 29.7109 7.94687 30.366 7.91401 30.3689C7.4995 30.3757 7.2796 29.9862 6.85523 30.0244C6.82142 30.0266 6.60238 30.652 6.53943 30.676C6.40852 30.7295 6.30889 30.648 6.29449 30.4123C6.28804 30.299 6.57285 29.8036 6.56189 29.7002C6.537 29.4584 6.44132 29.3663 6.29209 29.4178C6.22805 29.441 6.03121 30.0923 5.96869 30.0741C5.94844 30.0688 5.92822 30.0637 5.90806 30.0587C5.47872 29.9469 5.06939 29.8436 4.99859 28.9042C4.99319 28.8364 5.51221 27.5635 5.34678 27.7791C5.19096 28.1273 5.0133 28.5393 4.84965 28.9127C4.15708 28.8528 3.74322 28.1531 3.16036 27.8147C3.13523 27.8003 2.88689 28.4868 2.83514 28.4617C2.54208 28.3201 2.17284 28.3762 2.16202 27.5765C2.16227 27.4989 2.70566 26.3387 2.53429 26.4736C2.50263 26.498 2.29866 26.5927 2.14761 26.8293C2.12501 26.8651 1.90199 27.4207 1.84797 27.415C1.55101 27.3784 1.32087 27.1206 1.1844 26.6476C1.16402 26.5707 1.49479 26.0236 1.48089 25.963C1.38369 25.5363 0.918884 25.8558 0.728163 25.0703C0.550271 24.4976 1.27506 23.6551 1.69874 22.6174C1.72786 22.541 1.66645 22.4431 1.59145 22.2108C1.53771 22.0728 1.50605 21.9341 1.47564 21.6852C1.45845 21.4605 1.52115 21.2196 1.66794 21.1475C2.41276 20.8507 3.29308 20.9264 4.02379 20.4469C4.77838 20.0516 5.35228 19.3105 6.28765 19.2785C6.37357 19.298 6.65528 19.5337 6.79709 20.5538C6.85917 20.994 6.77692 21.7395 6.58428 22.2231C6.39412 22.7363 6.16204 23.0606 6.03681 23.2422C5.76406 23.6108 5.8209 23.5876 5.88324 23.6628C5.91807 23.6935 5.95037 23.7436 6.01931 23.7795C6.09518 23.8017 6.19312 23.8611 6.57435 23.5599C6.6141 23.5016 6.90371 23.3215 7.31645 22.3724C7.78687 21.435 7.6447 19.5968 7.3249 18.9335C6.68593 17.4486 6.54125 17.4023 6.52409 17.1196C6.51244 16.8323 7.19881 16.5821 7.08704 16.1347C6.97556 15.6985 6.50985 16.036 6.57189 15.705C6.63842 15.3748 7.04109 14.7658 6.96335 14.6195ZM25.7948 33.6136C25.9621 33.0198 25.0892 35.0862 25.3695 34.6216C25.3841 34.5967 25.7868 33.6428 25.7948 33.6136ZM34.206 36.7314C34.4965 35.7806 33.8764 37.0983 33.646 37.8301C33.416 38.5611 34.1181 37.0196 34.206 36.7314ZM35.4103 36.45C35.6054 35.6863 34.3671 38.6164 34.7261 38.0692C34.7465 38.0384 35.399 36.4944 35.4103 36.45ZM2.45076 22.7367C2.46395 22.7101 2.40962 22.6469 2.39104 22.6702C2.00068 23.2684 2.13016 23.4059 2.45076 22.7367ZM36.6323 36.1066C36.7649 35.6958 36.4803 36.1153 36.3153 36.6262C36.1825 37.0372 36.4673 36.6177 36.6323 36.1066ZM23.1509 29.9174C23.1627 29.8861 23.1344 29.8417 23.0624 30.0164C22.8308 30.5792 22.9525 30.4439 23.1509 29.9174ZM38.2102 36.7234C38.025 36.5166 38.8941 34.0323 39.0319 34.4107C39.0569 34.4792 38.6118 35.1435 38.5789 35.3864C38.5192 35.829 39.2234 34.3351 38.9923 35.1964C38.9497 35.354 38.2185 36.7405 38.2083 36.7266C38.2089 36.7255 38.2095 36.7244 38.2102 36.7234ZM26.7918 31.1101C26.8018 31.0821 26.7579 31.0334 26.7453 31.06C26.4417 31.705 26.5301 31.8036 26.7918 31.1101ZM21.3714 27.6715C21.3927 27.6119 21.2881 27.5041 21.2615 27.5561C20.7461 28.6029 20.9564 28.824 21.3714 27.6715ZM31.1187 31.1339C31.454 30.4975 31.5583 30.4495 31.2604 31.3C31.2191 31.2311 31.1617 31.1996 31.1187 31.1339Z" fill="#FFEE00"/>
<path d="M1.42894 45.4855C1.52449 45.2532 1.78251 45.3943 2.01513 45.6243C2.08777 45.6954 2.17734 46.0836 2.23259 46.1499C2.34051 46.279 2.34427 46.0744 2.45988 46.2321C2.49874 46.2863 2.65252 46.8975 2.68916 46.9405C2.88865 47.1714 2.95642 46.9839 3.11623 47.076C3.90375 47.5305 4.56001 47.5817 5.24822 47.6761C5.47499 47.7067 5.88116 48.182 6.0163 47.881C6.03192 47.8453 5.85975 47.3198 5.85133 47.2748C5.72416 46.585 6.0188 47.6615 6.10809 47.7896C6.46161 48.2951 6.68343 48.2822 6.80193 48.0243C6.85188 47.913 6.46193 46.8836 6.7147 47.4513C6.73192 47.4896 6.88013 48.058 6.91893 48.1117C7.00659 48.2325 7.06669 48.1052 7.11676 48.1388C7.21409 48.2064 7.22413 48.1972 7.2931 48.1837C7.38884 48.17 7.58117 48.4172 7.64156 48.2604C7.65395 48.2253 7.45438 47.6569 7.45863 47.5488C7.46295 47.4408 7.56617 47.4633 7.63655 47.5904C7.70696 47.7175 7.82925 48.1745 7.86549 48.2768C8.17022 49.1408 7.911 47.8957 7.91524 47.8618C8.00338 47.2783 8.41577 47.9087 8.641 47.8395C8.81155 47.7855 8.92683 47.5025 9.09928 47.4852C9.3054 47.4668 9.56319 47.7303 9.73599 47.6203C9.75442 47.6094 9.5291 46.9383 9.55121 46.9236C9.78626 46.7676 10.065 46.7651 10.4588 47.1461C10.4985 47.1849 10.6425 47.7902 10.6928 47.8645C10.9964 48.3067 11.5964 49.4076 10.9181 46.7877C11.0552 46.857 11.2162 46.9229 11.4676 47.4169C11.6294 47.7348 11.7627 48.4012 11.7561 48.1019C11.7548 48.0351 11.5634 47.4738 11.5743 47.4166C11.6203 47.1766 11.7932 47.3261 11.8126 47.0008C11.8161 46.9333 11.6586 46.4262 11.6374 46.3327C11.4681 45.5751 11.9196 46.7763 11.965 46.8599C12.3059 47.4821 12.3323 47.1894 12.4703 47.166C12.5024 47.1608 12.2623 46.4881 12.2859 46.4586C12.4109 46.3147 12.5881 46.3259 12.8295 46.5842C12.8836 46.6433 13.0262 47.2348 13.061 47.2929C13.2121 47.5417 12.9002 46.4372 13.0389 46.6546C13.0677 46.6991 13.2081 47.1999 13.227 47.2539C13.5238 48.1011 13.1966 46.8729 13.1991 46.8429C13.2226 46.4359 13.6862 47.6818 13.761 47.4636C13.7695 47.4362 13.547 46.8158 13.5826 46.7773C13.8184 46.5175 14.1742 46.6002 14.6092 47.0199C14.6766 47.0843 14.7861 47.5675 14.8063 47.6251C15.1235 48.5242 14.7887 47.2926 14.7894 47.2423C14.8045 46.8769 15.2163 47.8707 14.8599 46.3911C15.4927 46.7529 15.7291 45.7921 16.5961 46.9544C16.6067 46.9677 16.7751 47.5732 16.7955 47.5971C17.0423 47.8918 16.7354 46.9641 16.4911 45.7906C16.4298 45.4959 16.9156 46.8559 16.9523 46.9553C17.0874 47.3215 17.3295 48.2248 17.359 48.2947C17.5943 48.8428 16.7009 45.883 16.7899 45.8554C16.7942 45.8595 16.9449 46.4084 16.9685 46.4604C17.0425 46.6237 17.001 46.4001 17.0797 46.5811C17.2613 46.9999 17.7087 48.4342 17.5387 47.5725C17.5164 47.4608 17.0004 45.7846 17.1037 45.8403C17.1453 45.8639 17.2774 45.7932 17.3492 45.8904C17.421 45.9874 17.5553 46.5371 17.5651 46.5597C17.8845 47.2443 17.9327 47.5531 18.3017 48.5976C18.6695 49.6381 17.9043 47.1231 17.8421 46.8354C17.7803 46.5486 18.0341 47.1163 18.1144 47.316C18.1947 47.5159 18.2734 47.8671 18.325 47.9783C18.664 48.7046 18.002 46.7131 17.9199 46.3021C17.7254 45.3292 18.3501 47.1774 18.4847 47.3366C18.5211 47.3796 18.3767 46.9593 18.3841 46.9138C18.4152 46.739 18.6349 47.3083 18.5626 46.7479C18.5509 46.6565 18.2865 45.5122 18.5776 46.3231C18.6194 46.44 18.7398 46.9111 18.8035 47.0057C18.8988 47.1477 19.0167 47.2234 19.0227 47.0522C19.027 46.9255 18.7542 46.1715 18.8738 46.3953C18.9271 46.4953 19.0208 46.9561 19.1097 47.1065C19.1985 47.2569 19.2958 47.2064 19.3305 47.1792C19.365 47.1517 19.1702 46.5761 19.1617 46.536C19.1139 46.3057 19.1056 46.0027 19.1124 46.0014C19.4266 45.8304 20.0281 46.7193 20.2579 46.2973C20.2762 46.2651 20.0763 45.6565 20.0772 45.6452C20.0884 45.362 20.5052 47.0142 20.7292 47.5421C20.3494 46.2994 20.4527 46.5141 20.4738 46.3591C20.4837 46.2834 20.3238 45.806 20.3119 45.7559C20.1378 45.0103 20.4504 45.9472 20.5159 46.1383C20.7572 46.8415 20.5385 45.9909 20.7002 46.4608C20.8607 46.9271 21.0235 47.6409 21.0801 47.6143C20.9639 47.1636 20.5729 46.0117 20.5617 45.8095C20.5187 45.0447 21.1079 45.8644 21.2726 45.9187C21.4371 45.9729 21.4566 45.8776 21.584 46.0151C21.8141 46.2637 21.5041 45.415 21.4753 44.9928C21.4468 44.5706 22.0369 46.7102 22.1859 47.1636C22.3346 47.6168 22.2082 47.1423 22.2987 47.3889C22.3892 47.6354 22.4479 47.9563 22.5128 48.0397C22.5776 48.1229 22.4359 47.28 22.3066 46.7981C22.0324 45.7771 21.6705 44.7277 21.8791 45.0722C21.8913 45.0927 22.0397 45.6573 22.0779 45.7074C22.3763 46.0873 22.561 46.0613 22.8444 46.3914C22.8836 46.4377 23.048 47.066 23.0729 47.1C23.3331 47.4557 22.97 46.4218 22.7006 45.2335C23.145 46.7894 23.4706 47.7253 23.5808 47.7024C23.6472 47.6892 23.4343 47.0153 23.3339 46.5255C23.3036 46.3779 23.4879 46.8293 23.4013 46.5083C23.1185 45.459 22.7282 44.3063 22.9773 44.7374C22.9887 44.758 23.143 45.3325 23.1701 45.3621C23.346 45.5556 23.0346 44.4627 23.1127 44.2959C23.1739 44.165 23.5354 44.7803 23.6723 44.8571C24.1894 46.6012 24.1695 46.1725 23.8516 44.9584C23.9342 44.9874 23.9874 44.8976 24.1027 45.0441C24.1421 45.0941 24.2776 45.6032 24.2967 45.6569C24.5953 46.4995 24.2765 45.3212 24.2776 45.271C24.3039 44.7779 24.6975 45.6257 24.5913 44.7142C24.5874 44.6814 24.2354 43.4678 24.5394 44.3399C24.5602 44.4001 24.6741 44.966 24.7582 44.9874C24.8424 45.0088 25.1704 45.6179 25.1024 45.0272C25.0862 44.8849 24.854 43.8838 25.1316 44.6374C25.1691 44.7397 25.2655 45.0892 25.3324 45.2797C25.5461 45.8865 25.1981 44.6575 25.5434 45.6868C25.8888 46.7161 26.1948 47.4728 26.0811 46.7255C26.078 46.7037 25.8127 45.7265 25.8487 45.7325C25.9065 45.7428 26.038 45.9237 26.0885 45.9018C26.1126 45.8909 25.9171 45.2933 25.9181 45.281C25.9864 44.8931 26.2664 45.3944 26.5167 45.5736C26.5629 45.6077 26.4134 44.7578 26.671 45.3882C26.9533 46.0782 27.7619 49.0573 27.7139 48.3045C27.6953 48.0032 26.6603 44.2263 27.3567 46.1354C27.4409 45.5859 27.9477 46.5181 27.9711 45.7623C27.9723 45.7287 27.6928 44.6719 27.7212 44.6789C27.7639 44.6914 27.9294 45.175 27.9646 45.1996C28.1157 45.3151 28.0891 44.8672 28.2118 44.9015C28.2581 44.9135 28.3951 45.4237 28.4504 45.438C28.5054 45.4519 28.3381 44.7762 28.4973 45.0792C28.6183 45.3102 29.0719 46.6581 29.1827 46.798C28.7849 45.4537 28.8368 45.4683 28.8087 45.0905C28.8031 45.0173 28.6478 44.5544 28.638 44.4956C28.5949 44.246 28.7369 44.6257 28.686 44.3552C28.6739 44.2902 28.5375 43.8313 28.5199 43.7523C28.3647 43.0628 28.7481 44.0723 28.8146 44.2481C29.0679 44.9158 28.9135 44.312 29.0319 44.5694C29.1502 44.8267 29.193 45.1797 29.2863 45.3294C29.4795 45.6391 29.5765 45.5296 29.6769 45.5226C29.7161 45.517 29.508 44.9121 29.5094 44.8971C29.5408 44.7186 29.8134 45.3468 29.493 44.1139C30.4865 47.2524 29.4487 43.794 29.7478 44.3924C29.7718 44.4409 30.2272 45.9293 30.2589 46.1584C30.2905 46.3872 30.1007 45.936 30.1558 46.2913C30.1687 46.3747 30.5219 47.7914 30.5385 47.8786C30.6681 48.5605 29.9945 46.3341 29.9545 46.2127C29.5203 44.9035 29.8917 46.4324 29.9024 46.5425C29.9514 47.0471 29.779 46.7571 29.8026 47.1206C29.8172 47.3557 30.2472 48.8175 30.194 48.7847C30.0172 48.6765 29.364 46.6532 29.765 48.4568C29.8504 48.8415 30.3524 50.4295 29.8825 49.2032C29.8528 49.1259 29.4395 47.9991 29.6145 48.7375C29.6366 48.8306 29.7754 49.2957 29.7802 49.3368C29.8097 49.6032 29.6688 49.2418 29.6717 49.4341C29.6747 49.6264 29.6936 49.9089 29.5896 49.7681C29.5272 49.6839 29.225 48.8304 29.1454 48.6232C28.917 48.0258 29.1657 49.0427 28.9165 48.3111C28.666 47.5759 28.3861 46.4294 28.167 45.9714C28.5241 47.1807 28.8871 48.423 29.2446 49.6396C29.0654 49.6467 28.7852 49.3047 28.634 49.4079C28.6156 49.4219 28.8303 50.0653 28.8156 50.097C28.7527 50.2281 28.5329 49.7894 28.4906 50.0028C28.4587 50.1704 28.5811 50.8828 28.5541 51.0796C28.0942 49.7111 28.1173 50.2152 27.9949 50.1141C27.9522 50.0793 27.8441 49.7094 27.7871 49.5952C27.5747 49.1733 27.9761 50.3842 28.0115 50.583C28.1623 51.4316 27.3304 48.6681 27.2402 48.7694C27.2352 48.7738 27.6028 50.2695 27.6203 50.3642C27.736 50.9816 27.4571 49.8541 27.3854 49.7569C27.2546 49.5791 27.1 49.2418 27.1447 49.6987C27.1583 49.8339 27.3733 50.7703 27.114 50.0737C27.0801 49.9825 26.9384 49.4941 26.9248 49.4671C26.692 49.0185 27.1457 50.5504 27.2482 51.0845C27.3505 51.6185 26.9552 50.5855 26.8481 50.2857C26.5705 49.5103 26.7806 49.9391 26.7599 49.8611C26.513 48.9326 26.5015 49.1085 26.4335 49.0441C25.9798 47.5446 25.944 47.6534 26.3649 48.9833C26.4109 49.1286 26.4041 48.9782 26.4335 49.0441C26.833 50.5289 26.8203 50.738 26.3342 49.3841C26.1064 48.7496 25.916 47.9873 25.8898 48.2947C25.8777 48.4336 26.2046 49.4617 26.2452 49.7564C26.3378 50.429 25.9219 49.503 25.8651 49.6853C25.8445 49.7515 26.0492 50.3066 26.0409 50.3714C26.0194 50.545 25.8337 50.138 25.8311 50.3756C25.831 50.3979 26.0224 50.9858 26.0037 50.9996C25.8651 51.1157 25.6136 50.7776 25.4444 50.8165C25.3628 50.8356 25.3167 51.205 25.214 51.1641C25.0371 51.0967 24.6033 50.2881 24.5425 50.534C24.5022 50.6918 24.6963 51.2791 24.7821 51.693C24.9489 52.4953 24.4139 51.1286 24.3334 50.9163C24.3308 50.9092 24.3582 50.749 24.2308 50.4558C24.0206 49.8285 24.3334 50.9133 24.3334 50.9163C24.2813 50.7792 24.1032 50.6858 24.1096 50.8072C24.1131 50.8735 24.2887 51.4324 24.2873 51.4564C24.2525 52.0137 24.1102 52.2114 23.8449 52.0047C23.8382 51.9943 23.6562 51.3649 23.6428 51.3484C23.4513 51.1015 23.6108 51.8903 23.6573 52.3729C23.7037 52.8554 23.5874 52.7238 23.2134 51.6616C23.1865 51.8174 22.9478 51.3697 22.8061 51.0971C22.6643 50.8245 23.0206 52.0491 23.0229 52.0747C23.1006 52.8936 22.8039 52.2203 22.613 52.1586C22.5217 52.1271 22.4251 52.3489 22.3834 52.5069C22.351 52.6338 22.2268 52.3589 22.222 52.5597C22.2213 52.5866 22.3915 53.1284 22.3953 53.1501C22.5229 53.8209 22.1585 52.481 22.074 52.2475C21.767 51.3982 21.5993 50.9471 21.6355 51.3789C21.6437 51.4778 22.1572 53.4104 22.1549 53.5331C22.1509 53.689 21.9639 52.9972 21.9648 53.178C21.9647 53.1928 22.0918 53.6162 22.0562 53.6064C21.8929 53.5667 21.6677 53.3655 21.5357 53.451C21.5172 53.4611 21.7427 54.1254 21.7192 54.151C21.609 54.2705 21.4548 54.2894 21.2306 54.0138C21.1748 53.9438 21.0548 53.4674 21.0062 53.3298C20.7117 52.4973 21.0167 53.7435 21.0137 53.7698C20.9506 54.4311 20.4367 53.3742 20.3508 53.9759C20.3468 54.0109 20.6369 55.3578 20.255 54.2423C20.2295 54.1681 19.8404 53.0264 20.0359 53.828C20.0481 53.8782 20.2533 54.4645 20.1863 54.4185C20.1193 54.3726 20.1588 54.7932 19.8968 54.1598C19.8142 53.9604 19.4206 52.8231 19.6306 53.7605C19.6456 53.8259 20.1661 55.9321 19.7042 54.5095C19.6283 54.2753 19.1825 52.7571 19.3382 53.5572C19.3686 53.7123 19.4957 54.0427 19.5204 54.2653C19.5589 54.6082 19.3603 54.2252 19.4896 54.9221C19.5127 55.0455 19.7659 56.0906 19.4903 55.3222C19.4472 55.2018 19.3091 54.6918 19.2696 54.6418C19.0811 54.4021 19.0693 54.7743 18.8558 54.4566C18.7804 54.345 18.5564 53.5207 18.4508 53.3134C18.3451 53.1061 18.201 52.9194 18.2702 53.306C18.3395 53.6928 18.7741 54.9834 18.742 55.1066C18.6021 55.6418 18.1018 54.9578 17.794 54.9276C17.7483 54.923 17.9211 55.3797 17.8637 55.4064C17.6528 55.5071 17.4013 56.0585 16.9139 55.1238C16.5235 54.3753 16.5369 53.7129 16.3231 53.4246C16.2204 53.2873 16.6108 54.8221 16.6113 54.8739C16.622 55.3987 16.329 54.7546 16.27 54.9966C16.2579 55.0468 16.4653 55.6541 16.453 55.69C16.4125 55.8182 16.2548 55.5664 16.2007 55.6372C16.1769 55.6703 16.3224 56.1381 16.2831 56.1103C16.1907 56.0494 16.0716 55.87 15.874 55.4498C15.856 55.4115 15.7229 54.8154 15.666 54.8087C15.5744 54.7995 15.3437 54.3957 15.3833 54.8719C15.3955 55.0151 15.714 56.0883 15.4334 55.3652C15.3747 55.2142 15.007 53.9211 15.2688 55.055C15.3121 55.2435 15.6421 56.7799 15.2963 55.8292C15.2052 55.579 14.8524 54.5363 14.8683 54.712C14.8716 54.7398 15.0615 55.3106 15.0504 55.3751C15.0085 55.5924 14.8876 55.5615 14.8408 55.7719C14.8286 55.8293 15.0463 56.4137 15.0225 56.4801C14.9573 56.6637 14.7746 56.5528 14.6113 56.3982C14.5508 56.34 14.4311 55.8379 14.4122 55.785C14.1053 54.9244 14.4294 56.1128 14.4345 56.1862C14.4613 56.6269 14.2232 56.0942 14.1785 56.2672C14.1658 56.3135 14.3507 56.8711 14.3608 56.9227C14.4565 57.428 14.1929 56.4062 14.1279 56.3043C13.9447 56.0155 13.8586 56.0903 13.7897 56.1891C13.7647 56.2262 13.9963 56.8677 13.9716 56.8934C13.829 57.0584 13.6273 57.0505 13.3482 56.7419C13.2953 56.6827 13.166 56.1741 13.1251 56.0614C12.8394 55.2723 13.0975 56.3878 13.1129 56.4968C13.1835 56.9944 13.0234 56.5583 12.9852 56.66C12.8006 57.1645 12.3332 56.9833 11.9887 56.888C11.5407 56.7667 11.1048 56.3761 10.781 56.6077C10.7602 56.6218 10.9824 57.2834 10.9671 57.3041C10.7599 57.5412 10.4309 57.3549 10.2327 57.6241C10.216 57.645 10.4351 58.2697 10.4147 58.3245C10.3744 58.4415 10.2766 58.4331 10.1465 58.2516C10.0834 58.1643 9.96709 57.6069 9.90688 57.5301C9.76631 57.35 9.66728 57.3304 9.61552 57.4564C9.59391 57.5114 9.83962 58.1438 9.79648 58.1648C9.50661 58.3211 9.23637 58.5232 8.67411 57.7769C8.63553 57.7257 8.22439 56.4141 8.25411 56.6802C8.35957 57.0468 8.48785 57.4768 8.60273 57.8679C8.21558 58.2124 7.6343 57.8884 7.16215 57.9522C7.14229 57.955 7.38305 58.6431 7.34565 58.6522C7.12945 58.7054 6.98009 58.9604 6.55545 58.3316C6.51361 58.2702 6.15899 57.0391 6.15056 57.2438C6.14941 57.281 6.10218 57.4734 6.15675 57.7473C6.16535 57.7885 6.35357 58.3564 6.32761 58.3823C6.17376 58.5229 5.94639 58.4481 5.66262 58.1514C5.6165 58.1025 5.46555 57.483 5.43112 57.4428C5.18829 57.1624 5.1673 57.6738 4.86242 57.1613C4.65768 56.8161 4.3781 55.7508 4.01905 54.7272C3.96837 54.5828 3.9035 54.5769 3.72054 53.9736C3.2603 52.4567 2.79285 50.7847 2.29897 49.1688C2.19264 48.8207 2.22692 49.2195 2.0218 48.363C2.00821 48.3056 1.98116 48.0091 1.90985 47.719C1.86061 47.5185 1.6602 46.9092 1.60451 46.6503C1.54888 46.3916 1.72394 46.9002 1.66802 46.5931C1.61099 46.2824 1.38843 45.5877 1.42894 45.4855ZM22.1705 49.8793C21.9442 49.3076 22.577 51.4597 22.4795 50.9288C22.474 50.9006 22.1818 49.9073 22.1705 49.8793ZM28.3031 47.6828C27.9533 46.7547 28.3225 48.1627 28.5882 48.8809C28.8536 49.5983 28.4092 47.9642 28.3031 47.6828ZM28.7953 46.7825C28.4939 46.0583 29.3896 49.1106 29.2903 48.4692C29.2849 48.4329 28.8129 46.8246 28.7953 46.7825ZM4.16163 54.3628C4.15241 54.3345 4.10246 54.3191 4.10989 54.3477C4.29109 55.0371 4.39083 55.0674 4.16163 54.3628ZM29.2639 45.8223C29.1165 45.4173 29.1875 45.9144 29.3708 46.4181C29.5183 46.8233 29.4473 46.3262 29.2639 45.8223ZM18.7995 48.3854C18.7891 48.3536 18.7506 48.3336 18.8052 48.5145C18.9809 49.0972 18.9735 48.9202 18.7995 48.3854ZM30.4315 45.4364C30.2232 45.3734 29.3676 42.8866 29.6418 43.1143C29.6914 43.1555 29.807 43.9394 29.9183 44.1534C30.1215 44.5432 29.7035 42.9463 30.0375 43.7692C30.0985 43.9199 30.445 45.4455 30.4322 45.44C30.432 45.4388 30.4317 45.4376 30.4315 45.4364ZM21.3717 47.3058C21.3622 47.2777 21.3128 47.2631 21.3202 47.2915C21.5011 47.9807 21.6007 48.0106 21.3717 47.3058ZM16.6605 47.5752C16.6402 47.5153 16.5274 47.4873 16.5409 47.544C16.8233 48.675 17.0524 48.7351 16.6605 47.5752ZM23.6878 44.9031C23.5284 44.203 23.5583 44.1061 23.8511 44.9576C23.7926 44.9252 23.7455 44.9319 23.6878 44.9031Z" fill="#FFEE00"/>
</svg>
