<svg width="157" height="22" viewBox="0 0 157 22" fill="none" xmlns="http://www.w3.org/2000/svg">
<g clip-path="url(#clip0_12859_15912)">
<path d="M15.1464 0.0192297C14.5926 0.117222 14.1708 0.607181 14.1708 1.18661C14.1708 1.72344 14.4221 2.0941 15.0186 2.32417C19.7819 4.1008 22.6322 9.0004 20.9919 13.5847C19.539 17.6365 15.6662 20.5421 11.1032 20.5464C6.54019 20.5464 2.66738 17.6365 1.21455 13.5847C-0.425753 9.0004 2.42027 4.1008 7.18779 2.32417C7.78852 2.0941 8.03563 1.71918 8.03563 1.17383C8.03563 0.590139 7.61384 0.112961 7.05997 0.0149691C5.44098 -0.270485 -0.0465673 3.54268 0.000298363 10.0826C0.0429035 16.2731 5.04475 21.1216 11.1032 21.1216C17.1617 21.1216 22.1422 16.2731 22.1891 10.0826C22.2359 3.54268 16.7654 -0.270485 15.1464 0.0192297Z" fill="#4A4A4A"/>
<path d="M20.7065 12.7199C19.7351 11.2926 18.3163 9.9804 16.3906 9.0857C15.9603 8.88545 15.7686 8.6213 15.7686 8.19099C15.7686 7.68399 16.1648 7.23237 16.7442 7.23663C17.8136 7.23663 20.0972 10.0571 20.7108 12.7242L20.7065 12.7199Z" fill="#4A4A4A"/>
<path d="M16.016 3.61945C15.4238 3.6024 14.9424 4.09662 14.9424 4.68884C14.9424 5.13619 15.1213 5.45999 15.607 5.67728C18.3551 6.91283 20.0081 9.12403 20.8815 11.642C21.4141 7.24089 17.4433 3.65779 16.016 3.61945Z" fill="#4A4A4A"/>
<path d="M1.50035 12.7199C2.47175 11.2926 3.8905 9.9804 5.81626 9.0857C6.24657 8.88545 6.43829 8.6213 6.43829 8.19099C6.43829 7.68399 6.04206 7.23237 5.46263 7.23663C4.39324 7.23663 2.10961 10.0571 1.49609 12.7242L1.50035 12.7199Z" fill="#4A4A4A"/>
<path d="M6.19068 3.61945C6.78289 3.6024 7.26433 4.09662 7.26433 4.68884C7.26433 5.13619 7.08539 5.45999 6.59969 5.67728C3.85166 6.91283 2.19858 9.12403 1.32517 11.642C0.792607 7.24089 4.76341 3.65779 6.19068 3.61945Z" fill="#4A4A4A"/>
<path d="M152.859 10.2796H149.894V6.56015H152.859C154.018 6.56015 154.708 7.25035 154.708 8.40921C154.708 9.56807 154.052 10.2753 152.859 10.2753M152.889 4.70256H147.968V16.4105H149.89V12.1329H152.774C155.194 12.1329 156.694 10.7056 156.694 8.40921C156.694 6.11279 155.237 4.70256 152.889 4.70256ZM140.653 6.46216C142.485 6.46216 143.716 8.11524 143.716 10.5736C143.716 13.0319 142.54 14.6551 140.717 14.6551C138.893 14.6551 137.671 13.002 137.671 10.5437C137.671 8.08541 138.842 6.46216 140.653 6.46216ZM140.7 4.52362C137.701 4.52362 135.681 6.95638 135.681 10.5736C135.681 14.1907 137.683 16.5894 140.666 16.5894C143.648 16.5894 145.702 14.1566 145.702 10.5395C145.702 6.92229 143.691 4.52362 140.7 4.52362ZM131.459 9.34226H126.414V4.70256H124.459V16.4105H126.414V11.2978H131.459V16.4105H133.414V4.70256H131.459V9.34226ZM118.486 9.43173C116.398 8.8097 116.061 8.43051 116.061 7.75735C116.061 6.93507 116.735 6.44937 117.864 6.44937C118.993 6.44937 119.734 6.77743 120.454 7.5145L120.539 7.59971L121.92 6.20226L121.834 6.12131C120.714 5.03488 119.495 4.53214 118 4.53214C115.703 4.53214 114.097 5.89551 114.097 7.84682C114.097 10.0836 115.486 10.6545 117.77 11.3362C119.691 11.9114 120.275 12.3289 120.275 13.1256C120.275 13.509 120.275 14.6807 118.013 14.6807C116.977 14.6807 115.865 14.1737 115.116 13.3599L115.035 13.2705L113.641 14.6253L113.714 14.7063C114.758 15.929 116.24 16.5979 117.885 16.5979C121.681 16.5979 122.248 14.3484 122.248 13.0063C122.248 10.761 120.548 10.0623 118.494 9.436M105.108 7.94481C104.754 8.58389 104.281 9.48286 104.03 9.99412C103.774 9.47434 103.297 8.54555 102.952 7.92777L101.133 4.70682H98.8446L103.045 11.7878V16.4147H105.001V11.7878L109.202 4.70682H106.948L105.112 7.94481H105.108ZM91.4739 6.61127H92.7691C95.841 6.61127 96.4886 8.75857 96.4886 10.5608C96.4886 12.363 95.8452 14.5103 92.7691 14.5103H91.4739V6.61127ZM92.7649 4.70256H89.5184V16.4105H92.7649C94.1027 16.4105 98.4697 15.9887 98.4697 10.5565C98.4697 6.89247 96.3352 4.70256 92.7649 4.70256ZM82.1988 6.46216C84.0308 6.46216 85.2621 8.11524 85.2621 10.5736C85.2621 13.0319 84.0862 14.6551 82.2627 14.6551C80.4392 14.6551 79.2164 13.002 79.2164 10.5437C79.2164 8.08541 80.3881 6.46216 82.1988 6.46216ZM82.2499 4.52362C79.2505 4.52362 77.231 6.95638 77.231 10.5736C77.231 14.1907 79.2335 16.5894 82.2158 16.5894C85.1982 16.5894 87.2518 14.1566 87.2518 10.5395C87.2518 6.92229 85.2408 4.52362 82.2499 4.52362ZM71.6114 9.24427H68.6461V6.50902H71.6114C72.8299 6.50902 73.0855 7.26739 73.0855 7.90221C73.0855 8.21749 72.979 9.24427 71.6114 9.24427ZM71.5944 14.604H68.6461V11.0337H71.6455C72.864 11.0337 73.5627 11.6855 73.5627 12.8188C73.5627 14.0203 72.9194 14.604 71.5986 14.604M73.7544 10.0751C74.5938 9.57659 75.0369 8.79692 75.0369 7.80422C75.0369 5.86142 73.763 4.70256 71.6242 4.70256H66.7885V16.4105H71.4623C74.074 16.4105 75.514 15.1153 75.514 12.7677C75.514 11.2723 74.6193 10.4074 73.7544 10.0708M53.419 11.1189H56.7124V9.21445H53.419V6.61127H59.0898V4.70682H51.4634V16.4147H59.3326V14.5103H53.4147V11.1189H53.419ZM46.7002 9.34226H41.6557V4.70256H39.7001V16.4105H41.6557V11.2978H46.7002V16.4105H48.6557V4.70256H46.7002V9.34226ZM29.1895 6.62406H32.534V16.4105H34.4895V6.62406H37.834V4.70256H29.1937V6.62406H29.1895Z" fill="#4A4A4A"/>
</g>
<defs>
<clipPath id="clip0_12859_15912">
<rect width="156.694" height="21.1216" fill="white"/>
</clipPath>
</defs>
</svg>
