<svg width="47" height="68" viewBox="0 0 47 68" fill="none" xmlns="http://www.w3.org/2000/svg">
<path d="M25.5637 3.69966C25.5688 4.33494 25.1978 4.95302 24.8075 5.3868C24.6844 5.52779 24.3803 5.34314 24.2821 5.43012C24.0897 5.60304 24.1935 5.84107 23.9755 6.00589C23.9019 6.0593 23.4065 5.81392 23.3424 5.86982C22.9936 6.18127 23.0089 6.59649 22.7774 6.9431C21.7202 8.53901 20.9596 10.1542 20.1651 11.8229C20.0934 11.9734 20.0203 12.1263 19.9457 12.2817C19.6518 12.8945 18.9175 13.4965 18.893 14.2143C18.8907 14.298 19.3581 14.4132 19.3903 14.4407C19.8801 14.8681 18.9951 14.47 18.8215 14.5747C18.1363 14.9875 17.8642 15.613 17.8348 16.2359C17.8234 16.5018 18.8042 16.5887 18.2162 16.6432C18.1763 16.6473 17.7198 16.4139 17.6454 16.4597C17.4778 16.5637 17.4615 16.8738 17.3817 16.9749C17.2251 17.1696 17.2178 17.2044 17.1366 17.4093C17.0218 17.6868 16.659 17.9409 16.6567 18.2808C16.6574 18.3544 17.1783 18.449 17.2235 18.5829C17.2687 18.7167 17.1259 18.976 16.9762 19.0265C16.8267 19.0762 16.4568 18.8946 16.3626 18.8784C15.5698 18.7364 16.4833 19.4324 16.4936 19.4828C16.6526 20.3863 15.8309 20.8014 15.5743 21.496C15.381 22.0233 15.3645 22.6591 15.1519 23.1486C14.896 23.7329 14.4433 24.1383 14.2734 24.7341C14.2549 24.7968 14.8561 24.9391 14.8347 25.0161C14.607 25.8325 14.2522 26.5954 13.5726 27.2391C13.504 27.3034 13.0367 27.0149 12.938 27.068C12.3437 27.3987 11.0642 27.7971 13.1585 28.8937C12.9529 29.1879 12.7181 29.554 12.1676 29.6842C11.8132 29.7683 11.3289 29.3845 11.4797 29.7013C11.5131 29.7725 12.0203 29.8808 12.034 29.974C12.0895 30.3707 11.802 30.6734 11.9338 31.0894C11.9615 31.175 12.401 31.3131 12.4721 31.3602C13.0459 31.7471 11.9077 31.6331 11.8113 31.663C11.0901 31.8921 11.1957 32.2995 11.0391 32.6966C11.0018 32.7909 11.6244 32.8849 11.6095 32.9828C11.5252 33.4853 11.3042 33.9541 10.8863 34.3217C10.7921 34.4024 10.3269 34.1367 10.2565 34.1665C9.95096 34.3027 10.8733 34.6788 10.5991 34.8151C10.5425 34.8444 10.1246 34.6734 10.0751 34.6653C9.29709 34.538 10.3021 35.0022 10.3144 35.0414C10.4894 35.5575 9.3155 35.4406 9.33671 35.892C9.34057 35.9458 9.91715 36.0194 9.89509 36.1592C9.76757 36.9954 9.39499 37.7821 8.81691 38.4651C8.75433 38.5414 8.68984 38.6151 8.62342 38.6863C8.51701 38.8011 8.13331 38.586 8.08016 38.5796C7.24687 38.4899 8.28477 38.8829 8.31306 38.9357C8.50149 39.3689 7.5197 39.4502 8.73569 40.0104C8.33604 40.6459 8.24308 41.405 8.18784 41.8982C8.17407 42.0119 8.16525 42.1129 8.14565 42.1345C8.11756 42.1572 8.11796 42.0915 7.89867 41.8133C7.78788 41.6786 7.58544 41.5054 7.36395 41.4196C7.1411 41.3292 6.94518 41.3338 6.85009 41.3708C6.64858 41.4516 6.72753 41.5902 6.85718 41.7024C6.87218 41.7126 6.99039 42.2448 7.02487 42.2612C7.47152 42.443 7.1489 41.6488 6.94313 40.6147C6.87978 40.3599 7.58195 41.4125 7.64322 41.4844C7.85075 41.7596 8.13249 42.5227 8.18218 42.5715C8.60118 42.9397 7.39272 40.5484 7.6173 40.4338C7.62687 40.4339 7.81946 40.8893 7.86192 40.9227C7.99688 41.0267 7.96665 40.8217 8.10706 40.9399C8.43144 41.2135 9.09655 42.3349 8.96745 41.5439C8.94964 41.4417 8.18571 40.1273 8.43872 40.0716C8.51981 40.0539 8.76223 39.9094 8.94942 39.8515L8.93144 39.8615C8.98568 39.8443 9.03416 39.8354 9.07081 39.8404C9.23232 39.8625 9.3942 40.3334 9.4127 40.3473C10.0339 40.7415 10.0496 41.0405 10.6691 41.7927C11.2859 42.5424 10.1345 40.5759 10.0733 40.3188C10.0126 40.0623 10.4976 40.4043 10.6415 40.537C10.7862 40.6693 10.8688 40.9793 10.9683 41.0444C11.6225 41.4678 10.563 39.9763 10.4952 39.6007C10.3353 38.7111 11.3491 40.0822 11.657 40.1027C11.7407 40.108 11.5055 39.7979 11.5439 39.736C11.6988 39.495 12.0828 39.8864 12.1052 39.3248C12.109 39.2331 11.8311 38.2288 12.3164 38.8143C12.386 38.899 12.5323 39.2983 12.6712 39.3308C12.8789 39.3799 13.1761 39.3252 13.2622 39.12C13.3255 38.9683 12.871 38.4243 13.1134 38.5394C13.2212 38.5911 13.2958 39.0111 13.4822 39.0784C13.6678 39.146 13.9586 38.972 14.0664 38.8994C14.1737 38.8266 13.866 38.3939 13.8587 38.3577C13.8197 38.1486 13.9224 37.808 13.9417 37.7986C14.8931 37.227 16.2036 37.5508 17.0291 36.8052C17.0944 36.7474 16.7943 36.2771 16.8017 36.2632C16.9551 35.9255 17.4157 37.3456 17.8168 37.6967C17.285 36.7036 17.4826 36.8324 17.6089 36.631C17.6694 36.5331 17.4265 36.167 17.4145 36.1231C17.2485 35.4655 17.722 36.1853 17.8233 36.3304C18.1967 36.8635 17.9514 36.1359 18.2016 36.4921C18.4501 36.8455 18.598 37.479 18.7677 37.3856C18.6372 37.0003 18.0391 36.1211 18.0958 35.9023C18.3105 35.074 19.615 35.3557 20.0558 35.2384C20.4965 35.1205 20.5949 34.9909 20.8933 35.0094C21.4323 35.0436 20.9393 34.413 21.0509 33.9635C21.1639 33.5137 21.859 35.3128 22.0744 35.6681C22.2887 36.0238 22.147 35.6202 22.2906 35.8036C22.4339 35.987 22.4546 36.2882 22.5993 36.3141C22.7437 36.3399 22.7265 35.5352 22.5815 35.1258C22.2737 34.2585 21.7297 33.452 22.1639 33.6213C22.1891 33.6316 22.3497 34.1148 22.4352 34.1312C23.1068 34.2464 23.6443 34.0238 24.2939 34.1046C24.3836 34.1165 24.5558 34.6564 24.6106 34.6691C25.1816 34.8035 24.6361 34.01 24.4321 32.945C24.9609 34.2451 25.4442 34.9674 25.7658 34.831C25.9598 34.7493 25.6749 34.206 25.6224 33.7561C25.6066 33.6206 25.9156 33.9427 25.8223 33.6688C25.5184 32.7733 24.9575 31.8695 25.463 32.103C25.4858 32.1147 25.6497 32.606 25.7129 32.6119C26.1217 32.6531 25.7608 31.7357 26.068 31.4692C26.3087 31.2603 27.0454 31.5927 27.4011 31.5447C28.0238 32.993 28.1756 32.5335 27.8657 31.4833C28.0891 31.4352 28.2881 31.2828 28.5461 31.3359C28.6347 31.3537 28.7691 31.7926 28.7972 31.8343C29.2329 32.4894 28.9067 31.4789 28.935 31.4218C29.261 30.8451 29.9623 31.4196 30.1233 30.504C30.1288 30.4712 29.7353 29.4487 30.1661 30.1357C30.1951 30.1833 30.2335 30.7068 30.4657 30.6522C30.6983 30.5975 31.329 30.9727 31.4401 30.3795C31.4668 30.2367 31.3184 29.3373 31.7277 29.9211C31.7828 30.0005 31.879 30.3004 31.973 30.451C32.2732 30.9303 31.9098 29.8833 32.37 30.7118C32.8301 31.5403 33.3144 32.1046 33.3761 31.3819C33.3786 31.3606 33.1265 30.5167 33.2271 30.4918C33.3891 30.4523 33.6741 30.5365 33.8314 30.4687C33.9067 30.436 33.6593 29.9478 33.6689 29.9333C34.0713 29.4483 34.621 29.7567 35.2463 29.7447C35.362 29.7432 35.394 28.937 35.7968 29.4136C36.2377 29.9354 36.9495 32.5238 37.2176 31.7449C37.3243 31.4338 36.4116 28.154 37.3742 29.6751C37.9286 29.0114 38.8697 29.6338 39.3725 28.8052C39.3951 28.7683 39.1911 27.8375 39.2705 27.8242C39.3888 27.8063 39.5909 28.2053 39.6789 28.2065C40.0487 28.2208 40.2371 27.7742 40.5652 27.7149C40.5752 27.7125 40.5805 27.7117 40.5859 27.711C40.717 27.6933 40.8077 28.1441 40.9606 28.1243C41.1111 28.1049 41.039 27.497 41.32 27.7167C41.5357 27.8838 42.0344 29.0206 42.2684 29.1018C41.9329 27.934 42.079 27.917 42.2332 27.5392C42.2634 27.4658 42.0963 27.0738 42.1046 27.0181C42.1368 26.7822 42.314 27.0962 42.3382 26.8429C42.344 26.7821 42.2327 26.3824 42.2312 26.3101C42.2129 25.6803 42.7091 26.5121 42.7934 26.6577C43.114 27.2102 43.0489 26.6692 43.2331 26.872C43.4148 27.0756 43.312 27.4165 43.4903 27.5223C43.8581 27.7414 44.2109 27.5853 44.5088 27.5376C44.6282 27.5158 44.4261 26.9936 44.4404 26.9779C44.6612 26.7842 45.0239 27.3114 44.9519 26.2016C45.6643 28.9699 45.0502 25.8991 45.5247 26.3965C45.5623 26.4371 45.817 27.7621 45.7485 27.9746C45.6827 28.1865 45.4515 27.7996 45.3689 28.13C45.3457 28.208 45.4099 29.4843 45.4047 29.5638C45.3401 30.1884 44.8883 28.2244 44.8521 28.1188C44.4707 26.9786 44.5275 28.3629 44.4923 28.4682C44.3134 28.9536 44.0084 28.7385 43.8495 29.0982C43.7484 29.3304 44.0704 30.6113 43.9461 30.6029C43.5269 30.5782 42.8776 28.8475 42.9399 30.4914C42.954 30.842 43.4367 32.2044 42.8325 31.1987C42.7961 31.1347 42.2837 30.2033 42.3469 30.8698C42.3548 30.9538 42.4756 31.3567 42.465 31.3968C42.3894 31.6579 42.2072 31.3628 42.0988 31.5633C42.0333 31.6914 41.9638 31.855 41.8626 31.9335L41.9281 31.9128C41.8757 31.9561 41.8142 31.9734 41.7386 31.9449C41.6108 31.8969 41.2341 31.1959 41.124 31.0302C40.8099 30.5519 40.9452 31.4621 40.6456 30.8566C40.3442 30.2482 40.1923 29.2216 39.8215 28.8876C40.1615 29.9263 40.5 30.9958 40.8376 32.0418C40.3292 32.1726 39.7248 32.0076 39.2375 32.231C39.1774 32.2598 39.437 32.7911 39.3781 32.8361C39.133 33.0219 38.748 32.715 38.5131 32.9774C38.3333 33.1823 38.3045 33.8552 38.1257 34.0883C37.5488 32.9682 37.3494 33.4951 37.0577 33.4829C36.9555 33.4792 36.8436 33.1644 36.7419 33.0863C36.3607 32.7996 36.8637 33.7909 36.8602 33.9781C36.8462 34.7774 35.9335 32.4485 35.6228 32.634C35.6056 32.6431 35.8715 33.9696 35.8725 34.0583C35.8815 34.6354 35.6737 33.6376 35.5214 33.591C35.2444 33.5055 34.9798 33.267 34.8721 33.729C34.8413 33.8653 34.9708 34.7075 34.5943 34.1654C34.5448 34.0945 34.3925 33.6808 34.3681 33.6627C33.9383 33.3706 34.4433 34.6601 34.464 35.1568C34.4852 35.6533 33.8899 34.8626 33.7385 34.6266C33.3451 34.0169 33.7214 34.3051 33.7027 34.2373C33.4731 33.4325 33.3511 33.636 33.1918 33.6246C32.6633 32.3738 32.5056 32.5257 33.0282 33.6182C33.0855 33.7374 33.1418 33.578 33.1918 33.6246C33.5742 34.9069 33.4379 35.1463 32.7401 34.0868C32.4131 33.5903 32.255 32.9197 32.0259 33.2829C31.9223 33.447 32.335 34.2881 32.3039 34.5766C32.2338 35.2347 31.516 34.5891 31.2673 34.8427C31.177 34.9348 31.4822 35.3616 31.4275 35.4408C31.2833 35.6521 30.9583 35.3727 30.8355 35.6386C30.8247 35.6632 31.0781 36.1376 31.0193 36.17C30.5779 36.4255 30.0329 36.2864 29.5422 36.4894C29.3045 36.5879 29.0017 37.0431 28.735 37.096C28.2732 37.1906 27.436 36.7112 27.152 37.0467C26.9663 37.2633 27.2383 37.7285 27.2883 38.1064C27.3875 38.838 26.5218 37.8394 26.3934 37.6823C26.3892 37.6771 26.5389 37.4701 26.3171 37.2689C26.0166 36.776 26.3945 37.6791 26.3934 37.6823C26.3105 37.5806 25.8558 37.6549 25.819 37.7847C25.7989 37.8556 26.0352 38.3056 26.0208 38.3338C25.6735 38.9935 25.1939 39.3589 24.5509 39.3992C24.537 39.3944 24.3096 38.8738 24.2798 38.869C23.8573 38.789 23.9527 39.5124 23.8722 40.0074C23.7915 40.5023 23.5293 40.4748 22.9545 39.6695C22.8128 39.8736 22.3464 39.6201 22.0712 39.4629C21.7959 39.3057 22.2561 40.3111 22.2516 40.3375C22.1176 41.1803 21.5882 40.735 21.0883 40.8716C20.85 40.9348 20.4932 41.2909 20.3134 41.5159C20.1725 41.6952 19.9453 41.5193 19.8499 41.7526C19.8369 41.7839 20.0812 42.212 20.0827 42.2324C20.1588 42.8533 19.7084 41.7331 19.5727 41.5608C19.0796 40.9343 18.8023 40.608 18.7249 41.0594C18.7063 41.1632 19.3281 42.7903 19.2734 42.9319C19.2003 43.1134 18.9678 42.535 18.8983 42.7393C18.8921 42.7563 19.069 43.0961 18.9761 43.1246C18.547 43.2617 18.017 43.2844 17.6244 43.5321C17.5703 43.5645 17.9224 44.0662 17.8491 44.1218C17.5056 44.382 17.0825 44.579 16.5834 44.5217C16.4597 44.5059 16.3168 44.1002 16.238 43.999C15.7591 43.3878 16.1096 44.4593 16.0915 44.4929C15.6731 45.321 14.6841 44.7129 14.2345 45.5047C14.2102 45.55 14.5013 46.7485 13.8824 45.924C13.8412 45.8691 13.2103 45.0242 13.4461 45.7102C13.4609 45.753 13.7991 46.1804 13.6373 46.2075C13.4741 46.2354 13.4311 46.6704 12.957 46.2587C12.8218 46.1414 12.2772 45.4509 12.3459 45.9289C12.3376 45.9321 12.3155 45.9474 12.3072 45.9505C12.3128 46.0017 12.3251 46.0659 12.3453 46.1454C12.3604 46.2033 12.976 48.0081 12.2404 46.9331C12.1205 46.7554 11.4831 45.5415 11.5867 46.2849C11.6049 46.43 11.8353 46.6532 11.8023 46.888C11.7523 47.2491 11.3272 47.0595 11.3411 47.7381C11.3438 47.8582 11.5617 48.7915 11.0616 48.2488C10.9854 48.1628 10.8383 47.7254 10.723 47.7241C10.1704 47.712 9.77407 48.2458 8.80341 48.2085C8.45454 48.1904 8.42089 47.4357 8.03842 47.3218C7.64899 47.2052 6.77948 47.1759 5.80456 47.3258C5.32759 47.4007 5.21453 47.7461 5.0806 48.0743C4.93132 48.3761 4.75967 48.7419 3.7178 48.2949C2.58096 47.7825 1.58942 46.8014 1.06802 45.9414C0.545614 45.1001 0.341441 44.4085 0.21839 43.8494C0.00678539 42.7877 0.0878963 42.1761 0.167473 41.6588C0.351773 40.6531 0.670735 40.0788 0.835185 39.4909C0.886403 39.3159 0.443676 39.3705 0.488328 39.121C0.648715 38.2048 0.659123 36.7792 1.62451 36.3337C1.65402 36.3204 1.68445 36.3079 1.71583 36.2963C2.55886 35.9855 2.88806 36.791 3.28568 36.4838C3.47536 36.338 2.23069 35.7209 2.20237 35.6665C1.92089 35.0936 2.60037 34.963 2.54994 34.5142C2.53988 34.42 1.98499 34.329 1.98242 34.2504C1.97102 33.9739 2.28388 33.8172 2.31687 33.5741C2.33015 33.4656 1.92116 33.3502 1.98373 33.2662C2.1276 33.0676 2.3609 32.934 2.81098 32.8457C2.85194 32.8378 3.30732 33.1393 3.38118 32.9827C3.5011 32.7237 3.97841 32.5414 3.70037 32.1051C3.61598 31.976 2.701 31.6531 3.39918 31.685C3.54521 31.6912 4.62774 32.125 3.75368 31.574C3.60776 31.4842 2.45869 30.6566 3.3476 30.7673C3.58164 30.7961 4.52346 30.9918 4.4193 30.8368C4.40181 30.8145 3.89013 30.6984 3.87308 30.594C3.82236 30.2269 3.98889 29.9244 3.94786 29.5541C3.93605 29.4546 3.38317 29.3991 3.3819 29.2563C3.37948 28.8582 3.66039 28.483 3.94254 28.1991C4.04728 28.0955 4.43609 28.3339 4.4851 28.3413C5.28095 28.4658 4.30799 28.018 4.26695 27.9487C4.02445 27.5242 4.57995 27.4637 4.55487 27.1452C4.54928 27.0576 4.05166 26.9368 4.01452 26.9062C3.65499 26.598 4.47108 27.0276 4.60179 26.9634C4.97057 26.785 5.04685 26.4577 5.08757 26.158C5.1021 26.047 4.50582 25.959 4.5253 25.8615C4.63095 25.2788 4.89258 24.7327 5.3947 24.3129C5.49005 24.2348 5.89298 24.4552 5.998 24.4705C6.7319 24.5793 5.88096 24.0254 5.81047 23.9441C5.48807 23.5744 5.89688 23.6277 5.89841 23.4079C5.90015 22.3297 6.58469 21.2546 7.07054 20.4216C7.70104 19.3356 8.44106 18.5878 8.74511 17.4459C8.7649 17.3737 8.17203 17.2339 8.18179 17.169C8.33412 16.3394 8.83901 15.6549 8.96038 14.8179C8.97145 14.7493 8.39967 14.644 8.39929 14.5274C8.39504 14.2861 8.51963 14.0364 8.76968 13.8852C8.89052 13.8113 9.30138 14.1197 9.41358 14.0418C9.6761 13.8604 9.80771 13.6182 9.81175 13.3377C9.81257 13.2172 9.20325 13.1783 9.24714 13.0374C9.53021 12.086 9.76292 11.1371 10.8054 10.4536C10.8769 10.4068 12.0203 10.7456 11.8526 10.5321C11.5439 10.4132 11.1764 10.2863 10.8442 10.1659C10.9399 9.69894 11.0933 9.2587 11.2682 8.84396C11.6439 7.94094 12.1385 7.08513 12.482 6.173C12.504 6.11401 11.8704 6.02086 11.9098 5.90608C12.1298 5.26303 12.1698 4.57172 12.9775 4.10275C13.0568 4.05581 14.1025 4.43147 14.0061 4.18011C13.9892 4.13232 13.9368 3.80686 13.7325 3.65272C13.7011 3.63147 13.1898 3.52978 13.2053 3.43005C13.3009 2.86353 13.589 2.33139 14.0487 1.89812C14.125 1.82462 14.6259 2.0762 14.6847 2.02528C15.0954 1.67225 14.8261 1.09205 15.4044 0.861629C15.7913 0.712576 16.6926 1.03788 17.6377 1.12541C17.7725 1.13277 17.8219 1.00718 18.3572 1.11288C19.7117 1.3465 21.1624 1.76133 22.6068 2.00711C22.7635 2.02555 22.7772 1.94105 22.8549 1.76883C22.8912 1.68286 22.9575 1.55606 23.0428 1.23968C23.0832 1.12772 23.135 1.3939 23.1826 1.55134C23.2371 1.66247 23.3019 1.76627 23.3824 1.86821C23.4178 1.98796 23.5943 2.37794 23.8323 2.49079C23.9952 2.58008 24.5579 2.61288 24.7564 2.77018C24.9561 2.91995 24.4794 2.90954 24.7049 3.11373C24.9349 3.31219 25.5614 3.41721 25.5637 3.69966ZM20.8328 38.7658C20.4495 38.3625 21.2832 40.1189 21.2396 39.6224C21.2365 39.5963 20.852 38.7855 20.8328 38.7658ZM39.2436 30.6237C38.7564 29.8853 39.033 31.1247 39.3959 31.6992C39.7566 32.2738 39.3907 30.8477 39.2436 30.6237ZM41.1525 29.3225C41.0976 29.2518 41.061 29.2305 41.0394 29.2461L41.0602 29.2396C40.9277 29.3408 41.4367 30.9469 41.5864 30.8602L41.5384 30.8753C41.5552 30.8661 41.5684 30.8376 41.5766 30.7858C41.5825 30.7511 41.1783 29.3556 41.1525 29.3225ZM17.7228 1.85685C17.7485 1.86107 17.8063 1.74555 17.7829 1.73379C17.2051 1.50631 17.0899 1.73756 17.7228 1.85685ZM43.1083 28.0423C42.9357 27.7027 42.8264 28.1798 43.0467 28.5999C43.223 28.938 43.3246 28.4641 43.1083 28.0423ZM12.1178 40.9323C12.1016 40.9081 12.0037 40.9319 12.0839 41.0747C12.3426 41.5343 12.3898 41.339 12.1178 40.9323ZM46.776 27.2625C46.2226 27.2279 45.5233 25.0309 46.2085 25.1941C46.3295 25.2247 46.0578 25.9474 46.2319 26.1309C46.5413 26.4663 46.54 25.0258 46.902 25.7539C46.9657 25.8874 46.8066 27.2695 46.7754 27.2658C46.7756 27.2647 46.7758 27.2636 46.776 27.2625ZM19.7195 36.7109C19.7052 36.6893 19.573 36.7269 19.5813 36.7513C19.7876 37.3375 20.0533 37.2624 19.7195 36.7109ZM6.79764 42.2544C6.76204 42.2025 6.76093 42.1488 6.78201 42.2047C6.37425 43.175 7.03057 43.3228 6.79764 42.2544ZM27.4228 31.5811C27.3115 30.9524 27.447 30.814 27.8648 31.4829C27.7131 31.5033 27.5743 31.5568 27.4228 31.5811Z" fill="#1340FF"/>
<path d="M33.8393 18.6581C34.008 18.9438 33.8254 19.3142 33.5757 19.5917C33.4982 19.6765 33.1539 19.6316 33.0849 19.6919C32.9504 19.8134 33.1189 19.9204 32.9588 20.0365C32.904 20.074 32.3585 20.0244 32.3136 20.0639C32.0713 20.291 32.2094 20.4939 32.0923 20.7194C31.5145 21.8199 31.3038 22.9123 31.0492 24.0227C30.9657 24.3935 30.468 24.8373 30.6826 25.2185C30.7081 25.2637 31.1873 25.2395 31.2267 25.2482C31.8304 25.3864 30.8636 25.3377 30.7346 25.4241C30.2255 25.7542 30.1792 26.1482 30.3623 26.4743C30.4416 26.6167 31.3939 26.4792 30.859 26.62C30.8229 26.6298 30.3144 26.5907 30.2599 26.6296C30.1374 26.7202 30.2274 26.8839 30.1868 26.9502C30.1058 27.0787 30.1108 27.1004 30.1043 27.2245C30.0971 27.3163 30.0198 27.4182 29.9681 27.5227C29.9241 27.6068 29.8987 27.6927 29.9513 27.7756C29.9772 27.8142 30.499 27.7662 30.5874 27.828C30.6757 27.8896 30.6305 28.0535 30.5073 28.109C30.384 28.1642 29.9742 28.1382 29.8802 28.1475C29.0868 28.2261 30.184 28.4209 30.2111 28.4439C30.6714 28.8838 30.0436 29.2686 30.0431 29.6815C30.044 30.0051 30.2487 30.3341 30.2187 30.638C30.1809 31.0059 29.8967 31.2936 29.9433 31.6474C29.9476 31.6846 30.561 31.6445 30.5675 31.6899C30.6362 32.1696 30.5667 32.6413 30.1502 33.1132C30.1078 33.1601 29.5698 33.0963 29.4954 33.143C29.0514 33.4266 27.9859 33.8927 30.3288 34.0741C30.2362 34.2682 30.1403 34.5067 29.6669 34.6818C29.3621 34.7947 28.7763 34.6799 29.0257 34.8225C29.0813 34.8546 29.5951 34.8161 29.6397 34.8641C29.8265 35.0701 29.6584 35.2776 29.9226 35.4771C29.9776 35.5174 30.4379 35.5091 30.5207 35.5209C31.1913 35.6198 30.0809 35.7731 30.0001 35.8075C29.3975 36.0715 29.633 36.2627 29.6169 36.5067C29.6129 36.5634 30.2315 36.4998 30.2498 36.5546C30.3368 36.837 30.282 37.1398 30.0062 37.4126C29.9433 37.4736 29.4171 37.4142 29.3601 37.4432C29.1153 37.5712 30.1097 37.6056 29.8941 37.7292C29.8499 37.7553 29.3992 37.7379 29.3497 37.7424C28.5721 37.8132 29.6729 37.885 29.6971 37.9045C30.0279 38.151 28.8775 38.3071 29.0389 38.5418C29.0594 38.5699 29.6301 38.5099 29.6528 38.5889C29.8073 39.1145 29.6474 39.684 29.1882 40.2011C29.1176 40.2823 28.6895 40.2216 28.6366 40.2264C27.8109 40.3055 28.9163 40.3661 28.9578 40.393C29.2564 40.6046 28.328 40.8006 29.6442 40.9481C29.1822 41.8303 29.9167 42.7219 28.7318 43.5989C28.7181 43.61 28.1736 43.5869 28.1486 43.609C27.8413 43.8753 28.6879 43.8287 29.7221 44.0126C29.9818 44.0589 28.7312 44.1886 28.6395 44.2002C28.3017 44.2424 27.4917 44.192 27.4263 44.2065C26.9122 44.3259 29.5917 44.3211 29.5917 44.4866C29.5872 44.4918 29.0941 44.4672 29.045 44.4809C28.8908 44.5232 29.0865 44.5671 28.9165 44.6085C28.5231 44.7036 27.221 44.7295 27.9779 44.8797C28.0761 44.8988 29.5962 44.8791 29.5235 45.0249C29.4933 45.083 29.5179 45.3419 29.419 45.4142C29.3202 45.4863 28.8307 45.4336 28.8095 45.4387C28.1607 45.6309 27.8927 45.5552 26.9333 45.648C25.9775 45.741 28.256 45.7267 28.51 45.7682C28.7634 45.8099 28.2282 45.9512 28.0422 45.9857C27.8562 46.0202 27.5452 45.9741 27.4399 46.0051C26.7516 46.2079 28.5702 46.1022 28.9315 46.1723C29.7867 46.3374 28.0965 46.453 27.9301 46.5996C27.8851 46.6393 28.2701 46.6089 28.3059 46.6446C28.4425 46.7863 27.9149 46.8682 28.3973 47.0318C28.476 47.0586 29.491 47.1946 28.7451 47.2748C28.6375 47.2862 28.2167 47.2498 28.122 47.3097C27.9799 47.4002 27.887 47.5587 28.0272 47.6559C28.1309 47.7274 28.8252 47.6501 28.6091 47.7381C28.5127 47.7773 28.1072 47.7014 27.9599 47.7752C27.8126 47.8485 27.8293 48.0387 27.8429 48.1113C27.8568 48.1837 28.3833 48.1471 28.4187 48.1531C28.6216 48.1897 28.8746 48.3301 28.8739 48.3425C28.9346 48.967 28.0443 49.5227 28.3345 50.1324C28.3565 50.18 28.9116 50.1515 28.9207 50.1588C29.1523 50.3209 27.6775 50.1857 27.183 50.2953C28.3093 50.2855 28.105 50.3506 28.2279 50.4649C28.288 50.52 28.7242 50.4926 28.7688 50.4979C29.4307 50.5828 28.5749 50.6346 28.3998 50.6481C27.7557 50.6983 28.516 50.7613 28.0855 50.7955C27.6583 50.8297 27.0256 50.7417 27.0331 50.8511C27.436 50.884 28.49 50.8088 28.6603 50.8928C29.3043 51.2098 28.4744 51.7913 28.3871 52.0408C28.2999 52.2911 28.3738 52.3729 28.2273 52.5187C27.9624 52.7822 28.7445 52.6895 29.1014 52.8564C29.4582 53.0239 27.5355 52.9326 27.1219 52.954C26.7085 52.975 27.1338 53.0029 26.9064 53.0303C26.6792 53.0577 26.3984 52.994 26.3128 53.0609C26.2272 53.1279 26.9613 53.3168 27.3934 53.3432C28.309 53.3991 29.2706 53.3212 28.9319 53.4983C28.9118 53.5085 28.4063 53.4722 28.355 53.5114C27.9639 53.8224 27.9379 54.1491 27.5918 54.4618C27.5434 54.5044 26.9811 54.4629 26.9466 54.4876C26.5852 54.7457 27.5343 54.6581 28.5872 54.8069C27.1851 54.7669 26.3268 54.8408 26.3174 55.0388C26.3112 55.1579 26.9238 55.1409 27.355 55.2204C27.485 55.2443 27.064 55.3263 27.3519 55.3432C28.2931 55.3991 29.3475 55.3255 28.9267 55.5279C28.9067 55.5367 28.3915 55.5052 28.3601 55.5361C28.1547 55.7355 29.1393 55.766 29.2573 55.9829C29.35 56.1524 28.7477 56.4502 28.649 56.6429C27.0724 56.6299 27.4324 56.8145 28.519 56.8949C28.4738 57.0202 28.5345 57.1563 28.3835 57.2771C28.3321 57.3187 27.8758 57.2886 27.8264 57.2936C27.0523 57.3703 28.1095 57.4305 28.1508 57.4577C28.5521 57.7524 27.7493 57.9865 28.531 58.2712C28.5591 58.2813 29.6542 58.3036 28.8541 58.374C28.799 58.3785 28.3013 58.2831 28.262 58.4148C28.2226 58.5462 27.6341 58.7929 28.1406 58.9778C28.2625 59.0226 29.1508 59.1393 28.4557 59.2251C28.3613 59.2365 28.0473 59.2216 27.8725 59.2379C27.3152 59.2904 28.422 59.3272 27.4812 59.3874C26.5405 59.4476 25.8355 59.5801 26.4833 59.7683C26.5021 59.7743 27.3792 59.823 27.3649 59.881C27.3415 59.9735 27.158 60.1041 27.1632 60.2011C27.166 60.2475 27.7109 60.2209 27.7208 60.229C28.0243 60.5427 27.5374 60.7598 27.3247 61.0922C27.2847 61.1531 28.0265 61.333 27.4385 61.4482C26.7949 61.5746 24.1211 61.4256 24.7566 61.7285C25.0108 61.851 28.403 62.022 26.6438 62.2282C27.077 62.6499 26.1751 63.0337 26.7947 63.4586C26.8221 63.4777 27.7688 63.5428 27.7556 63.5872C27.7343 63.653 27.2915 63.6867 27.2621 63.7337C27.1276 63.9304 27.5053 64.1134 27.4453 64.3037C27.4235 64.376 26.966 64.3481 26.9399 64.4343C26.9143 64.5205 27.5166 64.5815 27.2248 64.6969C27.0025 64.7839 25.7702 64.8657 25.626 64.9817C26.8409 64.9931 26.8155 65.0733 27.1354 65.218C27.1975 65.2458 27.6205 65.2188 27.6717 65.2321C27.8893 65.2862 27.5386 65.3331 27.7756 65.3847C27.8325 65.3973 28.2474 65.4002 28.3173 65.4106C28.9279 65.499 27.9938 65.6337 27.8311 65.6568C27.2134 65.7455 27.7529 65.7916 27.5094 65.861C27.266 65.9302 26.9628 65.8229 26.8149 65.9045C26.5089 66.0737 26.5746 66.294 26.5546 66.4676C26.5491 66.5367 27.1033 66.4927 27.1154 66.5027C27.255 66.6465 26.665 66.7879 27.7679 66.8735C24.9147 66.9565 28.0441 66.9614 27.4718 67.1628C27.4256 67.1787 26.0764 67.1915 25.8788 67.1284C25.6812 67.0654 26.1035 66.974 25.7952 66.8864C25.7229 66.8656 24.4595 66.742 24.383 66.7257C23.7852 66.5978 25.8012 66.5917 25.912 66.5858C27.1073 66.518 25.7463 66.3679 25.6524 66.3297C25.2222 66.1555 25.5065 66.0113 25.1996 65.866C25.0012 65.771 23.6808 65.7543 23.7216 65.6809C23.8566 65.4367 25.6992 65.3618 24.1033 65.1221C23.7629 65.0708 22.3194 65.1117 23.4553 64.9411C23.5269 64.9305 24.5658 64.8045 23.9096 64.7246C23.8268 64.7145 23.4062 64.7125 23.371 64.6996C23.1429 64.6138 23.4783 64.5593 23.3183 64.4663C23.1584 64.3734 22.9197 64.2613 23.063 64.1571C23.1487 64.0943 23.9328 64.0176 24.1248 63.9884C24.678 63.9061 23.7723 63.8093 24.4419 63.7601C25.1149 63.7106 26.1358 63.8208 26.5712 63.6833C25.4785 63.6718 24.3569 63.6536 23.258 63.639C23.2982 63.3332 23.6533 63.0314 23.6068 62.7231C23.5999 62.6848 23.0122 62.7206 22.9897 62.6795C22.8974 62.5061 23.317 62.3577 23.1513 62.1778C23.0207 62.0384 22.3995 61.8839 22.2437 61.7372C23.4946 61.6555 23.0713 61.4375 23.1865 61.2817C23.2263 61.2271 23.5603 61.2327 23.6694 61.1943C24.0732 61.0497 22.9678 61.1122 22.7941 61.071C22.053 60.894 24.5542 60.8934 24.4935 60.6896C24.4912 60.6788 23.1587 60.5395 23.0758 60.5209C22.5351 60.4026 23.5399 60.5045 23.6389 60.433C23.8196 60.3028 24.1385 60.2118 23.7489 60.0546C23.6335 60.0087 22.8031 59.8955 23.4464 59.8115C23.5306 59.8004 23.9713 59.8093 23.9971 59.8002C24.4283 59.6345 23.0436 59.6222 22.5752 59.5235C22.1069 59.4248 23.0636 59.2822 23.3393 59.2536C24.0524 59.1788 23.6435 59.3157 23.7134 59.3204C24.5454 59.3753 24.4028 59.2665 24.4736 59.1844C25.8313 59.1802 25.7505 59.0644 24.5415 59.0993C24.4094 59.1033 24.5357 59.1682 24.4736 59.1844C23.1419 59.1044 22.972 58.9767 24.2176 58.8439C24.8014 58.7813 25.4813 58.8475 25.2336 58.646C25.1218 58.5545 24.1867 58.5843 23.9323 58.5028C23.3519 58.3165 24.2253 58.0842 24.0889 57.8954C24.0394 57.8269 23.5273 57.8904 23.4759 57.8435C23.3377 57.719 23.7223 57.6122 23.5263 57.4871C23.5079 57.4757 22.9721 57.5001 22.9655 57.4615C22.9049 57.1684 23.2495 56.913 23.2607 56.6071C23.2659 56.4591 22.972 56.1934 23.0323 56.041C23.1336 55.7775 23.9144 55.4521 23.7264 55.2245C23.6062 55.0758 23.0702 55.1052 22.7055 55.0397C21.9986 54.9134 23.2673 54.7045 23.4637 54.6766C23.4702 54.6757 23.5958 54.8034 23.8712 54.7372C24.4445 54.7011 23.4662 54.678 23.4637 54.6766C23.5906 54.6579 23.7137 54.4062 23.6116 54.354C23.5558 54.3261 23.0481 54.3386 23.0285 54.3242C22.5762 53.9798 22.4491 53.6379 22.6884 53.2952C22.6987 53.2892 23.2665 53.3016 23.2836 53.2875C23.5372 53.0897 22.8433 52.9591 22.4319 52.7906C22.0206 52.6228 22.1594 52.4927 23.1347 52.4007C23.0127 52.2755 23.4446 52.0997 23.7067 51.9988C23.9688 51.8979 22.8636 51.8774 22.8418 51.8683C22.144 51.5843 22.7776 51.4243 22.8777 51.1316C22.9272 50.9925 22.7684 50.716 22.6484 50.5654C22.5517 50.4463 22.8112 50.3764 22.6462 50.2665C22.6241 50.2516 22.1319 50.2637 22.113 50.2591C21.5249 50.1342 22.7276 50.1995 22.9426 50.1756C23.7245 50.0894 24.141 50.0338 23.7743 49.8747C23.6903 49.838 21.9587 49.7226 21.8577 49.6561C21.7297 49.5696 22.3504 49.6055 22.2005 49.5149C22.1883 49.5072 21.8052 49.5066 21.8224 49.4514C21.8972 49.1947 22.1217 48.9185 22.0848 48.6515C22.0813 48.6148 21.4734 48.6584 21.4583 48.6053C21.3876 48.3564 21.4117 48.0852 21.6974 47.8467C21.7697 47.788 22.1949 47.8274 22.3213 47.8153C23.086 47.7409 21.9762 47.6231 21.9551 47.6046C21.4239 47.1649 22.4309 46.8262 21.9549 46.3771C21.927 46.3525 20.7376 46.1585 21.759 46.081C21.827 46.0755 22.872 45.9998 22.1583 45.9211C22.1136 45.9163 21.5755 45.9654 21.6309 45.8747C21.6861 45.784 21.3278 45.6358 21.9193 45.5148C22.1057 45.4764 23.1482 45.3892 22.3183 45.2674C22.2603 45.2593 20.3832 45.068 21.6794 45.0111C21.8928 45.0019 23.264 45.0205 22.5617 44.8773C22.4255 44.85 22.1194 44.8965 21.9288 44.8254C21.6351 44.7171 22.0031 44.5757 21.393 44.4384C21.285 44.4145 20.3548 44.3102 21.0617 44.235C21.1724 44.2232 21.6301 44.2494 21.6816 44.2078C21.9285 44.0102 21.6234 43.801 21.9413 43.6026C22.053 43.5323 22.7929 43.5727 22.9916 43.5C23.1903 43.4277 23.3819 43.2787 23.0441 43.198C22.7062 43.1177 21.5262 43.1966 21.4325 43.0788C21.0254 42.5653 21.7202 42.076 21.8243 41.5644C21.8398 41.4893 21.4174 41.5492 21.41 41.4384C21.3809 41.0332 20.9892 40.3225 21.888 39.9752C22.608 39.6971 23.1528 40.0551 23.4464 39.8414C23.5864 39.7382 22.2157 39.6186 22.1727 39.5934C21.7355 39.3418 22.344 39.1726 22.1588 38.9497C22.1204 38.9037 21.5644 38.9455 21.5378 38.9063C21.4422 38.7727 21.691 38.6349 21.6464 38.5085C21.6251 38.4519 21.2005 38.4599 21.2335 38.4081C21.3078 38.2827 21.4868 38.1702 21.8854 38.0494C21.9217 38.0384 22.4494 38.1171 22.4696 38.0237C22.5007 37.8724 22.8942 37.6877 22.4899 37.5133C22.3682 37.4615 21.398 37.454 22.0687 37.3483C22.2088 37.3262 23.3736 37.3619 22.3677 37.2291C22.2005 37.2069 20.844 36.9798 21.7198 36.8782C21.9503 36.8514 22.9041 36.7849 22.7546 36.7221C22.7307 36.7136 22.2094 36.7443 22.1589 36.6927C21.9898 36.5109 22.0465 36.3231 21.8843 36.139C21.8399 36.0899 21.3003 36.1596 21.2514 36.0865C21.1162 35.8804 21.255 35.6254 21.4249 35.4286C21.4886 35.356 21.935 35.4089 21.9836 35.4039C22.7748 35.323 21.7078 35.2667 21.6457 35.2382C21.2741 35.0609 21.7762 34.931 21.6444 34.7643C21.6094 34.7187 21.1004 34.748 21.055 34.7387C20.6122 34.6426 21.5257 34.7175 21.6268 34.6588C21.913 34.4946 21.8731 34.311 21.809 34.1456C21.7847 34.0849 21.1942 34.1497 21.1793 34.0952C21.0794 33.7765 21.1378 33.4267 21.4648 33.1166C21.5275 33.0579 21.9817 33.0976 22.0855 33.0859C22.8121 33.0048 21.8224 32.8765 21.7282 32.8463C21.2982 32.7102 21.7003 32.6608 21.626 32.5434C21.2557 31.9762 21.5258 31.2739 21.6931 30.7422C21.9086 30.0428 22.3439 29.5073 22.2353 28.8393C22.229 28.7966 21.6243 28.8362 21.6111 28.7994C21.4758 28.3587 21.6817 27.9094 21.5595 27.4765C21.5524 27.4498 21.5442 27.4232 21.5347 27.3966C21.5217 27.357 20.9483 27.4108 20.9082 27.3472C20.8217 27.2167 20.8537 27.055 21.0374 26.929C21.1259 26.8676 21.6172 26.9533 21.6962 26.8915C21.8813 26.7512 21.923 26.5866 21.832 26.4346C21.792 26.3698 21.2054 26.464 21.1991 26.3801C21.144 25.8204 21.0462 25.2441 21.8082 24.6821C21.8605 24.6419 23.0518 24.6127 22.8239 24.5267C22.4933 24.5186 22.1045 24.5168 21.7512 24.5121C21.5653 23.6787 21.9825 22.8719 22.0507 22.0331C22.0534 21.9979 21.422 22.0555 21.4241 21.9874C21.4354 21.5971 21.2625 21.215 21.8918 20.8157C21.9533 20.7758 23.0635 20.807 22.8962 20.6843C22.8656 20.6615 22.7184 20.4858 22.4776 20.4408C22.4413 20.4342 21.9229 20.4651 21.9081 20.406C21.8309 20.0766 21.9509 19.7271 22.2689 19.4004C22.3212 19.3488 22.8728 19.4061 22.9149 19.3696C23.2089 19.1035 22.7905 18.8081 23.2921 18.5583C23.6298 18.3911 24.5837 18.4546 25.5228 18.3654C25.6553 18.3532 25.6764 18.2475 26.2227 18.2418C27.5966 18.2277 29.1009 18.2802 30.5653 18.2591C30.8807 18.2542 30.541 18.1109 31.3032 18.1957C31.3542 18.2019 31.6072 18.306 31.8657 18.3338C32.0445 18.3518 32.6002 18.3198 32.829 18.3567C33.0576 18.3947 32.5918 18.4359 32.8605 18.4976C33.1326 18.5614 33.7648 18.5335 33.8393 18.6581ZM24.8781 51.5453C25.4094 51.4527 23.4654 51.4276 23.9299 51.5336C23.9547 51.5387 24.852 51.5501 24.8781 51.5453ZM25.1197 63.0419C25.9779 62.9224 24.7175 62.8301 24.0548 62.9141C23.3928 62.998 24.8595 63.0783 25.1197 63.0419ZM25.7384 64.3334C26.4153 64.192 23.6586 64.1534 24.215 64.3121C24.2465 64.3214 25.6991 64.3416 25.7384 64.3334ZM25.7894 18.7873C25.8152 18.7852 25.8406 18.7093 25.815 18.7083C25.1976 18.6664 25.1473 18.8172 25.7894 18.7873ZM26.4127 65.6155C26.7858 65.5723 26.3561 65.4394 25.892 65.493C25.5187 65.5362 25.9484 65.6693 26.4127 65.6155ZM26.9811 46.5982C27.0101 46.5969 27.0365 46.542 26.8727 46.5422C26.3452 46.5429 26.4937 46.6203 26.9811 46.5982ZM26.432 67.7884C26.5376 67.4678 28.816 67.2862 28.557 67.6344C28.5101 67.6974 27.8316 67.4937 27.6258 67.5732C27.2509 67.7185 28.6802 67.8247 27.9132 67.9709C27.7728 67.9973 26.4209 67.8067 26.4288 67.7878C26.4299 67.788 26.431 67.7882 26.432 67.7884ZM27.2135 51.5035C27.2392 51.5017 27.264 51.4252 27.2385 51.4232C26.6216 51.3782 26.5712 51.5324 27.2135 51.5035ZM28.2013 43.3935C28.2562 43.3898 28.3084 43.2114 28.258 43.2054C27.2492 43.1065 27.1406 43.4669 28.2013 43.3935ZM28.6069 56.6457C29.2273 56.7325 29.2999 56.8325 28.5198 56.8945C28.5616 56.8119 28.5682 56.7286 28.6069 56.6457Z" fill="#1340FF"/>
</svg>
