<svg width="87" height="78" viewBox="0 0 87 78" fill="none" xmlns="http://www.w3.org/2000/svg">
<path d="M69.3951 29.4724C69.0591 29.9366 68.6332 30.4439 67.9629 31.0625C67.2072 31.6684 66.6219 32.4752 63.9393 33.4643C61.9007 34.3596 57.626 33.7447 55.8891 32.1246C54.0432 30.6388 53.5646 29.4588 53.1572 28.6105C52.6775 27.4018 53.3394 27.8179 53.1348 27.0958C53.0185 26.6227 52.908 26.2233 52.805 25.8485C52.62 25.173 52.4422 24.4962 52.4751 23.778C52.4967 23.414 53.2059 23.7695 53.2177 23.4038C53.2979 21.4313 53.3039 19.6427 53.8921 17.8991C54.4199 16.3659 55.1227 14.9819 56.0238 13.6714C56.7827 12.4935 58.1585 11.1143 59.695 10.3957C61.223 9.66137 62.4974 9.50915 63.4424 9.41111C65.8546 9.23998 67.4441 9.36347 69.8543 9.96503C72.2862 10.4366 75.0444 13.0376 75.7915 14.8052C76.0655 15.3242 76.3113 15.8545 76.5286 16.3917C77.5412 18.8383 77.5001 21.8728 77.7954 24.2659C77.8322 24.5495 78.4095 24.371 78.4584 24.4248C79.1965 25.2988 78.0215 25.0089 77.8531 25.5536C77.6914 26.065 77.5438 26.5795 77.4059 27.0948C76.9312 29.2223 76.0161 31.2543 74.9932 32.8429C74.4115 33.719 75.9755 33.6477 74.7705 34.0487C74.6896 34.0727 74.4081 33.4656 74.1706 33.6286C73.6428 34.0029 72.8523 34.8541 72.4463 35.0954C71.6737 35.5599 71.5579 35.6412 70.8497 36.0706C70.649 36.1874 70.4323 36.2934 70.2068 36.391C69.0217 36.9448 67.6871 37.0734 66.6062 37.2475C66.3072 37.2953 66.7488 37.9087 66.2544 38.0358C65.7448 38.1754 64.4909 38.0295 64.1349 37.8139C63.7693 37.6093 64.0147 37.1423 63.9656 37.0197C63.6089 36.0025 62.1778 37.0141 61.9979 36.9899C59.1437 36.7204 57.4686 35.0576 55.493 33.9295C55.4465 33.9026 55.3999 33.8759 55.3533 33.8494C53.7303 32.934 51.9196 31.9649 50.5612 30.7168C48.947 29.213 47.9563 27.6299 46.697 25.7348C46.5621 25.5227 46.079 26.1624 45.9107 25.8959C45.6765 25.5184 45.4464 25.1151 45.2184 24.6077C43.8296 20.3377 44.6938 18.5996 45.2349 16.1962C45.314 15.9383 45.9262 16.3469 46.0441 16.095C46.2032 15.7497 46.4083 15.3655 46.6015 14.9655C47.2958 13.2284 48.28 11.818 46.9454 9.82676C47.796 8.64359 49.0379 7.48351 50.255 7.18307C51.0343 6.99634 50.9743 7.97613 51.4242 7.21176C51.529 7.04157 50.9462 6.70918 51.14 6.48672C51.6893 5.86152 52.4127 5.41156 53.0537 4.94104C53.4306 4.66967 53.8007 4.40421 54.1385 4.11143C54.3459 3.93136 54.0341 3.46475 54.0597 3.33986C54.323 2.29571 55.852 3.14201 56.0684 3.17451C57.8738 3.31171 58.8731 2.80528 60.3059 2.57759C60.6358 2.529 60.1256 1.85145 60.4441 1.77827C62.1049 1.4117 63.824 1.35478 65.3973 1.64075C65.746 1.70665 65.4456 2.35367 65.6116 2.41803C66.3352 2.69684 66.4809 1.49 67.1771 1.74832C67.3226 1.80166 67.2403 2.34817 67.2668 2.40819C67.4485 2.82583 67.6193 2.79695 67.7626 2.63288C68.0053 2.42708 68.2248 2.0194 68.3111 2.00889C70.331 1.80043 70.8907 3.55339 72.2135 3.92209C72.3786 3.97169 72.3175 3.17867 72.7711 3.36174C74.7906 4.19835 76.4563 5.35112 77.9737 6.56185C78.9541 7.30918 79.7242 8.20502 80.304 9.12048C80.576 9.55644 79.9444 9.62603 79.9192 9.69393C79.4808 10.7121 80.6983 10.0995 80.845 10.2054C81.9262 11.017 81.5259 12.5481 83.3194 12.4965C84.2651 14.7698 85.1521 16.8945 85.8859 19.0547C86.8932 22.1387 86.5529 24.9929 85.6389 27.4188C85.6182 27.4773 84.9672 27.3241 84.9286 27.4404C84.731 28.0264 84.7985 28.3281 85.0319 28.5573C85.3543 28.8882 85.9961 29.0727 86.6735 29.7087C86.9663 29.9932 85.3832 30.5939 85.2649 30.6439C84.8321 30.8378 83.8825 30.485 83.7951 30.5555C83.104 31.1228 86.3462 31.3986 86.2227 32.3212C86.2134 32.3487 85.6378 32.1474 85.5683 32.215C85.3511 32.422 85.5516 32.691 85.3125 32.8895C84.7578 33.3452 83.1773 33.2476 83.935 34.1868C84.0316 34.3083 85.8773 34.5006 85.6227 35.3006C85.5258 35.6177 85.2149 37.0563 84.9846 37.4206C84.7616 37.7842 84.2634 37.3547 84.2308 37.3769C83.1818 38.2027 82.9791 37.7163 81.718 37.8734C80.462 38.0099 83.1351 38.713 83.361 39.0175C83.5861 39.3253 82.7174 39.861 82.4408 39.9596C82.1648 40.0616 81.8892 39.7128 81.7129 39.8263C80.7219 40.4604 82.2398 40.6937 82.8782 41.0621C82.9859 41.1251 83.0679 41.1927 83.1069 41.2683C83.7329 42.5247 81.564 42.3666 81.0606 42.9904C80.922 43.1634 81.4192 43.198 81.3792 43.3898C81.2108 44.1514 80.4405 44.2814 80.5908 45.3076C80.6164 45.4734 81.4091 46.6485 80.3989 46.6438C80.2541 46.6416 79.8791 46.2517 79.6332 46.4852C79.2649 46.8346 78.7757 47.5444 78.6912 48.0772C78.6296 48.4698 79.5756 48.4734 79.1239 48.7757C78.9228 48.9091 78.6674 48.3347 78.326 48.604C78.1104 48.7732 77.8508 49.1983 77.6474 49.5743C77.5301 49.7913 77.4306 49.9929 77.3699 50.1198C77.2039 50.4668 77.8653 50.583 77.8886 50.6306C78.0174 50.9131 77.9302 51.7169 77.8964 51.7752C76.3383 54.7686 73.7488 56.8027 71.919 59.5133C71.7731 59.727 72.3962 60.0325 72.3792 60.0696C72.0062 60.9343 71.1133 59.2334 70.267 59.29C71.3465 60.1293 70.9252 60.2381 70.6136 60.794C70.6101 60.8003 70.6069 60.8067 70.6041 60.813C70.4866 61.0736 70.9603 61.3065 70.9809 61.362C71.2536 62.245 70.2829 61.7536 70.0777 61.6603C69.3169 61.3226 69.7469 62.1966 69.237 61.9668C68.7341 61.7352 68.5132 60.8768 68.11 61.2855C68.3329 61.7505 69.5393 62.359 69.3589 62.8227C68.6692 64.6072 65.5755 65.924 64.4563 66.6595C63.3332 67.4141 63.0384 67.744 62.3047 68.0732C60.9773 68.6563 61.9556 69.1115 61.4872 69.9831C61.0084 70.8546 60.0194 68.6968 59.6275 68.3604C59.2402 68.0203 59.4263 68.5196 59.1439 68.3805C58.8636 68.24 58.9353 67.7753 58.5872 67.891C58.5143 67.9155 58.4446 67.9895 58.3826 68.0948C58.1372 68.5053 57.9729 69.3893 58.1166 69.7911C58.4946 70.8685 59.5117 71.604 58.454 71.7919C58.3928 71.8016 58.2226 71.1846 58.0057 71.2476C56.3186 71.7387 54.719 72.6232 52.9072 72.7402C52.6626 72.7496 52.6783 72.0361 52.5433 72.0305C51.1852 71.8747 51.9245 72.9162 50.9183 74.2003C51.0476 73.4146 51.0194 72.7641 50.8669 72.2875C50.8622 72.2541 50.8552 72.2185 50.8896 72.1931C50.9242 72.1962 50.9053 72.1275 51.0749 72.2519C51.1595 72.3162 51.2062 72.5062 51.1847 72.5867C51.1701 72.6808 51.1369 72.732 51.1236 72.7606C51.0617 72.9054 51.1335 72.9028 51.1682 72.9487C51.2557 73.0189 51.3635 73.0641 51.4777 73.0886C51.7026 73.1393 51.9589 73.1036 52.2212 72.9765C52.8141 72.6853 52.3724 72.0739 52.4768 71.4225C52.5045 71.2287 53.1453 71.4483 53.0354 71.1061C52.6707 69.9902 51.6819 69.1117 52.7669 69.0223C52.8161 69.0189 53.0434 69.6171 53.1898 69.5662C53.8096 69.3454 53.7833 68.8181 53.8677 68.2908C53.9247 67.9898 54.0265 67.6795 54.307 67.396C54.9246 66.7746 56.5974 66.3636 57.4493 65.8092C58.65 67.2973 59.1162 66.3398 58.5571 65.0849C59.0909 64.704 59.5752 64.1885 60.1685 63.9093C60.3723 63.8127 60.6312 64.322 60.6912 64.3488C61.6301 64.7717 60.9926 63.6212 61.0617 63.4916C61.446 62.8344 61.9936 62.4613 62.5027 62.0634C63.0632 61.6254 63.5839 61.1467 63.7179 60.2672C63.7282 60.205 62.7994 59.2567 63.7622 59.634C63.8296 59.6585 63.9703 60.4104 64.4448 59.9451C64.9114 59.4936 66.2732 58.9293 66.2876 57.804C66.2971 57.5293 65.6903 56.4932 66.6386 56.5579C66.7676 56.5666 67.0567 56.8234 67.2836 56.859C68.0121 56.9621 66.941 56.1395 68.0954 56.4253C68.0978 56.4259 68.1002 56.4265 68.1026 56.4271C69.2604 56.6983 70.3682 56.4865 70.1573 55.2378C70.1512 55.2012 69.3315 54.4842 69.4883 54.2264C69.7419 53.8121 70.2559 53.2982 70.474 52.8343C70.5775 52.6134 69.9148 52.4655 69.9225 52.4223C70.2786 50.8138 71.2702 50.0232 72.007 48.414C72.1489 48.1031 71.4807 47.0505 72.2794 46.5818C73.1543 46.0483 76.2687 47.2289 75.7255 45.4713C75.6148 45.1312 74.574 44.6557 73.8397 44.1389C73.0989 43.5856 72.6474 43.0753 73.7683 42.5915C73.435 40.3345 74.4909 38.2047 73.4692 36.0081C73.4232 35.9061 72.2446 35.7484 72.2262 35.526C72.2141 35.3611 72.3302 35.2046 72.4499 35.0664C72.5721 34.9405 72.6872 34.8023 72.6695 34.6821C72.4945 33.625 71.4635 33.1903 70.8155 32.5051C70.5549 32.2409 71.0169 31.9042 70.6787 31.5853C70.4496 31.3738 70.0635 31.4819 69.7541 31.3859L69.8022 31.4099C69.6446 31.4195 69.4852 31.3772 69.3161 31.2151C68.9465 30.8468 68.7483 29.2793 68.0749 29.0067C67.842 30.4631 67.4073 30.3617 66.6225 30.693C66.4722 30.7578 66.5906 31.2802 66.5187 31.3374C66.2343 31.5824 66.0068 31.1461 65.7378 31.4257C65.6724 31.4929 65.6574 31.9957 65.6063 32.0793C65.1847 32.8067 64.4943 31.6891 64.3552 31.4984C63.8512 30.768 63.6598 31.4361 63.2748 31.1691C62.886 30.9046 63.409 30.4928 62.9584 30.3504C62.0096 30.0573 60.8355 30.3025 59.9163 30.4508C59.5457 30.5135 59.9222 31.1264 59.872 31.1507C59.1686 31.4554 58.2527 30.9323 58.1632 32.3305C56.8413 29.1338 57.7781 32.6805 56.6442 32.3788L56.6819 32.3664C56.669 32.3644 56.6559 32.362 56.6424 32.3591C56.5575 32.3389 56.0049 31.1844 56.0355 30.6728L56.1577 30.6326C56.1682 30.5643 56.1882 30.5087 56.2195 30.4705C56.4854 30.1479 57.107 30.5119 57.4729 30.0374C57.5543 29.9256 57.8409 28.2847 57.9154 28.1742C58.4676 27.3093 59.0567 29.6888 59.117 29.8124C59.7951 31.1508 60.2428 29.3951 60.4445 29.2485C61.3069 28.5795 62.1779 28.8223 62.9579 28.3852C63.4729 28.1042 63.4373 26.5038 63.894 26.5309C65.4596 26.6434 65.818 28.8807 67.3861 27.0681C67.7319 26.6923 67.6226 24.9004 68.6323 26.4284C68.7092 26.525 69.3181 27.9006 69.9785 27.2415C70.0642 27.1583 70.1781 26.6612 70.2742 26.6399C70.6259 26.5675 70.8809 26.6915 71.1412 26.8165L72.6123 27.549C72.7522 27.7017 72.9026 27.8585 73.1704 27.9572C73.7605 28.1734 74.5677 28.4665 75.0564 29.2112C75.3584 29.6595 75.0946 30.8271 75.0546 31.1695C74.9351 32.1002 76.3374 32.3891 75.7956 33.2637C75.1819 33.9927 73.7983 33.6743 73.5475 34.7341C74.6424 34.5266 75.7764 34.3856 76.9039 34.2949C77.1153 34.2676 77.3264 34.2403 77.5367 34.2128C77.8187 36.1932 77.5065 37.9866 77.5689 39.838C77.5769 40.067 78.2901 39.8328 78.3163 40.0841C78.4196 41.1506 77.8688 42.0452 77.9688 43.1537C78.0144 43.6561 78.2463 44.2137 78.435 44.7882C78.5865 45.0863 78.7254 45.4038 78.7629 45.7361C77.2025 45.9908 77.5463 47.3755 77.1778 48.3937C77.0528 48.7396 76.6618 48.6281 76.4748 48.8419C75.7674 49.6417 77.1687 49.5559 77.3018 49.8748C77.8297 51.2703 74.9116 50.4369 74.5621 51.5746C74.5477 51.6274 75.743 52.9788 75.7854 53.1294C76.1074 54.0398 75.2232 53.0154 74.9386 53.3664C74.4153 54.0013 73.8451 54.3008 73.8661 55.3088C73.8741 55.6042 74.4763 56.6308 73.5512 56.7022C73.4299 56.7122 72.9774 56.4258 72.9246 56.4575C72.0178 57.0305 73.4714 57.8625 73.6924 58.6258C73.8035 59.011 73.4977 59.2318 73.1119 59.364C72.7319 59.4984 72.2824 59.5336 72.0952 59.5238C71.1144 59.474 71.9641 59.0279 71.9019 58.9633C71.1802 58.2009 71.0182 58.8211 70.6901 59.1852C69.2564 58.3771 68.9945 58.9694 70.3535 59.5646C70.504 59.6275 70.5763 59.227 70.6901 59.1852C71.8451 60.3873 71.5556 61.2241 69.827 61.0413C69.0187 60.945 68.5856 60.1674 68.1202 61.263C67.9002 61.7574 68.91 62.3109 68.8378 62.883C68.6527 64.2097 66.8936 64.5299 66.2451 65.3882C66.0054 65.705 66.7126 65.8838 66.5609 66.1175C66.5368 66.1545 66.5112 66.1898 66.4844 66.2236C66.0703 66.7467 65.3707 66.8509 65.0389 67.4539C65.0072 67.5128 65.5574 67.8909 65.4018 68.0426C64.2271 69.201 62.891 69.7974 61.5945 70.8579C60.9693 71.3708 60.0666 72.5623 59.3525 73.0299C58.959 73.2901 58.4785 73.5075 57.9784 73.7087C56.785 74.2383 55.5196 74.5846 54.7388 75.1978C53.9854 75.7788 54.4612 76.2519 54.2916 76.8369C54.2017 77.1438 53.9799 77.3137 53.7459 77.3726C53.6302 77.4015 53.5017 77.408 53.4554 77.3576C53.4473 77.3229 53.4048 77.3121 53.6345 77.1335C53.6867 77.0907 53.808 77.0067 53.9763 76.8737C54.0379 76.823 54.2247 76.6824 54.447 76.4725C54.6886 76.1688 54.9019 76.2798 55.7301 74.6532C56.0529 73.8339 56.4474 72.7412 55.9303 70.9081C55.3991 69.2123 54.2067 68.2723 53.5199 67.8795C52.682 67.4123 52.2317 67.3464 51.8952 67.2716C51.5819 67.2159 51.515 67.2193 51.3779 67.2088C51.2595 67.2024 51.1691 67.2025 51.0948 67.2047C51.4197 67.3708 51.272 67.5314 51.2778 67.6781C51.2569 67.8233 51.2531 67.9453 51.2542 67.9994C51.2523 68.0034 51.2772 68.0426 51.282 68.1237C51.2844 68.2047 51.258 68.3258 51.2781 68.493C51.3043 69.1875 51.2652 68.0019 51.2542 67.9994C51.2515 68.0752 51.2383 68.159 51.3715 68.1723C51.4941 68.1883 51.7173 68.1228 51.7653 68.0392C51.8221 67.9473 51.5714 67.3831 51.6006 67.3474C52.3352 66.4949 53.5848 65.6014 55.0756 64.9641C55.106 64.9589 55.4484 65.5577 55.516 65.5378C55.8603 65.4405 56.0802 65.2488 56.2521 64.9933C56.5626 64.5289 56.6648 63.8882 56.9019 63.3215C57.2714 62.4422 57.8715 62.2043 58.9704 62.8561C59.3739 62.3671 60.3895 62.2402 60.9882 62.1677C61.5881 62.0948 60.7994 61.0074 60.8172 60.9593C61.3457 59.4345 62.4296 59.5205 63.5506 58.6643C64.0856 58.2609 64.886 57.2188 65.248 56.6246C65.3669 56.431 65.5121 56.3133 65.6536 56.208C65.8573 56.0556 66.0583 55.9238 66.1622 55.629C66.1864 55.5612 65.6951 55.2161 65.6914 55.1856C65.5095 54.3112 66.4377 55.4636 66.71 55.5478C67.6981 55.8508 68.2722 55.9579 68.385 55.1023C68.4162 54.8999 67.0518 53.2334 67.1219 52.9335C67.2225 52.5375 67.7441 53.0991 67.8337 52.6655C67.8417 52.6286 67.4616 52.3629 67.6206 52.1749C68.3547 51.2966 69.273 50.3632 69.8703 49.2496C69.953 49.099 69.2067 48.9166 69.314 48.695C69.7401 47.816 70.2644 46.8708 70.9427 46.0377C71.0709 45.8784 71.2031 45.726 71.3405 45.5798C71.5591 45.3508 71.9273 45.759 72.0937 45.7715C73.1042 45.8399 72.1758 44.7064 72.1957 44.6119C72.6427 42.3322 74.5242 41.3156 74.8202 39.1929C74.8358 39.083 74.0309 38.0455 74.7201 37.9657C74.8102 37.9447 74.9243 37.937 75.067 37.9458C75.152 37.9542 76.476 38.0298 75.7714 37.4237C75.7267 37.3873 75.037 37.3845 75.2313 37.031C75.427 36.6719 75.2048 35.9526 76.0412 35.6419C76.3038 35.5482 77.6399 35.4758 76.794 34.716C76.7402 34.6502 74.7031 33.3894 76.2914 33.462C76.5525 33.4731 78.1732 33.8667 77.4623 33.0746C77.3229 32.9255 76.9186 33.0648 76.7496 32.7166C76.4869 32.1892 77.032 31.6286 76.3799 30.9388C76.2652 30.8146 75.203 30.248 76.093 30.0034C76.2326 29.9636 76.7719 30.1328 76.855 29.9521C77.1342 29.3457 77.074 28.6692 77.1633 28.0046C77.205 27.6694 77.276 27.3519 77.412 27.0535C77.5724 26.7012 78.4547 26.9478 78.72 26.5928C78.986 26.2378 79.2578 25.5308 78.8585 25.1694C78.4591 24.815 77.0209 25.1274 76.9169 24.6557C76.6371 23.4196 76.7122 22.5998 76.7987 22.1697C76.6367 21.2584 76.4696 20.3656 76.1851 19.549C76.0748 19.2357 75.7085 19.683 75.5128 19.2482C74.773 17.5267 73.1367 15.8352 73.4239 14.7323C73.5439 13.6779 74.605 13.7187 74.4074 13.0855C74.32 12.8662 73.7299 13.3506 73.3987 13.7295C73.1714 13.861 72.9994 13.9659 72.955 13.9574C71.5931 13.7202 71.263 12.6394 70.2824 12.3264C70.0821 12.2642 69.9154 12.9465 69.7529 12.89C69.2019 12.7066 68.8659 12.188 68.4756 12.0676C68.3045 12.0177 68.1222 12.5003 68.0131 12.4099C67.7533 12.2032 67.6711 11.954 67.6828 11.4623C67.6757 11.4158 67.9067 10.8108 67.8012 10.7638C67.7294 10.732 67.7055 10.6199 67.705 10.5543C67.2525 10.4753 66.7835 10.4624 66.3478 10.7325C66.1045 10.8849 66.1247 12.0591 65.594 11.2622C65.4842 11.0967 65.5635 9.67798 65.0183 10.9226C64.9114 11.1282 64.0758 12.8238 63.5488 11.8107C63.408 11.5429 62.9788 10.4233 62.7275 10.6358C62.6956 10.6688 62.9099 11.2795 62.7019 11.3663C61.9733 11.6617 61.214 11.7236 60.6051 12.074C60.4473 12.1682 60.8501 12.7422 60.6221 12.8605C59.9981 13.1856 59.2966 13.2692 58.8289 13.2839C58.6555 13.2878 58.496 12.7602 58.4602 12.7123C57.8108 11.9719 58.3537 13.1585 58.3635 13.2416C58.3631 13.2502 58.3625 13.2585 58.3619 13.2666C57.9974 13.9899 57.2876 13.7764 56.9914 14.2182C56.9131 14.3375 57.38 14.7526 57.3944 14.8119C57.5488 15.3838 56.9773 14.4162 56.7712 14.4324C56.1898 14.4783 55.9157 14.8531 55.8192 15.1276C55.7858 15.2265 56.4307 15.5529 56.405 15.6224C56.3159 15.9477 56.2956 15.9505 56.0439 16.1667C55.9494 16.4762 55.8454 16.7774 55.7312 17.0693C55.6256 17.338 55.0972 17.1042 54.9657 17.1485C54.0454 17.4616 55.1885 18.1537 55.2935 18.2836C55.7687 18.8956 55.2704 19.0766 55.3434 19.5381C55.4172 19.9739 55.4801 20.391 55.5348 20.6468C55.561 20.7712 55.5868 20.855 55.5891 20.8245C55.5851 20.7897 55.5841 20.6519 55.3847 20.1824C55.3264 20.0669 55.423 20.2935 55.5263 20.4821C55.6346 20.6852 55.7764 20.9259 55.9308 21.167C56.2416 21.6529 56.613 22.1544 56.992 22.5958C57.967 23.7242 58.9818 24.7374 60.1865 25.5868C61.1248 26.2306 62.1004 26.7894 63.1224 27.1536C63.279 27.2094 63.4039 26.4686 63.5385 26.506C64.3881 26.7577 65.1198 26.998 65.5775 27.0916C66.0387 27.2041 66.122 27.0779 65.5356 27.1716C65.4374 27.1947 65.3253 26.4872 65.1212 26.5221C65.0522 26.5349 64.9793 26.5559 64.9058 26.585C65.091 26.4291 65.3221 26.3459 65.5822 26.382C65.7355 26.3988 65.9753 26.9672 66.1329 26.9653C66.5076 26.9563 66.7607 26.7684 66.7867 26.5499C66.7911 26.4634 66.17 26.1071 66.2023 26.05C66.2768 25.875 66.1699 25.9701 66.2251 25.9849C66.3822 24.9658 66.5524 23.9671 66.8874 22.9163C66.9297 22.7919 68.3289 22.4039 67.9941 22.1724C67.5984 22.2396 67.1391 22.3456 66.7196 22.4327C66.4743 21.6877 66.2246 21.0513 65.9408 20.4845C65.8565 20.2958 65.9217 20.4297 66.2754 20.6842C66.6236 20.9434 67.1124 21.0792 67.1492 21.0396C66.9796 20.876 65.4772 20.7284 65.1078 20.7762C65.0691 20.7804 65.0344 20.7844 65.0023 20.7884C64.9283 20.7977 65.1655 21.5331 65.0521 21.5509C64.8596 21.5781 65.1484 21.5899 65.7082 21.2598C66.2701 20.9387 66.7294 20.3491 66.7643 20.1458C66.5806 20.3063 66.3184 20.5078 65.9487 20.708C65.8543 20.7609 64.5806 20.3049 64.6932 20.661C64.7094 20.726 64.7967 21.1913 65.0812 21.3142C65.1237 21.3297 65.7529 21.3594 65.7595 21.4564C65.7812 21.8158 65.768 22.056 65.7046 22.3339C65.684 22.4073 65.6535 22.4344 65.548 22.329C65.4286 22.2234 65.288 21.9697 64.664 21.4135C64.0292 20.9083 64.2193 21.9807 63.7639 21.6548C63.3331 21.3614 62.6068 20.9882 61.7675 20.8719C60.9297 20.7456 60.1637 20.8978 59.7103 21.0627C59.0881 21.2989 58.9981 21.4183 58.9493 21.437C58.9157 21.4584 58.9813 21.4026 59.0761 21.3239C59.2737 21.1618 59.6001 20.9127 60.0434 20.7423C60.8618 20.4106 61.5654 21.3669 62.7361 21.7376C62.9017 21.7896 63.2705 21.376 63.8043 21.7689C65.1466 22.7579 66.3904 24.1198 67.8412 25.1492C68.1557 25.3688 68.3124 24.5192 68.7489 25.4495C68.7786 25.5112 68.664 26.1405 68.8142 26.4518C68.9186 26.6666 69.5556 26.9515 69.6398 27.2871C69.7215 27.6247 69.1405 27.4431 69.1543 27.9337C69.1611 28.4352 69.8751 28.7877 69.3951 29.4724ZM63.6785 61.7885C64.4642 61.963 62.9738 60.1358 62.9564 60.8936C62.9573 60.9323 63.6392 61.7805 63.6785 61.7885ZM75.6882 38.0738C74.6846 38.8148 76.2175 39.2551 77.0078 38.7262C77.7932 38.1715 75.9906 37.8353 75.6882 38.0738ZM72.0215 30.8097C72.0911 31.9733 74.5707 29.7214 73.2965 29.4712C73.223 29.4574 72.0137 30.74 72.0215 30.8097ZM61.6209 23.5088C61.6467 23.5289 61.9132 23.2912 61.8965 23.262C61.4684 22.6248 60.9651 23.071 61.6209 23.5088ZM64.4783 29.7741C64.7349 30.2164 65.4415 29.6964 65.1347 29.1337C64.8719 28.6781 64.1475 29.2204 64.4783 29.7741ZM80.005 42.5325C80.0405 42.5397 80.1884 42.2898 80.0049 42.2133C79.4137 41.9699 79.4141 42.4049 80.005 42.5325ZM53.0761 32.5627C54.7134 31.904 56.6959 34.0715 54.9752 34.5057C54.6575 34.5916 55.2357 33.414 54.7572 33.3613C53.8612 33.277 54.1747 35.059 53.0534 34.5808C52.8485 34.4929 52.9782 32.5949 53.0772 32.558C53.0768 32.5595 53.0765 32.5611 53.0761 32.5627ZM65.7345 63.7549C65.7624 63.7724 66.0865 63.5309 66.0731 63.5011C65.7443 62.796 65.0995 63.2754 65.7345 63.7549ZM85.0665 26.2829C85.1364 26.2658 85.2425 25.3072 85.1794 25.2719C83.9781 24.7469 83.7658 26.6242 85.0665 26.2829ZM57.494 65.8384C57.3477 64.9823 57.681 64.5871 58.555 65.0855C58.194 65.3253 57.857 65.5978 57.494 65.8384Z" fill="#1340FF"/>
<path d="M24.98 28.7351C24.6441 29.1993 24.2182 29.7066 23.5479 30.3252C22.7922 30.9311 22.2069 31.7379 19.5242 32.727C17.4856 33.6223 13.2109 33.0074 11.474 31.3873C9.62818 29.9015 9.14956 28.7215 8.74219 27.8732C8.26248 26.6645 8.9244 27.0806 8.71978 26.3585C8.60345 25.8854 8.49298 25.486 8.38994 25.1112C8.20495 24.4357 8.02716 23.7589 8.06002 23.0407C8.08169 22.6767 8.79086 23.0322 8.80269 22.6665C8.88289 20.694 8.88888 18.9054 9.47702 17.1618C10.0049 15.6286 10.7076 14.2446 11.6088 12.9341C12.3677 11.7562 13.7434 10.377 15.28 9.65844C16.808 8.92406 18.0823 8.77185 19.0273 8.67381C21.4396 8.50268 23.0291 8.62617 25.4392 9.22773C27.8712 9.69932 30.6294 12.3003 31.3764 14.0679C31.6505 14.5869 31.8962 15.1172 32.1136 15.6544C33.1262 18.101 33.0851 21.1355 33.3804 23.5286C33.4172 23.8122 33.9945 23.6337 34.0434 23.6875C34.7815 24.5614 33.6065 24.2716 33.438 24.8163C33.2763 25.3277 33.1287 25.8422 32.9909 26.3575C32.5162 28.485 31.601 30.517 30.5782 32.1056C29.9964 32.9817 31.5604 32.9104 30.3555 33.3114C30.2745 33.3354 29.9931 32.7283 29.7556 32.8913C29.2278 33.2656 28.4373 34.1168 28.0312 34.3581C27.2587 34.8226 27.1429 34.9039 26.4347 35.3332C26.2339 35.4501 26.0172 35.5561 25.7918 35.6537C24.6066 36.2075 23.272 36.3361 22.1911 36.5102C21.8922 36.558 22.3338 37.1714 21.8393 37.2985C21.3297 37.4381 20.0759 37.2922 19.7199 37.0766C19.3543 36.872 19.5996 36.405 19.5506 36.2824C19.1939 35.2652 17.7627 36.2768 17.5829 36.2526C14.7286 35.9831 13.0535 34.3203 11.0779 33.1922C11.0314 33.1653 10.9849 33.1386 10.9382 33.112C9.31524 32.1967 7.5046 31.2276 6.14613 29.9794C4.53197 28.4757 3.5413 26.8926 2.28197 24.9975C2.14706 24.7854 1.66398 25.4251 1.49564 25.1586C1.26149 24.7811 1.03133 24.3778 0.803407 23.8704C-0.585476 19.6004 0.278727 17.8623 0.819872 15.4589C0.898921 15.201 1.51117 15.6096 1.62902 15.3577C1.78819 15.0124 1.99329 14.6282 2.18648 14.2282C2.88074 12.4911 3.86497 11.0807 2.53037 9.08945C3.38095 7.90628 4.62288 6.74621 5.84 6.44576C6.61929 6.25903 6.55927 7.23883 7.00919 6.47445C7.11401 6.30426 6.53115 5.97187 6.725 5.74942C7.27425 5.12422 7.99764 4.67425 8.63869 4.20374C9.01556 3.93236 9.38569 3.6669 9.7235 3.37412C9.93083 3.19406 9.61906 2.72744 9.64463 2.60255C9.90801 1.55841 11.4369 2.4047 11.6534 2.43721C13.4587 2.57441 14.4581 2.06797 15.8909 1.84029C16.2208 1.7917 15.7105 1.11415 16.0291 1.04096C17.6899 0.674399 19.409 0.617477 20.9822 0.903448C21.3309 0.969342 21.0305 1.61637 21.1965 1.68072C21.9202 1.95953 22.0659 0.752699 22.7621 1.01102C22.9075 1.06435 22.8253 1.61087 22.8517 1.67088C23.0335 2.08853 23.2042 2.05964 23.3476 1.89558C23.5903 1.68978 23.8098 1.28209 23.8961 1.27159C25.916 1.06313 26.4756 2.81608 27.7984 3.18479C27.9636 3.23438 27.9025 2.44136 28.3561 2.62443C30.3755 3.46105 32.0412 4.61381 33.5586 5.82455C34.539 6.57187 35.3091 7.46771 35.889 8.38318C36.1609 8.81914 35.5293 8.88873 35.5041 8.95663C35.0658 9.97484 36.2833 9.36224 36.4299 9.46808C37.5111 10.2797 37.1109 11.8108 38.9044 11.7592C39.8501 14.0325 40.7371 16.1572 41.4709 18.3174C42.4782 21.4014 42.1378 24.2556 41.2239 26.6815C41.2031 26.74 40.5521 26.5868 40.5136 26.7031C40.3159 27.2891 40.3834 27.5908 40.6169 27.82C40.9393 28.1509 41.5811 28.3354 42.2584 28.9713C42.5513 29.2559 40.9682 29.8566 40.8498 29.9066C40.417 30.1005 39.4674 29.7477 39.38 29.8182C38.6889 30.3855 41.9312 30.6613 41.8077 31.5839C41.7984 31.6114 41.2227 31.4101 41.1533 31.4777C40.936 31.6847 41.1366 31.9537 40.8975 32.1522C40.3428 32.6079 38.7623 32.5103 39.52 33.4495C39.6166 33.571 41.4623 33.7633 41.2077 34.5633C41.1108 34.8804 40.7999 36.319 40.5696 36.6833C40.3465 37.0469 39.8484 36.6174 39.8157 36.6395C38.7668 37.4654 38.5641 36.9789 37.3029 37.1361C36.047 37.2726 38.7201 37.9757 38.9459 38.2802C39.171 38.588 38.3023 39.1237 38.0257 39.2223C37.7497 39.3243 37.4742 38.9755 37.2978 39.089C36.3069 39.723 37.8248 39.9564 38.4632 40.3248C38.5709 40.3878 38.6529 40.4554 38.6919 40.531C39.3178 41.7874 37.1489 41.6293 36.6456 42.2531C36.507 42.4261 37.0042 42.4607 36.9642 42.6525C36.7958 43.4141 36.0255 43.5441 36.1758 44.5703C36.2013 44.7361 36.994 45.9112 35.9839 45.9065C35.839 45.9043 35.4641 45.5144 35.2182 45.7479C34.8499 46.0973 34.3607 46.8071 34.2761 47.3399C34.2146 47.7325 35.1606 47.7361 34.7089 48.0384C34.5078 48.1718 34.2523 47.5974 33.911 47.8667C33.6953 48.0359 33.4358 48.461 33.2323 48.837C33.1151 49.054 33.0156 49.2556 32.9548 49.3825C32.7889 49.7295 33.4502 49.8457 33.4735 49.8933C33.6024 50.1758 33.5152 50.9796 33.4813 51.0379C31.9233 54.0313 29.3338 56.0654 27.504 58.776C27.358 58.9897 27.9811 59.2952 27.9641 59.3323C27.5911 60.197 26.6983 58.4961 25.8519 58.5527C26.9314 59.392 26.5102 59.5008 26.1986 60.0567C26.1951 60.063 26.1919 60.0694 26.189 60.0757C26.0716 60.3363 26.5453 60.5692 26.5659 60.6247C26.8386 61.5077 25.8679 61.0163 25.6627 60.923C24.9019 60.5853 25.3318 61.4593 24.822 61.2295C24.319 60.9979 24.0981 60.1395 23.695 60.5482C23.9178 61.0132 25.1243 61.6217 24.9438 62.0854C24.2542 63.8699 21.1605 65.1867 20.0413 65.9222C18.9181 66.6768 18.6234 67.0067 17.8896 67.3359C16.5623 67.919 17.5406 68.3742 17.0721 69.2458C16.5933 70.1173 15.6043 67.9595 15.2124 67.6231C14.8252 67.2829 15.0112 67.7822 14.7289 67.6432C14.4486 67.5027 14.5203 67.038 14.1722 67.1537C14.0993 67.1782 14.0295 67.2522 13.9676 67.3575C13.7221 67.768 13.5579 68.652 13.7016 69.0538C14.0795 70.1311 15.0966 70.8667 14.039 71.0546C13.9778 71.0643 13.8075 70.4473 13.5907 70.5103C11.9035 71.0014 10.304 71.8859 8.49213 72.0029C8.2476 72.0123 8.26325 71.2988 8.12827 71.2932C6.77019 71.1374 7.50941 72.1789 6.50324 73.463C6.63251 72.6773 6.60431 72.0268 6.45187 71.5502C6.44713 71.5168 6.44021 71.4812 6.47457 71.4558C6.50914 71.4589 6.4903 71.3902 6.65984 71.5146C6.74442 71.5789 6.79116 71.7689 6.76971 71.8494C6.7551 71.9435 6.72189 71.9947 6.7086 72.0232C6.64666 72.1681 6.7185 72.1655 6.75319 72.2114C6.84061 72.2816 6.94848 72.3268 7.06262 72.3513C7.2876 72.402 7.54385 72.3663 7.80615 72.2392C8.39904 71.948 7.95736 71.3366 8.06175 70.6852C8.08942 70.4914 8.7303 70.711 8.62033 70.3688C8.25566 69.2529 7.2669 68.3744 8.35185 68.285C8.40108 68.2816 8.62836 68.8798 8.77477 68.8289C9.39453 68.608 9.36825 68.0808 9.45266 67.5535C9.50963 67.2525 9.61146 66.9422 9.89195 66.6587C10.5096 66.0373 12.1824 65.6263 13.0343 65.0719C14.2349 66.56 14.7011 65.6025 14.1421 64.3476C14.6758 63.9667 15.1601 63.4511 15.7534 63.172C15.9573 63.0754 16.2161 63.5847 16.2761 63.6115C17.2151 64.0344 16.5776 62.8839 16.6467 62.7543C17.031 62.0971 17.5785 61.724 18.0877 61.3261C18.6481 60.8881 19.1689 60.4094 19.3028 59.5299C19.3131 59.4676 18.3844 58.5194 19.3472 58.8967C19.4145 58.9211 19.5552 59.673 20.0298 59.2078C20.4964 58.7563 21.8581 58.192 21.8726 57.0667C21.8821 56.792 21.2753 55.7559 22.2236 55.8206C22.3526 55.8293 22.6416 56.0861 22.8686 56.1216C23.5971 56.2248 22.526 55.4022 23.6804 55.688C23.6828 55.6886 23.6852 55.6892 23.6875 55.6898C24.8454 55.961 25.9531 55.7492 25.7423 54.5005C25.7362 54.4639 24.9164 53.7469 25.0732 53.4891C25.3269 53.0748 25.8408 52.5609 26.0589 52.0969C26.1624 51.8761 25.4998 51.7282 25.5074 51.685C25.8635 50.0765 26.8552 49.2859 27.592 47.6767C27.7339 47.3658 27.0657 46.3132 27.8644 45.8445C28.7392 45.311 31.8537 46.4916 31.3105 44.734C31.1997 44.3939 30.159 43.9183 29.4247 43.4015C28.6838 42.8483 28.2324 42.338 29.3532 41.8542C29.02 39.5972 30.0759 37.4674 29.0542 35.2708C29.0081 35.1688 27.8296 35.0111 27.8112 34.7887C27.799 34.6238 27.9152 34.4673 28.0348 34.3291C28.1571 34.2032 28.2721 34.065 28.2544 33.9448C28.0795 32.8877 27.0484 32.453 26.4004 31.7678C26.1399 31.5036 26.6019 31.1669 26.2636 30.848C26.0346 30.6365 25.6484 30.7446 25.339 30.6486L25.3872 30.6726C25.2296 30.6822 25.0702 30.6399 24.9011 30.4778C24.5315 30.1095 24.3333 28.542 23.6599 28.2694C23.4269 29.7258 22.9923 29.6244 22.2074 29.9557C22.0572 30.0205 22.1756 30.5429 22.1037 30.6001C21.8192 30.8451 21.5918 30.4088 21.3227 30.6884C21.2574 30.7556 21.2423 31.2584 21.1912 31.342C20.7696 32.0694 20.0793 30.9518 19.9401 30.7611C19.4361 30.0307 19.2448 30.6988 18.8597 30.4318C18.471 30.1672 18.9939 29.7555 18.5434 29.6131C17.5945 29.32 16.4205 29.5652 15.5012 29.7135C15.1307 29.7762 15.5072 30.3891 15.457 30.4134C14.7536 30.7181 13.8376 30.195 13.7482 31.5932C12.4263 28.3965 13.3631 31.9432 12.2292 31.6415L12.2669 31.6291C12.254 31.6271 12.2408 31.6247 12.2274 31.6218C12.1425 31.6016 11.5899 30.4471 11.6205 29.9355L11.7426 29.8952C11.7532 29.827 11.7731 29.7714 11.8045 29.7332C12.0703 29.4106 12.6919 29.7746 13.0579 29.3001C13.1393 29.1883 13.4259 27.5474 13.5003 27.4369C14.0525 26.572 14.6417 28.9515 14.702 29.0751C15.38 30.4135 15.8278 28.6578 16.0295 28.5112C16.8919 27.8422 17.7629 28.085 18.5429 27.6479C19.0579 27.3669 19.0222 25.7665 19.479 25.7936C21.0446 25.9061 21.403 28.1434 22.9711 26.3308C23.3169 25.955 23.2076 24.1631 24.2173 25.6911C24.2942 25.7877 24.9031 27.1633 25.5635 26.5042C25.6492 26.421 25.7631 25.9239 25.8591 25.9026C26.2108 25.8302 26.4659 25.9542 26.7262 26.0792L28.1973 26.8117C28.3371 26.9644 28.4876 27.1212 28.7554 27.2199C29.3454 27.4361 30.1527 27.7292 30.6414 28.4739C30.9434 28.9222 30.6796 30.0898 30.6396 30.4322C30.5201 31.3629 31.9224 31.6518 31.3805 32.5264C30.7669 33.2554 29.3833 32.937 29.1324 33.9968C30.2274 33.7893 31.3614 33.6483 32.4888 33.5576C32.7003 33.5303 32.9114 33.503 33.1217 33.4755C33.4036 35.4559 33.0914 37.2493 33.1539 39.1007C33.1619 39.3297 33.8751 39.0955 33.9012 39.3468C34.0045 40.4133 33.4538 41.3079 33.5537 42.4164C33.5994 42.9187 33.8313 43.4764 34.0199 44.0509C34.1715 44.349 34.3103 44.6665 34.3479 44.9988C32.7875 45.2535 33.1313 46.6382 32.7628 47.6563C32.6378 48.0023 32.2468 47.8908 32.0598 48.1046C31.3523 48.9044 32.7537 48.8186 32.8867 49.1375C33.4146 50.533 30.4966 49.6996 30.1471 50.8373C30.1326 50.8901 31.3279 52.2415 31.3704 52.3921C31.6923 53.3024 30.8082 52.2781 30.5236 52.6291C30.0003 53.264 29.4301 53.5635 29.4511 54.5715C29.459 54.8669 30.0612 55.8935 29.1362 55.9649C29.0148 55.9749 28.5624 55.6884 28.5096 55.7202C27.6028 56.2932 29.0564 57.1252 29.2774 57.8885C29.3885 58.2737 29.0827 58.4945 28.6969 58.6267C28.3169 58.7611 27.8673 58.7963 27.6801 58.7865C26.6994 58.7367 27.5491 58.2906 27.4869 58.226C26.7652 57.4636 26.6032 58.0838 26.2751 58.4479C24.8414 57.6398 24.5795 58.2321 25.9385 58.8273C26.0889 58.8902 26.1612 58.4897 26.2751 58.4479C27.4301 59.65 27.1405 60.4868 25.4119 60.304C24.6036 60.2077 24.1706 59.4301 23.7052 60.5257C23.4851 61.0201 24.495 61.5736 24.4227 62.1457C24.2377 63.4724 22.4785 63.7926 21.8301 64.6509C21.5903 64.9677 22.2975 65.1465 22.1459 65.3801C22.1218 65.4172 22.0962 65.4525 22.0693 65.4863C21.6552 66.0094 20.9557 66.1136 20.6239 66.7166C20.5922 66.7755 21.1424 67.1536 20.9868 67.3053C19.812 68.4637 18.476 69.0601 17.1795 70.1206C16.5543 70.6335 15.6515 71.825 14.9375 72.2926C14.5439 72.5528 14.0635 72.7701 13.5634 72.9714C12.37 73.501 11.1046 73.8473 10.3238 74.4605C9.57039 75.0415 10.0461 75.5146 9.87654 76.0996C9.78668 76.4065 9.5649 76.5764 9.33089 76.6353C9.21519 76.6642 9.08666 76.6706 9.04036 76.6203C9.03228 76.5856 8.98973 76.5748 9.21944 76.3962C9.27163 76.3534 9.39293 76.2694 9.56123 76.1364C9.62283 76.0857 9.80965 75.9451 10.032 75.7351C10.2735 75.4315 10.4869 75.5425 11.3151 73.9159C11.6379 73.0966 12.0324 72.0039 11.5153 70.1708C10.9841 68.475 9.79164 67.535 9.10482 67.1421C8.26693 66.675 7.81662 66.6091 7.48018 66.5343C7.1669 66.4786 7.09995 66.482 6.96289 66.4715C6.84449 66.4651 6.75406 66.4652 6.67977 66.4674C7.0047 66.6335 6.857 66.7941 6.86281 66.9408C6.84184 67.086 6.83809 67.208 6.83913 67.2621C6.83724 67.2661 6.86214 67.3053 6.86693 67.3864C6.86933 67.4674 6.84292 67.5885 6.86309 67.7557C6.88928 68.4502 6.85016 67.2645 6.83913 67.2621C6.83649 67.3378 6.82323 67.4216 6.95648 67.435C7.07904 67.451 7.30222 67.3855 7.3503 67.3019C7.40705 67.21 7.15639 66.6458 7.1856 66.6101C7.92011 65.7576 9.16978 64.8641 10.6605 64.2268C10.6909 64.2216 11.0334 64.8204 11.101 64.8005C11.4453 64.7032 11.6652 64.5115 11.837 64.256C12.1475 63.7916 12.2498 63.1509 12.4869 62.5842C12.8563 61.7049 13.4564 61.467 14.5553 62.1188C14.9589 61.6298 15.9745 61.5029 16.5732 61.4304C17.173 61.3575 16.3843 60.2701 16.4021 60.222C16.9307 58.6972 18.0146 58.7832 19.1356 57.927C19.6705 57.5236 20.471 56.4815 20.833 55.8873C20.9519 55.6937 21.097 55.576 21.2385 55.4707C21.4422 55.3183 21.6433 55.1865 21.7472 54.8917C21.7714 54.8239 21.2801 54.4788 21.2763 54.4483C21.0944 53.5739 22.0227 54.7262 22.295 54.8105C23.2831 55.1135 23.8572 55.2206 23.9699 54.365C24.0011 54.1626 22.6368 52.4961 22.7069 52.1962C22.8075 51.8002 23.329 52.3618 23.4187 51.9282C23.4267 51.8913 23.0466 51.6256 23.2056 51.4376C23.9396 50.5593 24.8579 49.6259 25.4552 48.5123C25.5379 48.3617 24.7916 48.1793 24.899 47.9577C25.3251 47.0787 25.8494 46.1335 26.5276 45.3004C26.6559 45.1411 26.7881 44.9887 26.9255 44.8425C27.144 44.6135 27.5123 45.0217 27.6787 45.0342C28.6891 45.1026 27.7608 43.9691 27.7807 43.8746C28.2277 41.5949 30.1091 40.5783 30.4051 38.4556C30.4207 38.3457 29.6158 37.3082 30.3051 37.2283C30.3952 37.2074 30.5092 37.1997 30.652 37.2085C30.7369 37.2169 32.0609 37.2924 31.3564 36.6864C31.3116 36.65 30.6219 36.6472 30.8162 36.2937C31.012 35.9346 30.7898 35.2153 31.6262 34.9046C31.8888 34.8109 33.2249 34.7385 32.379 33.9787C32.3252 33.9129 30.288 32.6521 31.8764 32.7247C32.1375 32.7358 33.7581 33.1294 33.0473 32.3373C32.9079 32.1882 32.5036 32.3274 32.3345 31.9793C32.0719 31.4519 32.617 30.8913 31.9648 30.2015C31.8501 30.0773 30.788 29.5107 31.678 29.2661C31.8176 29.2263 32.3569 29.3955 32.44 29.2148C32.7191 28.6084 32.659 27.9319 32.7483 27.2673C32.7899 26.9321 32.861 26.6146 32.997 26.3162C33.1574 25.9639 34.0396 26.2105 34.305 25.8555C34.5709 25.5005 34.8427 24.7935 34.4435 24.4321C34.0441 24.0777 32.6058 24.3901 32.5018 23.9184C32.222 22.6823 32.2971 21.8624 32.3837 21.4324C32.2216 20.5211 32.0546 19.6283 31.77 18.8117C31.6598 18.4984 31.2935 18.9457 31.0978 18.5108C30.358 16.7894 28.7216 15.0979 29.0088 13.995C29.1289 12.9406 30.19 12.9814 29.9924 12.3482C29.905 12.1289 29.3149 12.6133 28.9837 12.9922C28.7564 13.1237 28.5843 13.2286 28.54 13.2201C27.178 12.9829 26.848 11.9021 25.8674 11.5891C25.6671 11.5269 25.5004 12.2092 25.3379 12.1527C24.7868 11.9693 24.4509 11.4507 24.0606 11.3303C23.8894 11.2804 23.7072 11.763 23.5981 11.6726C23.3383 11.4659 23.256 11.2167 23.2677 10.725C23.2606 10.6785 23.4917 10.0735 23.3862 10.0265C23.3143 9.99469 23.2905 9.88261 23.2899 9.81702C22.8375 9.73802 22.3685 9.72511 21.9328 9.99523C21.6895 10.1476 21.7097 11.3218 21.179 10.5249C21.0691 10.3594 21.1484 8.94068 20.6033 10.1853C20.4964 10.3909 19.6607 12.0865 19.1338 11.0734C18.9929 10.8056 18.5638 9.68596 18.3125 9.89847C18.2805 9.93145 18.4948 10.5422 18.2868 10.629C17.5583 10.9244 16.799 10.9863 16.1901 11.3367C16.0323 11.4309 16.4351 12.0049 16.207 12.1232C15.5831 12.4483 14.8816 12.5319 14.4138 12.5466C14.2405 12.5505 14.081 12.0229 14.0451 11.975C13.3958 11.2346 13.9387 12.4212 13.9485 12.5043C13.948 12.5129 13.9475 12.5212 13.9469 12.5293C13.5823 13.2526 12.8726 13.0391 12.5764 13.4809C12.498 13.6002 12.965 14.0153 12.9793 14.0746C13.1338 14.6465 12.5623 13.6789 12.3562 13.6951C11.7747 13.741 11.5007 14.1158 11.4041 14.3903C11.3708 14.4892 12.0156 14.8156 11.99 14.8851C11.9009 15.2103 11.8805 15.2132 11.6289 15.4294C11.5343 15.7389 11.4304 16.0401 11.3161 16.332C11.2105 16.6007 10.6821 16.3669 10.5507 16.4112C9.63038 16.7243 10.7735 17.4163 10.8784 17.5463C11.3537 18.1583 10.8554 18.3393 10.9284 18.8008C11.0022 19.2366 11.065 19.6536 11.1198 19.9095C11.1459 20.0339 11.1717 20.1177 11.1741 20.0872C11.1701 20.0524 11.1691 19.9146 10.9697 19.4451C10.9114 19.3296 11.0079 19.5562 11.1113 19.7448C11.2196 19.9479 11.3614 20.1886 11.5158 20.4297C11.8265 20.9156 12.198 21.4171 12.5769 21.8585C13.5519 22.9869 14.5668 24.0001 15.7715 24.8495C16.7098 25.4933 17.6854 26.0521 18.7074 26.4163C18.864 26.4721 18.9888 25.7313 19.1235 25.7687C19.9731 26.0203 20.7048 26.2607 21.1625 26.3543C21.6237 26.4668 21.7069 26.3406 21.1205 26.4343C21.0223 26.4574 20.9103 25.7499 20.7062 25.7848C20.6371 25.7976 20.5643 25.8186 20.4907 25.8477C20.6759 25.6918 20.907 25.6086 21.1672 25.6447C21.3205 25.6615 21.5602 26.2299 21.7179 26.228C22.0926 26.219 22.3457 26.0311 22.3717 25.8126C22.3761 25.7261 21.7549 25.3698 21.7873 25.3127C21.8618 25.1376 21.7549 25.2328 21.81 25.2476C21.9672 24.2285 22.1374 23.2298 22.4724 22.179C22.5146 22.0546 23.9139 21.6666 23.5791 21.4351C23.1834 21.5023 22.724 21.6083 22.3046 21.6954C22.0592 20.9504 21.8095 20.314 21.5258 19.7471C21.4415 19.5585 21.5067 19.6924 21.8604 19.9469C22.2086 20.2061 22.6974 20.3419 22.7341 20.3023C22.5645 20.1387 21.0622 19.9911 20.6928 20.0389C20.6541 20.0431 20.6193 20.0471 20.5872 20.051C20.5133 20.0604 20.7504 20.7958 20.637 20.8136C20.4445 20.8408 20.7333 20.8525 21.2932 20.5225C21.8551 20.2014 22.3144 19.6118 22.3493 19.4085C22.1656 19.569 21.9034 19.7705 21.5337 19.9707C21.4393 20.0236 20.1655 19.5676 20.2781 19.9237C20.2944 19.9887 20.3816 20.454 20.6661 20.5769C20.7087 20.5924 21.3379 20.6221 21.3444 20.7191C21.3662 21.0785 21.3529 21.3187 21.2896 21.5966C21.269 21.67 21.2385 21.6971 21.1329 21.5917C21.0136 21.4861 20.873 21.2324 20.249 20.6762C19.6142 20.171 19.8043 21.2434 19.3488 20.9175C18.9181 20.6241 18.1918 20.2509 17.3524 20.1345C16.5146 20.0083 15.7486 20.1605 15.2953 20.3254C14.6731 20.5616 14.5831 20.681 14.5343 20.6997C14.5006 20.7211 14.5663 20.6653 14.661 20.5866C14.8587 20.4245 15.1851 20.1754 15.6283 20.005C16.4468 19.6733 17.1503 20.6295 18.321 21.0003C18.4867 21.0522 18.8554 20.6387 19.3892 21.0316C20.7315 22.0206 21.9754 23.3825 23.4261 24.4119C23.7407 24.6315 23.8974 23.7819 24.3338 24.7122C24.3636 24.7739 24.249 25.4032 24.3991 25.7145C24.5036 25.9293 25.1406 26.2142 25.2247 26.5497C25.3064 26.8874 24.7254 26.7058 24.7393 27.1964C24.746 27.6979 25.46 28.0504 24.98 28.7351ZM19.2635 61.0512C20.0491 61.2257 18.5588 59.3985 18.5414 60.1563C18.5423 60.195 19.2242 61.0432 19.2635 61.0512ZM31.2732 37.3365C30.2696 38.0775 31.8024 38.5178 32.5928 37.9889C33.3781 37.4342 31.5756 37.098 31.2732 37.3365ZM27.6064 30.0724C27.6761 31.236 30.1557 28.9841 28.8815 28.7339C28.8079 28.7201 27.5987 30.0027 27.6064 30.0724ZM17.2059 22.7715C17.2317 22.7916 17.4982 22.5539 17.4815 22.5247C17.0534 21.8875 16.55 22.3337 17.2059 22.7715ZM20.0632 29.0368C20.3198 29.4791 21.0265 28.9591 20.7196 28.3964C20.4568 27.9408 19.7324 28.4831 20.0632 29.0368ZM35.59 41.7952C35.6255 41.8024 35.7733 41.5525 35.5899 41.476C34.9986 41.2326 34.999 41.6676 35.59 41.7952ZM8.66111 31.8254C10.2983 31.1667 12.2808 33.3342 10.5602 33.7684C10.2424 33.8543 10.8206 32.6767 10.3422 32.624C9.44614 32.5397 9.75964 34.3217 8.63836 33.8434C8.43343 33.7556 8.56319 31.8576 8.66214 31.8206C8.6618 31.8222 8.66145 31.8238 8.66111 31.8254ZM21.3194 63.0176C21.3474 63.0351 21.6715 62.7936 21.6581 62.7638C21.3292 62.0587 20.6844 62.5381 21.3194 63.0176ZM40.6515 25.5456C40.7213 25.5285 40.8274 24.5699 40.7643 24.5346C39.563 24.0096 39.3508 25.8869 40.6515 25.5456ZM13.0789 65.1011C12.9327 64.245 13.2659 63.8498 14.1399 64.3482C13.779 64.5879 13.442 64.8605 13.0789 65.1011Z" fill="#1340FF"/>
</svg>
