<svg width="87" height="77" viewBox="0 0 87 77" fill="none" xmlns="http://www.w3.org/2000/svg">
<path d="M17.6049 48.2161C17.9409 47.7519 18.3668 47.2446 19.0371 46.6259C19.7928 46.0201 20.3781 45.2133 23.0607 44.2242C25.0993 43.3288 29.374 43.9437 31.1109 45.5639C32.9568 47.0497 33.4354 48.2297 33.8428 49.078C34.3225 50.2867 33.6606 49.8705 33.8652 50.5926C33.9815 51.0658 34.092 51.4652 34.195 51.84C34.38 52.5155 34.5578 53.1923 34.5249 53.9105C34.5033 54.2745 33.7941 53.919 33.7823 54.2847C33.7021 56.2572 33.6961 58.0458 33.1079 59.7893C32.5801 61.3226 31.8773 62.7065 30.9762 64.017C30.2173 65.1949 28.8415 66.5742 27.305 67.2927C25.777 68.0271 24.5026 68.1793 23.5576 68.2774C21.1454 68.4485 19.5559 68.325 17.1457 67.7234C14.7138 67.2519 11.9556 64.6509 11.2085 62.8833C10.9345 62.3643 10.6887 61.834 10.4714 61.2967C9.45876 58.8502 9.49988 55.8156 9.20459 53.4226C9.16777 53.139 8.59049 53.3175 8.54161 53.2637C7.80348 52.3897 8.97849 52.6796 9.14691 52.1349C9.30862 51.6235 9.45624 51.109 9.59409 50.5937C10.0688 48.4662 10.9839 46.4342 12.0068 44.8456C12.5885 43.9695 11.0246 44.0408 12.2295 43.6398C12.3104 43.6158 12.5919 44.2228 12.8294 44.0599C13.3572 43.6856 14.1477 42.8344 14.5537 42.5931C15.3263 42.1286 15.4421 42.0473 16.1503 41.6179C16.351 41.5011 16.5677 41.3951 16.7932 41.2974C17.9783 40.7436 19.3129 40.6151 20.3938 40.441C20.6928 40.3931 20.2512 39.7797 20.7456 39.6527C21.2552 39.513 22.5091 39.659 22.8651 39.8745C23.2307 40.0792 22.9853 40.5462 23.0344 40.6687C23.3911 41.6859 24.8222 40.6743 25.0021 40.6986C27.8563 40.9681 29.5314 42.6309 31.507 43.759C31.5535 43.7859 31.6001 43.8126 31.6467 43.8391C33.2697 44.7545 35.0804 45.7236 36.4388 46.9717C38.053 48.4755 39.0437 50.0585 40.303 51.9536C40.4379 52.1657 40.921 51.5261 41.0893 51.7926C41.3235 52.1701 41.5536 52.5734 41.7816 53.0808C43.1704 57.3508 42.3062 59.0889 41.7651 61.4922C41.686 61.7502 41.0738 61.3415 40.9559 61.5935C40.7968 61.9388 40.5917 62.323 40.3985 62.723C39.7042 64.46 38.72 65.8705 40.0546 67.8617C39.204 69.0449 37.9621 70.205 36.745 70.5054C35.9657 70.6921 36.0257 69.7123 35.5758 70.4767C35.471 70.6469 36.0538 70.9793 35.86 71.2018C35.3107 71.827 34.5873 72.2769 33.9463 72.7474C33.5694 73.0188 33.1993 73.2843 32.8615 73.5771C32.6541 73.7571 32.9659 74.2237 32.9403 74.3486C32.677 75.3928 31.148 74.5465 30.9316 74.514C29.1262 74.3768 28.1269 74.8832 26.6941 75.1109C26.3642 75.1595 26.8744 75.837 26.5559 75.9102C24.8951 76.2768 23.176 76.3337 21.6027 76.0477C21.254 75.9818 21.5544 75.3348 21.3884 75.2704C20.6648 74.9916 20.5191 76.1985 19.8229 75.9402C19.6774 75.8868 19.7597 75.3403 19.7332 75.2803C19.5515 74.8626 19.3807 74.8915 19.2374 75.0556C18.9947 75.2614 18.7752 75.6691 18.6889 75.6796C16.669 75.888 16.1093 74.1351 14.7865 73.7664C14.6214 73.7168 14.6825 74.5098 14.2289 74.3267C12.2094 73.4901 10.5437 72.3374 9.02632 71.1266C8.04594 70.3793 7.27581 69.4835 6.696 68.568C6.42404 68.132 7.05564 68.0624 7.08082 67.9945C7.5192 66.9763 6.30169 67.5889 6.15503 67.4831C5.07383 66.6715 5.4741 65.1404 3.68056 65.192C2.73486 62.9187 1.84788 60.794 1.11411 58.6338C0.106805 55.5498 0.447134 52.6956 1.36106 50.2697C1.38182 50.2112 2.03284 50.3644 2.07137 50.2481C2.26903 49.6621 2.20154 49.3603 1.96806 49.1312C1.64566 48.8003 1.00389 48.6158 0.326525 47.9798C0.0336593 47.6952 1.61679 47.0946 1.73513 47.0445C2.16792 46.8506 3.11752 47.2035 3.20494 47.1329C3.89604 46.5657 0.653788 46.2899 0.777297 45.3672C0.786589 45.3397 1.36223 45.541 1.43165 45.4734C1.64893 45.2665 1.44838 44.9975 1.68746 44.7989C2.24218 44.3433 3.82269 44.4409 3.06501 43.5017C2.9684 43.3802 1.12269 43.1878 1.3773 42.3879C1.47416 42.0708 1.78507 40.6322 2.01541 40.2678C2.23845 39.9043 2.73657 40.3338 2.76923 40.3116C3.81821 39.4858 4.02087 39.9722 5.28202 39.815C6.53797 39.6785 3.86489 38.9755 3.63905 38.671C3.41392 38.3632 4.28265 37.8275 4.55921 37.7289C4.83525 37.6269 5.11076 37.9757 5.28715 37.8622C6.27808 37.2281 4.76018 36.9948 4.12178 36.6263C4.01406 36.5633 3.93209 36.4958 3.89311 36.4201C3.26714 35.1637 5.43603 35.3219 5.93939 34.6981C6.078 34.5251 5.58078 34.4905 5.62078 34.2987C5.78921 33.5371 6.55949 33.4071 6.40916 32.3809C6.38365 32.2151 5.59095 31.04 6.60107 31.0447C6.74593 31.0469 7.1209 31.4368 7.3668 31.2033C7.73507 30.8539 8.2243 30.144 8.30882 29.6113C8.37039 29.2187 7.42438 29.215 7.87611 28.9128C8.07718 28.7794 8.33264 29.3537 8.67398 29.0844C8.88965 28.9152 9.14918 28.4902 9.35263 28.1141C9.4699 27.8972 9.5694 27.6956 9.63014 27.5687C9.79608 27.2216 9.13472 27.1055 9.11142 27.0579C8.98256 26.7754 9.06977 25.9716 9.10362 25.9133C10.6617 22.9199 13.2512 20.8858 15.081 18.1752C15.2269 17.9615 14.6038 17.6559 14.6208 17.6188C14.9938 16.7541 15.8867 18.4551 16.733 18.3984C15.6535 17.5592 16.0748 17.4504 16.3864 16.8945C16.3899 16.8881 16.3931 16.8818 16.396 16.8755C16.5134 16.6149 16.0397 16.382 16.0191 16.3265C15.7464 15.4435 16.7171 15.9349 16.9223 16.0282C17.6831 16.3659 17.2532 15.4919 17.763 15.7217C18.2659 15.9533 18.4868 16.8117 18.89 16.403C18.6671 15.938 17.4607 15.3294 17.6411 14.8658C18.3308 13.0812 21.4245 11.7645 22.5437 11.029C23.6668 10.2743 23.9616 9.94445 24.6953 9.6153C26.0227 9.03217 25.0444 8.57699 25.5129 7.70541C25.9916 6.83384 26.9806 8.99163 27.3725 9.32807C27.7598 9.66822 27.5737 9.16892 27.8561 9.308C28.1364 9.44851 28.0647 9.91316 28.4128 9.79747C28.4857 9.77298 28.5554 9.69901 28.6174 9.5937C28.8628 9.18317 29.0271 8.29918 28.8834 7.8974C28.5054 6.82002 27.4883 6.08443 28.546 5.89661C28.6072 5.88684 28.7775 6.50384 28.9943 6.44086C30.6814 5.94978 32.281 5.06526 34.0928 4.94831C34.3374 4.93888 34.3217 5.65236 34.4567 5.65794C35.8148 5.81375 35.0756 4.77227 36.0817 3.48817C35.9525 4.27391 35.9807 4.92439 36.1331 5.401C36.1378 5.43436 36.1448 5.46996 36.1104 5.49539C36.0758 5.49229 36.0947 5.56093 35.9251 5.43658C35.8405 5.37224 35.7938 5.18228 35.8153 5.10181C35.8299 5.00768 35.8631 4.95644 35.8764 4.92792C35.9383 4.78304 35.8665 4.78571 35.8318 4.7398C35.7444 4.66959 35.6365 4.62438 35.5223 4.59984C35.2974 4.54913 35.0411 4.5849 34.7788 4.71197C34.1859 5.0032 34.6276 5.61453 34.5232 6.26601C34.4955 6.45979 33.8547 6.24014 33.9646 6.58234C34.3293 7.69826 35.3181 8.57673 34.2331 8.66616C34.1839 8.66956 33.9566 8.07134 33.8102 8.12228C33.1904 8.34312 33.2167 8.87041 33.1323 9.39764C33.0753 9.69863 32.9735 10.009 32.693 10.2924C32.0754 10.9139 30.4026 11.3249 29.5507 11.8793C28.35 10.3911 27.8838 11.3487 28.4429 12.6035C27.9091 12.9845 27.4248 13.5 26.8315 13.7792C26.6277 13.8758 26.3688 13.3665 26.3088 13.3396C25.3699 12.9168 26.0074 14.0673 25.9383 14.1969C25.554 14.8541 25.0064 15.2272 24.4973 15.625C23.9368 16.0631 23.4161 16.5418 23.2821 17.4213C23.2718 17.4835 24.2006 18.4318 23.2378 18.0544C23.1704 18.03 23.0297 17.2781 22.5552 17.7434C22.0886 18.1949 20.7268 18.7592 20.7124 19.8845C20.7029 20.1592 21.3097 21.1953 20.3614 21.1305C20.2324 21.1219 19.9433 20.8651 19.7164 20.8295C18.9879 20.7264 20.059 21.5489 18.9046 21.2631C18.9022 21.2626 18.8998 21.262 18.8974 21.2614C17.7396 20.9901 16.6318 21.2019 16.8427 22.4507C16.8488 22.4873 17.6685 23.2043 17.5117 23.4621C17.2581 23.8764 16.7441 24.3903 16.526 24.8542C16.4225 25.0751 17.0852 25.223 17.0776 25.2662C16.7214 26.8747 15.7298 27.6652 14.993 29.2745C14.8511 29.5854 15.5193 30.638 14.7206 31.1067C13.8457 31.6402 10.7313 30.4596 11.2745 32.2172C11.3852 32.5573 12.426 33.0328 13.1603 33.5496C13.9011 34.1029 14.3526 34.6131 13.2317 35.097C13.565 37.354 12.5091 39.4837 13.5308 41.6804C13.5768 41.7824 14.7554 41.94 14.7738 42.1625C14.7859 42.3274 14.6698 42.4838 14.5501 42.6221C14.4279 42.748 14.3128 42.8862 14.3305 43.0064C14.5055 44.0634 15.5365 44.4981 16.1845 45.1834C16.4451 45.4476 15.9831 45.7842 16.3213 46.1032C16.5504 46.3147 16.9365 46.2066 17.2459 46.3026L17.1978 46.2786C17.3554 46.2689 17.5148 46.3113 17.6839 46.4734C18.0535 46.8416 18.2517 48.4092 18.9251 48.6817C19.158 47.2254 19.5927 47.3268 20.3775 46.9955C20.5278 46.9306 20.4094 46.4082 20.4813 46.351C20.7657 46.1061 20.9932 46.5424 21.2622 46.2628C21.3276 46.1956 21.3426 45.6928 21.3937 45.6092C21.8153 44.8818 22.5057 45.9994 22.6448 46.1901C23.1488 46.9205 23.3402 46.2523 23.7253 46.5193C24.114 46.7839 23.591 47.1957 24.0416 47.3381C24.9905 47.6311 26.1645 47.386 27.0837 47.2377C27.4543 47.175 27.0778 46.562 27.128 46.5377C27.8314 46.2331 28.7473 46.7562 28.8368 45.358C30.1587 48.5547 29.2219 45.008 30.3558 45.3097L30.3181 45.3221C30.331 45.3241 30.3441 45.3265 30.3576 45.3293C30.4425 45.3496 30.9951 46.5041 30.9645 47.0157L30.8423 47.0559C30.8318 47.1242 30.8118 47.1797 30.7805 47.218C30.5146 47.5406 29.893 47.1766 29.5271 47.6511C29.4457 47.7629 29.1591 49.4038 29.0846 49.5142C28.5324 50.3792 27.9433 47.9997 27.883 47.8761C27.2049 46.5376 26.7572 48.2934 26.5555 48.44C25.6931 49.1089 24.8221 48.8662 24.0421 49.3032C23.5271 49.5843 23.5627 51.1847 23.106 51.1576C21.5404 51.0451 21.182 48.8078 19.6139 50.6204C19.2681 50.9962 19.3774 52.7881 18.3677 51.26C18.2908 51.1635 17.6819 49.7879 17.0215 50.4469C16.9358 50.5302 16.8219 51.0273 16.7258 51.0485C16.3741 51.1209 16.1191 50.9969 15.8588 50.8719L14.3877 50.1395C14.2478 49.9868 14.0974 49.83 13.8296 49.7312C13.2395 49.515 12.4323 49.2219 11.9436 48.4773C11.6416 48.0289 11.9054 46.8614 11.9454 46.519C12.0649 45.5883 10.6626 45.2994 11.2044 44.4248C11.8181 43.6958 13.2017 44.0142 13.4525 42.9543C12.3576 43.1619 11.2236 43.3028 10.0961 43.3936C9.88465 43.4209 9.6736 43.4482 9.46329 43.4756C9.18135 41.4953 9.49355 39.7018 9.43109 37.8505C9.42311 37.6214 8.70989 37.8557 8.68373 37.6044C8.58042 36.5378 9.13117 35.6433 9.03122 34.5348C8.98556 34.0324 8.75371 33.4748 8.56503 32.9002C8.41349 32.6022 8.27465 32.2846 8.2371 31.9524C9.79748 31.6976 9.45366 30.313 9.82217 29.2948C9.94717 28.9489 10.3382 29.0604 10.5252 28.8466C11.2326 28.0468 9.83127 28.1326 9.69825 27.8136C9.17033 26.4181 12.0884 27.2516 12.4379 26.1139C12.4523 26.0611 11.257 24.7096 11.2146 24.559C10.8926 23.6487 11.7768 24.6731 12.0614 24.322C12.5847 23.6871 13.1549 23.3876 13.1339 22.3796C13.1259 22.0843 12.5237 21.0576 13.4488 20.9862C13.5701 20.9763 14.0226 21.2627 14.0754 21.2309C14.9822 20.658 13.5286 19.826 13.3076 19.0627C13.1965 18.6775 13.5023 18.4567 13.8881 18.3245C14.2681 18.19 14.7177 18.1549 14.9048 18.1647C15.8856 18.2144 15.0359 18.6606 15.0981 18.7252C15.8198 19.4875 15.9818 18.8673 16.3099 18.5032C17.7436 19.3114 18.0055 18.7191 16.6465 18.1239C16.496 18.061 16.4237 18.4614 16.3099 18.5032C15.1549 17.3012 15.4444 16.4644 17.173 16.6472C17.9813 16.7434 18.4144 17.5211 18.8798 16.4255C19.0998 15.9311 18.09 15.3776 18.1622 14.8055C18.3473 13.4787 20.1064 13.1586 20.7549 12.3002C20.9947 11.9834 20.2874 11.8047 20.4391 11.571C20.4632 11.534 20.4888 11.4987 20.5157 11.4649C20.9297 10.9418 21.6293 10.8376 21.9611 10.2345C21.9928 10.1757 21.4426 9.79759 21.5982 9.64591C22.7729 8.48743 24.109 7.89107 25.4055 6.83057C26.0307 6.31763 26.9334 5.12622 27.6475 4.6586C28.041 4.39838 28.5215 4.18102 29.0216 3.97975C30.215 3.45014 31.4804 3.10388 32.2612 2.49065C33.0146 1.90967 32.5388 1.43659 32.7084 0.851585C32.7983 0.5447 33.0201 0.374771 33.2541 0.315879C33.3698 0.286987 33.4983 0.280525 33.5446 0.330848C33.5527 0.365562 33.5952 0.376411 33.3655 0.554992C33.3133 0.597793 33.192 0.681808 33.0237 0.814781C32.9621 0.865501 32.7753 1.00603 32.553 1.21603C32.3114 1.51971 32.0981 1.40865 31.2699 3.03525C30.9471 3.85458 30.5526 4.94727 31.0697 6.78033C31.6009 8.47619 32.7933 9.41616 33.4801 9.80902C34.318 10.2762 34.7683 10.3421 35.1048 10.4168C35.4181 10.4725 35.485 10.4692 35.6221 10.4797C35.7405 10.4861 35.8309 10.486 35.9052 10.4838C35.5803 10.3176 35.728 10.157 35.7222 10.0104C35.7431 9.86519 35.7469 9.74318 35.7458 9.68906C35.7477 9.68511 35.7228 9.64591 35.718 9.56476C35.7156 9.48374 35.742 9.36272 35.7219 9.19549C35.6957 8.50096 35.7348 9.68663 35.7458 9.68906C35.7485 9.61332 35.7617 9.52953 35.6285 9.51615C35.5059 9.50022 35.2828 9.56565 35.2347 9.64924C35.1779 9.74122 35.4286 10.3054 35.3994 10.3411C34.6649 11.1935 33.4152 12.0871 31.9244 12.7244C31.894 12.7295 31.5516 12.1308 31.484 12.1506C31.1397 12.2479 30.9198 12.4397 30.7479 12.6952C30.4374 13.1596 30.3352 13.8003 30.0981 14.367C29.7286 15.2463 29.1286 15.4842 28.0296 14.8323C27.6261 15.3213 26.6105 15.4482 26.0118 15.5208C25.412 15.5936 26.2006 16.6811 26.1828 16.7292C25.6543 18.2539 24.5704 18.1679 23.4494 19.0241C22.9144 19.4276 22.114 20.4696 21.752 21.0639C21.6331 21.2574 21.4879 21.3752 21.3464 21.4805C21.1428 21.6329 20.9417 21.7646 20.8378 22.0595C20.8136 22.1273 21.3049 22.4724 21.3086 22.5028C21.4905 23.3773 20.5623 22.2249 20.29 22.1407C19.3019 21.8376 18.7278 21.7306 18.615 22.5862C18.5838 22.7886 19.9482 24.4551 19.8781 24.7549C19.7775 25.151 19.2559 24.5894 19.1663 25.023C19.1583 25.0598 19.5384 25.3256 19.3794 25.5136C18.6453 26.3919 17.727 27.3252 17.1298 28.4389C17.047 28.5894 17.7933 28.7719 17.686 28.9935C17.2599 29.8725 16.7356 30.8177 16.0573 31.6508C15.9291 31.8101 15.7969 31.9625 15.6595 32.1087C15.4409 32.3377 15.0727 31.9294 14.9063 31.917C13.8959 31.8486 14.8242 32.9821 14.8043 33.0766C14.3573 35.3562 12.4758 36.3728 12.1798 38.4956C12.1642 38.6055 12.9691 39.643 12.2799 39.7228C12.1898 39.7438 12.0757 39.7515 11.933 39.7427C11.848 39.7342 10.524 39.6587 11.2286 40.2647C11.2733 40.3012 11.963 40.304 11.7687 40.6574C11.573 41.0166 11.7952 41.7358 10.9588 42.0466C10.6962 42.1403 9.36007 42.2127 10.206 42.9725C10.2598 43.0383 12.2969 44.2991 10.7086 44.2264C10.4475 44.2153 8.82683 43.8218 9.53768 44.6139C9.67708 44.763 10.0814 44.6237 10.2504 44.9719C10.5131 45.4993 9.96799 46.0599 10.6201 46.7497C10.7348 46.8738 11.797 47.4405 10.907 47.6851C10.7674 47.7248 10.2281 47.5556 10.145 47.7364C9.86584 48.3427 9.92598 49.0192 9.83668 49.6839C9.79503 50.019 9.72398 50.3365 9.58797 50.635C9.42759 50.9873 8.54532 50.7407 8.27998 51.0957C8.01402 51.4507 7.74222 52.1577 8.14146 52.5191C8.54091 52.8735 9.97912 52.5611 10.0831 53.0328C10.3629 54.2689 10.2878 55.0887 10.2013 55.5188C10.3633 56.4301 10.5304 57.3229 10.8149 58.1395C10.9252 58.4527 11.2915 58.0055 11.4872 58.4403C12.227 60.1618 13.8633 61.8533 13.5761 62.9562C13.4561 64.0105 12.395 63.9698 12.5926 64.6029C12.68 64.8223 13.2701 64.3378 13.6013 63.959C13.8286 63.8275 14.0006 63.7226 14.045 63.731C15.407 63.9683 15.737 65.0491 16.7176 65.3621C16.9179 65.4243 17.0846 64.742 17.2471 64.7985C17.7981 64.9819 18.1341 65.5004 18.5244 65.6208C18.6955 65.6707 18.8778 65.1882 18.9869 65.2786C19.2467 65.4853 19.3289 65.7344 19.3172 66.2262C19.3243 66.2727 19.0933 66.8777 19.1988 66.9247C19.2706 66.9565 19.2945 67.0686 19.295 67.1341C19.7475 67.2132 20.2165 67.2261 20.6522 66.9559C20.8955 66.8036 20.8753 65.6294 21.406 66.4262C21.5158 66.5917 21.4365 68.0105 21.9817 66.7659C22.0886 66.5603 22.9242 64.8647 23.4512 65.8778C23.592 66.1456 24.0212 67.2652 24.2725 67.0527C24.3044 67.0197 24.0901 66.409 24.2981 66.3222C25.0267 66.0268 25.786 65.9648 26.3949 65.6145C26.5527 65.5202 26.1499 64.9463 26.3779 64.828C27.0019 64.5029 27.7034 64.4193 28.1711 64.4046C28.3445 64.4007 28.504 64.9283 28.5398 64.9762C29.1892 65.7166 28.6463 64.5299 28.6365 64.4469C28.6369 64.4383 28.6375 64.43 28.6381 64.4219C29.0026 63.6986 29.7124 63.912 30.0086 63.4703C30.0869 63.3509 29.62 62.9359 29.6056 62.8765C29.4512 62.3047 30.0227 63.2723 30.2288 63.2561C30.8102 63.2102 31.0843 62.8353 31.1808 62.5609C31.2142 62.462 30.5693 62.1355 30.595 62.0661C30.6841 61.7408 30.7044 61.738 30.9561 61.5217C31.0506 61.2123 31.1546 60.9111 31.2688 60.6192C31.3744 60.3504 31.9028 60.5842 32.0343 60.5399C32.9546 60.2269 31.8115 59.5348 31.7065 59.4049C31.2313 58.7929 31.7296 58.6119 31.6566 58.1503C31.5828 57.7146 31.5199 57.2975 31.4652 57.0416C31.4391 56.9173 31.4132 56.8335 31.4109 56.8639C31.4149 56.8988 31.4159 57.0366 31.6153 57.5061C31.6736 57.6216 31.577 57.395 31.4737 57.2063C31.3654 57.0033 31.2236 56.7625 31.0692 56.5215C30.7584 56.0356 30.387 55.5341 30.008 55.0926C29.033 53.9643 28.0182 52.9511 26.8135 52.1016C25.8752 51.4579 24.8996 50.8991 23.8776 50.5349C23.721 50.479 23.5962 51.2199 23.4615 51.1825C22.6119 50.9308 21.8802 50.6905 21.4225 50.5968C20.9613 50.4843 20.878 50.6106 21.4644 50.5169C21.5626 50.4938 21.6747 51.2012 21.8788 51.1664C21.9478 51.1536 22.0207 51.1326 22.0942 51.1035C21.909 51.2594 21.6779 51.3425 21.4178 51.3065C21.2645 51.2896 21.0247 50.7213 20.8671 50.7232C20.4924 50.7322 20.2393 50.9201 20.2133 51.1385C20.2089 51.2251 20.83 51.5814 20.7977 51.6385C20.7232 51.8135 20.8301 51.7184 20.7749 51.7036C20.6178 52.7227 20.4476 53.7214 20.1126 54.7722C20.0703 54.8966 18.6711 55.2846 19.0059 55.516C19.4016 55.4488 19.8609 55.3428 20.2804 55.2558C20.5257 56.0007 20.7754 56.6372 21.0592 57.204C21.1435 57.3927 21.0783 57.2588 20.7246 57.0043C20.3764 56.7451 19.8876 56.6093 19.8508 56.6489C20.0204 56.8125 21.5228 56.96 21.8922 56.9123C21.9309 56.9081 21.9656 56.9041 21.9977 56.9001C22.0717 56.8908 21.8345 56.1553 21.9479 56.1376C22.1404 56.1104 21.8516 56.0986 21.2918 56.4286C20.7299 56.7498 20.2706 57.3393 20.2357 57.5427C20.4194 57.3822 20.6816 57.1806 21.0513 56.9805C21.1457 56.9276 22.4194 57.3835 22.3068 57.0274C22.2906 56.9625 22.2033 56.4972 21.9188 56.3743C21.8763 56.3588 21.2471 56.3291 21.2405 56.232C21.2188 55.8727 21.2321 55.6325 21.2954 55.3546C21.316 55.2812 21.3465 55.2541 21.452 55.3595C21.5714 55.4651 21.712 55.7187 22.336 56.275C22.9708 56.7802 22.7807 55.7078 23.2361 56.0337C23.6669 56.327 24.3932 56.7002 25.2325 56.8166C26.0703 56.9429 26.8363 56.7907 27.2897 56.6258C27.9119 56.3896 28.0019 56.2701 28.0507 56.2515C28.0843 56.2301 28.0187 56.2859 27.9239 56.3645C27.7263 56.5267 27.3999 56.7758 26.9567 56.9462C26.1382 57.2779 25.4346 56.3216 24.2639 55.9509C24.0983 55.8989 23.7295 56.3124 23.1957 55.9195C21.8534 54.9306 20.6096 53.5687 19.1588 52.5393C18.8443 52.3197 18.6876 53.1693 18.2511 52.239C18.2214 52.1772 18.336 51.548 18.1858 51.2366C18.0814 51.0219 17.4444 50.737 17.3602 50.4014C17.2785 50.0638 17.8595 50.2453 17.8457 49.7548C17.8389 49.2533 17.1249 48.9008 17.6049 48.2161ZM23.3215 15.9C22.5358 15.7255 24.0262 17.5526 24.0436 16.7949C24.0427 16.7561 23.3608 15.908 23.3215 15.9ZM11.3118 39.6147C12.3154 38.8737 10.7825 38.4334 9.9922 38.9622C9.20684 39.517 11.0094 39.8532 11.3118 39.6147ZM14.9785 46.8787C14.9089 45.7152 12.4293 47.9671 13.7035 48.2172C13.777 48.231 14.9863 46.9485 14.9785 46.8787ZM25.3791 54.1796C25.3533 54.1596 25.0868 54.3973 25.1035 54.4265C25.5316 55.0636 26.0349 54.6175 25.3791 54.1796ZM22.5217 47.9144C22.2651 47.472 21.5585 47.9921 21.8653 48.5547C22.1281 49.0103 22.8525 48.4681 22.5217 47.9144ZM6.995 35.156C6.95951 35.1487 6.81163 35.3986 6.99508 35.4752C7.58635 35.7186 7.58593 35.2836 6.995 35.156ZM33.9239 45.1257C32.2867 45.7845 30.3041 43.617 32.0248 43.1828C32.3425 43.0968 31.7643 44.2745 32.2428 44.3272C33.1388 44.4114 32.8253 42.6295 33.9466 43.1077C34.1515 43.1955 34.0218 45.0936 33.9228 45.1305C33.9232 45.1289 33.9235 45.1273 33.9239 45.1257ZM21.2655 13.9335C21.2376 13.9161 20.9135 14.1576 20.9269 14.1873C21.2557 14.8925 21.9005 14.413 21.2655 13.9335ZM1.9335 51.4056C1.86361 51.4226 1.75754 52.3813 1.82063 52.4166C3.02193 52.9416 3.23419 51.0643 1.9335 51.4056ZM29.506 11.8501C29.6523 12.7062 29.319 13.1014 28.445 12.603C28.806 12.3632 29.143 12.0907 29.506 11.8501Z" fill="#1340FF"/>
<path d="M62.02 48.9534C62.3559 48.4892 62.7818 47.9819 63.4521 47.3632C64.2078 46.7574 64.7931 45.9506 67.4758 44.9615C69.5144 44.0661 73.7891 44.681 75.526 46.3012C77.3718 47.787 77.8504 48.967 78.2578 49.8153C78.7375 51.024 78.0756 50.6078 78.2802 51.3299C78.3966 51.8031 78.507 52.2025 78.6101 52.5773C78.7951 53.2528 78.9728 53.9296 78.94 54.6478C78.9183 55.0118 78.2091 54.6563 78.1973 55.022C78.1171 56.9945 78.1111 58.7831 77.523 60.5267C76.9951 62.0599 76.2924 63.4438 75.3912 64.7543C74.6323 65.9322 73.2566 67.3115 71.72 68.03C70.192 68.7644 68.9177 68.9166 67.9727 69.0147C65.5604 69.1858 63.9709 69.0623 61.5608 68.4607C59.1288 67.9892 56.3706 65.3882 55.6236 63.6206C55.3495 63.1016 55.1038 62.5713 54.8864 62.034C53.8738 59.5875 53.9149 56.553 53.6196 54.1599C53.5828 53.8763 53.0055 54.0548 52.9566 54.001C52.2185 53.127 53.3935 53.4169 53.562 52.8722C53.7237 52.3608 53.8713 51.8463 54.0091 51.331C54.4838 49.2035 55.399 47.1715 56.4218 45.5829C57.0036 44.7068 55.4396 44.7781 56.6445 44.3771C56.7255 44.3531 57.0069 44.9601 57.2444 44.7972C57.7722 44.4229 58.5628 43.5717 58.9688 43.3304C59.7413 42.8659 59.8571 42.7846 60.5654 42.3552C60.7661 42.2384 60.9828 42.1324 61.2082 42.0347C62.3934 41.4809 63.728 41.3524 64.8089 41.1783C65.1078 41.1304 64.6662 40.517 65.1607 40.39C65.6703 40.2503 66.9241 40.3963 67.2801 40.6118C67.6457 40.8165 67.4004 41.2835 67.4495 41.406C67.8061 42.4232 69.2373 41.4117 69.4171 41.4359C72.2714 41.7054 73.9465 43.3682 75.9221 44.4963C75.9686 44.5232 76.0151 44.5499 76.0618 44.5764C77.6848 45.4918 79.4954 46.4609 80.8539 47.709C82.468 49.2128 83.4587 50.7958 84.718 52.6909C84.8529 52.9031 85.336 52.2634 85.5044 52.5299C85.7385 52.9074 85.9687 53.3107 86.1966 53.8181C87.5855 58.0881 86.7213 59.8262 86.1801 62.2296C86.1011 62.4875 85.4888 62.0788 85.371 62.3308C85.2118 62.6761 85.0067 63.0603 84.8135 63.4603C84.1193 65.1973 83.135 66.6078 84.4696 68.599C83.6191 69.7822 82.3771 70.9423 81.16 71.2427C80.3807 71.4294 80.4407 70.4496 79.9908 71.214C79.886 71.3842 80.4689 71.7166 80.275 71.9391C79.7258 72.5643 79.0024 73.0142 78.3613 73.4847C77.9844 73.7561 77.6143 74.0216 77.2765 74.3144C77.0692 74.4944 77.3809 74.961 77.3554 75.0859C77.092 76.1301 75.5631 75.2838 75.3466 75.2513C73.5413 75.1141 72.5419 75.6205 71.1091 75.8482C70.7792 75.8968 71.2895 76.5743 70.9709 76.6475C69.3101 77.0141 67.591 77.071 66.0178 76.785C65.6691 76.7191 65.9695 76.0721 65.8035 76.0078C65.0798 75.7289 64.9341 76.9358 64.2379 76.6775C64.0925 76.6241 64.1747 76.0776 64.1483 76.0176C63.9665 75.6 63.7958 75.6288 63.6524 75.7929C63.4097 75.9987 63.1902 76.4064 63.1039 76.4169C61.084 76.6253 60.5244 74.8724 59.2016 74.5037C59.0364 74.4541 59.0975 75.2471 58.6439 75.064C56.6245 74.2274 54.9588 73.0747 53.4414 71.8639C52.461 71.1166 51.6909 70.2208 51.111 69.3053C50.8391 68.8693 51.4707 68.7997 51.4959 68.7318C51.9342 67.7136 50.7167 68.3262 50.5701 68.2204C49.4889 67.4088 49.8891 65.8777 48.0956 65.9293C47.1499 63.656 46.2629 61.5313 45.5292 59.3711C44.5218 56.2871 44.8622 53.4329 45.7761 51.007C45.7969 50.9485 46.4479 51.1017 46.4864 50.9854C46.6841 50.3994 46.6166 50.0976 46.3831 49.8685C46.0607 49.5376 45.4189 49.3531 44.7416 48.7171C44.4487 48.4325 46.0318 47.8319 46.1502 47.7818C46.583 47.5879 47.5326 47.9408 47.62 47.8702C48.3111 47.303 45.0688 47.0272 45.1923 46.1045C45.2016 46.0771 45.7773 46.2783 45.8467 46.2107C46.064 46.0038 45.8634 45.7348 46.1025 45.5362C46.6572 45.0806 48.2377 45.1782 47.4801 44.239C47.3834 44.1175 45.5377 43.9252 45.7923 43.1252C45.8892 42.8081 46.2001 41.3695 46.4305 41.0051C46.6535 40.6416 47.1516 41.0711 47.1843 41.0489C48.2333 40.2231 48.4359 40.7095 49.6971 40.5523C50.953 40.4158 48.2799 39.7128 48.0541 39.4083C47.829 39.1005 48.6977 38.5648 48.9743 38.4662C49.2503 38.3642 49.5258 38.713 49.7022 38.5995C50.6931 37.9654 49.1752 37.7321 48.5368 37.3636C48.4291 37.3006 48.3471 37.2331 48.3082 37.1574C47.6822 35.901 49.8511 36.0592 50.3544 35.4354C50.493 35.2624 49.9958 35.2278 50.0358 35.036C50.2042 34.2744 50.9745 34.1444 50.8242 33.1182C50.7987 32.9524 50.006 31.7773 51.0161 31.782C51.161 31.7842 51.5359 32.1741 51.7818 31.9406C52.1501 31.5912 52.6393 30.8813 52.7239 30.3486C52.7854 29.956 51.8394 29.9523 52.2912 29.6501C52.4922 29.5167 52.7477 30.0911 53.089 29.8218C53.3047 29.6525 53.5642 29.2275 53.7677 28.8514C53.8849 28.6345 53.9844 28.4329 54.0452 28.306C54.2111 27.9589 53.5498 27.8428 53.5265 27.7952C53.3976 27.5127 53.4848 26.7089 53.5187 26.6506C55.0767 23.6572 57.6663 21.6231 59.496 18.9125C59.642 18.6988 59.0189 18.3932 59.0359 18.3562C59.4089 17.4914 60.3017 19.1924 61.1481 19.1357C60.0686 18.2965 60.4898 18.1877 60.8014 17.6318C60.805 17.6254 60.8081 17.6191 60.811 17.6128C60.9284 17.3522 60.4547 17.1193 60.4341 17.0638C60.1614 16.1808 61.1321 16.6722 61.3373 16.7655C62.0981 17.1032 61.6682 16.2292 62.178 16.459C62.681 16.6906 62.9019 17.549 63.305 17.1403C63.0822 16.6753 61.8758 16.0667 62.0562 15.6031C62.7459 13.8185 65.8395 12.5018 66.9587 11.7663C68.0819 11.0116 68.3766 10.6818 69.1104 10.3526C70.4377 9.76948 69.4595 9.3143 69.9279 8.44271C70.4067 7.57114 71.3957 9.72893 71.7876 10.0654C72.1748 10.4055 71.9888 9.90623 72.2711 10.0453C72.5514 10.1858 72.4797 10.6505 72.8278 10.5348C72.9007 10.5103 72.9705 10.4363 73.0324 10.331C73.2779 9.92048 73.4422 9.03648 73.2984 8.6347C72.9205 7.55733 71.9034 6.82174 72.961 6.63392C73.0222 6.62414 73.1925 7.24115 73.4093 7.17816C75.0965 6.68708 76.696 5.80257 78.5079 5.68562C78.7524 5.67619 78.7368 6.38966 78.8717 6.39524C80.2298 6.55106 79.4906 5.50957 80.4968 4.22548C80.3675 5.01122 80.3957 5.6617 80.5481 6.13831C80.5529 6.17166 80.5598 6.20727 80.5254 6.2327C80.4909 6.22959 80.5097 6.29823 80.3402 6.17388C80.2556 6.10954 80.2088 5.91959 80.2303 5.83912C80.2449 5.74499 80.2781 5.69374 80.2914 5.66523C80.3534 5.52035 80.2815 5.52301 80.2468 5.4771C80.1594 5.40689 80.0515 5.36169 79.9374 5.33714C79.7124 5.28644 79.4562 5.3222 79.1939 5.44927C78.601 5.74051 79.0427 6.35184 78.9383 7.00332C78.9106 7.1971 78.2697 6.97745 78.3797 7.31964C78.7443 8.43556 79.7331 9.31403 78.6482 9.40347C78.5989 9.40686 78.3717 8.80865 78.2252 8.85958C77.6055 9.08043 77.6318 9.60772 77.5473 10.1349C77.4904 10.4359 77.3885 10.7463 77.1081 11.0297C76.4904 11.6512 74.8176 12.0622 73.9657 12.6166C72.7651 11.1284 72.2989 12.086 72.8579 13.3408C72.3242 13.7218 71.8399 14.2373 71.2466 14.5165C71.0427 14.6131 70.7839 14.1038 70.7239 14.0769C69.7849 13.6541 70.4224 14.8046 70.3533 14.9342C69.969 15.5914 69.4215 15.9645 68.9124 16.3623C68.3519 16.8004 67.8311 17.2791 67.6972 18.1586C67.6869 18.2208 68.6156 19.1691 67.6528 18.7917C67.5855 18.7673 67.4448 18.0154 66.9702 18.4807C66.5036 18.9322 65.1419 19.4965 65.1274 20.6218C65.1179 20.8965 65.7247 21.9326 64.7764 21.8678C64.6474 21.8592 64.3584 21.6024 64.1315 21.5668C63.4029 21.4637 64.474 22.2862 63.3196 22.0004C63.3173 21.9999 63.3149 21.9993 63.3125 21.9987C62.1547 21.7274 61.0469 21.9393 61.2577 23.188C61.2638 23.2246 62.0836 23.9416 61.9268 24.1994C61.6731 24.6137 61.1592 25.1276 60.9411 25.5915C60.8376 25.8124 61.5002 25.9603 61.4926 26.0035C61.1365 27.612 60.1448 28.4025 59.408 30.0118C59.2661 30.3227 59.9343 31.3753 59.1356 31.844C58.2608 32.3775 55.1463 31.1969 55.6895 32.9545C55.8003 33.2946 56.841 33.7701 57.5753 34.2869C58.3162 34.8402 58.7676 35.3504 57.6468 35.8343C57.98 38.0913 56.9241 40.2211 57.9458 42.4177C57.9919 42.5197 59.1704 42.6773 59.1888 42.8998C59.201 43.0647 59.0848 43.2211 58.9652 43.3594C58.8429 43.4853 58.7279 43.6235 58.7456 43.7437C58.9205 44.8007 59.9516 45.2354 60.5996 45.9207C60.8601 46.1849 60.3981 46.5215 60.7364 46.8405C60.9654 47.052 61.3516 46.9439 61.661 47.0399L61.6128 47.0159C61.7704 47.0062 61.9298 47.0486 62.0989 47.2107C62.4685 47.579 62.6667 49.1465 63.3401 49.419C63.5731 47.9627 64.0078 48.0641 64.7926 47.7328C64.9428 47.6679 64.8244 47.1455 64.8964 47.0883C65.1808 46.8434 65.4082 47.2797 65.6773 47.0001C65.7426 46.9329 65.7577 46.4301 65.8088 46.3465C66.2304 45.6191 66.9207 46.7367 67.0599 46.9274C67.5639 47.6578 67.7552 46.9896 68.1403 47.2567C68.529 47.5212 68.0061 47.933 68.4566 48.0754C69.4055 48.3684 70.5795 48.1233 71.4988 47.975C71.8693 47.9123 71.4928 47.2993 71.543 47.275C72.2464 46.9704 73.1624 47.4935 73.2519 46.0953C74.5737 49.292 73.6369 45.7453 74.7708 46.047L74.7331 46.0594C74.746 46.0614 74.7592 46.0638 74.7726 46.0667C74.8576 46.0869 75.4101 47.2414 75.3795 47.753L75.2574 47.7932C75.2468 47.8615 75.2269 47.917 75.1955 47.9553C74.9297 48.2779 74.3081 47.9139 73.9421 48.3884C73.8607 48.5002 73.5741 50.1411 73.4997 50.2516C72.9475 51.1165 72.3583 48.737 72.298 48.6134C71.62 47.2749 71.1722 49.0307 70.9705 49.1773C70.1081 49.8462 69.2371 49.6035 68.4571 50.0405C67.9422 50.3216 67.9778 51.922 67.5211 51.8949C65.9554 51.7824 65.597 49.5451 64.0289 51.3577C63.6831 51.7335 63.7924 53.5254 62.7827 51.9973C62.7058 51.9008 62.0969 50.5252 61.4365 51.1842C61.3508 51.2675 61.2369 51.7646 61.1409 51.7858C60.7892 51.8583 60.5342 51.7342 60.2738 51.6092L58.8027 50.8768C58.6629 50.7241 58.5124 50.5673 58.2446 50.4686C57.6546 50.2523 56.8474 49.9592 56.3586 49.2146C56.0566 48.7662 56.3204 47.5987 56.3604 47.2563C56.4799 46.3256 55.0776 46.0367 55.6195 45.1621C56.2331 44.4331 57.6167 44.7515 57.8676 43.6916C56.7726 43.8992 55.6386 44.0401 54.5112 44.1309C54.2997 44.1582 54.0886 44.1855 53.8783 44.213C53.5964 42.2326 53.9086 40.4392 53.8461 38.5878C53.8381 38.3587 53.1249 38.593 53.0988 38.3417C52.9955 37.2751 53.5462 36.3806 53.4463 35.2721C53.4006 34.7697 53.1687 34.2121 52.9801 33.6375C52.8285 33.3395 52.6897 33.0219 52.6521 32.6897C54.2125 32.4349 53.8687 31.0503 54.2372 30.0321C54.3622 29.6862 54.7532 29.7977 54.9402 29.5839C55.6477 28.7841 54.2463 28.8699 54.1133 28.5509C53.5854 27.1555 56.5034 27.9889 56.8529 26.8512C56.8674 26.7984 55.6721 25.447 55.6296 25.2963C55.3077 24.386 56.1918 25.4104 56.4764 25.0593C56.9997 24.4245 57.5699 24.1249 57.5489 23.1169C57.541 22.8216 56.9388 21.7949 57.8638 21.7235C57.9852 21.7136 58.4376 22 58.4904 21.9682C59.3972 21.3953 57.9436 20.5633 57.7226 19.8C57.6115 19.4148 57.9173 19.194 58.3031 19.0618C58.6831 18.9274 59.1327 18.8922 59.3199 18.902C60.3006 18.9518 59.4509 19.3979 59.5131 19.4625C60.2348 20.2248 60.3968 19.6046 60.7249 19.2405C62.1586 20.0487 62.4205 19.4564 61.0615 18.8612C60.9111 18.7983 60.8388 19.1987 60.7249 19.2405C59.5699 18.0385 59.8595 17.2017 61.5881 17.3845C62.3964 17.4807 62.8294 18.2584 63.2948 17.1628C63.5149 16.6684 62.505 16.1149 62.5773 15.5428C62.7623 14.2161 64.5215 13.8959 65.1699 13.0376C65.4097 12.7207 64.7025 12.542 64.8542 12.3083C64.8782 12.2713 64.9038 12.236 64.9307 12.2022C65.3448 11.6791 66.0443 11.5749 66.3761 10.9718C66.4078 10.913 65.8576 10.5349 66.0132 10.3832C67.188 9.22473 68.524 8.62838 69.8205 7.56787C70.4457 7.05493 71.3485 5.86352 72.0626 5.3959C72.4561 5.13569 72.9365 4.91833 73.4366 4.71706C74.63 4.18745 75.8954 3.84119 76.6762 3.22795C77.4296 2.64697 76.9539 2.1739 77.1235 1.58889C77.2133 1.282 77.4351 1.11208 77.6691 1.05318C77.7848 1.02429 77.9134 1.01783 77.9597 1.06815C77.9677 1.10287 78.0103 1.11372 77.7806 1.2923C77.7284 1.3351 77.6071 1.41911 77.4388 1.55209C77.3772 1.60281 77.1904 1.74334 76.9681 1.95333C76.7265 2.25701 76.5131 2.14595 75.6849 3.77255C75.3622 4.59188 74.9676 5.68458 75.4847 7.51763C76.0159 9.21349 77.2084 10.1535 77.8952 10.5463C78.7331 11.0135 79.1834 11.0794 79.5198 11.1541C79.8331 11.2098 79.9001 11.2065 80.0371 11.217C80.1555 11.2234 80.2459 11.2233 80.3202 11.2211C79.9953 11.0549 80.143 10.8944 80.1372 10.7477C80.1582 10.6025 80.1619 10.4805 80.1609 10.4264C80.1628 10.4224 80.1379 10.3832 80.1331 10.3021C80.1307 10.221 80.1571 10.1 80.1369 9.93279C80.1107 9.23827 80.1499 10.4239 80.1609 10.4264C80.1635 10.3506 80.1768 10.2668 80.0435 10.2535C79.921 10.2375 79.6978 10.303 79.6497 10.3865C79.593 10.4785 79.8436 11.0427 79.8144 11.0784C79.0799 11.9308 77.8302 12.8244 76.3395 13.4617C76.3091 13.4668 75.9666 12.8681 75.899 12.8879C75.5547 12.9852 75.3348 13.177 75.163 13.4325C74.8525 13.8969 74.7503 14.5376 74.5131 15.1043C74.1437 15.9836 73.5436 16.2215 72.4447 15.5696C72.0411 16.0586 71.0255 16.1856 70.4269 16.2581C69.827 16.3309 70.6157 17.4184 70.5979 17.4665C70.0693 18.9913 68.9854 18.9052 67.8644 19.7614C67.3295 20.1649 66.529 21.2069 66.167 21.8012C66.0481 21.9947 65.903 22.1125 65.7615 22.2178C65.5578 22.3702 65.3567 22.5019 65.2528 22.7968C65.2286 22.8646 65.7199 23.2097 65.7237 23.2402C65.9056 24.1146 64.9773 22.9622 64.705 22.878C63.717 22.575 63.1428 22.4679 63.0301 23.3235C62.9989 23.5259 64.3632 25.1924 64.2931 25.4923C64.1925 25.8883 63.671 25.3267 63.5813 25.7603C63.5733 25.7971 63.9534 26.0629 63.7944 26.2509C63.0604 27.1292 62.1421 28.0625 61.5448 29.1762C61.4621 29.3268 62.2084 29.5092 62.101 29.7308C61.6749 30.6098 61.1506 31.555 60.4724 32.3881C60.3441 32.5474 60.2119 32.6998 60.0745 32.846C59.856 33.075 59.4877 32.6667 59.3213 32.6543C58.3109 32.5859 59.2392 33.7194 59.2193 33.8139C58.7723 36.0935 56.8909 37.1102 56.5949 39.2329C56.5793 39.3428 57.3842 40.3803 56.6949 40.4601C56.6048 40.4811 56.4908 40.4888 56.348 40.48C56.2631 40.4715 54.9391 40.396 55.6436 41.002C55.6884 41.0385 56.3781 41.0413 56.1838 41.3947C55.988 41.7539 56.2102 42.4731 55.3738 42.7839C55.1112 42.8776 53.7751 42.95 54.621 43.7098C54.6748 43.7756 56.712 45.0364 55.1236 44.9637C54.8625 44.9526 53.2419 44.5591 53.9527 45.3512C54.0921 45.5003 54.4964 45.361 54.6655 45.7092C54.9281 46.2366 54.383 46.7972 55.0352 47.487C55.1499 47.6111 56.212 48.1778 55.322 48.4224C55.1825 48.4621 54.6431 48.2929 54.56 48.4737C54.2809 49.08 54.341 49.7565 54.2517 50.4212C54.2101 50.7563 54.139 51.0738 54.003 51.3723C53.8426 51.7246 52.9604 51.478 52.695 51.833C52.4291 52.188 52.1573 52.895 52.5565 53.2564C52.9559 53.6108 54.3942 53.2984 54.4982 53.7701C54.778 55.0062 54.7029 55.826 54.6163 56.2561C54.7784 57.1674 54.9454 58.0602 55.23 58.8768C55.3402 59.19 55.7065 58.7428 55.9022 59.1776C56.642 60.8991 58.2784 62.5906 57.9912 63.6935C57.8711 64.7478 56.81 64.7071 57.0076 65.3402C57.095 65.5596 57.6851 65.0751 58.0163 64.6963C58.2436 64.5648 58.4157 64.4599 58.46 64.4683C59.822 64.7056 60.152 65.7864 61.1326 66.0994C61.3329 66.1616 61.4996 65.4793 61.6621 65.5358C62.2132 65.7192 62.5491 66.2378 62.9394 66.3582C63.1106 66.408 63.2928 65.9255 63.4019 66.0159C63.6617 66.2226 63.744 66.4717 63.7323 66.9635C63.7394 67.01 63.5083 67.615 63.6138 67.662C63.6857 67.6938 63.7095 67.8059 63.7101 67.8715C64.1625 67.9505 64.6315 67.9634 65.0672 67.6932C65.3105 67.5409 65.2903 66.3667 65.821 67.1635C65.9309 67.329 65.8516 68.7478 66.3967 67.5032C66.5036 67.2976 67.3393 65.602 67.8662 66.6151C68.0071 66.8829 68.4362 68.0025 68.6875 67.79C68.7195 67.757 68.5052 67.1463 68.7132 67.0595C69.4417 66.7641 70.201 66.7021 70.8099 66.3518C70.9677 66.2575 70.5649 65.6836 70.793 65.5653C71.4169 65.2402 72.1184 65.1566 72.5862 65.1419C72.7595 65.138 72.919 65.6656 72.9549 65.7135C73.6042 66.4539 73.0613 65.2672 73.0515 65.1842C73.052 65.1756 73.0525 65.1673 73.0531 65.1592C73.4177 64.4359 74.1274 64.6493 74.4237 64.2076C74.502 64.0882 74.035 63.6732 74.0207 63.6138C73.8662 63.042 74.4377 64.0096 74.6438 63.9934C75.2253 63.9475 75.4993 63.5726 75.5959 63.2982C75.6292 63.1993 74.9844 62.8728 75.01 62.8034C75.0991 62.4781 75.1195 62.4753 75.3711 62.2591C75.4657 61.9496 75.5696 61.6484 75.6839 61.3565C75.7895 61.0877 76.3179 61.3215 76.4493 61.2772C77.3696 60.9642 76.2265 60.2721 76.1216 60.1422C75.6463 59.5302 76.1446 59.3492 76.0716 58.8876C75.9978 58.4519 75.935 58.0348 75.8802 57.7789C75.8541 57.6546 75.8283 57.5708 75.8259 57.6012C75.8299 57.6361 75.8309 57.7739 76.0303 58.2434C76.0886 58.3589 75.9921 58.1323 75.8887 57.9436C75.7804 57.7406 75.6386 57.4998 75.4842 57.2588C75.1735 56.7729 74.802 56.2714 74.4231 55.8299C73.4481 54.7016 72.4332 53.6884 71.2285 52.8389C70.2902 52.1952 69.3146 51.6364 68.2926 51.2722C68.136 51.2163 68.0112 51.9572 67.8765 51.9198C67.0269 51.6681 66.2952 51.4278 65.8375 51.3341C65.3763 51.2216 65.2931 51.3479 65.8795 51.2542C65.9777 51.2311 66.0897 51.9385 66.2938 51.9037C66.3629 51.8909 66.4357 51.8699 66.5093 51.8408C66.3241 51.9967 66.093 52.0798 65.8328 52.0438C65.6795 52.0269 65.4398 51.4586 65.2821 51.4605C64.9074 51.4695 64.6543 51.6574 64.6283 51.8758C64.6239 51.9624 65.2451 52.3187 65.2127 52.3758C65.1382 52.5508 65.2451 52.4557 65.19 52.4409C65.0328 53.46 64.8626 54.4587 64.5276 55.5095C64.4854 55.6339 63.0861 56.0219 63.4209 56.2533C63.8166 56.1861 64.276 56.0801 64.6954 55.9931C64.9408 56.738 65.1905 57.3745 65.4742 57.9413C65.5585 58.13 65.4933 57.9961 65.1396 57.7416C64.7914 57.4824 64.3026 57.3466 64.2659 57.3862C64.4355 57.5498 65.9378 57.6973 66.3072 57.6496C66.3459 57.6454 66.3807 57.6414 66.4128 57.6374C66.4867 57.6281 66.2496 56.8926 66.363 56.8749C66.5555 56.8477 66.2667 56.8359 65.7068 57.1659C65.1449 57.4871 64.6856 58.0766 64.6507 58.28C64.8344 58.1195 65.0966 57.9179 65.4663 57.7178C65.5607 57.6649 66.8345 58.1208 66.7219 57.7647C66.7056 57.6998 66.6184 57.2345 66.3339 57.1116C66.2913 57.0961 65.6621 57.0664 65.6556 56.9693C65.6339 56.61 65.6471 56.3698 65.7104 56.0919C65.731 56.0185 65.7615 55.9914 65.8671 56.0968C65.9864 56.2024 66.127 56.456 66.751 57.0123C67.3858 57.5175 67.1957 56.4451 67.6512 56.771C68.0819 57.0643 68.8082 57.4376 69.6476 57.5539C70.4854 57.6802 71.2514 57.528 71.7047 57.3631C72.3269 57.1269 72.4169 57.0074 72.4657 56.9888C72.4994 56.9674 72.4337 57.0232 72.339 57.1019C72.1413 57.264 71.8149 57.5131 71.3717 57.6835C70.5532 58.0152 69.8497 57.0589 68.679 56.6882C68.5133 56.6362 68.1446 57.0497 67.6108 56.6568C66.2685 55.6679 65.0246 54.306 63.5739 53.2766C63.2594 53.057 63.1026 53.9066 62.6662 52.9763C62.6364 52.9145 62.751 52.2853 62.6009 51.9739C62.4964 51.7592 61.8594 51.4743 61.7753 51.1387C61.6936 50.8011 62.2746 50.9826 62.2607 50.4921C62.254 49.9906 61.54 49.6381 62.02 48.9534ZM67.7365 16.6373C66.9509 16.4628 68.4412 18.29 68.4586 17.5322C68.4577 17.4934 67.7758 16.6453 67.7365 16.6373ZM55.7268 40.352C56.7304 39.611 55.1976 39.1707 54.4072 39.6995C53.6219 40.2543 55.4244 40.5905 55.7268 40.352ZM59.3936 47.6161C59.3239 46.4525 56.8443 48.7044 58.1185 48.9545C58.1921 48.9683 59.4014 47.6858 59.3936 47.6161ZM69.7941 54.917C69.7683 54.8969 69.5018 55.1346 69.5185 55.1638C69.9466 55.8009 70.45 55.3548 69.7941 54.917ZM66.9368 48.6517C66.6802 48.2093 65.9735 48.7294 66.2804 49.2921C66.5432 49.7476 67.2676 49.2054 66.9368 48.6517ZM51.41 35.8933C51.3745 35.886 51.2267 36.136 51.4101 36.2125C52.0014 36.4559 52.001 36.0209 51.41 35.8933ZM78.3389 45.863C76.7017 46.5218 74.7192 44.3543 76.4398 43.9201C76.7576 43.8342 76.1794 45.0118 76.6578 45.0645C77.5539 45.1487 77.2404 43.3668 78.3616 43.845C78.5666 43.9328 78.4368 45.8309 78.3379 45.8678C78.3382 45.8662 78.3386 45.8646 78.3389 45.863ZM65.6806 14.6708C65.6526 14.6534 65.3285 14.8949 65.3419 14.9246C65.6708 15.6298 66.3156 15.1503 65.6806 14.6708ZM46.3485 52.1429C46.2787 52.16 46.1726 53.1186 46.2357 53.1539C47.437 53.6789 47.6492 51.8016 46.3485 52.1429ZM73.9211 12.5874C74.0673 13.4435 73.7341 13.8387 72.8601 13.3403C73.221 13.1005 73.558 12.828 73.9211 12.5874Z" fill="#1340FF"/>
</svg>
