<svg width="385" height="15" viewBox="0 0 385 15" fill="none" xmlns="http://www.w3.org/2000/svg">
<path d="M5.08475 0.861727C6.78068 0.978402 9.52762 1.34613 11.585 1.69378C12.2062 1.80046 11.87 2.1 12.3121 2.18775C13.2244 2.36059 14.0053 2.24159 14.9153 2.4287C15.2173 2.49214 14.816 2.97915 15.135 3.03415C16.7721 3.32646 18.383 3.25453 20.1321 3.41446C28.5553 4.18982 36.9702 4.46909 45.5948 4.76029C48.437 4.85494 51.864 5.32848 54.8594 5.13778C55.1942 5.11503 54.9961 4.67221 55.0599 4.63596C56.0648 4.08104 55.7288 4.97273 56.3903 5.09316C59.0772 5.56869 61.965 5.61333 64.5737 5.44357C65.6485 5.3726 64.6449 4.55236 65.5843 4.93746C65.6167 4.95154 65.6516 4.96722 65.6891 4.9846C65.763 5.01792 65.4947 5.48748 65.7847 5.53759C66.4406 5.65033 67.7068 5.56606 68.2313 5.60296C69.2408 5.67647 69.4097 5.67161 70.3796 5.67607C71.745 5.68616 73.223 5.91753 74.6324 5.80863C74.9313 5.78399 74.5343 5.30332 75.0115 5.22054C75.4878 5.13792 76.7642 5.17615 77.1999 5.28864C77.6343 5.40121 77.4504 5.77997 77.5275 5.86652C78.1883 6.59706 79.5909 5.57978 79.7853 5.55418C83.1889 5.11813 86.17 5.68578 89.3728 5.67214C91.8659 5.66031 94.4182 5.45902 96.761 5.47475C99.5834 5.49518 101.866 5.74513 104.58 5.68672C104.865 5.68111 104.528 5.11681 104.877 5.10881C108.616 5.02412 112.205 5.0665 115.916 5.42775C116.281 5.46451 115.814 5.96408 116.179 6.03053C118.407 6.42644 122.001 7.38658 123.339 5.21498C124.849 5.29055 126.695 5.36677 128.066 5.7946C128.951 6.06994 128.096 6.6165 129.18 6.37891C129.425 6.32595 129.103 5.8538 129.471 5.81023C131.027 5.62718 132.697 5.77101 134.213 5.51664C134.522 5.46378 134.435 5.0395 134.522 4.96247C135.253 4.33839 136.489 5.35479 136.758 5.42752C138.807 5.96963 140.308 5.74176 142.192 5.74336C142.631 5.74395 142.109 5.17665 142.531 5.15672C144.721 5.06103 147.02 5.09536 149.174 5.33473C149.651 5.38936 149.216 5.87823 149.444 5.9292C150.451 6.14804 150.668 5.22859 151.635 5.42072C151.839 5.46005 151.727 5.87688 151.765 5.92234C152.351 6.63595 152.851 5.61625 153.001 5.59284C154.893 5.27401 156.128 6.3272 157.954 6.16516C158.172 6.1447 157.676 5.6214 158.29 5.59609C162.376 5.42438 166.74 5.54087 170.794 5.9361C171.426 5.99683 170.978 6.39522 171.018 6.44372C171.671 7.20137 172.084 6.17799 172.29 6.13823C173.915 5.85116 175.442 6.6975 176.534 5.47481C183.415 5.85325 190.263 5.12826 197.094 6.17734C197.181 6.18945 197.029 6.69306 197.202 6.71505C199.287 6.98511 198.883 6.20618 200.256 5.24266C200.602 5.00071 201.664 6.1483 201.758 6.23233C202.101 6.54199 201.752 7.2919 201.866 7.3516C202.814 7.82009 202.646 5.34766 203.921 5.33964C203.961 5.34354 203.796 5.79973 203.903 5.84439C204.236 5.98462 204.564 5.80187 204.89 5.95675C205.636 6.31519 205.908 7.5155 207.04 6.80976C207.183 6.71819 206.956 5.31643 208.092 5.37644C208.547 5.40154 210.546 5.36661 211.113 5.4545C211.676 5.54229 211.292 5.99647 211.332 6.01583C212.852 6.60554 212.278 6.85639 213.042 7.73744C213.806 8.61517 213.584 6.51324 213.892 6.27688C214.201 6.04118 215.313 6.52864 215.586 6.6987C215.86 6.86884 215.522 7.15788 215.764 7.25369C217.373 7.87965 216.463 6.20618 216.991 5.86968C218.235 5.07294 219.204 6.62773 220.355 6.77484C220.666 6.81457 220.411 6.46062 220.687 6.42603C221.779 6.29377 222.439 6.7772 223.678 6.32504C223.881 6.25135 224.879 5.30887 225.53 5.99398C225.622 6.09278 225.363 6.48266 225.828 6.56755C226.522 6.69495 227.766 6.77417 228.512 6.64089C229.065 6.54227 228.427 5.90471 229.125 6.10052C229.435 6.18796 228.863 6.56518 229.445 6.69821C230.024 6.8312 231.501 6.80825 232.061 6.79292C232.621 6.77729 232.312 6.29282 232.357 6.2599C232.63 6.07124 233.702 5.83245 233.797 5.83264C238.556 5.75334 242.997 6.5555 247.654 6.26948C248.021 6.24774 247.775 5.73625 247.831 5.72766C249.086 5.50904 248.101 6.87417 248.979 7.32732C248.849 6.28817 249.367 6.47476 250.248 6.35811C250.672 6.30106 250.44 5.89923 250.478 5.85791C251.106 5.24466 251.546 6.03309 251.659 6.1943C252.076 6.78735 252.526 6.08394 252.809 6.48036C253.092 6.87382 252.445 7.46004 253.285 7.45025C253.519 7.07748 252.894 6.10672 253.531 5.94738C255.959 5.34439 260.5 6.09719 262.417 6.17318C264.377 6.24883 265.009 6.17928 266.144 6.31211C268.19 6.55247 267.439 5.832 268.703 5.50024C269.968 5.16865 269.354 6.94457 269.537 7.326C269.715 7.70727 269.909 7.31441 270.131 7.5239C270.351 7.73334 269.875 7.99327 270.393 8.0715C270.911 8.14963 272.368 7.46991 272.552 7.07079C272.947 6.22517 272.298 5.33824 273.692 5.64924C273.772 5.6677 273.512 6.13462 273.819 6.18164C276.26 6.53982 278.726 6.56209 281.193 6.88134C281.528 6.92597 281.228 7.44508 281.423 7.47693C283.448 7.81046 282.724 6.93441 283.829 5.96274C283.58 7.25694 284.193 8.0493 285.707 8.05888C286.612 8.06514 286.467 7.49963 287.07 7.10208C287.252 6.98224 287.911 7.37149 288.03 7.10584C288.424 6.23746 287.81 5.26336 289.398 5.65376C289.468 5.67231 289.245 6.1476 289.486 6.17688C291.037 6.36864 291.224 5.45998 292.881 5.35412C294.155 5.27096 296.568 5.83279 298.043 5.92861C298.007 7.38374 299.412 7.0559 299.979 6.05494C300.918 6.09994 302.005 6.04816 302.948 6.19152C303.273 6.24042 303.057 6.6607 303.098 6.70643C303.724 7.42374 304.151 6.44979 304.361 6.41263C306.628 6.05274 308.442 6.80385 310.651 6.09652C310.728 6.07104 310.861 5.06103 311.435 5.80341C311.472 5.85458 310.754 6.30917 311.771 6.35234C312.795 6.39563 314.645 6.95254 316.119 6.49769C316.467 6.38808 317.349 5.57565 318.035 6.2237C318.127 6.31168 318.023 6.60059 318.154 6.76324C318.579 7.28159 318.824 6.26225 319.315 7.13547C319.606 7.65345 320.087 8.09677 320.717 8.25008C321.176 8.35552 321.709 8.32465 322.3 8.08804C322.347 8.07118 322.699 7.26546 323.151 7.28382C323.872 7.31379 324.879 7.49554 325.61 7.50026C325.96 7.50223 325.743 6.99634 325.804 6.98797C328.206 6.73945 329.966 7.21487 332.488 7.45395C332.976 7.49918 334.372 6.83903 335.267 7.39915C336.25 8.01264 335.176 10.4592 337.462 9.91907C338.424 9.70451 339.701 6.59986 341.296 8.26255C344.576 7.94192 347.575 8.86028 350.784 8.39976C350.936 8.37972 351.445 7.52333 351.794 7.54821C352.312 7.58682 352.576 8.00583 352.937 8.04675C354.393 8.22642 355.912 7.94097 357.329 8.06173C357.877 8.10734 357.637 8.51867 358.333 8.57609C359.017 8.63299 359.498 8.10012 360.369 8.41571C361.001 8.65476 361.668 9.83055 362.558 10.0166C362.666 8.89982 363.255 8.9568 364.381 8.73362C364.604 8.69074 364.394 8.28573 364.501 8.24536C364.938 8.07249 365.299 8.42137 365.699 8.22993C365.797 8.18405 365.828 7.80229 365.909 7.74324C366.575 7.2242 367.633 8.16946 367.804 8.33411C368.48 8.95957 368.814 8.48798 369.35 8.75971C369.896 9.03306 369.028 9.2378 369.673 9.43167C370.973 9.83004 372.624 9.93623 373.975 10.1243C374.502 10.1957 374.207 9.64304 374.284 9.64148C375.373 9.64874 376.374 10.3519 377.194 9.46158C377.474 12.191 377.909 9.30683 379.368 10.1795C379.487 10.2525 379.339 11.4962 378.834 11.5643C378.38 11.6445 377.712 11.1108 377.064 11.2871C376.903 11.3244 375.827 12.3309 375.724 12.3885C374.751 12.7998 374.826 10.9373 374.802 10.8298C374.436 9.66441 373.111 10.77 372.855 10.8297C371.531 11.0793 370.458 10.7131 369.309 10.8964C368.55 11.0144 368.424 12.2276 367.866 12.1444C365.954 11.8691 365.511 10.1351 363.595 11.488C363.204 11.7789 363.507 13.1309 362.221 12.004C362.155 11.9336 361.129 10.9141 360.552 11.4901C360.477 11.5626 360.458 11.9504 360.363 11.9779C359.722 12.1546 359.31 11.8233 358.584 11.9353C357.831 12.0461 357.021 12.2288 356.223 12.0612C355.745 11.9608 355.141 11.2107 354.908 11.0236C354.227 10.4841 353.546 11.2939 353.16 10.6605C352.777 10.0241 353.614 9.1129 352.555 8.67041C352.476 9.67688 352.345 10.708 352.242 11.7193C349.799 11.5912 347.555 11.1921 345.186 11.1683C344.896 11.1665 345.177 11.7171 344.865 11.7292C343.571 11.7785 342.292 11.3581 340.986 11.48C339.937 11.5755 338.749 12.1223 337.595 12.242C336.902 11.0723 335.32 11.4315 334.093 11.3029C333.668 11.2584 333.702 10.9508 333.398 10.8445C332.248 10.4515 332.771 11.4813 332.45 11.6361C331.091 12.2974 331.063 9.98764 329.488 10.0193C329.406 10.0202 328.363 11.2348 328.218 11.3093C327.305 11.7955 328.076 10.8788 327.508 10.7794C326.443 10.5976 325.798 10.2947 324.604 10.6394C324.258 10.7417 323.417 11.498 322.74 10.8965C322.65 10.8177 322.705 10.4116 322.633 10.3869C321.434 10.0092 321.284 11.0464 320.68 11.5507C320.627 11.5977 320.57 11.6402 320.508 11.6764C319.784 12.1011 318.662 11.2071 318.432 10.9506C317.833 10.2866 318.899 10.6741 318.931 10.6099C319.322 9.84567 318.497 9.96933 317.86 9.89816C317.781 8.64401 316.884 8.71061 317.198 9.82946C317.234 9.95168 317.733 9.83963 317.86 9.89816C317.288 11.1222 316.303 11.2702 315.206 10.1115C314.704 9.56856 315.146 8.94418 313.645 9.16138C312.956 9.25946 313.215 10.1245 312.603 10.355C311.206 10.8807 309.365 10.0627 307.873 10.1801C307.356 10.2229 307.856 10.6985 307.503 10.744C306.563 10.8664 305.73 10.5071 304.77 10.6834C304.683 10.7 304.893 11.1956 304.594 11.2003C302.321 11.2456 300.321 10.9198 297.985 10.9023C296.85 10.8939 294.775 11.1599 293.58 11.1019C291.564 11.0041 289.038 10.2798 287.258 10.4517C286.096 10.5618 286.351 11.0568 285.866 11.3931C284.934 12.045 283.269 10.8733 283.043 10.692C283.037 10.686 284.018 10.5703 283.495 10.3159C283.191 9.78664 283.054 10.6897 283.043 10.692C282.897 10.5747 280.926 10.4611 280.53 10.5555C280.316 10.6071 280.436 11.0757 280.324 11.0938C277.643 11.512 275.094 11.6314 272.389 11.4141C272.342 11.4047 272.413 10.8805 272.301 10.8649C270.733 10.6329 269.764 11.2751 268.497 11.6572C267.231 12.0392 266.219 11.9132 265.461 11.0145C264.499 11.1292 263.101 10.7338 262.307 10.4939C261.521 10.254 261.412 11.2745 261.343 11.2948C259.181 11.9447 257.922 11.3635 255.649 11.2783C254.556 11.236 252.449 11.3897 251.287 11.5047C250.371 11.5973 249.816 11.3598 248.968 11.5153C248.853 11.5361 248.971 11.99 248.936 12.0076C247.99 12.5541 248.442 11.4421 248.245 11.2444C247.533 10.5254 247.093 10.1426 245.874 10.486C245.592 10.5647 244.793 12.1664 244.286 12.2617C243.628 12.3827 243.875 11.8086 243.185 11.9499C243.126 11.9615 243.139 12.315 242.713 12.301C240.735 12.2404 238.552 12.0429 236.49 12.0867C236.209 12.0913 236.571 12.6507 236.166 12.6666C234.265 12.7408 232.172 12.729 230.304 12.4747C229.844 12.4104 230.131 12.0164 230.03 11.9002C229.415 11.1974 228.549 12.2264 228.406 12.2466C225.016 12.7547 222.396 11.8395 218.919 12.2987C218.731 12.3255 217.285 13.4318 216.631 12.4927C216.586 12.4302 215.94 11.4693 215.375 12.1315C215.34 12.1729 215.743 12.6672 215.044 12.6203C214.345 12.5734 213.222 12.9108 212.257 12.3706C211.952 12.2004 211.225 11.2424 210.323 12.014C210.264 12.0678 208.876 13.8091 208.37 12.6157C208.288 12.4193 208.366 11.153 207.288 11.808C207.082 11.9349 207.459 12.2152 206.915 12.3945C206.082 12.6708 204.974 12.338 203.95 12.9077C203.772 13.0085 203.014 13.872 202.399 13.2234C202.302 13.1218 202.482 12.6982 202.158 12.6527C200.622 12.4346 199.019 12.7266 197.459 12.4434C196.906 12.3439 197.184 11.659 196.608 11.4793C196.032 11.2997 194.871 11.1305 194.271 11.4463C193.67 11.7622 194.335 12.8471 193.433 12.9396C189.51 13.3415 185.629 12.7265 181.706 12.6575C181.125 12.6472 181.609 13.0338 180.753 13.0466C177.598 13.0952 172.149 13.4951 169.406 12.6848C167.21 12.0358 169.965 11.5133 168.289 11.2542C167.48 11.1307 166.616 12.4021 166.421 12.4432C164.514 12.8603 163.177 12.3082 161.462 12.4913C161.107 12.5293 161.458 13.0401 161.157 13.0667C160.127 13.1624 159.044 12.9403 158.064 12.9885C157.624 13.0114 157.707 13.4027 157.302 13.3751C156.324 13.3135 155.459 13.1544 154.506 12.7932C154.419 12.7603 155 12.2691 154.278 12.2556C153.111 12.2352 151.662 11.8822 150.329 12.2649C149.934 12.38 149.924 13.2757 149.069 12.6627C148.888 12.5347 149.117 11.4578 148.121 12.3934C147.953 12.5489 146.279 13.8129 145.452 13.0103C145.234 12.7991 144.674 11.9226 144.197 12.064C144.132 12.0864 144.395 12.5658 143.999 12.6153C142.602 12.7812 141.15 12.7391 139.719 12.8988C139.333 12.9424 139.911 13.4366 139.336 13.4857C137.754 13.6215 135.787 13.507 134.256 13.3607C133.691 13.3059 134.079 12.8911 134.037 12.8465C133.373 12.1207 132.989 13.1083 132.771 13.167C131.425 13.5193 130.356 13.0631 129.093 13.1933C128.744 13.2279 128.995 13.6962 128.925 13.7385C128.207 14.1521 128.739 13.3053 128.282 13.215C127.004 12.9595 125.588 13.0057 124.31 13.0733C123.841 13.0989 124.372 13.6404 123.951 13.657C121.437 13.7658 118.792 13.729 116.365 13.4424C115.907 13.3875 116.192 12.9664 116.096 12.8712C115.441 12.2046 114.466 13.1243 114.239 13.2126C113.213 13.6159 112.814 13.2472 111.913 13.3213C107.554 13.6898 102.105 13.4717 97.966 13.3385C92.5594 13.1676 88.3707 12.7851 83.2181 12.9046C82.8875 12.9117 83.2224 13.4686 82.9377 13.4819C79.3124 13.6273 75.657 13.4177 72.0814 13.5835C71.789 13.5961 72.2109 14.1246 71.742 14.1626C70.7264 14.2443 69.4586 14.2167 68.4632 14.0484C67.9777 13.9672 68.6283 13.513 68.1401 13.4406C67.3036 13.3157 66.4334 13.2624 65.5833 13.2767C65.2603 13.2819 64.94 13.2956 64.6249 13.3178C64.1164 13.3549 64.8829 13.8962 64.2227 13.9021C59.7862 13.9536 55.56 14.0383 51.0036 13.3174C50.7014 13.268 50.4405 12.1673 49.8056 12.375C49.7564 12.6799 49.7572 13.0389 49.7348 13.3649C43.3053 13.5079 36.9432 13.0742 30.4562 12.9103C30.1837 12.9035 30.6445 13.4937 30.1179 13.4834C27.0882 13.4242 24.0906 13.5245 20.9704 12.8581C20.6637 12.7926 20.842 11.7729 19.9481 11.9015C19.8288 11.9267 18.3612 12.0173 18.0208 12.2278C17.972 12.2597 18.2036 12.7462 17.7651 12.7452C15.1597 12.7277 12.4417 12.5043 9.83244 12.0438C9.42129 11.9688 9.89423 11.4893 9.6042 11.4314C7.49084 11.0124 5.12183 11.2353 2.86181 10.3566C1.29822 9.70704 2.07446 8.97572 1.46202 7.86823C1.43253 7.7909 1.12668 7.64486 0.83515 7.38125C0.544388 7.13397 0.260734 6.66998 0.430061 6.46661C0.84219 5.97389 1.45376 5.66476 1.92399 5.17684C2.41462 4.71091 2.77373 4.11377 3.29907 3.67608C3.35349 3.62885 3.46702 3.67543 3.6142 3.82504C3.75851 3.96427 3.90216 4.22318 3.95307 4.30298C4.01025 4.39215 4.01654 4.30358 4.08442 4.27019C4.14095 4.20855 4.31504 4.36336 4.4067 4.10336C4.41106 4.08597 4.40319 3.98627 4.32542 3.77974C4.24513 3.56515 4.07323 3.27026 3.91405 3.06122C3.56914 2.63069 3.51888 2.52924 3.54044 2.39666C3.56267 2.22596 3.86424 1.79758 3.83934 1.55728C3.8375 1.33022 3.78827 1.77667 4.10944 1.5964C4.26569 1.50336 4.36341 1.30992 4.478 1.14341C4.58865 0.97529 4.72308 0.83799 5.08475 0.861727ZM258.751 9.42231C258.015 8.93398 257.911 10.7288 258.704 10.2977C258.743 10.2747 258.789 9.44626 258.751 9.42231ZM347.617 9.84272C346.663 9.02079 345.948 10.1642 346.625 10.7961C347.304 11.4277 347.904 10.0919 347.617 9.84272ZM357.549 9.64926C356.489 8.97493 356.2 11.5093 357.39 11.0495C357.458 11.0237 357.61 9.68845 357.549 9.64926ZM5.09574 8.36593C5.0833 8.34136 4.50483 8.24147 4.46813 8.25895C4.06085 8.77954 5.28462 8.98947 5.09574 8.36593ZM367.442 9.6192C367.102 9.24673 366.075 9.56962 366.469 10.0279C366.781 10.3956 367.855 10.081 367.442 9.6192ZM220.39 7.65065C220.379 7.62397 219.951 7.60201 219.96 7.75313C219.992 8.23984 220.586 8.09949 220.39 7.65065ZM382.522 12.919C382.673 12.3672 381.772 11.3353 381.649 10.7397C381.528 10.1992 381.928 9.59253 383.454 10.8186C383.722 11.0906 383.295 10.9096 382.926 10.8837C382.572 10.8648 382.242 10.9174 382.497 11.1808C382.912 11.661 383.531 11.8598 383.869 12.6126C384.178 13.3539 384.01 14.1091 383.465 14.4844C383.361 14.5585 383.178 14.1353 382.993 13.6926C382.816 13.232 382.52 12.937 382.519 12.9166C382.52 12.9174 382.521 12.9182 382.522 12.919ZM258.323 7.26775C258.308 7.24405 257.718 7.22289 257.704 7.24646C257.385 7.81691 258.575 7.85985 258.323 7.26775ZM195.518 6.67736C195.486 6.62698 194.116 6.58781 194.072 6.63468C193.363 7.57055 196.132 7.65249 195.518 6.67736ZM298.066 5.96752C298.71 5.39677 299.474 5.33234 299.976 6.05419C299.346 6.01334 298.707 6.00518 298.066 5.96752Z" fill="#5E2285"/>
</svg>
