<svg width="25" height="25" viewBox="0 0 25 25" fill="none" xmlns="http://www.w3.org/2000/svg">
<g clip-path="url(#clip0_8661_165757)">
<path d="M12.0957 6.48047C13.1957 6.48047 14.0957 7.38047 14.0957 8.48047C14.0957 9.58047 13.1957 10.4805 12.0957 10.4805C10.9957 10.4805 10.0957 9.58047 10.0957 8.48047C10.0957 7.38047 10.9957 6.48047 12.0957 6.48047ZM12.0957 16.4805C14.7957 16.4805 17.8957 17.7705 18.0957 18.4805H6.0957C6.3257 17.7605 9.4057 16.4805 12.0957 16.4805ZM12.0957 4.48047C9.8857 4.48047 8.0957 6.27047 8.0957 8.48047C8.0957 10.6905 9.8857 12.4805 12.0957 12.4805C14.3057 12.4805 16.0957 10.6905 16.0957 8.48047C16.0957 6.27047 14.3057 4.48047 12.0957 4.48047ZM12.0957 14.4805C9.4257 14.4805 4.0957 15.8205 4.0957 18.4805V20.4805H20.0957V18.4805C20.0957 15.8205 14.7657 14.4805 12.0957 14.4805Z" fill="white"/>
</g>
<defs>
<clipPath id="clip0_8661_165757">
<rect width="24" height="24" fill="white" transform="translate(0.0957031 0.480469)"/>
</clipPath>
</defs>
</svg>
