<svg width="25" height="25" viewBox="0 0 25 25" fill="none" xmlns="http://www.w3.org/2000/svg">
<g clip-path="url(#clip0_8661_165765)">
<path d="M6.6357 5.48047C6.6957 6.37047 6.8457 7.24047 7.0857 8.07047L5.8857 9.27047C5.4757 8.07047 5.2157 6.80047 5.1257 5.48047H6.6357ZM16.4957 17.5005C17.3457 17.7405 18.2157 17.8905 19.0957 17.9505V19.4405C17.7757 19.3505 16.5057 19.0905 15.2957 18.6905L16.4957 17.5005ZM7.5957 3.48047H4.0957C3.5457 3.48047 3.0957 3.93047 3.0957 4.48047C3.0957 13.8705 10.7057 21.4805 20.0957 21.4805C20.6457 21.4805 21.0957 21.0305 21.0957 20.4805V16.9905C21.0957 16.4405 20.6457 15.9905 20.0957 15.9905C18.8557 15.9905 17.6457 15.7905 16.5257 15.4205C16.4257 15.3805 16.3157 15.3705 16.2157 15.3705C15.9557 15.3705 15.7057 15.4705 15.5057 15.6605L13.3057 17.8605C10.4757 16.4105 8.1557 14.1005 6.7157 11.2705L8.9157 9.07047C9.1957 8.79047 9.2757 8.40047 9.1657 8.05047C8.7957 6.93047 8.5957 5.73047 8.5957 4.48047C8.5957 3.93047 8.1457 3.48047 7.5957 3.48047Z" fill="white"/>
</g>
<defs>
<clipPath id="clip0_8661_165765">
<rect width="24" height="24" fill="white" transform="translate(0.0957031 0.480469)"/>
</clipPath>
</defs>
</svg>
