<svg width="25" height="25" viewBox="0 0 25 25" fill="none" xmlns="http://www.w3.org/2000/svg">
<g clip-path="url(#clip0_8661_165773)">
<path d="M14.0957 6.48047V4.48047H10.0957V6.48047H14.0957ZM4.0957 8.48047V19.4805H20.0957V8.48047H4.0957ZM20.0957 6.48047C21.2057 6.48047 22.0957 7.37047 22.0957 8.48047V19.4805C22.0957 20.5905 21.2057 21.4805 20.0957 21.4805H4.0957C2.9857 21.4805 2.0957 20.5905 2.0957 19.4805L2.1057 8.48047C2.1057 7.37047 2.9857 6.48047 4.0957 6.48047H8.0957V4.48047C8.0957 3.37047 8.9857 2.48047 10.0957 2.48047H14.0957C15.2057 2.48047 16.0957 3.37047 16.0957 4.48047V6.48047H20.0957Z" fill="white"/>
</g>
<defs>
<clipPath id="clip0_8661_165773">
<rect width="24" height="24" fill="white" transform="translate(0.0957031 0.480469)"/>
</clipPath>
</defs>
</svg>
