<svg width="24" height="28" viewBox="0 0 24 28" fill="none" xmlns="http://www.w3.org/2000/svg">
<g id="Group">
<path id="Vector" d="M23.2287 26.2623C20.3974 27.2361 17.569 27.6091 14.6986 26.6095C14.0964 26.3994 13.542 26.0522 12.9649 25.7692C10.8544 24.735 8.7374 23.7133 6.63435 22.6644C5.15566 21.9272 3.99394 20.8046 3.04082 19.477C-1.96063 12.5118 1.72504 2.9652 9.98021 1.10172C13.1749 0.380806 16.1751 0.963879 18.943 2.72121C19.0285 2.77576 19.1229 2.82367 19.1929 2.89517C20.5264 4.24634 21.8569 5.60046 23.228 6.99511V26.2623H23.2287ZM17.2808 3.45245C13.2236 1.41722 7.80418 2.32463 4.67063 6.4629C1.60267 10.5149 2.02284 16.2115 5.64438 19.8139C9.24012 23.3912 14.3647 23.319 17.2675 21.6928V15.7508C15.1468 18.3507 11.5791 18.3905 9.44947 16.3471C7.42898 14.4092 7.328 11.1658 9.21211 9.05172C11.0004 7.04524 14.8866 6.4371 17.2808 9.40628V3.45245Z" fill="#231F20"/>
<path id="Vector_2" d="M17.2808 3.45243V9.40627C14.8866 6.43709 11.0004 7.04522 9.21211 9.0517C7.32799 11.1658 7.42898 14.4092 9.44946 16.3471C11.579 18.3897 15.1468 18.3507 17.2675 15.7508V21.6928C14.3654 23.3189 9.24012 23.3912 5.64438 19.8139C2.02284 16.2115 1.60267 10.5149 4.67062 6.46289C7.80418 2.32461 13.2229 1.4172 17.2808 3.45243Z" fill="#F4F4F4"/>
</g>
</svg>
