<svg width="38" height="38" viewBox="0 0 38 38" fill="none" xmlns="http://www.w3.org/2000/svg">
<mask id="mask0_10493_7214" style="mask-type:alpha" maskUnits="userSpaceOnUse" x="0" y="0" width="38" height="38">
<rect width="38" height="38" fill="#D9D9D9"/>
</mask>
<g mask="url(#mask0_10493_7214)">
<path d="M12.75 22.2498H16.25V17.4373H19.75V22.2498H23.25V13.9373L18 10.4373L12.75 13.9373V22.2498ZM18 33.3623C21.5583 30.0956 24.1979 27.1279 25.9188 24.4591C27.6396 21.7904 28.5 19.4206 28.5 17.3498C28.5 14.1706 27.4865 11.5675 25.4594 9.54038C23.4323 7.5133 20.9458 6.49976 18 6.49976C15.0542 6.49976 12.5677 7.5133 10.5406 9.54038C8.51354 11.5675 7.5 14.1706 7.5 17.3498C7.5 19.4206 8.36042 21.7904 10.0813 24.4591C11.8021 27.1279 14.4417 30.0956 18 33.3623ZM18 37.9998C13.3042 34.0039 9.79688 30.2925 7.47813 26.8654C5.15938 23.4383 4 20.2664 4 17.3498C4 12.9748 5.40729 9.48934 8.22188 6.89351C11.0365 4.29767 14.2958 2.99976 18 2.99976C21.7042 2.99976 24.9635 4.29767 27.7781 6.89351C30.5927 9.48934 32 12.9748 32 17.3498C32 20.2664 30.8406 23.4383 28.5219 26.8654C26.2031 30.2925 22.6958 34.0039 18 37.9998Z" fill="white"/>
</g>
</svg>
