<svg width="38" height="38" viewBox="0 0 38 38" fill="none" xmlns="http://www.w3.org/2000/svg">
<mask id="mask0_10493_7224" style="mask-type:alpha" maskUnits="userSpaceOnUse" x="0" y="0" width="38" height="38">
<rect width="38" height="38" fill="#D9D9D9"/>
</mask>
<g mask="url(#mask0_10493_7224)">
<path d="M6.33317 31.6666C5.46234 31.6666 4.71685 31.3565 4.09671 30.7364C3.47657 30.1162 3.1665 29.3708 3.1665 28.4999V9.49992C3.1665 8.62909 3.47657 7.8836 4.09671 7.26346C4.71685 6.64332 5.46234 6.33325 6.33317 6.33325H31.6665C32.5373 6.33325 33.2828 6.64332 33.903 7.26346C34.5231 7.8836 34.8332 8.62909 34.8332 9.49992V28.4999C34.8332 29.3708 34.5231 30.1162 33.903 30.7364C33.2828 31.3565 32.5373 31.6666 31.6665 31.6666H6.33317ZM18.9998 20.5833L6.33317 12.6666V28.4999H31.6665V12.6666L18.9998 20.5833ZM18.9998 17.4166L31.6665 9.49992H6.33317L18.9998 17.4166ZM6.33317 12.6666V9.49992V28.4999V12.6666Z" fill="white"/>
</g>
</svg>
