<svg width="38" height="38" viewBox="0 0 38 38" fill="none" xmlns="http://www.w3.org/2000/svg">
<mask id="mask0_10493_7299" style="mask-type:alpha" maskUnits="userSpaceOnUse" x="0" y="0" width="38" height="38">
<path d="M0 0H38V38H0V0Z" fill="#D9D9D9"/>
</mask>
<g mask="url(#mask0_10493_7299)">
<path d="M31.5875 33.25C28.2889 33.25 25.0299 32.5309 21.8104 31.0927C18.591 29.6545 15.6618 27.616 13.0229 24.9771C10.384 22.3382 8.34549 19.409 6.90729 16.1896C5.4691 12.9701 4.75 9.71111 4.75 6.4125C4.75 5.9375 4.90833 5.54167 5.225 5.225C5.54167 4.90833 5.9375 4.75 6.4125 4.75H12.825C13.1944 4.75 13.5243 4.87535 13.8146 5.12604C14.1049 5.37674 14.2764 5.67361 14.3292 6.01667L15.3583 11.5583C15.4111 11.9806 15.3979 12.3368 15.3188 12.6271C15.2396 12.9174 15.0944 13.1681 14.8833 13.3792L11.0438 17.2583C11.5715 18.2347 12.1983 19.1781 12.924 20.0885C13.6497 20.999 14.4479 21.8764 15.3188 22.7208C16.1368 23.5389 16.9944 24.2976 17.8917 24.9969C18.7889 25.6962 19.7389 26.3361 20.7417 26.9167L24.4625 23.1958C24.7 22.9583 25.0101 22.7802 25.3927 22.6615C25.7753 22.5427 26.1514 22.5097 26.5208 22.5625L31.9833 23.6708C32.3528 23.7764 32.6562 23.9677 32.8937 24.2448C33.1313 24.5219 33.25 24.8319 33.25 25.175V31.5875C33.25 32.0625 33.0917 32.4583 32.775 32.775C32.4583 33.0917 32.0625 33.25 31.5875 33.25ZM9.53958 14.25L12.1521 11.6375L11.4792 7.91667H7.95625C8.08819 8.99861 8.27292 10.0674 8.51042 11.1229C8.74792 12.1785 9.09097 13.2208 9.53958 14.25ZM23.7104 28.4208C24.7396 28.8694 25.7885 29.2257 26.8573 29.4896C27.926 29.7535 29.0014 29.925 30.0833 30.0042V26.5208L26.3625 25.7688L23.7104 28.4208Z" fill="white"/>
</g>
</svg>
