<svg width="290" height="31" viewBox="0 0 290 31" fill="none" xmlns="http://www.w3.org/2000/svg">
<path d="M3.21645 18.1582C4.99651 17.7173 7.37911 17.4455 9.20869 17.3223C9.78137 17.2831 9.54181 17.5937 9.93908 17.5784C10.7164 17.5482 11.399 17.2979 12.1722 17.2884C12.4283 17.2866 12.1901 17.754 12.457 17.7427C13.9201 17.6773 15.2479 17.3385 16.7146 17.1747C23.9186 16.3724 30.9604 15.3112 38.2045 14.2492C40.6015 13.8972 43.555 13.7718 45.9849 13.1814C46.2693 13.1119 46.0348 12.7786 46.0843 12.7392C46.8628 12.1323 46.7046 12.9148 47.2803 12.9153C49.5602 12.916 52.0322 12.5219 54.1512 12.0101C55.0474 11.7923 54.0141 11.2286 54.9956 11.4753C55.0635 11.4917 54.901 11.9171 55.156 11.9152C55.7274 11.9114 56.8036 11.6538 57.2438 11.609C58.098 11.5235 58.2363 11.4955 59.0297 11.3625C60.1328 11.1809 61.4594 11.1483 62.611 10.8587C62.8593 10.7953 62.4576 10.4578 62.8472 10.3209C63.2379 10.184 64.3 10.0344 64.6696 10.0663C65.0401 10.0981 64.943 10.4349 65.0181 10.4953C65.6306 11.0082 66.7215 9.96161 66.8729 9.91416C69.6568 9.07021 72.2254 9.11339 74.896 8.64905C76.9487 8.29112 79.1066 7.75582 81.0359 7.44353C83.3741 7.06616 85.3513 6.94409 87.602 6.5161C87.8394 6.47142 87.4802 6.05499 87.7696 5.99955C90.8381 5.41207 93.8985 4.93393 97.017 4.71679C97.3344 4.69464 97.0034 5.17225 97.3243 5.17459C99.2417 5.18778 102.401 5.47022 103.177 3.50598C103.192 3.50423 103.207 3.50248 103.222 3.50072C104.526 3.3456 106.055 3.15728 107.225 3.31955C108.013 3.42058 107.37 3.98964 108.242 3.6435C108.437 3.56635 108.108 3.22229 108.404 3.13623C109.664 2.77181 111.097 2.65522 112.328 2.23755C112.583 2.15069 112.451 1.81414 112.515 1.73862C113.034 1.12589 114.222 1.78953 114.446 1.81459C116.23 1.98175 117.449 1.59276 119.042 1.34745C119.404 1.29227 118.895 0.892248 119.252 0.820591C121.117 0.461403 123 0.185316 125.027 0.234462C125.495 0.252662 125.093 0.683613 125.315 0.714159C125.799 0.783149 126.09 0.637283 126.474 0.515563C126.847 0.43142 127.325 0.178689 128.348 0.897413C128.718 1.21586 128.273 1.31884 128.316 1.39929C128.384 1.56169 128.435 1.69299 128.484 1.79679C128.664 2.31831 129.411 2.30523 129.517 2.44217C130.916 4.35602 130.037 5.99236 129.921 7.67204C129.9 7.88582 130.419 7.47421 130.328 8.08435C129.57 12.1391 127.227 15.2819 124.962 17.9561C124.603 18.3694 124.559 17.8611 124.506 17.8657C123.667 17.9506 124.149 18.733 124.07 18.8972C123.435 20.1621 122.086 20.7613 122.338 22.1149C121.758 22.799 121.2 23.4917 120.695 24.1789C120.564 24.3525 120.504 24.4854 120.501 24.4888C120.498 24.4901 120.516 24.429 120.504 24.3143C120.495 24.2048 120.431 24.0293 120.359 23.9356C120.204 23.7421 120.196 23.8076 120.325 23.8486C120.445 23.8958 120.65 23.9479 120.883 23.9844C121.84 24.1303 123.012 24.0922 124.177 24.0282C126.5 23.8898 128.91 23.6276 131.363 23.5728C131.438 23.5699 131.383 24.0058 131.531 23.9981C133.294 23.9083 132.851 23.3261 133.824 22.3207C134.074 22.0671 135.13 22.8301 135.224 22.8819C135.559 23.0769 135.395 23.7482 135.5 23.7776C136.368 23.9974 135.806 22.0108 136.851 21.7824C136.885 21.7785 136.828 22.1793 136.924 22.1968C137.224 22.2524 137.462 22.0453 137.757 22.1133C138.431 22.2717 138.877 23.1985 139.681 22.415C139.782 22.3137 139.338 21.2176 140.282 21.0533C140.659 20.9898 142.298 20.5767 142.775 20.5365C143.252 20.4976 143.027 20.9407 143.063 20.9485C144.423 21.127 144.004 21.4425 144.804 22.0034C145.604 22.5606 145.005 20.9036 145.211 20.65C145.421 20.3965 146.422 20.5655 146.685 20.6453C146.945 20.726 146.725 21.0299 146.945 21.0568C148.396 21.228 147.304 20.0653 147.665 19.6844C148.523 18.7803 149.648 19.8266 150.609 19.7004C150.866 19.6667 150.585 19.4357 150.805 19.3479C151.239 19.1768 151.609 19.1518 151.981 19.0938L151.955 19.1014C152.327 19.0297 152.732 18.9134 153.17 18.5782C153.315 18.4688 153.885 17.4687 154.586 17.8475C154.686 17.9027 154.574 18.2781 154.971 18.2282C155.558 18.1558 156.592 17.9021 157.165 17.6079C157.583 17.3921 156.914 17.0434 157.524 17.0251C157.797 17.0169 157.425 17.4609 157.931 17.4205C158.429 17.382 159.617 16.9973 160.067 16.8478C160.52 16.6966 160.152 16.3866 160.181 16.3492C160.36 16.1302 161.167 15.6797 161.249 15.6556C165.134 14.4239 168.924 14.0645 172.703 12.8702C173 12.7773 172.695 12.4143 172.739 12.3959C173.721 11.9636 173.188 13.2681 173.999 13.4568C173.682 12.6432 174.159 12.6849 174.854 12.4177C175.192 12.2874 174.923 12.0078 174.946 11.9667C175.347 11.3451 175.871 11.8966 175.994 12.0057C176.449 12.4062 176.689 11.7486 177.001 12.0158C177.311 12.2808 176.88 12.8812 177.58 12.712C177.707 12.3641 177 11.6961 177.507 11.4438C179.409 10.4861 183.302 10.313 184.943 10.0661C186.573 9.81518 187.088 9.66383 188.056 9.59995C189.805 9.4906 189.064 9.01331 190.09 8.55491C191.115 8.09977 190.84 9.64831 191.047 9.93544C191.249 10.2236 191.358 9.87345 191.573 10.0146C191.787 10.1559 191.421 10.4362 191.869 10.4281C192.319 10.4187 193.422 9.66796 193.525 9.31554C193.745 8.56786 193.083 7.92225 194.298 7.99616C194.368 8.00096 194.207 8.41927 194.472 8.41817C196.546 8.40141 198.68 8.11967 200.749 8.12178C201.036 8.12239 200.838 8.58391 201.006 8.58918C201.081 8.59163 201.152 8.59279 201.219 8.59268C202.672 8.59557 202.071 7.96392 202.875 7.08565C202.793 8.18244 203.391 8.77276 204.672 8.63345C205.448 8.55031 205.263 8.0973 205.732 7.71164C205.87 7.5957 206.451 7.85848 206.527 7.6277C206.78 6.87298 206.172 6.12031 207.548 6.30214C207.609 6.31135 207.461 6.72499 207.668 6.72796C208.992 6.7516 209.069 5.98255 210.485 5.75632C211.584 5.57989 213.605 5.86582 214.879 5.83788C214.955 7.0481 216.117 6.6754 216.537 5.8044C217.363 5.77426 218.246 5.66068 219.047 5.71871C219.323 5.73829 219.168 6.10146 219.205 6.13682C219.776 6.69242 220.077 5.85593 220.253 5.81163C222.146 5.36916 223.75 5.88436 225.554 5.17288C225.617 5.1474 225.672 4.30006 226.198 4.88546C226.232 4.92596 225.65 5.3438 226.512 5.32324C227.378 5.30243 229.026 5.66334 230.205 5.21163C230.492 5.10256 231.19 4.38201 231.804 4.88665C231.885 4.95524 231.812 5.20079 231.931 5.32949C232.318 5.73935 232.476 4.87912 232.942 5.58093C233.411 6.2826 234.32 6.78155 235.506 6.22912C235.544 6.21291 235.8 5.52592 236.182 5.51993C236.789 5.51102 237.651 5.61517 238.286 5.58479C238.59 5.56999 238.378 5.15925 238.43 5.14943C240.459 4.83201 241.925 5.15048 244.114 5.2362C244.519 5.25257 245.644 4.64257 246.435 5.06902C247.302 5.53608 246.499 7.61932 248.431 7.06865C249.209 6.8486 250.139 4.2092 251.59 5.52109C254.334 5.1087 256.886 5.737 259.635 5.19558C259.758 5.17156 260.133 4.43441 260.425 4.43781C260.858 4.44428 261.103 4.77944 261.413 4.7951C262.712 4.86935 263.887 4.55357 265.14 4.57381C265.613 4.58084 265.454 4.93608 266.019 4.94464C266.584 4.95293 266.952 4.48213 267.723 4.69144C268.306 4.85112 268.899 5.78776 269.668 5.88421C269.681 4.94922 270.209 4.95877 271.142 4.69549C271.321 4.64445 271.122 4.32261 271.207 4.28169C271.55 4.10794 271.875 4.3719 272.201 4.1837C272.28 4.13849 272.279 3.81929 272.343 3.76431C272.892 3.28466 273.823 3.98696 273.983 4.10931C274.594 4.57387 274.869 4.15412 275.335 4.33341C275.8 4.51271 275.113 4.75773 275.655 4.86228C276.78 5.07845 278.214 5.00397 279.353 5.00085C279.807 4.99763 279.49 4.57647 279.555 4.56611C280.493 4.44339 281.446 4.88204 281.954 4.02551C282.637 6.20973 282.518 3.80399 283.864 4.22302C283.97 4.25696 284.12 5.29253 283.717 5.45096C283.315 5.60924 282.694 5.29421 282.135 5.54025C282.002 5.59799 281.254 6.58196 281.151 6.64246C280.343 7.1153 280.204 5.5666 280.16 5.4821C279.656 4.57064 278.739 5.63274 278.495 5.70901C277.378 6.05839 276.419 5.85576 275.483 6.10793C274.872 6.27105 274.829 7.28769 274.346 7.26465C272.741 7.1889 272.156 5.78177 270.668 7.03704C270.348 7.30487 270.69 8.40899 269.514 7.55723C269.44 7.50351 268.564 6.72084 268.077 7.23527C268.016 7.30013 268.023 7.62359 267.941 7.65232C267.391 7.83856 267.017 7.58789 266.418 7.72302C265.818 7.85816 265.102 8.05645 264.411 7.96078C263.995 7.9036 263.451 7.31192 263.25 7.16852C262.681 6.75514 262.099 7.46485 261.739 6.9577C261.378 6.44802 262.046 5.64743 261.12 5.33328C261.104 6.17444 261.045 7.03876 261.009 7.88515C259.002 7.89987 257.021 7.67488 255.004 7.76393C254.755 7.77581 255.022 8.22099 254.755 8.24539C253.63 8.34641 252.632 8.05109 251.466 8.21243C250.567 8.33897 249.582 8.84662 248.641 8.9961C248.036 8.05212 246.635 8.42297 245.614 8.36932C245.256 8.3509 245.271 8.09336 245.015 8.01818C244.045 7.74116 244.523 8.57541 244.265 8.71816C243.155 9.3283 242.993 7.40864 241.663 7.50543C241.592 7.50986 240.768 8.56738 240.652 8.63585C239.916 9.08114 240.514 8.28393 240.04 8.22657C239.178 8.12185 238.563 7.90146 237.566 8.24391C237.274 8.34522 236.604 9.01359 236.005 8.54511C235.927 8.48375 235.954 8.14325 235.892 8.1261C234.779 7.84437 234.799 8.91012 234.192 9.29925C233.589 9.68816 232.58 9.00081 232.374 8.79883C231.833 8.27653 232.757 8.54548 232.783 8.49051C233.08 7.83518 232.378 7.97928 231.838 7.95208C231.708 6.91276 230.959 7.01331 231.278 7.9282C231.314 8.02804 231.727 7.90977 231.838 7.95208C231.418 8.99889 230.597 9.17169 229.631 8.26412C229.18 7.83893 229.554 7.29403 228.268 7.55614C227.679 7.67537 227.948 8.38058 227.437 8.60575C226.276 9.11932 224.688 8.54254 223.474 8.72618C223.034 8.79277 223.49 9.15801 223.19 9.2171C222.388 9.37586 221.657 9.12859 220.863 9.33501C220.791 9.35422 220.997 9.75299 220.748 9.77551C218.841 9.95617 217.167 9.81673 215.184 9.97164C214.22 10.0466 212.531 10.421 211.536 10.4676C209.816 10.5475 207.635 10.1648 206.193 10.469C205.246 10.6664 205.5 11.0537 205.123 11.3785C204.401 12.0066 202.896 11.2045 202.688 11.0785C202.681 11.074 203.492 10.8786 203.027 10.7213C202.719 10.3145 202.697 11.0755 202.688 11.0785C202.612 11.0324 202.057 11.0462 201.535 11.0898C201.121 11.1246 200.728 11.1772 200.591 11.2299C200.42 11.2957 200.569 11.6699 200.479 11.6969C198.344 12.3295 196.19 12.7413 193.957 12.9118C193.917 12.9101 193.906 12.4695 193.813 12.4711C192.512 12.4826 191.779 13.1477 190.785 13.6414C189.79 14.1359 188.951 14.1806 188.192 13.5583C187.429 13.7946 186.221 13.6885 185.539 13.6182C184.847 13.5497 184.92 14.4029 184.867 14.4306C183.205 15.3146 182.064 15.0578 180.216 15.3895C179.322 15.5483 177.622 16.0675 176.703 16.3853C175.968 16.6391 175.488 16.5515 174.823 16.8482C174.734 16.8879 174.92 17.2318 174.895 17.253C174.242 17.8832 174.384 16.8939 174.186 16.7731C173.478 16.332 173.02 16.1173 172.123 16.6431C171.909 16.7657 171.588 18.2282 171.206 18.4114C170.702 18.6487 170.773 18.1348 170.246 18.3975C170.201 18.4196 170.287 18.7013 169.943 18.782C168.332 19.1633 166.551 19.4925 164.907 20.0095C164.682 20.079 165.103 20.4418 164.782 20.5493C163.27 21.0552 161.594 21.5507 160.038 21.8082C159.656 21.8695 159.787 21.4856 159.679 21.4177C159.017 21.0088 158.571 22.0451 158.467 22.0951C156.714 22.9366 155.081 23.1922 153.371 23.6341L153.232 23.6748C152.392 23.8591 151.517 24.0919 150.591 24.4632C150.447 24.5243 149.462 25.7307 148.731 25.1082C148.681 25.0672 147.95 24.4267 147.61 25.0807C147.591 25.1213 148.023 25.4378 147.436 25.5443C146.848 25.6512 145.976 26.1564 145.066 25.9131C144.776 25.8376 143.992 25.2059 143.385 26.01C143.347 26.0657 142.512 27.7521 141.862 26.8803C141.756 26.7364 141.586 25.694 140.804 26.4314C140.655 26.5737 141.022 26.7301 140.599 26.9788C139.95 27.3611 138.958 27.2961 138.191 27.9451C138.057 28.0598 137.565 28.8998 136.931 28.4788C136.832 28.4128 136.914 28.0356 136.631 28.0552C135.298 28.1439 133.963 28.6522 132.586 28.659C132.094 28.6623 132.233 28.0585 131.711 27.9974C131.197 27.9355 130.166 27.9625 129.696 28.2997C129.216 28.6388 129.931 29.4464 129.142 29.641C127.43 30.0562 125.661 30.2294 123.752 30.2229C122.778 30.2142 121.81 30.174 120.608 29.9994C120.322 29.9555 119.997 29.8994 119.645 29.8201C119.472 29.781 119.298 29.7372 119.121 29.6871C118.913 29.6296 118.699 29.5625 118.481 29.4831C117.728 29.1537 116.086 28.6965 115.009 26.3417C114.523 24.9547 114.605 24.8985 114.474 24.632C114.429 24.5042 114.377 24.3321 114.371 23.9721C114.368 23.7968 114.382 23.5558 114.421 23.307C114.454 23.0838 114.512 22.8193 114.61 22.5233C114.935 21.592 115.211 21.165 115.581 20.604C117.286 18.106 119.435 15.0589 121.024 13.7792C122.449 12.6461 121.582 14.7017 122.51 13.7123C122.961 13.2247 122.424 12.0842 122.47 11.9438C122.925 10.5371 123.792 9.89464 124.109 8.76856C124.169 8.54259 123.688 8.59221 123.74 8.40527C123.909 7.78042 124.265 7.23995 124.303 6.78999C124.317 6.59512 123.988 6.58386 124.028 6.44377C124.112 6.10763 124.226 5.97205 124.487 5.77026C124.507 5.74143 124.932 5.7376 124.902 5.59468C124.871 5.46913 124.912 5.30768 124.788 5.12723C124.852 5.19443 125.063 5.39843 125.312 5.54792C125.555 5.69864 125.781 5.78037 125.898 5.82161C126.144 5.9019 126.103 5.91315 126.02 5.98053C125.856 6.07517 125.931 6.80922 125.358 6.33259C125.226 6.23696 125.322 5.32147 124.66 6.1684C124.547 6.30549 123.395 7.50331 122.629 6.93858C122.445 6.78602 121.86 6.13143 121.502 6.30299C121.452 6.32928 121.725 6.69299 121.408 6.78125C120.284 7.08707 119.07 7.2417 117.896 7.564C117.588 7.64994 118.125 7.9812 117.661 8.09685C116.383 8.41606 114.709 8.59341 113.426 8.68154C112.934 8.71627 113.21 8.3204 113.169 8.28953C112.515 7.78446 112.338 8.64785 112.159 8.72715C111.061 9.20675 110.112 8.97922 109.103 9.25707C108.817 9.33395 109.09 9.68413 109.038 9.72851C108.492 10.169 108.823 9.39828 108.424 9.3886C107.339 9.3535 106.141 9.59285 105.087 9.82618C104.691 9.91392 105.217 10.2834 104.86 10.3572C104.717 10.3874 104.572 10.4174 104.425 10.4469C102.501 10.8383 100.427 11.1432 98.5015 11.24C98.1037 11.2603 98.2892 10.8734 98.1943 10.8088C97.5237 10.3582 96.8758 11.2436 96.6946 11.3486C95.9048 11.8218 95.5 11.5782 94.7776 11.762C91.1701 12.6786 86.6094 13.2612 83.133 13.7354C78.5977 14.3563 75.049 14.634 70.7684 15.4637C70.4949 15.5163 70.851 15.9264 70.6161 15.9776C67.6073 16.613 64.5647 16.9561 61.5567 17.6139C61.3082 17.6673 61.7444 18.0391 61.3478 18.1395C60.5296 18.3494 59.4914 18.5051 58.6362 18.5105C58.2191 18.514 58.6985 18.047 58.2798 18.0581C57.3021 18.0837 56.2766 18.2297 55.3163 18.4679C54.9065 18.5704 55.61 18.906 55.071 19.0047C51.4 19.6866 47.7934 20.3908 43.9822 20.4591C43.72 20.4639 43.3396 19.5999 42.8252 19.8675C42.8276 20.1251 42.881 20.4194 42.9095 20.6903C37.5795 21.7631 32.2276 22.3688 26.8488 23.2517C26.6222 23.289 27.0962 23.6995 26.6579 23.7741C24.1163 24.2076 21.6762 24.7672 19.0009 24.7414C18.7354 24.7395 18.7218 23.8751 17.9846 24.134C17.8553 24.1803 16.7286 24.4913 16.4665 24.7249C16.4312 24.7594 16.7076 25.1161 16.3418 25.1913C14.2137 25.6218 11.9545 25.9212 9.77585 26.0518C9.42393 26.0722 9.71888 25.5902 9.46759 25.601C7.68805 25.6809 5.84677 26.3277 4.11715 26.2365C2.95867 26.1739 3.24576 25.3794 2.53026 24.7703C2.4291 24.6845 1.73634 24.7882 1.62884 24.3803C1.35667 23.3549 1.49317 22.1568 1.16357 21.0707C1.09314 20.8366 0.21367 21.2544 0.660629 20.5818C0.692148 20.5365 1.32889 20.2286 1.45991 20.004C1.5513 19.8486 1.27125 19.4634 1.47557 19.2493C1.67991 19.0353 1.99868 19.3437 2.35192 19.0725C2.70453 18.7989 2.45071 18.3494 3.21645 18.1582ZM182.42 13.3359C181.732 13.0638 181.956 14.5451 182.53 14.058C182.558 14.0327 182.455 13.3489 182.42 13.3359ZM257.002 6.54833C256.176 5.90871 255.641 6.89251 256.229 7.38734C256.813 7.88183 257.254 6.74221 257.002 6.54833ZM265.423 5.88129C264.463 5.38031 264.355 7.50357 265.364 7.05455C265.423 7.02916 265.479 5.91038 265.423 5.88129ZM5.24068 24.0916C5.22875 24.0735 4.72948 24.1404 4.72103 24.1619C4.53809 24.6756 5.53638 24.5415 5.24068 24.0916ZM273.783 5.20414C273.481 4.92231 272.631 5.26806 273.006 5.6184C273.308 5.90022 274.159 5.55468 273.783 5.20414ZM150.823 20.3987C150.808 20.3796 150.458 20.4529 150.497 20.5728C150.626 20.9583 151.076 20.7188 150.823 20.3987ZM288.011 4.95837C285.908 4.90972 284.607 3.17722 286.899 3.34078C287.314 3.37038 286.015 3.91262 286.544 4.06269C287.514 4.33603 288.139 3.22677 289.134 3.80148C289.314 3.9067 288.131 4.96503 288.007 4.96087C288.009 4.96003 288.01 4.9592 288.011 4.95837ZM181.7 11.652C181.683 11.6353 181.197 11.7198 181.187 11.7422C181.024 12.2625 182.008 12.0912 181.7 11.652ZM130.129 24.2064C130.09 24.1719 128.951 24.3197 128.925 24.3613C128.451 25.226 130.771 24.9283 130.129 24.2064ZM214.901 5.86848C215.413 5.34727 216.052 5.23999 216.535 5.80398C215.989 5.81462 215.454 5.85268 214.901 5.86848Z" fill="#D8FF01"/>
</svg>
