<svg width="1139" height="500" viewBox="0 0 1139 500" fill="none" xmlns="http://www.w3.org/2000/svg">
<g clip-path="url(#clip0_10043_12993)">
<g filter="url(#filter0_d_10043_12993)">
<path d="M0 32C0 14.3269 14.3269 0 32 0H1107C1124.67 0 1139 14.3269 1139 32V468C1139 485.673 1124.67 500 1107 500H32C14.3269 500 0 485.673 0 468V32Z" fill="white"/>
</g>
<g filter="url(#filter1_f_10043_12993)">
<path d="M-42.5 554C-19.7803 642.625 354.774 632.524 394.492 620.899L573.5 554C573.5 554 277.185 526.508 140 468.501C2.81511 410.494 -23.5 175.501 -9.5 32.0004C-6.07299 -3.12653 -29.7622 154.99 -42.5 222.5C-67.5 355 -70.8997 443.219 -42.5 554Z" fill="#1340FF"/>
</g>
<g filter="url(#filter2_f_10043_12993)">
<path d="M1200.73 -32.5573C1181.15 -111.686 858.449 -102.667 824.229 -92.2876L670 -32.5573C670 -32.5573 925.297 -8.01075 1043.49 43.7811C1161.69 95.573 1184.36 305.387 1172.3 433.512C1169.35 464.875 1189.76 323.7 1200.73 263.424C1222.27 145.121 1225.2 66.3538 1200.73 -32.5573Z" fill="#1340FF"/>
</g>
</g>
<defs>
<filter id="filter0_d_10043_12993" x="-12" y="-8" width="1163" height="524" filterUnits="userSpaceOnUse" color-interpolation-filters="sRGB">
<feFlood flood-opacity="0" result="BackgroundImageFix"/>
<feColorMatrix in="SourceAlpha" type="matrix" values="0 0 0 0 0 0 0 0 0 0 0 0 0 0 0 0 0 0 127 0" result="hardAlpha"/>
<feOffset dy="4"/>
<feGaussianBlur stdDeviation="6"/>
<feComposite in2="hardAlpha" operator="out"/>
<feColorMatrix type="matrix" values="0 0 0 0 0.0745098 0 0 0 0 0.25098 0 0 0 0 1 0 0 0 0.25 0"/>
<feBlend mode="normal" in2="BackgroundImageFix" result="effect1_dropShadow_10043_12993"/>
<feBlend mode="normal" in="SourceGraphic" in2="effect1_dropShadow_10043_12993" result="shape"/>
</filter>
<filter id="filter1_f_10043_12993" x="-162.545" y="-73.0264" width="836.045" height="801.443" filterUnits="userSpaceOnUse" color-interpolation-filters="sRGB">
<feFlood flood-opacity="0" result="BackgroundImageFix"/>
<feBlend mode="normal" in="SourceGraphic" in2="BackgroundImageFix" result="shape"/>
<feGaussianBlur stdDeviation="50" result="effect1_foregroundBlur_10043_12993"/>
</filter>
<filter id="filter2_f_10043_12993" x="570" y="-199" width="748" height="737" filterUnits="userSpaceOnUse" color-interpolation-filters="sRGB">
<feFlood flood-opacity="0" result="BackgroundImageFix"/>
<feBlend mode="normal" in="SourceGraphic" in2="BackgroundImageFix" result="shape"/>
<feGaussianBlur stdDeviation="50" result="effect1_foregroundBlur_10043_12993"/>
</filter>
<clipPath id="clip0_10043_12993">
<rect width="1139" height="500" rx="24" fill="white"/>
</clipPath>
</defs>
</svg>
